<?xml version="1.0" encoding="UTF-8"?><svg id="Layer_2" xmlns="http://www.w3.org/2000/svg" xmlns:xlink="http://www.w3.org/1999/xlink" viewBox="0 0 180.83 152.81"><defs><style>.cls-1{fill:url(#linear-gradient);}</style><linearGradient id="linear-gradient" x1="0" y1="76.41" x2="180.83" y2="76.41" gradientTransform="matrix(1, 0, 0, 1, 0, 0)" gradientUnits="userSpaceOnUse"><stop offset="0" stop-color="#153c77"/><stop offset=".15" stop-color="#164581"/><stop offset=".41" stop-color="#1a5d9c"/><stop offset=".74" stop-color="#2185c8"/><stop offset="1" stop-color="#28a9f0"/></linearGradient></defs><g id="Layer_18"><path class="cls-1" d="M180.83,52.83v96.11c-1.04,1.85-2.57,3.25-4.94,3.88H96.44c-.57-.41-1.17-.8-1.7-1.25-2.51-2.1-6.1-2.1-8.6,0-.53,.45-1.13,.83-1.7,1.25H4.99c-3.67-1.09-5.15-3.29-4.98-6.54,.17-3.23,.02-6.47,.04-9.7,0-1.74,.85-2.58,2.56-2.62,1.79-.04,2.72,.83,2.73,2.62,.02,3.33,.08,6.67-.03,10-.04,1.39,.51,1.78,2.13,1.78,24.54-.04,49.08-.02,73.61-.06,.79,0,1.71-.3,2.34-.71,4.12-2.68,9.85-2.71,13.96-.11,.76,.48,1.87,.81,2.82,.82,.16,.03,72.49,.14,72.73,.03q2.63,0,2.63-2.2c0-30.24,0-60.49,0-90.73,0-.4,.11-.83-.04-1.18-.16-.35-.57-.86-.9-.88-1.73-.09-3.47-.04-5.31-.04v2.16c0,28.2,0,56.41,0,84.61,0,2.92-.66,3.47-4.12,3.47-49.78,0-99.56,0-149.35,0-3.57,0-4.2-.53-4.2-3.56,0-28.2,0-56.41,0-84.61v-2.11c-1.4,0-2.61,0-3.83,0q-2.43,0-2.43,2.07c0,21.99,0,43.97,0,65.96,0,.55,.05,1.11-.08,1.64-.28,1.14-1.26,1.67-2.56,1.67-1.3,0-2.28-.52-2.57-1.66-.12-.48-.08-.99-.08-1.49,0-7.46,0-14.92,0-22.38,0-14.87,0-29.75,0-44.62,0-3.47,2.47-5.59,6.54-5.66,1-.02,2-.03,3,0,1.12,.04,1.94,.02,2.29-1.22,.18-.66,1.25-1.3,2.1-1.62,2.08-.79,4.24-1.46,6.42-2.06,2.89-.8,5.83-1.48,8.86-2.23,0-.62,0-1.22,0-1.81,0-9.4,0-18.8,0-28.2,0-2.43,1.25-3.3,3.99-2.72,2.96,.63,5.9,1.34,8.82,2.07,1.55,.38,3.06,.88,4.84,1.39,0-3.3,.04-6.37-.02-9.44C46.87,1.62,47.33,.6,48.77,0h1.77c.78,.2,1.55,.42,2.34,.59,7.91,1.77,15.04,4.8,21.14,9.47,9.2,7.04,14.33,16,17.1,26.04,.77,2.79,1.24,5.64,1.87,8.55,.33-.18,.63-.32,.9-.5,17.95-11.75,38.45-17.18,60.98-17.56,3.06-.05,3.82,.61,3.82,3.25,0,3.98,.06,7.96-.03,11.94-.03,1.18,.34,1.76,1.74,2.11,2.25,.56,4.46,1.26,6.59,2.09,.87,.34,1.81,1.08,2.1,1.81,.36,.91,.88,1.02,1.77,.99,.7-.03,1.42,.04,2.12-.01,3.8-.27,6.5,.96,7.86,4.06Zm-27.44-21.7c-.79,0-1.31-.02-1.83,0-7.01,.3-13.93,1.09-20.72,2.61-13.49,3.01-25.72,8.11-36.37,15.81-.89,.64-1.41,1.3-1.41,2.39,.04,27.21,.03,54.41,.04,81.62,0,.45,.08,.9,.15,1.56,17.85-11.73,37.96-17.25,60.14-17.94v-1.96c0-15.42,0-30.84,0-46.26,0-2.37,.89-3.47,2.76-3.43,1.78,.05,2.54,1.05,2.54,3.42,0,16.41,0,32.83,0,49.24,0,2.94-.62,3.48-4.11,3.5-9.23,.05-18.28,1.21-27.11,3.44-3.24,.82-6.39,1.87-9.59,2.81,15.65-2.04,30.88-.71,46.1,3.25v-1.99c0-25.91,0-51.83,0-77.74,0-.4,.07-.81-.04-1.19-.08-.29-.33-.66-.62-.76-1.44-.5-2.92-.92-4.66-1.46,0,2.21,.05,4.14-.02,6.07-.04,1.21-.9,1.93-2.33,2.03-1.51,.11-2.47-.54-2.8-1.78-.12-.48-.11-.99-.11-1.48,0-4.92,0-9.85,0-14.77v-7.02ZM52.3,5.13c-.04,.52-.09,.91-.09,1.3,0,27.75,0,55.5-.03,83.25,0,1.02,.33,1.44,1.54,1.73,15.53,3.69,26.39,11.95,33.07,24.27,.22,.41,.46,.81,.69,1.21l.32-.09v-1.61c0-21.34,.09-42.67-.07-64-.03-4.44-.58-8.95-1.63-13.31-2.37-9.86-7.35-18.64-16.64-25.31-5-3.59-10.72-6-17.15-7.45Zm30.33,128.53c-.48-.68-.65-.98-.88-1.25-12.23-14.37-28.15-24.21-48.71-28.36-3.59-.72-3.78-.93-3.78-3.99,0-17.26,0-34.52,0-51.78v-2.06c-3.78,1.03-7.15,2-10.56,2.87-1.4,.36-1.83,.97-1.83,2.22,.05,26.01,.04,52.02,.04,78.04v1.83c22.19-5.65,43.94-5.94,65.73,2.47Zm3.69-3.68l.41-.14c-1.11-3.12-2.03-6.31-3.38-9.36-5.81-13.16-16.51-21.84-32.87-25.19-3.36-.69-3.57-.89-3.57-3.82,0-24.07,0-48.14,0-72.2,0-.45,.07-.91-.03-1.34-.07-.3-.29-.72-.57-.81-3.81-1.2-7.65-2.35-11.66-3.57-.05,.69-.1,.98-.1,1.27,0,27.9,0,55.79-.02,83.69,0,.89,.29,1.28,1.38,1.52,18.87,4.13,34.17,12.91,46.43,25.61,1.37,1.42,2.65,2.88,3.98,4.33Zm-3.8,9.02l.11-.23c-.91-.39-1.81-.81-2.74-1.18-11.67-4.72-24.03-6.42-36.87-5.92-8.5,.34-16.78,1.76-24.9,3.92-.96,.25-1.35,.64-1.25,1.47,.07,.62,.01,1.25,.01,1.94H82.52Zm81.32,0c.37-3,.4-3.11-2.8-3.79-4.95-1.05-9.91-2.17-14.95-2.81-13.73-1.75-27.21-.82-40.25,3.43-2.59,.84-5.08,1.91-7.61,2.87l.14,.31h65.48Z"/></g></svg>