<?xml version="1.0" encoding="UTF-8"?><svg id="Layer_2" xmlns="http://www.w3.org/2000/svg" xmlns:xlink="http://www.w3.org/1999/xlink" viewBox="0 0 144.96 145.24"><defs><style>.cls-1{fill:url(#linear-gradient);stroke:url(#linear-gradient-2);stroke-miterlimit:10;stroke-width:.5px;}</style><linearGradient id="linear-gradient" x1=".25" y1="72.62" x2="144.71" y2="72.62" gradientTransform="matrix(1, 0, 0, 1, 0, 0)" gradientUnits="userSpaceOnUse"><stop offset="0" stop-color="#153c77"/><stop offset=".15" stop-color="#164581"/><stop offset=".41" stop-color="#1a5d9c"/><stop offset=".74" stop-color="#2185c8"/><stop offset="1" stop-color="#28a9f0"/></linearGradient><linearGradient id="linear-gradient-2" x1="0" x2="144.96" xlink:href="#linear-gradient"/></defs><g id="Layer_18"><path class="cls-1" d="M144.71,6.19V115.02c-1.42,4.44-4.57,5.95-9.06,5.91-14.76-.12-29.52-.04-44.27-.04h-1.7c.04,.42,.03,.66,.09,.88,1.12,4.37,5.53,8.24,10.04,8.81,3.88,.49,6.64,2.51,8.12,6.13,1.58,3.86,.62,6.38-3,8.27H40.03c-3.03-1.58-4.02-3.28-3.59-6.1,.68-4.36,3.93-7.64,8.28-8.26,2.9-.41,5.34-1.72,7.43-3.71,1.67-1.59,2.74-3.54,3.17-6.03h-1.77c-15.14,0-30.27,0-45.41,0-4.92,0-7.9-3-7.9-7.93,0-34.95,0-69.89,0-104.84,0-.7,.03-1.42,.17-2.1C1.09,2.85,3.26,1.17,6.18,.25H138.78c3.08,.87,5.05,2.86,5.93,5.94ZM5.06,101.43H139.9v-1.66c0-30.34,0-60.68,0-91.01,0-3.07-.63-3.69-3.73-3.69-42.46,0-84.91,0-127.37,0-3.11,0-3.74,.62-3.74,3.68,0,30.34,0,60.68,0,91.01v1.67Zm134.84,5.08H5.16c-.05,.22-.08,.31-.08,.4,0,1.79-.01,3.58-.01,5.37,0,3.18,.6,3.78,3.8,3.78,42.42,0,84.83,0,127.25,0,.47,0,.94,.02,1.41-.03,1.47-.15,2.34-1.01,2.37-2.48,.05-2.3,.01-4.61,.01-7.04Zm-36.17,33.62c-.25-3.11-2.12-4.76-5.29-4.77-17.3,0-34.61,0-51.91,0-.38,0-.75,0-1.13,.03-2.39,.26-4.18,2.32-4.08,4.74h62.41Zm-48.15-9.71h33.57c-.96-1.43-2.03-2.71-2.75-4.17-.71-1.46-1.03-3.1-1.61-4.63-.12-.32-.63-.69-.96-.69-7.56-.04-15.12-.04-22.69,0-.33,0-.91,.4-.96,.68-.58,3.35-2.14,6.19-4.6,8.81Zm16.9-33.69c-18.9,0-37.79,0-56.69,0-4.21,0-5.92-1.7-5.92-5.89,0-25.01,0-50.02,0-75.03,0-4.16,1.76-5.92,5.92-5.92,37.79,0,75.59,0,113.38,0,4.15,0,5.92,1.77,5.92,5.92,0,25.01,0,50.02,0,75.03,0,4.18-1.72,5.88-5.92,5.88-18.9,0-37.79,0-56.69,0Zm57.72-4.88V14.79H14.78V91.84h115.42ZM36.11,52.14c6.02-6.02,12.03-12.04,18.04-18.07,.33-.33,.68-.65,.96-1.03,.71-.97,.62-2.27-.2-3.1-.82-.84-2.09-.97-3.09-.27-.34,.24-.64,.55-.94,.85-6.81,6.82-13.62,13.64-20.43,20.47-1.76,1.77-1.76,2.87,0,4.64,6.77,6.79,13.55,13.58,20.33,20.37,.33,.33,.65,.69,1.04,.95,1.03,.71,2.05,.6,2.97-.2,.88-.76,1.03-2.08,.37-3.08-.26-.39-.6-.72-.93-1.05-5.88-5.89-11.76-11.79-17.65-17.66-.53-.53-1.19-.93-2.07-1.6,.78-.59,1.24-.86,1.6-1.22Zm72.69,2.41c-6.03,6.01-12.05,12.04-18.06,18.08-.4,.4-.82,.8-1.09,1.28-.56,1.01-.45,2.02,.38,2.85,.88,.87,1.92,.95,2.97,.31,.39-.24,.71-.61,1.05-.94,6.82-6.82,13.63-13.65,20.44-20.48,1.76-1.76,1.76-2.89,0-4.65-6.81-6.83-13.63-13.65-20.44-20.48-.2-.2-.39-.41-.61-.59-1.1-.92-2.52-.88-3.42,.09-.88,.95-.87,2.26,.06,3.31,.34,.39,.72,.74,1.09,1.1,6.25,6.26,12.5,12.51,19.12,19.14-.55,.35-1.1,.58-1.49,.97Zm-43.39,23.02c6.19-15.53,12.39-31.06,18.59-46.59,.17-.44,.36-.88,.44-1.34,.21-1.22-.29-2.14-1.41-2.62-1.13-.49-2.14-.18-2.86,.81-.3,.41-.47,.92-.66,1.4-5.44,13.61-10.88,27.22-16.31,40.83-.85,2.14-1.75,4.26-2.54,6.42-.64,1.75,.48,3.4,2.01,3.38,1.67-.06,2.25-1.08,2.73-2.28Z"/></g></svg>