<?xml version="1.0" encoding="UTF-8"?><svg id="Layer_2" xmlns="http://www.w3.org/2000/svg" xmlns:xlink="http://www.w3.org/1999/xlink" viewBox="0 0 206.18 138.75"><defs><style>.cls-1{fill:url(#linear-gradient);}</style><linearGradient id="linear-gradient" x1="0" y1="69.37" x2="206.18" y2="69.37" gradientTransform="matrix(1, 0, 0, 1, 0, 0)" gradientUnits="userSpaceOnUse"><stop offset="0" stop-color="#153c77"/><stop offset=".15" stop-color="#164581"/><stop offset=".41" stop-color="#1a5d9c"/><stop offset=".74" stop-color="#2185c8"/><stop offset="1" stop-color="#28a9f0"/></linearGradient></defs><g id="Layer_18"><path class="cls-1" d="M0,99.58c.46-3.24,.84-6.5,1.39-9.72,2.57-15.15,7.32-29.66,13.31-43.75,4.11-9.68,8.83-19.09,13.16-28.67,1.67-3.7,4.44-6.16,7.93-7.94C44.81,4.88,54.37,1.88,64.35,.22c6.08-1.01,11.1,1.58,15.87,4.98,1,.71,2.39,1.21,3.61,1.22,12.95,.09,25.91,.07,38.86,.01,.98,0,2.16-.32,2.91-.91,6-4.75,12.51-6.6,20.13-4.67,8.14,2.06,16.15,4.41,23.72,8.11,4.17,2.04,7.22,5,9.35,9.26,9.62,19.29,18.18,38.99,23.54,59.94,2.45,9.58,4.13,19.29,3.81,29.23-.19,6.01-1.2,11.87-3.94,17.32-3.63,7.21-9.5,11.64-17.19,13.78-2.14,.6-4.22,.17-5.96-1.04-3.29-2.3-6.61-4.6-9.6-7.26-7.72-6.86-15.27-13.92-22.9-20.9-.49-.45-1.05-.83-1.55-1.28-3.97-3.55-8.41-5.01-13.92-4.92-19.66,.31-39.33,.17-58.99,.07-2.78-.01-5.22,.57-7.29,2.28-5.07,4.18-10.11,8.39-15.03,12.74-5.43,4.8-10.64,9.85-16.07,14.64-2.05,1.8-4.4,3.28-6.73,4.73-2.16,1.36-4.51,1.42-6.96,.61-11.36-3.74-17.16-12.02-19.2-23.39-.28-1.57-.53-3.15-.8-4.72v-10.47Zm199.75,5.09c.17-.03-1.19-13.79-2.69-20.51-5-22.32-14.05-43.13-24.28-63.48-1.31-2.61-3.16-4.4-5.7-5.68-7.11-3.57-14.69-5.73-22.34-7.78-6.26-1.68-11.36,0-15.94,4.09-1.3,1.16-2.65,1.62-4.36,1.62-14.03-.04-28.05-.05-42.08,0-2.06,0-3.67-.51-5.3-1.86-3.28-2.73-6.86-5.23-11.44-4.5-9.92,1.59-19.45,4.49-28.24,9.48-1.17,.66-2.35,1.72-2.96,2.89C23.32,40.37,13.79,62.42,8.67,86.12c-2.01,9.28-3.18,18.67-1.39,28.15,1.26,6.65,4.19,12.21,10.24,15.87,3.73,2.26,7.05,2.57,10.25-.76,.37-.38,.86-.65,1.25-1.01,5.55-5.07,11.01-10.23,16.65-15.2,5.13-4.52,10.35-8.94,15.7-13.19,3-2.39,6.56-3.29,10.52-3.27,20.94,.11,41.88,.09,62.82,.01,3.44-.01,6.49,.83,9.3,2.68,1.68,1.1,3.4,2.19,4.89,3.52,7.15,6.39,14.19,12.92,21.35,19.3,3.5,3.12,7.2,6.01,10.82,9,1.26,1.04,2.58,1.07,4.12,.49,5.87-2.21,9.95-6.16,12.19-12.03,1.85-4.84,2.36-9.88,2.38-15.01Zm-126.6-11.57c9.13,1.9,18.28-2.87,21.85-11.44,2.09-5.01,2.05-10.06-.04-15.06-.75-1.78-2.49-2.5-4.12-1.88-1.59,.61-2.36,2.17-1.91,3.92,.16,.65,.42,1.27,.61,1.91,2.37,7.96-3.48,16.25-11.76,16.48-5.55,.16-9.69-2.35-12.19-7.32-2.31-4.61-1.45-10.28,1.95-14.08,3.61-4.02,8.85-5.33,14.13-3.54,2.59,.88,4.3,.3,4.99-1.7,.66-1.93-.27-3.41-2.74-4.34-12.54-4.74-26,4.61-26.03,18.08-.02,9.15,6.4,17.12,15.27,18.96Zm-25.84-32.26c9.18,1.93,18.46-2.96,21.95-11.59,1.97-4.89,1.96-9.81-.01-14.69-.78-1.93-2.45-2.73-4.18-2.12-1.71,.61-2.45,2.32-1.85,4.29,.17,.58,.4,1.14,.56,1.72,2.55,8.97-5.29,17.81-14.37,16.19-7.58-1.35-12.37-8.5-10.56-15.76,1.88-7.51,9.52-11.58,16.97-9.05,2.59,.88,4.33,.31,5.02-1.65,.69-1.98-.29-3.49-2.89-4.44-12.45-4.56-25.62,4.55-25.88,17.89-.18,9.15,6.31,17.32,15.24,19.2Zm62.68,8.77c-2.08,8.77,2.14,17.87,10.11,21.83,8.11,4.02,17.85,2.09,23.51-4.89,4.83-5.96,5.84-12.64,3-19.82-.73-1.84-2.39-2.62-4.03-2.07-1.72,.57-2.53,2.29-1.99,4.26,.14,.52,.37,1.01,.53,1.52,1.71,5.61-.56,11.59-5.55,14.68-4.94,3.06-11.15,2.49-15.47-1.43-4.3-3.91-5.44-10.3-2.75-15.47,3.07-5.89,9.46-8.22,16.37-5.97,2.17,.71,3.78,.09,4.5-1.72,.71-1.79-.07-3.56-2.21-4.25-2.33-.76-3.24-1.02-7.29-1.25-8.97,.35-16.7,6.01-18.73,14.58Zm-16.63-43.77c-.02-5.36,4.16-9.63,9.48-9.68,5.41-.05,9.81,4.23,9.85,9.58,.03,5.29-4.45,9.78-9.74,9.74-5.28-.03-9.56-4.35-9.58-9.64Zm12.86-.12c-.04-1.74-1.52-3.14-3.3-3.11-1.79,.03-3.14,1.44-3.1,3.25,.04,1.78,1.5,3.2,3.24,3.15,1.71-.05,3.2-1.6,3.16-3.3Zm-28.91,38.84c-4.28,.2-2.98,3.77-3.47,6.27-2.48,.44-6.14-.82-6.18,3.29-.04,4.23,3.75,2.94,6.24,3.44,.31,2.59-.73,6.21,3.32,6.17,3.96-.04,2.99-3.65,3.34-6.28,2.58-.18,6.14,.68,6.18-3.25,.04-4.02-3.56-3.06-6.17-3.32-.43-5.09-1.06-6.43-3.26-6.32Zm90.05-16.18c3.53,.09,6.6-2.91,6.59-6.47,0-3.5-2.89-6.39-6.41-6.41-3.54-.02-6.43,2.81-6.47,6.32-.04,3.51,2.79,6.47,6.28,6.56Zm-12.89,12.9c3.55,.07,6.6-2.93,6.58-6.48-.01-3.49-2.92-6.39-6.43-6.4-3.54-.01-6.42,2.82-6.45,6.34-.03,3.52,2.8,6.46,6.29,6.53Zm.03-25.8c3.52,.06,6.58-2.98,6.55-6.52-.03-3.49-2.94-6.36-6.46-6.36-3.54,0-6.4,2.84-6.42,6.37-.02,3.51,2.83,6.45,6.33,6.51Zm-12.93,12.9c3.53,.08,6.6-2.94,6.59-6.48-.01-3.49-2.92-6.38-6.43-6.39-3.54-.01-6.41,2.81-6.44,6.34-.03,3.52,2.8,6.46,6.29,6.54Zm-12.84,32.24c3.55,.03,6.58-3,6.53-6.54-.06-3.49-2.99-6.36-6.5-6.34-3.53,.02-6.37,2.88-6.38,6.41,0,3.53,2.85,6.43,6.35,6.46ZM51.25,48.39c3.52,.09,6.6-2.94,6.59-6.48,0-3.51-2.89-6.38-6.41-6.4-3.55-.02-6.41,2.78-6.45,6.33-.04,3.52,2.79,6.47,6.27,6.55Z"/></g></svg>