<?xml version="1.0" encoding="UTF-8"?><svg id="Layer_2" xmlns="http://www.w3.org/2000/svg" viewBox="0 0 536.78 102"><defs><style>.cls-1{fill:#b3b3b3;}.cls-1,.cls-2,.cls-3,.cls-4{stroke:#000;stroke-miterlimit:10;stroke-width:2px;}.cls-2{fill:none;}.cls-3{fill:#fbb058;}.cls-4{fill:#603813;}</style></defs><g id="Layer_1-2"><path class="cls-1" d="M91.18,62.67H469.85c14.07,0,28.07-1.91,41.62-5.68l21.58-6-21.56-6c-13.56-3.77-27.58-5.69-41.66-5.69H91.18"/><polyline class="cls-3" points="533.05 51 118.05 51 108.05 59 90.05 57 90.05 45 108.05 43 118.05 51"/><polyline class="cls-4" points="85.01 57 21.31 57 21.31 51.41 21.31 45.83 85.1 45.83"/><path class="cls-3" d="M21.31,45.83l-9.05-3.93c-3.36-1.46-7.28-.1-9.01,3.13l-1.42,2.64c-1.11,2.08-1.11,4.58,0,6.65l1.56,2.9c1.67,3.11,5.39,4.51,8.7,3.26l9.22-3.49v-11.17Z"/><line class="cls-2" x1="27.31" y1="45.83" x2="31.62" y2="57"/><line class="cls-2" x1="34.31" y1="45.83" x2="38.62" y2="57"/><line class="cls-2" x1="41.31" y1="45.83" x2="45.62" y2="57"/><line class="cls-2" x1="48.31" y1="45.83" x2="52.62" y2="57"/><line class="cls-2" x1="55.31" y1="45.83" x2="59.62" y2="57"/><line class="cls-2" x1="62.31" y1="45.83" x2="66.62" y2="57"/><line class="cls-2" x1="69.31" y1="45.83" x2="73.62" y2="57"/><line class="cls-2" x1="76.31" y1="45.83" x2="80.62" y2="57"/><path class="cls-3" d="M90.05,51c0-27,19-50,19-50h-6s-19,23-18,50c-1,27,18,50,18,50h6s-19-23-19-50Z"/></g></svg>