<?xml version="1.0" encoding="UTF-8"?><svg id="Layer_2" xmlns="http://www.w3.org/2000/svg" viewBox="0 0 818.87 350.18"><defs><style>.cls-1,.cls-2{fill:#fff;}.cls-2{stroke:#231f20;stroke-miterlimit:10;stroke-width:6px;}.cls-3{font-family:ComicSansMS, 'Comic Sans MS';font-size:64px;}.cls-4{fill:#231f20;}</style></defs><g id="Page_4"><g id="Panel_4"><g id="Bubbles"><g><path class="cls-1" d="M323.1,19.44c1.39,7.17,12.1,7.22,18.22,3.23,6.12-3.99,11.51-10.36,18.82-10.46,13.47-.18,21.17,20.93,34.39,18.34,6.69-1.31,10.65-8.37,16.8-11.31,13.16-6.29,27.03,8.35,41.59,9.15,15.5,.85,30.07-14.17,44.78-9.21,6.33,2.14,11.15,7.71,17.61,9.42,15.44,4.07,28.61-15.33,44.54-14.29,14.25,.94,26.05,18.06,39.48,13.23,6.67-2.4,11.24-9.91,18.32-10.23,8.04-.36,13.71,8.81,21.71,9.67,11.81,1.27,19.43-15.62,31.29-14.91,8.55,.51,13.76,9.88,21.75,12.96,20.74,8.01,40.67-29.04,60.39-18.77,7.67,3.99,11.26,14.16,19.57,16.57,2.86,.83,5.98,.61,8.73,1.76,9.89,4.15,5.77,18.99,.09,28.09,14.23-2.2,28.31,12.51,25.48,26.64-1.05,5.26-3.9,11.01-1.08,15.58,1.19,1.93,3.21,3.2,4.51,5.06,6.49,9.3-9.03,19.33-10.21,30.61-.93,8.94,7.52,16.44,8.01,25.42,.54,9.98-8.83,18.51-8.22,28.48,.28,4.67,2.74,8.89,4.83,13.08,7.35,14.74,10.72,31.44,9.67,47.88-.37,5.73-1.37,11.7-4.89,16.24-1.97,2.53-4.72,4.66-5.53,7.76-1.41,5.42,3.7,10.17,5.4,15.5,3.64,11.44-27.61,5.52-38.1,11.37-21.56,12.02-30.58,39.44-50.08,24.29-1.63-1.26-3.29-2.75-5.35-2.88-8.02-.48-6.2,17.03-14.23,17.05-7.27-15.44-32.53-17.44-42.13-3.33-2.14,3.14-3.68,6.93-6.92,8.93-8.81,5.43-17.65-6.34-25.98-12.48-10.21-7.51-25.97-6-34.57,3.31-4.52,4.89-7.57,11.81-13.87,13.99-14.95,5.16-24.13-20.66-39.93-21.43-19.49-.96-24.82,24.2-43.99,20.56-11.49-2.18-16.66-6.41-26.82-12.21-9.77-5.57-24.14,1.41-25.8,12.53-8.71-13.55-22.92-29.05-37.87-23.06-5.07,2.03-9.03,6.36-14.23,8.05-14.14,4.59-25.68-11.55-31.83-25.08-15.04,12.38-34.52,25.52-52.44,17.88-4.65-1.98,5.02-6.76,.23-8.38-7.39-2.49-12.37-1.69-18.73-6.19-8.65-6.13-11.19-18.97-5.74-28.07,5.45-9.1,.23-14.79,4.47-24.51-15.91-2.92-26.04-22.83-19.05-37.41,5.26-10.97,18.34-21.17,13.25-32.22-1.56-3.39-4.8-6.22-4.83-9.95-.05-6.23,8.3-8.85,11.1-14.41,4.08-8.1-4.92-16.31-8.19-24.77-3.36-8.67-.46-18.31,.41-27.57s-1.86-20.61-10.73-23.37c12.04-7.71,16.91-24.86,10.72-37.75-1.71-3.57-4.23-7.33-3.19-11.15,.9-3.34,5.5-4.04,7.21-7.04,14.32-25.16,27.59-2.61,41.15-10.19"/><path class="cls-4" d="M318.76,20.63c2.33,8.61,11.97,10.6,19.64,8.26,8.15-2.49,15.48-14.47,24.61-11.74,7.14,2.13,12.11,9.86,18.01,14.07,6.82,4.87,14.79,5.34,21.74,.36,3.86-2.77,7.02-7.04,11.58-8.7,5.18-1.89,10.88,.43,15.66,2.46,9.19,3.91,18.01,8.65,28.32,7.26,10.1-1.36,18.68-7.32,28.55-9.4,11.65-2.46,17.91,7.88,28.46,10.02,18.81,3.82,32.4-20.46,50.77-12.71,8.19,3.45,15.01,10.07,23.91,11.9,3.98,.82,7.98,.53,11.75-1.04,4.62-1.93,7.84-5.7,12.13-8.15,8.45-4.82,16.38,7.21,24.89,8.18,8.9,1.01,15.29-5.39,21.77-10.39,2.87-2.21,6.29-4.78,10.12-4.43,4.74,.43,8.47,4.78,11.96,7.58,6.4,5.11,13.43,7.72,21.61,5.83s15.82-7.72,22.91-12.59c5.89-4.04,14.05-10.36,21.69-7.93,4.87,1.55,7.94,6.23,11.21,9.86,3.56,3.96,7.56,7.15,12.88,8.24,6,1.23,10.16,1.48,9.61,8.62-.38,5.06-2.64,9.94-5.23,14.22-1.62,2.68,.41,7.18,3.89,6.77,7.38-.86,14.16,2.57,18.25,8.75,5.02,7.58,1.71,13.73,.67,21.82-.42,3.24-.13,6.54,1.59,9.41,1.48,2.47,5.06,4.32,5.44,7.28,.64,5.07-5.64,11.24-7.97,15.34-3.24,5.69-4.84,11.68-2.92,18.13s7.44,12.52,7.16,19.49-5.72,13.42-7.47,20.31c-2.08,8.19,1.14,14.89,4.68,22.11,7.47,15.24,12.21,35.35,8.15,52.22-1.69,7-8.96,10.94-9.65,18.13-.32,3.32,.82,6.39,2.29,9.31,.97,1.92,3.77,5.4,3.52,7.26,.09-.67,.77-.78-.12-.36-.62,.29-1.21,.5-1.87,.71-2.26,.69-4.68,.88-7.02,1.08-5.17,.43-10.36,.55-15.52,1.17-12.21,1.47-20.75,8.82-29.26,17.28-4.33,4.31-8.58,9.45-14.03,12.4-5.89,3.19-10.16,.2-15.1-3.28-5.37-3.78-11.56-3.04-15.07,2.67-1.17,1.9-3.55,11.7-5.54,11.86l3.89,2.23c-9.21-18.19-37.71-20.33-49.57-3.79-1.72,2.41-3.02,6.15-5.63,7.77s-5.68,.07-8.06-1.51c-5.19-3.44-9.26-8.35-14.5-11.74-9.82-6.34-23.57-6.06-33.35,.21-5.05,3.24-8.08,7.92-11.77,12.5-3.03,3.77-6.9,6.73-11.8,4.65-8.53-3.62-13.85-12.99-21.73-17.82-8.33-5.1-18.37-4.32-26.42,.97-7.19,4.72-12.93,13.9-21.56,16.03-14.03,3.45-24.46-10.98-36.92-13.65-11.71-2.52-24.64,5.44-26.92,17.32l8.22-1.07c-8.97-13.74-24.91-32.48-43.49-24.9-8.24,3.36-14.5,11.9-23.94,6.5-7.89-4.51-12.81-13.73-16.5-21.69-1.33-2.87-5.04-2.57-7.07-.91-10.22,8.36-22.65,18.02-36.39,18.78-1.58,.09-3.16,.06-4.74-.13-.7-.09-5.21-1.53-5.45-1.33l.36,3.14c.24-.4,.5-.78,.79-1.15,.47-.44,.91-1.16,1.21-1.71,1.89-3.38,.94-7.04-2.55-8.79-5.44-2.73-11.99-2.03-17.28-5.25-4.84-2.94-7.62-8.26-7.82-13.87-.21-6.08,3.83-10.32,5.03-16.02,1.33-6.31-.28-12.38,2.13-18.56,.85-2.18-.95-5.07-3.14-5.54-11.65-2.48-19.9-14.84-17.65-26.64,2.44-12.82,17.38-20.79,16.23-34.85-.23-2.84-1.26-5.5-2.72-7.92-1.76-2.91-4.46-5.38-1.75-8.47,3.88-4.42,8.97-6.91,10.38-13.13,1.52-6.66-2.44-12.94-5.69-18.39-2.02-3.38-3.92-6.64-4.52-10.59-.66-4.28-.06-8.67,.53-12.93,1.88-13.49,2.65-31.11-12.84-36.78l1.07,8.22c8.46-5.73,13.93-14.59,15.28-24.73,.67-5.01,.35-10.19-1.25-15-.85-2.55-2.14-4.85-3.26-7.27-.87-1.9-1.67-3.6-.42-5.21,.53-.69,2.2-1.46,2.9-2.01,4.17-3.26,5.6-8.87,10.16-11.83,3.34-2.17,6.94-1.62,10.58-.65,7.6,2.03,14.4,4.4,21.91,.58,5.16-2.63,.61-10.4-4.54-7.77-6.37,3.25-14.26-2-20.81-2.6-3.91-.35-7.8,.39-11.2,2.39-5.14,3.02-6.99,7.82-10.76,12.01-3.19,3.55-7.18,4.34-7.9,9.75-.83,6.24,3.78,11.15,5.24,16.91,2.59,10.22-1.75,21.75-10.47,27.66-3.33,2.25-2.62,6.87,1.07,8.22,13.88,5.08,4.92,29.05,5.49,39.08,.43,7.57,3.82,13.32,7.53,19.7,1.56,2.68,3.85,6.19,3.05,9.43-.75,3.01-3.99,4.98-6.17,6.94-4.27,3.83-7.02,8.67-5.09,14.49,1.05,3.16,3.71,5.47,4.79,8.57s.06,6.17-1.38,8.95c-6.08,11.78-16.23,20.05-14.54,34.51,1.54,13.2,11.12,25.23,24.36,28.04l-3.14-5.54c-1.48,3.81-2.02,7.61-1.99,11.67,.02,3.52,.3,6.86-1.17,10.19-2.84,6.46-5.13,11.58-3.95,18.9,.96,5.9,3.9,11.51,8.49,15.39,2.9,2.46,6.33,4.22,9.98,5.29,1.35,.4,2.74,.67,4.12,.96,.79,.17,5.54,1.73,6.01,1.38,.56-3.49,.41-4.46-.46-2.9-.28,.39-.56,.77-.85,1.15-.38,.57-.77,1.09-1.07,1.71-1.12,2.36-1.04,4.94,.73,6.97,3.74,4.28,12.64,4.68,17.92,4.29,16.09-1.19,29.93-11.52,41.99-21.37l-7.07-.91c6.37,13.73,19.72,33.34,37.61,26.89,8.88-3.2,14.81-11.85,25.12-7.67,9.21,3.73,15.95,12.83,21.2,20.88,1.95,2.98,7.45,2.97,8.22-1.07,.94-4.92,4.22-8.57,8.93-10.3,6.19-2.27,10.64,.64,15.85,3.74,9.01,5.36,19.91,11.34,30.79,9.57,15.56-2.53,26.87-29.08,43.93-17.72,7.18,4.78,12.09,12.43,19.69,16.66,9,5.01,18.02,1.8,24.22-5.91,3.17-3.94,5.73-8.31,10.16-11.02,5.12-3.13,11.58-4.03,17.39-2.58,11.3,2.82,16.98,15.92,28.74,17.78,13.42,2.12,14.97-14.1,25.44-18.17,9.68-3.76,21.86-.32,26.66,9.16,.66,1.31,2.41,2.34,3.89,2.23,5.48-.43,8.35-4.13,10.3-8.94,.89-2.19,1.48-4.57,2.6-6.65,1.56-2.88,3.15-.02,5.49,1.61,10.68,7.45,21.06,3.47,29.88-4.6,9.03-8.27,17.43-20.41,30.32-22.29,5.6-.82,11.3-.79,16.93-1.31,4.47-.42,9.65-.82,13.38-3.6,3.93-2.93,4.21-7.32,2.46-11.6-1.24-3.03-4.37-6.42-4.67-9.68-.35-3.82,4.53-7.09,6.35-10.19,4.24-7.2,4.55-16.37,4.38-24.51-.2-9.2-1.68-18.45-4.42-27.23-1.25-4.02-2.78-7.96-4.52-11.79-2.11-4.66-5.6-9.44-5.74-14.71-.2-7.68,5.94-14.38,7.6-21.7,1.76-7.77-1.13-14.23-4.52-21.07-1.71-3.45-3.43-7.04-2.72-10.97,.59-3.27,2.67-6.23,4.44-8.97,3.56-5.53,8.47-11.86,6.9-18.89-.89-4.02-3.66-5.8-5.89-8.95-2.82-4,.77-10.23,1.33-14.66,2.08-16.53-13.61-32.3-30.12-30.37l3.89,6.77c4.36-7.22,8.28-16.96,5.79-25.48-1.01-3.47-3.31-6.47-6.45-8.26-5.23-2.99-11.08-1.56-15.76-5.89-6.48-6-10.7-13.69-20.2-15.11-7.43-1.11-14.52,2.18-20.69,6-6.83,4.23-13.04,9.55-20.3,13.06-8.57,4.15-14.49,1.83-21.52-4.02s-14.11-9.86-22.94-6.21c-3.84,1.59-7.02,4.16-10.24,6.75s-6.9,6.21-11.15,6.72-8.02-2.85-11.35-5.08c-3.79-2.54-7.91-4.73-12.6-4.62-9.88,.22-15.39,12.55-25.25,10.92-8.7-1.44-15.9-8.78-24.02-11.96-9.18-3.59-17.95-1.47-26.39,3-7.18,3.81-15.57,11.09-24.27,9.76-5.62-.86-10-5.56-14.92-8.04-4.54-2.28-9.41-3.18-14.45-2.62-10.25,1.14-19,7.2-28.95,9.44-10.83,2.43-20.21-4.25-29.95-7.85-4.92-1.82-10.27-2.93-15.48-1.84s-9.45,4.67-13.51,8.23c-3.74,3.28-7.44,5.73-12.28,3.25-3.87-1.98-6.91-5.45-10.08-8.35-6.92-6.34-15.07-11.45-24.65-7.64-5.71,2.27-9.64,6.96-14.88,9.94-2.71,1.54-9.93,3.61-11.13-.83-1.51-5.58-10.2-3.21-8.68,2.39h0Z"/></g><circle class="cls-2" cx="220.68" cy="87" r="26.82"/><circle class="cls-2" cx="157.27" cy="96.01" r="24.47"/><circle class="cls-2" cx="96.26" cy="120.47" r="19.71"/><circle class="cls-2" cx="47.02" cy="150.49" r="17.47"/><circle class="cls-2" cx="16.28" cy="191.12" r="13.28"/></g><g id="Bubbles_Text"><text class="cls-3" transform="translate(349.23 120.47)"><tspan x="0" y="0">That was way</tspan><tspan x="-24.11" y="76.8">too close, what</tspan><tspan x="4.81" y="153.6">is this place?</tspan></text></g></g></g></svg>