<?xml version="1.0" encoding="UTF-8"?><svg id="Layer_2" xmlns="http://www.w3.org/2000/svg" xmlns:xlink="http://www.w3.org/1999/xlink" viewBox="0 0 2850.87 1475.83"><defs><style>.cls-1{fill:#262626;}.cls-2{fill:#222e2e;}.cls-3{fill:#695239;}.cls-4{fill:#f15a29;}.cls-5{stroke-linecap:round;stroke-linejoin:round;stroke-width:5px;}.cls-5,.cls-6{stroke:#231f20;}.cls-5,.cls-6,.cls-7{fill:none;}.cls-8{fill:#2d3231;}.cls-9{fill:#2e5e73;}.cls-10{fill:#4d4d4d;}.cls-11{fill:#6b6c6e;}.cls-6{stroke-miterlimit:10;stroke-width:10px;}.cls-12{fill:#333;}.cls-13{fill:#754c29;}.cls-14{fill:#233324;}.cls-15{fill:#544f39;}.cls-16{fill:url(#radial-gradient);}.cls-17{fill:#242424;}.cls-18{fill:#3d99bf;}.cls-19{fill:#3482a3;}.cls-20{fill:#212a29;}.cls-21{fill:#ee5b1d;}.cls-22{fill:#4a2d05;}.cls-23{fill:#353436;}.cls-24{fill:#27aae1;}.cls-25{fill:#3b3b3b;}.cls-26{fill:#f8d93d;}.cls-27{fill:#808285;}.cls-28{fill:#2e2e2e;}.cls-29{fill:#25160d;}.cls-30{fill:#383838;}.cls-31{fill:#4f3522;}.cls-32{fill:#452d18;}.cls-33{fill:#292929;}.cls-34{fill:#d1d3d4;}.cls-35{fill:#2b292a;}.cls-36{fill:#231f20;}.cls-37{fill:#474037;}.cls-38{fill:#346b82;}.cls-39{fill:#414042;}</style><radialGradient id="radial-gradient" cx="850.69" cy="473.47" fx="850.69" fy="473.47" r="99.03" gradientTransform="translate(0 183.77) scale(1 .67)" gradientUnits="userSpaceOnUse"><stop offset="0" stop-color="#78501c"/><stop offset=".15" stop-color="#734e1c" stop-opacity=".95"/><stop offset=".35" stop-color="#68491f" stop-opacity=".82"/><stop offset=".57" stop-color="#554223" stop-opacity=".61"/><stop offset=".8" stop-color="#3a3828" stop-opacity=".31"/><stop offset="1" stop-color="#202e2e" stop-opacity="0"/></radialGradient></defs><g id="Page_4"><g id="Panel_1"><g id="Background"><g><g><path class="cls-12" d="M2845.87,1405.71v65.12h-650.87s2.09-17.22,2.09-36-4.7-7.05,0-56.35c4.7-49.31,16.44-44.61,23.48-61.05,7.04-16.43,18.78-32.87,30.52-63.39,10.68-27.76,11.64-71.7,11.73-79.43,26.22,4.7,52.44,9.78,58.71,14.48,12.52,9.39,57.91,26.61,62.6,29.74,4.7,3.13,21.92,11.73,21.92,11.73l70.43,61.05s36,18,73.57,21.13c37.56,3.13,65.74,12.13,65.74,12.13,0,0,57.91,36.39,87.65,42.65,29.74,6.26,50.09,10.96,50.09,10.96l32.86,4.69s21.92,6.26,26.61,9.39c4.7,3.14,10.96,6.27,15.66,7.83,3.37,1.13,12.39,3.86,17.21,5.32Z"/><path class="cls-17" d="M2262.82,1174.61c-26.22-4.7-52.42-9-58.69-12.13-12.52-6.26-134.6-50.09-134.6-50.09,0,0-57.92-21.91-76.7-31.3-15.72-7.86-47.9-12.98-68.98-20.41-4.1-1.45-7.79-2.98-10.85-4.64-18.78-10.17-37.56-12.52-56.34-17.21-18.79-4.7-37.57-18.79-50.09-26.61-12.52-7.83-76.7-21.92-106.44-34.44-29.74-12.52-40.69-15.65-65.74-23.48-25.04-7.82-192.52-88.93-192.52-88.93h-51.65s-62.61,15.37-78.26,20.06c-15.65,4.7-50.09,4.7-76.7,4.7s-71.21-4.7-71.21-4.7c0,0-46.18-4.69-68.09-4.69h-88.04s-66.92-6.26-84.13-15.37c-17.22-9.1-46.96-6.54-61.05-11.24-9.96-3.33-37.96-6.65-57.91-8.3-8.25-.69-15.12-1.09-18.78-1.09-12.52,0-75.13-21.91-92.35-25.04-17.22-3.14-32.87-21.92-50.09-32.87-17.22-10.96-50.08,0-64.17,0s-82.96,3.13-101.74,3.13-104.87,37.56-104.87,37.56l-32.87,29.74s-20.35,21.91-29.74,28.17c-9.39,6.27-32.87,36-32.87,36,0,0-29.74,26.61-42.26,36-12.52,9.4-18.78,14.09-34.43,26.61-15.66,12.52-20.35,18.79-39.13,31.31-18.79,12.52-32.87,23.48-40.7,28.17-7.83,4.7-12.52,7.83-36.78,28.18-24.26,20.34-25.83,39.13-46.18,72-20.34,32.86-32.87,45.39-32.87,45.39v-189.39s92.35-56.35,133.05-86.09c40.69-29.74,72-64.18,72-64.18,0,0,18.78-26.6,43.82-36,25.05-9.39,82.96-31.47,82.96-31.47,0,0,23.48-15.48,45.39-21.74s34.44-19.57,65.74-22.31c31.3-2.74,17.22-6.65,65.74,0,48.52,6.65,34.43,6.65,75.13,9.79,40.7,3.13,111.13,21.91,129.91,26.6,18.79,4.7,62.61-17.21,86.09-6.26,23.48,10.96,42.26,13.74,56.35,13.92,14.08,.17,10.95,11.13,40.69,14.26s42.26,3.13,51.66,4.69c9.39,1.57,40.69,3.13,65.73,9.39,25.05,6.26,46.96,7.83,73.57,9.4,26.61,1.56,17.22,1.56,51.65,7.82,34.44,6.26,56.35,3.13,62.61,7.83,6.26,4.69-26.61,0,6.26,4.69,32.87,4.7,46.96,10.96,53.22,4.7s6.26-21.91,26.61-25.04c20.35-3.14,18.78-7.83,39.13-7.83s42.26,6.26,65.74,7.83c23.48,1.56,54.78-9.4,70.43,0,15.65,9.39,39.13,12.52,39.13,12.52l29.74,9.39,31.31,15.65s25.04-5.62,39.13,9.71c14.08,15.33,103.3,66.99,131.47,66.99s54.79,3.13,54.79,3.13l61.04,23.47s6.26,1.57,26.61,6.27c20.35,4.69,4.69,0,50.09,7.82,45.39,7.83,31.3,1.57,67.3,9.39,36,7.83,31.3,6.26,54.78,15.66,23.48,9.39,46.96,17.21,46.96,17.21,0,0,9.39,3.13,40.7,9.39,31.3,6.26,19.3,4.7,53.47,10.96,34.18,6.26,51.39,10.96,51.39,10.96l92.35,37.56s46.96,9.22,61.05,8.52c14.08-.69,18.78-3.82,43.82,8.7,25.05,12.52,34.44,6.26,57.92,18.78,23.47,12.52,34.43,14.09,34.43,14.09,0,0,20.35,3.13,40.7,17.22,20.34,14.08,31.3,10.95,48.52,25.82,17.21,14.87,43.82,24.26,43.82,24.26,0,0,4.7,6.26,31.31,10.96s37.56,6.26,37.56,6.26c0,0,17.22-1.56,36,10.17,18.79,11.74,34.44,14.87,34.44,14.87,0,0,15.71,2.97,25.04,6.27,11.6,4.09,12.35,3.87,12.35,3.74h.17v150.27c-4.82-1.46-13.84-4.19-17.21-5.32-4.7-1.56-10.96-4.69-15.66-7.83-4.69-3.13-26.61-9.39-26.61-9.39l-32.86-4.69s-20.35-4.7-50.09-10.96c-29.74-6.26-87.65-42.65-87.65-42.65,0,0-28.18-9-65.74-12.13-37.57-3.13-73.57-21.13-73.57-21.13l-70.43-61.05s-17.22-8.6-21.92-11.73c-4.69-3.13-50.08-20.35-62.6-29.74-6.27-4.7-32.49-9.78-58.71-14.48Z"/><path class="cls-30" d="M2845.7,1255.44c0,.13-.75,.35-12.35-3.74-9.33-3.3-25.04-6.27-25.04-6.27,0,0-15.65-3.13-34.44-14.87-18.78-11.73-36-10.17-36-10.17,0,0-10.95-1.56-37.56-6.26s-31.31-10.96-31.31-10.96c0,0-26.61-9.39-43.82-24.26-17.22-14.87-28.18-11.74-48.52-25.82-20.35-14.09-40.7-17.22-40.7-17.22,0,0-10.96-1.57-34.43-14.09-23.48-12.52-32.87-6.26-57.92-18.78-25.04-12.52-29.74-9.39-43.82-8.7-14.09,.7-61.05-8.52-61.05-8.52l-92.35-37.56s-17.21-4.7-51.39-10.96c-34.17-6.26-22.17-4.7-53.47-10.96-31.31-6.26-40.7-9.39-40.7-9.39,0,0-23.48-7.82-46.96-17.21-23.48-9.4-18.78-7.83-54.78-15.66-36-7.82-21.91-1.56-67.3-9.39-45.4-7.82-29.74-3.13-50.09-7.82-20.35-4.7-26.61-6.27-26.61-6.27l-61.04-23.47s-26.61-3.13-54.79-3.13-117.39-51.66-131.47-66.99c-14.09-15.33-39.13-9.71-39.13-9.71l-31.31-15.65-29.74-9.39s-23.48-3.13-39.13-12.52c-15.65-9.4-46.95,1.56-70.43,0-23.48-1.57-45.39-7.83-65.74-7.83s-18.78,4.69-39.13,7.83c-20.35,3.13-20.35,18.78-26.61,25.04s-20.35,0-53.22-4.7c-32.87-4.69,0,0-6.26-4.69-6.26-4.7-28.17-1.57-62.61-7.83-34.43-6.26-25.04-6.26-51.65-7.82-26.61-1.57-48.52-3.14-73.57-9.4-25.04-6.26-56.34-7.82-65.73-9.39-9.4-1.56-21.92-1.56-51.66-4.69s-26.61-14.09-40.69-14.26c-14.09-.18-32.87-2.96-56.35-13.92-23.48-10.95-67.3,10.96-86.09,6.26-18.78-4.69-89.21-23.47-129.91-26.6-40.7-3.14-26.61-3.14-75.13-9.79-48.52-6.65-34.44-2.74-65.74,0-31.3,2.74-43.83,16.05-65.74,22.31s-45.39,21.74-45.39,21.74c0,0-57.91,22.08-82.96,31.47-25.04,9.4-43.82,36-43.82,36,0,0-31.31,34.44-72,64.18-40.7,29.74-133.05,86.09-133.05,86.09v-430.83s192.53,27,245.74,16.04c53.22-10.95,103.31-6.26,156.52,1.57,53.22,7.82,62.61,4.69,136.18,20.35,73.56,15.65,140.87,10.95,159.65,12.52,18.7,1.55,70.4,23.3,101.74,34.29,.13,.05,.26,.09,.39,.14,31.31,10.96,15.26,29.74,99.78,36,84.53,6.26,150.26,12.52,211.31,12.52l73.56-5.39v24.18l107.22,39.91,110.35-54.78v-18s98.61-1.57,144,14.08c45.39,15.66,61.04,18.79,61.04,18.79l56.35-25.85s139.3-46.15,161.22-50.85c21.91-4.69,144-48.52,144-48.52,0,0,34.43-10.96,82.95-26.61,48.53-15.65,90.79-26.61,90.79-26.61,0,0,40.69-25.04,56.34-31.3,15.66-6.26,35.04-15.86,35.04-15.86,10.4,30.21,23.3,68.82,26.01,82.38,.59,2.95,1.32,6.2,2.17,9.63,0,0-133.65,56.89-161.82,56.89s-90.79,21.91-114.27,32.87c-23.47,10.96-56.34,42.26-76.69,43.83-20.35,1.56-87.06,11.74-91.27,16.82-4.21,5.09-55.86,27-35.51,52.05,7.89,9.72,20.73,17.31,35.51,23.51,23.3,9.8,51.41,16.13,72.49,21.88,34.43,9.39,39.13,25.61,82.95,30.02,43.83,4.41,133.05,29.46,194.09,38.85,61.04,9.39,59.13,4.69,94.52,20.34,21.88,9.68,27.24,14.58,43.32,19.12,9.92,2.8,23.92,5.48,48.42,9.06,64.17,9.39,147.13,46.03,170.61,41.8,23.48-4.24,51.65-5.8,98.61,11.42,46.95,17.21,57.91,23.47,86.08,29.74,28.18,6.26,42.27,9.39,67.31,15.65,25.04,6.26,50.09,14.87,50.09,14.87h14.08v189.22h-.17Z"/><path class="cls-12" d="M2845.87,5V1066.22h-14.08s-25.05-8.61-50.09-14.87c-25.04-6.26-39.13-9.39-67.31-15.65-28.17-6.27-39.13-12.53-86.08-29.74-46.96-17.22-75.13-15.66-98.61-11.42-23.48,4.23-106.44-32.41-170.61-41.8-24.5-3.58-38.5-6.26-48.42-9.06,1.35-5.88,15.55-68.15,15.55-78.31,0-10.67,4.7-45.67,4.7-66.81s0-46.95-7.05-100.95c-7.04-54-30.52-39.91-35.21-46.96-2.11-3.15-6.1-13.37-10.28-25.8-3.98-11.84-8.14-25.69-11.03-37.35-.85-3.43-1.58-6.68-2.17-9.63-2.71-13.56-15.61-52.17-26.01-82.38-7.63-22.11-13.91-39.71-13.91-39.71,0,0-42.26-56.35-44.6-93.91-2.35-37.57-14.09-171.39-37.57-206.61-23.48-35.22,0-150.26,0-150.26h702.78Z"/><path class="cls-8" d="M2323.87,697.61c7.05,54,7.05,79.82,7.05,100.95s-4.7,56.14-4.7,66.81-14.2,72.43-15.55,78.31c-16.08-4.54-21.44-9.44-43.32-19.12-35.39-15.65-33.48-10.95-94.52-20.34-61.04-9.39-150.26-34.44-194.09-38.85-43.82-4.41-48.52-20.63-82.95-30.02-21.08-5.75-49.19-12.08-72.49-21.88,0,0,28.66-50.12,83.44-56.38,54.79-6.26,98.61-8.11,112.7-22.84,14.09-14.73,32.87-17.86,67.3-31.95,34.44-14.08,36-17.21,67.31-29.74,31.3-12.52,57.91-25.04,64.17-26.6,6.26-1.57,44.61-10.18,44.61-10.18l15.55-10.93c4.18,12.43,8.17,22.65,10.28,25.8,4.69,7.05,28.17-7.04,35.21,46.96Z"/><path class="cls-17" d="M2278.38,624.85l-15.55,10.93s-38.35,8.61-44.61,10.18c-6.26,1.56-32.87,14.08-64.17,26.6-31.31,12.53-32.87,15.66-67.31,29.74-34.43,14.09-53.21,17.22-67.3,31.95-14.09,14.73-57.91,16.58-112.7,22.84-54.78,6.26-83.44,56.38-83.44,56.38-14.78-6.2-27.62-13.79-35.51-23.51-20.35-25.05,31.3-46.96,35.51-52.05,4.21-5.08,70.92-15.26,91.27-16.82,20.35-1.57,53.22-32.87,76.69-43.83,23.48-10.96,86.09-32.87,114.27-32.87s161.82-56.89,161.82-56.89c2.89,11.66,7.05,25.51,11.03,37.35Z"/><path class="cls-39" d="M2262.82,1174.61c-.09,7.73-1.05,51.67-11.73,79.43-11.74,30.52-23.48,46.96-30.52,63.39-7.04,16.44-18.78,11.74-23.48,61.05-4.7,49.3,0,37.56,0,56.35s-2.09,36-2.09,36h-123.52v-.79s-62.22-36.39-117.39-103.3c-58.2-70.59-105.65-81-105.65-81-24.26-6.65-135,9.39-223.98,29.35-88.97,19.95-166.93-44.61-219.76-32.87s-142.04-7.05-219.52-5.87c-22.46,.34-46.6,1.37-70.36,3.32-58.19,4.77-114.09,15.07-137.43,34.24-32.86,27-119.73,66.92-207.78,72.79-3.17,.21-6.36,.52-9.57,.91-85.78,10.49-181.75,83.22-181.75,83.22H84.05l292.14-220.15c63.09-47.54,133.39-84.66,208.23-109.96l220.41-74.5,325.73-31.99c133.17-13.08,353.51-6.49,486.83,4.97l306.46,21.48c21.08,7.43,53.26,12.55,68.98,20.41,18.78,9.39,76.7,31.3,76.7,31.3,0,0,122.08,43.83,134.6,50.09,6.27,3.13,32.47,7.43,58.69,12.13Z"/><path class="cls-8" d="M1403.95,301.64l-44.86-27.04-59.05-4.31-56.97,4.31-56.14,26.61,35.03,44.61v326.34l-29.93,6.75-1.58-.63c-.28-.12-.58,.09-.58,.39v18.24l-73.56,5.39c-61.05,0-126.78-6.26-211.31-12.52-84.52-6.26-68.47-25.04-99.78-36-.13-.05-.26-.09-.39-.14V5h1338.26s-23.48,115.04,0,150.26c23.48,35.22,35.22,169.04,37.57,206.61,2.34,37.56,44.6,93.91,44.6,93.91,0,0,6.28,17.6,13.91,39.71,0,0-19.38,9.6-35.04,15.86-15.65,6.26-56.34,31.3-56.34,31.3,0,0-42.26,10.96-90.79,26.61-48.52,15.65-82.95,26.61-82.95,26.61,0,0-122.09,43.83-144,48.52-21.92,4.7-161.22,50.85-161.22,50.85l-56.35,25.85s-15.65-3.13-61.04-18.79c-45.39-15.65-144-14.08-144-14.08v-23.35c0-.41-.45-.68-.82-.49l-.78,.4-.23-.45-27.49-4.59-.62-1.12,.62-.34V345.82l25.77-43.72c.05-.1,.01-.22-.06-.26l.12-.2Zm-73.9-105.24l-4.18-59.84-8.37-8.79-26.17-27.49-17.26,30.3-5.48,16.46v48.25l4.43,14.95,22.5,29.93,23.38-22.44,11.15-21.33Z"/><path class="cls-20" d="M2071.48,1470.04v.79h-241.82v-.79l18.78-184.3s47.45,10.41,105.65,81c55.17,66.91,117.39,103.3,117.39,103.3Z"/><path class="cls-8" d="M1923.85,1060.68l-306.46-21.48c-133.32-11.46-353.66-18.05-486.83-4.97l-325.73,31.99v-220.39c19.95,1.65,47.95,4.97,57.91,8.3,14.09,4.7,43.83,2.14,61.05,11.24,17.21,9.11,84.13,15.37,84.13,15.37h88.04c21.91,0,68.09,4.69,68.09,4.69,0,0,44.61,4.7,71.21,4.7s61.05,0,76.7-4.7c15.65-4.69,78.26-20.06,78.26-20.06h51.65s167.48,81.11,192.52,88.93c25.05,7.83,36,10.96,65.74,23.48,29.74,12.52,93.92,26.61,106.44,34.44,12.52,7.82,31.3,21.91,50.09,26.61,18.78,4.69,37.56,7.04,56.34,17.21,3.06,1.66,6.75,3.19,10.85,4.64Z"/><path class="cls-8" d="M1848.44,1285.74l-18.78,184.3v.79h-714.84v-191.16c23.76-1.95,47.9-2.98,70.36-3.32,77.48-1.18,166.69,17.61,219.52,5.87s130.79,52.82,219.76,32.87c88.98-19.96,199.72-36,223.98-29.35Z"/><path class="cls-1" d="M1298.29,720.47l107.55-55.69,.78-.4c.37-.19,.82,.08,.82,.49v41.35l-110.35,54.78v-39.91l1.2-.62Z"/><path class="cls-28" d="M1405.61,664.33l.23,.45-107.55,55.69,.06-18.17c-.14,0-.48-.09-1.02-.26l1.36-.08c.08,.02,.18,.01,.27-.05l78.54-43.29,.62,1.12,27.49,4.59Z"/><path class="cls-1" d="M1403.95,301.64l-.12,.2s-.06-.03-.09-.02l-103.7,26v-48.14l59.05-5.08,44.86,27.04Z"/><path class="cls-28" d="M1403.83,301.84c.07,.04,.11,.16,.06,.26l-25.77,43.72-74.87,28.17-3.21-1.11v-45.06l103.7-26s.06,0,.09,.02Z"/><path class="cls-1" d="M1378.12,345.82v312.46l-.62,.34-78.54,43.29c-.09,.06-.19,.07-.27,.05-.19-.05-.34-.25-.34-.51l-.06-327.46,.53-1.53,1.22,.42,3.21,1.11,74.87-28.17Z"/><polygon class="cls-19" points="1325.87 136.56 1330.05 196.4 1318.9 217.73 1317.97 208.27 1316.09 189.3 1313.47 133.2 1317.5 127.77 1325.87 136.56"/><polygon class="cls-9" points="1317.97 208.27 1318.9 217.73 1295.52 240.17 1291.68 213.74 1305.99 201.52 1317.97 208.27"/><polygon class="cls-24" points="1316.09 189.3 1317.97 208.27 1305.99 201.52 1316.09 189.3"/><polygon class="cls-38" points="1291.33 100.28 1317.5 127.77 1313.47 133.2 1299.11 122.47 1291.33 100.28"/><polygon class="cls-18" points="1313.47 133.2 1316.09 189.3 1305.99 201.52 1291.68 213.74 1282.09 195.04 1281.21 143.92 1299.11 122.47 1313.47 133.2"/><polygon class="cls-25" points="1300.04 327.82 1300.04 372.88 1298.82 372.46 1221.96 345.82 1186.93 301.21 1300.04 327.82"/><polygon class="cls-28" points="1300.04 279.68 1300.04 327.82 1186.93 301.21 1243.07 274.6 1300.04 279.68"/><polygon class="cls-9" points="1291.33 100.28 1299.11 122.47 1281.21 143.92 1274.07 130.58 1291.33 100.28"/><path class="cls-28" d="M1221.96,345.82l76.86,26.64-.53,1.53,.06,327.46c0,.26,.15,.46,.34,.51l-1.36,.08c-9.32-2.95-75.37-29.88-75.37-29.88V345.82Z"/><path class="cls-25" d="M1298.35,702.3l-.06,18.17-1.2,.62-105.06-42.18,29.93-6.75s66.05,26.93,75.37,29.88c.54,.17,.88,.26,1.02,.26Z"/><path class="cls-28" d="M1192.03,678.91l105.06,42.18v39.91l-107.22-39.91v-42.42c0-.3,.3-.51,.58-.39l1.58,.63Z"/><polygon class="cls-38" points="1291.68 213.74 1295.52 240.17 1273.02 210.24 1282.09 195.04 1291.68 213.74"/><polygon class="cls-19" points="1281.21 143.92 1282.09 195.04 1273.02 210.24 1268.59 195.29 1268.59 147.04 1274.07 130.58 1281.21 143.92"/><path class="cls-20" d="M1114.82,1470.04v.79h-354.78v-83.22c3.21-.39,6.4-.7,9.57-.91,88.05-5.87,174.92-45.79,207.78-72.79,23.34-19.17,79.24-29.47,137.43-34.24v190.37Z"/><path class="cls-2" d="M804.83,845.83v220.39l-220.41,74.5c-74.84,25.3-145.14,62.42-208.23,109.96l-292.14,220.15H5v-281.74s12.53-12.53,32.87-45.39c20.35-32.87,21.92-51.66,46.18-72,24.26-20.35,28.95-23.48,36.78-28.18,7.83-4.69,21.91-15.65,40.7-28.17,18.78-12.52,23.47-18.79,39.13-31.31,15.65-12.52,21.91-17.21,34.43-26.61,12.52-9.39,42.26-36,42.26-36,0,0,23.48-29.73,32.87-36,9.39-6.26,29.74-28.17,29.74-28.17l32.87-29.74s86.09-37.56,104.87-37.56,87.65-3.13,101.74-3.13,46.95-10.96,64.17,0c17.22,10.95,32.87,29.73,50.09,32.87,17.22,3.13,79.83,25.04,92.35,25.04,3.66,0,10.53,.4,18.78,1.09Z"/><path class="cls-2" d="M804.83,5V653.64c-31.34-10.99-83.04-32.74-101.74-34.29-18.78-1.57-86.09,3.13-159.65-12.52-73.57-15.66-82.96-12.53-136.18-20.35-53.21-7.83-103.3-12.52-156.52-1.57-53.21,10.96-245.74-16.04-245.74-16.04V5H804.83Z"/><path class="cls-8" d="M760.04,1470.04v.79h-181.75s95.97-72.73,181.75-83.22v82.43Z"/></g><g><path class="cls-6" d="M2143.09,5s-23.48,115.04,0,150.26c23.48,35.22,35.22,169.04,37.57,206.61,2.34,37.56,44.6,93.91,44.6,93.91,0,0,6.28,17.6,13.91,39.71,10.4,30.21,23.3,68.82,26.01,82.38,.59,2.95,1.32,6.2,2.17,9.63,2.89,11.66,7.05,25.51,11.03,37.35,4.18,12.43,8.17,22.65,10.28,25.8,4.69,7.05,28.17-7.04,35.21,46.96,7.05,54,7.05,79.82,7.05,100.95s-4.7,56.14-4.7,66.81-14.2,72.43-15.55,78.31c-.06,.3-.1,.45-.1,.45"/><path class="cls-6" d="M2262.83,1173.43s0,.41-.01,1.18c-.09,7.73-1.05,51.67-11.73,79.43-11.74,30.52-23.48,46.96-30.52,63.39-7.04,16.44-18.78,11.74-23.48,61.05-4.7,49.3,0,37.56,0,56.35s-2.09,36-2.09,36"/><path class="cls-6" d="M84.05,1470.83l292.14-220.15c63.09-47.54,133.39-84.66,208.23-109.96l220.41-74.5,325.73-31.99c133.17-13.08,353.51-6.49,486.83,4.97l306.46,21.48,.89,.06"/><polyline class="cls-6" points="804.83 654.77 804.83 653.64 804.83 5"/><line class="cls-6" x1="804.83" y1="1066.22" x2="804.83" y2="845.83"/><polygon class="cls-6" points="5 568.87 5 5 804.83 5 2143.09 5 2845.87 5 2845.87 1066.22 2845.87 1255.44 2845.87 1405.71 2845.87 1470.83 2195 1470.83 2071.48 1470.83 1829.66 1470.83 1114.82 1470.83 760.04 1470.83 578.29 1470.83 84.05 1470.83 5 1470.83 5 1189.09 5 999.7 5 568.87"/><path class="cls-6" d="M5,1189.09s12.53-12.53,32.87-45.39c20.35-32.87,21.92-51.66,46.18-72,24.26-20.35,28.95-23.48,36.78-28.18,7.83-4.69,21.91-15.65,40.7-28.17,18.78-12.52,23.47-18.79,39.13-31.31,15.65-12.52,21.91-17.21,34.43-26.61,12.52-9.39,42.26-36,42.26-36,0,0,23.48-29.73,32.87-36,9.39-6.26,29.74-28.17,29.74-28.17l32.87-29.74s86.09-37.56,104.87-37.56,87.65-3.13,101.74-3.13,46.95-10.96,64.17,0c17.22,10.95,32.87,29.73,50.09,32.87,17.22,3.13,79.83,25.04,92.35,25.04,3.66,0,10.53,.4,18.78,1.09,19.95,1.65,47.95,4.97,57.91,8.3,14.09,4.7,43.83,2.14,61.05,11.24,17.21,9.11,84.13,15.37,84.13,15.37h88.04c21.91,0,68.09,4.69,68.09,4.69,0,0,44.61,4.7,71.21,4.7s61.05,0,76.7-4.7c15.65-4.69,78.26-20.06,78.26-20.06h51.65s167.48,81.11,192.52,88.93c25.05,7.83,36,10.96,65.74,23.48,29.74,12.52,93.92,26.61,106.44,34.44,12.52,7.82,31.3,21.91,50.09,26.61,18.78,4.69,37.56,7.04,56.34,17.21,3.06,1.66,6.75,3.19,10.85,4.64,21.08,7.43,53.26,12.55,68.98,20.41,18.78,9.39,76.7,31.3,76.7,31.3,0,0,122.08,43.83,134.6,50.09,6.27,3.13,32.47,7.43,58.69,12.13,26.22,4.7,52.44,9.78,58.71,14.48,12.52,9.39,57.91,26.61,62.6,29.74,4.7,3.13,21.92,11.73,21.92,11.73l70.43,61.05s36,18,73.57,21.13c37.56,3.13,65.74,12.13,65.74,12.13,0,0,57.91,36.39,87.65,42.65,29.74,6.26,50.09,10.96,50.09,10.96l32.86,4.69s21.92,6.26,26.61,9.39c4.7,3.14,10.96,6.27,15.66,7.83,3.37,1.13,12.39,3.86,17.21,5.32,1.89,.57,3.13,.94,3.13,.94"/><path class="cls-6" d="M5,999.7s92.35-56.35,133.05-86.09c40.69-29.74,72-64.18,72-64.18,0,0,18.78-26.6,43.82-36,25.05-9.39,82.96-31.47,82.96-31.47,0,0,23.48-15.48,45.39-21.74s34.44-19.57,65.74-22.31c31.3-2.74,17.22-6.65,65.74,0,48.52,6.65,34.43,6.65,75.13,9.79,40.7,3.13,111.13,21.91,129.91,26.6,18.79,4.7,62.61-17.21,86.09-6.26,23.48,10.96,42.26,13.74,56.35,13.92,14.08,.17,10.95,11.13,40.69,14.26s42.26,3.13,51.66,4.69c9.39,1.57,40.69,3.13,65.73,9.39,25.05,6.26,46.96,7.83,73.57,9.4,26.61,1.56,17.22,1.56,51.65,7.82,34.44,6.26,56.35,3.13,62.61,7.83,6.26,4.69-26.61,0,6.26,4.69,32.87,4.7,46.96,10.96,53.22,4.7s6.26-21.91,26.61-25.04c20.35-3.14,18.78-7.83,39.13-7.83s42.26,6.26,65.74,7.83c23.48,1.56,54.78-9.4,70.43,0,15.65,9.39,39.13,12.52,39.13,12.52l29.74,9.39,31.31,15.65s25.04-5.62,39.13,9.71c14.08,15.33,103.3,66.99,131.47,66.99s54.79,3.13,54.79,3.13l61.04,23.47s6.26,1.57,26.61,6.27c20.35,4.69,4.69,0,50.09,7.82,45.39,7.83,31.3,1.57,67.3,9.39,36,7.83,31.3,6.26,54.78,15.66,23.48,9.39,46.96,17.21,46.96,17.21,0,0,9.39,3.13,40.7,9.39,31.3,6.26,19.3,4.7,53.47,10.96,34.18,6.26,51.39,10.96,51.39,10.96l92.35,37.56s46.96,9.22,61.05,8.52c14.08-.69,18.78-3.82,43.82,8.7,25.05,12.52,34.44,6.26,57.92,18.78,23.47,12.52,34.43,14.09,34.43,14.09,0,0,20.35,3.13,40.7,17.22,20.34,14.08,31.3,10.95,48.52,25.82,17.21,14.87,43.82,24.26,43.82,24.26,0,0,4.7,6.26,31.31,10.96s37.56,6.26,37.56,6.26c0,0,17.22-1.56,36,10.17,18.79,11.74,34.44,14.87,34.44,14.87,0,0,15.71,2.97,25.04,6.27,11.6,4.09,12.35,3.87,12.35,3.74,0-.01-.02-.03-.02-.03"/><path class="cls-6" d="M1407.44,688.22s98.61-1.57,144,14.08c45.39,15.66,61.04,18.79,61.04,18.79l56.35-25.85s139.3-46.15,161.22-50.85c21.91-4.69,144-48.52,144-48.52,0,0,34.43-10.96,82.95-26.61,48.53-15.65,90.79-26.61,90.79-26.61,0,0,40.69-25.04,56.34-31.3,15.66-6.26,35.04-15.86,35.04-15.86"/><path class="cls-6" d="M2267.35,587.5s-133.65,56.89-161.82,56.89-90.79,21.91-114.27,32.87c-23.47,10.96-56.34,42.26-76.69,43.83-20.35,1.56-87.06,11.74-91.27,16.82-4.21,5.09-55.86,27-35.51,52.05,7.89,9.72,20.73,17.31,35.51,23.51,23.3,9.8,51.41,16.13,72.49,21.88,34.43,9.39,39.13,25.61,82.95,30.02,43.83,4.41,133.05,29.46,194.09,38.85,61.04,9.39,59.13,4.69,94.52,20.34,21.88,9.68,27.24,14.58,43.32,19.12,9.92,2.8,23.92,5.48,48.42,9.06,64.17,9.39,147.13,46.03,170.61,41.8,23.48-4.24,51.65-5.8,98.61,11.42,46.95,17.21,57.91,23.47,86.08,29.74,28.18,6.26,42.27,9.39,67.31,15.65,25.04,6.26,50.09,14.87,50.09,14.87h14.08"/><path class="cls-6" d="M1823.3,813.47s28.66-50.12,83.44-56.38c54.79-6.26,98.61-8.11,112.7-22.84,14.09-14.73,32.87-17.86,67.3-31.95,34.44-14.08,36-17.21,67.31-29.74,31.3-12.52,57.91-25.04,64.17-26.6,6.26-1.57,44.61-10.18,44.61-10.18l15.55-10.93"/><path class="cls-6" d="M5,568.87s192.53,27,245.74,16.04c53.22-10.95,103.31-6.26,156.52,1.57,53.22,7.82,62.61,4.69,136.18,20.35,73.56,15.65,140.87,10.95,159.65,12.52,18.7,1.55,70.4,23.3,101.74,34.29,.13,.05,.26,.09,.39,.14,31.31,10.96,15.26,29.74,99.78,36,84.53,6.26,150.26,12.52,211.31,12.52l73.56-5.39,1.07-.08"/><path class="cls-6" d="M1189.87,702.3v18.79l107.22,39.91,110.35-54.78v-41.35c0-.41-.45-.68-.82-.49l-.78,.4-107.55,55.69-1.2,.62-105.06-42.18-1.58-.63c-.28-.12-.58,.09-.58,.39v23.63"/><path class="cls-6" d="M1298.29,373.99l.06,327.46c0,.26,.15,.46,.34,.51,.08,.02,.18,.01,.27-.05l78.54-43.29,.62-.34V345.82l-74.87,28.17-3.21-1.11-1.22-.42-76.86-26.64v326.34s66.05,26.93,75.37,29.88c.54,.17,.88,.26,1.02,.26l-.06,18.17v.21"/><line class="cls-6" x1="1297.09" y1="761" x2="1297.09" y2="721.09"/><polyline class="cls-6" points="1190.94 679.16 1192.03 678.91 1221.96 672.16"/><line class="cls-6" x1="1405.61" y1="664.33" x2="1378.12" y2="659.74"/><polyline class="cls-6" points="1221.96 345.82 1186.93 301.21 1243.07 274.6 1300.04 279.68 1300.04 327.82 1300.04 372.88"/><path class="cls-6" d="M1186.93,301.21l113.11,26.61,103.7-26s.06,0,.09,.02c.07,.04,.11,.16,.06,.26l-25.77,43.72"/><polyline class="cls-6" points="1300.04 279.68 1359.09 274.6 1403.95 301.64 1404.1 301.73"/><polyline class="cls-6" points="1243.07 274.6 1300.04 270.29 1359.09 274.6"/><polygon class="cls-5" points="1291.33 100.28 1317.5 127.77 1325.87 136.56 1330.05 196.4 1318.9 217.73 1295.52 240.17 1273.02 210.24 1268.59 195.29 1268.59 147.04 1274.07 130.58 1291.33 100.28"/><polygon class="cls-5" points="1299.11 122.47 1281.21 143.92 1282.09 195.04 1291.68 213.74 1305.99 201.52 1316.09 189.3 1313.47 133.2 1299.11 122.47"/><line class="cls-5" x1="1299.11" y1="122.47" x2="1291.33" y2="100.28"/><line class="cls-5" x1="1281.21" y1="143.92" x2="1274.07" y2="130.58"/><line class="cls-5" x1="1282.09" y1="195.04" x2="1273.02" y2="210.24"/><line class="cls-5" x1="1291.68" y1="213.74" x2="1295.52" y2="240.17"/><polyline class="cls-5" points="1316.09 189.3 1317.97 208.27 1318.9 217.73"/><line class="cls-5" x1="1305.99" y1="201.52" x2="1317.97" y2="208.27"/><line class="cls-5" x1="1313.47" y1="133.2" x2="1317.5" y2="127.77"/><path class="cls-6" d="M578.29,1470.83s95.97-72.73,181.75-83.22c3.21-.39,6.4-.7,9.57-.91,88.05-5.87,174.92-45.79,207.78-72.79,23.34-19.17,79.24-29.47,137.43-34.24,23.76-1.95,47.9-2.98,70.36-3.32,77.48-1.18,166.69,17.61,219.52,5.87s130.79,52.82,219.76,32.87c88.98-19.96,199.72-36,223.98-29.35,0,0,47.45,10.41,105.65,81,55.17,66.91,117.39,103.3,117.39,103.3"/><line class="cls-6" x1="1848.44" y1="1285.74" x2="1829.66" y2="1470.04"/><line class="cls-6" x1="1114.82" y1="1279.67" x2="1114.82" y2="1470.04"/><line class="cls-6" x1="760.04" y1="1387.61" x2="760.04" y2="1470.04"/></g></g></g><g id="Glare"><circle class="cls-16" cx="850.69" cy="499.72" r="99.12"/></g><g id="Layer_207"><g><path class="cls-21" d="M850.05,475.06c-.91,5.48,1.37,11.25-.22,16.56-.82,2.74-2.68,5.17-5.12,6.67,1.24-3.1,1.66-6.52,1.21-9.82-2.81,3.69-7.33,6.12-9.1,10.41-1.04,2.52-.97,5.38-.43,8.06,.58,2.82,1.76,5.66,4.03,7.42,1.85,1.44,4.27,2.02,6.61,1.93s4.62-.82,6.76-1.79c1.13-.51,2.26-1.11,3.14-1.98,.88-.87,1.49-1.98,2.01-3.1,.52-1.13,.97-2.32,1.04-3.57,.09-1.73-.58-3.4-.83-5.11-.43-2.9,.37-5.96,2.16-8.28l-6.02,4.76c1.46-3.58,1.12-7.69-.12-11.34-1.25-3.66-3.35-6.95-5.43-10.21-.09-.15-.21-.31-.39-.31s-.28,.29-.11,.33"/><path class="cls-36" d="M849.57,474.93c-.68,4.32,.47,8.59,.33,12.91-.13,4.08-1.93,7.82-5.44,10.03l.73,.56c1.24-3.16,1.67-6.59,1.23-9.95-.07-.51-.62-.66-.93-.25-2.61,3.38-6.55,5.61-8.63,9.42-1.15,2.1-1.5,4.52-1.32,6.88s.72,4.62,1.75,6.69,2.57,3.71,4.64,4.64,4.52,1.13,6.81,.77,4.88-1.28,6.96-2.54,3.24-3.25,4.11-5.44c.53-1.33,.78-2.7,.59-4.13s-.67-2.76-.82-4.17c-.3-2.72,.5-5.45,2.15-7.62,.37-.49-.38-.93-.79-.61l-6.02,4.76,.84,.49c2.88-7.23-.99-14.66-4.81-20.69-.35-.56-.86-1.87-1.68-1.8-.68,.06-.78,.9-.3,1.26,.52,.38,1.02-.48,.5-.86l-.07-.05,.23,.3c-.38,.18-.45,.39-.22,.61l.18,.29c.14,.22,.29,.45,.43,.67,.24,.38,.49,.77,.73,1.16,.5,.81,.99,1.62,1.45,2.45,.96,1.71,1.83,3.48,2.46,5.33,1.22,3.57,1.54,7.51,.12,11.08-.21,.52,.5,.75,.84,.49l6.02-4.76-.79-.61c-1.3,1.71-2.08,3.75-2.29,5.88-.11,1.08-.04,2.16,.15,3.23,.23,1.21,.63,2.4,.72,3.63s-.19,2.39-.65,3.52c-.44,1.07-.96,2.17-1.68,3.08-1.43,1.82-3.87,2.77-6.01,3.46-4.41,1.43-9.62,1.01-12.34-3.2-1.17-1.82-1.79-3.97-2.11-6.1-.35-2.37-.25-4.9,.8-7.09,1.94-4.07,6.18-6.41,8.88-9.91l-.93-.25c.43,3.29,.02,6.6-1.2,9.69-.16,.41,.39,.78,.73,.56,3.45-2.17,5.5-5.77,5.87-9.8,.42-4.59-1.02-9.16-.3-13.74,.1-.63-.86-.9-.96-.27h0Z"/></g><path class="cls-26" d="M850.66,497.28l-2.56,5.54c-.11,.24-.23,.5-.46,.64-.37,.24-.86,.08-1.26-.1-1.66-.76-3.12-1.92-4.24-3.35-.15-.19-.35-.41-.59-.34-.14,.04-.23,.17-.31,.3-.83,1.38-1.27,3-1.14,4.6s.88,3.16,2.13,4.17c2.26,1.84,5.52,1.55,8.41,1.16,.69-.09,1.4-.19,2.01-.55,.51-.3,.91-.75,1.3-1.2,.84-.97,1.71-2.01,1.95-3.27,.27-1.47-.37-3.02,0-4.47-.82,.42-1.66,.79-2.53,1.1-.17,.06-.35,.12-.51,.06-.18-.07-.29-.25-.37-.43l-1.81-3.55"/></g><g id="Other_Characters_Linework"><path class="cls-23" d="M861.47,767.89c7.34,2.95,13.2-2.8,20.31-1.82,3.97,.55,7.91,2.97,11.57,4.49,3.33,1.39,6.71,2.65,10.15,3.75,14.91,4.75,30.62,6.65,46.16,7.94,16.7,1.39,33.45,2.35,50.17,3.49l25.75,1.75c3.51,.24,7.18,.17,10.64,.77,3.87,.67,5.49,1.45,8.94-1.39,2.17-1.78,1.99-5.01,.94-7.27-.82-1.75-2.47-3-4.36-3.33-2.61-.46-5.4,.29-6.78,2.76l-.2,.36c-3.76,6.75,6.6,12.81,10.36,6.06l.2-.36-6.78,2.76,.56,.1-3.59-2.76,.22,.47,.94-7.27-.68,.56,4.24-1.76c2.89,.32-.37-.46-1.19-.67-2.07-.54-4.43-.41-6.55-.55l-11.88-.81-24.76-1.69c-15.7-1.07-31.43-1.96-47.12-3.3-14.8-1.26-29.63-3.28-43.77-8-6.72-2.24-13.08-6.18-20.01-7.68-3.31-.72-6.61-.71-9.91,.04s-6.96,3.16-10.4,1.78c-7.16-2.88-10.28,8.72-3.19,11.57h0Z"/><path class="cls-23" d="M897.74,769.28c48.86-10.17,98.38-16.6,148.22-19.26,7.68-.41,7.73-12.41,0-12-50.88,2.71-101.52,9.3-151.41,19.69-7.56,1.57-4.36,13.14,3.19,11.57h0Z"/><path class="cls-23" d="M910.69,770.14c46.05-4.67,92.29-7.2,138.57-7.58,7.72-.06,7.73-11.94,0-12-37.88-.29-75.66,2.34-113.15,7.67-6.81,.97-4.99,11.78,1.6,11.79l133.7,.09c7.94,0,7.44-11.07,0-12-38.56-4.83-77.31-.83-115.74,3.3-7.57,.81-7.85,11.56,0,12,26.63,1.48,53.25,3.04,79.88,4.4,26.8,1.37,53.65,2.17,80.44,.15,7.63-.58,7.81-11.75,0-12-46.18-1.46-92.4-.84-138.53,1.87-7.66,.45-7.78,11.82,0,12,38.83,.89,78.11,2.65,116.9,0,6.77-.46,18.64-.49,23.39-6.2,5.68-6.82-2.18-13.9-8.16-16.59-16.01-7.19-34.2-10.55-51.44-13.24-9.96-1.55-19.97-2.77-29.99-3.89-10.57-1.18-21.11-2.84-31.66-.7-7.13,1.45-4.64,11.12,1.6,11.79,43.01,4.62,86.28,6.29,129.51,5.01,7.75-.23,7.69-11.58,0-12-21.91-1.21-43.86-2.24-65.81-1.5-10.61,.36-21.22,1.14-31.75,2.51-8.54,1.11-19.11,1.16-24.37,9.06-1.61,2.41-.66,5.24,.94,7.27,5.51,7,14.33,9.39,22.71,10.92,11.33,2.07,22.78,3.53,34.26,4.41s22.59,1.13,33.89,.79c10.51-.31,22.54,0,32.44-3.97,4.48-1.8,5.57-6.25,2.65-10.03-4.33-5.59-14.69-6.28-21.14-7.31-8.04-1.28-16.16-2.01-24.29-2.32-16.83-.65-34.12-.69-50.88,1.13-7.68,.83-15.67,1.93-22.95,4.62-6.22,2.3-8.84,9.55-3.27,14.28,2.68,2.28,6.21,2.9,9.54,3.69,4.29,1.03,8.6,1.94,12.93,2.76,7.95,1.49,15.97,2.63,24.02,3.45,19.12,1.94,38.38,1.78,57.48-.32,5.65-.62,8.5-7.87,3.03-11.18-4.67-2.83-9.53-4.25-14.94-4.8-7.68-.78-7.62,11.22,0,12,3.25,.33,6.1,1.49,8.88,3.16l3.03-11.18c-17.53,1.93-35.2,2.24-52.78,.76-8.25-.69-16.45-1.79-24.6-3.28-4.33-.8-8.65-1.7-12.94-2.71-1.23-.29-2.45-.59-3.67-.89-2.11-1.18-2.92-.32-2.43,2.6-1.51,2.96-1.12,3.79,1.18,2.51,1.19-.35,2.38-.68,3.58-.98,16.36-4.13,33.73-3.8,50.49-3.84,8.89-.02,17.8,.19,26.66,1.03,4.51,.43,8.98,1.05,13.43,1.91,3.11,.6,9.2,.85,11.18,3.4l2.65-10.03c-8.99,3.62-19.69,3.26-29.25,3.54s-20.03,.12-30.02-.52c-10.1-.65-20.17-1.77-30.16-3.42-7.77-1.29-16.99-2.04-22.19-8.66l.94,7.27c1.55-2.33,8.44-2.32,10.82-2.67,4.56-.67,9.15-1.2,13.74-1.63,9.62-.9,19.27-1.36,28.93-1.52,19.37-.31,38.74,.62,58.07,1.69v-12c-43.24,1.28-86.51-.39-129.51-5.01l1.6,11.79c9.83-2,20.46,.22,30.31,1.33s19.72,2.34,29.51,3.99,19.29,3.64,28.74,6.31c4.71,1.33,9.43,2.76,14,4.52,1.01,.39,4.17,2.54,5.04,2.46,3.02-3.69,3.08-4.87,.17-3.56-1.2,.32-2.4,.6-3.62,.84-10.04,2-20.67,1.69-30.86,1.91-10.61,.23-21.22,.31-31.84,.28-21.23-.06-42.46-.55-63.68-1.04v12c46.12-2.71,92.35-3.33,138.53-1.87v-12c-26.79,2.02-53.64,1.22-80.44-.15s-53.26-2.93-79.88-4.4v12c38.42-4.12,77.18-8.13,115.74-3.3v-12l-133.7-.09,1.6,11.79c36.41-5.18,73.19-7.53,109.96-7.24v-12c-46.28,.38-92.52,2.9-138.57,7.58-7.61,.77-7.69,12.78,0,12h0Z"/><path class="cls-23" d="M864.8,772.97c13.89,4.5,28.51,6.15,43.05,4.78,7.72-.73,7.71-11.25,0-12-16.85-1.65-33.75-2.59-50.69-2.83v12c9.58-.9,19.1,.18,28.63,1.08l29.25,2.77c6.73,.64,8.16-10.35,1.6-11.79-11.44-2.51-23.06-3.45-34.74-2.63-7.05,.5-7.77,9.23-1.6,11.79,5.38,2.23,11.17,2.23,16.9,2.26,6.15,.03,12.29,.06,18.44,.09l37.85,.18c7.72,.04,7.73-11.96,0-12l-35.91-.17-17.47-.08c-5.67-.03-11.29,.36-16.62-1.85l-1.6,11.79c10.63-.75,21.14-.08,31.55,2.2l1.6-11.79-29.25-2.77c-9.53-.9-19.06-1.98-28.63-1.08-7.56,.71-7.86,11.89,0,12,16.93,.24,33.83,1.18,50.69,2.83v-12c-13.59,1.28-26.87-.15-39.86-4.35-7.36-2.38-10.52,9.2-3.19,11.57h0Z"/><path class="cls-23" d="M879.86,777.81c14.41,3.79,29.29,4.52,44.1,5.24,15.76,.76,31.51,1.51,47.27,2.21,31.51,1.39,63.04,2.53,94.59,3.01,7.72,.12,7.73-11.88,0-12-30.89-.47-61.76-1.57-92.62-2.92-15.1-.66-30.2-1.38-45.3-2.1s-30.19-1.14-44.85-5c-7.48-1.97-10.66,9.61-3.19,11.57h0Z"/><path class="cls-23" d="M989.69,780.24c32.37,4.98,65.11,5.6,97.62,1.47,7.56-.96,7.65-12.97,0-12-31.35,3.98-63.18,3.76-94.43-1.04-7.55-1.16-10.81,10.4-3.19,11.57h0Z"/><path class="cls-23" d="M1030.04,784.12c13.92,1.09,27.89,1.26,41.83,.38,6.8-.43,13.59-1.12,20.34-2.02,5.72-.76,11.31-1.76,16.1-5.2,3.4-2.44,3.77-6.2,1.21-9.42-4.89-6.16-16.68-4.98-23.69-5.29-9.71-.44-19.43-.38-29.15,.07l1.6,11.79,62.31-10c5.71-.92,5.75-10.69,0-11.57-17.31-2.64-34.5-2.58-51.79,.23-5.68,.92-5.77,10.73,0,11.57,16.99,2.46,34.03,3.35,51.17,2.37v-12c-7.97,.46-15.9,.28-23.84-.54l1.6,11.79c6.61-1.29,13.22-1.56,19.93-1.07l-1.6-11.79-2.41,.8c-7.41,2.46-4.36,12.91,3.19,11.57l9.22-1.64-3.19-11.57c-4.31,1.64-8.68,2.93-13.18,3.91-7.54,1.64-4.35,13.21,3.19,11.57,4.5-.98,8.87-2.27,13.18-3.91,7.23-2.75,4.46-12.93-3.19-11.57l-9.22,1.64,3.19,11.57,2.41-.8c6.54-2.17,5.17-11.29-1.6-11.79-7.79-.57-15.46,0-23.12,1.5-7.14,1.39-4.63,11.14,1.6,11.79,7.94,.82,15.87,1,23.84,.54s7.73-12.44,0-12c-16.02,.92-32.1,.36-47.98-1.94v11.57c14.99-2.43,30.4-2.52,45.41-.23v-11.57l-62.31,10c-6.68,1.07-5.11,12.1,1.6,11.79,7.77-.36,15.54-.48,23.32-.28,3.89,.1,7.77,.28,11.65,.52,2.28,.15,7.93-.37,9.39,1.46l1.21-9.42c-4.6,3.3-10.36,3.66-15.84,4.29-6.13,.7-12.28,1.21-18.43,1.52-12.65,.63-25.32,.39-37.94-.6-7.7-.6-7.66,11.4,0,12h0Z"/></g><g id="Puglas_Color"><g><path class="cls-33" d="M912.83,560.26c.44,.12,1.25,.27,1.98,.41,1.66,.3,3.92,.72,6.47,1.5,.11-.95,.04-1.58,.04-1.59l1.98-.25c0,.08,.12,1.07-.1,2.49,1.4,.51,2.85,1.14,4.32,1.92,.07-.47,.12-.88,.15-1.17l1.99,.21c-.02,.2-.11,1-.29,2.03,1.91,1.19,3.81,2.65,5.63,4.48-1.67-13.09-3.42-28.2-3.59-31.99-.3-.22-.57-.42-.81-.59l-3.34,5.84-7.7,5.13-3.13-8.2,2.96-7.04-2.5-.92c-1.15,1.51-3.63,4.34-6.89,5.81,.64,4.57,2.6,18.73,2.81,21.94Z"/><path class="cls-11" d="M920.56,545.63l5.22-3.48,4.07-7.11c.04-.06,.03-.12,.01-.16-.01-.04-.05-.09-.12-.12l-7.38-2.71c-.1-.04-.21,.01-.25,.11l-3.51,8.36,1.95,5.11Z"/><path class="cls-29" d="M917.72,489.63c.18-5.08,5.37-12.1,7.98-15.31-11.67,.89-17.63,11.46-19.38,15.2,5.17-.1,8.82-.04,11.4,.12Z"/><path class="cls-35" d="M957.25,581.1c-.9,4.43-2.85,12.02-7.04,26.39,1.89,.43,4.9,1.35,6.91,3.06,2.31-5.07,7.39-17.97,10.08-26.24-3.62-3.59-7.95-3.49-9.95-3.21Z"/><path class="cls-3" d="M946.37,564.56c2.68,.74,11.53,4.78,11.53,8.35,0,.45,.02,.85,.04,1.23,.06,1.22,.11,2.38-.3,4.9,2.41-.23,6.55,0,10.22,3.16,1.8-6.28,3.92-18.71-5.59-23.33-6.58-3.2-20.18-12.83-27.66-18.26,.38,4.13,1.3,12.23,2.33,20.77,2.06,.74,7.24,2.58,9.44,3.18Z"/><path class="cls-4" d="M907.33,512.34v-.17l-.1,.08s.06,.07,.1,.1Z"/><path class="cls-29" d="M903.02,478.92c-4.31,.73-7.53,2.35-9.57,4.85-1.94,2.36-2.33,4.97-2.39,6.33,3.02-.16,5.75-.28,8.24-.38-.3-4.05,2.09-8.38,3.72-10.8Z"/><path class="cls-32" d="M909.11,511.92c0,.64-.4,1.18-.96,1.4l.11,.11c.82,.08,1.75,.1,1.99,0,.27-.11,1.13-.85,1.77-1.47l.16-.11,1.35-.55,.3-1.97c.18-.63,.37-1.35,.37-1.51,0-.02,0-.1,0-.22,0-.93-.16-1.35-.54-1.42-1.04-.18-2.8-.7-3.15-.81-.91-.04-1.98-.05-2.3-.03-.08,.1-.2,.32-.29,.51l-.06,.1c-.18,.24-.36,.58-.37,.7,0-.02,.04,.02,.07,.07,.16,.22,.45,.62,.02,1.3-.19,.3-.34,.48-.47,.62-.1,.12-.15,.18-.19,.26-.07,.13-.18,.67-.25,1.1l-.07,.79c.27-.24,.62-.39,1-.39,.83,0,1.5,.67,1.5,1.5Z"/><path class="cls-32" d="M901.48,510.68c.83,0,1.5,.67,1.5,1.5,0,.05,0,.09-.01,.14,.13-.14,.28-.27,.43-.37h-.04s.41-2.38,.46-3.36c.03-.63-.66-1.99-1.1-2.69l-.17-.27,.17-.27s-.12-.15-.54-.36c-.84-.42-1.71-.84-2.05-1-.58,.12-1.16,.35-1.25,.5-.08,.14-.16,.32-.24,.51-.31,.69-.63,1.41-1.16,1.58-.22,.07-.5,.05-.89,.01-.9-.09-1.42-.07-1.46,.26-.08,.71,1.14,2.54,1.66,3.32,.36,.54,.48,.72,.52,.88,.05,.17,.04,.34,.02,.48-.02,.3-.02,.32,.37,.38,1.06,.19,1.76,.19,1.77,.19h.22l.15,.16c.06,.07,.12,.13,.17,.19-.02-.09-.03-.19-.03-.29,0-.83,.67-1.5,1.5-1.5Z"/><path class="cls-13" d="M958.66,621.33h12.71c-.17-.5-.28-1.03-.28-1.59,0-.46,.08-.9,.19-1.32h-14.04c.3,.96,.74,1.95,1.41,2.9h0Z"/><path class="cls-4" d="M907.61,512.43c.06,0,.12-.01,.18-.04l-.26,.02s.05,.02,.08,.02Z"/><path class="cls-27" d="M935.63,630.71c4.94-10.21,.86-18.47-.57-20.85l-1.88,.84c1.31,2.39,3.76,8.81,.62,19.81l1.83,.2Z"/><path class="cls-15" d="M941.75,616.42c-.34-2.47-.7-5.02-1.06-7.53l-3.78,.18c.78,1.35,2.04,3.92,2.69,7.35h2.15Z"/><path class="cls-27" d="M976.22,622.87c1.72,0,3.13-1.4,3.13-3.13s-1.4-3.13-3.13-3.13-3.13,1.4-3.13,3.13,1.4,3.13,3.13,3.13Z"/><path class="cls-13" d="M945.37,618.42h-5.49c.09,.93,.13,1.9,.11,2.91h5.73c-.06-.54-.14-1.18-.23-2.01-.04-.32-.07-.62-.12-.91Z"/><path class="cls-33" d="M935.48,573.93s-.01-.1-.02-.15c-2.03-2.48-4.26-4.38-6.51-5.86-.27,1.07-.63,2.13-1.09,2.85l-1.69-1.07c.4-.64,.73-1.75,.98-2.89-1.5-.84-2.99-1.51-4.42-2.04-.29,.87-.72,1.8-1.34,2.74l-1.66-1.11c.52-.78,.87-1.55,1.11-2.27-2.51-.78-4.75-1.2-6.38-1.5-2.38-.44-3.69-.67-3.6-1.95,.05-1.06-1.6-13.39-2.76-21.69-.23,.06-.46,.11-.69,.15-1.34,.22-2.52,.15-3.56-.09l1.27,2.16c.59,.99,.28,2.26-.69,2.87l-2.85,1.81c-.35,.22-.74,.33-1.14,.33-.22,0-.45-.04-.67-.11-.61-.2-1.09-.66-1.32-1.25l-1.47-3.81c-.02,7.11,1.42,22.33,2.83,35.2,4.42,1.47,21.74,6.32,35.67-2.32Z"/><path class="cls-4" d="M900.98,512.16l.29-.43c-.17,.08-.28,.24-.29,.43Z"/><path class="cls-11" d="M903.35,542.39c.06-.04,.08-.11,.04-.17l-2.82-4.78c-.38-.31-.73-.64-1.02-.97-.06,.05-.14,.12-.21,.18l3.19,6.26,.82-.52Z"/><path class="cls-3" d="M954.83,612.56c-1.72-1.27-4.56-2.02-6.14-2.32-.28,.36-.67,.93-1.21,1.86-.99,1.72-.87,2.27-.52,3.92,.17,.78,.37,1.75,.52,3.09,.35,3.22,.42,3.61,.8,5.44,.11,.56,.25,1.24,.43,2.17,.17,.89,.38,1.05,.38,1.05,.05,.02,.32-.04,.47-.07,.48-.1,1.19-.25,1.85,.21,.58,.41,.8,1.1,.91,1.68,.58-.49,1.39-1.06,2.41-.93,.74,.09,1.41,.52,2.03,1.3,.01-.22,.03-.43,.03-.59,.07-1.36,.13-2.43,1.11-2.65,.97-.22,1.5,.8,1.76,1.29,.24,.46,.43,.68,.53,.77,.17-.18,.4-.59,.57-1.04-.47-.64-1.53-2.11-3.75-5.28-2.62-3.75-2.47-7.89-2.18-9.9Z"/><path class="cls-11" d="M900.4,544.21s.07,0,.11-.01l1.18-.75-3.12-6.13c-.2,.18-.42,.37-.65,.58l2.4,6.24s.04,.06,.08,.07Z"/><path class="cls-22" d="M1021.98,688.14c-2.17,.55-4.87,1.24-7.63,1.38-3.63,.19-10.89-1.82-17.88-3.76-5.05-1.4-9.83-2.72-12.48-3-2.2-.23-6.47-1.29-11.25-2.88-.73,2.41-2.05,7.43-1.67,10.86,3.93,1.09,8.12,2.44,11.46,3.52,1.05,.34,2.03,.65,2.88,.92,.1-1.3,.38-3.01,1.09-4.32l1.76,.96c-.63,1.15-.82,2.83-.88,3.96,.1,.03,.21,.06,.3,.08,.71,.19,1.99,.46,3.54,.76-.06-1.82,.07-3.69,.98-4.75l1.53,1.29c-.42,.49-.58,1.8-.48,3.85l.25,.05c1.27,.24,2.52,.49,3.74,.73-.07-.93,0-2.04,.47-3.05l1.81,.84c-.4,.86-.34,1.88-.22,2.63,8.68,1.78,15.47,3.58,17.18,5.95,2.81,3.89,3.11,4.93,3.61,12.32,.2,2.93,1.79,3.62,3.09,3.69,1.61,.08,2.67-.77,2.72-1.05,0-.62,.06-2.32,.15-4.69,.23-6.07,.91-24.23,.14-27.11-.59-.11-2.67,.42-4.2,.81Z"/><path class="cls-15" d="M905.24,610.6c.19,1.18,.38,2.37,.56,3.57h26.62c-.67-2.17-1.47-3.26-1.49-3.28l-.79-1.01,1.21-.54-26.11,1.26Z"/><path class="cls-10" d="M940.4,606.9c-1.06-7.23-2.1-13.91-2.7-17.29-.42-2.38-1.14-7.45-1.94-13.52-6.39,3.74-13.29,4.92-19.41,4.92-7.16,0-13.25-1.59-16.3-2.56,.43,3.87,.85,7.46,1.22,10.46,.31,1.97,.83,4.68,1.44,7.82,.67,3.48,1.45,7.55,2.19,11.89l35.5-1.71Z"/><path class="cls-32" d="M847.31,590.73c0,.77,.63,1.4,1.4,1.4s1.4-.63,1.4-1.4v-13.18c-.91,.15-1.85,.26-2.79,.31v12.87Z"/><path class="cls-3" d="M885.75,553.99c-3.28,6.85-6.14,9.9-10.94,11.3,.89,1.95,2.18,5.58,2.4,10.74,2.15-.11,3.69-.34,4.29-.73,1.8-1.15,3.26-2.59,4.68-3.97,1.33-1.3,2.58-2.52,3.97-3.36,1.85-1.11,4.26-2.78,5.43-3.61-.82-8.45-1.51-17.1-1.57-22.52-2.77,3.07-5.88,7.18-8.26,12.15Z"/><path class="cls-3" d="M849.31,563.31c-1.64-.04-2.71,.02-3.48,.07-.9,.05-1.55,.09-2.31-.1-.15-.02-.46,.03-.75,.11,.49,.21,1.37,.49,2.92,.79,.5,.09,.88,.51,.91,1.02,.04,.49-.27,.95-.74,1.12-.35,.12-.87,.24-1.46,.38-.42,.1-1.1,.25-1.67,.42,.73,.24,1.98,.56,4.09,.96l.77,.14,.09,.84c.03,.5-.28,.95-.76,1.1-.22,.07-.54,.12-1.21,.21-.48,.07-1.56,.23-2.43,.42,.65,.22,1.69,.52,3.32,.87l.71,.16,.17,1.49-.69,.32c-1.59,.7-2.82,1.47-3.31,1.93,.13,.04,.31,.09,.55,.14,3.4,.64,7.95-.53,10.39-1.16,.2-.05,.39-.1,.56-.14,.7-3.2,.26-6.07-.11-7.61-.77-.91-3.12-3.41-5.58-3.48Z"/><path class="cls-34" d="M932.91,616.17h-103.15l-8.2,3.02,8.26,4.05h103.35c.27-2.87,.1-5.22-.25-7.07Z"/><path class="cls-22" d="M880.51,724.53c.02,2.95,.05,5.89,.08,8.72h2.7v2h-2.68c.02,1.65,.04,3.26,.06,4.8h2.61v2h-2.58c.03,1.7,.05,3.29,.07,4.74h2.51v3h-2.46c.06,3.45,.11,5.61,.11,5.71l.03,1.43-1.43,.1c-.11,0-11.26,.8-20.47,2.33-2.08,.35-3.08,1.12-3,2.31,.2,2.8,5.18,7.08,11.66,7.24,4.06,.1,9.19,.53,14.16,.95,6.17,.52,14.55,1.22,16.39,.66,.96-2.23,1.33-13.83,1.08-34.51-.02-1.66-.04-2.94-.04-3.68,0-1.13,.07-3.53,.19-6.58l-19.01-1.19Z"/><path class="cls-14" d="M951.51,668.24l-.16-.22-.07-.26c-1.78-6.97-6.65-20-8.8-25.61-1.58,2.28-3.58,5.02-5.98,8.28-3.11,4.24-6.48,8.82-8.99,12.69,.39,1.29,1.35,4.26,2.49,6.53,.53,1.07,1.8,2.52,3.14,4.06,2.23,2.56,5.01,5.76,6.41,9.37,1.6,4.15,13.97,5.69,21.39,5.69,1.91,0,4.82,.59,8.06,1.42-.17-3.8,1.11-8.62,1.82-10.96-7.82-2.77-16.42-6.82-19.33-11Z"/><path class="cls-14" d="M943.68,634.12c.05-.83-.09-3.39-1.03-10.79h-2.8c-.31,2.75-1.12,5.75-2.75,8.91l-.31,.61-5.61-.6,.36-1.16c.67-2.13,1.09-4.06,1.37-5.84h-25.68c.73,6.74,.66,10.83-.24,14.79-1.21,5.33-6.36,14.36-11.81,23.92-6.42,11.27-13.7,24.04-14.25,30.65-.43,5.12-.5,16.42-.44,27.92l19.1,1.19c.42-10.18,1.25-25.48,1.85-28.49,.41-2.03,3.1-5.22,7.82-10.68,4.59-5.3,10.29-11.91,12.08-16.45,1.79-4.53,7.36-12.12,12.75-19.46,4-5.44,9.48-12.9,9.58-14.52Z"/><path class="cls-35" d="M858.47,566.55h-.55c.42,1.97,.8,5.16-.02,8.69,6.19,.59,12.66,.92,17.31,.85-.23-5.18-1.61-8.71-2.4-10.34-3.55,.66-8.1,.72-14.33,.8Z"/><path class="cls-32" d="M849.37,561.32c.25,0,.49,.03,.73,.07v-37.59h-2.79v37.52c.57-.01,1.25-.02,2.06,0Z"/><path class="cls-3" d="M906.91,536.18c1.96-.33,3.75-1.53,5.15-2.8-.69-1.26-1.59-3.07-1.93-4.46-.04,.04-.09,.09-.13,.12-1.06,.92-2.38,1.39-3.71,1.39-.69,0-1.37-.14-2.03-.39-.41,1.29-1.5,3.19-2.36,4.57,.8,.89,2.36,2,5,1.56Z"/><path class="cls-31" d="M905.73,524.73l3.77-6.47c.5-.85,.35-1.92-.36-2.6l-2.83-2.72c-.35-.33-.8-.52-1.28-.52-.03,0-.06,0-.08,0-.51,.02-.97,.25-1.31,.63l-2.44,2.79c-.6,.69-.75,1.64-.4,2.49,1.39,3.32,2.64,5.58,3.43,6.22,.43,.35,.84,.52,1.14,.47,.09-.02,.24-.07,.37-.3Zm-2.13-3.37l-.32-.95,.52-.17-.18-3.53,1-.05,.18,3.5,1.69,.24-.14,.99-1.98-.28-.77,.26Z"/><path class="cls-37" d="M850.76,521.79c1.2,0,2.18-.98,2.18-2.18v-.92c-1.21,.16-2.39,.23-3.51,.23-2,0-3.79-.21-5.25-.46v1.15c0,1.2,.98,2.18,2.18,2.18h4.4Z"/><path class="cls-3" d="M908.69,527.54c8.1-7.06,15.54-32.82,14.19-35.13-1.01-.85-10.16-1.47-32.41-.28-1.28,.07-2.42,.72-3.14,1.78-.72,1.07-.9,2.39-.49,3.61,7.27,21.46,14.07,28.22,17.48,30.35,1.39,.87,3.14,.73,4.36-.33Zm1.12-31.04c.67-.29,1.38-.45,2.1-.54,.72-.08,1.46-.07,2.18,.08,.72,.12,1.41,.4,2.01,.79-.73,.01-1.41-.04-2.08-.01-.67,.02-1.34,.05-2,.14-1.33,.14-2.63,.42-4.04,.71,.52-.51,1.16-.88,1.82-1.16Zm-16.16,2.14c.6-.29,1.24-.5,1.9-.64,.66-.12,1.35-.18,2.03-.09,.68,.09,1.36,.31,1.9,.72-1.34-.06-2.5,.11-3.73,.35-1.22,.23-2.42,.56-3.75,.77,.49-.48,1.06-.83,1.66-1.11Zm6.22,20.09c-.5-1.2-.29-2.56,.57-3.53l.79-.91-.24-.06c-.78-.07-1.36-.22-1.42-.69-.05-.08-.18-.26-.33-.42-.31-.01-.92-.06-1.71-.2-1.29-.23-1.22-1.11-1.19-1.45,0-.05,.01-.1,0-.15-.02-.03-.22-.32-.39-.58-.99-1.48-1.94-3.01-1.82-4,.16-1.36,1.78-1.21,2.55-1.14,.18,.02,.43,.04,.5,.03,.11-.09,.41-.73,.54-1.04,.1-.22,.19-.42,.28-.58,.38-.7,1.72-.97,2.12-1.04l.16-.03,.14,.07s1.13,.54,2.21,1.08c.57,.28,.91,.63,1.02,1.04,.04,.15,.05,.29,.03,.42,.33,.56,1.18,2.1,1.13,3.08-.03,.73-.24,2.08-.37,2.86,.15-.03,.3-.06,.45-.07,.21,0,.43,.01,.63,.05l.14-1.57c.04-.27,.18-1.08,.34-1.42,.1-.2,.21-.33,.33-.46,.1-.12,.23-.26,.38-.51,.06-.1,.07-.14,.07-.14-.01,.02-.03,0-.06-.04-.06-.08-.14-.19-.2-.33-.22-.51,.19-1.19,.47-1.57,.17-.39,.44-.86,.79-.99,.1-.04,.35-.14,2.8-.04l.13,.02s2.01,.61,3.09,.8c1.38,.24,1.37,1.87,1.37,2.41v.13c.01,.08,.05,.34-.39,1.81l-.37,2.46-1.79,.72c-.36,.35-1.48,1.4-2.04,1.62-.25,.1-.66,.13-1.1,.13-.05,0-.1,0-.14,0l.46,.44c1.04,1,1.26,2.58,.53,3.83l-3.77,6.47c-.25,.43-.62,.7-1.06,.78-.09,.02-.19,.02-.28,.02-.52,0-1.1-.24-1.67-.7-1.18-.96-2.67-4.12-3.72-6.61Z"/><path class="cls-37" d="M852.94,509.71v-1.15c0-1.2-.98-2.18-2.18-2.18h-4.4c-1.2,0-2.18,.98-2.18,2.18v.91c2.2,.4,5.38,.72,8.76,.24Z"/><path class="cls-37" d="M852.94,516.67v-4.93c-1.21,.16-2.39,.23-3.51,.23-2,0-3.79-.21-5.25-.46v4.91c2.2,.4,5.38,.72,8.76,.24Z"/><path class="cls-3" d="M1021.24,685.23c-2.15,.55-4.58,1.17-7.03,1.29-3.21,.15-10.48-1.87-16.94-3.65-5.18-1.43-10.07-2.78-12.96-3.09-6.17-.65-25.74-7.18-30.18-13.05-2.18-8.37-8.21-24.09-9.6-27.66,1.35-2.15,2.08-3.71,2.15-4.76,.05-.89,0-3-1-10.98h.32c.09,.49,.18,.97,.31,1.62,.11,.55,.25,1.23,.43,2.15,.23,1.18,.62,1.93,1.24,2.33,.73,.48,1.49,.32,1.99,.22,.08-.02,.2-.04,.29-.05,.04,.09,.09,.27,.13,.57,.07,.5,.2,1.53,1.06,1.85,.79,.3,1.43-.26,1.93-.7,.34-.3,.82-.72,1.11-.68,.11,.01,.42,.12,.89,.81,.29,.42,.91,1.33,1.79,1.33,.12,0,.24-.02,.36-.05,.94-.27,1.14-1.33,1.23-2.57,.5,.51,1.05,.73,1.64,.67,1.55-.17,2.27-2.33,2.45-2.99l.13-.49-.31-.4s-.55-.71-2.6-3.62h12.51c.93,.95,2.22,1.54,3.65,1.54,2.83,0,5.13-2.3,5.13-5.13s-2.3-5.13-5.13-5.13c-1.55,0-2.93,.71-3.87,1.81h-15.55c-.12-.88-.13-1.69-.09-2.38,.21,.07,.43,.11,.65,.11,.08,0,.16,0,.24-.01,.74-.08,1.38-.53,1.7-1.2,2.09-4.24,8.11-19.37,11.04-28.62,4.34-13.69,1.87-23.95-6.77-28.15-8.06-3.91-27.86-18.44-31.71-21.28,0-.24-.04-.47-.12-.7-.22-.61-.7-1.09-1.31-1.31l-7.38-2.71c-.98-.36-2.05,.02-2.59,.87l.13-.36-4.84-1.78-.65,1.01s-.59,.9-1.56,1.99c-.77-1.46-1.5-3.08-1.53-3.88l-.97,.03c7.05-7.46,13.93-27.75,13.97-34.53,0-1.27-.23-2.08-.75-2.55-.32-.29-.95-.84-4.55-1.19,.06-4.83,6.36-12.97,8.93-15.85l1.43-1.61-2.15-.06c-.22,0-.44,0-.65,0-14.98,0-21.87,14.28-23.16,17.31-.9,.02-1.83,.05-2.8,.08-.44-5.12,4.62-11.31,4.67-11.38l1.53-1.85-2.39,.22c-6.04,.55-10.5,2.53-13.23,5.89-2.44,3-2.81,6.26-2.83,7.82-1.37,.38-2.56,1.23-3.37,2.43-1.08,1.59-1.34,3.55-.72,5.38h0c6.82,20.11,13.34,28,17.77,31.05h-.29c-.03,.45-.77,1.89-1.68,3.44l-.29-.62-1.47,1.06c-.41,.3-10.12,7.41-15.96,19.61-5.08,10.61-7.68,10.65-24.6,10.85l-3.92,.05c-.69-.58-1.51-1.15-2.42-1.59v-38.47c1.64-.56,2.84-2.11,2.84-3.94v-1.27c.88-.19,1.77-.43,2.66-.75l-.67-1.89c-.66,.23-1.33,.42-1.99,.57v-4.9c.88-.19,1.77-.43,2.66-.75l-.67-1.89c-.66,.23-1.33,.42-1.99,.57v-.77c0-2.3-1.88-4.18-4.18-4.18h-4.4c-2.3,0-4.18,1.88-4.18,4.18v.47c-.61-.16-.97-.27-.99-.28l-.64,1.89c.09,.03,.67,.22,1.63,.45v4.89c-.61-.16-.97-.27-.99-.28l-.64,1.89c.09,.03,.67,.22,1.63,.45v1.56c0,1.94,1.33,3.56,3.13,4.03v37.76c-.55,.03-.93,.03-1.3-.06-.87-.22-2.57,.18-3.29,.97-.4,.43-.54,.98-.37,1.5,.19,.57,.7,1.04,1.65,1.44-1.27,.39-2.15,.9-2.13,1.87,.02,.74,.45,1.32,2.27,1.91-1.13,.34-1.78,.82-1.8,1.63-.03,.99,.82,1.64,3.31,2.34-2.51,1.51-2.39,2.52-2.34,2.9,.16,1.35,1.83,1.66,2.38,1.77,.53,.1,1.07,.15,1.63,.18v12.87c0,1.87,1.52,3.4,3.4,3.4s3.4-1.52,3.4-3.4v-13.56c.83-.18,1.58-.36,2.24-.53l-.42,1.22,1.88,.2c2.38,.25,10.69,1.05,17.64,1.05,4.35,0,8.17-.32,9.68-1.28,2.05-1.32,3.7-2.93,5.15-4.35,1.2-1.17,2.33-2.28,3.41-2.93,1.36-.82,2.97-1.89,4.22-2.76,1.1,10.91,2.29,20.66,2.4,21.53,.33,2.07,.85,4.8,1.46,7.97,.92,4.79,2.05,10.68,3,16.88h-73.36l-12.92,4.75,12.87,6.32h74.86c.74,6.64,.7,10.41-.15,14.12-1.11,4.9-6.15,13.74-11.49,23.1-6.9,12.1-14.03,24.62-14.63,31.89-.95,11.4-.2,51.54-.03,59.78-3.34,.27-11.93,1.02-19.33,2.26-5.4,.9-5.58,4.42-5.5,5.48,.32,4.48,6.75,9.83,14.58,10.03,3.97,.1,9.06,.52,13.98,.94,6.43,.54,10.82,.87,13.77,.87,2.45,0,3.9-.23,4.68-.75,1.53-1.02,2.66-4.39,2.27-36.99-.02-1.65-.04-2.92-.04-3.65,0-5.44,1.31-32.77,2.06-36.49,.27-1.35,3.92-5.58,7.15-9.3,4.98-5.76,10.63-12.29,12.61-17.31,.31-.79,.77-1.71,1.34-2.72,.5,1.41,1.14,3.07,1.86,4.51,.7,1.41,2.03,2.93,3.56,4.69,2.19,2.51,4.66,5.36,5.87,8.48,2.86,7.4,22.02,7.61,24.19,7.61,4.07,0,14.45,3.35,20.65,5.35,2.32,.75,4.15,1.34,5.27,1.65,1.14,.31,3.3,.73,6.03,1.25,5.86,1.12,19.57,3.76,21.12,5.91,2.32,3.22,2.56,3.55,3.04,10.77,.32,4.81,3.53,6.49,6.28,6.49,.08,0,.15,0,.22,0,2.92-.1,5.3-1.91,5.3-4.04,0-.56,.07-2.34,.15-4.58,.88-23.32,.53-27.99-.53-29.19-1.43-1.62-4.01-.97-7.27-.13Zm-45.02-68.62c1.72,0,3.13,1.4,3.13,3.13s-1.4,3.13-3.13,3.13-3.13-1.4-3.13-3.13,1.4-3.13,3.13-3.13Zm-132.04-108.05c0-1.2,.98-2.18,2.18-2.18h4.4c1.2,0,2.18,.98,2.18,2.18v1.15c-3.38,.48-6.56,.15-8.76-.24v-.91Zm0,2.95c1.45,.25,3.25,.46,5.25,.46,1.12,0,2.3-.07,3.51-.23v4.93c-3.38,.48-6.56,.15-8.76-.24v-4.91Zm0,8.1v-1.15c1.45,.25,3.25,.46,5.25,.46,1.12,0,2.3-.07,3.51-.23v.92c0,1.2-.98,2.18-2.18,2.18h-4.4c-1.2,0-2.18-.98-2.18-2.18Zm5.92,4.18v37.59c-.24-.04-.49-.06-.73-.07-.81-.02-1.49-.02-2.06,0v-37.52h2.79Zm0,66.94c0,.77-.63,1.4-1.4,1.4s-1.4-.63-1.4-1.4v-12.87c.94-.05,1.89-.16,2.79-.31v13.18Zm4.9-16.32c-.17,.04-.36,.09-.56,.14-2.44,.63-6.99,1.8-10.39,1.16-.24-.05-.42-.09-.55-.14,.49-.47,1.72-1.23,3.31-1.93l.69-.32-.17-1.49-.71-.16c-1.63-.36-2.67-.65-3.32-.87,.86-.19,1.95-.35,2.43-.42,.67-.1,.99-.15,1.21-.21,.48-.15,.79-.6,.76-1.1l-.09-.84-.77-.14c-2.12-.39-3.36-.72-4.09-.96,.58-.17,1.25-.32,1.67-.42,.6-.14,1.11-.26,1.46-.38,.47-.16,.78-.62,.74-1.12-.04-.5-.41-.92-.91-1.02-1.56-.3-2.43-.58-2.92-.79,.29-.08,.6-.14,.75-.11,.76,.19,1.41,.15,2.31,.1,.77-.05,1.84-.11,3.48-.07,2.46,.07,4.81,2.57,5.58,3.48,.37,1.54,.82,4.42,.11,7.61Zm2.9,.84c.83-3.54,.45-6.73,.02-8.69h.55c6.23-.08,10.78-.14,14.33-.8,.79,1.62,2.17,5.16,2.4,10.34-4.65,.08-11.11-.26-17.31-.85Zm32.24-7.27c-1.38,.83-2.64,2.06-3.97,3.36-1.42,1.39-2.88,2.82-4.68,3.97-.6,.39-2.14,.62-4.29,.73-.22-5.16-1.51-8.79-2.4-10.74,4.8-1.39,7.66-4.44,10.94-11.3,2.38-4.97,5.48-9.07,8.26-12.15,.06,5.42,.75,14.08,1.57,22.52-1.17,.83-3.58,2.5-5.43,3.61Zm49.84,53.36c.03-1.02-.02-1.99-.11-2.91h5.49c.04,.28,.08,.58,.12,.91,.09,.82,.16,1.47,.23,2.01h-5.73Zm-6.82-10.62l1.88-.84c1.43,2.38,5.51,10.64,.57,20.85l-1.83-.2c3.14-11,.69-17.42-.62-19.81Zm3.73-1.64l3.78-.18c.36,2.51,.72,5.06,1.06,7.53h-2.15c-.65-3.42-1.9-6-2.69-7.35Zm8.84,2.02c-1.37,2.37-1.14,3.49-.75,5.32h-.23c-1.42-10.45-3.24-22.38-4.12-27.33-.74-4.19-2.07-14.25-3.32-24.38,2.49,.88,6.34,2.23,8.24,2.75,3.46,.95,8.85,4.31,9.32,5.53,0,.48,.02,.89,.04,1.3,.13,2.84,.26,5.51-8.07,33.95l-.49,1.66h.09c-.23,.36-.47,.75-.73,1.21Zm25.54,7.32c-.11,.42-.19,.86-.19,1.32,0,.56,.11,1.09,.28,1.59h-12.72c-.66-.96-1.1-1.95-1.41-2.91h14.04Zm-14.28,4.05c2.21,3.17,3.28,4.64,3.75,5.28-.17,.44-.4,.86-.57,1.04-.1-.1-.29-.31-.53-.77-.26-.49-.79-1.5-1.76-1.29-.99,.22-1.04,1.29-1.11,2.65,0,.16-.02,.37-.03,.59-.62-.78-1.29-1.2-2.03-1.3-1.02-.13-1.83,.44-2.41,.93-.11-.58-.33-1.28-.91-1.68-.65-.46-1.37-.31-1.85-.21-.16,.03-.42,.09-.47,.07,0,0-.21-.16-.38-1.05-.18-.93-.32-1.61-.43-2.17-.37-1.84-.45-2.22-.8-5.44-.14-1.34-.35-2.31-.52-3.09-.35-1.65-.47-2.21,.52-3.92,.54-.93,.93-1.5,1.21-1.86,1.58,.3,4.42,1.05,6.14,2.32-.29,2.01-.44,6.15,2.18,9.9Zm.11-11.92c-2-1.71-5.02-2.62-6.91-3.06,4.19-14.37,6.15-21.96,7.04-26.39,1.99-.29,6.33-.38,9.95,3.21-2.69,8.27-7.77,21.17-10.08,26.24Zm5.14-51.68c9.51,4.62,7.39,17.05,5.59,23.33-3.68-3.16-7.81-3.39-10.22-3.16,.41-2.52,.36-3.68,.3-4.9-.02-.38-.04-.78-.04-1.23,0-3.57-8.84-7.61-11.53-8.35-2.2-.6-7.38-2.44-9.44-3.18-1.03-8.54-1.95-16.63-2.33-20.77,7.48,5.43,21.08,15.06,27.66,18.26Zm-40.15-26.72c.04-.09,.15-.14,.25-.11l7.38,2.71c.07,.03,.1,.08,.12,.12,.01,.04,.02,.1-.01,.16l-4.07,7.11-5.22,3.48-1.95-5.11,3.51-8.36Zm-5.21,.36l2.5,.92-2.96,7.04,3.13,8.2,7.7-5.13,3.34-5.84c.24,.18,.51,.37,.81,.59,.16,3.79,1.92,18.9,3.59,31.99-1.81-1.83-3.72-3.29-5.63-4.48,.18-1.03,.27-1.83,.29-2.03l-1.99-.21c-.03,.28-.08,.7-.15,1.17-1.47-.78-2.92-1.41-4.32-1.92,.22-1.42,.11-2.41,.1-2.49l-1.98,.25s.07,.64-.04,1.59c-2.55-.78-4.81-1.2-6.47-1.5-.73-.13-1.54-.28-1.98-.41-.22-3.21-2.18-17.36-2.81-21.94,3.26-1.47,5.73-4.3,6.89-5.81Zm8.79-58.21c-2.61,3.21-7.81,10.23-7.98,15.31-2.58-.15-6.23-.22-11.4-.12,1.75-3.74,7.71-14.31,19.38-15.2Zm-32.25,9.45c2.04-2.49,5.25-4.12,9.57-4.85-1.62,2.42-4.01,6.75-3.72,10.8-2.49,.1-5.22,.22-8.24,.38,.06-1.37,.45-3.97,2.39-6.33Zm-6.61,13.76c-.42-1.23-.24-2.54,.49-3.61,.72-1.06,1.86-1.71,3.14-1.78,22.25-1.2,31.39-.57,32.41,.28,1.35,2.31-6.09,28.08-14.19,35.13-1.22,1.06-2.98,1.2-4.36,.33-3.41-2.12-10.2-8.89-17.48-30.35Zm17.42,32.53c.66,.25,1.34,.39,2.03,.39,1.33,0,2.65-.47,3.71-1.39,.04-.04,.09-.08,.13-.12,.33,1.39,1.24,3.2,1.93,4.46-1.4,1.27-3.18,2.47-5.15,2.8-2.64,.44-4.2-.67-5-1.56,.86-1.38,1.95-3.28,2.36-4.57Zm-4.71,6.43c.29,.33,.64,.65,1.02,.97l2.82,4.78c.04,.06,.02,.13-.04,.17l-.82,.52-3.19-6.26c.07-.06,.15-.12,.21-.18Zm-.99,.85l3.12,6.13-1.18,.75s-.07,.03-.11,.01c-.04-.01-.06-.04-.08-.07l-2.4-6.24c.23-.21,.44-.4,.65-.58Zm-1.58,3.72l1.47,3.81c.23,.6,.71,1.05,1.32,1.25,.22,.07,.44,.11,.67,.11,.4,0,.79-.11,1.14-.33l2.85-1.81c.97-.62,1.28-1.88,.69-2.87l-1.27-2.16c1.04,.24,2.22,.31,3.56,.09,.23-.04,.46-.09,.69-.15,1.16,8.3,2.81,20.63,2.76,21.69-.08,1.28,1.22,1.52,3.6,1.95,1.63,.3,3.87,.71,6.38,1.5-.24,.72-.59,1.49-1.11,2.27l1.66,1.11c.62-.93,1.05-1.87,1.34-2.74,1.43,.53,2.92,1.2,4.42,2.04-.25,1.13-.58,2.25-.98,2.89l1.69,1.07c.46-.73,.82-1.78,1.09-2.85,2.25,1.48,4.48,3.38,6.51,5.86,0,.05,.01,.1,.02,.15-13.93,8.64-31.25,3.79-35.67,2.32-1.41-12.87-2.85-28.09-2.83-35.2Zm5.73,55.67c-.6-3.14-1.13-5.85-1.44-7.82-.37-3-.79-6.59-1.22-10.46,3.04,.97,9.14,2.56,16.3,2.56,6.13,0,13.02-1.18,19.41-4.92,.8,6.08,1.52,11.14,1.94,13.52,.6,3.39,1.64,10.07,2.7,17.29l-35.5,1.71c-.74-4.34-1.52-8.41-2.19-11.89Zm28.21,14.17s.82,1.11,1.49,3.28h-26.62c-.18-1.2-.37-2.4-.56-3.57l26.11-1.26-1.21,.54,.79,1.01Zm-101.11,12.35l-8.26-4.05,8.2-3.02h103.15c.35,1.85,.52,4.2,.25,7.07h-103.35Zm69.55,112.75c.25,20.68-.11,32.28-1.08,34.51-1.84,.56-10.22-.14-16.39-.66-4.97-.42-10.1-.85-14.16-.95-6.48-.16-11.46-4.43-11.66-7.24-.08-1.18,.93-1.96,3-2.31,9.21-1.54,20.36-2.32,20.47-2.33l1.43-.1-.03-1.43c0-.1-.05-2.25-.11-5.71h2.46v-3h-2.51c-.02-1.45-.05-3.04-.07-4.74h2.58v-2h-2.61c-.02-1.54-.04-3.14-.06-4.8h2.68v-2h-2.7c-.03-2.83-.06-5.77-.08-8.72l19.01,1.19c-.12,3.06-.19,5.46-.19,6.58,0,.74,.02,2.02,.04,3.68Zm21.98-67.88c-1.79,4.54-7.5,11.14-12.08,16.45-4.72,5.46-7.41,8.65-7.82,10.68-.6,3.02-1.43,18.31-1.85,28.49l-19.1-1.19c-.06-11.5,.01-22.81,.44-27.92,.55-6.61,7.83-19.39,14.25-30.65,5.45-9.56,10.59-18.59,11.81-23.92,.9-3.96,.97-8.05,.24-14.79h25.68c-.28,1.78-.7,3.71-1.37,5.84l-.36,1.16,5.61,.6,.31-.61c1.63-3.16,2.45-6.16,2.75-8.91h2.8c.93,7.4,1.08,9.97,1.03,10.79-.1,1.62-5.58,9.08-9.58,14.52-5.39,7.34-10.97,14.92-12.75,19.46Zm47.67,22.09c-3.24-.84-6.15-1.42-8.06-1.42-7.42,0-19.79-1.55-21.39-5.69-1.39-3.61-4.17-6.81-6.41-9.37-1.34-1.54-2.61-2.99-3.14-4.06-1.14-2.27-2.1-5.25-2.49-6.53,2.51-3.87,5.87-8.45,8.99-12.69,2.39-3.26,4.4-6,5.98-8.28,2.14,5.61,7.02,18.64,8.8,25.61l.07,.26,.16,.22c2.92,4.18,11.51,8.23,19.33,11-.71,2.34-2,7.16-1.82,10.96Zm57.02,24.25c-.09,2.36-.15,4.07-.15,4.69-.04,.28-1.11,1.13-2.72,1.05-1.3-.06-2.89-.75-3.09-3.69-.49-7.39-.8-8.43-3.61-12.32-1.71-2.37-8.5-4.17-17.18-5.95-.13-.75-.18-1.77,.22-2.63l-1.81-.84c-.47,1.02-.54,2.12-.47,3.05-1.22-.24-2.47-.49-3.74-.73l-.25-.05c-.1-2.06,.06-3.36,.48-3.85l-1.53-1.29c-.9,1.07-1.03,2.93-.98,4.75-1.56-.3-2.83-.57-3.54-.76-.09-.02-.19-.05-.3-.08,.06-1.13,.25-2.81,.88-3.96l-1.76-.96c-.71,1.31-.99,3.02-1.09,4.32-.85-.27-1.83-.58-2.88-.92-3.34-1.08-7.53-2.43-11.46-3.52-.38-3.42,.95-8.45,1.67-10.86,4.77,1.59,9.05,2.64,11.25,2.88,2.65,.28,7.42,1.6,12.48,3,7,1.94,14.25,3.95,17.88,3.76,2.76-.14,5.46-.83,7.63-1.38,1.53-.39,3.61-.92,4.2-.81,.77,2.88,.09,21.04-.14,27.11Z"/><path class="cls-36" d="M914.02,496.81c.68-.03,1.35,.02,2.08,.01-.61-.39-1.3-.67-2.01-.79-.72-.15-1.45-.16-2.18-.08-.72,.09-1.44,.26-2.1,.54-.67,.28-1.3,.65-1.82,1.16,1.41-.29,2.71-.57,4.04-.71,.66-.09,1.32-.12,2-.14Z"/><path class="cls-36" d="M899.48,498.63c-.54-.42-1.22-.63-1.9-.72-.68-.09-1.37-.02-2.03,.09-.66,.14-1.3,.35-1.9,.64-.6,.29-1.17,.64-1.66,1.11,1.33-.21,2.53-.54,3.75-.77,1.23-.25,2.39-.41,3.73-.35Z"/><path class="cls-36" d="M905.54,526.01c.44-.08,.81-.35,1.06-.78l3.77-6.47c.73-1.25,.51-2.82-.53-3.83l-.46-.44s.1,0,.14,0c.44,0,.85-.03,1.1-.13,.56-.22,1.68-1.27,2.04-1.62l1.79-.72,.37-2.46c.44-1.47,.4-1.74,.39-1.81v-.13c0-.54,0-2.17-1.37-2.41-1.08-.19-3.08-.8-3.09-.8l-.13-.02c-2.45-.1-2.7,0-2.8,.04-.34,.14-.61,.6-.79,.99-.29,.39-.69,1.07-.47,1.57,.06,.14,.14,.25,.2,.33,.02,.03,.04,.06,.06,.04,0,0,0,.04-.07,.14-.16,.25-.28,.39-.38,.51-.12,.14-.23,.27-.33,.46-.17,.34-.3,1.15-.34,1.42l-.14,1.57c-.21-.04-.42-.06-.63-.05-.16,0-.31,.04-.45,.07,.13-.79,.33-2.13,.37-2.86,.05-.98-.8-2.52-1.13-3.08,.02-.13,.01-.27-.03-.42-.11-.4-.46-.75-1.02-1.04-1.08-.54-2.21-1.08-2.21-1.08l-.14-.07-.16,.03c-.4,.07-1.74,.34-2.12,1.04-.08,.15-.18,.36-.28,.58-.14,.31-.43,.95-.54,1.04-.07,.01-.32-.01-.5-.03-.77-.07-2.39-.23-2.55,1.14-.12,.99,.83,2.52,1.82,4,.17,.26,.37,.55,.39,.58,0,.04,0,.09,0,.15-.03,.33-.1,1.22,1.19,1.45,.79,.14,1.4,.18,1.71,.2,.15,.17,.28,.34,.33,.42,.06,.47,.64,.62,1.42,.69l.24,.06-.79,.91c-.86,.98-1.07,2.33-.57,3.53,1.04,2.49,2.54,5.65,3.72,6.61,.56,.46,1.15,.7,1.67,.7,.1,0,.19,0,.28-.02Zm1.13-15.99c.07-.42,.18-.96,.25-1.1,.04-.08,.09-.14,.19-.26,.12-.14,.27-.32,.47-.62,.43-.68,.14-1.08-.02-1.3-.04-.05-.07-.1-.07-.07,0-.11,.18-.45,.37-.7l.06-.1c.08-.19,.21-.41,.29-.51,.32-.03,1.39-.01,2.3,.03,.36,.11,2.11,.63,3.15,.81,.38,.07,.54,.49,.54,1.42,0,.12,0,.21,0,.22,0,.16-.19,.87-.37,1.51l-.3,1.97-1.35,.55-.16,.11c-.64,.62-1.5,1.37-1.77,1.47-.23,.09-1.17,.07-1.99,0l-.11-.11c.56-.22,.96-.76,.96-1.4,0-.83-.67-1.5-1.5-1.5-.39,0-.74,.15-1,.39l.07-.79Zm1.11,2.37c-.06,.02-.12,.04-.18,.04-.03,0-.06-.01-.08-.02l.26-.02Zm-.45-.06s-.07-.06-.1-.1h0l-.05-.05s.03,.03,.05,.05l.08-.08v.17Zm-7.31,.13c-.05-.06-.1-.12-.17-.19l-.15-.16h-.22s-.71,0-1.77-.19c-.39-.07-.39-.09-.37-.38,.01-.15,.03-.31-.02-.48-.04-.16-.16-.34-.52-.88-.52-.78-1.75-2.61-1.66-3.32,.04-.33,.56-.34,1.46-.26,.39,.04,.67,.06,.89-.01,.53-.18,.85-.89,1.16-1.58,.09-.19,.17-.37,.24-.51,.09-.15,.67-.38,1.25-.5,.34,.16,1.21,.58,2.05,1,.42,.21,.52,.38,.54,.36l-.17,.27,.17,.27c.44,.71,1.13,2.06,1.1,2.69-.05,.98-.45,3.33-.46,3.35h.04c-.15,.12-.3,.24-.43,.38,0-.05,.01-.09,.01-.14,0-.83-.67-1.5-1.5-1.5s-1.5,.67-1.5,1.5c0,.1,.01,.2,.03,.29Zm.98-.31c0-.19,.12-.36,.29-.43l-.29,.43Zm.12,.35l.21,.14-.21-.14Zm-.32,5.83c-.36-.85-.2-1.8,.4-2.49l2.44-2.79c.34-.38,.8-.61,1.31-.63,.03,0,.06,0,.08,0,.48,0,.93,.18,1.28,.52l2.83,2.72c.71,.68,.86,1.75,.36,2.6l-3.77,6.47c-.14,.23-.28,.28-.37,.3-.3,.05-.71-.12-1.14-.47-.78-.64-2.03-2.9-3.43-6.22Z"/><path class="cls-36" d="M907.24,512.24h0s-.04-.03-.05-.05l.05,.05Z"/><polygon class="cls-36" points="906.49 520.39 904.8 520.15 904.62 516.65 903.62 516.7 903.8 520.24 903.28 520.41 903.6 521.36 904.37 521.1 906.35 521.38 906.49 520.39"/></g></g><g id="Puglas_Linework"><g><path class="cls-7" d="M912.83,560.26c.44,.12,1.25,.27,1.98,.41,1.66,.3,3.92,.72,6.47,1.5,.11-.95,.04-1.58,.04-1.59l1.98-.25c0,.08,.12,1.07-.1,2.49,1.4,.51,2.85,1.14,4.32,1.92,.07-.47,.12-.88,.15-1.17l1.99,.21c-.02,.2-.11,1-.29,2.03,1.91,1.19,3.81,2.65,5.63,4.48-1.67-13.09-3.42-28.2-3.59-31.99-.3-.22-.57-.42-.81-.59l-3.34,5.84-7.7,5.13-3.13-8.2,2.96-7.04-2.5-.92c-1.15,1.51-3.63,4.34-6.89,5.81,.64,4.57,2.6,18.73,2.81,21.94Z"/><path class="cls-7" d="M920.56,545.63l5.22-3.48,4.07-7.11c.04-.06,.03-.12,.01-.16-.01-.04-.05-.09-.12-.12l-7.38-2.71c-.1-.04-.21,.01-.25,.11l-3.51,8.36,1.95,5.11Z"/><path class="cls-7" d="M917.72,489.63c.18-5.08,5.37-12.1,7.98-15.31-11.67,.89-17.63,11.46-19.38,15.2,5.17-.1,8.82-.04,11.4,.12Z"/><path class="cls-7" d="M957.25,581.1c-.9,4.43-2.85,12.02-7.04,26.39,1.89,.43,4.9,1.35,6.91,3.06,2.31-5.07,7.39-17.97,10.08-26.24-3.62-3.59-7.95-3.49-9.95-3.21Z"/><path class="cls-7" d="M936.93,561.38c2.06,.74,7.24,2.58,9.44,3.18,2.68,.74,11.53,4.78,11.53,8.35,0,.45,.02,.85,.04,1.23,.06,1.22,.11,2.38-.3,4.9,2.41-.23,6.55,0,10.22,3.16,1.8-6.28,3.92-18.71-5.59-23.33-6.58-3.2-20.18-12.83-27.66-18.26,.38,4.13,1.3,12.23,2.33,20.77Z"/><path class="cls-7" d="M907.33,512.34v-.17l-.1,.08-.05-.05c.04,.06,.09,.11,.14,.15Z"/><path class="cls-7" d="M899.3,489.72c-.3-4.05,2.09-8.38,3.72-10.8-4.31,.73-7.53,2.35-9.57,4.85-1.94,2.36-2.33,4.97-2.39,6.33,3.02-.16,5.75-.28,8.24-.38Z"/><path class="cls-7" d="M907.61,510.42c.83,0,1.5,.67,1.5,1.5,0,.64-.4,1.18-.96,1.4l.11,.11c.82,.08,1.75,.1,1.99,0,.27-.11,1.13-.85,1.77-1.47l.16-.11,1.35-.55,.3-1.97c.18-.63,.37-1.35,.37-1.51,0-.02,0-.1,0-.22,0-.93-.16-1.35-.54-1.42-1.04-.18-2.8-.7-3.15-.81-.91-.04-1.98-.05-2.3-.03-.08,.1-.2,.32-.29,.51l-.06,.1c-.18,.24-.36,.58-.37,.7,0-.02,.04,.02,.07,.07,.16,.22,.45,.62,.02,1.3-.19,.3-.34,.48-.47,.62-.1,.12-.15,.18-.19,.26-.07,.13-.18,.67-.25,1.1l-.07,.79c.27-.24,.62-.39,1-.39Z"/><path class="cls-7" d="M899.98,512.18c0-.83,.67-1.5,1.5-1.5s1.5,.67,1.5,1.5c0,.05,0,.09-.01,.14,.13-.14,.28-.27,.43-.37h-.04s.41-2.38,.46-3.36c.03-.63-.66-1.99-1.1-2.69l-.17-.27,.17-.27s-.12-.15-.54-.36c-.84-.42-1.71-.84-2.05-1-.58,.12-1.16,.35-1.25,.5-.08,.14-.16,.32-.24,.51-.31,.69-.63,1.41-1.16,1.58-.22,.07-.5,.05-.89,.01-.9-.09-1.42-.07-1.46,.26-.08,.71,1.14,2.54,1.66,3.32,.36,.54,.48,.72,.52,.88,.05,.17,.04,.34,.02,.48-.02,.3-.02,.32,.37,.38,1.06,.19,1.76,.19,1.77,.19h.22l.15,.16c.06,.07,.12,.13,.17,.19-.02-.09-.03-.19-.03-.29Z"/><path class="cls-7" d="M958.66,621.33h12.71c-.17-.5-.28-1.03-.28-1.59,0-.46,.08-.9,.19-1.32h-14.04c.3,.96,.74,1.95,1.41,2.9h0Z"/><path class="cls-7" d="M907.52,512.41s.05,.02,.08,.02c.06,0,.12-.01,.18-.04l-.26,.02Z"/><path class="cls-7" d="M944.77,616.42h.23c-.39-1.83-.62-2.95,.75-5.32,.26-.46,.51-.85,.73-1.19h-.09l.49-1.67c8.32-28.44,8.2-31.11,8.07-33.95-.02-.41-.04-.82-.04-1.3-.47-1.22-5.86-4.58-9.32-5.53-1.9-.52-5.75-1.86-8.24-2.75,1.25,10.12,2.58,20.19,3.32,24.38,.87,4.95,2.7,16.88,4.12,27.33Z"/><path class="cls-7" d="M935.05,609.87l-1.88,.84c1.31,2.39,3.76,8.81,.62,19.81l1.83,.2c4.94-10.21,.86-18.47-.57-20.85Z"/><path class="cls-7" d="M941.75,616.42c-.34-2.47-.7-5.02-1.06-7.53l-3.78,.18c.78,1.35,2.04,3.92,2.69,7.35h2.15Z"/><path class="cls-7" d="M976.22,622.87c1.72,0,3.13-1.4,3.13-3.13s-1.4-3.13-3.13-3.13-3.13,1.4-3.13,3.13,1.4,3.13,3.13,3.13Z"/><path class="cls-7" d="M945.37,618.42h-5.49c.09,.93,.13,1.9,.11,2.91h5.73c-.06-.54-.14-1.18-.23-2.01-.04-.32-.07-.62-.12-.91Z"/><path class="cls-7" d="M935.48,573.93s-.01-.1-.02-.15c-2.03-2.48-4.26-4.38-6.51-5.86-.27,1.07-.63,2.13-1.09,2.85l-1.69-1.07c.4-.64,.73-1.75,.98-2.89-1.5-.84-2.99-1.51-4.42-2.04-.29,.87-.72,1.8-1.34,2.74l-1.66-1.11c.52-.78,.87-1.55,1.11-2.27-2.51-.78-4.75-1.2-6.38-1.5-2.38-.44-3.69-.67-3.6-1.95,.05-1.06-1.6-13.39-2.76-21.69-.23,.06-.46,.11-.69,.15-1.34,.22-2.52,.15-3.56-.09l1.27,2.16c.59,.99,.28,2.26-.69,2.87l-2.85,1.81c-.35,.22-.74,.33-1.14,.33-.22,0-.45-.04-.67-.11-.61-.2-1.09-.66-1.32-1.25l-1.47-3.81c-.02,7.11,1.42,22.33,2.83,35.2,4.42,1.47,21.74,6.32,35.67-2.32Z"/><path class="cls-7" d="M900.98,512.16l.29-.43c-.17,.08-.28,.24-.29,.43Z"/><path class="cls-7" d="M899.55,536.48c-.06,.05-.14,.12-.21,.18l3.19,6.26,.82-.52c.06-.04,.08-.11,.04-.17l-2.82-4.78c-.38-.31-.73-.64-1.02-.97Z"/><path class="cls-7" d="M954.83,612.56c-1.72-1.27-4.56-2.02-6.14-2.32-.28,.36-.67,.93-1.21,1.86-.99,1.72-.87,2.27-.52,3.92,.17,.78,.37,1.75,.52,3.09,.35,3.22,.42,3.61,.8,5.44,.11,.56,.25,1.24,.43,2.17,.17,.89,.38,1.05,.38,1.05,.05,.02,.32-.04,.47-.07,.48-.1,1.19-.25,1.85,.21,.58,.41,.8,1.1,.91,1.68,.58-.49,1.39-1.06,2.41-.93,.74,.09,1.41,.52,2.03,1.3,.01-.22,.03-.43,.03-.59,.07-1.36,.13-2.43,1.11-2.65,.97-.22,1.5,.8,1.76,1.29,.24,.46,.43,.68,.53,.77,.17-.18,.4-.59,.57-1.04-.47-.64-1.53-2.11-3.75-5.28-2.62-3.75-2.47-7.89-2.18-9.9Z"/><path class="cls-7" d="M900.4,544.21s.07,0,.11-.01l1.18-.75-3.12-6.13c-.2,.18-.42,.37-.65,.58l2.4,6.24s.04,.06,.08,.07Z"/><path class="cls-7" d="M1021.98,688.14c-2.17,.55-4.87,1.24-7.63,1.38-3.63,.19-10.89-1.82-17.88-3.76-5.05-1.4-9.83-2.72-12.48-3-2.2-.23-6.47-1.29-11.25-2.88-.73,2.41-2.05,7.43-1.67,10.86,3.93,1.09,8.12,2.44,11.46,3.52,1.05,.34,2.03,.65,2.88,.92,.1-1.3,.38-3.01,1.09-4.32l1.76,.96c-.63,1.15-.82,2.83-.88,3.96,.1,.03,.21,.06,.3,.08,.71,.19,1.99,.46,3.54,.76-.06-1.82,.07-3.69,.98-4.75l1.53,1.29c-.42,.49-.58,1.8-.48,3.85l.25,.05c1.27,.24,2.52,.49,3.74,.73-.07-.93,0-2.04,.47-3.05l1.81,.84c-.4,.86-.34,1.88-.22,2.63,8.68,1.78,15.47,3.58,17.18,5.95,2.81,3.89,3.11,4.93,3.61,12.32,.2,2.93,1.79,3.62,3.09,3.69,1.61,.08,2.67-.77,2.72-1.05,0-.62,.06-2.32,.15-4.69,.23-6.07,.91-24.23,.14-27.11-.59-.11-2.67,.42-4.2,.81Z"/><path class="cls-7" d="M930.93,610.89l-.79-1.01,1.21-.54-26.11,1.26c.19,1.18,.38,2.37,.56,3.57h26.62c-.67-2.17-1.47-3.26-1.49-3.28Z"/><path class="cls-7" d="M940.4,606.9c-1.06-7.23-2.1-13.91-2.7-17.29-.42-2.38-1.14-7.45-1.94-13.52-6.39,3.74-13.29,4.92-19.41,4.92-7.16,0-13.25-1.59-16.3-2.56,.43,3.87,.85,7.46,1.22,10.46,.31,1.97,.83,4.68,1.44,7.82,.67,3.48,1.45,7.55,2.19,11.89l35.5-1.71Z"/><path class="cls-7" d="M847.31,590.73c0,.77,.63,1.4,1.4,1.4s1.4-.63,1.4-1.4v-13.18c-.91,.15-1.85,.26-2.79,.31v12.87Z"/><path class="cls-7" d="M885.75,553.99c-3.28,6.85-6.14,9.9-10.94,11.3,.89,1.95,2.18,5.58,2.4,10.74,2.15-.11,3.69-.34,4.29-.73,1.8-1.15,3.26-2.59,4.68-3.97,1.33-1.3,2.58-2.52,3.97-3.36,1.85-1.11,4.26-2.78,5.43-3.61-.82-8.45-1.51-17.1-1.57-22.52-2.77,3.07-5.88,7.18-8.26,12.15Z"/><path class="cls-7" d="M854.44,574.55c.2-.05,.39-.1,.56-.14,.7-3.2,.26-6.07-.11-7.61-.77-.91-3.12-3.41-5.58-3.48-1.64-.04-2.71,.02-3.48,.07-.9,.05-1.55,.09-2.31-.1-.15-.02-.46,.03-.75,.11,.49,.21,1.37,.49,2.92,.79,.5,.09,.88,.51,.91,1.02,.04,.49-.27,.95-.74,1.12-.35,.12-.87,.24-1.46,.38-.42,.1-1.1,.25-1.67,.42,.73,.24,1.98,.56,4.09,.96l.77,.14,.09,.84c.03,.5-.28,.95-.76,1.1-.22,.07-.54,.12-1.21,.21-.48,.07-1.56,.23-2.43,.42,.65,.22,1.69,.52,3.32,.87l.71,.16,.17,1.49-.69,.32c-1.59,.7-2.82,1.47-3.31,1.93,.13,.04,.31,.09,.55,.14,3.4,.64,7.95-.53,10.39-1.16Z"/><path class="cls-7" d="M932.91,616.17h-103.15l-8.2,3.02,8.26,4.05h103.35c.27-2.87,.1-5.22-.25-7.07Z"/><path class="cls-7" d="M899.33,732.3c0-1.13,.07-3.53,.19-6.58l-19.01-1.19c.02,2.95,.05,5.89,.08,8.72h2.7v2h-2.68c.02,1.65,.04,3.26,.06,4.8h2.61v2h-2.58c.03,1.7,.05,3.29,.07,4.74h2.51v3h-2.46c.06,3.45,.11,5.61,.11,5.71l.03,1.43-1.43,.1c-.11,0-11.26,.8-20.47,2.33-2.08,.35-3.08,1.12-3,2.31,.2,2.8,5.18,7.08,11.66,7.24,4.06,.1,9.19,.53,14.16,.95,6.17,.52,14.55,1.22,16.39,.66,.96-2.23,1.33-13.83,1.08-34.51-.02-1.66-.04-2.94-.04-3.68Z"/><path class="cls-7" d="M901.32,512.65l-.21-.14c.06,.06,.13,.11,.21,.14Z"/><path class="cls-7" d="M970.84,679.24c-7.82-2.77-16.42-6.82-19.33-11l-.16-.22-.07-.26c-1.78-6.97-6.65-20-8.8-25.61-1.58,2.28-3.58,5.02-5.98,8.28-3.11,4.24-6.48,8.82-8.99,12.69,.39,1.29,1.35,4.26,2.49,6.53,.53,1.07,1.8,2.52,3.14,4.06,2.23,2.56,5.01,5.76,6.41,9.37,1.6,4.15,13.97,5.69,21.39,5.69,1.91,0,4.82,.59,8.06,1.42-.17-3.8,1.11-8.62,1.82-10.96Z"/><path class="cls-7" d="M943.68,634.12c.05-.83-.09-3.39-1.03-10.79h-2.8c-.31,2.75-1.12,5.75-2.75,8.91l-.31,.61-5.61-.6,.36-1.16c.67-2.13,1.09-4.06,1.37-5.84h-25.68c.73,6.74,.66,10.83-.24,14.79-1.21,5.33-6.36,14.36-11.81,23.92-6.42,11.27-13.7,24.04-14.25,30.65-.43,5.12-.5,16.42-.44,27.92l19.1,1.19c.42-10.18,1.25-25.48,1.85-28.49,.41-2.03,3.1-5.22,7.82-10.68,4.59-5.3,10.29-11.91,12.08-16.45,1.79-4.53,7.36-12.12,12.75-19.46,4-5.44,9.48-12.9,9.58-14.52Z"/><path class="cls-7" d="M872.81,565.76c-3.55,.66-8.1,.72-14.33,.8h-.55c.42,1.97,.8,5.16-.02,8.69,6.19,.59,12.66,.92,17.31,.85-.23-5.18-1.61-8.71-2.4-10.34Z"/><path class="cls-7" d="M847.31,523.79v37.52c.57-.01,1.25-.02,2.06,0,.25,0,.49,.03,.73,.07v-37.59h-2.79Z"/><path class="cls-7" d="M906.91,536.18c1.96-.33,3.75-1.53,5.15-2.8-.69-1.26-1.59-3.07-1.93-4.46-.04,.04-.09,.09-.13,.12-1.06,.92-2.38,1.39-3.71,1.39-.69,0-1.37-.14-2.03-.39-.41,1.29-1.5,3.19-2.36,4.57,.8,.89,2.36,2,5,1.56Z"/><path class="cls-7" d="M905.73,524.73l3.77-6.47c.5-.85,.35-1.92-.36-2.6l-2.83-2.72c-.35-.33-.8-.52-1.28-.52-.03,0-.06,0-.08,0-.51,.02-.97,.25-1.31,.63l-2.44,2.79c-.6,.69-.75,1.64-.4,2.49,1.39,3.32,2.64,5.58,3.43,6.22,.43,.35,.84,.52,1.14,.47,.09-.02,.24-.07,.37-.3Zm-2.13-3.37l-.32-.95,.52-.17-.18-3.53,1-.05,.18,3.5,1.69,.24-.14,.99-1.98-.28-.77,.26Z"/><path class="cls-7" d="M850.76,521.79c1.2,0,2.18-.98,2.18-2.18v-.92c-1.21,.16-2.39,.23-3.51,.23-2,0-3.79-.21-5.25-.46v1.15c0,1.2,.98,2.18,2.18,2.18h4.4Z"/><path class="cls-7" d="M908.69,527.54c8.1-7.06,15.54-32.82,14.19-35.13-1.01-.85-10.16-1.47-32.41-.28-1.28,.07-2.42,.72-3.14,1.78-.72,1.07-.9,2.39-.49,3.61,7.27,21.46,14.07,28.22,17.48,30.35,1.39,.87,3.14,.73,4.36-.33Zm1.12-31.04c.67-.29,1.38-.45,2.1-.54,.72-.08,1.46-.07,2.18,.08,.72,.12,1.41,.4,2.01,.79-.73,.01-1.41-.04-2.08-.01-.67,.02-1.34,.05-2,.14-1.33,.14-2.63,.42-4.04,.71,.52-.51,1.16-.88,1.82-1.16Zm-16.16,2.14c.6-.29,1.24-.5,1.9-.64,.66-.12,1.35-.18,2.03-.09,.68,.09,1.36,.31,1.9,.72-1.34-.06-2.5,.11-3.73,.35-1.22,.23-2.42,.56-3.75,.77,.49-.48,1.06-.83,1.66-1.11Zm6.22,20.09c-.5-1.2-.29-2.56,.57-3.53l.79-.91-.24-.06c-.78-.07-1.36-.22-1.42-.69-.05-.08-.18-.26-.33-.42-.31-.01-.92-.06-1.71-.2-1.29-.23-1.22-1.11-1.19-1.45,0-.05,.01-.1,0-.15-.02-.03-.22-.32-.39-.58-.99-1.48-1.94-3.01-1.82-4,.16-1.36,1.78-1.21,2.55-1.14,.18,.02,.43,.04,.5,.03,.11-.09,.41-.73,.54-1.04,.1-.22,.19-.42,.28-.58,.38-.7,1.72-.97,2.12-1.04l.16-.03,.14,.07s1.13,.54,2.21,1.08c.57,.28,.91,.63,1.02,1.04,.04,.15,.05,.29,.03,.42,.33,.56,1.18,2.1,1.13,3.08-.03,.73-.24,2.08-.37,2.86,.15-.03,.3-.06,.45-.07,.21,0,.43,.01,.63,.05l.14-1.57c.04-.27,.18-1.08,.34-1.42,.1-.2,.21-.33,.33-.46,.1-.12,.23-.26,.38-.51,.06-.1,.07-.14,.07-.14-.01,.02-.03,0-.06-.04-.06-.08-.14-.19-.2-.33-.22-.51,.19-1.19,.47-1.57,.17-.39,.44-.86,.79-.99,.1-.04,.35-.14,2.8-.04l.13,.02s2.01,.61,3.09,.8c1.38,.24,1.37,1.87,1.37,2.41v.13c.01,.08,.05,.34-.39,1.81l-.37,2.46-1.79,.72c-.36,.35-1.48,1.4-2.04,1.62-.25,.1-.66,.13-1.1,.13-.05,0-.1,0-.14,0l.46,.44c1.04,1,1.26,2.58,.53,3.83l-3.77,6.47c-.25,.43-.62,.7-1.06,.78-.09,.02-.19,.02-.28,.02-.52,0-1.1-.24-1.67-.7-1.18-.96-2.67-4.12-3.72-6.61Z"/><path class="cls-7" d="M852.94,509.71v-1.15c0-1.2-.98-2.18-2.18-2.18h-4.4c-1.2,0-2.18,.98-2.18,2.18v.91c2.2,.4,5.38,.72,8.76,.24Z"/><path class="cls-7" d="M852.94,516.67v-4.93c-1.21,.16-2.39,.23-3.51,.23-2,0-3.79-.21-5.25-.46v4.91c2.2,.4,5.38,.72,8.76,.24Z"/><path class="cls-36" d="M1028.51,685.37c-1.43-1.62-4.01-.97-7.27-.13-2.15,.55-4.58,1.17-7.03,1.29-3.21,.15-10.48-1.87-16.94-3.65-5.18-1.43-10.07-2.78-12.96-3.09-6.17-.65-25.74-7.18-30.18-13.05-2.18-8.37-8.21-24.09-9.6-27.66,1.35-2.15,2.08-3.71,2.15-4.76,.05-.89,0-3-1-10.98h.32c.09,.49,.18,.97,.31,1.62,.11,.55,.25,1.23,.43,2.15,.23,1.18,.62,1.93,1.24,2.33,.73,.48,1.49,.32,1.99,.22,.08-.02,.2-.04,.29-.05,.04,.09,.09,.27,.13,.57,.07,.5,.2,1.53,1.06,1.85,.79,.3,1.43-.26,1.93-.7,.34-.3,.82-.72,1.11-.68,.11,.01,.42,.12,.89,.81,.29,.42,.91,1.33,1.79,1.33,.12,0,.24-.02,.36-.05,.94-.27,1.14-1.33,1.23-2.57,.5,.51,1.05,.73,1.64,.67,1.55-.17,2.27-2.33,2.45-2.99l.13-.49-.31-.4s-.55-.71-2.6-3.62h12.51c.93,.95,2.22,1.54,3.65,1.54,2.83,0,5.13-2.3,5.13-5.13s-2.3-5.13-5.13-5.13c-1.55,0-2.93,.71-3.87,1.81h-15.55c-.12-.88-.13-1.69-.09-2.38,.21,.07,.43,.11,.65,.11,.08,0,.16,0,.24-.01,.74-.08,1.38-.53,1.7-1.2,2.09-4.24,8.11-19.37,11.04-28.62,4.34-13.69,1.87-23.95-6.77-28.15-8.06-3.91-27.86-18.44-31.71-21.28,0-.24-.04-.47-.12-.7-.22-.61-.7-1.09-1.31-1.31l-7.38-2.71c-.98-.36-2.05,.02-2.59,.87l.13-.36-4.84-1.78-.65,1.01s-.59,.9-1.56,1.99c-.77-1.46-1.5-3.08-1.53-3.88l-.97,.03c7.05-7.46,13.93-27.75,13.97-34.53,0-1.27-.23-2.08-.75-2.55-.32-.29-.95-.84-4.55-1.19,.06-4.83,6.36-12.97,8.93-15.85l1.43-1.61-2.15-.06c-.22,0-.44,0-.65,0-14.98,0-21.87,14.28-23.16,17.31-.9,.02-1.83,.05-2.8,.08-.44-5.12,4.62-11.31,4.67-11.38l1.53-1.85-2.39,.22c-6.04,.55-10.5,2.53-13.23,5.89-2.44,3-2.81,6.26-2.83,7.82-1.37,.38-2.56,1.23-3.37,2.43-1.08,1.59-1.34,3.55-.72,5.38h0c6.82,20.11,13.34,28,17.77,31.05h-.29c-.03,.45-.77,1.89-1.68,3.44l-.29-.62-1.47,1.06c-.41,.3-10.12,7.41-15.96,19.61-5.08,10.61-7.68,10.65-24.6,10.85l-3.92,.05c-.69-.58-1.51-1.15-2.42-1.59v-38.47c1.64-.56,2.84-2.11,2.84-3.94v-1.27c.88-.19,1.77-.43,2.66-.75l-.67-1.89c-.66,.23-1.33,.42-1.99,.57v-4.9c.88-.19,1.77-.43,2.66-.75l-.67-1.89c-.66,.23-1.33,.42-1.99,.57v-.77c0-2.3-1.88-4.18-4.18-4.18h-4.4c-2.3,0-4.18,1.88-4.18,4.18v.47c-.61-.16-.97-.27-.99-.28l-.64,1.89c.09,.03,.67,.22,1.63,.45v4.89c-.61-.16-.97-.27-.99-.28l-.64,1.89c.09,.03,.67,.22,1.63,.45v1.56c0,1.94,1.33,3.56,3.13,4.03v37.76c-.55,.03-.93,.03-1.3-.06-.87-.22-2.57,.18-3.29,.97-.4,.43-.54,.98-.37,1.5,.19,.57,.7,1.04,1.65,1.44-1.27,.39-2.15,.9-2.13,1.87,.02,.74,.45,1.32,2.27,1.91-1.13,.34-1.78,.82-1.8,1.63-.03,.99,.82,1.64,3.31,2.34-2.51,1.51-2.39,2.52-2.34,2.9,.16,1.35,1.83,1.66,2.38,1.77,.53,.1,1.07,.15,1.63,.18v12.87c0,1.87,1.52,3.4,3.4,3.4s3.4-1.52,3.4-3.4v-13.56c.83-.18,1.58-.36,2.24-.53l-.42,1.22,1.88,.2c2.38,.25,10.69,1.05,17.64,1.05,4.35,0,8.17-.32,9.68-1.28,2.05-1.32,3.7-2.93,5.15-4.35,1.2-1.17,2.33-2.28,3.41-2.93,1.36-.82,2.97-1.89,4.22-2.76,1.1,10.91,2.29,20.66,2.4,21.53,.33,2.07,.85,4.8,1.46,7.97,.92,4.79,2.05,10.68,3,16.88h-73.36l-12.92,4.75,12.87,6.32h74.86c.74,6.64,.7,10.41-.15,14.12-1.11,4.9-6.15,13.74-11.49,23.1-6.9,12.1-14.03,24.62-14.63,31.89-.95,11.4-.2,51.54-.03,59.78-3.34,.27-11.93,1.02-19.33,2.26-5.4,.9-5.58,4.42-5.5,5.48,.32,4.48,6.75,9.83,14.58,10.03,3.97,.1,9.06,.52,13.98,.94,6.43,.54,10.82,.87,13.77,.87,2.45,0,3.9-.23,4.68-.75,1.53-1.02,2.66-4.39,2.27-36.99-.02-1.65-.04-2.92-.04-3.65,0-5.44,1.31-32.77,2.06-36.49,.27-1.35,3.92-5.58,7.15-9.3,4.98-5.76,10.63-12.29,12.61-17.31,.31-.79,.77-1.71,1.34-2.72,.5,1.41,1.14,3.07,1.86,4.51,.7,1.41,2.03,2.93,3.56,4.69,2.19,2.51,4.66,5.36,5.87,8.48,2.86,7.4,22.02,7.61,24.19,7.61,4.07,0,14.45,3.35,20.65,5.35,2.32,.75,4.15,1.34,5.27,1.65,1.14,.31,3.3,.73,6.03,1.25,5.86,1.12,19.57,3.76,21.12,5.91,2.32,3.22,2.56,3.55,3.04,10.77,.32,4.81,3.53,6.49,6.28,6.49,.08,0,.15,0,.22,0,2.92-.1,5.3-1.91,5.3-4.04,0-.56,.07-2.34,.15-4.58,.88-23.32,.53-27.99-.53-29.19Zm-88.52-64.03c.03-1.02-.02-1.99-.11-2.91h5.49c.04,.28,.08,.58,.12,.91,.09,.82,.16,1.47,.23,2.01h-5.73Zm-6.82-10.62l1.88-.84c1.43,2.38,5.51,10.64,.57,20.85l-1.83-.2c3.14-11,.69-17.42-.62-19.81Zm3.73-1.64l3.78-.18c.36,2.51,.72,5.06,1.06,7.53h-2.15c-.65-3.42-1.9-6-2.69-7.35Zm-39.92-68.02l1.47,3.81c.23,.6,.71,1.05,1.32,1.25,.22,.07,.44,.11,.67,.11,.4,0,.79-.11,1.14-.33l2.85-1.81c.97-.62,1.28-1.88,.69-2.87l-1.27-2.16c1.04,.24,2.22,.31,3.56,.09,.23-.04,.46-.09,.69-.15,1.16,8.3,2.81,20.63,2.76,21.69-.08,1.28,1.22,1.52,3.6,1.95,1.63,.3,3.87,.71,6.38,1.5-.24,.72-.59,1.49-1.11,2.27l1.66,1.11c.62-.93,1.05-1.87,1.34-2.74,1.43,.53,2.92,1.2,4.42,2.04-.25,1.13-.58,2.25-.98,2.89l1.69,1.07c.46-.73,.82-1.78,1.09-2.85,2.25,1.48,4.48,3.38,6.51,5.86,0,.05,.01,.1,.02,.15-13.93,8.64-31.25,3.79-35.67,2.32-1.41-12.87-2.85-28.09-2.83-35.2Zm6.41,1.17c.04,.06,.02,.13-.04,.17l-.82,.52-3.19-6.26c.07-.06,.15-.12,.21-.18,.29,.33,.64,.65,1.02,.97l2.82,4.78Zm-4.83-4.89l3.12,6.13-1.18,.75s-.07,.03-.11,.01c-.04-.01-.06-.04-.08-.07l-2.4-6.24c.23-.21,.44-.4,.65-.58Zm38.77,27.38c2.49,.88,6.34,2.23,8.24,2.75,3.46,.95,8.85,4.31,9.32,5.53,0,.48,.02,.89,.04,1.3,.13,2.84,.26,5.51-8.07,33.95l-.49,1.66h.09c-.23,.36-.47,.75-.73,1.21-1.37,2.37-1.14,3.49-.75,5.32h-.23c-1.42-10.45-3.24-22.38-4.12-27.33-.74-4.19-2.07-14.25-3.32-24.38Zm22.86,64.07c-.1-.1-.29-.31-.53-.77-.26-.49-.79-1.5-1.76-1.29-.99,.22-1.04,1.29-1.11,2.65,0,.16-.02,.37-.03,.59-.62-.78-1.29-1.2-2.03-1.3-1.02-.13-1.83,.44-2.41,.93-.11-.58-.33-1.28-.91-1.68-.65-.46-1.37-.31-1.85-.21-.16,.03-.42,.09-.47,.07,0,0-.21-.16-.38-1.05-.18-.93-.32-1.61-.43-2.17-.37-1.84-.45-2.22-.8-5.44-.14-1.34-.35-2.31-.52-3.09-.35-1.65-.47-2.21,.52-3.92,.54-.93,.93-1.5,1.21-1.86,1.58,.3,4.42,1.05,6.14,2.32-.29,2.01-.44,6.15,2.18,9.9,2.21,3.17,3.28,4.64,3.75,5.28-.17,.44-.4,.86-.57,1.04Zm16.03-12.17c1.72,0,3.13,1.4,3.13,3.13s-1.4,3.13-3.13,3.13-3.13-1.4-3.13-3.13,1.4-3.13,3.13-3.13Zm-4.93,1.81c-.11,.42-.19,.86-.19,1.32,0,.56,.11,1.09,.28,1.59h-12.72c-.66-.96-1.1-1.95-1.41-2.91h14.04Zm-14.17-7.87c-2-1.71-5.02-2.62-6.91-3.06,4.19-14.37,6.15-21.96,7.04-26.39,1.99-.29,6.33-.38,9.95,3.21-2.69,8.27-7.77,21.17-10.08,26.24Zm10.74-28.35c-3.68-3.16-7.81-3.39-10.22-3.16,.41-2.52,.36-3.68,.3-4.9-.02-.38-.04-.78-.04-1.23,0-3.57-8.84-7.61-11.53-8.35-2.2-.6-7.38-2.44-9.44-3.18-1.03-8.54-1.95-16.63-2.33-20.77,7.48,5.43,21.08,15.06,27.66,18.26,9.51,4.62,7.39,17.05,5.59,23.33Zm-45.74-50.04c.04-.09,.15-.14,.25-.11l7.38,2.71c.07,.03,.1,.08,.12,.12,.01,.04,.02,.1-.01,.16l-4.07,7.11-5.22,3.48-1.95-5.11,3.51-8.36Zm-5.21,.36l2.5,.92-2.96,7.04,3.13,8.2,7.7-5.13,3.34-5.84c.24,.18,.51,.37,.81,.59,.16,3.79,1.92,18.9,3.59,31.99-1.81-1.83-3.72-3.29-5.63-4.48,.18-1.03,.27-1.83,.29-2.03l-1.99-.21c-.03,.28-.08,.7-.15,1.17-1.47-.78-2.92-1.41-4.32-1.92,.22-1.42,.11-2.41,.1-2.49l-1.98,.25s.07,.64-.04,1.59c-2.55-.78-4.81-1.2-6.47-1.5-.73-.13-1.54-.28-1.98-.41-.22-3.21-2.18-17.36-2.81-21.94,3.26-1.47,5.73-4.3,6.89-5.81Zm8.79-58.21c-2.61,3.21-7.81,10.23-7.98,15.31-2.58-.15-6.23-.22-11.4-.12,1.75-3.74,7.71-14.31,19.38-15.2Zm-32.25,9.45c2.04-2.49,5.25-4.12,9.57-4.85-1.62,2.42-4.01,6.75-3.72,10.8-2.49,.1-5.22,.22-8.24,.38,.06-1.37,.45-3.97,2.39-6.33Zm-6.61,13.76c-.42-1.23-.24-2.54,.49-3.61,.72-1.06,1.86-1.71,3.14-1.78,22.25-1.2,31.39-.57,32.41,.28,1.35,2.31-6.09,28.08-14.19,35.13-1.22,1.06-2.98,1.2-4.36,.33-3.41-2.12-10.2-8.89-17.48-30.35Zm17.42,32.53c.66,.25,1.34,.39,2.03,.39,1.33,0,2.65-.47,3.71-1.39,.04-.04,.09-.08,.13-.12,.33,1.39,1.24,3.2,1.93,4.46-1.4,1.27-3.18,2.47-5.15,2.8-2.64,.44-4.2-.67-5-1.56,.86-1.38,1.95-3.28,2.36-4.57Zm-54.9,31.26c-.81-.02-1.49-.02-2.06,0v-37.52h2.79v37.59c-.24-.04-.49-.06-.73-.07Zm-5.19-52.76c0-1.2,.98-2.18,2.18-2.18h4.4c1.2,0,2.18,.98,2.18,2.18v1.15c-3.38,.48-6.56,.15-8.76-.24v-.91Zm0,2.95c1.45,.25,3.25,.46,5.25,.46,1.12,0,2.3-.07,3.51-.23v4.93c-3.38,.48-6.56,.15-8.76-.24v-4.91Zm0,8.1v-1.15c1.45,.25,3.25,.46,5.25,.46,1.12,0,2.3-.07,3.51-.23v.92c0,1.2-.98,2.18-2.18,2.18h-4.4c-1.2,0-2.18-.98-2.18-2.18Zm-.68,55.96c.49-.47,1.72-1.23,3.31-1.93l.69-.32-.17-1.49-.71-.16c-1.63-.36-2.67-.65-3.32-.87,.86-.19,1.95-.35,2.43-.42,.67-.1,.99-.15,1.21-.21,.48-.15,.79-.6,.76-1.1l-.09-.84-.77-.14c-2.12-.39-3.36-.72-4.09-.96,.58-.17,1.25-.32,1.67-.42,.6-.14,1.11-.26,1.46-.38,.47-.16,.78-.62,.74-1.12-.04-.5-.41-.92-.91-1.02-1.56-.3-2.43-.58-2.92-.79,.29-.08,.6-.14,.75-.11,.76,.19,1.41,.15,2.31,.1,.77-.05,1.84-.11,3.48-.07,2.46,.07,4.81,2.57,5.58,3.48,.37,1.54,.82,4.42,.11,7.61-.17,.04-.36,.09-.56,.14-2.44,.63-6.99,1.8-10.39,1.16-.24-.05-.42-.09-.55-.14Zm6.61,15.16c0,.77-.63,1.4-1.4,1.4s-1.4-.63-1.4-1.4v-12.87c.94-.05,1.89-.16,2.79-.31v13.18Zm7.8-15.48c.83-3.54,.45-6.73,.02-8.69h.55c6.23-.08,10.78-.14,14.33-.8,.79,1.62,2.17,5.16,2.4,10.34-4.65,.08-11.11-.26-17.31-.85Zm32.24-7.27c-1.38,.83-2.64,2.06-3.97,3.36-1.42,1.39-2.88,2.82-4.68,3.97-.6,.39-2.14,.62-4.29,.73-.22-5.16-1.51-8.79-2.4-10.74,4.8-1.39,7.66-4.44,10.94-11.3,2.38-4.97,5.48-9.07,8.26-12.15,.06,5.42,.75,14.08,1.57,22.52-1.17,.83-3.58,2.5-5.43,3.61Zm11.13,20.93c-.37-3-.79-6.59-1.22-10.46,3.04,.97,9.14,2.56,16.3,2.56,6.13,0,13.02-1.18,19.41-4.92,.8,6.08,1.52,11.14,1.94,13.52,.6,3.39,1.64,10.07,2.7,17.29l-35.5,1.71c-.74-4.34-1.52-8.41-2.19-11.89-.6-3.14-1.13-5.85-1.44-7.82Zm3.96,21.69l26.11-1.26-1.21,.54,.79,1.01s.82,1.11,1.49,3.28h-26.62c-.18-1.2-.37-2.4-.56-3.57Zm-83.68,8.59l8.2-3.02h103.15c.35,1.85,.52,4.2,.25,7.07h-103.35l-8.26-4.05Zm76.74,151.31c-1.84,.56-10.22-.14-16.39-.66-4.97-.42-10.1-.85-14.16-.95-6.48-.16-11.46-4.43-11.66-7.24-.08-1.18,.93-1.96,3-2.31,9.21-1.54,20.36-2.32,20.47-2.33l1.43-.1-.03-1.43c0-.1-.05-2.25-.11-5.71h2.46v-3h-2.51c-.02-1.45-.05-3.04-.07-4.74h2.58v-2h-2.61c-.02-1.54-.04-3.14-.06-4.8h2.68v-2h-2.7c-.03-2.83-.06-5.77-.08-8.72l19.01,1.19c-.12,3.06-.19,5.46-.19,6.58,0,.74,.02,2.02,.04,3.68,.25,20.68-.11,32.28-1.08,34.51Zm23.06-102.39c-1.79,4.54-7.5,11.14-12.08,16.45-4.72,5.46-7.41,8.65-7.82,10.68-.6,3.02-1.43,18.31-1.85,28.49l-19.1-1.19c-.06-11.5,.01-22.81,.44-27.92,.55-6.61,7.83-19.39,14.25-30.65,5.45-9.56,10.59-18.59,11.81-23.92,.9-3.96,.97-8.05,.24-14.79h25.68c-.28,1.78-.7,3.71-1.37,5.84l-.36,1.16,5.61,.6,.31-.61c1.63-3.16,2.45-6.16,2.75-8.91h2.8c.93,7.4,1.08,9.97,1.03,10.79-.1,1.62-5.58,9.08-9.58,14.52-5.39,7.34-10.97,14.92-12.75,19.46Zm18.22,14.98c-1.39-3.61-4.17-6.81-6.41-9.37-1.34-1.54-2.61-2.99-3.14-4.06-1.14-2.27-2.1-5.25-2.49-6.53,2.51-3.87,5.87-8.45,8.99-12.69,2.39-3.26,4.4-6,5.98-8.28,2.14,5.61,7.02,18.64,8.8,25.61l.07,.26,.16,.22c2.92,4.18,11.51,8.23,19.33,11-.71,2.34-2,7.16-1.82,10.96-3.24-.84-6.15-1.42-8.06-1.42-7.42,0-19.79-1.55-21.39-5.69Zm86.47,31.36c-.09,2.36-.15,4.07-.15,4.69-.04,.28-1.11,1.13-2.72,1.05-1.3-.06-2.89-.75-3.09-3.69-.49-7.39-.8-8.43-3.61-12.32-1.71-2.37-8.5-4.17-17.18-5.95-.13-.75-.18-1.77,.22-2.63l-1.81-.84c-.47,1.02-.54,2.12-.47,3.05-1.22-.24-2.47-.49-3.74-.73l-.25-.05c-.1-2.06,.06-3.36,.48-3.85l-1.53-1.29c-.9,1.07-1.03,2.93-.98,4.75-1.56-.3-2.83-.57-3.54-.76-.09-.02-.19-.05-.3-.08,.06-1.13,.25-2.81,.88-3.96l-1.76-.96c-.71,1.31-.99,3.02-1.09,4.32-.85-.27-1.83-.58-2.88-.92-3.34-1.08-7.53-2.43-11.46-3.52-.38-3.42,.95-8.45,1.67-10.86,4.77,1.59,9.05,2.64,11.25,2.88,2.65,.28,7.42,1.6,12.48,3,7,1.94,14.25,3.95,17.88,3.76,2.76-.14,5.46-.83,7.63-1.38,1.53-.39,3.61-.92,4.2-.81,.77,2.88,.09,21.04-.14,27.11Z"/><path class="cls-36" d="M914.02,496.81c.68-.03,1.35,.02,2.08,.01-.61-.39-1.3-.67-2.01-.79-.72-.15-1.45-.16-2.18-.08-.72,.09-1.44,.26-2.1,.54-.67,.28-1.3,.65-1.82,1.16,1.41-.29,2.71-.57,4.04-.71,.66-.09,1.32-.12,2-.14Z"/><path class="cls-36" d="M899.48,498.63c-.54-.42-1.22-.63-1.9-.72-.68-.09-1.37-.02-2.03,.09-.66,.14-1.3,.35-1.9,.64-.6,.29-1.17,.64-1.66,1.11,1.33-.21,2.53-.54,3.75-.77,1.23-.25,2.39-.41,3.73-.35Z"/><path class="cls-36" d="M905.54,526.01c.44-.08,.81-.35,1.06-.78l3.77-6.47c.73-1.25,.51-2.82-.53-3.83l-.46-.44s.1,0,.14,0c.44,0,.85-.03,1.1-.13,.56-.22,1.68-1.27,2.04-1.62l1.79-.72,.37-2.46c.44-1.47,.4-1.74,.39-1.81v-.13c0-.54,0-2.17-1.37-2.41-1.08-.19-3.08-.8-3.09-.8l-.13-.02c-2.45-.1-2.7,0-2.8,.04-.34,.14-.61,.6-.79,.99-.29,.39-.69,1.07-.47,1.57,.06,.14,.14,.25,.2,.33,.02,.03,.04,.06,.06,.04,0,0,0,.04-.07,.14-.16,.25-.28,.39-.38,.51-.12,.14-.23,.27-.33,.46-.17,.34-.3,1.15-.34,1.42l-.14,1.57c-.21-.04-.42-.06-.63-.05-.16,0-.31,.04-.45,.07,.13-.79,.33-2.13,.37-2.86,.05-.98-.8-2.52-1.13-3.08,.02-.13,.01-.27-.03-.42-.11-.4-.46-.75-1.02-1.04-1.08-.54-2.21-1.08-2.21-1.08l-.14-.07-.16,.03c-.4,.07-1.74,.34-2.12,1.04-.08,.15-.18,.36-.28,.58-.14,.31-.43,.95-.54,1.04-.07,.01-.32-.01-.5-.03-.77-.07-2.39-.23-2.55,1.14-.12,.99,.83,2.52,1.82,4,.17,.26,.37,.55,.39,.58,0,.04,0,.09,0,.15-.03,.33-.1,1.22,1.19,1.45,.79,.14,1.4,.18,1.71,.2,.15,.17,.28,.34,.33,.42,.06,.47,.64,.62,1.42,.69l.24,.06-.79,.91c-.86,.98-1.07,2.33-.57,3.53,1.04,2.49,2.54,5.65,3.72,6.61,.56,.46,1.15,.7,1.67,.7,.1,0,.19,0,.28-.02Zm1.7-13.77l.08-.08v.17s-.09-.09-.13-.15l.05,.05Zm.29,.17l.26-.02c-.06,.02-.12,.04-.18,.04-.03,0-.06-.01-.08-.02Zm-.6-3.48c.04-.08,.09-.14,.19-.26,.12-.14,.27-.32,.47-.62,.43-.68,.14-1.08-.02-1.3-.04-.05-.07-.1-.07-.07,0-.11,.18-.45,.37-.7l.06-.1c.08-.19,.21-.41,.29-.51,.32-.03,1.39-.01,2.3,.03,.36,.11,2.11,.63,3.15,.81,.38,.07,.54,.49,.54,1.42,0,.12,0,.21,0,.22,0,.16-.19,.87-.37,1.51l-.3,1.97-1.35,.55-.16,.11c-.64,.62-1.5,1.37-1.77,1.47-.23,.09-1.17,.07-1.99,0l-.11-.11c.56-.22,.96-.76,.96-1.4,0-.83-.67-1.5-1.5-1.5-.39,0-.74,.15-1,.39l.07-.79c.07-.42,.18-.96,.25-1.1Zm-7.23,3.19h-.22s-.71,0-1.77-.19c-.39-.07-.39-.09-.37-.38,.01-.15,.03-.31-.02-.48-.04-.16-.16-.34-.52-.88-.52-.78-1.75-2.61-1.66-3.32,.04-.33,.56-.34,1.46-.26,.39,.04,.67,.06,.89-.01,.53-.18,.85-.89,1.16-1.58,.09-.19,.17-.37,.24-.51,.09-.15,.67-.38,1.25-.5,.34,.16,1.21,.58,2.05,1,.42,.21,.52,.38,.54,.36l-.17,.27,.17,.27c.44,.71,1.13,2.06,1.1,2.69-.05,.98-.45,3.33-.46,3.35h.04c-.15,.12-.3,.24-.43,.38,0-.05,.01-.09,.01-.14,0-.83-.67-1.5-1.5-1.5s-1.5,.67-1.5,1.5c0,.1,.01,.2,.03,.29-.05-.06-.1-.12-.17-.19l-.15-.16Zm1.29,.04c0-.19,.12-.36,.29-.43l-.29,.43Zm.33,.49c-.08-.03-.15-.08-.21-.14l.21,.14Zm-.53,5.69c-.36-.85-.2-1.8,.4-2.49l2.44-2.79c.34-.38,.8-.61,1.31-.63,.03,0,.06,0,.08,0,.48,0,.93,.18,1.28,.52l2.83,2.72c.71,.68,.86,1.75,.36,2.6l-3.77,6.47c-.14,.23-.28,.28-.37,.3-.3,.05-.71-.12-1.14-.47-.78-.64-2.03-2.9-3.43-6.22Z"/><polygon class="cls-36" points="906.35 521.38 906.49 520.39 904.8 520.15 904.62 516.65 903.62 516.7 903.8 520.24 903.28 520.41 903.6 521.36 904.37 521.1 906.35 521.38"/></g></g></g></g><g id="Highlights"><path class="cls-36" d="M333.04,1289.77c7.04-21.44,14.31-43.07,25.62-62.7,5.49-9.52,11.93-18.49,19.68-26.3,4.01-4.05,8.35-7.72,12.94-11.1,4.89-3.61,9.93-7.03,14.56-10.99,8.38-7.17,14.21-16.3,17.53-26.78s4.22-20.9,4.93-31.49,1.04-21.73,2.75-32.46,5.2-21.17,10.66-30.73c11.3-19.78,28.86-35.13,46.29-49.37,2.13-1.74,4.27-3.47,6.41-5.19,.85-.68,.7-2.12,0-2.83-.82-.84-1.99-.67-2.83,0-17.73,14.27-35.69,29.05-48.68,47.97-6.29,9.18-11.2,19.34-13.9,30.16s-3.44,21.76-4.1,32.73c-1.24,20.47-1.74,43.6-16.26,59.72-8.16,9.06-19.2,14.86-28.26,22.91-8.24,7.32-15.25,15.96-21.21,25.22-12.3,19.12-20.18,40.74-27.35,62.19-.89,2.66-1.76,5.32-2.64,7.98-.8,2.45,3.06,3.5,3.86,1.06h0Z"/><path class="cls-36" d="M1533.28,1025.52l-40.16-60.1c-12.65-18.94-26.59-37.57-34.12-59.28-4.02-11.6-6.45-23.73-7.16-35.99-.15-2.56-4.15-2.58-4,0,1.31,22.44,8.18,44.01,19.61,63.33,6,10.14,12.77,19.82,19.31,29.61l20.22,30.26,22.85,34.2c1.42,2.13,4.89,.13,3.45-2.02h0Z"/><path class="cls-36" d="M2035.95,572.68c19.4-17.06,33.98-39.13,43-63.28s12.42-50.13,9.63-75.58c-1.41-12.82-4.34-25.45-8.95-37.5-5.52-14.4-13.56-28.82-12.62-44.73,.84-14.38,8.75-27.28,17.47-38.29,10.08-12.74,21.49-24.49,32.37-36.53,11.66-12.91,23.38-25.75,34.96-38.72,9.59-10.74,19.08-22.19,24-35.92,1.18-3.29,2.03-6.67,2.56-10.13,.39-2.52-3.47-3.6-3.86-1.06-2.24,14.52-10.65,26.85-19.94,37.86-10.75,12.74-22.26,24.89-33.43,37.26s-22.7,24.71-33.65,37.39c-9.3,10.76-18.3,22.57-22.4,36.4-2,6.74-2.62,13.81-1.73,20.79,.99,7.75,3.6,15.12,6.52,22.32s5.8,13.64,8.13,20.68c2,6.03,3.59,12.19,4.8,18.43,4.83,25.09,3.13,51.33-4.18,75.77s-20.47,47.43-38.62,65.58c-2.22,2.22-4.51,4.36-6.87,6.43-1.94,1.7,.9,4.52,2.83,2.83h0Z"/><path class="cls-36" d="M1414.39,1279.73c5.26,10.49,10.82,21.6,11.52,33.53,.33,5.56-.59,10.95-2.49,16.17s-4.55,10.03-7.08,14.9-5.08,10.28-6.9,15.74c-1.86,5.58-3.2,11.32-4.46,17.06-2.33,10.65-4.32,21.56-8.88,31.54s-11.09,18.57-21,23.08c-.98,.45-1.22,1.87-.72,2.74,.59,1.01,1.75,1.17,2.74,.72,9.15-4.16,15.95-12.04,20.6-20.78,5.23-9.84,7.77-20.68,10.11-31.5,1.29-5.98,2.55-11.97,4.26-17.85s3.79-11.01,6.44-16.24c5.16-10.19,11.12-20.23,11.45-31.97,.39-13.94-6.03-27-12.13-39.14-1.15-2.3-4.61-.28-3.45,2.02h0Z"/><path class="cls-36" d="M978.36,1451.9c11.32,.39,18.19-11.11,23.93-19.13,5.93-8.28,12.2-16.94,20.94-22.46,4.8-3.04,10.17-4.81,15.8-5.47,6.25-.73,12.55-.44,18.82-.41,11.46,.06,22.73-1.62,33.47-5.7,11.88-4.51,22.77-11.48,31.72-20.51,1.81-1.83-1.01-4.66-2.83-2.83-15.7,15.86-37.35,24.81-59.63,25.04-11.99,.12-24.33-1.1-35.48,4.26-9.41,4.52-16.38,12.7-22.51,20.9-3.46,4.64-6.58,9.58-10.29,14.03s-8.08,8.49-13.95,8.28c-2.57-.09-2.57,3.91,0,4h0Z"/><path class="cls-36" d="M1821.8,1393.39c4.24,8.93,12.14,15.89,21.42,19.22,11.07,3.97,23.24,.68,34.22,4.92,4.66,1.8,8.87,4.8,12.2,8.51,3.75,4.19,5.94,9.43,8.79,14.21,5.08,8.54,12.25,15.77,20.58,21.16,9.42,6.1,20.35,9.75,31.56,10.42,2.57,.15,2.56-3.85,0-4-19.16-1.15-37.5-11.94-47.79-28.15-2.97-4.68-5.11-9.85-8.49-14.27-3.06-4-6.96-7.34-11.39-9.74-4.87-2.63-10.14-3.92-15.63-4.36-6.04-.48-12.19-.03-18.16-1.22-10.39-2.08-19.31-9.17-23.84-18.72-1.1-2.32-4.55-.3-3.45,2.02h0Z"/><path class="cls-36" d="M1823.46,1394.74c-12.08-9.04-22.51-20.19-31.52-32.25-9.18-12.3-17.04-25.53-24.36-38.99-4.13-7.59-8.09-15.27-12.04-22.96-1.18-2.29-4.63-.27-3.45,2.02,7.12,13.86,14.29,27.72,22.38,41.04s16.99,25.93,27.57,37.21c5.95,6.35,12.43,12.18,19.4,17.39,.87,.65,2.23,.14,2.74-.72,.6-1.02,.15-2.09-.72-2.74h0Z"/><path class="cls-36" d="M803.9,85.98c-16.9,15.41-35.54,28.85-55.48,40.06-9.96,5.6-20.24,10.65-30.77,15.09s-20.55,7.84-31.05,11.14c-17.54,5.51-37.28,11.46-48.97,26.68-3.08,4.01-5.31,8.51-6.91,13.29-1.73,5.18-2.79,10.55-4.2,15.81s-3.15,10.22-6.25,14.62c-2.85,4.05-6.74,7.29-10.92,9.88-9.26,5.75-19.97,8.84-30.2,12.37l-37.85,13.05-9.27,3.2c-2.42,.83-1.38,4.7,1.06,3.86l38.11-13.14c6.23-2.15,12.46-4.28,18.68-6.44,4.92-1.71,9.82-3.51,14.54-5.71,9.36-4.38,17.87-10.76,22.33-20.32s5.11-21.47,9.95-31.41c8.41-17.27,27.86-24.45,44.97-29.98,10.18-3.29,20.39-6.41,30.36-10.33,10.73-4.21,21.24-9.02,31.43-14.41,20.37-10.77,39.53-23.85,56.97-38.91,2.12-1.83,4.21-3.69,6.28-5.58,1.91-1.74-.93-4.56-2.83-2.83h0Z"/><path class="cls-36" d="M1388.85,288.14c13.6-9.6,20.71-25.04,25.48-40.51,1.22-3.94,2.3-7.93,3.33-11.92,1.16-4.49,2.76-9.26,2.18-13.95s-3.53-8.58-5.87-12.61c-2.18-3.75-4.04-7.69-5.55-11.76-6.04-16.38-6.71-34.64-1.71-51.37,5.65-18.94,19.12-34.3,30.9-49.72l39.29-51.44,4.84-6.33c.66-.86,.13-2.24-.72-2.74-1.03-.6-2.08-.14-2.74,.72l-38.99,51.04c-6.37,8.33-12.84,16.6-19.05,25.04-5.74,7.8-11.05,15.95-14.76,24.93-6.66,16.16-7.79,34.48-3.77,51.45,2.01,8.49,5.37,16.69,9.96,24.12,1.22,1.97,2.56,3.93,3.41,6.09s1.05,4.53,.71,6.89c-.61,4.3-1.97,8.59-3.11,12.78-4.1,15.18-9.5,31.24-21.38,42.19-1.42,1.31-2.91,2.52-4.49,3.63-2.09,1.47-.09,4.94,2.02,3.45h0Z"/><path class="cls-36" d="M1221.43,517.95c-11.83,10.28-19.54,24.14-26.77,37.82-3.66,6.92-7.25,13.89-11.33,20.57-3.87,6.34-8.17,12.4-12.65,18.32-9.04,11.94-18.81,23.31-27.71,35.36-8.59,11.63-16.37,24.03-21.17,37.74-2.4,6.86-3.72,13.85-4.66,21.04-.82,6.27-1.58,13.48-5.63,18.62-.93,1.18-2.06,2.21-3.31,3.05-2.13,1.42-.13,4.89,2.02,3.45,5.88-3.92,8.43-10.5,9.72-17.19,1.34-6.95,1.78-13.99,3.57-20.86,3.65-13.98,10.83-26.68,19.05-38.45,8.57-12.27,18.32-23.66,27.52-35.46,4.61-5.91,9.11-11.92,13.26-18.17s7.99-13.14,11.59-19.94c7.25-13.67,14.2-27.96,25.15-39.13,1.34-1.37,2.74-2.68,4.19-3.94,1.95-1.69-.89-4.51-2.83-2.83h0Z"/><path class="cls-36" d="M22.56,383.33c10.09,10.74,19.21,22.32,27.61,34.42s16.1,24.66,23.47,37.41,14.49,25.84,21.64,38.82c7.18,13.04,14.42,26.05,22.13,38.79,7.64,12.63,15.74,24.99,24.64,36.78,1.14,1.51,2.29,3,3.45,4.49,.83,1.07,2.53,.57,3.14-.4,1.04-1.64,2.79-2.52,4.71-2.48,2.57,.05,2.57-3.95,0-4-3.34-.06-6.39,1.65-8.17,4.46l3.14-.4c-9.1-11.67-17.34-23.98-25.09-36.58s-15.03-25.53-22.2-38.5c-7.17-12.97-14.22-26.01-21.57-38.88s-14.97-25.55-23.28-37.81-17.18-23.93-27.03-34.86c-1.24-1.38-2.49-2.74-3.76-4.09-1.77-1.88-4.59,.95-2.83,2.83h0Z"/><path class="cls-36" d="M2841.94,102.42c-21.62,30.51-49.08,56.39-79.13,78.47s-63.58,41.21-97.14,58.69c-16.8,8.75-33.77,17.18-50.74,25.59-14.91,7.39-32.69,14.39-42.09,28.97-5.49,8.51-5.52,18.07-5.34,27.86,.2,11.34-.97,22.62-2.97,33.78-4.06,22.67-10.47,44.96-16.09,67.28l-34.39,136.57-4.27,16.96c-.63,2.5,3.23,3.56,3.86,1.06l34.39-136.57c5.64-22.4,11.59-44.75,16.82-67.25,2.55-10.98,4.72-22.07,5.86-33.29,.57-5.58,.87-11.19,.82-16.8s-.49-10.98,.41-16.38c3.03-18.03,21.44-27.05,36.19-34.36,16.83-8.35,33.68-16.65,50.4-25.22,33.62-17.23,66.82-35.54,97.76-57.28,30.31-21.3,58.43-46,81.19-75.36,2.72-3.51,5.37-7.08,7.93-10.7,1.49-2.1-1.98-4.1-3.45-2.02h0Z"/><path class="cls-36" d="M2400.63,1455.31l-1.98,6.1c-.37,1.14,.65,2.67,1.93,2.53,11.5-1.25,16.32-13.53,20.27-22.77,5.42-12.67,10.47-25.5,15.1-38.47,4.62-12.96,8.84-26.07,12.65-39.3,1.88-6.54,3.66-13.11,5.33-19.7s3.12-13.25,5.02-19.77c3.95-13.55,11.03-25.67,21.5-35.22,1.91-1.74-.93-4.56-2.83-2.83-8.97,8.18-15.88,18.43-20.16,29.79-2.4,6.37-3.96,13-5.57,19.6s-3.26,13.05-5.04,19.53c-7.19,26.16-15.99,51.88-26.35,76.96-2.57,6.23-4.97,12.72-8.36,18.56-2.52,4.35-6.2,9.04-11.57,9.62l1.93,2.53,1.98-6.1c.8-2.45-3.06-3.51-3.86-1.06h0Z"/></g></svg>