<?xml version="1.0" encoding="UTF-8"?><svg id="Layer_2" xmlns="http://www.w3.org/2000/svg" viewBox="0 0 1681.54 681.63"><defs><style>.cls-1{fill:#262626;}.cls-2{stroke-width:5px;}.cls-2,.cls-3,.cls-4,.cls-5,.cls-6,.cls-7{stroke:#231f20;stroke-miterlimit:10;}.cls-2,.cls-4,.cls-6{fill:none;}.cls-8{fill:#2d3231;}.cls-3{fill:#8b5e3c;}.cls-3,.cls-4{stroke-linecap:round;}.cls-3,.cls-5{stroke-width:3px;}.cls-4{stroke-width:15px;}.cls-5{fill:#babdbf;}.cls-6,.cls-7{stroke-width:10px;}.cls-9{fill:#333;}.cls-10{fill:#bda50d;}.cls-11{fill:#212a29;}.cls-12{fill:#231f20;}.cls-7{fill:#414042;}</style></defs><g id="Page_4"><g id="Panel_3"><g id="Dust"><polygon class="cls-7" points="7.97 670.37 1674.93 670.37 1676.5 513.07 8.76 503.67 7.97 670.37"/><path class="cls-3" d="M870.41,639.46s-10.96,.39-22.3,5.87,33.65,3.13,37.96,0,16.83-10.57,3.91-9.78l-19.57,3.91Z"/><path class="cls-3" d="M819.95,637.87c2.41-4-1.28-8.85-6.13-8.12-5.7,.86-10.87,3.16-5.14,9.14,5.26,5.48,8.93,2.86,11.27-1.02Z"/><path class="cls-3" d="M544.45,619.89s9.39,9.78,19.17,12.52-18,7.83-29.35-2.74,10.17-9.78,10.17-9.78Z"/><path class="cls-3" d="M732.67,632.41s-17.61-2.08-21.91,3.66,20.09,6.01,30.13,5.98-8.22-9.64-8.22-9.64Z"/><path class="cls-3" d="M840.67,612.07s-30.52-1.05-14.87,15.91,32.48-7.96,32.48-7.96c0,0,12.91,9.95,18.78,2.96s-13.3-16.38-36.39-10.9Z"/><path class="cls-3" d="M981.54,629.67c1.57-.78,0-9.78,62.61-25.83,0,0,34.89-3.78,37.23-16.7s21.52-14.09,11.35,4.7-11.82,23.71-53.67,33.28c-44.28,10.13-57.52,4.54-57.52,4.54Z"/><path class="cls-3" d="M905.63,638.67c2.3,8.74,11.35,.27,9.78-2.6s-11.74-4.83-9.78,2.6Z"/><path class="cls-3" d="M550.32,588.2s15.16,24.65,34.58,25.43,70.29,0,70.29,0c0,0-58.3-7.09-66.52-12.54s-21.52-17.59-31.3-17.59-7.04,4.7-7.04,4.7"/><path class="cls-3" d="M593.36,551.8s22.7-9,40.7-5.48,35.61,1.17,49.3,5.48,29.74,4.3,29.74,4.3c5.18,3.13-6.65-10.96-25.43-12.52s-45-1.17-58.7-3.13-31.19,1.57-33.15,3.13-2.46,8.22-2.46,8.22Z"/><path class="cls-3" d="M956.89,543.59s62.22,0,76.3,0,20.54,6.07,22.7,9.98-1.57,3-1.57,3l-20.74,2.09s-14.09-10.89-23.87-10.43-48.91-2.68-52.83-4.63Z"/><path class="cls-3" d="M714.33,608.93s-18.83-10.57-29.01-7.83-6.26,26.22,4.3,24.65,9.17,7.98,20.63,.07,20.07,.68,20.46-5.96-16.39-10.94-16.39-10.94Z"/><path class="cls-3" d="M584.9,577.58c-.15,.44,3.77-3.08,11.59-6.21s16.04-9.2,16.04-11.64,3.52-5.97,1.57-6.16-6.51,1.88-15.38,3-11.22,0-11.22,0c0,0-6.26,2.45-9.39,9.02s-9.39,8.52-5.48,10.09,12.28,1.9,12.28,1.9Z"/><path class="cls-3" d="M772.58,614.83c-17.22,5.45-28.57,9.49-14.48,13.14s21.52,0,21.52,0c0,0,9.46-11.69,9.62-14s5.25-14.43-2.58-11.3-14.09,12.16-14.09,12.16Z"/><path class="cls-3" d="M624.28,636.07c22.3,13.56,32.48,3.78,32.48,3.78,0,0,13.7-3.58,14.09-8.64s-14.87-10.71-22.7-9.06-28.17,2.82-28.17,2.82c0,0-11.35,6.73-3.52,8.91l7.83,2.18Z"/><path class="cls-3" d="M924.8,619.88c15.26-3.9,12.52,5.32,22.7,2.28s16.04-13.22,17.22-14.78,16.83,4.61,4.3,15.41-32.09,6.23-32.09,6.23c0,0-16.44-9.13-14.28-9.13"/><path class="cls-3" d="M716.23,545.54c12.52-7.43,13.7-2.74,19.17-12.13s6.53-26.22,8.55-28.96,25.5-5.48,25.5-5.48c0,0,15.65-7.04,19.76-5.48s9.59,4.7,14.28,3.52,13.7-6.65,23.09-7.04,21.52,.33,26.22,3.29-3.52,15.1,10.57,12.36,15.65-5.87,17.22-11.35-4.3-11.74,1.57-14.09,17.5-5.09,23.23-5.48,10.72-.78,13.55,1.17,7.04,8.22,9.39,18,.78,15.65,2.35,18.98,1.56,20.54-8.02,23.67-20.65-5.85-17.27,3.34,13.16,18.77,13.16,18.77c0,0,10.93,6.62,12.9,6.93s10.97-1.65,12.92,.31,20.74-2.61,22.3-2.22,12.42-20.38,19.46-16.47-2.36,5.38-1.19,8.9,3.93,2.54,3.93,2.54c0,0,10.14-1.33,1.53-2.09s-18.65,40.59-27.26,42.18-16.04,5.8-22.7,8.39-26.22-2.74-33.65-4.97-14.67-18.59-19.37-21.33-5.8-23.55-5.8-23.55c0,0-22.32-26.51-27.39-27-32.9-3.13-55.24-23.02-60.33-23.22s-3.03,30.86-4.21,32.81-12.42,23.66-12.42,23.66c0,0-14.48,5.48-16.83,6.65s-16.43,5.09-18.39,5.09-10.96-1.59-18.59,2.33-31.5,2.75-34.24,2.36-10.57-9-7.43-11.35,8.61,3.13,16.04,.78,16.48,2.35,29.84-7.43c1.54-1.13-9.39-13.76-9.39-13.76l-2.05-2.68Z"/><path class="cls-3" d="M949.84,524.02s-5.09,1.17,4.7,2.74,9.39,2.74,12.91,.39,6.39-5.09,6.39-5.09h3.78s3.13-10.13,1.96-10.54,3-3.15-5.74-5.11-10.31-3-14.22-.39-10.86,5.09-11.1,7.04,0,8.22,0,8.22l1.32,2.74Z"/><path class="cls-3" d="M945.15,554.94c2.35,1.17,9.39,3.66,9.39,3.66,0,0,14.09-3.47,5.09-7.48s-10.57-6.36-12.91-5.97,0-1.95-2.35,.39,0,6,0,6l.78,3.4Z"/><path class="cls-3" d="M1016.36,528.48c.8,.06,1.69,.26,2.59,.52,2.63,.76,5.24,2.07,5.24,2.07l6.26-.78s1.57-2.2,0-6.18-3.52-7.63-3.52-7.63c0,0,1.57-4.19-5.48-3.02s-8.61,2.35-8.61,5.09,.78,3.28,1.96,5.55,1.57,4.38,1.57,4.38Z"/><path class="cls-3" d="M621.54,497.41s-.39,5.49,4.3,7.05,2.74,4.17,10.96,4.17,16.04-5.74,12.91-11.22-5.38-7.43-5.38-7.43c0,0-10.67-2.74-15.16-1.17s-4.5,3.91-6.06,6.26l-1.57,2.35Z"/><path class="cls-3" d="M710.25,472.76c2.07,7.43,3.34,9.39,8.04,9.39s12.43-2.35,12.43-2.35v-9.39s3.91-4.3-9.4-5.48-16.87-2.74-16.26,1.57,5.19,6.26,5.19,6.26Z"/><path class="cls-3" d="M822.67,543.59c-2.35,0-8.87,.9-8.87,.9,0,0-4.96-4.58-5.22,0s2.35,6.4,3.13,7.06,4.7,.59,7.83-.42,4.43-2.18,6.26-2.9,5-4.09,2.24-4.75-5.11-1.02-5.11-1.02l-.26,1.14Z"/><path class="cls-3" d="M799.45,580.83c4.43,1.36,6.75,2.8,9.11,1.17s7.32,.72,6.54-4.5,.52-6.78-1.57-7.57-7.57,0-7.57,0l-9.13,.52s.52,7.89,1.57,9.13,2.87,1.24,2.87,1.24"/><path class="cls-3" d="M802.84,528.48c1.83-.55,.78-2.59,7.3,0s-4.5,1.8,11.19,4.67l7.65,1.4c1.16,.21,1.66-1.4,.59-1.88l-26.72-12.04s-1.83,4.17-1.83,4.96,1.83,2.89,1.83,2.89Z"/><path class="cls-5" d="M928.97,607.13s31.3-3.88,37.83-2.74c4.57-2.24-3.13-3.02-6.65-3.29s-16.57-6.26-16.7-12,3.13-1.04,13.43,3.39,21.91,10.96,23.61,10.43,11.35-20.61,11.35-20.61c0,0,13.04,12.13,12.52,13.57s-14.35,2.61-14.48,4.3,12.91-.78,22.3-.78,21.39-2.09,30.91-1.96,14.25-.5,13.45-2.73-15.02,1.42-18.93-1.84-11.22-15-15.52-19.17-9-8.87-9.13-10.7,7.17-.78,8.74-1.7,3.39-2.48-1.96-2.67-22.3,.07-25.3,1.89-9.13,21.65-11.87,21.39-32.87-16.04-36.26-16.7-31.57,.39-32.74,1.57,.91,3.65,3,3.26,9-1.83,11.48,1.43,14.09,27,10.96,30-9.65,1.09-10.17,2.89-1.7,2.23,.13,2.74Z"/><path class="cls-5" d="M698.67,559.5l66-4.57s6.39,3.26-16.3,4.57c0,0-12.1,28.4-9.28,37.82,.28,.92,26.97-6.39,31.69-12.65s6.67-5.74,7.46-4.7-3.91,18.13-5.22,19.7-15.06,1.62-20.87,2.49-41.29,2.48-53.48,3.9-26.48,.26-15-1.83,15.39-3,17.35-6.52,10.96-30.52,10.96-33,.26-2.09-4.04-2.35-13.96,.52-9.26-2.87Z"/><path class="cls-5" d="M899.23,602.16c-2.09-3.66-8.61-1.57-10.04-2.49-1.44-.91-11.61-29.09-20.87-39.91s-10.7-14.35-13.44-14.61c-2.74-.26-24.39,23.74-28.17,28.83-3.78,5.09-9.42,18.52-12.26,18.13-.87-.12-3.39-1.04-3.39-1.04,0,0-4.17-4.04-5.87-1.83-1.7,2.22,1.56,5.87,4.04,7.43,2.48,1.57,8.55,6.28,12.1,5.49s1.07-7.57,1.2-9.53,2.48-6.26,4.7-5.48c2.22,.78,12.39,.65,15.26,.91s8.35,3.26,8.35,6.59-7.3,3.98-8.48,4.37-6.13,3.39-.39,4.7c5.74,1.3,29.35-1.04,41.35,.52,12,1.57,18,1.58,15.91-2.08Zm-53.09-18.14c-1.17,1.17-16.96,.26-18-1.43-1.04-1.7,5.74-12.13,8.09-12.13s11.87,11.62,9.91,13.57Z"/><path class="cls-5" d="M629.36,559.73c-4.43,1.01-23.74,7.08-26.79,20.12-3.05,13.04,21.83,11.22,29.39,13.04,7.56,1.83,8.35,3.65,0,5.85-8.35,2.2-33.65-.11-34.44-8.2s-6.52-2.61-6.52-2.61l-4.7,18.26c1.61,1.04,2.35,.26,4.43,0,2.09-.26,2.87-5.48,5.74-5.54,2.87-.06,23.48,4.24,31.57,3.45,8.09-.78,23.74-4.96,33.39-15.13,9.65-10.17,2.61-18,2.61-18l4.17-3.65,4.17,1.04,6.99-8.64c-27.45-5.51-50.03,0-50.03,0Zm28.17,10.21s-25.56-3.65-27.13-6.52c0,0,12.26-4.3,21.52-.91,9.26,3.39,5.61,7.43,5.61,7.43Z"/><path class="cls-3" d="M870.41,639.46s-10.96,.39-22.3,5.87,33.65,3.13,37.96,0,16.83-10.57,3.91-9.78l-19.57,3.91Z"/><path class="cls-3" d="M819.95,637.87c2.41-4-1.28-8.85-6.13-8.12-5.7,.86-10.87,3.16-5.14,9.14,5.26,5.48,8.93,2.86,11.27-1.02Z"/><path class="cls-3" d="M544.45,619.89s9.39,9.78,19.17,12.52-18,7.83-29.35-2.74,10.17-9.78,10.17-9.78Z"/><path class="cls-3" d="M732.67,632.41s-17.61-2.08-21.91,3.66,20.09,6.01,30.13,5.98-8.22-9.64-8.22-9.64Z"/><path class="cls-3" d="M840.67,612.07s-30.52-1.05-14.87,15.91,32.48-7.96,32.48-7.96c0,0,12.91,9.95,18.78,2.96s-13.3-16.38-36.39-10.9Z"/><path class="cls-3" d="M981.54,629.67c1.57-.78,0-9.78,62.61-25.83,0,0,34.89-3.78,37.23-16.7s21.52-14.09,11.35,4.7-11.82,23.71-53.67,33.28c-44.28,10.13-57.52,4.54-57.52,4.54Z"/><path class="cls-3" d="M905.63,638.67c2.3,8.74,11.35,.27,9.78-2.6s-11.74-4.83-9.78,2.6Z"/><path class="cls-3" d="M550.32,588.2s15.16,24.65,34.58,25.43,70.29,0,70.29,0c0,0-58.3-7.09-66.52-12.54s-21.52-17.59-31.3-17.59-7.04,4.7-7.04,4.7"/><path class="cls-3" d="M593.36,551.8s22.7-9,40.7-5.48,35.61,1.17,49.3,5.48,29.74,4.3,29.74,4.3c5.18,3.13-6.65-10.96-25.43-12.52s-45-1.17-58.7-3.13-31.19,1.57-33.15,3.13-2.46,8.22-2.46,8.22Z"/><path class="cls-3" d="M956.89,543.59s62.22,0,76.3,0,20.54,6.07,22.7,9.98-1.57,3-1.57,3l-20.74,2.09s-14.09-10.89-23.87-10.43-48.91-2.68-52.83-4.63Z"/><path class="cls-3" d="M714.33,608.93s-18.83-10.57-29.01-7.83-6.26,26.22,4.3,24.65,9.17,7.98,20.63,.07,20.07,.68,20.46-5.96-16.39-10.94-16.39-10.94Z"/><path class="cls-3" d="M584.9,577.58c-.15,.44,3.77-3.08,11.59-6.21s16.04-9.2,16.04-11.64,3.52-5.97,1.57-6.16-6.51,1.88-15.38,3-11.22,0-11.22,0c0,0-6.26,2.45-9.39,9.02s-9.39,8.52-5.48,10.09,12.28,1.9,12.28,1.9Z"/><path class="cls-3" d="M772.58,614.83c-17.22,5.45-28.57,9.49-14.48,13.14s21.52,0,21.52,0c0,0,9.46-11.69,9.62-14s5.25-14.43-2.58-11.3-14.09,12.16-14.09,12.16Z"/><path class="cls-3" d="M624.28,636.07c22.3,13.56,32.48,3.78,32.48,3.78,0,0,13.7-3.58,14.09-8.64s-14.87-10.71-22.7-9.06-28.17,2.82-28.17,2.82c0,0-11.35,6.73-3.52,8.91l7.83,2.18Z"/><path class="cls-3" d="M924.8,619.88c15.26-3.9,12.52,5.32,22.7,2.28s16.04-13.22,17.22-14.78,16.83,4.61,4.3,15.41-32.09,6.23-32.09,6.23c0,0-16.44-9.13-14.28-9.13"/><path class="cls-3" d="M716.23,545.54c12.52-7.43,13.7-2.74,19.17-12.13s6.53-26.22,8.55-28.96,25.5-5.48,25.5-5.48c0,0,15.65-7.04,19.76-5.48s9.59,4.7,14.28,3.52,13.7-6.65,23.09-7.04,21.52,.33,26.22,3.29-3.52,15.1,10.57,12.36,15.65-5.87,17.22-11.35-4.3-11.74,1.57-14.09,17.5-5.09,23.23-5.48,10.72-.78,13.55,1.17,7.04,8.22,9.39,18,.78,15.65,2.35,18.98,1.56,20.54-8.02,23.67-20.65-5.85-17.27,3.34,13.16,18.77,13.16,18.77c0,0,10.93,6.62,12.9,6.93s10.97-1.65,12.92,.31,20.74-2.61,22.3-2.22,12.42-20.38,19.46-16.47-2.36,5.38-1.19,8.9,3.93,2.54,3.93,2.54c0,0,10.14-1.33,1.53-2.09s-18.65,40.59-27.26,42.18-16.04,5.8-22.7,8.39-26.22-2.74-33.65-4.97-14.67-18.59-19.37-21.33-5.8-23.55-5.8-23.55c0,0-22.32-26.51-27.39-27-32.9-3.13-55.24-23.02-60.33-23.22s-3.03,30.86-4.21,32.81-12.42,23.66-12.42,23.66c0,0-14.48,5.48-16.83,6.65s-16.43,5.09-18.39,5.09-10.96-1.59-18.59,2.33-31.5,2.75-34.24,2.36-10.57-9-7.43-11.35,8.61,3.13,16.04,.78,16.48,2.35,29.84-7.43c1.54-1.13-9.39-13.76-9.39-13.76l-2.05-2.68Z"/><path class="cls-3" d="M949.84,524.02s-5.09,1.17,4.7,2.74,9.39,2.74,12.91,.39,6.39-5.09,6.39-5.09h3.78s3.13-10.13,1.96-10.54,3-3.15-5.74-5.11-10.31-3-14.22-.39-10.86,5.09-11.1,7.04,0,8.22,0,8.22l1.32,2.74Z"/><path class="cls-3" d="M945.15,554.94c2.35,1.17,9.39,3.66,9.39,3.66,0,0,14.09-3.47,5.09-7.48s-10.57-6.36-12.91-5.97,0-1.95-2.35,.39,0,6,0,6l.78,3.4Z"/><path class="cls-3" d="M1016.36,528.48c.8,.06,1.69,.26,2.59,.52,2.63,.76,5.24,2.07,5.24,2.07l6.26-.78s1.57-2.2,0-6.18-3.52-7.63-3.52-7.63c0,0,1.57-4.19-5.48-3.02s-8.61,2.35-8.61,5.09,.78,3.28,1.96,5.55,1.57,4.38,1.57,4.38Z"/><path class="cls-3" d="M621.54,497.41s-.39,5.49,4.3,7.05,2.74,4.17,10.96,4.17,16.04-5.74,12.91-11.22-5.38-7.43-5.38-7.43c0,0-10.67-2.74-15.16-1.17s-4.5,3.91-6.06,6.26l-1.57,2.35Z"/><path class="cls-3" d="M710.25,472.76c2.07,7.43,3.34,9.39,8.04,9.39s12.43-2.35,12.43-2.35v-9.39s3.91-4.3-9.4-5.48-16.87-2.74-16.26,1.57,5.19,6.26,5.19,6.26Z"/><path class="cls-3" d="M822.67,543.59c-2.35,0-8.87,.9-8.87,.9,0,0-4.96-4.58-5.22,0s2.35,6.4,3.13,7.06,4.7,.59,7.83-.42,4.43-2.18,6.26-2.9,5-4.09,2.24-4.75-5.11-1.02-5.11-1.02l-.26,1.14Z"/><path class="cls-3" d="M799.45,580.83c4.43,1.36,6.75,2.8,9.11,1.17s7.32,.72,6.54-4.5,.52-6.78-1.57-7.57-7.57,0-7.57,0l-9.13,.52s.52,7.89,1.57,9.13,2.87,1.24,2.87,1.24"/><path class="cls-3" d="M802.84,528.48c1.83-.55,.78-2.59,7.3,0s-4.5,1.8,11.19,4.67l7.65,1.4c1.16,.21,1.66-1.4,.59-1.88l-26.72-12.04s-1.83,4.17-1.83,4.96,1.83,2.89,1.83,2.89Z"/></g><path class="cls-5" d="M928.97,607.13s31.3-3.88,37.83-2.74c4.57-2.24-3.13-3.02-6.65-3.29s-16.57-6.26-16.7-12,3.13-1.04,13.43,3.39,21.91,10.96,23.61,10.43,11.35-20.61,11.35-20.61c0,0,13.04,12.13,12.52,13.57s-14.35,2.61-14.48,4.3,12.91-.78,22.3-.78,21.39-2.09,30.91-1.96,14.25-.5,13.45-2.73-15.02,1.42-18.93-1.84-11.22-15-15.52-19.17-9-8.87-9.13-10.7,7.17-.78,8.74-1.7,3.39-2.48-1.96-2.67-22.3,.07-25.3,1.89-9.13,21.65-11.87,21.39-32.87-16.04-36.26-16.7-31.57,.39-32.74,1.57,.91,3.65,3,3.26,9-1.83,11.48,1.43,14.09,27,10.96,30-9.65,1.09-10.17,2.89-1.7,2.23,.13,2.74Z"/><g id="Text"><path class="cls-5" d="M698.67,559.5l66-4.57s6.39,3.26-16.3,4.57c0,0-12.1,28.4-9.28,37.82,.28,.92,26.97-6.39,31.69-12.65s6.67-5.74,7.46-4.7-3.91,18.13-5.22,19.7-15.06,1.62-20.87,2.49-41.29,2.48-53.48,3.9-26.48,.26-15-1.83,15.39-3,17.35-6.52,10.96-30.52,10.96-33,.26-2.09-4.04-2.35-13.96,.52-9.26-2.87Z"/><path class="cls-5" d="M899.23,602.16c-2.09-3.66-8.61-1.57-10.04-2.49-1.44-.91-11.61-29.09-20.87-39.91s-10.7-14.35-13.44-14.61c-2.74-.26-24.39,23.74-28.17,28.83-3.78,5.09-9.42,18.52-12.26,18.13-.87-.12-3.39-1.04-3.39-1.04,0,0-4.17-4.04-5.87-1.83-1.7,2.22,1.56,5.87,4.04,7.43,2.48,1.57,8.55,6.28,12.1,5.49s1.07-7.57,1.2-9.53,2.48-6.26,4.7-5.48c2.22,.78,12.39,.65,15.26,.91s8.35,3.26,8.35,6.59-7.3,3.98-8.48,4.37-6.13,3.39-.39,4.7c5.74,1.3,29.35-1.04,41.35,.52,12,1.57,18,1.58,15.91-2.08Zm-53.09-18.14c-1.17,1.17-16.96,.26-18-1.43-1.04-1.7,5.74-12.13,8.09-12.13s11.87,11.62,9.91,13.57Z"/></g><g id="Layer_142"><path class="cls-5" d="M629.36,559.73c-4.43,1.01-23.74,7.08-26.79,20.12-3.05,13.04,21.83,11.22,29.39,13.04,7.56,1.83,8.35,3.65,0,5.85-8.35,2.2-33.65-.11-34.44-8.2s-6.52-2.61-6.52-2.61l-4.7,18.26c1.61,1.04,2.35,.26,4.43,0,2.09-.26,2.87-5.48,5.74-5.54,2.87-.06,23.48,4.24,31.57,3.45,8.09-.78,23.74-4.96,33.39-15.13,9.65-10.17,2.61-18,2.61-18l4.17-3.65,4.17,1.04,6.99-8.64c-27.45-5.51-50.03,0-50.03,0Zm28.17,10.21s-25.56-3.65-27.13-6.52c0,0,12.26-4.3,21.52-.91,9.26,3.39,5.61,7.43,5.61,7.43Z"/></g><g id="Background"><g><g><path class="cls-9" d="M1193.82,524.02l-20.94,66.52h-9.39l26.46-66.51c2.25,.16,3.87,0,3.87,0Z"/><path class="cls-1" d="M1345.2,607.09c.22,.72-.32,1.45-1.07,1.45h-176.6c-.14,0-.24-.11-.24-.24,0-.02,0-.04,.01-.06l5.57-17.7h.01l20.94-66.52h126l20.32,66.52,5.06,16.55Z"/><rect class="cls-1" x="1192.25" y="118.63" width="132.26" height="380.35"/><path class="cls-1" d="M304.36,590.54l20.57-67.3h125.99l21.26,67.51,5.26,16.7c.01,.06,.01,.11-.01,.16-.03,.09-.11,.15-.22,.15h-176.59c-.76,0-1.3-.73-1.08-1.45l4.82-15.77Z"/><rect class="cls-1" x="320.23" y="117.85" width="132.26" height="380.35"/><path class="cls-11" d="M1345.64,7.5V103.17c0,8.54-6.92,15.46-15.45,15.46h-142.83c-8.54,0-15.46-6.92-15.46-15.46V6.72h173.74v.78Z"/><path class="cls-11" d="M472.84,6.72V102.39c0,8.54-6.92,15.46-15.46,15.46h-142.82c-8.54,0-15.46-6.92-15.46-15.46V6.72h173.74Z"/><polygon class="cls-11" points="1674.93 6.72 1674.93 624.98 1573.19 590.54 1573.19 6.72 1674.93 6.72"/><path class="cls-8" d="M1573.19,6.72V590.54h-233.05l-20.32-66.52s20.34,5.48,20.34-10.95c0-14.06-15.52-14.09-15.65-14.09V118.63h5.68c8.53,0,15.45-6.92,15.45-15.46V6.72h227.55Z"/><path class="cls-10" d="M1189.95,524.03c-5.07-.39-13.35-2.51-13.35-12.28,0-14.09,15.65-12.77,15.65-12.77h132.26c.13,0,15.65,.03,15.65,14.09,0,16.43-20.34,10.95-20.34,10.95h-126s-1.62,.17-3.87,0Z"/><path class="cls-8" d="M1192.25,118.63V498.98s-15.65-1.32-15.65,12.77c0,9.77,8.28,11.89,13.35,12.28l-26.46,66.51h-72.39V138.2s1.97-66.73-31.48-131.48h112.28V103.17c0,8.54,6.92,15.46,15.46,15.46h4.89Z"/><path class="cls-11" d="M1047.27,444.98V117.85s-.66-24.64-12.58-54.78c-7.19-18.18-18.48-38.36-36.19-56.35h61.12c33.45,64.75,31.48,131.48,31.48,131.48v452.34l-43.83-43.82v-101.74Z"/><path class="cls-11" d="M609.64,63.07c-13.09,30.49-14.32,55.56-14.32,55.56v426.91l-45,45V138.2s-.25-75.13,34.58-130.7v-.78h63.24c-18.6,17.92-30.67,38.11-38.5,56.35Z"/><path class="cls-8" d="M584.9,6.72v.78c-34.83,55.57-34.58,130.7-34.58,130.7v452.34h-68.64l-26.88-67.3c5.07-.38,13.34-2.51,13.34-12.27,0-14.09-15.65-12.77-15.65-12.77V117.85h4.89c8.54,0,15.46-6.92,15.46-15.46V6.72h112.06Z"/><path class="cls-10" d="M468.14,510.97c0,9.76-8.27,11.89-13.34,12.27-2.26,.17-3.88,0-3.88,0h-125.99s-20.35,5.48-20.35-10.96c0-14.04,15.47-14.08,15.65-14.08h132.26s15.65-1.32,15.65,12.77Z"/><path class="cls-8" d="M324.93,523.24l-20.57,67.3H84.66V6.72h214.44V102.39c0,8.54,6.92,15.46,15.46,15.46h5.67V498.2c-.18,0-15.65,.04-15.65,14.08,0,16.44,20.35,10.96,20.35,10.96Z"/><polygon class="cls-11" points="84.66 6.72 84.66 590.54 6.4 624.81 6.4 6.72 84.66 6.72"/></g><g><path class="cls-6" d="M998.5,6.72c17.71,17.99,29,38.17,36.19,56.35,11.92,30.14,12.58,54.78,12.58,54.78v428.87l43.83,43.82h81.77"/><path class="cls-6" d="M472.84,590.54h77.48l45-45V118.63s1.23-25.07,14.32-55.56c7.83-18.24,19.9-38.43,38.5-56.35"/><polyline class="cls-6" points="6.01 624.98 6.4 624.81 84.66 590.54 304.36 590.54 304.58 590.54"/><polyline class="cls-6" points="1340.16 590.54 1573.19 590.54 1674.93 624.98"/><line class="cls-6" x1="1573.19" y1="590.54" x2="1573.19" y2="6.72"/><line class="cls-6" x1="84.66" y1="590.54" x2="84.66" y2="6.72"/><path class="cls-6" d="M304.36,590.54l-4.82,15.77c-.22,.72,.32,1.45,1.08,1.45h176.59c.11,0,.19-.06,.22-.15,.02-.05,.02-.1,.01-.16l-5.26-16.7-21.26-67.51h-125.99l-20.57,67.3Z"/><path class="cls-6" d="M320.23,117.85V498.2c-.18,0-15.65,.04-15.65,14.08,0,16.44,20.35,10.96,20.35,10.96"/><path class="cls-6" d="M472.84,6.72V102.39c0,8.54-6.92,15.46-15.46,15.46h-142.82c-8.54,0-15.46-6.92-15.46-15.46V6.72"/><polygon class="cls-6" points="6.4 624.81 6.4 6.72 84.66 6.72 299.1 6.72 472.84 6.72 584.9 6.72 648.14 6.72 656.72 6.72 722.98 6.72 789.24 6.72 855.5 6.72 921.76 6.72 988.02 6.72 998.5 6.72 1059.62 6.72 1171.9 6.72 1345.64 6.72 1573.19 6.72 1674.93 6.72 1674.93 624.98 1674.93 676.63 6.4 676.63 6.4 624.81"/><polyline class="cls-6" points="320.23 498.2 452.49 498.2 452.49 117.85"/><path class="cls-6" d="M450.92,523.24s1.62,.17,3.88,0c5.07-.38,13.34-2.51,13.34-12.27,0-14.09-15.65-12.77-15.65-12.77"/><polyline class="cls-6" points="477.53 607.76 477.56 607.66 477.57 607.66 482.62 592.89 481.68 590.54 454.8 523.24"/><path class="cls-6" d="M1340.14,590.54l5.06,16.55c.22,.72-.32,1.45-1.07,1.45h-176.6c-.14,0-.24-.11-.24-.24,0-.02,0-.04,.01-.06l5.57-17.7h.01l20.94-66.52h126l20.32,66.52Z"/><path class="cls-6" d="M1324.51,118.63V498.98c.13,0,15.65,.03,15.65,14.09,0,16.43-20.34,10.95-20.34,10.95"/><path class="cls-6" d="M1171.9,7.5V103.17c0,8.54,6.92,15.46,15.46,15.46h142.83c8.53,0,15.45-6.92,15.45-15.46V7.5"/><polyline class="cls-6" points="1324.51 498.98 1192.25 498.98 1192.25 118.63"/><path class="cls-6" d="M1193.82,524.02s-1.62,.17-3.87,0c-5.07-.39-13.35-2.51-13.35-12.28,0-14.09,15.65-12.77,15.65-12.77"/><polyline class="cls-6" points="1167.21 608.54 1167.17 608.33 1163.49 590.54 1189.95 524.03 1189.95 524.02"/><path class="cls-6" d="M584.9,7.5c-34.83,55.57-34.58,130.7-34.58,130.7v452.34"/><path class="cls-6" d="M1091.1,590.54V138.2s1.97-66.73-31.48-131.48"/><polyline class="cls-4" points="589.45 63.07 609.64 63.07 656.72 63.07 722.98 63.07 789.24 63.07 855.5 63.07 921.76 63.07 988.02 63.07 1034.69 63.07 1051.97 63.07"/><polyline class="cls-4" points="575.36 126.72 595.32 126.72 656.72 126.72 722.98 126.72 789.24 126.72 855.5 126.72 921.76 126.72 988.02 126.72 1047.27 126.72 1066.06 126.72"/><polyline class="cls-4" points="575.36 190.37 595.32 190.37 656.72 190.37 722.98 190.37 789.24 190.37 855.5 190.37 921.76 190.37 988.02 190.37 1047.27 190.37 1066.06 190.37"/><polyline class="cls-4" points="575.36 254.02 595.32 254.02 656.72 254.02 722.98 254.02 789.24 254.02 855.5 254.02 921.76 254.02 988.02 254.02 1047.27 254.02 1066.06 254.02"/><polyline class="cls-4" points="575.36 317.67 595.32 317.67 656.72 317.67 722.98 317.67 789.24 317.67 855.5 317.67 921.76 317.67 988.02 317.67 1047.27 317.67 1066.06 317.67"/><polyline class="cls-4" points="575.36 381.33 595.32 381.33 656.72 381.33 722.98 381.33 789.24 381.33 855.5 381.33 921.76 381.33 988.02 381.33 1047.27 381.33 1066.06 381.33"/><polyline class="cls-4" points="575.36 444.98 595.32 444.98 656.72 444.98 722.98 444.98 789.24 444.98 855.5 444.98 921.76 444.98 988.02 444.98 1047.27 444.98 1066.06 444.98"/><polyline class="cls-4" points="575.36 508.63 595.32 508.63 656.72 508.63 722.98 508.63 789.24 508.63 855.5 508.63 921.76 508.63 988.02 508.63 1047.27 508.63 1066.06 508.63"/><polyline class="cls-4" points="656.72 7.5 656.72 63.07 656.72 126.72 656.72 190.37 656.72 254.02 656.72 317.67 656.72 381.33 656.72 444.98 656.72 508.63 656.72 543.59 656.72 556.11"/><polyline class="cls-4" points="722.98 7.5 722.98 63.07 722.98 126.72 722.98 190.37 722.98 254.02 722.98 317.67 722.98 381.33 722.98 444.98 722.98 508.63 722.98 543.59 722.98 556.11"/><polyline class="cls-4" points="789.24 7.5 789.24 63.07 789.24 126.72 789.24 190.37 789.24 254.02 789.24 317.67 789.24 381.33 789.24 444.98 789.24 508.63 789.24 543.59 789.24 556.11"/><polyline class="cls-4" points="855.5 7.5 855.5 63.07 855.5 126.72 855.5 190.37 855.5 254.02 855.5 317.67 855.5 381.33 855.5 444.98 855.5 508.63 855.5 543.59 855.5 556.11"/><polyline class="cls-4" points="921.76 7.5 921.76 63.07 921.76 126.72 921.76 190.37 921.76 254.02 921.76 317.67 921.76 381.33 921.76 444.98 921.76 508.63 921.76 543.59 921.76 556.11"/><polyline class="cls-4" points="988.02 7.5 988.02 63.07 988.02 126.72 988.02 190.37 988.02 254.02 988.02 317.67 988.02 381.33 988.02 444.98 988.02 508.63 988.02 543.59 988.02 556.11"/><polygon class="cls-2" points="652.06 559.24 656.95 573.72 661.45 559.43 661.45 543.59 656.72 543.59 652.06 543.59 652.06 559.24"/><line class="cls-2" x1="657.73" y1="553.57" x2="656.75" y2="565.89"/><polygon class="cls-2" points="718.28 559.24 723.18 573.72 727.68 559.43 727.68 543.59 722.98 543.59 718.28 543.59 718.28 559.24"/><line class="cls-2" x1="723.96" y1="553.57" x2="722.98" y2="565.89"/><polygon class="cls-2" points="784.51 559.24 789.4 573.72 793.9 559.43 793.9 543.59 789.24 543.59 784.51 543.59 784.51 559.24"/><line class="cls-2" x1="790.19" y1="553.57" x2="789.21" y2="565.89"/><polygon class="cls-2" points="850.74 559.24 855.63 573.72 860.13 559.43 860.13 543.59 855.5 543.59 850.74 543.59 850.74 559.24"/><line class="cls-2" x1="856.41" y1="553.57" x2="855.44" y2="565.89"/><polygon class="cls-2" points="916.97 559.24 921.86 573.72 926.36 559.43 926.36 543.59 921.76 543.59 916.97 543.59 916.97 559.24"/><line class="cls-2" x1="922.64" y1="553.57" x2="921.66" y2="565.89"/><polygon class="cls-2" points="983.2 559.24 988.09 573.72 992.59 559.43 992.59 543.59 988.02 543.59 983.2 543.59 983.2 559.24"/><line class="cls-2" x1="988.87" y1="553.57" x2="987.89" y2="565.89"/></g></g></g></g></g><g id="Highlights"><path class="cls-12" d="M1329.73,373.76c18.12,1.14,35.83,7.02,51.13,16.76,3.77,2.4,7.39,5.03,10.82,7.89s6.66,6.34,10.49,8.84,8.19,3.42,12.7,2.75,8.41-2.67,12.28-4.69,7.71-4.24,11.92-5.53,8.21-1.66,12.41-1.51c8.71,.33,17.16,2.98,25.43,5.49s17.38,5.31,26.44,6.03c9.98,.8,20.1-2.49,29.98-.34,8.68,1.89,16.27,6.82,24.38,10.22,2.04,.86,4.12,1.63,6.25,2.23,1.94,.55,4.04,1.12,6.08,1.04,3.27-.13,7.43-1.56,8.94-4.73,.76-1.59,.59-3.32-.32-4.82-1.33-2.2-4.79-.19-3.45,2.02,.52,.85,.26,1.28-.64,1.98-1.16,.91-2.77,1.41-4.22,1.53-1.86,.15-3.75-.42-5.52-.93-2.03-.58-4.01-1.31-5.95-2.14-8.01-3.4-15.53-8.21-24.09-10.17-9.87-2.27-19.7,.69-29.63,.22-8.69-.41-17.13-2.96-25.4-5.46s-16.56-5.12-25.2-5.96c-4.14-.4-8.3-.3-12.4,.43-4.33,.78-8.36,2.45-12.26,4.44-6.88,3.51-15.25,9.35-23.24,5.82-4-1.76-7.04-5.15-10.27-7.98s-6.89-5.67-10.57-8.19c-14.7-10.05-31.81-16.45-49.48-18.64-2.2-.27-4.4-.47-6.62-.61-2.57-.16-2.56,3.84,0,4h0Z"/><path class="cls-12" d="M453.34,339.93c3.08-10.08,7.69-19.63,13.63-28.34,5.77-8.46,12.94-15.55,20.36-22.54s14.63-13.91,19.4-22.78c2.65-4.92,4.3-10.27,5.92-15.59s3.21-10.02,5.53-14.78c5.02-10.28,12.2-19.36,21-26.66,1.98-1.64-.86-4.46-2.83-2.83-7.94,6.58-14.64,14.66-19.64,23.67-2.53,4.55-4.62,9.35-6.27,14.29-1.83,5.47-3.18,11.14-5.49,16.44-4.04,9.28-11.16,16.59-18.4,23.46s-14.96,14.14-21.09,22.54c-7.08,9.69-12.47,20.58-15.98,32.05-.75,2.47,3.1,3.52,3.86,1.06h0Z"/><path class="cls-12" d="M115.61,669.5c14.81,4.09,27.33-9.78,31.17-22.73,2.54-8.56,2.01-17.85,1.69-26.66s-.53-17.82,1.87-26.47c2.41-8.67,6.96-16.67,13.17-23.18,1.78-1.86-1.05-4.7-2.83-2.83-5.46,5.72-9.7,12.48-12.52,19.87-3.03,7.93-3.96,16.3-3.89,24.75,.07,9.01,1.02,18.08-.06,27.07-.86,7.14-3.64,13.96-8.5,19.33s-11.74,9.02-19.03,7c-2.48-.69-3.55,3.17-1.06,3.86h0Z"/><path class="cls-12" d="M1.41,317.72c11.29,3.29,23.12,6.58,34.98,4.95,5.94-.82,11.22-3.21,16.55-5.84s10.42-4.55,16.18-5.49c6.64-1.09,13.43-1.04,20.15-1.02,2.57,0,2.58-3.99,0-4-11.79-.03-23.58,.26-34.5,5.22-5.25,2.38-10.22,5.33-15.88,6.64s-11.39,1.16-17,.35c-6.59-.96-13.03-2.79-19.41-4.65-2.48-.72-3.53,3.14-1.06,3.86h0Z"/><path class="cls-12" d="M1469.02,10.86c-.19,6.04-.23,12.32,1.59,18.14,.88,2.81,2.21,5.44,4.07,7.72,2.2,2.69,5.18,4.47,8.15,6.18,2.55,1.47,4.95,3.02,7.08,5.06,1.87,1.79,3.51,3.8,4.96,5.95,3.12,4.64,5.41,9.78,7.59,14.9,4.56,10.7,8.92,21.5,17.75,29.46,9.73,8.77,22.04,13.57,33.3,19.94,11.46,6.49,23.29,15.92,25.35,29.75,.16,1.07,1.51,1.66,2.46,1.4,1.15-.31,1.56-1.39,1.4-2.46-1.85-12.43-11.29-21.84-21.32-28.53-10.62-7.1-22.81-11.48-33.26-18.86-4.99-3.53-9.39-7.81-12.72-12.96-3.02-4.68-5.3-9.8-7.47-14.92-4.25-10-8.33-20.92-16.97-28.05-2.82-2.33-6.03-3.93-9.1-5.88-2.87-1.83-5.03-4.19-6.49-7.27-2.83-5.97-2.6-13.13-2.4-19.57,.08-2.57-3.92-2.57-4,0h0Z"/></g></svg>