<?xml version="1.0" encoding="UTF-8"?><svg id="Layer_2" xmlns="http://www.w3.org/2000/svg" xmlns:xlink="http://www.w3.org/1999/xlink" viewBox="0 0 2858.61 1656.18"><defs><style>.cls-1{fill:#222e2e;}.cls-2{fill:#695239;}.cls-3{fill:#2d3231;}.cls-4{fill:#4d4d4d;}.cls-5{fill:#6b6c6e;}.cls-6{stroke-width:3px;}.cls-6,.cls-7,.cls-8,.cls-9{stroke:#231f20;stroke-miterlimit:10;}.cls-6,.cls-7,.cls-10,.cls-9{fill:none;}.cls-7,.cls-8{stroke-width:10px;}.cls-11{fill:#40260d;}.cls-12{fill:#754c29;}.cls-8{fill:#fff;}.cls-13{fill:#233324;}.cls-14{fill:#544f39;}.cls-15{fill:url(#radial-gradient);}.cls-16{fill:#212a29;}.cls-17{fill:#ee5b1d;}.cls-18{fill:#162020;}.cls-19{fill:#472c00;}.cls-20{fill:#353436;}.cls-21{fill:#f8d93d;}.cls-22{font-family:ComicSansMS, 'Comic Sans MS';font-size:66px;}.cls-23{fill:#808285;}.cls-9{stroke-width:7px;}.cls-24{fill:#25160d;}.cls-25{fill:#4f3522;}.cls-26{fill:#452d18;}.cls-27{fill:#292929;}.cls-28{fill:#1f2827;}.cls-29{fill:#ed1c24;}.cls-30{fill:#d1d3d4;}.cls-31{fill:#2b292a;}.cls-32{fill:#231f20;}.cls-33{fill:#474037;}.cls-34{fill:#414042;}</style><radialGradient id="radial-gradient" cx="1717.52" cy="-411.93" fx="1717.52" fy="-411.93" r="142.44" gradientTransform="translate(32.45 520.67) rotate(19.67) scale(1 .67)" gradientUnits="userSpaceOnUse"><stop offset="0" stop-color="#78501c"/><stop offset=".15" stop-color="#734e1c" stop-opacity=".95"/><stop offset=".35" stop-color="#68491f" stop-opacity=".82"/><stop offset=".57" stop-color="#554223" stop-opacity=".61"/><stop offset=".8" stop-color="#3a3828" stop-opacity=".31"/><stop offset="1" stop-color="#202e2e" stop-opacity="0"/></radialGradient></defs><g id="Page_3"><g id="Panel_5"><g id="Background"><g><g><polygon class="cls-3" points="2845.87 1547.84 2845.87 1594.31 2758.89 1640.1 2670.62 1640.1 2845.87 1547.84"/><polygon class="cls-3" points="2845.87 1455.15 2845.87 1509.44 2844.77 1509.44 2588.07 1640.1 2473.36 1640.1 2845.87 1455.15"/><path class="cls-16" d="M2845.87,1335.67v119.48l-53.42-19.14,.55-60.25-52.88-18.7-.12-.06c.06,0,.12-.06,.12-.13v-56.61l-.11-.04,.21-.55,105.39,36h.26Z"/><polygon class="cls-3" points="2845.87 1248.35 2845.87 1335.67 2845.61 1335.67 2740.22 1299.67 2845.87 1248.35"/><path class="cls-34" d="M2845.87,1228.01v20.34l-105.65,51.32-.21,.55-138.47-51.77c-.98-.37-2.02,.34-2.04,1.38l.04-2.13,23.84-7.72,116.49,41.82,104.9-53.79h1.1Z"/><polygon class="cls-3" points="2845.87 1188.44 2845.87 1228.01 2844.77 1228.01 2739.87 1281.8 2623.38 1239.98 2623.38 1198.07 2740.16 1239.98 2741.28 1239.43 2844.77 1188.44 2845.87 1188.44"/><path class="cls-34" d="M1593.76,1542.69l.14,.27c-.16,.07-.28,.22-.28,.41v42.96l19.97,7.38v41.7l-14.48,4.69H721.09l251.9-125.4h0l187.51-93.36,42.97-21.39,67.01,38.24,180-99.39-25.88-439.83s-7.92-65.11,25.69-118.98l1.13,.7,652,265.47,7.68,3.46,47.51-24.56,216.28-111.81,38.09-19.57,1.63-53.23,431.26-226.35v574.34h-1.1v-51.55l-116.77-39.94-124.43,50.31,.11,.27c-.15,.07-.27,.22-.27,.41v42.96l19.97,7.17v41.91l-23.84,7.72-.04,2.13-.96,53.02,141.41,54.14s.03,0,.05,0l.12,.06,52.88,18.7-576.52,264.34h-376.89l-2.3-54.34-.35-.77,14.35-6.55,1.29-47.52c0-.11-.07-.2-.16-.23l.09-.22-132.64-54.34-126.11,66.56Z"/><polygon class="cls-3" points="2845.87 8.37 2845.87 614.1 2414.61 840.45 2422.48 582.8 2422.48 236.51 2845.87 8.37"/><polygon class="cls-3" points="2844.77 1136.89 2844.77 1188.44 2741.28 1239.43 2740.12 1237.07 2739.61 1192.63 2844.77 1136.89"/><path class="cls-3" d="M2844.77,1136.89l-105.16,55.74-135.63-45.11c-.1-.03-.21-.03-.3,.01l-.11-.27,124.43-50.31,116.77,39.94Z"/><polygon class="cls-3" points="2793 1375.76 2792.45 1436.01 2347.21 1640.1 2216.48 1640.1 2793 1375.76"/><path class="cls-28" d="M2740.12,1237.07l1.16,2.36-1.12,.55-116.78-41.91-19.97-7.17v-42.96c0-.19,.12-.34,.27-.41,.09-.04,.2-.04,.3-.01l135.63,45.11,.51,44.44Z"/><path class="cls-16" d="M2740.12,1300.26v56.61c0,.07-.06,.13-.12,.13-.02,0-.03,0-.05,0l-141.41-54.14,.96-53.02c.02-1.04,1.06-1.75,2.04-1.38l138.47,51.77,.11,.04Z"/><path class="cls-3" d="M2414.61,840.45l-1.63,53.23-38.09,19.57,12.43-338.37-111.97-63.12-110.35,154-6.39,359.3-47.51,24.56,8.14-321.33c1.27-50.09-12.25-99.61-39.72-141.52-35.64-54.4-98.48-103-202.95-56.1l545.91-294.16v346.29l-7.87,257.65Z"/><polygon class="cls-28" points="2387.32 574.88 2374.89 913.25 2158.61 1025.06 2165 665.76 2275.35 511.76 2387.32 574.88"/><path class="cls-18" d="M1518.38,723.68l358.19-193.01c104.47-46.9,167.31,1.7,202.95,56.1,27.47,41.91,40.99,91.43,39.72,141.52l-8.14,321.33-7.68-3.46-652-265.47-1.13-.7c9.13-14.63,21.31-28.42,37.55-39.86l30.52-16.44s.01-.01,.02-.01Z"/><path class="cls-3" d="M1852.58,1530.92l-1.29,47.52-14.35,6.55-109.42,49.93-1.11-2.43-.51-44.43,126.3-57.36c.07-.04,.15-.04,.22-.01,.09,.03,.16,.12,.16,.23Z"/><path class="cls-3" d="M1852.51,1530.47l-.09,.22c-.07-.03-.15-.03-.22,.01l-126.3,57.36-131.7-45.11c-.1-.03-.21-.03-.3,.01l-.14-.27,126.11-66.56,132.64,54.34Z"/><polygon class="cls-3" points="1837.29 1585.76 1839.59 1640.1 1599.11 1640.1 1613.59 1635.41 1613.59 1593.71 1726.45 1635.41 1727.52 1634.92 1836.94 1584.99 1837.29 1585.76"/><path class="cls-28" d="M1613.59,1593.71l-19.97-7.38v-42.96c0-.19,.12-.34,.28-.41,.09-.04,.2-.04,.3-.01l131.7,45.11,.51,44.43,1.11,2.43-1.07,.49-112.86-41.7Z"/><path class="cls-3" d="M1221.99,883.38l265.85-143.25c-16.24,11.44-28.42,25.23-37.55,39.86-33.61,53.87-25.69,118.98-25.69,118.98l25.88,439.83-180,99.39-48.49-554.81Z"/><polygon class="cls-28" points="1221.99 883.38 1270.48 1438.19 1203.47 1399.95 1160.78 916.37 1221.99 883.38"/><polygon class="cls-28" points="1160.78 916.37 1203.47 1399.95 1160.5 1421.34 1109.86 943.8 1160.78 916.37"/><polygon class="cls-3" points="1109.86 943.8 1160.5 1421.34 972.99 1514.69 910.66 1051.14 1109.86 943.8"/><polygon class="cls-3" points="910.66 1051.14 972.99 1514.69 972.99 1514.7 721.09 1640.1 681.17 1640.1 615.38 1210.25 910.66 1051.14"/><polygon class="cls-1" points="615.38 1210.25 681.17 1640.1 625.41 1640.1 557.34 1241.53 615.38 1210.25"/><polygon class="cls-3" points="557.34 1241.53 625.41 1640.1 5 1640.1 5 1539.15 557.34 1241.53"/></g><g><polyline class="cls-7" points="1518.38 723.68 1876.57 530.67 2422.48 236.51 2845.87 8.37 2845.87 614.1 2845.87 1188.44 2845.87 1228.01 2845.87 1248.35 2845.87 1335.67 2845.87 1455.15 2845.87 1509.44 2845.87 1547.84 2845.87 1594.31 2845.87 1640.1 2758.89 1640.1 2670.62 1640.1 2588.07 1640.1 2473.36 1640.1 2347.21 1640.1 2216.48 1640.1 1839.59 1640.1 1599.11 1640.1 721.09 1640.1 681.17 1640.1 625.41 1640.1 5 1640.1 5 1539.15 557.34 1241.53 615.38 1210.25 910.66 1051.14 1109.86 943.8 1160.78 916.37 1221.99 883.38 1487.84 740.13 1518.36 723.69"/><polyline class="cls-7" points="2845.87 614.1 2414.61 840.45 2412.98 841.3"/><polyline class="cls-7" points="2158.61 1025.06 2165 665.76 2275.35 511.76 2387.32 574.88 2374.89 913.25 2158.61 1025.06 2111.1 1049.62 2103.42 1046.16 1451.42 780.69"/><path class="cls-7" d="M2111.1,1049.62l8.14-321.33c1.27-50.09-12.25-99.61-39.72-141.52-35.64-54.4-98.48-103-202.95-56.1"/><path class="cls-7" d="M1221.99,883.38l48.49,554.81,180-99.39-25.88-439.83s-7.92-65.11,25.69-118.98c9.13-14.63,21.31-28.42,37.55-39.86,8.9-6.27,19.02-11.84,30.52-16.44t.02-.01c1.34-.54,2.71-1.07,4.1-1.58"/><line class="cls-7" x1="972.99" y1="1514.7" x2="721.09" y2="1640.1"/><polyline class="cls-7" points="1270.48 1438.19 1203.47 1399.95 1160.5 1421.34 972.99 1514.69"/><polyline class="cls-9" points="1203.47 1399.95 1160.78 916.37 1160.5 913.25"/><polyline class="cls-7" points="1160.5 1421.34 1109.86 943.8 1109.26 938.1"/><polyline class="cls-7" points="972.99 1514.7 972.99 1514.69 910.66 1051.14 910.46 1049.62"/><line class="cls-7" x1="681.17" y1="1640.1" x2="615.38" y2="1210.25"/><line class="cls-7" x1="625.41" y1="1640.1" x2="557.34" y2="1241.53"/><polyline class="cls-7" points="2374.89 913.25 2412.98 893.68 2414.61 840.45 2422.48 582.8 2422.48 236.51"/><path class="cls-7" d="M2599.5,1249.83l-.96,53.02,141.41,54.14s.03,0,.05,0c.06,0,.12-.06,.12-.13v-56.61l-.11-.04-138.47-51.77c-.98-.37-2.02,.34-2.04,1.38Z"/><path class="cls-7" d="M2623.38,1198.07l-19.97-7.17v-42.96c0-.19,.12-.34,.27-.41,.09-.04,.2-.04,.3-.01l135.63,45.11,105.16-55.74v51.55l-103.49,50.99-1.12,.55-116.78-41.91Z"/><line class="cls-7" x1="2740.12" y1="1237.07" x2="2739.61" y2="1192.63"/><polyline class="cls-7" points="2623.38 1198.07 2623.38 1239.98 2599.54 1247.7 2599.5 1249.83 2599.4 1254.9"/><polyline class="cls-7" points="2623.38 1239.98 2739.87 1281.8 2844.77 1228.01"/><polyline class="cls-7" points="2845.87 1248.35 2740.22 1299.67 2845.61 1335.67"/><polyline class="cls-7" points="2740.12 1357.06 2793 1375.76 2792.45 1436.01 2845.87 1455.15 2473.36 1640.1"/><polyline class="cls-7" points="2603.41 1147.33 2603.57 1147.26 2728 1096.95 2844.77 1136.89"/><path class="cls-7" d="M1613.59,1593.71l-19.97-7.38v-42.96c0-.19,.12-.34,.28-.41,.09-.04,.2-.04,.3-.01l131.7,45.11,126.3-57.36c.07-.04,.15-.04,.22-.01,.09,.03,.16,.12,.16,.23l-1.29,47.52-14.35,6.55-109.42,49.93-1.07,.49-112.86-41.7Z"/><line class="cls-7" x1="1726.41" y1="1632.49" x2="1725.9" y2="1588.06"/><polyline class="cls-7" points="1613.59 1593.5 1613.59 1593.71 1613.59 1635.41 1599.11 1640.1 1589.75 1643.13"/><polyline class="cls-7" points="1593.62 1542.76 1593.76 1542.69 1719.87 1476.13 1852.51 1530.47 1852.58 1530.5"/><polyline class="cls-7" points="1837.29 1585.76 1839.59 1640.1 1839.72 1643.13"/><polyline class="cls-7" points="2793 1375.76 2216.48 1640.1 2209.87 1643.13"/><polyline class="cls-7" points="2792.45 1436.01 2347.21 1640.1 2340.6 1643.13"/><polyline class="cls-7" points="2844.77 1509.44 2588.07 1640.1 2586.73 1640.78"/><polyline class="cls-7" points="2845.87 1547.84 2670.62 1640.1 2669.33 1640.78"/><polyline class="cls-7" points="2845.87 1594.31 2758.89 1640.1 2757.6 1640.78"/></g></g></g><g id="Glare"><circle class="cls-15" cx="1742.26" cy="840.02" r="142.57"/></g><g id="Flame"><g><path class="cls-17" d="M1742.36,884.48c-5.29-.44-10.45-2.24-14.86-5.19-2.12-1.42-4.11-3.15-5.32-5.4-1.19-2.21-1.54-4.76-1.75-7.25-.52-6.22-.26-12.59,1.71-18.5,.98-2.95,2.38-5.78,2.92-8.85,.89-5.1-.68-10.27-2.23-15.21l6.55,12.68c.45,.87,.97,1.81,1.88,2.18,1.47,.6,3.13-.7,3.62-2.21s.21-3.15,.16-4.74c-.14-4.44,1.59-8.73,3.65-12.67,2.25-4.32,5.03-8.53,9.02-11.34s9.37-4.02,13.84-2.07c-3.78,4.25-7.78,9.05-7.83,14.74-.03,4.01,1.94,7.72,3.64,11.35,2.02,4.31,3.72,8.77,5.1,13.33,2.08,6.92,3.38,14.46,1.03,21.29-1.04,3.04-2.76,5.8-4.68,8.37-3.95,5.31-9.55,10.25-16.17,10.2"/><path class="cls-32" d="M1742.36,882.48c-4.51-.41-8.9-1.87-12.76-4.22-1.78-1.08-3.55-2.35-4.83-4.02s-1.91-3.9-2.18-6.05c-.6-4.66-.62-9.58,.17-14.22,.41-2.39,1.06-4.71,1.91-6.97s1.77-4.41,2.24-6.73c1.15-5.69-.45-11.31-2.15-16.71l-3.66,1.54,3.73,7.21c1.14,2.21,2.13,4.73,3.59,6.75,1.35,1.86,3.65,2.63,5.74,1.48s2.96-3.4,3.01-5.7c.05-2.44-.24-4.7,.33-7.11s1.45-4.48,2.51-6.59c1.99-3.97,4.37-7.87,7.83-10.74,3.65-3.03,8.68-4.41,13.17-2.54l-.88-3.34c-3.86,4.35-7.82,9.12-8.36,15.15-.58,6.45,3.64,12.39,5.93,18.14s4.53,12.28,4.97,18.69c.21,3.11,0,6.22-.96,9.2s-2.57,5.53-4.36,7.97c-3.46,4.73-8.48,9.52-14.7,9.56-2.57,.02-2.58,4.02,0,4,5.98-.04,11.15-3.46,15.07-7.74,4.15-4.53,7.7-10.06,8.66-16.21,1.03-6.61-.36-13.28-2.34-19.58-1.03-3.27-2.24-6.48-3.59-9.63s-2.98-5.98-3.99-9.15-.93-6.33,.54-9.36,3.73-5.67,5.97-8.2c1.08-1.22,.52-2.76-.88-3.34-4.02-1.67-8.54-1.14-12.44,.6s-7.07,4.97-9.53,8.47-4.74,7.83-6.05,12.09c-.7,2.27-1.09,4.68-1,7.06,.04,.93,.71,4.86-1.05,4.89,.22,0,.02,0-.06-.05-.16-.09-.29-.34-.39-.49-.36-.53-.62-1.13-.91-1.69l-2.03-3.93-4.06-7.87c-1.04-2.01-4.34-.62-3.66,1.54,1.56,4.95,3.26,10.24,1.95,15.44-.59,2.37-1.61,4.61-2.42,6.92-.86,2.45-1.42,4.97-1.77,7.54-.69,5.03-.66,10.28,.15,15.3s3.81,8.68,8.04,11.43c4.65,3.02,10.01,4.73,15.51,5.23,1.08,.1,2-.99,2-2,0-1.16-.92-1.9-2-2h0Z"/></g><path class="cls-21" d="M1744.55,840.29c-.93,1.16-.89,2.83-1.55,4.16-.9,1.8-2.95,2.72-4.93,3.06s-4.02,.21-5.99,.62c-.39,.08-.81,.2-1.07,.5-.22,.25-.29,.59-.36,.92l-1.29,6.25c-.44,2.15-.89,4.32-.81,6.52,.19,4.86,3.2,9.51,7.56,11.67s9.88,1.73,13.86-1.07c1.76-1.23,3.25-2.96,3.81-5.03,.73-2.7-.19-5.55-1.38-8.08s-2.65-4.99-3.11-7.74c-.18-1.1-.2-2.23-.53-3.29-.49-1.56-1.63-2.82-2.53-4.19s-1.62-3.05-1.13-4.61"/></g><g id="Layer_216"><path class="cls-20" d="M1914.06,1220.8c-4.53,.43-8.14,4.15-6.51,8.96,2.02,5.98,8.43,4.75,13.22,3.79,12.28-2.44,24.34-5.79,36.16-9.9,7.29-2.54,4.41-13.17-3.19-11.57-14.22,2.98-28.56,5.09-43.04,6.29l5.18,9.03c.26-.6,4.9-.89,6.42-1.08l10.85-1.39,20.72-2.65,41.44-5.3c7.42-.95,7.91-12.41,0-12-25.08,1.31-50.06,4.05-74.84,8.13-6.6,1.09-5.14,12.49,1.6,11.79,22.61-2.38,45.21-4.75,67.81-7.21,20.97-2.28,43.47-2.85,63.32-10.58,5.79-2.25,5.71-12.31-1.6-11.79-37.33,2.69-74.47,7.57-111.23,14.61-7.66,1.47-4.3,12.73,3.19,11.57l72.61-11.25c11.77-1.82,23.55-3.65,35.32-5.47s22.92-3.54,33.92-7.34c6.24-2.16,5.43-11.72-1.6-11.79-25.21-.25-50.23,4.65-75.05,8.48l-77.06,11.9c-7.61,1.18-4.37,12.73,3.19,11.57,54.56-8.34,108.85-18.28,162.83-29.81,6.63-1.42,5.13-11.96-1.6-11.79-58.58,1.49-116.23,12.87-173.52,24.32-6.53,1.3-5.16,12.63,1.6,11.79l88.65-11.15,43.34-5.45c14.55-1.83,29.43-2.98,43.66-6.63,6.38-1.64,5.28-12.4-1.6-11.79-53.15,4.72-105.66,15.16-156.51,31.33-6.09,1.94-5.45,12.58,1.6,11.79,40.45-4.56,80.64-11.14,120.42-19.82,7.1-1.55,4.66-11.11-1.6-11.79-11.92-1.29-23.74,.93-35.39,3.34s-24.18,5.3-36.16,8.37c-23.67,6.07-47.03,13.28-70.04,21.51-7.19,2.57-4.4,13.46,3.19,11.57,38.65-9.64,77.82-17.17,117.31-22.39,7.45-.98,7.82-12.7,0-12-43.68,3.9-86.75,12.78-128.34,26.69-6,2.01-5.48,12.7,1.6,11.79,41.24-5.36,82.22-12.46,122.84-21.43,6.83-1.51,4.95-11.5-1.6-11.79-22.17-.97-43.77,5.25-64.95,11.01-21.78,5.92-43.43,12.27-64.97,19-7.48,2.34-4.33,12.87,3.19,11.57l117.51-20.32c7.7-1.33,4.29-12.59-3.19-11.57-35.38,4.84-70.19,13.07-103.99,24.57-7.44,2.53-4.34,12.75,3.19,11.57,19.85-3.1,39.64-6.53,59.36-10.35,18.23-3.53,37.73-5.99,54.62-14.05,4.69-2.24,3.37-9.81-1.43-10.97-14.9-3.6-31.46,1.55-46.12,4.48-16.1,3.21-32.12,6.83-48.08,10.69-7.53,1.82-4.33,13.18,3.19,11.57,78.35-16.8,154.78-39.86,231.43-63,5.5-1.66,5.92-10.11,0-11.57-10.77-2.65-21.77-.54-32.57,.84-11.36,1.45-22.71,3.01-34.02,4.81-22.49,3.58-44.82,8.15-66.71,14.5-6.26,1.82-5.37,12.35,1.6,11.79,34.1-2.78,67.89-8.54,100.96-17.33,6.31-1.68,5.27-12.69-1.6-11.79-25.38,3.35-50.09,9.68-74.66,16.75-24.98,7.18-49.92,14.55-74.86,21.86-7.5,2.2-4.32,12.97,3.19,11.57,34.48-6.42,68.69-14.18,102.56-23.27,7.46-2,4.31-13.44-3.19-11.57-31.19,7.75-61.77,17.75-91.51,29.92-7.01,2.87-4.55,13.21,3.19,11.57l74.45-15.81c7.66-1.63,4.29-12.78-3.19-11.57-12.58,2.03-24.98,4.87-37.19,8.49-6.27,1.86-5.38,12.2,1.6,11.79,23.32-1.4,46.19-6.38,68.45-13.32,11.08-3.46,22.02-7.35,32.88-11.45,10.06-3.79,21.9-6.89,30.62-13.37,3.77-2.8,4.11-9.78-1.43-10.97-6.32-1.35-12.7-2.13-19.16-2.29-7.72-.19-7.72,11.81,0,12,5.41,.13,10.68,.73,15.97,1.86l-1.43-10.97c-8.18,6.07-19.19,8.94-28.63,12.49-10.57,3.97-21.22,7.76-32,11.12-21.24,6.62-43.01,11.56-65.26,12.9l1.6,11.79c12.21-3.63,24.61-6.46,37.19-8.49l-3.19-11.57-74.45,15.81,3.19,11.57c29.75-12.17,60.32-22.17,91.51-29.92l-3.19-11.57c-33.87,9.09-68.08,16.85-102.56,23.27l3.19,11.57c24.33-7.13,48.65-14.3,73.01-21.33s48.42-13.56,73.32-16.85l-1.6-11.79c-32.04,8.51-64.72,14.21-97.77,16.9l1.6,11.79c20.65-5.99,41.7-10.41,62.91-13.88,10.56-1.73,21.16-3.25,31.77-4.63s21.92-4.18,32.25-1.64v-11.57c-76.65,23.14-153.08,46.2-231.43,63l3.19,11.57c14.68-3.56,29.41-6.9,44.22-9.91,7.08-1.44,14.17-2.81,21.28-4.09s14.9-2.96,22.32-1.16l-1.43-10.97c-7.92,3.78-16.54,5.64-25.08,7.45-9.51,2.01-19.04,3.93-28.58,5.76-19.09,3.67-38.24,6.99-57.45,9.98l3.19,11.57c33.81-11.5,68.61-19.73,103.99-24.57l-3.19-11.57-117.51,20.32,3.19,11.57c20.91-6.54,41.94-12.71,63.08-18.49,20.78-5.68,41.88-12.06,63.65-11.1l-1.6-11.79c-39.56,8.73-79.48,15.78-119.65,21l1.6,11.79c40.56-13.57,82.55-22.46,125.15-26.26v-12c-40.57,5.36-80.79,12.91-120.5,22.82l3.19,11.57c22.41-8.02,45.16-15.06,68.2-21.03,11.36-2.95,22.79-5.64,34.28-8.07s23.73-5.01,35.93-3.69l-1.6-11.79c-38.72,8.45-77.84,14.96-117.23,19.39l1.6,11.79c49.82-15.85,101.24-26.28,153.32-30.91l-1.6-11.79c-13.85,3.55-28.29,4.67-42.44,6.45l-43.34,5.45-86.68,10.9,1.6,11.79c56.26-11.24,112.8-22.43,170.33-23.89l-1.6-11.79c-53.97,11.53-108.27,21.47-162.83,29.81l3.19,11.57,75.09-11.59c24.43-3.77,49.02-8.6,73.84-8.36l-1.6-11.79c-10.68,3.69-21.8,5.46-32.94,7.19-12.1,1.88-24.2,3.75-36.3,5.62l-72.61,11.25,3.19,11.57c35.71-6.84,71.77-11.57,108.04-14.18l-1.6-11.79c-19.5,7.59-41.5,8.12-62.1,10.36-21.94,2.38-43.9,4.69-65.85,7l1.6,11.79c23.73-3.91,47.63-6.45,71.65-7.71v-12l-49.33,6.31-23.68,3.03c-5.88,.75-13.97,.64-16.78,7.03-1.64,3.74,.16,9.44,5.18,9.03,15.54-1.29,30.97-3.52,46.23-6.72l-3.19-11.57c-6.5,2.26-13.06,4.31-19.71,6.08-3.02,.81-6.06,1.56-9.11,2.25-2.18,.5-7.93,2.81-9.99,1.97l4.19,4.19-.19-.68-.6,4.62,.32-.63-5.18,2.97,.59-.06c7.62-.73,7.7-12.74,0-12h0Z"/><path class="cls-20" d="M2014.9,1230.53c38.22-8.49,76.24-17.82,114.04-27.99,7.45-2,4.29-13.58-3.19-11.57-37.8,10.16-75.83,19.5-114.04,27.99-7.54,1.67-4.35,13.25,3.19,11.57h0Z"/><path class="cls-20" d="M1866.65,1172.76l44.41,10.08,1.6-11.79-47.73-.11v12c19.97-.58,39.78,1.67,59.4,5.24,9.47,1.72,18.89,3.71,28.29,5.76,8.84,1.93,18.58,3.07,26.28,8.14l1.43-10.97c-10.66,2.44-22.33-2.32-32.71-4.51-11.45-2.42-22.99-4.32-34.59-5.82-11.38-1.47-22.83-2.48-34.29-3.03s-22.98,.45-33.8-3.15l2.65,10.03c3.36-3.25,10.59-1.51,14.7-1.22l20.75,1.47,40.52,2.86c27.34,1.93,54.69,3.86,82.03,5.79v-12c-13.53,.39-26.76-2.48-40.08-4.45s-27.58-3.66-41.44-4.81c-27.64-2.29-55.4-2.7-83.1-1.33-6.35,.31-8.63,10.78-1.6,11.79l82.83,11.87c12.95,1.85,25.9,3.68,38.79,5.87,6.57,1.12,13.13,2.33,19.65,3.7,3.11,.65,6.2,1.34,9.29,2.06,1.23,.29,8.5,1.73,8.54,1.94l5.79-7.6c-12.72,.54-25.19-1.96-37.71-3.82s-26.24-3.65-39.41-5.11c-26.24-2.9-52.59-4.75-78.97-5.63-7.84-.26-7.55,11.26,0,12,51.03,5,102.18,8.56,153.41,10.68,6.64,.27,8.33-10.56,1.6-11.79-27.16-4.94-54.31-9.87-81.46-14.84-13.25-2.42-26.5-4.86-39.75-7.3s-26.42-3.57-38.07-9.26l-4.62,10.97c27.67,5.44,55.83,7.83,84.02,6.97,7.87-.24,7.54-11.19,0-12l-61.48-6.6v12c6.66,.25,12.93,1.63,19.15,3.99s10.77-8.06,4.62-10.97l-14.78-6.99c-4.26-2.01-9.03-5.14-13.93-5.06-4.22,.07-8.41,2.86-12.06,4.71-4.16,2.11-7.62,4.94-8.18,9.86-.95,8.29,6.09,15.72,12.35,20.12,6.94,4.87,15.79,7.07,24.19,6.05,4.11-.5,8-4.84,5.18-9.03-5.6-8.31-16.12-12.58-25.84-9.2-2.09,.73-4.94,1.85-6.67,3.23-1.87,1.5-.49,.76-1.07-.23-.78-1.35-.98-3.5-1.39-4.97-.46-1.66-1.93-4.47-1.02-5.93,.82-1.31,4.87-1.61,6.17-1.75v-12c-8.25,.93-15.68,6.09-17.6,14.55-1.87,8.26,2.39,16.65,9.58,20.78,4.14,2.37,10.87-1.68,8.81-6.78-2.49-6.18-6.55-14.7-2.73-21.18s13.37-2.72,18.85-.34c7.01,3.05,13.13-7.29,6.06-10.36-10.4-4.52-23.94-8.66-32.78,1.22s-5.35,22.99-.97,33.85l8.81-6.78c-5.54-3.18-5.36-12.14,1.96-12.97s7.7-12.83,0-12c-6.29,.67-13.57,2.22-16.98,8.2-3.53,6.19-.02,15.84,2.42,21.94,3.2,8.02,10.91,8.49,17.92,5.11,5.55-2.68,11.86-4.61,16.09,1.66l5.18-9.03c-4.75,.58-9.4,.16-13.79-1.85-3.12-1.43-10.43-5.86-10.59-9.88-.07-1.71,3.52-2.66,5.04-3.41,3.25-1.62,4.04-1.42,7.42,.18l18.25,8.63,4.62-10.97c-7.2-2.73-14.66-4.13-22.34-4.42s-7.51,11.19,0,12l61.48,6.6v-12c-27.13,.83-54.2-1.3-80.83-6.54-6.25-1.23-11.12,7.79-4.62,10.97,11.63,5.69,24.45,7.43,37.05,9.76,13.89,2.57,27.79,5.12,41.69,7.66,27.8,5.09,55.6,10.14,83.4,15.19l1.6-11.79c-51.23-2.11-102.39-5.67-153.41-10.68v12c26.38,.88,52.73,2.73,78.97,5.63,13.07,1.44,26.11,3.14,39.12,5.11s25.2,4.35,38,3.81c4.01-.17,6.68-3.69,5.79-7.6-1.37-6.01-6.95-7.86-12.3-9.2-7.08-1.77-14.22-3.3-21.38-4.68-14.35-2.76-28.8-4.89-43.26-6.97-30.18-4.34-60.36-8.65-90.54-12.97l-1.6,11.79c27.7-1.36,55.46-.96,83.1,1.33,13.77,1.14,27.5,2.73,41.16,4.82s26.75,4.83,40.36,4.44c7.78-.22,7.66-11.46,0-12-29.32-2.07-58.64-4.14-87.96-6.21l-43.49-3.07c-10.99-.78-26.16-4.69-35.04,3.89-3.39,3.28-1.51,8.64,2.65,10.03,10.98,3.65,22.71,2.99,34.13,3.45,12.42,.5,24.83,1.54,37.16,3.15s24.16,3.75,36.08,6.41,22.69,6.18,34.41,3.49c5.31-1.22,5.52-8.28,1.43-10.97-7.87-5.18-17.28-6.74-26.32-8.73-10.34-2.27-20.69-4.48-31.11-6.38-20.65-3.76-41.57-6.28-62.59-5.67-7.7,.22-7.75,11.98,0,12l47.73,.11c6.64,.02,8.32-10.26,1.6-11.79l-44.41-10.08c-7.52-1.71-10.73,9.86-3.19,11.57h0Z"/><path class="cls-20" d="M1907.88,1186.82c18.19,7.27,37.5,10.49,56.82,13.12,9.58,1.3,19.17,2.49,28.71,4.04,4.76,.77,9.5,1.63,14.22,2.63,3.81,.81,9.22,1.18,12.02,4.14,5.32,5.62,13.8-2.88,8.49-8.49-6.14-6.48-16.98-7.28-25.29-8.79-10.33-1.87-20.75-3.21-31.16-4.6-20.59-2.75-41.22-5.88-60.61-13.63-7.17-2.87-10.29,8.74-3.19,11.57h0Z"/></g><g id="Puglas_Color"><g><path class="cls-32" d="M1818.4,941.42c-.84,0-1.52,.68-1.52,1.52s.68,1.52,1.52,1.52,1.52-.68,1.52-1.52-.68-1.52-1.52-1.52Z"/><path class="cls-24" d="M1809.53,902.1c-1.53-4.2-8.73-17.18-38.47-12.87,4.83,2.91,15.23,10.15,20.12,20.86l18.36-7.99Z"/><path class="cls-24" d="M1835.13,890.96c.31-.13,.62-.23,.94-.34-.94-3.47-6.36-15.65-35.8-14.58,6.68,2.74,18.18,9.14,20.42,21.21l14.44-6.29Z"/><path class="cls-26" d="M1829.12,940.6s-.01-.07-.01-.1c0-1.39,1.13-2.52,2.52-2.52s2.52,1.13,2.52,2.52-1.13,2.52-2.52,2.52c-.04,0-.07,0-.11-.01,.44,.45,.85,.87,1.23,1.27,.05-.01,.09-.03,.15-.04,.35-.1,1.18-.33,1.61-.54-.13-1.41,1.7-2.59,3.49-3.75,.72-.47,1.81-1.17,2-1.47,.15-.25,.09-.6,0-1.18-.14-.8-.34-1.91,.33-3.08-.24-.18-.84-.41-1.16-.52-.69-.25-1.23-.45-1.52-.94-.18-.32-.25-.67-.31-.97-.1-.52-.17-.78-.52-.98-.79-.46-1.01-.96-1.01-1.39-.14-.1-.3-.21-.48-.34-.65-.47-2.61-1.89-3.21-1.91-.24,0-.55,.39-1.02,1.03-.36,.48-.81,1.09-1.42,1.7l-.33,.33c-.15,.15-.26,.26-.33,.33-.07,.24-.2,.58-.58,1.22-.58,1-.59,5-.41,7.74,.38,.37,.74,.73,1.1,1.08Z"/><path class="cls-23" d="M1858.1,879.52c1.83,0,3.33-1.49,3.33-3.33s-1.49-3.33-3.33-3.33-3.33,1.49-3.33,3.33,1.49,3.33,3.33,3.33Z"/><path class="cls-32" d="M1833.16,940.5c0-.84-.68-1.52-1.52-1.52s-1.52,.68-1.52,1.52,.68,1.52,1.52,1.52,1.52-.68,1.52-1.52Z"/><path class="cls-11" d="M1818.71,945.43c-.1,.01-.2,.03-.3,.03-1.39,0-2.52-1.13-2.52-2.52s1.13-2.52,2.52-2.52c1.05,0,1.95,.64,2.33,1.56,.1-.2,.19-.4,.29-.6l.17-.35c-.83-1.41-2.83-5.3-1.28-7.98,.24-.41,.2-.67,.14-.83-.18-.55-.97-1.18-2.11-1.67-.22-.09-.47-.12-.72-.09l-5.68,.85c-.21,.03-.4,.11-.57,.23-.58,.41-1.02,.85-1.24,1.23-.52,.9-2.29,4.2-2.76,5.09v3.64c0,.38,.16,.74,.44,1l2.68,2.44c.18,.16,.4,.28,.64,.32l.25,.05,2.66,2.25c.44,.01,1.4,0,2.28-.02l2.22-1.49c.1-.11,.32-.33,.57-.62Z"/><path class="cls-23" d="M1850.69,913.87c2.9,.6,4.75,2.75,5.62,4.05l1.55-1.12c-1.96-2.74-5.12-4-6.97-4.53-.06,.53-.12,1.06-.19,1.6Z"/><path class="cls-25" d="M1818.71,955.1c1.49,3.83,6.98,6.3,9.61,7.48,.68,.3,1.61,.28,2.04-.5,2.35-4.2,4.74-11.58,4.12-12.73-.25-.44-.89-1.22-1.84-2.27-.84-.61-1.12-1-1.19-1.28-1.34-1.41-3.05-3.13-5.1-5.13-.36-.35-.8-.53-1.27-.53-.11,0-.22,0-.33,.03-.65,.12-1.23,.57-1.53,1.21h0l-.4,.84c-1.88,3.93-5.03,10.5-4.11,12.87Zm7.29-5.64c-.14,.01-.27,.02-.4,.02-.86,0-1.5-.33-1.63-.9-.18-.76,.64-1.53,1.95-1.84,.54-.13,1.08-.15,1.52-.05,.77,.16,.98,.59,1.04,.84,.04,.18,.05,.45-.14,.76-.24,.39-.74,.72-1.36,.93l1.04,6.46c.77-.24,2.12-.48,3.37,.25l-.5,.87c-1.26-.73-2.77-.11-3,0l-3.66,1.64-.41-.91,3.25-1.46-1.07-6.62Z"/><path class="cls-29" d="M1826.64,948.3c.22-.08,.4-.16,.54-.25l-.54,.25Z"/><path class="cls-12" d="M1857.32,881.44c-.95-.14-1.82-.54-2.54-1.12l-5.63,14.04c.83,1.02,1.47,2.16,1.92,3.38l6.25-16.3Z"/><path class="cls-14" d="M1813.38,1074.57c10.32-.58,45.3-4.16,74.01-25.98-.39-1.48-.76-2.84-1.12-4.07-27.97,20.21-61.61,24.92-72.36,25.94-.15,1.37-.33,2.74-.52,4.1Z"/><path class="cls-14" d="M1814.11,1068.44c11.03-1.08,44.15-5.9,71.52-25.93-.42-1.31-.84-2.55-1.25-3.74-12.22,12.47-49.28,24.24-69.96,25.46-.08,1.41-.19,2.81-.32,4.21Z"/><path class="cls-4" d="M1811.96,1033.89c2.12,8.71,2.92,17.99,2.61,27.32,20.58-1.33,58.8-13.56,68.69-25.64-1.2-3.31-2.34-6.17-3.39-8.81-2.88-7.24-5.26-13.24-7.03-23.29-23.97,24.81-50.94,29.53-60.87,30.41Z"/><path class="cls-2" d="M1883.92,975.64s.04,.04,.1,.02c.06-.01,.08-.05,.09-.07l4.86-8.54c.65-1.14,.69-2.52,.1-3.69-.51-1.02-1.09-2.27-1.76-3.7-4.15-8.91-11.04-23.69-21.93-29.27,3.96,10.98,7.57,31.59,8.24,35.54,1.68,1.7,7.83,7.88,10.3,9.7Z"/><path class="cls-5" d="M1845.56,942.65l7.92,5.77,4.09-6.26-4.99-15.93c-.5,.32-1.09,.73-1.52,1.03-1.1,.77-1.92,1.33-2.62,1.66-.82,4.58-1.78,9.24-2.88,13.73Z"/><path class="cls-27" d="M1854.27,952.7l-9.51-6.92c-.21,.79-.42,1.58-.64,2.36,2.79,3.48,3.7,10.16,2.2,16.69-1.47,6.42-4.84,11.14-9.32,13.13l5.25,15.2c1.65-.47,5.28-1.35,9.77-1.58,.3-1.78,.49-3.69,.56-5.13l2,.09c-.02,.45-.14,2.62-.52,4.98,2.42,0,5.01,.2,7.65,.77,.62-2.51,.91-4.68,.91-4.72l1.98,.25c-.02,.16-.31,2.36-.95,4.95,2.77,.79,5.54,2,8.14,3.82-2.27-17.89-2.09-27.96-2.05-29.56-.42-2.47-5.08-29.67-9.43-38.44-1.28-.27-2.61-.41-3.99-.4l4.52,14.43-6.59,10.09Z"/><path class="cls-2" d="M1828.69,969.53c.48,0,.92-.09,1.31-.29,6.52-3.28,12.14-21.93,15.57-41.15l1.07-6.56h0c1.02-6.7,1.75-13.27,2.14-19.07,.21-3.13-1.2-6.07-3.76-7.88-2.57-1.81-5.83-2.14-8.71-.88l-44.87,19.53c-2.19,.95-3.85,2.81-4.54,5.1-.69,2.28-.35,4.73,.93,6.73,12.21,19.05,32.87,44.46,40.85,44.46Zm1.18-55.24c1.24-.57,2.56-1,3.93-1.24,1.37-.24,2.78-.25,4.17-.06,1.38,.21,2.74,.71,3.85,1.53-1.4-.03-2.66-.06-3.93,.03-1.27,.11-2.51,.27-3.76,.47-1.25,.23-2.5,.47-3.77,.74-1.27,.28-2.55,.56-3.91,.8,.99-.98,2.18-1.7,3.41-2.28Zm-31.06,10.32c1.16-1.11,2.48-1.99,3.84-2.76,1.37-.77,2.8-1.43,4.28-1.97,1.47-.55,3.01-.94,4.56-1.21,1.55-.27,3.15-.36,4.74-.19-1.47,.66-2.91,1.16-4.34,1.7l-4.28,1.58c-1.43,.52-2.87,1.02-4.32,1.51-1.46,.49-2.92,.96-4.48,1.34Zm14.22,24.9l-.25-.05-2.72-2.3c-.49-.14-.94-.39-1.32-.74l-2.68-2.44c-.7-.63-1.09-1.54-1.09-2.48v-4.14l.12-.22c.09-.18,2.3-4.31,2.91-5.37,.46-.8,1.25-1.46,1.82-1.86,.43-.3,.91-.5,1.43-.57l5.68-.85c.62-.09,1.25-.01,1.81,.23,1.2,.52,2.74,1.45,3.21,2.88,.26,.8,.16,1.65-.31,2.45-.75,1.3,.06,3.58,.82,5.12,.55-.48,1.22-.82,1.95-.95,.53-.09,1.05-.06,1.55,.06-.09-2.32-.09-6.05,.75-7.5,.33-.58,.38-.74,.38-.75,.08-.45,.23-.6,.85-1.21l.33-.33c.51-.51,.89-1.02,1.23-1.48,.67-.9,1.37-1.84,2.63-1.84,1.13,0,2.65,1.03,4.38,2.29,.32,.23,.58,.42,.72,.5,.49,.28,.73,.71,.7,1.18,1.06,.67,1.26,1.66,1.38,2.26,.01,.07,.03,.16,.05,.23,.14,.06,.35,.14,.5,.19,.91,.33,2.04,.74,2.41,1.75,.13,.36,.21,.94-.2,1.64-.3,.52-.24,1-.1,1.74,.13,.73,.29,1.63-.23,2.53-.39,.67-1.26,1.25-2.64,2.15-.8,.52-2.26,1.46-2.54,1.94,.09,.32,.06,.66-.08,.97-.31,.64-1.05,1.01-2.04,1.33,.08,.05,.17,.11,.25,.16l-.11,.19c.83,.95,1.4,1.66,1.67,2.14,1.54,2.67-2.85,12.44-4.11,14.7-.61,1.1-1.74,1.71-2.97,1.71-.54,0-1.1-.12-1.64-.36-2.88-1.29-8.88-3.98-10.66-8.58-.65-1.68-.15-4.17,.95-7.14l-1.24,.83h-.29c-.64,.03-1.37,.04-1.98,.04-.57,0-1.04-.01-1.24-.05Z"/><path class="cls-2" d="M1892.71,978.95c1.12,.15,2.17-.18,3.21-.99,1.2-.94,1.3-1.7,1.27-2.19-.13-1.99-2.83-4.5-5.07-6.16l-3.83,6.73c1.03,1.05,2.69,2.38,4.42,2.61Z"/><path class="cls-2" d="M1705.93,980.23c-.1-.04-.2-.1-.3-.14-.04,0-.1,0-.13,0-.65,.18-.94,.35-1.06,.44,.22,.65,1.84,2.06,3.52,3.04,.4,.15,.82,.33,1.24,.52l.02-.03s.09,.06,.13,.09c.48,.22,.98,.47,1.49,.74,.51,.27,1.09,.3,1.54,.11l.18-.55c-2.65-2.6-5.35-4.13-6.6-4.35l-.05,.13Z"/><path class="cls-27" d="M1872.42,1001c-.08-.53-.17-1.05-.25-1.6-2.82-2.34-5.93-3.82-9.05-4.72-.44,1.44-.99,2.87-1.67,4.04l-1.73-1c.58-1,1.06-2.25,1.45-3.52-2.59-.55-5.14-.73-7.5-.7-.41,1.79-1,3.44-1.85,4.28l-1.41-1.41c.48-.48,.87-1.51,1.19-2.79-5.52,.36-9.56,1.72-9.65,1.75l-.95,.33-5.9-17.06c-1.69,.48-3.37,.72-5.03,.72-9.43,0-18.22-7.04-23.75-12.68,4.17,7.14,10.46,15.96,18.01,20.32l1.52,.88-4.59,5.68,1.55,1.41c.83,.75,1.31,1.78,1.36,2.9s-.34,2.19-1.11,3.01c-.81,.88-1.93,1.33-3.05,1.33-.93,0-1.87-.31-2.64-.95l-1.4-1.16-3.18,3.94-.91-.2c-11.12-2.47-22.51-19.67-27.58-28.24-4.05,3.03-16.41,12.52-28.18,24.19-2.4,2.38-5.31,3.4-8.38,2.94-8.05-1.19-15.54-12-18.73-17.23-3.66,4.35-7.82,7.07-10.23,8.41,7.71,12.8,21.49,31.25,29.09,31.25,8.63,0,21.56-6.21,29.93-11.98,1.24-.85,2.41-1.84,3.49-2.94,8.35-8.52,10.81-8.53,11.74-8.54,1.06,.04,1.73,.45,2.11,.84,8,8,13.27,18.2,16.3,29.44,9.55-.8,36.93-5.37,60.97-30.93Z"/><path class="cls-2" d="M1713.81,979.18c-.68-.67-1.3-1.24-1.89-1.75-1.6-1.05-2.54-1.73-3.06-2.24-1.6-.93-2.6-1.04-3.05-.85-.32,.14-.36,.59-.36,.84,.01,.69,.39,1.52,1.08,2,2.3,.43,4.92,2.33,6.6,3.75,.2,.04,.39,.08,.55,.1l.44-1.36c-.1-.17-.21-.34-.32-.49Z"/><path class="cls-2" d="M1710.68,972.76l.33,.24c.82,.52,1.72,1.19,2.69,2.01,.33,.22,.69,.45,1.11,.71,.46,.29,.74,.4,.9,.44,.02-.05,.04-.11,.06-.19,.21-.92-.12-2.01-.76-2.54-4.37-3.57-6.38-4.13-7.04-4.2,.13,.72,.97,2.29,2.73,3.53Z"/><path class="cls-26" d="M1704.83,991.48l-9.41,32.03c-.33,1.1,.28,2.26,1.37,2.62,.54,.18,1.12,.14,1.63-.12,.51-.26,.89-.7,1.07-1.24l10.27-31.63c-1.55-.24-3.16-.71-4.72-1.53-.07-.04-.14-.08-.21-.12Z"/><path class="cls-26" d="M1717.25,964.21c.4-.01,.87,.02,1.37,.09l19.33-72.66-6.21-2.32-19.81,78.28c.11,.06,.23,.13,.35,.2,.72-2.03,3.3-3.54,4.98-3.59Z"/><path class="cls-33" d="M1731.3,885.96l9.32,3.48c.74,.28,1.55,.24,2.26-.1,.72-.34,1.25-.94,1.51-1.69l1.15-3.41c-7.11-1.22-11.95-3.21-15.15-5.08l-.89,3.33c-.39,1.45,.38,2.95,1.79,3.48Z"/><path class="cls-13" d="M1908.55,1157.08c-1.46-14.16-2.35-22.7-5.65-28.43l-.18-.32-.06-.36c-.09-.57-8.25-50.8-14.48-76.23-29.73,22.06-65.56,25.36-75.28,25.85-1.49,8.86-3.9,17.5-7.05,25.44l2.46,1.28-1.85,3.54-9.67-5.06-.02,.04c-.57,2.23-3.97,16.47,.79,23.68,8.39,5.01,15.79,8,19.62,8,4.94,0,6.58-1.54,8.47-3.32,.23-.21,.45-.42,.68-.63,12.58-11.41,18.56-30.1,21.78-40.14,.75-2.35,1.35-4.2,1.86-5.45l1.97-4.78,1.76,4.86c4.9,13.52,9.96,22.74,14.02,30.14,5.88,10.73,10.14,18.48,10.14,31.28,0,6.47,1.54,14.84,3.75,23.49,3.63-2.42,11.8-6.23,27.62-6.68-.23-2.19-.45-4.27-.65-6.23Z"/><path class="cls-33" d="M1835.09,975.48c3.95-1.37,6.97-5.5,8.31-11.33,1.02-4.46,.8-9.03-.45-12.09-3.09,9.78-6.96,17.55-11.6,19.88-.73,.37-1.53,.54-2.39,.54-5.44,0-13.25-6.93-20.76-15.39l-4.29,2.3c3.91,4.85,17.95,20.7,31.18,16.1Z"/><path class="cls-19" d="M1916.04,1210.05c-.2-1.06-.39-2.09-.58-3.13-3.2-.17-6.49,.22-7.06,1.21l-2.6-1.5c1.47-2.54,5.93-2.87,9.11-2.75-.41-2.31-.8-4.56-1.16-6.75-2.09,.34-4.64,1-5.82,2.18l-2.12-2.12c1.8-1.8,5.06-2.64,7.46-3.02-.26-1.64-.51-3.23-.74-4.79-2.43,.04-5.73,.45-7.26,1.98l-2.12-2.12c2.25-2.25,6.19-2.79,8.94-2.86-1.09-7.55-1.89-14.21-2.54-20.09-16.99,.44-24.63,4.9-27.12,6.8,5.57,20.61,14.27,41.77,14.4,42.08l.15,.37v19.5c.24,2.37,11.32,12.26,22.88,16.39,3.14,1.12,8.79,2.62,11.4,.02,3.99-3.99-.84-12.27-5.95-21.04-3.92-6.72-7.97-13.67-9.24-20.36Z"/><path class="cls-19" d="M1779.72,1093.92c-.14-.08-.29-.18-.44-.27l-.19-.1h0c-1.19-.75-2.58-1.73-4.18-2.87-3.38-2.4-7.58-5.39-10.63-6.41-.62-.21-1.92-.26-2.93,.47-1.3,.94-1.58,2.8-1.58,4.2v1.57c-.02,12.76-.05,34.11,10.08,37.91,1.25,.47,1.83,.21,2.2-.07,2.38-1.8,2.88-9.66,2.48-14.68l-.4-5,3.73,3.35c.74,.66,1.49,1.32,2.24,1.96-.06-1.8,.03-3.86,.51-5.66l2.89,.79c-.67,2.48-.42,5.73-.18,7.54,.65,.52,1.29,1.02,1.94,1.52-.11-1.94-.06-4.28,.49-6.31l2.89,.79c-.72,2.67-.37,6.24-.13,7.93,1.09,.79,2.19,1.55,3.27,2.28-2.15-9.29,1.01-20.8,1.17-21.4l.09-.31,.15-.22-13.48-7.05-.02,.03Z"/><path class="cls-33" d="M1748.9,874.32c-7.56-1.28-12.56-3.42-15.77-5.38l-1.92,7.18c2.9,1.83,7.7,3.98,15.31,5.24l2.38-7.04Z"/><path class="cls-30" d="M1789.67,1064.07l1.84,9.57,6.38-9.36,9.05-33.72c-1.36-4.46-3.12-8.72-5.3-12.7l-11.97,46.21Z"/><path class="cls-5" d="M1811.66,1000.63l3.64-4.5c-14.81-10.51-22.12-25.65-24.29-30.81l-6.16,5.11c2.8,5.08,15.3,26.71,26.81,30.21Z"/><path class="cls-33" d="M1751.08,867.87c.51-1.5-.3-3.16-1.8-3.68l-10.66-3.72c-.32-.11-.64-.17-.96-.17-.47,0-.93,.11-1.36,.34-.72,.38-1.24,1.03-1.45,1.82l-.91,3.42c2.86,1.91,7.81,4.24,15.93,5.56l1.21-3.57Z"/><path class="cls-29" d="M1821.6,999.46c.4-.43,.6-.98,.57-1.56-.03-.58-.28-1.11-.71-1.5l-1.47-1.33-2.76,3.42,1.42,1.17c.88,.72,2.17,.64,2.95-.2Z"/><path class="cls-5" d="M1816.56,994.56l4.79-5.93c-11.69-7.69-19.96-24.25-22.5-29.83l-6.23,5.17c1.73,4.29,8.84,19.92,23.94,30.59Z"/><path class="cls-2" d="M1725.91,982.92c-1.04-1.76-2.35-5.04-2.66-10.68-.27-5.01-5.83-5.03-5.9-5.04-.38,.01-1.31,.44-1.91,1.09-.31,.33-.37,.56-.37,.6,0,0,.35,.69,2.97,1.18,3.81,.71,3.51,7.74,3.2,10.73l-2.98-.31c.11-1.05,.14-2.07,.13-3.01-.21,.45-.46,.78-.73,1.02l-.3,.93c.43,1.08,.63,2.34-.04,3.36-.35,.54-.85,.87-1.39,1.06l-.1,.3c.2,.89-.05,1.81-.77,2.58-.03,.03-.06,.05-.09,.09l-1.13,3.47c2.52-.18,4.36-.84,4.4-.85l.03,.08c2.14-1.35,5.04-3.52,7.65-6.6Z"/><path class="cls-2" d="M1706.44,988.95c.25,.13,.51,.25,.77,.36,1.59-.19,2.14-.52,2.28-.64-.1-.41-.85-1.26-1.67-1.91-2.9-1.28-4.2-1-4.38-.83-.05,.24,.5,1.71,3,3.02Z"/><path class="cls-32" d="M1919.97,1209.31c-4.38-23.1-6.15-40.17-7.44-52.64-1.49-14.44-2.4-23.25-5.98-29.69-.94-5.75-10.81-66.02-17-85.33-2.19-6.84-4.2-11.89-5.98-16.35-3.38-8.48-6.04-15.19-7.81-29.14-1.45-11.39-1.88-19.65-2-24.41,2.58,2.54,5.96,5.78,7.77,7.12,.95,.7,2.16,.96,3.31,.72,.27-.06,.52-.15,.77-.25,1.39,1.37,3.72,3.2,6.54,3.59,.37,.05,.73,.07,1.09,.07,1.81,0,3.54-.63,5.13-1.88,2.49-1.95,2.89-4.12,2.79-5.61-.29-4.37-5.34-8.25-7.73-9.85,.09-1.39-.16-2.79-.8-4.07-.5-.99-1.06-2.21-1.71-3.59-5.3-11.39-16.23-34.83-35.84-33.76l-.05-.16c-.17-.56-.58-1-1.13-1.18-1.22-.42-2.56,.51-4.58,1.92-.07,.05-.13,.09-.21,.15l.48-2.92h-.03c.32-2.11,.61-4.17,.87-6.15,3.08,.75,4.65,3.91,4.67,3.94l.52,1.08,4.9-3.56-.45-.78c-2.36-4.08-6.71-5.71-8.97-6.3,.3-2.79,.53-5.36,.68-7.58,.03-.41,.02-.82,0-1.22l7.72-20.14c2.25-.62,3.92-2.67,3.92-5.11,0-2.94-2.39-5.33-5.33-5.33s-5.33,2.39-5.33,5.33c0,.84,.21,1.63,.56,2.34l-5.73,14.29c-.28-.23-.55-.47-.85-.68-2.6-1.83-5.72-2.52-8.75-2.03-.46-1.78-1.78-5.17-5.58-8.4-5.07-4.32-15.65-9.12-37.31-7.37l-5.83,.47,5.65,1.5c.22,.06,21.21,5.81,23.84,21.77l-7.47,3.25c-2-4.98-10.7-19.28-43.43-13.61l-2.97,.52,2.69,1.36c.16,.08,15.7,8.06,21.76,21.35-2.56,1.39-4.48,3.73-5.33,6.54-.95,3.12-.49,6.48,1.27,9.22,.18,.28,9.94,15.31,20.86,28.06l-4.71,2.53c-.41-.9-.64-1.44-.65-1.48l-.78-1.88-18.98,15.74,.56,1.07c.07,.13,.32,.6,.7,1.31-3.69,2.74-16.67,12.62-29,24.85-1.51,1.5-3.14,2.1-4.97,1.83-6.15-.91-13.73-11.15-17.33-17.81l-1.55-2.87-1.53,2.22c-.7-1.59-1.46-4.18-1.68-8.18-.2-3.72-2.41-5.84-4.75-6.93l19.31-72.61c.27,.04,.55,.07,.83,.07,.86,0,1.72-.19,2.53-.58,1.46-.69,2.54-1.91,3.06-3.44l1.33-3.92c.92,.12,1.86,.23,2.85,.32l.28-2.99c-.74-.07-1.45-.15-2.15-.23l2.38-7.02c.87,.11,1.75,.21,2.68,.3l.28-2.99c-.68-.06-1.33-.14-1.98-.21l1.03-3.03c1.04-3.06-.6-6.41-3.65-7.47l-10.66-3.72c-1.55-.54-3.26-.41-4.71,.36-1.45,.77-2.52,2.11-2.94,3.69l-.57,2.15c-.62-.61-.88-1-.89-1.01l-1.27,.8-1.28,.78c.08,.12,.78,1.22,2.57,2.69l-1.89,7.08c-.92-.83-1.3-1.39-1.31-1.41l-1.27,.8-1.28,.78c.08,.13,.89,1.4,3,3.03l-1.15,4.32c-.66,2.47,.34,4.98,2.36,6.37l-19.83,78.33c-1.01-.26-1.86-.26-2.56,.03-.91,.37-1.5,1.16-1.62,2.18-.1,.81,.14,1.75,.6,2.7-.34,.05-.66,.14-.93,.26-1.4,.6-2.21,1.97-2.17,3.66,.02,.9,.29,1.78,.72,2.56-1.03,.56-1.62,1.33-1.74,2.3-.13,1.04,.35,2.04,1.09,2.94-.23,.09-.45,.19-.66,.32-.94,.58-1.46,1.57-1.41,2.69,.04,1.18,.7,2.41,1.79,3.52l-9.72,33.09c-.78,2.66,.67,5.43,3.3,6.31,.53,.18,1.08,.27,1.63,.27,.79,0,1.58-.19,2.31-.55,1.23-.62,2.14-1.69,2.57-3l10.5-32.35c.33,0,.66-.02,.97-.04l.44,.75c2.09,3.59,20.76,35.06,33.62,35.06,10.89,0,25.37-7.97,32.2-12.69,1.45-1,2.82-2.15,4.08-3.44,4.83-4.93,7.55-6.8,8.6-7.24,2.86,2.92,5.33,6.16,7.46,9.63l-12.59,48.62,2.83,14.73,9.28-13.62,8.26-30.77c5.34,21.27,2.35,46.35-5.71,66.82l-21.02-10.99c-1.1-.68-2.51-1.68-4.02-2.75-3.78-2.69-8.06-5.73-11.67-6.94-1.61-.54-4.29-.6-6.54,1.02-1.48,1.06-3.25,3.22-3.25,7.45v1.56c-.02,13.8-.05,36.89,12.68,41.66,2.86,1.07,4.85,.25,6.01-.63,3.38-2.55,4.13-8.96,4.2-13.54,13.71,11.39,30.62,20.52,38.49,20.52,6.52,0,9.12-2.44,11.21-4.4,.21-.2,.42-.39,.63-.59,13.38-12.13,19.57-31.48,22.9-41.88h0c4.36,11.01,8.71,18.94,12.29,25.47,5.81,10.59,9.64,17.58,9.64,29.36,0,22.52,17.18,65.11,19.12,69.85v18.71c0,5.1,13.14,15.08,23.5,19.37,3.99,1.65,7.49,2.48,10.42,2.48s5.44-.87,7.18-2.61c6.17-6.17,.59-15.74-5.33-25.88-3.75-6.43-7.62-13.08-8.77-19.09Zm-62.11-292.51l-1.55,1.12c-.87-1.3-2.71-3.45-5.62-4.05,.07-.54,.13-1.07,.19-1.6,1.85,.53,5.01,1.79,6.97,4.53Zm.25-43.93c1.83,0,3.33,1.49,3.33,3.33s-1.49,3.33-3.33,3.33-3.33-1.49-3.33-3.33,1.49-3.33,3.33-3.33Zm-3.33,7.45c.72,.58,1.58,.98,2.54,1.12l-6.25,16.3c-.45-1.22-1.09-2.36-1.92-3.38l5.63-14.04Zm32.6,168.27c-28.7,21.82-63.68,25.39-74.01,25.98,.2-1.36,.37-2.73,.52-4.1,10.75-1.02,44.39-5.73,72.36-25.94,.36,1.23,.74,2.59,1.12,4.07Zm-3-9.82c.41,1.19,.83,2.43,1.25,3.74-27.37,20.03-60.49,24.85-71.52,25.93,.13-1.4,.23-2.81,.32-4.21,20.67-1.22,57.74-12.99,69.96-25.46Zm-4.52-12c1.05,2.64,2.19,5.5,3.39,8.81-9.88,12.08-48.11,24.31-68.69,25.64,.31-9.34-.49-18.62-2.61-27.32,9.93-.89,36.9-5.61,60.87-30.41,1.77,10.05,4.15,16.05,7.03,23.29Zm12.25-57.16c2.24,1.65,4.94,4.17,5.07,6.16,.03,.49-.06,1.25-1.27,2.19-1.04,.82-2.09,1.14-3.21,.99-1.73-.23-3.4-1.57-4.42-2.61l3.83-6.73Zm-4.81-9.94c.66,1.42,1.25,2.68,1.76,3.7,.58,1.17,.54,2.55-.1,3.69l-4.86,8.54s-.03,.06-.09,.07c-.06,.01-.09-.01-.1-.02-2.47-1.82-8.62-8-10.3-9.7-.67-3.95-4.28-24.56-8.24-35.54,10.89,5.58,17.79,20.37,21.93,29.27Zm-26.99-31.09c4.35,8.78,9.01,35.98,9.43,38.44-.05,1.6-.22,11.67,2.05,29.56-2.6-1.82-5.37-3.03-8.14-3.82,.65-2.59,.93-4.79,.95-4.95l-1.98-.25s-.29,2.21-.91,4.72c-2.64-.57-5.23-.78-7.65-.77,.38-2.36,.5-4.53,.52-4.98l-2-.09c-.07,1.43-.25,3.34-.56,5.13-4.49,.23-8.12,1.11-9.77,1.58l-5.25-15.2c4.48-1.99,7.85-6.71,9.32-13.13,1.5-6.53,.58-13.2-2.2-16.69,.22-.78,.43-1.56,.64-2.36l9.51,6.92,6.59-10.09-4.52-14.43c1.38,0,2.71,.13,3.99,.4Zm-9.26-1.32c.43-.3,1.02-.71,1.52-1.03l4.99,15.93-4.09,6.26-7.92-5.77c1.1-4.49,2.06-9.14,2.88-13.73,.7-.33,1.53-.9,2.62-1.66Zm-50.79-51.22c29.44-1.07,34.86,11.11,35.8,14.58-.31,.11-.63,.2-.94,.34l-14.44,6.29c-2.24-12.07-13.74-18.47-20.42-21.21Zm-29.21,13.2c29.74-4.31,36.94,8.67,38.47,12.87l-18.36,7.99c-4.88-10.71-15.28-17.95-20.12-20.86Zm16.79,35.84c-1.28-2-1.62-4.45-.93-6.73,.7-2.29,2.35-4.15,4.54-5.1l44.87-19.53c2.88-1.25,6.14-.93,8.71,.88,2.56,1.8,3.97,4.75,3.76,7.88-.39,5.8-1.12,12.37-2.14,19.07h0l-1.07,6.56c-3.43,19.22-9.05,37.87-15.57,41.15-.39,.19-.82,.29-1.31,.29-7.98,0-28.65-25.41-40.85-44.46Zm20.36,32c7.52,8.46,15.33,15.39,20.76,15.39,.86,0,1.66-.17,2.39-.54,4.64-2.33,8.51-10.09,11.6-19.88,1.25,3.06,1.47,7.63,.45,12.09-1.34,5.83-4.37,9.96-8.31,11.33-13.23,4.6-27.27-11.26-31.18-16.1l4.29-2.3Zm-9.35,1.73c2.55,5.58,10.81,22.14,22.5,29.83l-4.79,5.93c-15.1-10.67-22.21-26.31-23.94-30.59l6.23-5.17Zm21.16,36.27l1.47,1.33c.43,.39,.68,.92,.71,1.5,.02,.58-.18,1.13-.57,1.56-.77,.83-2.07,.92-2.95,.2l-1.42-1.17,2.76-3.42Zm-29-29.76c2.17,5.17,9.48,20.3,24.29,30.81l-3.64,4.5c-11.51-3.5-24.01-25.13-26.81-30.21l6.16-5.11Zm-56.15-102.84c.21-.79,.73-1.44,1.45-1.82,.43-.23,.89-.34,1.36-.34,.32,0,.65,.05,.96,.17l10.66,3.72c1.5,.52,2.31,2.17,1.8,3.68l-1.21,3.57c-8.12-1.32-13.07-3.65-15.93-5.56l.91-3.42Zm-1.73,6.47c3.21,1.97,8.21,4.1,15.77,5.38l-2.38,7.04c-7.61-1.26-12.41-3.4-15.31-5.24l1.92-7.18Zm-3.62,13.54l.89-3.33c3.2,1.87,8.03,3.86,15.15,5.08l-1.15,3.41c-.25,.75-.79,1.35-1.51,1.69-.72,.34-1.52,.38-2.26,.1l-9.32-3.48c-1.41-.53-2.18-2.02-1.79-3.48Zm2.24,6.84l6.21,2.32-19.33,72.66c-.5-.07-.97-.1-1.37-.09-1.67,.06-4.25,1.57-4.98,3.59-.12-.07-.23-.14-.35-.2l19.81-78.28Zm-16.75,84.1c.65,.53,.98,1.62,.76,2.54-.02,.08-.04,.15-.06,.19-.15-.04-.44-.15-.9-.44-.41-.26-.78-.5-1.11-.71-.98-.83-1.87-1.49-2.69-2.01l-.33-.24c-1.76-1.25-2.6-2.82-2.73-3.53,.66,.08,2.67,.64,7.04,4.2Zm-7.17,13.33c.81,.64,1.57,1.5,1.67,1.91-.14,.12-.69,.45-2.28,.64-.26-.11-.52-.22-.77-.36-2.5-1.32-3.05-2.78-3-3.02,.18-.17,1.48-.45,4.38,.83Zm-8.34,38.01c-.18,.54-.55,.99-1.07,1.24-.51,.26-1.09,.3-1.63,.12-1.09-.36-1.69-1.52-1.37-2.62l9.41-32.03c.07,.04,.14,.09,.21,.12,1.56,.82,3.17,1.29,4.72,1.53l-10.27,31.63Zm12.91-39.76c-.46,.19-1.04,.17-1.54-.11-.51-.27-1.01-.52-1.49-.74-.05-.03-.09-.07-.13-.09l-.02,.03c-.43-.19-.84-.37-1.24-.52-1.68-.98-3.31-2.39-3.52-3.04,.11-.09,.4-.27,1.06-.44,.03,0,.09,0,.13,0,.1,.05,.2,.1,.3,.14l.05-.13c1.25,.22,3.95,1.75,6.6,4.35l-.18,.55Zm1.29-3.98c-.16-.02-.35-.06-.55-.1-1.68-1.41-4.3-3.32-6.6-3.75-.69-.48-1.07-1.31-1.08-2,0-.26,.03-.71,.36-.84,.45-.19,1.45-.07,3.05,.85,.52,.52,1.45,1.2,3.06,2.24,.59,.51,1.22,1.08,1.89,1.75,.11,.16,.22,.32,.32,.49l-.44,1.36Zm4.54,8.41s-1.88,.66-4.4,.85l1.13-3.47s.07-.05,.09-.09c.72-.77,.97-1.69,.77-2.58l.1-.3c.54-.19,1.04-.52,1.39-1.06,.67-1.03,.47-2.29,.04-3.36l.3-.93c.27-.24,.53-.57,.73-1.02,.02,.94-.02,1.97-.13,3.01l2.98,.31c.31-2.99,.61-10.03-3.2-10.73-2.62-.49-2.97-1.18-2.97-1.18,0-.04,.06-.26,.37-.6,.6-.64,1.53-1.07,1.91-1.09,.07,0,5.62,.03,5.9,5.04,.31,5.64,1.62,8.92,2.66,10.68-2.61,3.08-5.52,5.25-7.65,6.6l-.03-.08Zm79.66,74.83l-6.38,9.36-1.84-9.57,11.97-46.21c2.18,3.98,3.93,8.24,5.3,12.7l-9.05,33.72Zm-2.74-61.78c-.38-.38-1.05-.8-2.11-.84-.93,0-3.4,.02-11.74,8.54-1.08,1.1-2.25,2.09-3.49,2.94-8.37,5.77-21.31,11.98-29.93,11.98-7.59,0-21.38-18.45-29.09-31.25,2.41-1.35,6.58-4.06,10.23-8.41,3.19,5.23,10.68,16.03,18.73,17.23,3.07,.45,5.98-.56,8.38-2.94,11.77-11.67,24.13-21.17,28.18-24.19,5.07,8.58,16.46,25.77,27.58,28.24l.91,.2,3.18-3.94,1.4,1.16c.77,.63,1.71,.95,2.64,.95,1.12,0,2.23-.45,3.05-1.33,.76-.82,1.16-1.89,1.11-3.01s-.53-2.15-1.36-2.9l-1.55-1.41,4.59-5.68-1.52-.88c-7.55-4.36-13.83-13.17-18.01-20.32,5.53,5.64,14.32,12.68,23.75,12.68,1.66,0,3.34-.24,5.03-.72l5.9,17.06,.95-.33c.09-.03,4.13-1.4,9.65-1.75-.32,1.28-.72,2.31-1.19,2.79l1.41,1.41c.85-.85,1.44-2.5,1.85-4.28,2.36-.03,4.91,.15,7.5,.7-.39,1.27-.87,2.51-1.45,3.52l1.73,1c.68-1.17,1.23-2.6,1.67-4.04,3.12,.89,6.23,2.38,9.05,4.72,.08,.55,.16,1.08,.25,1.6-24.04,25.57-51.42,30.13-60.97,30.93-3.03-11.24-8.3-21.44-16.3-29.44Zm-2.08,98.67l-.09,.31c-.17,.6-3.32,12.11-1.17,21.4-1.09-.73-2.18-1.5-3.27-2.28-.24-1.7-.59-5.27,.13-7.93l-2.89-.79c-.55,2.02-.59,4.37-.49,6.31-.65-.5-1.3-1-1.94-1.52-.23-1.81-.49-5.05,.18-7.54l-2.89-.79c-.49,1.8-.58,3.86-.51,5.66-.75-.64-1.5-1.29-2.24-1.96l-3.73-3.35,.4,5c.4,5.01-.1,12.88-2.48,14.68-.37,.28-.95,.54-2.2,.07-10.13-3.8-10.1-25.15-10.08-37.91v-1.57c0-1.4,.28-3.26,1.58-4.2,1.02-.73,2.31-.68,2.93-.47,3.05,1.03,7.25,4.01,10.63,6.41,1.6,1.13,2.99,2.12,4.18,2.86h0l.19,.11c.14,.09,.3,.19,.44,.27l.02-.03,13.48,7.05-.15,.22Zm84.77,45.32c0-12.8-4.25-20.55-10.14-31.28-4.06-7.41-9.12-16.63-14.02-30.14l-1.76-4.86-1.97,4.78c-.51,1.25-1.11,3.11-1.86,5.45-3.21,10.04-9.2,28.73-21.78,40.14-.23,.21-.46,.42-.68,.63-1.9,1.78-3.54,3.32-8.47,3.32-3.83,0-11.23-2.99-19.62-8-4.75-7.21-1.36-21.45-.79-23.68l.02-.04,9.67,5.06,1.85-3.54-2.46-1.28c3.16-7.94,5.56-16.58,7.05-25.44,9.71-.49,45.54-3.8,75.28-25.85,6.23,25.42,14.39,75.65,14.48,76.23l.06,.36,.18,.32c3.3,5.72,4.19,14.27,5.65,28.43,.2,1.96,.42,4.04,.65,6.23-15.81,.45-23.98,4.25-27.62,6.68-2.21-8.66-3.75-17.02-3.75-23.49Zm53.39,104.96c-2.61,2.6-8.26,1.11-11.4-.02-11.56-4.13-22.64-14.02-22.88-16.39v-19.5l-.15-.37c-.13-.31-8.83-21.47-14.4-42.08,2.5-1.9,10.14-6.35,27.12-6.8,.65,5.88,1.45,12.53,2.54,20.09-2.75,.07-6.69,.61-8.94,2.86l2.12,2.12c1.54-1.54,4.83-1.95,7.26-1.98,.24,1.56,.48,3.16,.74,4.79-2.4,.38-5.66,1.22-7.46,3.02l2.12,2.12c1.18-1.18,3.73-1.84,5.82-2.18,.36,2.18,.75,4.44,1.16,6.75-3.18-.12-7.64,.21-9.11,2.75l2.6,1.5c.57-.99,3.86-1.37,7.06-1.21,.19,1.03,.38,2.07,.58,3.13,1.27,6.69,5.32,13.64,9.24,20.36,5.11,8.77,9.94,17.05,5.95,21.04Z"/><path class="cls-32" d="M1816.55,949.52l1.24-.83c-1.1,2.97-1.6,5.46-.95,7.14,1.78,4.6,7.78,7.29,10.66,8.58,.54,.24,1.1,.36,1.64,.36,1.23,0,2.35-.61,2.97-1.71,1.26-2.26,5.65-12.03,4.11-14.7-.28-.48-.84-1.2-1.67-2.14l.11-.19c-.08-.05-.17-.1-.25-.16,.99-.32,1.74-.7,2.04-1.33,.15-.31,.18-.65,.08-.97,.28-.48,1.74-1.43,2.54-1.94,1.39-.9,2.26-1.48,2.64-2.15,.52-.9,.36-1.8,.23-2.53-.13-.74-.2-1.22,.1-1.74,.4-.7,.33-1.27,.2-1.64-.37-1-1.5-1.42-2.41-1.75-.15-.06-.36-.13-.5-.19-.02-.07-.03-.16-.05-.23-.12-.6-.32-1.6-1.38-2.26,.03-.47-.21-.9-.7-1.18-.14-.08-.4-.27-.72-.5-1.73-1.25-3.25-2.29-4.38-2.29-1.26,0-1.96,.93-2.63,1.84-.34,.46-.72,.97-1.23,1.48l-.33,.33c-.62,.62-.77,.76-.85,1.21,0,0-.04,.17-.38,.75-.84,1.45-.84,5.18-.75,7.5-.5-.12-1.03-.16-1.55-.06-.73,.13-1.39,.47-1.95,.95-.76-1.54-1.57-3.82-.82-5.12,.47-.81,.57-1.66,.31-2.45-.47-1.43-2-2.36-3.21-2.88-.56-.24-1.19-.32-1.81-.23l-5.68,.85c-.52,.08-1,.27-1.43,.57-.58,.41-1.36,1.06-1.82,1.86-.61,1.06-2.82,5.19-2.91,5.37l-.12,.22v4.14c0,.94,.4,1.84,1.09,2.48l2.68,2.44c.38,.34,.83,.6,1.32,.74l2.72,2.3,.25,.05c.2,.04,.67,.05,1.24,.05,.61,0,1.34-.02,1.98-.04h.29Zm11.89-17.75c.37-.64,.51-.98,.58-1.22,.07-.07,.18-.17,.33-.33l.33-.33c.61-.61,1.06-1.21,1.42-1.7,.48-.64,.78-1.03,1.02-1.03,.6,.02,2.56,1.44,3.21,1.91,.18,.13,.34,.24,.48,.34,0,.43,.22,.93,1.01,1.39,.35,.2,.42,.46,.52,.98,.06,.31,.13,.65,.31,.97,.29,.49,.83,.69,1.52,.94,.31,.11,.92,.34,1.16,.52-.67,1.18-.48,2.28-.33,3.08,.1,.58,.16,.93,0,1.18-.18,.3-1.27,1-2,1.47-1.78,1.15-3.62,2.34-3.49,3.75-.43,.21-1.26,.44-1.61,.54-.06,.02-.1,.03-.15,.04-.38-.4-.79-.82-1.23-1.27,.04,0,.07,.01,.11,.01,1.39,0,2.52-1.13,2.52-2.52s-1.13-2.52-2.52-2.52-2.52,1.13-2.52,2.52c0,.04,0,.07,.01,.1-.35-.35-.72-.71-1.1-1.08-.18-2.74-.17-6.74,.41-7.74Zm1.68,8.72c0-.84,.68-1.52,1.52-1.52s1.52,.68,1.52,1.52-.68,1.52-1.52,1.52-1.52-.68-1.52-1.52Zm-7.29,1.74l.4-.84h0c.3-.64,.88-1.09,1.53-1.21,.11-.02,.22-.03,.33-.03,.47,0,.91,.18,1.27,.53,2.05,2,3.76,3.72,5.1,5.13,.08,.28,.35,.67,1.19,1.28,.95,1.05,1.59,1.83,1.84,2.27,.61,1.15-1.77,8.52-4.12,12.73-.43,.78-1.36,.8-2.04,.5-2.64-1.18-8.13-3.65-9.61-7.48-.92-2.37,2.23-8.94,4.11-12.87Zm-4.42,2.23c-.84,0-1.52-.68-1.52-1.52s.68-1.52,1.52-1.52,1.52,.68,1.52,1.52-.68,1.52-1.52,1.52Zm-4.77,3.1l-2.66-2.25-.25-.05c-.24-.05-.46-.16-.64-.32l-2.68-2.44c-.28-.26-.44-.62-.44-1v-3.64c.47-.89,2.25-4.19,2.76-5.09,.22-.38,.66-.82,1.24-1.23,.17-.12,.36-.2,.57-.23l5.68-.85c.25-.04,.5,0,.72,.09,1.14,.5,1.93,1.12,2.11,1.67,.05,.16,.09,.42-.14,.83-1.55,2.68,.45,6.57,1.28,7.98l-.17,.35c-.1,.2-.19,.4-.29,.6-.38-.91-1.28-1.56-2.33-1.56-1.39,0-2.52,1.13-2.52,2.52s1.13,2.52,2.52,2.52c.1,0,.2-.02,.3-.03-.26,.29-.47,.52-.57,.62l-2.22,1.49c-.88,.02-1.84,.03-2.28,.02Z"/><path class="cls-32" d="M1811.89,920.18c1.43-.54,2.87-1.04,4.34-1.7-1.59-.17-3.19-.08-4.74,.19-1.55,.27-3.09,.66-4.56,1.21-1.48,.53-2.91,1.19-4.28,1.97-1.37,.77-2.68,1.65-3.84,2.76,1.55-.38,3.02-.85,4.48-1.34,1.46-.49,2.9-.99,4.32-1.51l4.28-1.58Z"/><path class="cls-32" d="M1834.14,915.02c1.25-.2,2.49-.37,3.76-.47,1.27-.08,2.53-.06,3.93-.03-1.12-.82-2.47-1.32-3.85-1.53-1.38-.19-2.8-.17-4.17,.06-1.36,.24-2.69,.67-3.93,1.24-1.24,.58-2.42,1.29-3.41,2.28,1.36-.24,2.64-.52,3.91-.8,1.27-.27,2.52-.52,3.77-.74Z"/><path class="cls-32" d="M1824.23,958.45l3.66-1.64c.23-.1,1.74-.72,3,0l.5-.87c-1.25-.72-2.61-.48-3.37-.25l-1.04-6.46c.62-.22,1.11-.55,1.36-.93,.19-.31,.19-.59,.14-.76-.06-.24-.27-.67-1.04-.84-.44-.09-.98-.07-1.52,.05-1.31,.3-2.13,1.08-1.95,1.84,.13,.57,.77,.9,1.63,.9,.13,0,.26-.01,.4-.02l1.07,6.62-3.25,1.46,.41,.91Zm2.95-10.4c-.13,.09-.31,.17-.54,.25l.54-.25Z"/></g><path class="cls-32" d="M1821.26,993.51l1.55,1.41c.83,.75,1.31,1.78,1.36,2.9s-.34,2.19-1.11,3.01c-.81,.88-1.93,1.33-3.05,1.33-.93,0-1.87-.31-2.64-.95l-1.4-1.16"/><path class="cls-31" d="M1756.13,999.74c-2.4,2.38-5.31,3.4-8.38,2.94-8.05-1.19-15.54-12-18.73-17.23-3.66,4.35-7.82,7.07-10.23,8.41,7.71,12.8,21.49,31.25,29.09,31.25,8.63,0,21.56-6.21,29.93-11.98,1.24-.85,2.41-1.84,3.49-2.94,8.35-8.52,10.81-8.53,11.74-8.54"/><path class="cls-2" d="M1778.56,979.25c-4.05,3.03-10.65,8.82-22.42,20.49-2.4,2.38-5.27,2.94-8.38,2.94-1.03,0-3.58-2.53-3.58-2.53,0,0-7.12,16.36-9.54,17.71,7.71,12.8,5.65,7.26,13.24,7.26,8.63,0,21.56-6.21,29.93-11.98,1.24-.85,2.41-1.84,3.49-2.94,8.35-8.52,10.81-8.53,11.74-8.54"/></g><g id="Puglas_Linework"><g><path class="cls-10" d="M1818.4,941.42c-.84,0-1.52,.68-1.52,1.52s.68,1.52,1.52,1.52,1.52-.68,1.52-1.52-.68-1.52-1.52-1.52Z"/><path class="cls-10" d="M1809.53,902.1c-1.53-4.2-8.73-17.18-38.47-12.87,4.83,2.91,15.23,10.15,20.12,20.86l18.36-7.99Z"/><path class="cls-10" d="M1836.06,890.62c-.94-3.47-6.36-15.65-35.8-14.58,6.68,2.74,18.18,9.14,20.42,21.21l14.44-6.29c.31-.13,.62-.23,.94-.34Z"/><path class="cls-10" d="M1829.12,940.6s-.01-.07-.01-.1c0-1.39,1.13-2.52,2.52-2.52s2.52,1.13,2.52,2.52-1.13,2.52-2.52,2.52c-.04,0-.07,0-.11-.01,.44,.45,.85,.87,1.23,1.27,.05-.01,.09-.03,.15-.04,.35-.1,1.18-.33,1.61-.54-.13-1.41,1.7-2.59,3.49-3.75,.72-.47,1.81-1.17,2-1.47,.15-.25,.09-.6,0-1.18-.14-.8-.34-1.91,.33-3.08-.24-.18-.84-.41-1.16-.52-.69-.25-1.23-.45-1.52-.94-.18-.32-.25-.67-.31-.97-.1-.52-.17-.78-.52-.98-.79-.46-1.01-.96-1.01-1.39-.14-.1-.3-.21-.48-.34-.65-.47-2.61-1.89-3.21-1.91-.24,0-.55,.39-1.02,1.03-.36,.48-.81,1.09-1.42,1.7l-.33,.33c-.15,.15-.26,.26-.33,.33-.07,.24-.2,.58-.58,1.22-.58,1-.59,5-.41,7.74,.38,.37,.74,.73,1.1,1.08Z"/><path class="cls-10" d="M1858.1,879.52c1.83,0,3.33-1.49,3.33-3.33s-1.49-3.33-3.33-3.33-3.33,1.49-3.33,3.33,1.49,3.33,3.33,3.33Z"/><path class="cls-10" d="M1833.16,940.5c0-.84-.68-1.52-1.52-1.52s-1.52,.68-1.52,1.52,.68,1.52,1.52,1.52,1.52-.68,1.52-1.52Z"/><path class="cls-10" d="M1818.71,945.43c-.1,.01-.2,.03-.3,.03-1.39,0-2.52-1.13-2.52-2.52s1.13-2.52,2.52-2.52c1.05,0,1.95,.64,2.33,1.56,.1-.2,.19-.4,.29-.6l.17-.35c-.83-1.41-2.83-5.3-1.28-7.98,.24-.41,.2-.67,.14-.83-.18-.55-.97-1.18-2.11-1.67-.22-.09-.47-.12-.72-.09l-5.68,.85c-.21,.03-.4,.11-.57,.23-.58,.41-1.02,.85-1.24,1.23-.52,.9-2.29,4.2-2.76,5.09v3.64c0,.38,.16,.74,.44,1l2.68,2.44c.18,.16,.4,.28,.64,.32l.25,.05,2.66,2.25c.44,.01,1.4,0,2.28-.02l2.22-1.49c.1-.11,.32-.33,.57-.62Z"/><path class="cls-10" d="M1856.31,917.92l1.55-1.12c-1.96-2.74-5.12-4-6.97-4.53-.06,.53-.12,1.06-.19,1.6,2.9,.6,4.75,2.75,5.62,4.05Z"/><path class="cls-10" d="M1818.71,955.1c1.49,3.83,6.98,6.3,9.61,7.48,.68,.3,1.61,.28,2.04-.5,2.35-4.2,4.74-11.58,4.12-12.73-.25-.44-.89-1.22-1.84-2.27-.84-.61-1.12-1-1.19-1.28-1.34-1.41-3.05-3.13-5.1-5.13-.36-.35-.8-.53-1.27-.53-.11,0-.22,0-.33,.03-.65,.12-1.23,.57-1.53,1.21h0l-.4,.84c-1.88,3.93-5.03,10.5-4.11,12.87Zm6.89-5.62c-.86,0-1.5-.33-1.63-.9-.18-.76,.64-1.53,1.95-1.84,.54-.13,1.08-.15,1.52-.05,.77,.16,.98,.59,1.04,.84,.04,.18,.05,.45-.14,.76-.24,.39-.74,.72-1.36,.93l1.04,6.46c.77-.24,2.12-.48,3.37,.25l-.5,.87c-1.26-.73-2.77-.11-3,0l-3.66,1.64-.41-.91,3.25-1.46-1.07-6.62c-.14,.01-.27,.02-.4,.02Z"/><path class="cls-10" d="M1826.64,948.3c.22-.08,.4-.16,.54-.25l-.54,.25Z"/><path class="cls-10" d="M1851.07,897.75l6.25-16.3c-.95-.14-1.82-.54-2.54-1.12l-5.63,14.04c.83,1.02,1.47,2.16,1.92,3.38Z"/><path class="cls-10" d="M1886.26,1044.53c-27.97,20.21-61.61,24.92-72.36,25.94-.15,1.37-.33,2.74-.52,4.1,10.32-.58,45.3-4.16,74.01-25.98-.39-1.48-.76-2.84-1.12-4.07Z"/><path class="cls-10" d="M1884.38,1038.77c-12.22,12.47-49.28,24.24-69.96,25.46-.08,1.41-.19,2.81-.32,4.21,11.03-1.08,44.15-5.9,71.52-25.93-.42-1.31-.84-2.55-1.25-3.74Z"/><path class="cls-10" d="M1811.96,1033.89c2.12,8.71,2.92,17.99,2.61,27.32,20.58-1.33,58.8-13.56,68.69-25.64-1.2-3.31-2.34-6.17-3.39-8.81-2.88-7.24-5.26-13.24-7.03-23.29-23.97,24.81-50.94,29.53-60.87,30.41Z"/><path class="cls-10" d="M1873.62,965.94c1.68,1.7,7.83,7.88,10.3,9.7,.01,.01,.04,.04,.1,.02,.06-.01,.08-.05,.09-.07l4.86-8.54c.65-1.14,.69-2.52,.1-3.69-.51-1.02-1.09-2.27-1.76-3.7-4.15-8.91-11.04-23.69-21.93-29.27,3.96,10.98,7.57,31.59,8.24,35.54Z"/><path class="cls-10" d="M1853.48,948.42l4.09-6.26-4.99-15.93c-.5,.32-1.09,.73-1.52,1.03-1.1,.77-1.92,1.33-2.62,1.66-.82,4.58-1.78,9.24-2.88,13.73l7.92,5.77Z"/><path class="cls-10" d="M1854.27,952.7l-9.51-6.92c-.21,.79-.42,1.58-.64,2.36,2.79,3.48,3.7,10.16,2.2,16.69-1.47,6.42-4.84,11.14-9.32,13.13l5.25,15.2c1.65-.47,5.28-1.35,9.77-1.58,.3-1.78,.49-3.69,.56-5.13l2,.09c-.02,.45-.14,2.62-.52,4.98,2.42,0,5.01,.2,7.65,.77,.62-2.51,.91-4.68,.91-4.72l1.98,.25c-.02,.16-.31,2.36-.95,4.95,2.77,.79,5.54,2,8.14,3.82-2.27-17.89-2.09-27.96-2.05-29.56-.42-2.47-5.08-29.67-9.43-38.44-1.28-.27-2.61-.41-3.99-.4l4.52,14.43-6.59,10.09Z"/><path class="cls-10" d="M1828.69,969.53c.48,0,.92-.09,1.31-.29,6.52-3.28,12.14-21.93,15.57-41.15l1.07-6.56h0c1.02-6.7,1.75-13.27,2.14-19.07,.21-3.13-1.2-6.07-3.76-7.88-2.57-1.81-5.83-2.14-8.71-.88l-44.87,19.53c-2.19,.95-3.85,2.81-4.54,5.1-.69,2.28-.35,4.73,.93,6.73,12.21,19.05,32.87,44.46,40.85,44.46Zm1.18-55.24c1.24-.57,2.56-1,3.93-1.24,1.37-.24,2.78-.25,4.17-.06,1.38,.21,2.74,.71,3.85,1.53-1.4-.03-2.66-.06-3.93,.03-1.27,.11-2.51,.27-3.76,.47-1.25,.23-2.5,.47-3.77,.74-1.27,.28-2.55,.56-3.91,.8,.99-.98,2.18-1.7,3.41-2.28Zm-31.06,10.32c1.16-1.11,2.48-1.99,3.84-2.76,1.37-.77,2.8-1.43,4.28-1.97,1.47-.55,3.01-.94,4.56-1.21,1.55-.27,3.15-.36,4.74-.19-1.47,.66-2.91,1.16-4.34,1.7l-4.28,1.58c-1.43,.52-2.87,1.02-4.32,1.51-1.46,.49-2.92,.96-4.48,1.34Zm14.22,24.9l-.25-.05-2.72-2.3c-.49-.14-.94-.39-1.32-.74l-2.68-2.44c-.7-.63-1.09-1.54-1.09-2.48v-4.14l.12-.22c.09-.18,2.3-4.31,2.91-5.37,.46-.8,1.25-1.46,1.82-1.86,.43-.3,.91-.5,1.43-.57l5.68-.85c.62-.09,1.25-.01,1.81,.23,1.2,.52,2.74,1.45,3.21,2.88,.26,.8,.16,1.65-.31,2.45-.75,1.3,.06,3.58,.82,5.12,.55-.48,1.22-.82,1.95-.95,.53-.09,1.05-.06,1.55,.06-.09-2.32-.09-6.05,.75-7.5,.33-.58,.38-.74,.38-.75,.08-.45,.23-.6,.85-1.21l.33-.33c.51-.51,.89-1.02,1.23-1.48,.67-.9,1.37-1.84,2.63-1.84,1.13,0,2.65,1.03,4.38,2.29,.32,.23,.58,.42,.72,.5,.49,.28,.73,.71,.7,1.18,1.06,.67,1.26,1.66,1.38,2.26,.01,.07,.03,.16,.05,.23,.14,.06,.35,.14,.5,.19,.91,.33,2.04,.74,2.41,1.75,.13,.36,.21,.94-.2,1.64-.3,.52-.24,1-.1,1.74,.13,.73,.29,1.63-.23,2.53-.39,.67-1.26,1.25-2.64,2.15-.8,.52-2.26,1.46-2.54,1.94,.09,.32,.06,.66-.08,.97-.31,.64-1.05,1.01-2.04,1.33,.08,.05,.17,.11,.25,.16l-.11,.19c.83,.95,1.4,1.66,1.67,2.14,1.54,2.67-2.85,12.44-4.11,14.7-.61,1.1-1.74,1.71-2.97,1.71-.54,0-1.1-.12-1.64-.36-2.88-1.29-8.88-3.98-10.66-8.58-.65-1.68-.15-4.17,.95-7.14l-1.24,.83h-.29c-.64,.03-1.37,.04-1.98,.04-.57,0-1.04-.01-1.24-.05Z"/><path class="cls-10" d="M1888.29,976.34c1.03,1.05,2.69,2.38,4.42,2.61,1.12,.15,2.17-.18,3.21-.99,1.2-.94,1.3-1.7,1.27-2.19-.13-1.99-2.83-4.5-5.07-6.16l-3.83,6.73Z"/><path class="cls-10" d="M1704.44,980.53c.22,.65,1.84,2.06,3.52,3.04,.4,.15,.82,.33,1.24,.52l.02-.03s.09,.06,.13,.09c.48,.22,.98,.47,1.49,.74,.51,.27,1.09,.3,1.54,.11l.18-.55c-2.65-2.6-5.35-4.13-6.6-4.35l-.05,.13c-.1-.04-.2-.1-.3-.14-.04,0-.1,0-.13,0-.65,.18-.94,.35-1.06,.44Z"/><path class="cls-10" d="M1706.54,977.18c2.3,.43,4.92,2.33,6.6,3.75,.2,.04,.39,.08,.55,.1l.44-1.36c-.1-.17-.21-.34-.32-.49-.68-.67-1.3-1.24-1.89-1.75-1.6-1.05-2.54-1.73-3.06-2.24-1.6-.93-2.6-1.04-3.05-.85-.32,.14-.36,.59-.36,.84,.01,.69,.39,1.52,1.08,2Z"/><path class="cls-10" d="M1872.42,1001c-.08-.53-.17-1.05-.25-1.6-2.82-2.34-5.93-3.82-9.05-4.72-.44,1.44-.99,2.87-1.67,4.04l-1.73-1c.58-1,1.06-2.25,1.45-3.52-2.59-.55-5.14-.73-7.5-.7-.41,1.79-1,3.44-1.85,4.28l-1.41-1.41c.48-.48,.87-1.51,1.19-2.79-5.52,.36-9.56,1.72-9.65,1.75l-.95,.33-5.9-17.06c-1.69,.48-3.37,.72-5.03,.72-9.43,0-18.22-7.04-23.75-12.68,4.17,7.14,10.46,15.96,18.01,20.32l1.52,.88-4.59,5.68,1.55,1.41c.83,.75,1.31,1.78,1.36,2.9s-.34,2.19-1.11,3.01c-.81,.88-1.93,1.33-3.05,1.33-.93,0-1.87-.31-2.64-.95l-1.4-1.16-3.18,3.94-.91-.2c-11.12-2.47-22.51-19.67-27.58-28.24-4.05,3.03-16.41,12.52-28.18,24.19-2.4,2.38-5.31,3.4-8.38,2.94-8.05-1.19-15.54-12-18.73-17.23-3.66,4.35-7.82,7.07-10.23,8.41,7.71,12.8,21.49,31.25,29.09,31.25,8.63,0,21.56-6.21,29.93-11.98,1.24-.85,2.41-1.84,3.49-2.94,8.35-8.52,10.81-8.53,11.74-8.54,1.06,.04,1.73,.45,2.11,.84,8,8,13.27,18.2,16.3,29.44,9.55-.8,36.93-5.37,60.97-30.93Z"/><path class="cls-10" d="M1710.68,972.76l.33,.24c.82,.52,1.72,1.19,2.69,2.01,.33,.22,.69,.45,1.11,.71,.46,.29,.74,.4,.9,.44,.02-.05,.04-.11,.06-.19,.21-.92-.12-2.01-.76-2.54-4.37-3.57-6.38-4.13-7.04-4.2,.13,.72,.97,2.29,2.73,3.53Z"/><path class="cls-10" d="M1705.04,991.6c-.07-.04-.14-.08-.21-.12l-9.41,32.03c-.33,1.1,.28,2.26,1.37,2.62,.54,.18,1.12,.14,1.63-.12,.51-.26,.89-.7,1.07-1.24l10.27-31.63c-1.55-.24-3.16-.71-4.72-1.53Z"/><path class="cls-10" d="M1717.25,964.21c.4-.01,.87,.02,1.37,.09l19.33-72.66-6.21-2.32-19.81,78.28c.11,.06,.23,.13,.35,.2,.72-2.03,3.3-3.54,4.98-3.59Z"/><path class="cls-10" d="M1731.3,885.96l9.32,3.48c.74,.28,1.55,.24,2.26-.1,.72-.34,1.25-.94,1.51-1.69l1.15-3.41c-7.11-1.22-11.95-3.21-15.15-5.08l-.89,3.33c-.39,1.45,.38,2.95,1.79,3.48Z"/><path class="cls-10" d="M1909.21,1163.31c-.23-2.19-.45-4.27-.65-6.23-1.46-14.16-2.35-22.7-5.65-28.43l-.18-.32-.06-.36c-.09-.57-8.25-50.8-14.48-76.23-29.73,22.06-65.56,25.36-75.28,25.85-1.49,8.86-3.9,17.5-7.05,25.44l2.46,1.28-1.85,3.54-9.67-5.06-.02,.04c-.57,2.23-3.97,16.47,.79,23.68,8.39,5.01,15.79,8,19.62,8,4.94,0,6.58-1.54,8.47-3.32,.23-.21,.45-.42,.68-.63,12.58-11.41,18.56-30.1,21.78-40.14,.75-2.35,1.35-4.2,1.86-5.45l1.97-4.78,1.76,4.86c4.9,13.52,9.96,22.74,14.02,30.14,5.88,10.73,10.14,18.48,10.14,31.28,0,6.47,1.54,14.84,3.75,23.49,3.63-2.42,11.8-6.23,27.62-6.68Z"/><path class="cls-10" d="M1835.09,975.48c3.95-1.37,6.97-5.5,8.31-11.33,1.02-4.46,.8-9.03-.45-12.09-3.09,9.78-6.96,17.55-11.6,19.88-.73,.37-1.53,.54-2.39,.54-5.44,0-13.25-6.93-20.76-15.39l-4.29,2.3c3.91,4.85,17.95,20.7,31.18,16.1Z"/><path class="cls-10" d="M1916.04,1210.05c-.2-1.06-.39-2.09-.58-3.13-3.2-.17-6.49,.22-7.06,1.21l-2.6-1.5c1.47-2.54,5.93-2.87,9.11-2.75-.41-2.31-.8-4.56-1.16-6.75-2.09,.34-4.64,1-5.82,2.18l-2.12-2.12c1.8-1.8,5.06-2.64,7.46-3.02-.26-1.64-.51-3.23-.74-4.79-2.43,.04-5.73,.45-7.26,1.98l-2.12-2.12c2.25-2.25,6.19-2.79,8.94-2.86-1.09-7.55-1.89-14.21-2.54-20.09-16.99,.44-24.63,4.9-27.12,6.8,5.57,20.61,14.27,41.77,14.4,42.08l.15,.37v19.5c.24,2.37,11.32,12.26,22.88,16.39,3.14,1.12,8.79,2.62,11.4,.02,3.99-3.99-.84-12.27-5.95-21.04-3.92-6.72-7.97-13.67-9.24-20.36Z"/><path class="cls-10" d="M1780.63,1108.33l2.89,.79c-.67,2.48-.42,5.73-.18,7.54,.65,.52,1.29,1.02,1.94,1.52-.11-1.94-.06-4.28,.49-6.31l2.89,.79c-.72,2.67-.37,6.24-.13,7.93,1.09,.79,2.19,1.55,3.27,2.28-2.15-9.29,1.01-20.8,1.17-21.4l.09-.31,.15-.22-13.48-7.05-.02,.03c-.14-.08-.29-.18-.44-.27l-.19-.1h0c-1.19-.75-2.58-1.73-4.18-2.87-3.38-2.4-7.58-5.39-10.63-6.41-.62-.21-1.92-.26-2.93,.47-1.3,.94-1.58,2.8-1.58,4.2v1.57c-.02,12.76-.05,34.11,10.08,37.91,1.25,.47,1.83,.21,2.2-.07,2.38-1.8,2.88-9.66,2.48-14.68l-.4-5,3.73,3.35c.74,.66,1.49,1.32,2.24,1.96-.06-1.8,.03-3.86,.51-5.66Z"/><path class="cls-10" d="M1748.9,874.32c-7.56-1.28-12.56-3.42-15.77-5.38l-1.92,7.18c2.9,1.83,7.7,3.98,15.31,5.24l2.38-7.04Z"/><path class="cls-10" d="M1789.67,1064.07l1.84,9.57,6.38-9.36,9.05-33.72c-1.36-4.46-3.12-8.72-5.3-12.7l-11.97,46.21Z"/><path class="cls-10" d="M1811.66,1000.63l3.64-4.5c-14.81-10.51-22.12-25.65-24.29-30.81l-6.16,5.11c2.8,5.08,15.3,26.71,26.81,30.21Z"/><path class="cls-10" d="M1751.08,867.87c.51-1.5-.3-3.16-1.8-3.68l-10.66-3.72c-.32-.11-.64-.17-.96-.17-.47,0-.93,.11-1.36,.34-.72,.38-1.24,1.03-1.45,1.82l-.91,3.42c2.86,1.91,7.81,4.24,15.93,5.56l1.21-3.57Z"/><path class="cls-10" d="M1821.6,999.46c.4-.43,.6-.98,.57-1.56-.03-.58-.28-1.11-.71-1.5l-1.47-1.33-2.76,3.42,1.42,1.17c.88,.72,2.17,.64,2.95-.2Z"/><path class="cls-10" d="M1816.56,994.56l4.79-5.93c-11.69-7.69-19.96-24.25-22.5-29.83l-6.23,5.17c1.73,4.29,8.84,19.92,23.94,30.59Z"/><path class="cls-10" d="M1715.45,968.29c-.31,.33-.37,.56-.37,.6,0,0,.35,.69,2.97,1.18,3.81,.71,3.51,7.74,3.2,10.73l-2.98-.31c.11-1.05,.14-2.07,.13-3.01-.21,.45-.46,.78-.73,1.02l-.3,.93c.43,1.08,.63,2.34-.04,3.36-.35,.54-.85,.87-1.39,1.06l-.1,.3c.2,.89-.05,1.81-.77,2.58-.03,.03-.06,.05-.09,.09l-1.13,3.47c2.52-.18,4.36-.84,4.4-.85l.03,.08c2.14-1.35,5.04-3.52,7.65-6.6-1.04-1.76-2.35-5.04-2.66-10.68-.27-5.01-5.83-5.03-5.9-5.04-.38,.01-1.31,.44-1.91,1.09Z"/><path class="cls-10" d="M1707.21,989.31c1.59-.19,2.14-.52,2.28-.64-.1-.41-.85-1.26-1.67-1.91-2.9-1.28-4.2-1-4.38-.83-.05,.24,.5,1.71,3,3.02,.25,.13,.51,.25,.77,.36Z"/><path class="cls-32" d="M1928.73,1228.4c-3.75-6.43-7.62-13.08-8.77-19.09-4.38-23.1-6.15-40.17-7.44-52.64-1.49-14.44-2.4-23.25-5.98-29.69-.94-5.75-10.81-66.02-17-85.33-2.19-6.84-4.2-11.89-5.98-16.35-3.38-8.48-6.04-15.19-7.81-29.14-1.45-11.39-1.88-19.65-2-24.41,2.58,2.54,5.96,5.78,7.77,7.12,.95,.7,2.16,.96,3.31,.72,.27-.06,.52-.15,.77-.25,1.39,1.37,3.72,3.2,6.54,3.59,.37,.05,.73,.07,1.09,.07,1.81,0,3.54-.63,5.13-1.88,2.49-1.95,2.89-4.12,2.79-5.61-.29-4.37-5.34-8.25-7.73-9.85,.09-1.39-.16-2.79-.8-4.07-.5-.99-1.06-2.21-1.71-3.59-5.3-11.39-16.23-34.83-35.84-33.76l-.05-.16c-.17-.56-.58-1-1.13-1.18-1.22-.42-2.56,.51-4.58,1.92-.07,.05-.13,.09-.21,.15l.48-2.92h-.03c.32-2.11,.61-4.17,.87-6.15,3.08,.75,4.65,3.91,4.67,3.94l.52,1.08,4.9-3.56-.45-.78c-2.36-4.08-6.71-5.71-8.97-6.3,.3-2.79,.53-5.36,.68-7.58,.03-.41,.02-.82,0-1.22l7.72-20.14c2.25-.62,3.92-2.67,3.92-5.11,0-2.94-2.39-5.33-5.33-5.33s-5.33,2.39-5.33,5.33c0,.84,.21,1.63,.56,2.34l-5.73,14.29c-.28-.23-.55-.47-.85-.68-2.6-1.83-5.72-2.52-8.75-2.03-.46-1.78-1.78-5.17-5.58-8.4-5.07-4.32-15.65-9.12-37.31-7.37l-5.83,.47,5.65,1.5c.22,.06,21.21,5.81,23.84,21.77l-7.47,3.25c-2-4.98-10.7-19.28-43.43-13.61l-2.97,.52,2.69,1.36c.16,.08,15.7,8.06,21.76,21.35-2.56,1.39-4.48,3.73-5.33,6.54-.95,3.12-.49,6.48,1.27,9.22,.18,.28,9.94,15.31,20.86,28.06l-4.71,2.53c-.41-.9-.64-1.44-.65-1.48l-.78-1.88-18.98,15.74,.56,1.07c.07,.13,.32,.6,.7,1.31-3.69,2.74-16.67,12.62-29,24.85-1.51,1.5-3.14,2.1-4.97,1.83-6.15-.91-13.73-11.15-17.33-17.81l-1.55-2.87-1.53,2.22c-.7-1.59-1.46-4.18-1.68-8.18-.2-3.72-2.41-5.84-4.75-6.93l19.31-72.61c.27,.04,.55,.07,.83,.07,.86,0,1.72-.19,2.53-.58,1.46-.69,2.54-1.91,3.06-3.44l1.33-3.92c.92,.12,1.86,.23,2.85,.32l.28-2.99c-.74-.07-1.45-.15-2.15-.23l2.38-7.02c.87,.11,1.75,.21,2.68,.3l.28-2.99c-.68-.06-1.33-.14-1.98-.21l1.03-3.03c1.04-3.06-.6-6.41-3.65-7.47l-10.66-3.72c-1.55-.54-3.26-.41-4.71,.36-1.45,.77-2.52,2.11-2.94,3.69l-.57,2.15c-.62-.61-.88-1-.89-1.01l-1.27,.8-1.28,.78c.08,.12,.78,1.22,2.57,2.69l-1.89,7.08c-.92-.83-1.3-1.39-1.31-1.41l-1.27,.8-1.28,.78c.08,.13,.89,1.4,3,3.03l-1.15,4.32c-.66,2.47,.34,4.98,2.36,6.37l-19.83,78.33c-1.01-.26-1.86-.26-2.56,.03-.91,.37-1.5,1.16-1.62,2.18-.1,.81,.14,1.75,.6,2.7-.34,.05-.66,.14-.93,.26-1.4,.6-2.21,1.97-2.17,3.66,.02,.9,.29,1.78,.72,2.56-1.03,.56-1.62,1.33-1.74,2.3-.13,1.04,.35,2.04,1.09,2.94-.23,.09-.45,.19-.66,.32-.94,.58-1.46,1.57-1.41,2.69,.04,1.18,.7,2.41,1.79,3.52l-9.72,33.09c-.78,2.66,.67,5.43,3.3,6.31,.53,.18,1.08,.27,1.63,.27,.79,0,1.58-.19,2.31-.55,1.23-.62,2.14-1.69,2.57-3l10.5-32.35c.33,0,.66-.02,.97-.04l.44,.75c2.09,3.59,20.76,35.06,33.62,35.06,10.89,0,25.37-7.97,32.2-12.69,1.45-1,2.82-2.15,4.08-3.44,4.83-4.93,7.55-6.8,8.6-7.24,2.86,2.92,5.33,6.16,7.46,9.63l-12.59,48.62,2.83,14.73,9.28-13.62,8.26-30.77c5.34,21.27,2.35,46.35-5.71,66.82l-21.02-10.99c-1.1-.68-2.51-1.68-4.02-2.75-3.78-2.69-8.06-5.73-11.67-6.94-1.61-.54-4.29-.6-6.54,1.02-1.48,1.06-3.25,3.22-3.25,7.45v1.56c-.02,13.8-.05,36.89,12.68,41.66,2.86,1.07,4.85,.25,6.01-.63,3.38-2.55,4.13-8.96,4.2-13.54,13.71,11.39,30.62,20.52,38.49,20.52,6.52,0,9.12-2.44,11.21-4.4,.21-.2,.42-.39,.63-.59,13.38-12.13,19.57-31.48,22.9-41.88h0c4.36,11.01,8.71,18.94,12.29,25.47,5.81,10.59,9.64,17.58,9.64,29.36,0,22.52,17.18,65.11,19.12,69.85v18.71c0,5.1,13.14,15.08,23.5,19.37,3.99,1.65,7.49,2.48,10.42,2.48s5.44-.87,7.18-2.61c6.17-6.17,.59-15.74-5.33-25.88Zm-114.31-164.17c20.67-1.22,57.74-12.99,69.96-25.46,.41,1.19,.83,2.43,1.25,3.74-27.37,20.03-60.49,24.85-71.52,25.93,.13-1.4,.23-2.81,.32-4.21Zm-.53,6.24c10.75-1.02,44.39-5.73,72.36-25.94,.36,1.23,.74,2.59,1.12,4.07-28.7,21.82-63.68,25.39-74.01,25.98,.2-1.36,.37-2.73,.52-4.1Zm69.36-34.89c-9.88,12.08-48.11,24.31-68.69,25.64,.31-9.34-.49-18.62-2.61-27.32,9.93-.89,36.9-5.61,60.87-30.41,1.77,10.05,4.15,16.05,7.03,23.29,1.05,2.64,2.19,5.5,3.39,8.81Zm13.93-59.81c.03,.49-.06,1.25-1.27,2.19-1.04,.82-2.09,1.14-3.21,.99-1.73-.23-3.4-1.57-4.42-2.61l3.83-6.73c2.24,1.65,4.94,4.17,5.07,6.16Zm-9.88-16.09c.66,1.42,1.25,2.68,1.76,3.7,.58,1.17,.54,2.55-.1,3.69l-4.86,8.54s-.03,.06-.09,.07c-.06,.01-.09-.01-.1-.02-2.47-1.82-8.62-8-10.3-9.7-.67-3.95-4.28-24.56-8.24-35.54,10.89,5.58,17.79,20.37,21.93,29.27Zm-26.99-31.09c4.35,8.78,9.01,35.98,9.43,38.44-.05,1.6-.22,11.67,2.05,29.56-2.6-1.82-5.37-3.03-8.14-3.82,.65-2.59,.93-4.79,.95-4.95l-1.98-.25s-.29,2.21-.91,4.72c-2.64-.57-5.23-.78-7.65-.77,.38-2.36,.5-4.53,.52-4.98l-2-.09c-.07,1.43-.25,3.34-.56,5.13-4.49,.23-8.12,1.11-9.77,1.58l-5.25-15.2c4.48-1.99,7.85-6.71,9.32-13.13,1.5-6.53,.58-13.2-2.2-16.69,.22-.78,.43-1.56,.64-2.36l9.51,6.92,6.59-10.09-4.52-14.43c1.38,0,2.71,.13,3.99,.4Zm-9.26-1.32c.43-.3,1.02-.71,1.52-1.03l4.99,15.93-4.09,6.26-7.92-5.77c1.1-4.49,2.06-9.14,2.88-13.73,.7-.33,1.53-.9,2.62-1.66Zm6.26-45.81l-6.25,16.3c-.45-1.22-1.09-2.36-1.92-3.38l5.63-14.04c.72,.58,1.58,.98,2.54,1.12Zm.54,35.36l-1.55,1.12c-.87-1.3-2.71-3.45-5.62-4.05,.07-.54,.13-1.07,.19-1.6,1.85,.53,5.01,1.79,6.97,4.53Zm.25-43.93c1.83,0,3.33,1.49,3.33,3.33s-1.49,3.33-3.33,3.33-3.33-1.49-3.33-3.33,1.49-3.33,3.33-3.33Zm-57.84,3.16c29.44-1.07,34.86,11.11,35.8,14.58-.31,.11-.63,.2-.94,.34l-14.44,6.29c-2.24-12.07-13.74-18.47-20.42-21.21Zm-29.21,13.2c29.74-4.31,36.94,8.67,38.47,12.87l-18.36,7.99c-4.88-10.71-15.28-17.95-20.12-20.86Zm15.86,29.11c.7-2.29,2.35-4.15,4.54-5.1l44.87-19.53c2.88-1.25,6.14-.93,8.71,.88,2.56,1.8,3.97,4.75,3.76,7.88-.39,5.8-1.12,12.37-2.14,19.07h0l-1.07,6.56c-3.43,19.22-9.05,37.87-15.57,41.15-.39,.19-.82,.29-1.31,.29-7.98,0-28.65-25.41-40.85-44.46-1.28-2-1.62-4.45-.93-6.73Zm21.28,38.73c7.52,8.46,15.33,15.39,20.76,15.39,.86,0,1.66-.17,2.39-.54,4.64-2.33,8.51-10.09,11.6-19.88,1.25,3.06,1.47,7.63,.45,12.09-1.34,5.83-4.37,9.96-8.31,11.33-13.23,4.6-27.27-11.26-31.18-16.1l4.29-2.3Zm13.15,31.56l-4.79,5.93c-15.1-10.67-22.21-26.31-23.94-30.59l6.23-5.17c2.55,5.58,10.81,22.14,22.5,29.83Zm-1.35,6.44l1.47,1.33c.43,.39,.68,.92,.71,1.5,.02,.58-.18,1.13-.57,1.56-.77,.83-2.07,.92-2.95,.2l-1.42-1.17,2.76-3.42Zm-29-29.76c2.17,5.17,9.48,20.3,24.29,30.81l-3.64,4.5c-11.51-3.5-24.01-25.13-26.81-30.21l6.16-5.11Zm-67.75,6.94c.31,5.64,1.62,8.92,2.66,10.68-2.61,3.08-5.52,5.25-7.65,6.6l-.03-.08s-1.88,.66-4.4,.85l1.13-3.47s.07-.05,.09-.09c.72-.77,.97-1.69,.77-2.58l.1-.3c.54-.19,1.04-.52,1.39-1.06,.67-1.03,.47-2.29,.04-3.36l.3-.93c.27-.24,.53-.57,.73-1.02,.02,.94-.02,1.97-.13,3.01l2.98,.31c.31-2.99,.61-10.03-3.2-10.73-2.62-.49-2.97-1.18-2.97-1.18,0-.04,.06-.26,.37-.6,.6-.64,1.53-1.07,1.91-1.09,.07,0,5.62,.03,5.9,5.04Zm-19.81,13.68c.18-.17,1.48-.45,4.38,.83,.81,.64,1.57,1.5,1.67,1.91-.14,.12-.69,.45-2.28,.64-.26-.11-.52-.22-.77-.36-2.5-1.32-3.05-2.78-3-3.02Zm2.49-5.69l.05-.13c1.25,.22,3.95,1.75,6.6,4.35l-.18,.55c-.46,.19-1.04,.17-1.54-.11-.51-.27-1.01-.52-1.49-.74-.05-.03-.09-.07-.13-.09l-.02,.03c-.43-.19-.84-.37-1.24-.52-1.68-.98-3.31-2.39-3.52-3.04,.11-.09,.4-.27,1.06-.44,.03,0,.09,0,.13,0,.1,.05,.2,.1,.3,.14Zm28.93-117.76c.21-.79,.73-1.44,1.45-1.82,.43-.23,.89-.34,1.36-.34,.32,0,.65,.05,.96,.17l10.66,3.72c1.5,.52,2.31,2.17,1.8,3.68l-1.21,3.57c-8.12-1.32-13.07-3.65-15.93-5.56l.91-3.42Zm-1.73,6.47c3.21,1.97,8.21,4.1,15.77,5.38l-2.38,7.04c-7.61-1.26-12.41-3.4-15.31-5.24l1.92-7.18Zm12.41,15.3l-1.15,3.41c-.25,.75-.79,1.35-1.51,1.69-.72,.34-1.52,.38-2.26,.1l-9.32-3.48c-1.41-.53-2.18-2.02-1.79-3.48l.89-3.33c3.2,1.87,8.03,3.86,15.15,5.08Zm-13.8,5.09l6.21,2.32-19.33,72.66c-.5-.07-.97-.1-1.37-.09-1.67,.06-4.25,1.57-4.98,3.59-.12-.07-.23-.14-.35-.2l19.81-78.28Zm-16.75,84.1c.65,.53,.98,1.62,.76,2.54-.02,.08-.04,.15-.06,.19-.15-.04-.44-.15-.9-.44-.41-.26-.78-.5-1.11-.71-.98-.83-1.87-1.49-2.69-2.01l-.33-.24c-1.76-1.25-2.6-2.82-2.73-3.53,.66,.08,2.67,.64,7.04,4.2Zm-9.18,.91c.45-.19,1.45-.07,3.05,.85,.52,.52,1.45,1.2,3.06,2.24,.59,.51,1.22,1.08,1.89,1.75,.11,.16,.22,.32,.32,.49l-.44,1.36c-.16-.02-.35-.06-.55-.1-1.68-1.41-4.3-3.32-6.6-3.75-.69-.48-1.07-1.31-1.08-2,0-.26,.03-.71,.36-.84Zm-6.33,50.43c-.18,.54-.55,.99-1.07,1.24-.51,.26-1.09,.3-1.63,.12-1.09-.36-1.69-1.52-1.37-2.62l9.41-32.03c.07,.04,.14,.09,.21,.12,1.56,.82,3.17,1.29,4.72,1.53l-10.27,31.63Zm93.55-23.11c-.93,0-3.4,.02-11.74,8.54-1.08,1.1-2.25,2.09-3.49,2.94-8.37,5.77-21.31,11.98-29.93,11.98-7.59,0-21.38-18.45-29.09-31.25,2.41-1.35,6.58-4.06,10.23-8.41,3.19,5.23,10.68,16.03,18.73,17.23,3.07,.45,5.98-.56,8.38-2.94,11.77-11.67,24.13-21.17,28.18-24.19,5.07,8.58,16.46,25.77,27.58,28.24l.91,.2,3.18-3.94,1.4,1.16c.77,.63,1.71,.95,2.64,.95,1.12,0,2.23-.45,3.05-1.33,.76-.82,1.16-1.89,1.11-3.01s-.53-2.15-1.36-2.9l-1.55-1.41,4.59-5.68-1.52-.88c-7.55-4.36-13.83-13.17-18.01-20.32,5.53,5.64,14.32,12.68,23.75,12.68,1.66,0,3.34-.24,5.03-.72l5.9,17.06,.95-.33c.09-.03,4.13-1.4,9.65-1.75-.32,1.28-.72,2.31-1.19,2.79l1.41,1.41c.85-.85,1.44-2.5,1.85-4.28,2.36-.03,4.91,.15,7.5,.7-.39,1.27-.87,2.51-1.45,3.52l1.73,1c.68-1.17,1.23-2.6,1.67-4.04,3.12,.89,6.23,2.38,9.05,4.72,.08,.55,.16,1.08,.25,1.6-24.04,25.57-51.42,30.13-60.97,30.93-3.03-11.24-8.3-21.44-16.3-29.44-.38-.38-1.05-.8-2.11-.84Zm4.85,62.62l-6.38,9.36-1.84-9.57,11.97-46.21c2.18,3.98,3.93,8.24,5.3,12.7l-9.05,33.72Zm-20.01,47.76l-3.73-3.35,.4,5c.4,5.01-.1,12.88-2.48,14.68-.37,.28-.95,.54-2.2,.07-10.13-3.8-10.1-25.15-10.08-37.91v-1.57c0-1.4,.28-3.26,1.58-4.2,1.02-.73,2.31-.68,2.93-.47,3.05,1.03,7.25,4.01,10.63,6.41,1.6,1.13,2.99,2.12,4.18,2.86h0l.19,.11c.14,.09,.3,.19,.44,.27l.02-.03,13.48,7.05-.15,.22-.09,.31c-.17,.6-3.32,12.11-1.17,21.4-1.09-.73-2.18-1.5-3.27-2.28-.24-1.7-.59-5.27,.13-7.93l-2.89-.79c-.55,2.02-.59,4.37-.49,6.31-.65-.5-1.3-1-1.94-1.52-.23-1.81-.49-5.05,.18-7.54l-2.89-.79c-.49,1.8-.58,3.86-.51,5.66-.75-.64-1.5-1.29-2.24-1.96Zm89.83,3.17c-4.06-7.41-9.12-16.63-14.02-30.14l-1.76-4.86-1.97,4.78c-.51,1.25-1.11,3.11-1.86,5.45-3.21,10.04-9.2,28.73-21.78,40.14-.23,.21-.46,.42-.68,.63-1.9,1.78-3.54,3.32-8.47,3.32-3.83,0-11.23-2.99-19.62-8-4.75-7.21-1.36-21.45-.79-23.68l.02-.04,9.67,5.06,1.85-3.54-2.46-1.28c3.16-7.94,5.56-16.58,7.05-25.44,9.71-.49,45.54-3.8,75.28-25.85,6.23,25.42,14.39,75.65,14.48,76.23l.06,.36,.18,.32c3.3,5.72,4.19,14.27,5.65,28.43,.2,1.96,.42,4.04,.65,6.23-15.81,.45-23.98,4.25-27.62,6.68-2.21-8.66-3.75-17.02-3.75-23.49,0-12.8-4.25-20.55-10.14-31.28Zm63.53,136.24c-2.61,2.6-8.26,1.11-11.4-.02-11.56-4.13-22.64-14.02-22.88-16.39v-19.5l-.15-.37c-.13-.31-8.83-21.47-14.4-42.08,2.5-1.9,10.14-6.35,27.12-6.8,.65,5.88,1.45,12.53,2.54,20.09-2.75,.07-6.69,.61-8.94,2.86l2.12,2.12c1.54-1.54,4.83-1.95,7.26-1.98,.24,1.56,.48,3.16,.74,4.79-2.4,.38-5.66,1.22-7.46,3.02l2.12,2.12c1.18-1.18,3.73-1.84,5.82-2.18,.36,2.18,.75,4.44,1.16,6.75-3.18-.12-7.64,.21-9.11,2.75l2.6,1.5c.57-.99,3.86-1.37,7.06-1.21,.19,1.03,.38,2.07,.58,3.13,1.27,6.69,5.32,13.64,9.24,20.36,5.11,8.77,9.94,17.05,5.95,21.04Z"/><path class="cls-32" d="M1816.55,949.52l1.24-.83c-1.1,2.97-1.6,5.46-.95,7.14,1.78,4.6,7.78,7.29,10.66,8.58,.54,.24,1.1,.36,1.64,.36,1.23,0,2.35-.61,2.97-1.71,1.26-2.26,5.65-12.03,4.11-14.7-.28-.48-.84-1.2-1.67-2.14l.11-.19c-.08-.05-.17-.1-.25-.16,.99-.32,1.74-.7,2.04-1.33,.15-.31,.18-.65,.08-.97,.28-.48,1.74-1.43,2.54-1.94,1.39-.9,2.26-1.48,2.64-2.15,.52-.9,.36-1.8,.23-2.53-.13-.74-.2-1.22,.1-1.74,.4-.7,.33-1.27,.2-1.64-.37-1-1.5-1.42-2.41-1.75-.15-.06-.36-.13-.5-.19-.02-.07-.03-.16-.05-.23-.12-.6-.32-1.6-1.38-2.26,.03-.47-.21-.9-.7-1.18-.14-.08-.4-.27-.72-.5-1.73-1.25-3.25-2.29-4.38-2.29-1.26,0-1.96,.93-2.63,1.84-.34,.46-.72,.97-1.23,1.48l-.33,.33c-.62,.62-.77,.76-.85,1.21,0,0-.04,.17-.38,.75-.84,1.45-.84,5.18-.75,7.5-.5-.12-1.03-.16-1.55-.06-.73,.13-1.39,.47-1.95,.95-.76-1.54-1.57-3.82-.82-5.12,.47-.81,.57-1.66,.31-2.45-.47-1.43-2-2.36-3.21-2.88-.56-.24-1.19-.32-1.81-.23l-5.68,.85c-.52,.08-1,.27-1.43,.57-.58,.41-1.36,1.06-1.82,1.86-.61,1.06-2.82,5.19-2.91,5.37l-.12,.22v4.14c0,.94,.4,1.84,1.09,2.48l2.68,2.44c.38,.34,.83,.6,1.32,.74l2.72,2.3,.25,.05c.2,.04,.67,.05,1.24,.05,.61,0,1.34-.02,1.98-.04h.29Zm1.85-5.07c-.84,0-1.52-.68-1.52-1.52s.68-1.52,1.52-1.52,1.52,.68,1.52,1.52-.68,1.52-1.52,1.52Zm10.03-12.68c.37-.64,.51-.98,.58-1.22,.07-.07,.18-.17,.33-.33l.33-.33c.61-.61,1.06-1.21,1.42-1.7,.48-.64,.78-1.03,1.02-1.03,.6,.02,2.56,1.44,3.21,1.91,.18,.13,.34,.24,.48,.34,0,.43,.22,.93,1.01,1.39,.35,.2,.42,.46,.52,.98,.06,.31,.13,.65,.31,.97,.29,.49,.83,.69,1.52,.94,.31,.11,.92,.34,1.16,.52-.67,1.18-.48,2.28-.33,3.08,.1,.58,.16,.93,0,1.18-.18,.3-1.27,1-2,1.47-1.78,1.15-3.62,2.34-3.49,3.75-.43,.21-1.26,.44-1.61,.54-.06,.02-.1,.03-.15,.04-.38-.4-.79-.82-1.23-1.27,.04,0,.07,.01,.11,.01,1.39,0,2.52-1.13,2.52-2.52s-1.13-2.52-2.52-2.52-2.52,1.13-2.52,2.52c0,.04,0,.07,.01,.1-.35-.35-.72-.71-1.1-1.08-.18-2.74-.17-6.74,.41-7.74Zm1.68,8.72c0-.84,.68-1.52,1.52-1.52s1.52,.68,1.52,1.52-.68,1.52-1.52,1.52-1.52-.68-1.52-1.52Zm-6.89,.9c.3-.64,.88-1.09,1.53-1.21,.11-.02,.22-.03,.33-.03,.47,0,.91,.18,1.27,.53,2.05,2,3.76,3.72,5.1,5.13,.08,.28,.35,.67,1.19,1.28,.95,1.05,1.59,1.83,1.84,2.27,.61,1.15-1.77,8.52-4.12,12.73-.43,.78-1.36,.8-2.04,.5-2.64-1.18-8.13-3.65-9.61-7.48-.92-2.37,2.23-8.94,4.11-12.87l.4-.84h0Zm-9.59,6.17l-2.66-2.25-.25-.05c-.24-.05-.46-.16-.64-.32l-2.68-2.44c-.28-.26-.44-.62-.44-1v-3.64c.47-.89,2.25-4.19,2.76-5.09,.22-.38,.66-.82,1.24-1.23,.17-.12,.36-.2,.57-.23l5.68-.85c.25-.04,.5,0,.72,.09,1.14,.5,1.93,1.12,2.11,1.67,.05,.16,.09,.42-.14,.83-1.55,2.68,.45,6.57,1.28,7.98l-.17,.35c-.1,.2-.19,.4-.29,.6-.38-.91-1.28-1.56-2.33-1.56-1.39,0-2.52,1.13-2.52,2.52s1.13,2.52,2.52,2.52c.1,0,.2-.02,.3-.03-.26,.29-.47,.52-.57,.62l-2.22,1.49c-.88,.02-1.84,.03-2.28,.02Z"/><path class="cls-32" d="M1811.89,920.18c1.43-.54,2.87-1.04,4.34-1.7-1.59-.17-3.19-.08-4.74,.19-1.55,.27-3.09,.66-4.56,1.21-1.48,.53-2.91,1.19-4.28,1.97-1.37,.77-2.68,1.65-3.84,2.76,1.55-.38,3.02-.85,4.48-1.34,1.46-.49,2.9-.99,4.32-1.51l4.28-1.58Z"/><path class="cls-32" d="M1834.14,915.02c1.25-.2,2.49-.37,3.76-.47,1.27-.08,2.53-.06,3.93-.03-1.12-.82-2.47-1.32-3.85-1.53-1.38-.19-2.8-.17-4.17,.06-1.36,.24-2.69,.67-3.93,1.24-1.24,.58-2.42,1.29-3.41,2.28,1.36-.24,2.64-.52,3.91-.8,1.27-.27,2.52-.52,3.77-.74Z"/><path class="cls-32" d="M1823.82,957.54l.41,.91,3.66-1.64c.23-.1,1.74-.72,3,0l.5-.87c-1.25-.72-2.61-.48-3.37-.25l-1.04-6.46c.62-.22,1.11-.55,1.36-.93,.19-.31,.19-.59,.14-.76-.06-.24-.27-.67-1.04-.84-.44-.09-.98-.07-1.52,.05-1.31,.3-2.13,1.08-1.95,1.84,.13,.57,.77,.9,1.63,.9,.13,0,.26-.01,.4-.02l1.07,6.62-3.25,1.46Zm3.35-9.49c-.13,.09-.31,.17-.54,.25l.54-.25Z"/></g><path class="cls-6" d="M1734.64,1017.86s8-8.88,9.54-18.57"/><path class="cls-6" d="M1792.75,1003.48s-7.96-18.28-15.52-25.84"/></g><g id="Puglas_Linework_copy_11"><g><path class="cls-10" d="M1818.4,941.42c-.84,0-1.52,.68-1.52,1.52s.68,1.52,1.52,1.52,1.52-.68,1.52-1.52-.68-1.52-1.52-1.52Z"/><path class="cls-10" d="M1809.53,902.1c-1.53-4.2-8.73-17.18-38.47-12.87,4.83,2.91,15.23,10.15,20.12,20.86l18.36-7.99Z"/><path class="cls-10" d="M1836.06,890.62c-.94-3.47-6.36-15.65-35.8-14.58,6.68,2.74,18.18,9.14,20.42,21.21l14.44-6.29c.31-.13,.62-.23,.94-.34Z"/><path class="cls-10" d="M1829.12,940.6s-.01-.07-.01-.1c0-1.39,1.13-2.52,2.52-2.52s2.52,1.13,2.52,2.52-1.13,2.52-2.52,2.52c-.04,0-.07,0-.11-.01,.44,.45,.85,.87,1.23,1.27,.05-.01,.09-.03,.15-.04,.35-.1,1.18-.33,1.61-.54-.13-1.41,1.7-2.59,3.49-3.75,.72-.47,1.81-1.17,2-1.47,.15-.25,.09-.6,0-1.18-.14-.8-.34-1.91,.33-3.08-.24-.18-.84-.41-1.16-.52-.69-.25-1.23-.45-1.52-.94-.18-.32-.25-.67-.31-.97-.1-.52-.17-.78-.52-.98-.79-.46-1.01-.96-1.01-1.39-.14-.1-.3-.21-.48-.34-.65-.47-2.61-1.89-3.21-1.91-.24,0-.55,.39-1.02,1.03-.36,.48-.81,1.09-1.42,1.7l-.33,.33c-.15,.15-.26,.26-.33,.33-.07,.24-.2,.58-.58,1.22-.58,1-.59,5-.41,7.74,.38,.37,.74,.73,1.1,1.08Z"/><path class="cls-10" d="M1858.1,879.52c1.83,0,3.33-1.49,3.33-3.33s-1.49-3.33-3.33-3.33-3.33,1.49-3.33,3.33,1.49,3.33,3.33,3.33Z"/><path class="cls-10" d="M1833.16,940.5c0-.84-.68-1.52-1.52-1.52s-1.52,.68-1.52,1.52,.68,1.52,1.52,1.52,1.52-.68,1.52-1.52Z"/><path class="cls-10" d="M1818.71,945.43c-.1,.01-.2,.03-.3,.03-1.39,0-2.52-1.13-2.52-2.52s1.13-2.52,2.52-2.52c1.05,0,1.95,.64,2.33,1.56,.1-.2,.19-.4,.29-.6l.17-.35c-.83-1.41-2.83-5.3-1.28-7.98,.24-.41,.2-.67,.14-.83-.18-.55-.97-1.18-2.11-1.67-.22-.09-.47-.12-.72-.09l-5.68,.85c-.21,.03-.4,.11-.57,.23-.58,.41-1.02,.85-1.24,1.23-.52,.9-2.29,4.2-2.76,5.09v3.64c0,.38,.16,.74,.44,1l2.68,2.44c.18,.16,.4,.28,.64,.32l.25,.05,2.66,2.25c.44,.01,1.4,0,2.28-.02l2.22-1.49c.1-.11,.32-.33,.57-.62Z"/><path class="cls-10" d="M1856.31,917.92l1.55-1.12c-1.96-2.74-5.12-4-6.97-4.53-.06,.53-.12,1.06-.19,1.6,2.9,.6,4.75,2.75,5.62,4.05Z"/><path class="cls-10" d="M1818.71,955.1c1.49,3.83,6.98,6.3,9.61,7.48,.68,.3,1.61,.28,2.04-.5,2.35-4.2,4.74-11.58,4.12-12.73-.25-.44-.89-1.22-1.84-2.27-.84-.61-1.12-1-1.19-1.28-1.34-1.41-3.05-3.13-5.1-5.13-.36-.35-.8-.53-1.27-.53-.11,0-.22,0-.33,.03-.65,.12-1.23,.57-1.53,1.21h0l-.4,.84c-1.88,3.93-5.03,10.5-4.11,12.87Zm6.89-5.62c-.86,0-1.5-.33-1.63-.9-.18-.76,.64-1.53,1.95-1.84,.54-.13,1.08-.15,1.52-.05,.77,.16,.98,.59,1.04,.84,.04,.18,.05,.45-.14,.76-.24,.39-.74,.72-1.36,.93l1.04,6.46c.77-.24,2.12-.48,3.37,.25l-.5,.87c-1.26-.73-2.77-.11-3,0l-3.66,1.64-.41-.91,3.25-1.46-1.07-6.62c-.14,.01-.27,.02-.4,.02Z"/><path class="cls-10" d="M1826.64,948.3c.22-.08,.4-.16,.54-.25l-.54,.25Z"/><path class="cls-10" d="M1851.07,897.75l6.25-16.3c-.95-.14-1.82-.54-2.54-1.12l-5.63,14.04c.83,1.02,1.47,2.16,1.92,3.38Z"/><path class="cls-10" d="M1886.26,1044.53c-27.97,20.21-61.61,24.92-72.36,25.94-.15,1.37-.33,2.74-.52,4.1,10.32-.58,45.3-4.16,74.01-25.98-.39-1.48-.76-2.84-1.12-4.07Z"/><path class="cls-10" d="M1884.38,1038.77c-12.22,12.47-49.28,24.24-69.96,25.46-.08,1.41-.19,2.81-.32,4.21,11.03-1.08,44.15-5.9,71.52-25.93-.42-1.31-.84-2.55-1.25-3.74Z"/><path class="cls-10" d="M1811.96,1033.89c2.12,8.71,2.92,17.99,2.61,27.32,20.58-1.33,58.8-13.56,68.69-25.64-1.2-3.31-2.34-6.17-3.39-8.81-2.88-7.24-5.26-13.24-7.03-23.29-23.97,24.81-50.94,29.53-60.87,30.41Z"/><path class="cls-10" d="M1873.62,965.94c1.68,1.7,7.83,7.88,10.3,9.7,.01,.01,.04,.04,.1,.02,.06-.01,.08-.05,.09-.07l4.86-8.54c.65-1.14,.69-2.52,.1-3.69-.51-1.02-1.09-2.27-1.76-3.7-4.15-8.91-11.04-23.69-21.93-29.27,3.96,10.98,7.57,31.59,8.24,35.54Z"/><path class="cls-10" d="M1853.48,948.42l4.09-6.26-4.99-15.93c-.5,.32-1.09,.73-1.52,1.03-1.1,.77-1.92,1.33-2.62,1.66-.82,4.58-1.78,9.24-2.88,13.73l7.92,5.77Z"/><path class="cls-10" d="M1854.27,952.7l-9.51-6.92c-.21,.79-.42,1.58-.64,2.36,2.79,3.48,3.7,10.16,2.2,16.69-1.47,6.42-4.84,11.14-9.32,13.13l5.25,15.2c1.65-.47,5.28-1.35,9.77-1.58,.3-1.78,.49-3.69,.56-5.13l2,.09c-.02,.45-.14,2.62-.52,4.98,2.42,0,5.01,.2,7.65,.77,.62-2.51,.91-4.68,.91-4.72l1.98,.25c-.02,.16-.31,2.36-.95,4.95,2.77,.79,5.54,2,8.14,3.82-2.27-17.89-2.09-27.96-2.05-29.56-.42-2.47-5.08-29.67-9.43-38.44-1.28-.27-2.61-.41-3.99-.4l4.52,14.43-6.59,10.09Z"/><path class="cls-10" d="M1828.69,969.53c.48,0,.92-.09,1.31-.29,6.52-3.28,12.14-21.93,15.57-41.15l1.07-6.56h0c1.02-6.7,1.75-13.27,2.14-19.07,.21-3.13-1.2-6.07-3.76-7.88-2.57-1.81-5.83-2.14-8.71-.88l-44.87,19.53c-2.19,.95-3.85,2.81-4.54,5.1-.69,2.28-.35,4.73,.93,6.73,12.21,19.05,32.87,44.46,40.85,44.46Zm1.18-55.24c1.24-.57,2.56-1,3.93-1.24,1.37-.24,2.78-.25,4.17-.06,1.38,.21,2.74,.71,3.85,1.53-1.4-.03-2.66-.06-3.93,.03-1.27,.11-2.51,.27-3.76,.47-1.25,.23-2.5,.47-3.77,.74-1.27,.28-2.55,.56-3.91,.8,.99-.98,2.18-1.7,3.41-2.28Zm-31.06,10.32c1.16-1.11,2.48-1.99,3.84-2.76,1.37-.77,2.8-1.43,4.28-1.97,1.47-.55,3.01-.94,4.56-1.21,1.55-.27,3.15-.36,4.74-.19-1.47,.66-2.91,1.16-4.34,1.7l-4.28,1.58c-1.43,.52-2.87,1.02-4.32,1.51-1.46,.49-2.92,.96-4.48,1.34Zm14.22,24.9l-.25-.05-2.72-2.3c-.49-.14-.94-.39-1.32-.74l-2.68-2.44c-.7-.63-1.09-1.54-1.09-2.48v-4.14l.12-.22c.09-.18,2.3-4.31,2.91-5.37,.46-.8,1.25-1.46,1.82-1.86,.43-.3,.91-.5,1.43-.57l5.68-.85c.62-.09,1.25-.01,1.81,.23,1.2,.52,2.74,1.45,3.21,2.88,.26,.8,.16,1.65-.31,2.45-.75,1.3,.06,3.58,.82,5.12,.55-.48,1.22-.82,1.95-.95,.53-.09,1.05-.06,1.55,.06-.09-2.32-.09-6.05,.75-7.5,.33-.58,.38-.74,.38-.75,.08-.45,.23-.6,.85-1.21l.33-.33c.51-.51,.89-1.02,1.23-1.48,.67-.9,1.37-1.84,2.63-1.84,1.13,0,2.65,1.03,4.38,2.29,.32,.23,.58,.42,.72,.5,.49,.28,.73,.71,.7,1.18,1.06,.67,1.26,1.66,1.38,2.26,.01,.07,.03,.16,.05,.23,.14,.06,.35,.14,.5,.19,.91,.33,2.04,.74,2.41,1.75,.13,.36,.21,.94-.2,1.64-.3,.52-.24,1-.1,1.74,.13,.73,.29,1.63-.23,2.53-.39,.67-1.26,1.25-2.64,2.15-.8,.52-2.26,1.46-2.54,1.94,.09,.32,.06,.66-.08,.97-.31,.64-1.05,1.01-2.04,1.33,.08,.05,.17,.11,.25,.16l-.11,.19c.83,.95,1.4,1.66,1.67,2.14,1.54,2.67-2.85,12.44-4.11,14.7-.61,1.1-1.74,1.71-2.97,1.71-.54,0-1.1-.12-1.64-.36-2.88-1.29-8.88-3.98-10.66-8.58-.65-1.68-.15-4.17,.95-7.14l-1.24,.83h-.29c-.64,.03-1.37,.04-1.98,.04-.57,0-1.04-.01-1.24-.05Z"/><path class="cls-10" d="M1888.29,976.34c1.03,1.05,2.69,2.38,4.42,2.61,1.12,.15,2.17-.18,3.21-.99,1.2-.94,1.3-1.7,1.27-2.19-.13-1.99-2.83-4.5-5.07-6.16l-3.83,6.73Z"/><path class="cls-10" d="M1704.44,980.53c.22,.65,1.84,2.06,3.52,3.04,.4,.15,.82,.33,1.24,.52l.02-.03s.09,.06,.13,.09c.48,.22,.98,.47,1.49,.74,.51,.27,1.09,.3,1.54,.11l.18-.55c-2.65-2.6-5.35-4.13-6.6-4.35l-.05,.13c-.1-.04-.2-.1-.3-.14-.04,0-.1,0-.13,0-.65,.18-.94,.35-1.06,.44Z"/><path class="cls-10" d="M1706.54,977.18c2.3,.43,4.92,2.33,6.6,3.75,.2,.04,.39,.08,.55,.1l.44-1.36c-.1-.17-.21-.34-.32-.49-.68-.67-1.3-1.24-1.89-1.75-1.6-1.05-2.54-1.73-3.06-2.24-1.6-.93-2.6-1.04-3.05-.85-.32,.14-.36,.59-.36,.84,.01,.69,.39,1.52,1.08,2Z"/><path class="cls-10" d="M1872.42,1001c-.08-.53-.17-1.05-.25-1.6-2.82-2.34-5.93-3.82-9.05-4.72-.44,1.44-.99,2.87-1.67,4.04l-1.73-1c.58-1,1.06-2.25,1.45-3.52-2.59-.55-5.14-.73-7.5-.7-.41,1.79-1,3.44-1.85,4.28l-1.41-1.41c.48-.48,.87-1.51,1.19-2.79-5.52,.36-9.56,1.72-9.65,1.75l-.95,.33-5.9-17.06c-1.69,.48-3.37,.72-5.03,.72-9.43,0-18.22-7.04-23.75-12.68,4.17,7.14,10.46,15.96,18.01,20.32l1.52,.88-4.59,5.68,1.55,1.41c.83,.75,1.31,1.78,1.36,2.9s-.34,2.19-1.11,3.01c-.81,.88-1.93,1.33-3.05,1.33-.93,0-1.87-.31-2.64-.95l-1.4-1.16-3.18,3.94-.91-.2c-11.12-2.47-22.51-19.67-27.58-28.24-4.05,3.03-16.41,12.52-28.18,24.19-2.4,2.38-5.31,3.4-8.38,2.94-8.05-1.19-15.54-12-18.73-17.23-3.66,4.35-7.82,7.07-10.23,8.41,7.71,12.8,21.49,31.25,29.09,31.25,8.63,0,21.56-6.21,29.93-11.98,1.24-.85,2.41-1.84,3.49-2.94,8.35-8.52,10.81-8.53,11.74-8.54,1.06,.04,1.73,.45,2.11,.84,8,8,13.27,18.2,16.3,29.44,9.55-.8,36.93-5.37,60.97-30.93Z"/><path class="cls-10" d="M1710.68,972.76l.33,.24c.82,.52,1.72,1.19,2.69,2.01,.33,.22,.69,.45,1.11,.71,.46,.29,.74,.4,.9,.44,.02-.05,.04-.11,.06-.19,.21-.92-.12-2.01-.76-2.54-4.37-3.57-6.38-4.13-7.04-4.2,.13,.72,.97,2.29,2.73,3.53Z"/><path class="cls-10" d="M1705.04,991.6c-.07-.04-.14-.08-.21-.12l-9.41,32.03c-.33,1.1,.28,2.26,1.37,2.62,.54,.18,1.12,.14,1.63-.12,.51-.26,.89-.7,1.07-1.24l10.27-31.63c-1.55-.24-3.16-.71-4.72-1.53Z"/><path class="cls-10" d="M1717.25,964.21c.4-.01,.87,.02,1.37,.09l19.33-72.66-6.21-2.32-19.81,78.28c.11,.06,.23,.13,.35,.2,.72-2.03,3.3-3.54,4.98-3.59Z"/><path class="cls-10" d="M1731.3,885.96l9.32,3.48c.74,.28,1.55,.24,2.26-.1,.72-.34,1.25-.94,1.51-1.69l1.15-3.41c-7.11-1.22-11.95-3.21-15.15-5.08l-.89,3.33c-.39,1.45,.38,2.95,1.79,3.48Z"/><path class="cls-10" d="M1909.21,1163.31c-.23-2.19-.45-4.27-.65-6.23-1.46-14.16-2.35-22.7-5.65-28.43l-.18-.32-.06-.36c-.09-.57-8.25-50.8-14.48-76.23-29.73,22.06-65.56,25.36-75.28,25.85-1.49,8.86-3.9,17.5-7.05,25.44l2.46,1.28-1.85,3.54-9.67-5.06-.02,.04c-.57,2.23-3.97,16.47,.79,23.68,8.39,5.01,15.79,8,19.62,8,4.94,0,6.58-1.54,8.47-3.32,.23-.21,.45-.42,.68-.63,12.58-11.41,18.56-30.1,21.78-40.14,.75-2.35,1.35-4.2,1.86-5.45l1.97-4.78,1.76,4.86c4.9,13.52,9.96,22.74,14.02,30.14,5.88,10.73,10.14,18.48,10.14,31.28,0,6.47,1.54,14.84,3.75,23.49,3.63-2.42,11.8-6.23,27.62-6.68Z"/><path class="cls-10" d="M1835.09,975.48c3.95-1.37,6.97-5.5,8.31-11.33,1.02-4.46,.8-9.03-.45-12.09-3.09,9.78-6.96,17.55-11.6,19.88-.73,.37-1.53,.54-2.39,.54-5.44,0-13.25-6.93-20.76-15.39l-4.29,2.3c3.91,4.85,17.95,20.7,31.18,16.1Z"/><path class="cls-10" d="M1916.04,1210.05c-.2-1.06-.39-2.09-.58-3.13-3.2-.17-6.49,.22-7.06,1.21l-2.6-1.5c1.47-2.54,5.93-2.87,9.11-2.75-.41-2.31-.8-4.56-1.16-6.75-2.09,.34-4.64,1-5.82,2.18l-2.12-2.12c1.8-1.8,5.06-2.64,7.46-3.02-.26-1.64-.51-3.23-.74-4.79-2.43,.04-5.73,.45-7.26,1.98l-2.12-2.12c2.25-2.25,6.19-2.79,8.94-2.86-1.09-7.55-1.89-14.21-2.54-20.09-16.99,.44-24.63,4.9-27.12,6.8,5.57,20.61,14.27,41.77,14.4,42.08l.15,.37v19.5c.24,2.37,11.32,12.26,22.88,16.39,3.14,1.12,8.79,2.62,11.4,.02,3.99-3.99-.84-12.27-5.95-21.04-3.92-6.72-7.97-13.67-9.24-20.36Z"/><path class="cls-10" d="M1780.63,1108.33l2.89,.79c-.67,2.48-.42,5.73-.18,7.54,.65,.52,1.29,1.02,1.94,1.52-.11-1.94-.06-4.28,.49-6.31l2.89,.79c-.72,2.67-.37,6.24-.13,7.93,1.09,.79,2.19,1.55,3.27,2.28-2.15-9.29,1.01-20.8,1.17-21.4l.09-.31,.15-.22-13.48-7.05-.02,.03c-.14-.08-.29-.18-.44-.27l-.19-.1h0c-1.19-.75-2.58-1.73-4.18-2.87-3.38-2.4-7.58-5.39-10.63-6.41-.62-.21-1.92-.26-2.93,.47-1.3,.94-1.58,2.8-1.58,4.2v1.57c-.02,12.76-.05,34.11,10.08,37.91,1.25,.47,1.83,.21,2.2-.07,2.38-1.8,2.88-9.66,2.48-14.68l-.4-5,3.73,3.35c.74,.66,1.49,1.32,2.24,1.96-.06-1.8,.03-3.86,.51-5.66Z"/><path class="cls-10" d="M1748.9,874.32c-7.56-1.28-12.56-3.42-15.77-5.38l-1.92,7.18c2.9,1.83,7.7,3.98,15.31,5.24l2.38-7.04Z"/><path class="cls-10" d="M1789.67,1064.07l1.84,9.57,6.38-9.36,9.05-33.72c-1.36-4.46-3.12-8.72-5.3-12.7l-11.97,46.21Z"/><path class="cls-10" d="M1811.66,1000.63l3.64-4.5c-14.81-10.51-22.12-25.65-24.29-30.81l-6.16,5.11c2.8,5.08,15.3,26.71,26.81,30.21Z"/><path class="cls-10" d="M1751.08,867.87c.51-1.5-.3-3.16-1.8-3.68l-10.66-3.72c-.32-.11-.64-.17-.96-.17-.47,0-.93,.11-1.36,.34-.72,.38-1.24,1.03-1.45,1.82l-.91,3.42c2.86,1.91,7.81,4.24,15.93,5.56l1.21-3.57Z"/><path class="cls-10" d="M1821.6,999.46c.4-.43,.6-.98,.57-1.56-.03-.58-.28-1.11-.71-1.5l-1.47-1.33-2.76,3.42,1.42,1.17c.88,.72,2.17,.64,2.95-.2Z"/><path class="cls-10" d="M1816.56,994.56l4.79-5.93c-11.69-7.69-19.96-24.25-22.5-29.83l-6.23,5.17c1.73,4.29,8.84,19.92,23.94,30.59Z"/><path class="cls-10" d="M1715.45,968.29c-.31,.33-.37,.56-.37,.6,0,0,.35,.69,2.97,1.18,3.81,.71,3.51,7.74,3.2,10.73l-2.98-.31c.11-1.05,.14-2.07,.13-3.01-.21,.45-.46,.78-.73,1.02l-.3,.93c.43,1.08,.63,2.34-.04,3.36-.35,.54-.85,.87-1.39,1.06l-.1,.3c.2,.89-.05,1.81-.77,2.58-.03,.03-.06,.05-.09,.09l-1.13,3.47c2.52-.18,4.36-.84,4.4-.85l.03,.08c2.14-1.35,5.04-3.52,7.65-6.6-1.04-1.76-2.35-5.04-2.66-10.68-.27-5.01-5.83-5.03-5.9-5.04-.38,.01-1.31,.44-1.91,1.09Z"/><path class="cls-10" d="M1707.21,989.31c1.59-.19,2.14-.52,2.28-.64-.1-.41-.85-1.26-1.67-1.91-2.9-1.28-4.2-1-4.38-.83-.05,.24,.5,1.71,3,3.02,.25,.13,.51,.25,.77,.36Z"/><path class="cls-32" d="M1928.73,1228.4c-3.75-6.43-7.62-13.08-8.77-19.09-4.38-23.1-6.15-40.17-7.44-52.64-1.49-14.44-2.4-23.25-5.98-29.69-.94-5.75-10.81-66.02-17-85.33-2.19-6.84-4.2-11.89-5.98-16.35-3.38-8.48-6.04-15.19-7.81-29.14-1.45-11.39-1.88-19.65-2-24.41,2.58,2.54,5.96,5.78,7.77,7.12,.95,.7,2.16,.96,3.31,.72,.27-.06,.52-.15,.77-.25,1.39,1.37,3.72,3.2,6.54,3.59,.37,.05,.73,.07,1.09,.07,1.81,0,3.54-.63,5.13-1.88,2.49-1.95,2.89-4.12,2.79-5.61-.29-4.37-5.34-8.25-7.73-9.85,.09-1.39-.16-2.79-.8-4.07-.5-.99-1.06-2.21-1.71-3.59-5.3-11.39-16.23-34.83-35.84-33.76l-.05-.16c-.17-.56-.58-1-1.13-1.18-1.22-.42-2.56,.51-4.58,1.92-.07,.05-.13,.09-.21,.15l.48-2.92h-.03c.32-2.11,.61-4.17,.87-6.15,3.08,.75,4.65,3.91,4.67,3.94l.52,1.08,4.9-3.56-.45-.78c-2.36-4.08-6.71-5.71-8.97-6.3,.3-2.79,.53-5.36,.68-7.58,.03-.41,.02-.82,0-1.22l7.72-20.14c2.25-.62,3.92-2.67,3.92-5.11,0-2.94-2.39-5.33-5.33-5.33s-5.33,2.39-5.33,5.33c0,.84,.21,1.63,.56,2.34l-5.73,14.29c-.28-.23-.55-.47-.85-.68-2.6-1.83-5.72-2.52-8.75-2.03-.46-1.78-1.78-5.17-5.58-8.4-5.07-4.32-15.65-9.12-37.31-7.37l-5.83,.47,5.65,1.5c.22,.06,21.21,5.81,23.84,21.77l-7.47,3.25c-2-4.98-10.7-19.28-43.43-13.61l-2.97,.52,2.69,1.36c.16,.08,15.7,8.06,21.76,21.35-2.56,1.39-4.48,3.73-5.33,6.54-.95,3.12-.49,6.48,1.27,9.22,.18,.28,9.94,15.31,20.86,28.06l-4.71,2.53c-.41-.9-.64-1.44-.65-1.48l-.78-1.88-18.98,15.74,.56,1.07c.07,.13,.32,.6,.7,1.31-3.69,2.74-16.67,12.62-29,24.85-1.51,1.5-3.14,2.1-4.97,1.83-6.15-.91-13.73-11.15-17.33-17.81l-1.55-2.87-1.53,2.22c-.7-1.59-1.46-4.18-1.68-8.18-.2-3.72-2.41-5.84-4.75-6.93l19.31-72.61c.27,.04,.55,.07,.83,.07,.86,0,1.72-.19,2.53-.58,1.46-.69,2.54-1.91,3.06-3.44l1.33-3.92c.92,.12,1.86,.23,2.85,.32l.28-2.99c-.74-.07-1.45-.15-2.15-.23l2.38-7.02c.87,.11,1.75,.21,2.68,.3l.28-2.99c-.68-.06-1.33-.14-1.98-.21l1.03-3.03c1.04-3.06-.6-6.41-3.65-7.47l-10.66-3.72c-1.55-.54-3.26-.41-4.71,.36-1.45,.77-2.52,2.11-2.94,3.69l-.57,2.15c-.62-.61-.88-1-.89-1.01l-1.27,.8-1.28,.78c.08,.12,.78,1.22,2.57,2.69l-1.89,7.08c-.92-.83-1.3-1.39-1.31-1.41l-1.27,.8-1.28,.78c.08,.13,.89,1.4,3,3.03l-1.15,4.32c-.66,2.47,.34,4.98,2.36,6.37l-19.83,78.33c-1.01-.26-1.86-.26-2.56,.03-.91,.37-1.5,1.16-1.62,2.18-.1,.81,.14,1.75,.6,2.7-.34,.05-.66,.14-.93,.26-1.4,.6-2.21,1.97-2.17,3.66,.02,.9,.29,1.78,.72,2.56-1.03,.56-1.62,1.33-1.74,2.3-.13,1.04,.35,2.04,1.09,2.94-.23,.09-.45,.19-.66,.32-.94,.58-1.46,1.57-1.41,2.69,.04,1.18,.7,2.41,1.79,3.52l-9.72,33.09c-.78,2.66,.67,5.43,3.3,6.31,.53,.18,1.08,.27,1.63,.27,.79,0,1.58-.19,2.31-.55,1.23-.62,2.14-1.69,2.57-3l10.5-32.35c.33,0,.66-.02,.97-.04l.44,.75c2.09,3.59,20.76,35.06,33.62,35.06,10.89,0,25.37-7.97,32.2-12.69,1.45-1,2.82-2.15,4.08-3.44,4.83-4.93,7.55-6.8,8.6-7.24,2.86,2.92,5.33,6.16,7.46,9.63l-12.59,48.62,2.83,14.73,9.28-13.62,8.26-30.77c5.34,21.27,2.35,46.35-5.71,66.82l-21.02-10.99c-1.1-.68-2.51-1.68-4.02-2.75-3.78-2.69-8.06-5.73-11.67-6.94-1.61-.54-4.29-.6-6.54,1.02-1.48,1.06-3.25,3.22-3.25,7.45v1.56c-.02,13.8-.05,36.89,12.68,41.66,2.86,1.07,4.85,.25,6.01-.63,3.38-2.55,4.13-8.96,4.2-13.54,13.71,11.39,30.62,20.52,38.49,20.52,6.52,0,9.12-2.44,11.21-4.4,.21-.2,.42-.39,.63-.59,13.38-12.13,19.57-31.48,22.9-41.88h0c4.36,11.01,8.71,18.94,12.29,25.47,5.81,10.59,9.64,17.58,9.64,29.36,0,22.52,17.18,65.11,19.12,69.85v18.71c0,5.1,13.14,15.08,23.5,19.37,3.99,1.65,7.49,2.48,10.42,2.48s5.44-.87,7.18-2.61c6.17-6.17,.59-15.74-5.33-25.88Zm-114.31-164.17c20.67-1.22,57.74-12.99,69.96-25.46,.41,1.19,.83,2.43,1.25,3.74-27.37,20.03-60.49,24.85-71.52,25.93,.13-1.4,.23-2.81,.32-4.21Zm-.53,6.24c10.75-1.02,44.39-5.73,72.36-25.94,.36,1.23,.74,2.59,1.12,4.07-28.7,21.82-63.68,25.39-74.01,25.98,.2-1.36,.37-2.73,.52-4.1Zm69.36-34.89c-9.88,12.08-48.11,24.31-68.69,25.64,.31-9.34-.49-18.62-2.61-27.32,9.93-.89,36.9-5.61,60.87-30.41,1.77,10.05,4.15,16.05,7.03,23.29,1.05,2.64,2.19,5.5,3.39,8.81Zm13.93-59.81c.03,.49-.06,1.25-1.27,2.19-1.04,.82-2.09,1.14-3.21,.99-1.73-.23-3.4-1.57-4.42-2.61l3.83-6.73c2.24,1.65,4.94,4.17,5.07,6.16Zm-9.88-16.09c.66,1.42,1.25,2.68,1.76,3.7,.58,1.17,.54,2.55-.1,3.69l-4.86,8.54s-.03,.06-.09,.07c-.06,.01-.09-.01-.1-.02-2.47-1.82-8.62-8-10.3-9.7-.67-3.95-4.28-24.56-8.24-35.54,10.89,5.58,17.79,20.37,21.93,29.27Zm-26.99-31.09c4.35,8.78,9.01,35.98,9.43,38.44-.05,1.6-.22,11.67,2.05,29.56-2.6-1.82-5.37-3.03-8.14-3.82,.65-2.59,.93-4.79,.95-4.95l-1.98-.25s-.29,2.21-.91,4.72c-2.64-.57-5.23-.78-7.65-.77,.38-2.36,.5-4.53,.52-4.98l-2-.09c-.07,1.43-.25,3.34-.56,5.13-4.49,.23-8.12,1.11-9.77,1.58l-5.25-15.2c4.48-1.99,7.85-6.71,9.32-13.13,1.5-6.53,.58-13.2-2.2-16.69,.22-.78,.43-1.56,.64-2.36l9.51,6.92,6.59-10.09-4.52-14.43c1.38,0,2.71,.13,3.99,.4Zm-9.26-1.32c.43-.3,1.02-.71,1.52-1.03l4.99,15.93-4.09,6.26-7.92-5.77c1.1-4.49,2.06-9.14,2.88-13.73,.7-.33,1.53-.9,2.62-1.66Zm6.26-45.81l-6.25,16.3c-.45-1.22-1.09-2.36-1.92-3.38l5.63-14.04c.72,.58,1.58,.98,2.54,1.12Zm.54,35.36l-1.55,1.12c-.87-1.3-2.71-3.45-5.62-4.05,.07-.54,.13-1.07,.19-1.6,1.85,.53,5.01,1.79,6.97,4.53Zm.25-43.93c1.83,0,3.33,1.49,3.33,3.33s-1.49,3.33-3.33,3.33-3.33-1.49-3.33-3.33,1.49-3.33,3.33-3.33Zm-57.84,3.16c29.44-1.07,34.86,11.11,35.8,14.58-.31,.11-.63,.2-.94,.34l-14.44,6.29c-2.24-12.07-13.74-18.47-20.42-21.21Zm-29.21,13.2c29.74-4.31,36.94,8.67,38.47,12.87l-18.36,7.99c-4.88-10.71-15.28-17.95-20.12-20.86Zm15.86,29.11c.7-2.29,2.35-4.15,4.54-5.1l44.87-19.53c2.88-1.25,6.14-.93,8.71,.88,2.56,1.8,3.97,4.75,3.76,7.88-.39,5.8-1.12,12.37-2.14,19.07h0l-1.07,6.56c-3.43,19.22-9.05,37.87-15.57,41.15-.39,.19-.82,.29-1.31,.29-7.98,0-28.65-25.41-40.85-44.46-1.28-2-1.62-4.45-.93-6.73Zm21.28,38.73c7.52,8.46,15.33,15.39,20.76,15.39,.86,0,1.66-.17,2.39-.54,4.64-2.33,8.51-10.09,11.6-19.88,1.25,3.06,1.47,7.63,.45,12.09-1.34,5.83-4.37,9.96-8.31,11.33-13.23,4.6-27.27-11.26-31.18-16.1l4.29-2.3Zm13.15,31.56l-4.79,5.93c-15.1-10.67-22.21-26.31-23.94-30.59l6.23-5.17c2.55,5.58,10.81,22.14,22.5,29.83Zm-1.35,6.44l1.47,1.33c.43,.39,.68,.92,.71,1.5,.02,.58-.18,1.13-.57,1.56-.77,.83-2.07,.92-2.95,.2l-1.42-1.17,2.76-3.42Zm-29-29.76c2.17,5.17,9.48,20.3,24.29,30.81l-3.64,4.5c-11.51-3.5-24.01-25.13-26.81-30.21l6.16-5.11Zm-67.75,6.94c.31,5.64,1.62,8.92,2.66,10.68-2.61,3.08-5.52,5.25-7.65,6.6l-.03-.08s-1.88,.66-4.4,.85l1.13-3.47s.07-.05,.09-.09c.72-.77,.97-1.69,.77-2.58l.1-.3c.54-.19,1.04-.52,1.39-1.06,.67-1.03,.47-2.29,.04-3.36l.3-.93c.27-.24,.53-.57,.73-1.02,.02,.94-.02,1.97-.13,3.01l2.98,.31c.31-2.99,.61-10.03-3.2-10.73-2.62-.49-2.97-1.18-2.97-1.18,0-.04,.06-.26,.37-.6,.6-.64,1.53-1.07,1.91-1.09,.07,0,5.62,.03,5.9,5.04Zm-19.81,13.68c.18-.17,1.48-.45,4.38,.83,.81,.64,1.57,1.5,1.67,1.91-.14,.12-.69,.45-2.28,.64-.26-.11-.52-.22-.77-.36-2.5-1.32-3.05-2.78-3-3.02Zm2.49-5.69l.05-.13c1.25,.22,3.95,1.75,6.6,4.35l-.18,.55c-.46,.19-1.04,.17-1.54-.11-.51-.27-1.01-.52-1.49-.74-.05-.03-.09-.07-.13-.09l-.02,.03c-.43-.19-.84-.37-1.24-.52-1.68-.98-3.31-2.39-3.52-3.04,.11-.09,.4-.27,1.06-.44,.03,0,.09,0,.13,0,.1,.05,.2,.1,.3,.14Zm28.93-117.76c.21-.79,.73-1.44,1.45-1.82,.43-.23,.89-.34,1.36-.34,.32,0,.65,.05,.96,.17l10.66,3.72c1.5,.52,2.31,2.17,1.8,3.68l-1.21,3.57c-8.12-1.32-13.07-3.65-15.93-5.56l.91-3.42Zm-1.73,6.47c3.21,1.97,8.21,4.1,15.77,5.38l-2.38,7.04c-7.61-1.26-12.41-3.4-15.31-5.24l1.92-7.18Zm12.41,15.3l-1.15,3.41c-.25,.75-.79,1.35-1.51,1.69-.72,.34-1.52,.38-2.26,.1l-9.32-3.48c-1.41-.53-2.18-2.02-1.79-3.48l.89-3.33c3.2,1.87,8.03,3.86,15.15,5.08Zm-13.8,5.09l6.21,2.32-19.33,72.66c-.5-.07-.97-.1-1.37-.09-1.67,.06-4.25,1.57-4.98,3.59-.12-.07-.23-.14-.35-.2l19.81-78.28Zm-16.75,84.1c.65,.53,.98,1.62,.76,2.54-.02,.08-.04,.15-.06,.19-.15-.04-.44-.15-.9-.44-.41-.26-.78-.5-1.11-.71-.98-.83-1.87-1.49-2.69-2.01l-.33-.24c-1.76-1.25-2.6-2.82-2.73-3.53,.66,.08,2.67,.64,7.04,4.2Zm-9.18,.91c.45-.19,1.45-.07,3.05,.85,.52,.52,1.45,1.2,3.06,2.24,.59,.51,1.22,1.08,1.89,1.75,.11,.16,.22,.32,.32,.49l-.44,1.36c-.16-.02-.35-.06-.55-.1-1.68-1.41-4.3-3.32-6.6-3.75-.69-.48-1.07-1.31-1.08-2,0-.26,.03-.71,.36-.84Zm-6.33,50.43c-.18,.54-.55,.99-1.07,1.24-.51,.26-1.09,.3-1.63,.12-1.09-.36-1.69-1.52-1.37-2.62l9.41-32.03c.07,.04,.14,.09,.21,.12,1.56,.82,3.17,1.29,4.72,1.53l-10.27,31.63Zm93.55-23.11c-.93,0-3.4,.02-11.74,8.54-1.08,1.1-2.25,2.09-3.49,2.94-8.37,5.77-21.31,11.98-29.93,11.98-7.59,0-21.38-18.45-29.09-31.25,2.41-1.35,6.58-4.06,10.23-8.41,3.19,5.23,10.68,16.03,18.73,17.23,3.07,.45,5.98-.56,8.38-2.94,11.77-11.67,24.13-21.17,28.18-24.19,5.07,8.58,16.46,25.77,27.58,28.24l.91,.2,3.18-3.94,1.4,1.16c.77,.63,1.71,.95,2.64,.95,1.12,0,2.23-.45,3.05-1.33,.76-.82,1.16-1.89,1.11-3.01s-.53-2.15-1.36-2.9l-1.55-1.41,4.59-5.68-1.52-.88c-7.55-4.36-13.83-13.17-18.01-20.32,5.53,5.64,14.32,12.68,23.75,12.68,1.66,0,3.34-.24,5.03-.72l5.9,17.06,.95-.33c.09-.03,4.13-1.4,9.65-1.75-.32,1.28-.72,2.31-1.19,2.79l1.41,1.41c.85-.85,1.44-2.5,1.85-4.28,2.36-.03,4.91,.15,7.5,.7-.39,1.27-.87,2.51-1.45,3.52l1.73,1c.68-1.17,1.23-2.6,1.67-4.04,3.12,.89,6.23,2.38,9.05,4.72,.08,.55,.16,1.08,.25,1.6-24.04,25.57-51.42,30.13-60.97,30.93-3.03-11.24-8.3-21.44-16.3-29.44-.38-.38-1.05-.8-2.11-.84Zm4.85,62.62l-6.38,9.36-1.84-9.57,11.97-46.21c2.18,3.98,3.93,8.24,5.3,12.7l-9.05,33.72Zm-20.01,47.76l-3.73-3.35,.4,5c.4,5.01-.1,12.88-2.48,14.68-.37,.28-.95,.54-2.2,.07-10.13-3.8-10.1-25.15-10.08-37.91v-1.57c0-1.4,.28-3.26,1.58-4.2,1.02-.73,2.31-.68,2.93-.47,3.05,1.03,7.25,4.01,10.63,6.41,1.6,1.13,2.99,2.12,4.18,2.86h0l.19,.11c.14,.09,.3,.19,.44,.27l.02-.03,13.48,7.05-.15,.22-.09,.31c-.17,.6-3.32,12.11-1.17,21.4-1.09-.73-2.18-1.5-3.27-2.28-.24-1.7-.59-5.27,.13-7.93l-2.89-.79c-.55,2.02-.59,4.37-.49,6.31-.65-.5-1.3-1-1.94-1.52-.23-1.81-.49-5.05,.18-7.54l-2.89-.79c-.49,1.8-.58,3.86-.51,5.66-.75-.64-1.5-1.29-2.24-1.96Zm89.83,3.17c-4.06-7.41-9.12-16.63-14.02-30.14l-1.76-4.86-1.97,4.78c-.51,1.25-1.11,3.11-1.86,5.45-3.21,10.04-9.2,28.73-21.78,40.14-.23,.21-.46,.42-.68,.63-1.9,1.78-3.54,3.32-8.47,3.32-3.83,0-11.23-2.99-19.62-8-4.75-7.21-1.36-21.45-.79-23.68l.02-.04,9.67,5.06,1.85-3.54-2.46-1.28c3.16-7.94,5.56-16.58,7.05-25.44,9.71-.49,45.54-3.8,75.28-25.85,6.23,25.42,14.39,75.65,14.48,76.23l.06,.36,.18,.32c3.3,5.72,4.19,14.27,5.65,28.43,.2,1.96,.42,4.04,.65,6.23-15.81,.45-23.98,4.25-27.62,6.68-2.21-8.66-3.75-17.02-3.75-23.49,0-12.8-4.25-20.55-10.14-31.28Zm63.53,136.24c-2.61,2.6-8.26,1.11-11.4-.02-11.56-4.13-22.64-14.02-22.88-16.39v-19.5l-.15-.37c-.13-.31-8.83-21.47-14.4-42.08,2.5-1.9,10.14-6.35,27.12-6.8,.65,5.88,1.45,12.53,2.54,20.09-2.75,.07-6.69,.61-8.94,2.86l2.12,2.12c1.54-1.54,4.83-1.95,7.26-1.98,.24,1.56,.48,3.16,.74,4.79-2.4,.38-5.66,1.22-7.46,3.02l2.12,2.12c1.18-1.18,3.73-1.84,5.82-2.18,.36,2.18,.75,4.44,1.16,6.75-3.18-.12-7.64,.21-9.11,2.75l2.6,1.5c.57-.99,3.86-1.37,7.06-1.21,.19,1.03,.38,2.07,.58,3.13,1.27,6.69,5.32,13.64,9.24,20.36,5.11,8.77,9.94,17.05,5.95,21.04Z"/><path class="cls-32" d="M1816.55,949.52l1.24-.83c-1.1,2.97-1.6,5.46-.95,7.14,1.78,4.6,7.78,7.29,10.66,8.58,.54,.24,1.1,.36,1.64,.36,1.23,0,2.35-.61,2.97-1.71,1.26-2.26,5.65-12.03,4.11-14.7-.28-.48-.84-1.2-1.67-2.14l.11-.19c-.08-.05-.17-.1-.25-.16,.99-.32,1.74-.7,2.04-1.33,.15-.31,.18-.65,.08-.97,.28-.48,1.74-1.43,2.54-1.94,1.39-.9,2.26-1.48,2.64-2.15,.52-.9,.36-1.8,.23-2.53-.13-.74-.2-1.22,.1-1.74,.4-.7,.33-1.27,.2-1.64-.37-1-1.5-1.42-2.41-1.75-.15-.06-.36-.13-.5-.19-.02-.07-.03-.16-.05-.23-.12-.6-.32-1.6-1.38-2.26,.03-.47-.21-.9-.7-1.18-.14-.08-.4-.27-.72-.5-1.73-1.25-3.25-2.29-4.38-2.29-1.26,0-1.96,.93-2.63,1.84-.34,.46-.72,.97-1.23,1.48l-.33,.33c-.62,.62-.77,.76-.85,1.21,0,0-.04,.17-.38,.75-.84,1.45-.84,5.18-.75,7.5-.5-.12-1.03-.16-1.55-.06-.73,.13-1.39,.47-1.95,.95-.76-1.54-1.57-3.82-.82-5.12,.47-.81,.57-1.66,.31-2.45-.47-1.43-2-2.36-3.21-2.88-.56-.24-1.19-.32-1.81-.23l-5.68,.85c-.52,.08-1,.27-1.43,.57-.58,.41-1.36,1.06-1.82,1.86-.61,1.06-2.82,5.19-2.91,5.37l-.12,.22v4.14c0,.94,.4,1.84,1.09,2.48l2.68,2.44c.38,.34,.83,.6,1.32,.74l2.72,2.3,.25,.05c.2,.04,.67,.05,1.24,.05,.61,0,1.34-.02,1.98-.04h.29Zm1.85-5.07c-.84,0-1.52-.68-1.52-1.52s.68-1.52,1.52-1.52,1.52,.68,1.52,1.52-.68,1.52-1.52,1.52Zm10.03-12.68c.37-.64,.51-.98,.58-1.22,.07-.07,.18-.17,.33-.33l.33-.33c.61-.61,1.06-1.21,1.42-1.7,.48-.64,.78-1.03,1.02-1.03,.6,.02,2.56,1.44,3.21,1.91,.18,.13,.34,.24,.48,.34,0,.43,.22,.93,1.01,1.39,.35,.2,.42,.46,.52,.98,.06,.31,.13,.65,.31,.97,.29,.49,.83,.69,1.52,.94,.31,.11,.92,.34,1.16,.52-.67,1.18-.48,2.28-.33,3.08,.1,.58,.16,.93,0,1.18-.18,.3-1.27,1-2,1.47-1.78,1.15-3.62,2.34-3.49,3.75-.43,.21-1.26,.44-1.61,.54-.06,.02-.1,.03-.15,.04-.38-.4-.79-.82-1.23-1.27,.04,0,.07,.01,.11,.01,1.39,0,2.52-1.13,2.52-2.52s-1.13-2.52-2.52-2.52-2.52,1.13-2.52,2.52c0,.04,0,.07,.01,.1-.35-.35-.72-.71-1.1-1.08-.18-2.74-.17-6.74,.41-7.74Zm1.68,8.72c0-.84,.68-1.52,1.52-1.52s1.52,.68,1.52,1.52-.68,1.52-1.52,1.52-1.52-.68-1.52-1.52Zm-6.89,.9c.3-.64,.88-1.09,1.53-1.21,.11-.02,.22-.03,.33-.03,.47,0,.91,.18,1.27,.53,2.05,2,3.76,3.72,5.1,5.13,.08,.28,.35,.67,1.19,1.28,.95,1.05,1.59,1.83,1.84,2.27,.61,1.15-1.77,8.52-4.12,12.73-.43,.78-1.36,.8-2.04,.5-2.64-1.18-8.13-3.65-9.61-7.48-.92-2.37,2.23-8.94,4.11-12.87l.4-.84h0Zm-9.59,6.17l-2.66-2.25-.25-.05c-.24-.05-.46-.16-.64-.32l-2.68-2.44c-.28-.26-.44-.62-.44-1v-3.64c.47-.89,2.25-4.19,2.76-5.09,.22-.38,.66-.82,1.24-1.23,.17-.12,.36-.2,.57-.23l5.68-.85c.25-.04,.5,0,.72,.09,1.14,.5,1.93,1.12,2.11,1.67,.05,.16,.09,.42-.14,.83-1.55,2.68,.45,6.57,1.28,7.98l-.17,.35c-.1,.2-.19,.4-.29,.6-.38-.91-1.28-1.56-2.33-1.56-1.39,0-2.52,1.13-2.52,2.52s1.13,2.52,2.52,2.52c.1,0,.2-.02,.3-.03-.26,.29-.47,.52-.57,.62l-2.22,1.49c-.88,.02-1.84,.03-2.28,.02Z"/><path class="cls-32" d="M1811.89,920.18c1.43-.54,2.87-1.04,4.34-1.7-1.59-.17-3.19-.08-4.74,.19-1.55,.27-3.09,.66-4.56,1.21-1.48,.53-2.91,1.19-4.28,1.97-1.37,.77-2.68,1.65-3.84,2.76,1.55-.38,3.02-.85,4.48-1.34,1.46-.49,2.9-.99,4.32-1.51l4.28-1.58Z"/><path class="cls-32" d="M1834.14,915.02c1.25-.2,2.49-.37,3.76-.47,1.27-.08,2.53-.06,3.93-.03-1.12-.82-2.47-1.32-3.85-1.53-1.38-.19-2.8-.17-4.17,.06-1.36,.24-2.69,.67-3.93,1.24-1.24,.58-2.42,1.29-3.41,2.28,1.36-.24,2.64-.52,3.91-.8,1.27-.27,2.52-.52,3.77-.74Z"/><path class="cls-32" d="M1823.82,957.54l.41,.91,3.66-1.64c.23-.1,1.74-.72,3,0l.5-.87c-1.25-.72-2.61-.48-3.37-.25l-1.04-6.46c.62-.22,1.11-.55,1.36-.93,.19-.31,.19-.59,.14-.76-.06-.24-.27-.67-1.04-.84-.44-.09-.98-.07-1.52,.05-1.31,.3-2.13,1.08-1.95,1.84,.13,.57,.77,.9,1.63,.9,.13,0,.26-.01,.4-.02l1.07,6.62-3.25,1.46Zm3.35-9.49c-.13,.09-.31,.17-.54,.25l.54-.25Z"/></g><path class="cls-6" d="M1734.64,1017.86s8-8.88,9.54-18.57"/><path class="cls-6" d="M1792.75,1003.48s-7.96-18.28-15.52-25.84"/></g><g id="Bubble"><path class="cls-8" d="M1936.75,888.37c82.16-40.37,104.27-42.61,104.27-42.61l-1.09-96.65,104.97-105.34,111.87,28.4,202.16-76.52,107.26,126.31-21.22,163.88-245.61,101.32-231.99-11.33-22.59-71.62s-29.45-24.03-108.02-15.84Z"/></g><g id="Bubble_Text"><text class="cls-22" transform="translate(2101.99 780.15) rotate(-9.4)"><tspan x="0" y="0">I really need</tspan><tspan x="102.74" y="79.2">to get</tspan><tspan x="13.81" y="158.4">out of here!</tspan></text></g></g></g></svg>