<?xml version="1.0" encoding="UTF-8"?><svg id="Layer_2" xmlns="http://www.w3.org/2000/svg" viewBox="0 0 660.83 381.97"><defs><style>.cls-1{fill:#fff;}.cls-2{font-family:ComicSansMS, 'Comic Sans MS';font-size:50px;}</style></defs><g id="Page_2"><g id="Panel_3"><g id="Bubbles"><g><path class="cls-1" d="M302.26,23.28c4.35-6.39,12.78-13.45,18.56-8.32,2.2,1.96,2.91,5.09,4.67,7.46,4.97,6.66,15.39,4.65,22.95,1.19s16.44-7.7,23.65-3.57c4.17,2.39,6.76,7.21,11.3,8.78,8.92,3.08,17.05-8.2,26.47-7.75,8.98,.43,15.73,11.36,24.55,9.62,6.31-1.25,10.02-8.61,16.34-9.84,6.62-1.28,12.69,4.74,19.44,4.65,9.62-.13,16.44-12.36,25.97-11.06,9.6,1.31,15.37,15.87,24.66,13.15,4.4-1.29,6.99-6.24,11.4-7.5,9.98-2.85,14.42,13.61,24.19,17.12,10.25,3.68,24.21-7.72,31.19,.65,7.63,9.14-8.57,26.2,.78,33.57,4.32,3.4,12.73,2.77,13.33,8.23,.25,2.29-1.3,4.36-1.75,6.61-2,10.13,15.56,11.55,20.82,20.44,4.43,7.5-1.17,18.78,4.86,25.07,3.41,3.56,9.68,4.25,11.54,8.81,2.73,6.72-6.86,11.94-8.79,18.93-3.47,12.54,17.18,17.97,21.65,30.19,2.28,6.23-.15,13.06-.97,19.64s1.29,14.89,7.75,16.37c-1.75,7.17-15.06,2.9-18.77,9.29-3.62,6.24,6.2,11.83,8.27,18.74,1.94,6.44-3.24,12.57-7.31,17.93s-7,13.81-1.83,18.12c-15.51-4.15-33.02,9.72-32.52,25.77l-14.05-8.08-18.7,28.48c-1.32,2.01-2.96,4.22-5.35,4.43-2.74,.24-4.9-2.25-7.49-3.16-6.37-2.23-11.61,5.15-14.68,11.16s-9.73,12.75-15.38,9.06c-2.84-1.86-3.85-5.75-6.75-7.51-5.06-3.06-11.04,2.34-13.99,7.47s-6.75,11.46-12.65,10.95c-5.95-.52-9.24-7.97-15.11-9.08-10.51-1.99-15.35,16.69-26.03,16.18-4.5-.22-7.93-3.9-11.89-6.05-2.95-1.6-6.27-2.35-9.54-3.09-11.37-2.56-24.48-4.77-33.67,2.39-2.67,2.08-5.09,4.98-8.46,5.33-4.81,.5-8.23-4.3-12.11-7.2-9.31-6.94-25.05-.78-27.16,10.65-8.42-8.87-21.54-18.36-31.52-11.28-3.65,2.59-6.01,7.1-10.29,8.42-11.03,3.39-16.6-16.5-28.11-17.17-9.45-.54-15.87,12.39-25.27,11.26-5.1-.61-8.62-5.17-12.36-8.69s-9.82-6.21-13.74-2.88c-3.5,2.97-2.78,8.75-5.54,12.42-8,10.65-28.2-8.99-37.1,.91-1.58,1.76-2.34,4.17-4.09,5.75-5.19,4.69-13.01-1.17-17.4-6.62-3.78,6.4-12.91,6.45-20.23,5.2-18.22-3.12-13.36-11.57-26.43-24.64-9.17-9.17-32.44,1.95-36.35,1.94-3.33,0-6.44-25.59-9.66-24.73-15.9,4.27-33.32,14.8-29.84-1.29,1.13-5.23,4.02-10.29,3.25-15.58-1.83-12.7-8.8-19.05-20.77-23.68-2.04-.79-4.17-1.98-4.89-4.04-.99-2.87,2.38-11.87,3.86-14.52,10.16-18.11-22.41-28.53-17.22-48.63,1.69-6.54,6.11-12.74,5.02-19.41-1.3-7.86-10.02-13.81-8.95-21.7,1.6-11.76,23.36-16.24,19.28-27.38-1.81-4.93-8.6-7.76-8.16-12.99,.44-5.27,7.45-6.68,11.27-10.34,10.53-10.11-6.8-31.72,4.19-41.34,4.15-3.63,11.51-4.24,12.9-9.58,.79-3.04-.93-6.11-1.38-9.22-1.08-7.57,5.62-14.17,12.67-17.13s14.96-3.75,21.69-7.38c8.83-4.76,14.6-13.79,23-19.27,8.4-5.48,22.58-5.02,25.5,4.57,4.23-9.78,12.56-21.53,22.6-17.97,7.18,2.54,11,12.38,18.62,12.36,6.47-.01,10.78-7.39,17.17-8.4,6.35-1,11.92,4.56,18.32,5.23,13.39,1.41,22.72-18.26,35.9-15.53,3.76,.78,6.86,3.33,10.2,5.22,23.18,13.1,33.76-10.89,54.45,13.88"/><path d="M305.72,25.3c2.07-2.94,6.94-9.09,11.21-8.03,2.26,.56,3.06,3.73,4.06,5.5,1.34,2.36,3.14,4.42,5.49,5.81,9.93,5.87,20.87-.69,30.2-4.23,5.74-2.18,11.31-3.25,16.13,1.29,3.81,3.59,7.36,7.31,12.92,7.67,4.87,.32,9.36-2.07,13.48-4.35,3.89-2.15,8.15-4.89,12.75-3.46s8.03,4.89,12.13,7.01c4.34,2.24,9.08,3.17,13.72,1.26s7.48-6.17,11.86-8.34c4.79-2.37,10.2,1.71,14.72,3.13,5.05,1.58,9.96,.88,14.58-1.57,4.13-2.19,7.53-5.59,11.76-7.59,8.22-3.89,14.04,6.06,20.05,10,3.54,2.33,7.84,3.26,11.9,1.77,2.29-.84,4.17-2.34,6-3.92,1.55-1.34,3.27-3.31,5.46-3.47,3.2-.23,5.85,3.48,7.66,5.61,2.79,3.29,5.41,6.71,8.94,9.27,8.23,5.97,17.42,1.98,26.33,.39,3.11-.56,7-.72,8.28,2.85,1.15,3.21-.33,7.19-1.25,10.28-2.09,7.04-5.32,16.1,1.19,21.88,3.32,2.95,7.67,2.99,11.33,5.1,1.89,1.09,.71,2.28,.06,4.15-.76,2.19-1.12,4.41-.64,6.71,1.64,7.97,11.16,10.79,17.11,14.73,3.73,2.47,5.37,5.44,5.5,9.95,.15,5-.65,10.2,1.13,15.01,1.9,5.13,6.06,7.24,10.55,9.76,1.41,.79,3.28,1.73,3.31,3.58s-1.68,3.72-2.71,5.05c-2.76,3.6-5.89,7.05-6.7,11.68-.7,3.97,.37,7.83,2.68,11.1,4.81,6.79,12.97,10.34,17.71,17.15,3.57,5.12,2.13,11.05,1.12,16.76-.9,5.13-1.38,10.35,.45,15.35,1.66,4.54,4.79,8.12,9.54,9.44l-2.79-4.92c-.57,1.9-4.57,1.94-6.2,2.2-2.95,.47-6.02,.94-8.61,2.55-3.06,1.91-5.01,5.26-4.87,8.9s2.51,6.83,4.7,9.64,5.25,5.92,4.7,9.76c-.68,4.67-4.73,8.66-7.37,12.32-4.65,6.44-7.57,16.43-.95,22.61l3.89-6.69c-18.29-4.5-37.79,10.71-37.59,29.63l6.02-3.45-14.05-8.08c-1.95-1.12-4.28-.38-5.47,1.44l-11.77,17.93-5.54,8.44c-1.29,1.97-2.45,5.3-5.06,3.95-4.74-2.44-8.82-4.22-13.93-1.31-4.58,2.61-7.48,7.41-9.92,11.9-1.51,2.78-6.53,10.84-10.38,7.17-1.63-1.55-2.54-3.79-4.16-5.39-1.87-1.85-4.37-3-7.01-3.08-5.39-.15-9.95,3.82-12.97,7.9-2.48,3.35-4.75,10.32-9.35,11.32-3.87,.84-7.72-4.73-10.54-6.65-3.46-2.36-7.75-3.22-11.74-1.75-7.52,2.77-10.32,11.15-17.06,14.75-4.12,2.2-7.7-1.23-11.04-3.42-4.96-3.26-10.79-4.46-16.53-5.62-10.66-2.15-23.05-3.45-32.4,3.35-2.03,1.48-4.42,4.65-7,5.07s-4.94-2.42-6.61-3.91c-4.02-3.58-8.29-5.93-13.77-6.18-10.07-.46-20.43,6.42-22.58,16.49l6.69-1.77c-6.18-6.43-14.04-13.12-23.14-14.6-4.28-.7-8.68-.12-12.43,2.17-3.55,2.17-5.77,6.46-9.47,8.26-5.07,2.46-9.96-5.05-12.8-8.13-4.5-4.89-10.05-9.64-17.15-8.78-7.83,.95-12.14,7.79-19.03,10.6-4.04,1.65-7.19-.78-10.02-3.52-3.3-3.19-6.35-6.4-10.76-8.04-4.04-1.51-8.82-1.34-12.13,1.71s-3.51,7.18-5.03,11.11c-2.17,5.63-8.89,2.92-13.18,1.55-6.23-1.99-13.45-4.99-19.93-2.39-1.71,.69-3.25,1.7-4.5,3.06-1.49,1.61-2.58,5.27-4.69,6.12-3.93,1.57-9.05-4.47-11.14-6.99-1.73-2.08-5-1.17-6.28,.81-2.89,4.46-9.55,4.17-14.18,3.59-4.11-.51-8.94-1.43-12.09-4.33-2.69-2.47-4.15-6.09-6.02-9.16-2.58-4.25-5.79-8.87-9.85-11.82-7.55-5.47-18.34-3.21-26.63-.93-3.52,.97-6.96,2.18-10.48,3.11-.85,.22-.23,.13-.3,.07l2.17,.84-.16-.18c.25-.3,.13,.87,.05-.08-.05-.53-.21-.4-.49-1.17-.3-.83-.56-1.68-.81-2.53-1.1-3.71-1.93-7.5-2.96-11.24-.79-2.87-1.54-6.5-3.66-8.73-3.26-3.42-8.6-.45-12.25,.79-4.76,1.63-9.52,3.63-14.47,4.62-.75,.15-1.46,.27-2.22,.27-.38,0-1.16-.04-.95,0-.57-.15-.07,.11-.07-.03,0-.8-.12-1.6-.01-2.45,.4-3.23,1.83-6.3,2.7-9.41,.96-3.45,1.21-6.78,.62-10.31-1.76-10.4-8.19-18.33-17.53-23-2.37-1.18-5.38-1.83-7.49-3.43-.67-.51-.63-.22-.51-1.31,.13-1.19,.46-2.37,.79-3.53,1.15-4.02,3.51-7.56,4.6-11.55,2.22-8.15-2.29-15.26-7.2-21.35-4.47-5.55-10.97-11.39-11.88-18.86-.66-5.44,2.58-10.53,4.26-15.49,2.05-6.05,1.68-11.81-1.39-17.42-2.15-3.93-6.95-8.61-6.37-13.44,.44-3.66,3.91-6.38,6.56-8.55,5.86-4.77,14.68-9.94,13.07-18.84-.42-2.34-1.58-4.38-3.05-6.21s-3.79-3.46-4.92-5.58c-1.97-3.67,5.35-6.06,7.63-7.74,8.26-6.09,7.07-15.98,5.24-24.89-.83-4.06-2-8.28-1.68-12.46,.35-4.67,3.53-6.4,7.44-8.24,4.61-2.18,9.12-5.16,9.43-10.78,.18-3.22-1.38-6.02-1.65-9.14s1.42-5.85,3.5-7.96c4.64-4.7,11.16-6.1,17.3-7.81,6.76-1.88,12.79-4.43,18.24-8.9,8.24-6.75,15.11-17.87,26.95-17.7,3.7,.05,7.8,1.35,9.1,5.16,.99,2.9,5.81,4.36,7.31,.96,2.6-5.88,6.53-13.85,13.04-16.2s10.89,5.16,15.08,8.61c5.78,4.74,12.31,5,18.52,.85,2.5-1.67,4.85-4.02,7.73-5.02,3.84-1.34,7.87,1.34,11.28,2.81,6.59,2.84,12.82,2.79,19.18-.69,5.18-2.83,9.38-7.1,14.35-10.23,2.17-1.37,4.53-2.6,7.15-2.7,3.82-.15,6.99,2.56,10.1,4.4,5.88,3.49,12.49,5.51,19.35,5.27,5.84-.21,11.51-2.14,17.35-2.14,7.62,0,13.17,5.16,17.85,10.66,3.34,3.93,8.98-1.76,5.66-5.66-4.74-5.57-10.64-10.88-18.02-12.42-5.7-1.19-11.28-.06-16.92,.89-5.92,1-11.74,.99-17.34-1.46-7.44-3.25-13.06-9.07-21.8-7.04-11.77,2.74-20.26,19.47-33.34,14.01-3.77-1.58-7.33-3.62-11.47-4-3.85-.35-7.41,1.04-10.56,3.14-2.69,1.79-5.72,5.09-9.13,5.3-2.96,.18-5.31-2.43-7.23-4.33-5.67-5.61-12.23-10.9-20.67-7.68s-13.64,11.83-17.07,19.6l7.31,.96c-3.59-10.56-15.94-12.9-25.57-9.68-12.32,4.11-18.43,16.98-29.82,22.52-6.84,3.33-14.66,3.99-21.55,7.25-5.5,2.59-10.55,7.05-12.78,12.82-1.18,3.07-1.34,6.26-.66,9.47,.54,2.55,2.42,5.69-.02,7.71-1.83,1.52-4.39,2.27-6.48,3.35-2.41,1.25-4.58,2.84-6.19,5.05-5.88,8.08-1.65,18.83-.23,27.64,.58,3.58,1.06,8.02-1.49,10.98-3.31,3.83-9.03,4.6-11.64,9.3-3,5.41-.09,10.4,3.7,14.39,2.64,2.77,5.06,5.25,2.38,8.65-5.39,6.84-14.82,9.67-17.81,18.54-1.82,5.4,.14,10.67,3.01,15.29,3.35,5.4,6.67,9.6,4.65,16.22-1.76,5.8-5.05,11.13-4.94,17.37,.07,4.38,1.6,8.58,3.82,12.31,4.23,7.1,11.3,12.47,14.79,20.01,1.4,3.03,1.49,6.03,.04,9.06-2,4.21-3.9,8.49-4.64,13.14-1.05,6.62,2.87,9.87,8.59,12.25,4.63,1.92,9.28,4.47,12.44,8.47s5.38,10.34,4.33,15.55c-1.17,5.8-4.94,11.93-3.05,18.01,3.14,10.1,17.17,4.09,23.66,1.82,2.57-.9,5.15-1.81,7.75-2.62,.43-.13,1.32-.28,1.74-.53l.87-.25c-.2-.81-.94-1.13-2.22-.96-.48,.17,.02-.97-.15-.17-.02,.08,.44,.85,.48,.93,1.14,2.45,2.1,7.19,2.94,10.47,1.47,5.76,2.79,15.78,10.83,14.02s16.2-5.88,24.93-5.15c9.39,.79,12.74,11.95,17.46,18.56,6.01,8.43,17.81,11.08,27.68,10.14,5.72-.54,10.77-2.75,13.96-7.69l-6.28,.81c5.04,6.08,14.69,13.32,22.37,7.17,2.61-2.09,3.57-6.53,6.77-7.7,2.32-.85,5.14-.08,7.42,.53,5.96,1.58,11.94,4.58,18.24,4.39,3.04-.09,6.01-1.07,8.28-3.15,3.03-2.78,3.81-6.6,4.93-10.37,3.04-10.27,14.56,4.85,18.66,7.29,7.76,4.61,14.95,.77,21.35-4.08,2.56-1.94,5.5-4.56,8.81-5.03,2.79-.4,5.3,1.25,7.29,3.02,4.71,4.22,8.25,10.17,14.05,13.05,3.38,1.68,7.16,1.89,10.65,.42,4.51-1.91,6.72-6.35,10.73-8.84,8.89-5.51,20.23,5.31,25.87,11.18,2.01,2.09,6.06,1.19,6.69-1.77,1.66-7.76,10.96-12.75,18.44-9.88,4.48,1.72,7.17,6.34,11.57,8.31,5.33,2.38,10.02,.2,14.17-3.32s8.6-5.53,14.2-5.76,11.49,.82,17.11,2.06c2.87,.63,5.87,1.19,8.57,2.4s4.75,3.05,7.15,4.5c3.99,2.42,8.56,3.4,12.99,1.65,3.74-1.48,6.64-4.36,9.28-7.3,2.26-2.51,4.51-5.75,7.56-7.36,3.46-1.83,6.1,.76,8.65,3.02,3.61,3.21,7.55,6.08,12.65,5.37s8.75-4.76,11.47-8.87c1.89-2.85,5.63-11.45,10.24-10.27,1.91,.49,3.12,3.37,4.25,4.79,1.58,2,3.58,3.62,6.09,4.27,5.12,1.32,10.09-1.68,13.44-5.35,3.94-4.31,5.6-10.37,9.98-14.27,2.16-1.92,3.76-2.04,6.22-.59s5.06,2.85,8.09,2.29c6.48-1.2,10.05-9.79,13.28-14.71l13.16-20.04-5.47,1.44,14.05,8.08c2.6,1.5,6.05-.4,6.02-3.45-.14-13.63,14.14-25.19,27.46-21.91,3.74,.92,6.92-3.87,3.89-6.69-5.77-5.38,4.23-15.14,6.99-19.48,2.43-3.82,4.19-8.18,3.56-12.78-.51-3.73-2.54-6.78-4.8-9.7-1.26-1.63-4.96-5.05-4.51-7.36,.4-2.05,3.62-2.39,5.21-2.69,5.77-1.09,12.21-1.61,14.2-8.18,.63-2.07-.75-4.35-2.79-4.92-4.29-1.2-5.1-6.69-4.97-10.5,.22-6.36,2.69-12.4,1.85-18.84-1.26-9.7-9.4-15.21-16.26-21.1-2.43-2.09-5.7-4.67-6.38-7.99-.82-3.98,2.76-7.47,4.99-10.33,2.89-3.7,5.52-7.98,4.17-12.86s-6.08-7.08-10.27-9.47c-4.7-2.68-4.47-7.08-4.37-11.98s.08-10.54-2.94-14.92c-2.4-3.48-5.98-5.85-9.6-7.91-3-1.71-7.46-3.28-9.54-6.19-.57-.79-.82-1.45-.73-2.43,.29-3.14,2.38-5.35,1.75-8.74-.84-4.52-4.76-6.58-8.76-7.91-2.8-.94-6.86-1.52-7.4-4.99s1.3-7.7,2.31-11.05c2.27-7.57,3.84-17.34-4.28-22.12-8.54-5.03-17.98,1.79-26.84,1.43-8.28-.34-12.38-10.87-18.33-15.34-3.21-2.41-7.17-3.51-11.12-2.38-2.49,.71-4.54,2.25-6.48,3.9-1.65,1.4-3.42,3.54-5.72,3.77-3.44,.36-6.66-3.42-8.92-5.5-3.2-2.94-6.56-5.96-10.77-7.35-10.19-3.36-16.79,5.54-25.04,9.37-5.14,2.39-9.73-.48-14.57-2.31-5.28-1.99-10.65-1.95-15.44,1.25-3.48,2.33-6.93,7.19-11.39,7.48s-8.43-3.61-11.83-5.74c-4.31-2.7-8.97-4.61-14.13-3.86s-9.23,3.52-13.59,5.82-8.17,3.2-12.19-.56-7.87-7.51-13.9-8.1c-11.88-1.16-21.22,9.4-32.89,8.33-6.19-.56-6.4-6.03-9.96-9.95s-9.05-4.38-13.78-2.26-8.71,6.37-11.74,10.7,3.97,8.22,6.91,4.04h0Z"/></g></g><g id="Bubbles_Text"><text class="cls-2" transform="translate(114.63 94.03)"><tspan x="0" y="0">These inscriptions</tspan><tspan x="3.41" y="60">tell the story of a</tspan><tspan x="-83.87" y="120">species that I have never</tspan><tspan x="-58.8" y="180">heard about, they were</tspan><tspan x="53.05" y="240">called humans</tspan></text></g></g></g></svg>