<?xml version="1.0" encoding="UTF-8"?><svg id="Layer_2" xmlns="http://www.w3.org/2000/svg" xmlns:xlink="http://www.w3.org/1999/xlink" viewBox="0 0 1457.04 661.05"><defs><style>.cls-1,.cls-2,.cls-3,.cls-4,.cls-5,.cls-6,.cls-7,.cls-8{stroke:#231f20;stroke-miterlimit:10;}.cls-1,.cls-2,.cls-3,.cls-4,.cls-7,.cls-9,.cls-8{fill:none;}.cls-10{fill:#262626;}.cls-11{fill:#222e2e;}.cls-2{stroke-width:5px;}.cls-12{fill:#695239;}.cls-13{fill:#363636;}.cls-14{fill:#4d4d4d;}.cls-15{fill:#6b6c6e;}.cls-3{stroke-width:10px;}.cls-16{fill:#fbd940;}.cls-4{stroke-width:8px;}.cls-17{fill:#754c29;}.cls-18{fill:#233324;}.cls-19{fill:#1a2221;}.cls-20{fill:#544f39;}.cls-21{fill:url(#radial-gradient);}.cls-22{fill:#877609;}.cls-23{fill:#bda50d;}.cls-24{fill:#594a42;}.cls-5,.cls-25{fill:#474037;}.cls-26{fill:#4a2d05;}.cls-27{fill:#353436;}.cls-6{fill:#452d18;}.cls-7{stroke-width:4px;}.cls-8{stroke-width:7px;}.cls-28{fill:#25160d;}.cls-29{fill:#292929;}.cls-30{fill:#f24824;}.cls-31{fill:#231f20;}.cls-32{fill:#414042;}</style><radialGradient id="radial-gradient" cx="524.85" cy="-107.68" fx="524.85" fy="-107.68" r="74.33" gradientTransform="translate(0 468.88) scale(1 .67)" gradientUnits="userSpaceOnUse"><stop offset="0" stop-color="#78501c"/><stop offset=".15" stop-color="#734e1c" stop-opacity=".95"/><stop offset=".35" stop-color="#68491f" stop-opacity=".82"/><stop offset=".57" stop-color="#554223" stop-opacity=".61"/><stop offset=".8" stop-color="#3a3828" stop-opacity=".31"/><stop offset="1" stop-color="#202e2e" stop-opacity="0"/></radialGradient></defs><g id="Page_2"><g id="Panel_2"><g id="Background"><g><g><path class="cls-32" d="M377.55,550.38l46.53-14.84v-15.03l650.5-97.43,.6,10.74,40.25,10.12c.07,.02,.15-.02,.18-.09l.04,.13,46.53-14.84v-8.53l164.98,14.94,124.62,11.28h.26v209.22H5v-70.26l330.9-53.13,.76-.04,.42,7.6,40.24,10.12c.08,.02,.16-.02,.19-.09l.04,.13Z"/><path class="cls-24" d="M1452.04,5V446.83h-.26l-124.62-11.28,.39-36.96,69.71,3.59v4.14c0,1.67,1.27,3.06,2.93,3.2l13.92,1.22c1.88,.17,3.49-1.32,3.49-3.2v-4.01l18.21,.92c1.48,.08,2.73-1.1,2.73-2.58v-24.32c0-1.38-1.08-2.51-2.46-2.58l-18.48-.72v-6.72c0-1.75-1.39-3.17-3.13-3.22l-13.92-.35c-1.8-.05-3.29,1.4-3.29,3.21v5.76l-69.16-3.19v-.05l5.22-364.69h118.72Z"/><path class="cls-17" d="M1438.54,377.55v24.32c0,1.48-1.25,2.66-2.73,2.58l-18.21-.92v-29.28l18.48,.72c1.38,.07,2.46,1.2,2.46,2.58Z"/><path class="cls-23" d="M1417.6,403.53v4.01c0,1.88-1.61,3.37-3.49,3.2l-13.92-1.22c-1.66-.14-2.93-1.53-2.93-3.2v-39.15c0-1.81,1.49-3.26,3.29-3.21l13.92,.35c1.74,.05,3.13,1.47,3.13,3.22v36Z"/><polygon class="cls-17" points="1327.55 398.59 1249.87 394.6 1249.87 366.14 1328.1 369.74 1397.26 372.93 1397.26 402.18 1327.55 398.59"/><path class="cls-24" d="M1162.1,408.5l-12.83-3.9V217.79c10.96-8.46,0-14.65,0-14.65V64.39s5.85-44.55,44.25-59.39h139.8l-5.22,364.69v.05l-78.23-3.6v-8.02c0-1.01-.81-1.83-1.81-1.86l-16.64-.43c-1.04-.02-1.9,.82-1.9,1.86v6.87l-20.49-.68c-1.48-.08-2.72,1.11-2.7,2.6l.2,22.72c.02,1.36,1.08,2.48,2.44,2.55l20.55,.8v6.93c0,.96,.73,1.76,1.69,1.85l16.64,1.45c1.08,.1,2.02-.76,2.02-1.85v-6.33l77.68,3.99-.39,36.96-164.98-14.94v-11.83c0-.08-.04-.15-.11-.18l.03-.1Z"/><path class="cls-23" d="M1249.87,394.6v6.33c0,1.09-.94,1.95-2.02,1.85l-16.64-1.45c-.96-.09-1.69-.89-1.69-1.85v-41.79c0-1.04,.86-1.88,1.9-1.86l16.64,.43c1,.03,1.81,.85,1.81,1.86v36.48Z"/><path class="cls-17" d="M1229.52,364.56v27.99l-20.55-.8c-1.36-.07-2.42-1.19-2.44-2.55l-.2-22.72c-.02-1.49,1.22-2.68,2.7-2.6l20.49,.68Z"/><path class="cls-19" d="M1149.27,5h44.25c-38.4,14.84-44.25,59.39-44.25,59.39V5Z"/><path class="cls-22" d="M1162.18,420.61v8.53l-46.53,14.84-.04-.13s.01-.04,.01-.06v-20.15l12.37-4.02s.07-.02,.11-.03l33.84-10.99s.09-.01,.13,0c.07,.03,.11,.1,.11,.18v11.83Z"/><path class="cls-23" d="M1149.27,203.14s10.96,6.19,0,14.65c-27.91,14.87-58.43,0-58.43,0-12.85-8.57,0-14.65,0-14.65,0,0,30.52,14.87,58.43,0Z"/><path class="cls-10" d="M1149.27,408.65l.15,.23c-18.9,12.64-32.66,12.22-38.01,11.36-.02,0-.04,0-.05,0-.78-.16-1.55-.33-2.3-.52-.08-.03-.12-.04-.12-.04-8.56-2.19-15.55-6.5-18.1-8.22V217.79s30.52,14.87,58.43,0v190.86Z"/><path class="cls-10" d="M1149.27,64.39V203.14c-27.91,14.87-58.43,0-58.43,0V5h58.43v59.39Z"/><path class="cls-22" d="M1074.58,423.08l-.56-10.04c-.01-.06,.03-.12,.08-.14,.03-.01,.06-.01,.09,0l41.43,10.74v20.15s0,.04-.01,.06c-.03,.07-.11,.11-.18,.09l-40.25-10.12-.6-10.74Z"/><path class="cls-11" d="M1074.07,412.83l.03,.07c-.05,.02-.09,.08-.08,.14l.56,10.04-650.5,97.43v-5.33c0-.08-.04-.15-.11-.18l.03-.1-12.83-3.9v-232c10.96-8.46,0-14.65,0-14.65V5h679.67V203.14s-12.85,6.08,0,14.65v188.36l-7.79,3.1h-.01l-8.97,3.58Zm-.06-125.08c.1-4.67-4.01-8.32-8.64-7.66l-626.82,89.42c-3.72,.53-6.48,3.7-6.5,7.45l-.47,96.27c-.03,4.63,4.08,8.19,8.66,7.52l625.13-91.82c3.65-.53,6.38-3.62,6.47-7.31l2.17-93.87Z"/><path class="cls-13" d="M1065.37,280.09c4.63-.66,8.74,2.99,8.64,7.66l-2.17,93.87c-.09,3.69-2.82,6.78-6.47,7.31l-625.13,91.82c-4.58,.67-8.69-2.89-8.66-7.52l.47-96.27c.02-3.75,2.78-6.92,6.5-7.45l626.82-89.42Z"/><path class="cls-22" d="M424.08,520.51v15.03l-46.53,14.84-.04-.13s.01-.04,.01-.06v-20.15l12.47-4.05,33.84-10.99c.05-.01,.1-.01,.14,0,.07,.03,.11,.1,.11,.18v5.33Z"/><path class="cls-23" d="M411.17,264.35s10.96,6.19,0,14.65c-27.91,14.87-58.44,0-58.44,0-12.84-8.57,0-14.65,0-14.65,0,0,30.53,14.87,58.44,0Z"/><path class="cls-10" d="M411.17,515.05l.16,.23c-18.91,12.64-32.67,12.22-38.02,11.36-.02-.01-.04-.01-.05-.01-.78-.16-1.55-.33-2.3-.52-.08-.03-.12-.04-.12-.04-8.57-2.19-15.57-6.52-18.11-8.23v-238.84s30.53,14.87,58.44,0v236.05Z"/><path class="cls-10" d="M411.17,5V264.35c-27.91,14.87-58.44,0-58.44,0V5h58.44Z"/><path class="cls-22" d="M377.52,530.04v20.15s0,.04-.01,.06c-.03,.07-.11,.11-.19,.09l-40.24-10.12-.42-7.6-.74-13.18c0-.06,.03-.11,.08-.13,.03-.01,.06-.02,.09-.01l41.43,10.74Z"/><path class="cls-11" d="M335.97,519.22l.03,.09s-.09,.07-.08,.13l.74,13.18-.76,.04L5,585.79v-41.66l325.63-55.44c3.1-.52,5.35-3.24,5.27-6.38l-2.25-90.72c-.1-3.77-3.46-6.62-7.2-6.09L5,431.85V5H352.73V264.35s-12.84,6.08,0,14.65v233.55l-7.79,3.1h-.01l-8.96,3.57Z"/><path class="cls-13" d="M335.9,482.31c.08,3.14-2.17,5.86-5.27,6.38L5,544.13v-112.28l321.45-46.35c3.74-.53,7.1,2.32,7.2,6.09l2.25,90.72Z"/></g><g><polygon class="cls-3" points="352.73 5 5 5 5 431.85 5 544.13 5 585.79 5 656.05 1452.04 656.05 1452.04 446.83 1452.04 5 1333.32 5 1193.52 5 1149.27 5 1090.84 5 411.17 5 352.73 5"/><polyline class="cls-4" points="424.08 520.51 1074.58 423.08 1075.6 422.93"/><polyline class="cls-4" points="2.91 586.13 5 585.79 335.9 532.66"/><path class="cls-4" d="M1065.37,388.93l-625.13,91.82c-4.58,.67-8.69-2.89-8.66-7.52l.47-96.27c.02-3.75,2.78-6.92,6.5-7.45l626.82-89.42c4.63-.66,8.74,2.99,8.64,7.66l-2.17,93.87c-.09,3.69-2.82,6.78-6.47,7.31Z"/><path class="cls-4" d="M5,431.85l321.45-46.35c3.74-.53,7.1,2.32,7.2,6.09l2.25,90.72c.08,3.14-2.17,5.86-5.27,6.38L5,544.13"/><path class="cls-8" d="M377.52,530.04v20.15s0,.04-.01,.06c-.03,.07-.11,.11-.19,.09l-40.24-10.12-.42-7.6-.74-13.18c0-.06,.03-.11,.08-.13,.03-.01,.06-.02,.09-.01l41.43,10.74Z"/><path class="cls-8" d="M377.52,550.39h.03l46.53-14.85v-20.36c0-.08-.04-.15-.11-.18-.04-.01-.09-.01-.14,0l-33.84,10.99-12.47,4.05"/><line class="cls-8" x1="344.94" y1="515.65" x2="352.73" y2="512.55"/><polyline class="cls-8" points="335.9 519.25 335.97 519.22 344.93 515.66"/><polyline class="cls-8" points="424.08 514.92 424 514.9 411.17 511"/><polyline class="cls-2" points="352.73 264.35 352.73 5 352.73 3.87"/><polyline class="cls-2" points="352.73 518.21 352.73 517.84 352.73 512.55 352.73 279"/><polyline class="cls-2" points="411.17 264.35 411.17 5 411.17 3.87"/><polyline class="cls-2" points="411.17 515.05 411.17 511 411.17 279"/><path class="cls-2" d="M344.93,515.66c-.09,.05-.6,.51,4.32,2.55,.41,.17,.85,.35,1.34,.55,.64,.25,1.35,.52,2.14,.82"/><path class="cls-8" d="M344.94,515.65h-.01"/><line class="cls-2" x1="356.72" y1="521.65" x2="350.59" y2="518.76"/><path class="cls-2" d="M373.31,526.64c5.3,1.05,11.06,1.17,16.68-.65"/><path class="cls-2" d="M370.96,526.11c.75,.19,1.52,.36,2.3,.52"/><path class="cls-2" d="M351.69,517.12s.36,.27,1.04,.72c2.54,1.71,9.54,6.04,18.11,8.23"/><path class="cls-2" d="M370.84,526.07s.04,.01,.12,.04c.29,.09,1.07,.32,2.3,.52,.01,0,.03,0,.05,.01,5.35,.86,19.11,1.28,38.02-11.36,.81-.54,1.62-1.1,2.45-1.69"/><path class="cls-2" d="M352.73,279s30.53,14.87,58.44,0c10.96-8.46,0-14.65,0-14.65-27.91,14.87-58.44,0-58.44,0,0,0-12.84,6.08,0,14.65Z"/><path class="cls-8" d="M1115.62,423.64v20.15s0,.04-.01,.06c-.03,.07-.11,.11-.18,.09l-40.25-10.12-.6-10.74-.56-10.04c-.01-.06,.03-.12,.08-.14,.03-.01,.06-.01,.09,0l41.43,10.74Z"/><line class="cls-8" x1="1127.99" y1="419.62" x2="1115.62" y2="423.64"/><path class="cls-8" d="M1115.62,443.99h.03l46.53-14.85v-20.36c0-.08-.04-.15-.11-.18-.04-.01-.09-.01-.13,0l-33.84,10.99"/><line class="cls-8" x1="1083.05" y1="409.25" x2="1090.84" y2="406.15"/><polyline class="cls-8" points="1074.01 412.85 1074.07 412.83 1083.04 409.26"/><polyline class="cls-8" points="1162.18 408.52 1162.1 408.5 1149.27 404.6"/><line class="cls-2" x1="1090.84" y1="203.14" x2="1090.84" y2="5"/><polyline class="cls-2" points="1090.84 411.81 1090.84 411.45 1090.84 406.15 1090.84 217.79"/><polyline class="cls-2" points="1149.27 203.14 1149.27 64.39 1149.27 5"/><polyline class="cls-2" points="1149.27 408.65 1149.27 404.6 1149.27 217.79"/><path class="cls-2" d="M1088.73,412.37c.63,.25,1.33,.52,2.11,.81"/><path class="cls-2" d="M1083.04,409.26c-.09,.05-.61,.5,4.32,2.55,.4,.17,.84,.35,1.33,.54"/><path class="cls-8" d="M1083.05,409.25h-.01"/><polyline class="cls-2" points="1094.82 415.24 1088.73 412.37 1088.69 412.35"/><path class="cls-2" d="M1111.41,420.24c5.27,1.04,11,1.17,16.58-.62,.04,0,.07-.02,.11-.03"/><path class="cls-2" d="M1109.06,419.71c.75,.19,1.52,.36,2.3,.52"/><path class="cls-2" d="M1089.79,410.72s.37,.27,1.05,.73c2.55,1.72,9.54,6.03,18.1,8.22"/><path class="cls-2" d="M1108.94,419.67s.04,.01,.12,.04c.29,.09,1.07,.32,2.3,.52,.01,0,.03,0,.05,0,5.35,.86,19.11,1.28,38.01-11.36,.81-.54,1.63-1.11,2.46-1.7"/><path class="cls-2" d="M1090.84,217.79s30.52,14.87,58.43,0c10.96-8.46,0-14.65,0-14.65-27.91,14.87-58.43,0-58.43,0,0,0-12.85,6.08,0,14.65Z"/><polyline class="cls-4" points="1162.18 420.61 1327.16 435.55 1451.78 446.83"/><path class="cls-2" d="M1149.27,64.39s5.85-44.55,44.25-59.39c1.02-.4,2.06-.78,3.13-1.13"/><polyline class="cls-7" points="1328.1 369.69 1333.32 5 1333.34 3.87"/><polyline class="cls-7" points="1327.16 435.55 1327.55 398.59 1327.55 398.4"/><path class="cls-7" d="M1229.52,392.55l-20.55-.8c-1.36-.07-2.42-1.19-2.44-2.55l-.2-22.72c-.02-1.49,1.22-2.68,2.7-2.6l20.49,.68"/><polyline class="cls-7" points="1397.26 402.18 1327.55 398.59 1249.87 394.6"/><path class="cls-7" d="M1417.6,374.25l18.48,.72c1.38,.07,2.46,1.2,2.46,2.58v24.32c0,1.48-1.25,2.66-2.73,2.58l-18.21-.92"/><polyline class="cls-7" points="1249.87 366.14 1328.1 369.74 1397.26 372.93"/><path class="cls-7" d="M1249.87,394.6v6.33c0,1.09-.94,1.95-2.02,1.85l-16.64-1.45c-.96-.09-1.69-.89-1.69-1.85v-41.79c0-1.04,.86-1.88,1.9-1.86l16.64,.43c1,.03,1.81,.85,1.81,1.86v36.48Z"/><path class="cls-7" d="M1417.6,403.53v4.01c0,1.88-1.61,3.37-3.49,3.2l-13.92-1.22c-1.66-.14-2.93-1.53-2.93-3.2v-39.15c0-1.81,1.49-3.26,3.29-3.21l13.92,.35c1.74,.05,3.13,1.47,3.13,3.22v36Z"/></g></g><path class="cls-27" d="M486.59,599.03c0,2.29,.43,4.54,.77,6.8,.36,2.47,.62,4.95,.81,7.43,.35,4.67,.46,9.36,.51,14.04,.09,9.24-.47,18.8,1.59,27.88,.28,1.25,2.21,.72,1.93-.53-2.05-9.05-1.42-18.62-1.52-27.83-.05-4.68-.17-9.37-.54-14.04-.17-2.18-.41-4.35-.71-6.52-.33-2.4-.83-4.79-.83-7.22,0-1.29-2-1.29-2,0h0Z"/><path class="cls-27" d="M489.64,593.2c-.27-.39-.49-.55-.93-.72-.6-.23-1.29,.36-1.27,.96,.12,2.9,.04,5.78-.03,8.67-.07,2.63,.1,5.27,1.32,7.66,.59,1.15,2.31,.14,1.73-1.01-1.14-2.22-1.11-4.77-1.03-7.2,.09-2.71,.13-5.41,.02-8.12l-1.27,.96,.21,.08-.6-.46,.12,.18c.72,1.06,2.45,.06,1.73-1.01h0Z"/><path class="cls-27" d="M496.81,594.34c-.21,10.22-.92,20.41-1.72,30.6-.4,5.1-.83,10.19-1.22,15.28-.19,2.47-.37,4.93-.54,7.4-.09,1.32-.18,2.63-.26,3.95-.07,1.07-.27,2.22,.15,3.24,.48,1.17,2.42,.66,1.93-.53-.44-1.07-.09-2.56-.02-3.69,.08-1.32,.17-2.63,.26-3.95,.17-2.47,.36-4.93,.55-7.4,.38-4.93,.79-9.86,1.18-14.79,.79-10.02,1.48-20.05,1.69-30.11,.03-1.29-1.97-1.29-2,0h0Z"/><path class="cls-27" d="M494.73,596.44c1.08,4.53,1.03,9.43,1.32,14.06s.56,9.6,.77,14.41,.38,9.61,.5,14.42c.06,2.32,.11,4.64,.15,6.96s.36,4.89,.06,7.19l.29-.71-.14,.15,1.21-.16-.1-.05,.5,.86-.02-.12-.73,.96,.08-.03c1.19-.45,.68-2.39-.53-1.93l-.08,.03c-.37,.14-.79,.51-.73,.96s.17,.82,.61,1.04c.39,.2,.9,.18,1.21-.16,.66-.7,.46-1.68,.45-2.58-.01-1.33-.03-2.65-.05-3.98-.04-2.49-.09-4.97-.15-7.46-.12-4.97-.29-9.95-.51-14.92s-.48-9.94-.79-14.9-.27-9.88-1.39-14.59c-.3-1.25-2.23-.72-1.93,.53h0Z"/><path class="cls-27" d="M491.8,602.6c-.85,4.71-1.43,9.46-1.74,14.23h2l-.26-14.65h-2l.38,14.16h2l-1.06-12.99h-2c.35,3.24,.78,6.46,1.31,9.68,.5,3.05,1.06,6.07,2.49,8.84,.51,.98,1.75,.38,1.86-.5,.34-2.63-.34-5.24-.56-7.85s-.19-5.46,.09-8.18h-2l1.07,9.69c.33,3.02,.44,6.21,1.51,9.09,.36,.97,2.09,.94,1.96-.27l-1.77-17.52-1.96,.27c1,5.32,1.25,10.73,1.49,16.13l1.96-.27c-1.07-4.87-1.41-9.83-1.05-14.8h-2c.36,8.71,.41,17.43,.13,26.14l1.96-.27c-1.43-3.92-1.78-8.08-.93-12.18h-1.93c1.24,3.18,1.02,6.99,1.16,10.36,.15,3.66,.22,7.31,.21,10.97l1.96-.27c-1.46-4.47-2.3-9.1-2.43-13.8-.06-2.23,.08-4.44,.25-6.66,.16-2.03,.12-3.94-.69-5.84-.44-1.03-1.76-.33-1.86,.5-.84,6.69-.75,13.44-.64,20.17h2l-.76-22.09h-2c.75,6.88,1.48,13.79,1.07,20.72h2c-.68-5.78-.68-11.6,0-17.38h-2l1.54,28.4,1.96-.27c-.88-3.2-1.12-6.51-.65-9.8l-1.96-.27c.59,5.1,1.07,10.21,1.46,15.33l1.96-.27c-1.43-4.13-1.95-8.43-1.53-12.77l-1.71,.71c.61,.7,.39,2.08,.4,2.95,.02,1.14,.03,2.28,.03,3.42,0,2.28-.05,4.56-.14,6.84l1.96-.27c-1.11-4.75-1.64-9.57-1.59-14.45,.01-1.29-1.96-1.29-2,0-.11,3.95-.03,7.89,.23,11.83l1.96-.27c-.91-3.91-1.35-7.88-1.34-11.89l-1.96,.27c1.52,5.22,.86,10.85,2.89,15.95,.27,.67,1.1,1.03,1.67,.44,1.66-1.69,1.18-4.59,1.21-6.74l.1-8.95h-2l1.07,12.53c.11,1.26,2.05,1.3,2,0-.08-2.4-.17-4.8-.22-7.2-.04-1.98-.48-4.6,.74-6.29l-1.86-.5,1.53,13.46,1.96-.27c-.68-4.66-1.32-9.34-1.04-14.06h-2l.46,13.42h2c-.85-7.43-1.67-14.91-.83-22.38h-2l.85,12.97,1.96-.27c-.97-5.41-1.21-11.02-1.59-16.49s-.61-11.22-.41-16.84l-1.96,.27c.75,2.58,1.07,5.21,.96,7.89h2c-.03-1.92-.26-3.82-.7-5.69-.29-1.25-2.22-.72-1.93,.53,.39,1.7,.6,3.41,.63,5.16,.02,1.29,1.95,1.28,2,0,.12-2.85-.23-5.68-1.03-8.42-.32-1.09-1.92-.86-1.96,.27-.21,5.78,.03,11.56,.44,17.33s.66,11.1,1.63,16.53c.2,1.1,2.04,.86,1.96-.27l-.85-12.97c-.09-1.31-1.86-1.27-2,0-.83,7.47-.02,14.95,.83,22.38,.14,1.24,2.05,1.32,2,0l-.46-13.42c-.04-1.29-1.92-1.28-2,0-.29,4.9,.41,9.76,1.11,14.59,.16,1.1,2.09,.86,1.96-.27l-1.53-13.46c-.11-1-1.26-1.35-1.86-.5-1.3,1.82-1.06,4.23-1.03,6.34,.04,2.72,.14,5.44,.23,8.16h2l-1.07-12.53c-.11-1.26-1.98-1.31-2,0l-.09,7.5-.04,3.63c-.01,1.01,.18,2.36-.59,3.15l1.67,.44c-2.04-5.09-1.37-10.73-2.89-15.95-.31-1.08-1.96-.88-1.96,.27,0,4.19,.47,8.34,1.42,12.42,.25,1.08,2.04,.87,1.96-.27-.26-3.94-.34-7.88-.23-11.83h-2c-.05,5.05,.51,10.07,1.66,14.98,.26,1.13,1.92,.83,1.96-.27,.11-2.77,.15-5.54,.13-8.31-.02-2.01,.4-4.69-1.02-6.32-.62-.72-1.63-.08-1.71,.71-.43,4.51,.12,9.03,1.6,13.3,.35,1,2.05,.93,1.96-.27-.39-5.12-.87-10.23-1.46-15.33-.12-1-1.79-1.49-1.96-.27-.52,3.66-.33,7.3,.65,10.86,.29,1.06,2.03,.89,1.96-.27l-1.54-28.4c-.07-1.31-1.85-1.26-2,0-.67,5.78-.67,11.6,0,17.38,.15,1.26,1.92,1.31,2,0,.41-6.93-.31-13.84-1.07-20.72-.14-1.25-2.05-1.31-2,0l.76,22.09c.04,1.28,2.02,1.29,2,0-.12-6.73-.21-13.48,.64-20.17l-1.86,.5c.81,1.92,.47,4.08,.31,6.09-.18,2.26-.21,4.54-.09,6.81,.25,4.4,1.08,8.74,2.44,12.92,.34,1.05,1.96,.9,1.96-.27,0-3.82-.07-7.64-.23-11.46-.15-3.39,.04-7.19-1.21-10.4-.32-.83-1.71-1.06-1.93,0-.92,4.43-.63,8.98,.93,13.24,.38,1.04,1.93,.91,1.96-.27,.28-8.71,.23-17.43-.13-26.14-.05-1.3-1.91-1.28-2,0-.37,5.14,.01,10.29,1.12,15.33,.24,1.1,2.01,.86,1.96-.27-.25-5.58-.53-11.16-1.56-16.66-.2-1.09-2.08-.86-1.96,.27l1.77,17.52,1.96-.27c-1.06-2.86-1.15-6.03-1.49-9.04l-1.02-9.2c-.14-1.28-1.87-1.29-2,0-.28,2.72-.33,5.45-.09,8.18s.9,5.22,.56,7.85l1.86-.5c-1.35-2.6-1.83-5.5-2.29-8.36-.5-3.04-.9-6.09-1.24-9.15-.14-1.26-2.11-1.3-2,0l1.06,12.99c.1,1.26,2.04,1.3,2,0l-.38-14.16c-.03-1.28-2.02-1.29-2,0l.26,14.65c.02,1.3,1.92,1.28,2,0,.3-4.6,.85-9.17,1.67-13.7,.23-1.26-1.7-1.8-1.93-.53h0Z"/><path class="cls-27" d="M522.58,605.18c-.58,8.42-1.15,16.85-2.53,25.18-1.3,7.88-3.71,15.59-4.28,23.59-.09,1.28,1.91,1.28,2,0,.58-8.13,3.09-15.98,4.36-24.01s1.88-16.49,2.45-24.76c.09-1.28-1.91-1.28-2,0h0Z"/><path class="cls-27" d="M529.12,606.59l.02-.07c.13-.41-.08-.92-.46-1.13l-.08-.04c-.4-.22-.88-.15-1.21,.16-.41,.39-.42,.97-.52,1.5l-.33,1.79-.74,4.04-1.45,7.92,1.96,.27c.4-4.64,.8-9.28,1.68-13.85l-1.96-.27c-.35,4.36-.92,8.69-1.7,12.99h1.93c-.69-4.36-.29-8.8,.1-13.17h-2l.05,7.36,.02,3.68v1.69l.02,.92v.46c-.08,.32,.15,.26,.69-.17-1.26-.22-1.8,1.7-.53,1.93,1.35,.24,1.83-.93,1.84-2.06,.02-1.53-.02-3.07-.03-4.6l-.06-9.2c0-1.31-1.89-1.26-2,0-.41,4.57-.76,9.15-.03,13.71,.15,.97,1.76,.94,1.93,0,.82-4.47,1.41-8.99,1.77-13.52,.09-1.11-1.75-1.37-1.96-.27-.92,4.75-1.34,9.57-1.75,14.39-.1,1.11,1.76,1.38,1.96,.27l1.37-7.47,.66-3.59,.33-1.79,.19-1.05,.08-.45c.11-.39,.07-.4-.11-.02l-1.21,.16,.08,.04-.46-1.13-.02,.07c-.38,1.23,1.55,1.76,1.93,.53h0Z"/><path class="cls-27" d="M496.16,605.34c2.65,15.41,4.15,31,4.51,46.64,.03,1.16,1.6,1.32,1.96,.27,.28-.81,.18-1.55-.21-2.3-.59-1.15-2.31-.14-1.73,1.01,.15,.26,.15,.51,0,.76l1.96,.27c-.36-15.81-1.9-31.58-4.58-47.17-.22-1.27-2.15-.73-1.93,.53h0Z"/><path class="cls-27" d="M497.26,628.66c.39,7.15,1.06,14.27,2.01,21.36l1.96-.27c-1.59-6.75-.48-13.76-1.55-20.58-.19-1.2-1.85-.76-1.96,.27-.76,7.12,.28,14.22,1.44,21.24l1.93-.53c-.9-4.51-1.37-9.08-1.39-13.68,0-2.26,.09-4.52,.3-6.77s.56-4.37,.46-6.56c-.06-1.19-.56-2.96-2.11-2.7-1.81,.3-1.29,2.77-1.22,4.01,.25,4.55,.53,9.11,.93,13.65,.45,5.11,1.09,10.21,2.02,15.26,.24,1.27,2.14,.72,1.93-.53l-.14-.85c-.21-1.27-2.14-.73-1.93,.53l.14,.85,1.93-.53c-.93-5.04-1.55-10.12-1.99-15.22-.21-2.43-.39-4.87-.54-7.31-.08-1.3-.16-2.6-.24-3.9-.04-.65-.07-1.3-.11-1.95-.03-.46,.09-1.3-.09-1.71,.06-.38-.18-.52-.72-.4,.12,.25,.17,.52,.14,.8,.06,.61,0,1.26-.02,1.87-.06,1.25-.22,2.49-.35,3.74-.25,2.4-.38,4.82-.39,7.23-.02,4.93,.5,9.86,1.46,14.69,.25,1.27,2.14,.72,1.93-.53-1.13-6.85-2.11-13.76-1.37-20.7l-1.96,.27c1.07,6.82-.05,13.81,1.55,20.58,.25,1.07,2.12,.87,1.96-.27-.95-7.09-1.62-14.22-2.01-21.36-.07-1.28-2.07-1.29-2,0h0Z"/><path class="cls-27" d="M536.4,602.06c.18,.68,.44,1.6,.08,2.16-.19,.29-.51,.47-.8,.66-.48,.3-.96,.61-1.44,.9-1.89,1.16-3.8,2.27-5.75,3.33l1.21,1.57,.46-.39c.41-.35,.36-1.05,0-1.41-.41-.41-1-.35-1.41,0l-.46,.39c-.89,.76,.25,2.09,1.21,1.57,2.19-1.18,4.33-2.43,6.44-3.75,1-.63,2.08-1.2,2.51-2.37,.38-1.02,.15-2.17-.12-3.19-.32-1.24-2.25-.72-1.93,.53h0Z"/><path class="cls-27" d="M536.53,603.3c1.35,1.64-.78,3.35-2.04,4.11-2.02,1.21-4.08,2.37-6.11,3.55-1.11,.64-.11,2.37,1.01,1.73l3.61-2.09c1.15-.66,2.36-1.28,3.43-2.06s1.93-1.7,2.32-2.95c.41-1.31,.05-2.65-.8-3.69-.34-.42-1.06-.36-1.41,0-.41,.41-.34,1,0,1.41h0Z"/><path class="cls-27" d="M530.98,610.26c-.15-.71-.68-1.05-1.38-1.09-.57-.03-.96,.48-1,1-1.24,14.66-2.49,29.33-3.73,43.99l1.96-.27-.15-.66c-.29-1.25-2.22-.72-1.93,.53l.15,.66c.27,1.16,1.87,.8,1.96-.27,1.24-14.66,2.49-29.33,3.73-43.99l-1,1h.21l-.71-.28-.05-.1c.27,1.26,2.2,.73,1.93-.53h0Z"/><path class="cls-27" d="M530.08,610.5c-.65,1.5-.37,2.91-.3,4.49,.08,1.75-.05,3.5-.21,5.25-.35,3.85-.69,7.69-.94,11.54s-.45,7.58-.62,11.37c-.08,1.9-.16,3.79-.23,5.69-.04,.99-.07,1.98-.11,2.97-.01,.41-.03,.82-.04,1.24,0,.17,.05,1.4,.06,1.38l1.21-.16-.1-.05,.46,.6-.02-.12-.46,1.13,.08-.04c1.16-.56,.15-2.28-1.01-1.73l-.08,.04c-.42,.2-.53,.71-.46,1.13,.06,.35,.27,.62,.58,.77,.4,.19,.89,.18,1.21-.16,.46-.47,.45-.93,.48-1.56,.04-.99,.07-1.98,.1-2.97,.07-1.9,.14-3.79,.21-5.69,.16-3.87,.34-7.75,.58-11.62s.51-7.57,.86-11.35c.18-1.92,.4-3.83,.45-5.75,.03-.96,0-1.91-.08-2.86-.07-.83-.25-1.74,.09-2.53,.51-1.17-1.22-2.19-1.73-1.01h0Z"/><path class="cls-27" d="M531.15,610.96l-.08-.05c-.28-.17-.73-.2-1.01,0-.86,.62-.81,1.77-.97,2.73-.23,1.36-.46,2.72-.68,4.09-.45,2.81-.85,5.64-1.13,8.48-.57,5.64-.62,11.3,.25,16.91l1.93-.53c-.76-3.58-.34-7.22,.2-10.8l-1.96-.27c-.39,3.64-.78,7.29-1.01,10.95-.2,3.26-.62,6.86,.56,9.98,.37,.97,2.07,.94,1.96-.27l-.68-7.94c-.11-1.26-1.99-1.31-2,0-.02,2.84-.15,5.67-.39,8.5l1.96-.27c-1.5-5.79-2.11-11.77-1.78-17.74,.17-2.98,.58-5.93,1.2-8.85s1.29-5.7,1.2-8.64c-.03-1.08-1.76-1.42-1.96-.27-1.33,7.51-1.93,15.13-1.75,22.76l1.96-.27c-.65-4.7-.39-9.49,.32-14.17,.66-4.35,2.3-8.85,1.68-13.27-.12-.88-1.44-.93-1.83-.24-1.06,1.87-1.01,4.04-1.03,6.12-.03,2.57,.03,5.15,.1,7.72h2c-.62-5.05-.21-10.11,.22-15.16,.07-.85-1.15-1.34-1.71-.71-1.06,1.2-1.48,2.63-1.87,4.15-.46,1.85-.88,3.71-1.25,5.57-.73,3.67-1.26,7.37-1.63,11.09h2c-.02-5.31,.45-10.6,1.44-15.82l-1.93-.53c-1,7.06-1.45,14.16-1.3,21.29h2c-.84-6.31,.42-12.54,1.73-18.69l-1.96-.27c.13,8.07-1.25,16.11-.43,24.17h2c-.79-6.39-.46-12.83,1.01-19.1l-1.93-.53c-1.45,9.69-2.39,19.45-2.81,29.24l1.86-.5c-.68-1.52-.33-3.46-.25-5.07s.18-3.29,.33-4.92c.3-3.42,.85-6.8,1.83-10.09l-1.93-.53-3.94,22.5,1.96,.27c-.37-6.95,.52-13.84,2.14-20.59,.3-1.25-1.61-1.78-1.93-.53-.95,3.79-1.74,7.61-2.35,11.47-.57,3.65-1.3,7.46-.58,11.13,.22,1.14,1.92,.82,1.96-.27,.26-6.93,.57-13.91,2.75-20.55l-1.93-.53c-1.5,6.59-2.97,13.22-3.15,20.01-.02,.94,1.45,1.43,1.86,.5,1.97-4.39,1.11-9.34,2.77-13.8l-1.93-.53c-1.35,5-2.66,10.02-2.95,15.21-.06,1.11,1.78,1.39,1.96,.27l1.86-11.31c.21-1.25-1.53-1.78-1.93-.53-1.18,3.75-2.3,7.54-2.34,11.51-.01,1.31,1.89,1.26,2,0l1.01-11.27c.1-1.12-1.75-1.37-1.96-.27-.42,2.2-.81,4.4-1.15,6.61-.31,1.99-.69,3.97-.21,5.96,.29,1.19,1.83,.77,1.96-.27,.34-2.56,.8-5.1,1.37-7.61,.47-2.1,.82-4.65,2.29-6.32l-1.67-.97c-.91,4.82-1.48,9.68-1.68,14.58-.03,.82,.86,1.16,1.5,.86,.8-.37,1.09-1.14,1.2-1.96,.2-1.49,.32-2.99,.58-4.47,.51-2.87,1.28-5.69,2.27-8.43l-1.96-.27c.22,1.87-.09,3.72-.35,5.57l-.78,5.65c-.17,1.24,1.71,1.82,1.93,.53l1.63-9.47-1.47,.6,.22,.12-.46-.6c.23,.61-.03,1.57-.08,2.21l-.19,2.38-.38,4.77c-.09,1.11,1.79,1.38,1.96,.27l.45-2.93c.08-.55,.03-2.08,.39-2.51l-.71,.29h.23l-.86-.5c.16,.24-.06,2.15-.08,2.78l-.09,3.35c-.03,1.29,1.97,1.29,2,0l.13-4.78c.02-.9,.32-2.45-.83-2.81-1.02-.32-1.6,.62-1.78,1.45-.35,1.68-.52,3.43-.78,5.13l1.96,.27,.5-6.2c.1-1.28,.83-3.63-.59-4.41-.52-.28-1.35-.07-1.47,.6l-1.63,9.47,1.93,.53,.84-6.12c.26-1.87,.58-3.74,.35-5.63-.13-1.11-1.56-1.37-1.96-.27-.83,2.3-1.51,4.64-2,7.04-.24,1.16-.44,2.32-.6,3.49-.08,.55,0,2.89-.53,3.14l1.5,.86c.2-4.72,.73-9.41,1.61-14.05,.17-.9-.95-1.78-1.67-.97-1.66,1.87-2.15,4.36-2.7,6.73-.66,2.85-1.16,5.72-1.55,8.62l1.96-.27c-.46-1.9,.05-3.95,.36-5.84s.64-3.78,1-5.67l-1.96-.27-1.01,11.27h2c.03-3.79,1.14-7.4,2.27-10.98l-1.93-.53-1.86,11.31,1.96,.27c.29-5.01,1.58-9.86,2.88-14.68,.34-1.26-1.48-1.72-1.93-.53-1.6,4.29-.7,9.13-2.57,13.32l1.86,.5c.17-6.61,1.62-13.06,3.07-19.47,.29-1.26-1.53-1.75-1.93-.53-2.24,6.8-2.56,13.99-2.82,21.08l1.96-.27c-.7-3.58,.15-7.47,.74-11.01s1.32-7.05,2.2-10.53l-1.93-.53c-1.65,6.91-2.58,14.01-2.21,21.12,.06,1.06,1.76,1.44,1.96,.27l3.94-22.5c.22-1.25-1.55-1.79-1.93-.53-1.08,3.61-1.63,7.34-1.94,11.09-.16,1.87-.26,3.75-.34,5.63-.08,1.72-.13,3.31,.58,4.91,.43,.97,1.83,.4,1.86-.5,.41-9.61,1.32-19.19,2.74-28.71,.18-1.24-1.63-1.82-1.93-.53-1.51,6.44-1.89,13.07-1.08,19.63,.15,1.25,2.13,1.29,2,0-.83-8.06,.56-16.11,.43-24.17-.02-1.09-1.72-1.4-1.96-.27-1.34,6.31-2.67,12.75-1.81,19.23,.16,1.23,2.03,1.33,2,0-.14-6.94,.26-13.88,1.23-20.76,.18-1.24-1.69-1.82-1.93-.53-1.02,5.4-1.53,10.86-1.51,16.35,0,1.31,1.87,1.26,2,0,.34-3.39,.83-6.75,1.47-10.09,.3-1.56,.63-3.11,1-4.65s.61-3.43,1.69-4.66l-1.71-.71c-.43,5.05-.84,10.11-.22,15.16,.15,1.24,2.03,1.32,2,0-.06-2.24-.12-4.48-.11-6.73,0-1.97-.24-4.34,.77-6.11l-1.83-.24c.36,2.53-.34,5.04-.84,7.5-.43,2.12-.8,4.25-1.08,6.39-.59,4.51-.71,9.03-.08,13.55,.16,1.12,1.99,.84,1.96-.27-.18-7.45,.37-14.89,1.68-22.23l-1.96-.27c.09,3.09-.72,6.03-1.32,9.03s-.96,5.93-1.11,8.92c-.29,5.99,.37,12,1.88,17.8,.3,1.15,1.87,.81,1.96-.27,.25-2.83,.38-5.66,.39-8.5h-2l.68,7.94,1.96-.27c-1.16-3.08-.67-6.72-.45-9.94,.23-3.49,.6-6.98,.98-10.46,.12-1.11-1.79-1.38-1.96-.27-.61,3.95-1.04,7.91-.2,11.87,.27,1.28,2.12,.71,1.93-.53-.78-5.02-.74-10.12-.3-15.17,.22-2.5,.54-4.99,.91-7.47,.19-1.29,.4-2.57,.61-3.85,.11-.64,.22-1.28,.32-1.92,.02-.12,.32-1.73,.05-1.54h-1.01l.08,.05c1.1,.67,2.11-1.06,1.01-1.73h0Z"/></g><g id="Glare"><circle class="cls-21" cx="524.85" cy="397.02" r="74.4"/></g><g id="Fire"><g><path class="cls-30" d="M530.09,408.3c.21,.31,.06,.76-.24,.99s-.68,.3-1.05,.36l-2.36,.4c-2.09,.35-4.39,.66-6.18-.46-.78-.49-1.39-1.22-1.92-1.97-2.11-2.98-3.29-6.81-2.31-10.32,.44-1.59,1.3-3.03,1.91-4.56,.85-2.17-.31-3.54-.52-5.87,.27,1.4,2.04,1.8,2.31,3.19,.03,.17,.07,.34,.18,.46,.24,.27,.72,.14,.94-.15s.24-.67,.27-1.03c.33-3.92,1.89-7.72,4.4-10.75,.63-.76,1.43-1.52,2.41-1.51-1.55,.75-2.47,2.5-2.48,4.23s.81,3.37,1.98,4.64c1.27,1.38,2.95,2.35,4.14,3.81,1.62,1.98,2.14,4.63,2.35,7.18,.31,3.91-.27,8.4-3.42,10.73"/><path class="cls-31" d="M529.66,408.56c.26,.51-1.1,.64-1.34,.68-.67,.11-1.34,.23-2.01,.34-1.08,.18-2.17,.34-3.27,.3s-2.2-.36-3.05-1.11-1.45-1.68-1.99-2.62c-1.09-1.88-1.81-4.04-1.81-6.23,0-2.43,1.12-4.41,2.04-6.58,.43-1.02,.62-2,.44-3.11s-.62-2.21-.74-3.37l-.98,.13c.17,.72,.64,1.24,1.18,1.72,.28,.25,.6,.5,.83,.8,.24,.32,.25,.64,.4,1,.3,.72,1.2,.84,1.76,.32,.66-.61,.54-1.82,.66-2.62,.32-2.11,.99-4.16,1.99-6.05,.49-.93,1.06-1.82,1.69-2.66s1.39-1.87,2.5-1.92l-.25-.93c-1.91,.98-2.91,3.18-2.69,5.27,.26,2.52,1.92,4.37,3.79,5.92,.98,.8,1.99,1.6,2.73,2.64s1.16,2.17,1.45,3.37c.54,2.22,.69,4.63,.44,6.91-.26,2.44-1.13,4.95-3.15,6.48-.51,.38,0,1.25,.5,.86,3.52-2.67,4.02-7.47,3.64-11.57-.22-2.34-.72-4.78-2.13-6.71s-3.91-3.14-5.27-5.27c-1.45-2.26-1.48-5.66,1.2-7.03,.44-.22,.23-.95-.25-.93-1.84,.07-3.04,1.88-3.98,3.27-1.06,1.58-1.89,3.31-2.47,5.13-.29,.9-.51,1.83-.66,2.76-.08,.46-.14,.92-.18,1.39-.02,.21-.15,1.42-.43,.8-.14-.31-.19-.61-.4-.9-.19-.27-.42-.5-.67-.72-.51-.46-1.08-.87-1.25-1.57-.13-.54-1.04-.44-.98,.13,.12,1.16,.5,2.24,.73,3.38,.27,1.36-.21,2.47-.78,3.68s-1.16,2.43-1.45,3.74c-.27,1.21-.3,2.46-.15,3.68,.31,2.44,1.35,4.79,2.81,6.77,.71,.96,1.53,1.8,2.64,2.28s2.28,.54,3.45,.46c1.52-.1,3.03-.42,4.53-.67,.58-.1,1.2-.19,1.62-.64,.39-.42,.45-.98,.2-1.48-.29-.58-1.15-.07-.86,.5h0Z"/></g><path class="cls-16" d="M520.49,394.45c-.87,2.42-1.07,5.08-.58,7.61,.25,1.29,.7,2.59,1.64,3.5,.31,.3,.69,.56,1.11,.65,.73,.16,1.47-.2,2.07-.65,1.01-.77,1.77-1.83,2.49-2.87,.7-1.01,1.39-2.03,1.84-3.17s.62-2.43,.25-3.6c-.22-.69-.62-1.31-1.01-1.93l-2.32-3.6c.17,1.25-.44,2.6-1.54,3.21s-2.64,.38-3.43-.6c-.2,.87-.56,1.69-1.06,2.43"/></g><g id="Torch"><path class="cls-6" d="M533.83,411.63l42.56,24.17c1.18,.67,2.54,.51,3.03-.36h0c.49-.87-.06-2.12-1.25-2.79l-42.56-24.17-1.79,3.15Z"/><path class="cls-5" d="M533.9,411.51l1.64-2.9c.42-.73-.05-1.79-1.05-2.35l-7.32-4.16c-1-.57-2.14-.43-2.56,.3l-1.64,2.9c-.42,.73,.05,1.79,1.05,2.35l7.32,4.16c1,.57,2.14,.43,2.56-.3Z"/><path class="cls-1" d="M524.29,408.48s3.47-2.08,3.84-6.55"/><path class="cls-1" d="M529.7,411.56s2.92-1.65,3.83-6.56"/></g><g id="Puglas_color"><g><path class="cls-12" d="M484.25,458.34c-1.15,.97-3.68,3.52-4.21,7.52-.29,2.16-.18,3.12-.08,3.97,.15,1.32,.27,2.37-1.09,6.58-1.98,6.16-2.69,14.14-2.02,22.05,1.05-.5,3.14-1.19,6.07-.66,.22-2.06,.58-4.26,1.15-6.56h0c.45-2.15,2.26-7.22,3.45-10.57,.52-1.46,1.01-2.84,1.12-3.21-.19-1.24-.39-2.46-.59-3.65-1.31-7.76-3.1-13.61-3.8-15.45Z"/><path class="cls-15" d="M490.17,459.15c.27,.34,.75,.42,1.12,.19l4.52-2.87c.39-.25,.51-.77,.27-1.16l-2.04-3.33c-.23-.37-.7-.51-1.09-.32l-5.38,2.57c-.24,.11-.4,.32-.46,.58-.06,.25,0,.52,.16,.72l2.9,3.63Z"/><path class="cls-31" d="M515.64,460.07c.05,.09,.13,.16,.24,.18l.59,.14c.17,.04,.35-.05,.42-.22l.5-1.28c-.13,0-.27-.02-.4-.04-.33-.04-.64-.12-.93-.22l-.44,1.13c-.04,.1-.03,.21,.02,.3Z"/><path class="cls-12" d="M479.64,519.06c1.01,1.1,1.55,1.47,1.83,1.59-.05-.16-.12-.33-.21-.49-.27-.28-.45-.51-.5-.57l.37-.28,.27-.38c.25,.18,.45,.41,.61,.66,.38,.37,.84,.71,1.19,.73,.05,0,.1,0,.14-.02-.2-.21-.57-.52-.81-.72-.33-.27-.63-.52-.82-.74l.71-.62c.1,.11,.27,.26,.45,.42l.21-.16c.37,.48,1.15,1.26,1.69,1.29,.05,0,.1,0,.14-.02-.2-.21-.57-.52-.81-.72-.33-.27-.63-.52-.82-.74l.34-.3s-.04-.05-.05-.07l.75-.57c.37,.48,1.15,1.26,1.69,1.29,.05,0,.1,0,.14-.02-.2-.21-.57-.52-.81-.72-.33-.27-.63-.52-.82-.74l.48-.42c-.46-.41-.78-.73-.81-.77l.66-.66s1.76,1.75,2.92,2.41c.1,.06,.17,.08,.21,.09,.06-.26-.11-1.1-.81-1.99-.86-1.09-2.37-1.9-3.06-2.23-1.93,.52-3.29,1.12-3.9,1.41-.5,.82-1.59,2.9-.52,4.07Z"/><path class="cls-12" d="M557.3,428.52l2.92,3.44c1.2,.2,3.29,.81,4.65,2.65,.28-.52,.82-1.28,1.81-2.43,1.87-2.17,2.24-5.03,2.48-8.01,.05-.59-.04-1.01-.24-1.11-.21-.11-.61,.05-.72,.13l-.18,.23-.62-.18-.04-.33c-.09-1.15-.36-1.27-.36-1.27-.12-.03-.56,.26-.94,.79l-.18,.24-.6-.12-.08-.3c-.45-1.78-.86-1.89-.86-1.89-.16,0-.57,.48-.88,1.28l-.11,.29-.63,.02-.14-.29c-.78-1.71-1.24-1.74-1.27-1.74h0c-.08,0-.3,.15-.52,.72-.11,.26-.14,.56-.1,.87,.42,3.11-2.28,6.17-2.4,6.3l-.7-.63s.38-.44,.82-1.11c-.43,.02-.78,.15-1.04,.4-.56,.52-.58,1.44-.06,2.05Z"/><path class="cls-29" d="M476.92,499.12c.13,1.39,.3,2.78,.51,4.15,1.12,7.1,1.96,9.66,2.33,10.53,.71-.33,2.06-.91,3.95-1.42-.43-1.75-1.48-6.98-.84-13.97-3-.55-5.09,.26-5.95,.71Z"/><path class="cls-28" d="M503.25,412.04c1.42,1.57,4.23,5.2,4.33,9.38,2.14-.08,4.18-.11,5.96-.03-.36-2.04-2.19-9.02-10.29-9.36Z"/><path class="cls-20" d="M493.34,504.26c.1,.89,.17,1.55,.21,1.95,2.25,.66,14.28,3.71,29.21-1.27-.02-.39-.05-1.02-.08-1.84-4.25,1.87-9.73,2.45-14.85,2.45-6.53,0-12.46-.93-14.48-1.29Z"/><path class="cls-29" d="M521.11,457.81c-.87,.69-1.9,1.06-3.05,1.1l-.59,1.5c-.15,.38-.52,.63-.92,.63-.07,0-.15,0-.22-.03l-.59-.14c-.28-.07-.51-.25-.65-.5-.13-.25-.15-.55-.05-.82l.45-1.15c-.51-.27-.94-.65-1.29-1.15-.61-.88-.87-1.98-.95-3.01-2.94,1.76-5.7,2.65-8.24,2.65-.87,0-1.72-.1-2.54-.31-3.21-.81-5.07-2.99-5.76-3.96l-1.42,.22,1.32,2.15c.42,.68,.21,1.59-.47,2.01l-4.52,2.87c-.24,.16-.52,.23-.79,.23-.43,0-.86-.19-1.15-.55l-2.53-3.16-1.87,1.21c.9,2.1,2.77,8.69,4,15.99,.21,1.23,.41,2.49,.61,3.77h0s0,.03,0,.05c.18,1.16,.36,2.34,.53,3.52,1.21,.65,4.69,2.34,9.49,3.22,5.42,.99,13.65,1.12,22.36-3.78,.06-3.56,.21-6.96,.5-9.76,.23-2.3,.42-4.3,.59-6.04,.59-6.12,.88-9.12,1.48-10.81h-1.26c-.37,1.27-1.09,2.96-2.47,4.06Z"/><path class="cls-20" d="M493.09,501.95c.07,.6,.13,1.16,.18,1.66,3.2,.57,19.73,3.23,29.37-1.18-.03-.67-.06-1.44-.09-2.29-4.79,2.31-10.84,2.98-16.28,2.98-5.97,0-11.19-.81-13.19-1.17Z"/><path class="cls-28" d="M489.78,413.41c1.46,1.28,4.19,4.23,4.92,8.86,.43-.11,.88-.18,1.35-.2,1.52-.07,3.11-.17,4.8-.28,.39-.02,.78-.05,1.17-.07-.7-2.05-3.7-8.98-12.23-8.31Z"/><path class="cls-12" d="M508.25,449.13c.07-.09,6.62-8.7,8.64-23.28,.12-.86-.12-1.7-.66-2.37-.54-.66-1.31-1.06-2.17-1.11-3.62-.23-8.47,.07-13.17,.36-1.69,.1-3.29,.2-4.81,.28-1.99,.1-3.76,1.18-4.72,2.89-.94,1.68-.95,3.61-.03,5.31l10.72,18.91-1.84,2.2c2.07,1.29,6.08,2.93,10.18,.01l-2.37-2.9,.23-.29Z"/><path class="cls-15" d="M517.07,458.24c1.43,.18,2.66-.13,3.66-.92,1.83-1.45,2.41-4.14,2.56-5.05l-9.24-.94c-.16,.9-.55,3.81,.67,5.57,.53,.76,1.33,1.22,2.36,1.35Z"/><path class="cls-25" d="M502.63,455.97c3.12,.79,6.68-.04,10.59-2.45,0-.29,0-.58,.02-.84l-1.21-.05c-2.2,1.91-4.42,2.56-6.44,2.56-3.65,0-6.59-2.14-7.43-2.81l-.75,.12c.76,.98,2.48,2.78,5.22,3.47Z"/><path class="cls-14" d="M499.79,484.75c-4.41-.81-7.73-2.3-9.25-3.07,1.01,7.05,1.86,14.15,2.4,18.97,2.93,.53,19.65,3.23,29.56-1.89-.16-4.77-.32-11.43-.23-17.68-5.88,3.23-11.54,4.23-16.28,4.23-2.32,0-4.41-.24-6.21-.57Z"/><path class="cls-26" d="M488.76,592c-.6,.44-.87,1.53-.8,3.15,.24,5.06,2.83,10.52,3.41,11.02,.08,.05,.21,.15,.37,.27,1.47,1.11,3.13,2.1,4.21,1.02,1.46-1.46,1.83-5.58,2.14-8.89,.04-.47,.09-.94,.13-1.38,.06-.62,.13-1.49,.2-2.49,.22-2.98,.56-7.52,1.34-12.53-4.57,0-7.65-1.35-9.03-2.11,.02,7.03,.21,14.04,.65,18.1l-1.24,.13c-.19-1.72-.33-3.97-.43-6.52-.27-.03-.64,0-.95,.22Z"/><path class="cls-12" d="M544.66,449.02c-7.78,4.37-16.53,4.71-18.46,4.73-.66,1.35-.95,4.35-1.58,10.93-.04,.4-.08,.82-.12,1.25,3.98-.72,21.65-4.22,29.07-10.64-1.37-4.4-4.06-7.65-5.07-8.77-1.19,.89-2.47,1.73-3.84,2.5Z"/><path class="cls-26" d="M518.45,582.33c.35,1.98,.67,3.64,.94,4.74,1.35,5.52,2.7,14.82,3.07,19.06,.11,1.3,.43,2.1,.95,2.45,.88,.58,2.64,.09,4.84-.63,2.17-.7,3.53-1.68,4.97-2.72,1.05-.76,2.13-1.54,3.53-2.18,.61-.28,1.02-1,1.1-1.92,.1-1.15-.35-2.7-1.59-3.56-1.35-.94-3.28-.85-5.59,.25l-.72,.34-.16-.78c-.02-.09-1.61-7.88-1.78-16.66-2.25,1.51-4.67,1.92-6.62,1.92-1.24,0-2.28-.16-2.95-.31Z"/><path class="cls-18" d="M501.91,572.24c2.86-9.9,1.95-17.78,1.94-17.86v-.12l.02-.11c.05-.19,4.86-18.91,4.39-23.64h.05c-.93-4.21-1.14-6.7-1.16-6.86l1.25-.1c0,.06,.52,6.17,3.52,15.4,3.46,10.65,3.46,17.51,3.46,19.77,0,3.02,1.62,15.14,2.96,22.95,1.47,.35,5.9,1.06,9.67-1.7-.01-1.29,0-2.6,.07-3.91,.52-11.27,.31-18.75-.11-20.93-.43-2.23,.09-5.83,.88-11.29,.15-1.01,.3-2.08,.46-3.2,.93-6.66-3.61-29.94-6.16-34.51-14.82,4.94-26.89,2.13-29.74,1.34-.8,2.94-4.15,15.84-3.73,24.42,.18,3.67,.53,7.57,.87,11.35,.57,6.38,1.11,12.4,.72,16.15-.31,3.01-.54,11.41-.53,19.95,1.11,.65,4.29,2.22,9.13,2.21,.49-3.03,1.15-6.21,2.05-9.31Z"/><path class="cls-29" d="M559.69,433.15c-1.17,2.81-4.81,8.43-10.7,12.99,1.06,1.17,3.67,4.37,5.08,8.69,.04-.04,.08-.07,.12-.11,5.26-5.1,9.53-16.74,10.16-18.51-1.11-2.38-3.65-2.93-4.67-3.05Z"/><path class="cls-31" d="M508.25,530.51c.47,4.73-4.34,23.45-4.39,23.64l-.03,.11v.12c.02,.08,.94,7.96-1.92,17.86-.9,3.1-1.55,6.28-2.05,9.31,.19,0,.38,0,.57,0l.02,.63c-.22,0-.43,0-.64,0h-.05c-.78,5.01-1.12,9.55-1.34,12.53-.07,1-.14,1.86-.2,2.49-.04,.44-.09,.9-.13,1.38-.3,3.31-.68,7.43-2.14,8.89-1.08,1.08-2.73,.09-4.21-1.02-.16-.12-.29-.22-.37-.27-.58-.5-3.17-5.96-3.41-11.02-.08-1.62,.2-2.71,.8-3.15,.31-.23,.68-.25,.95-.22-.02-.41-.03-.83-.05-1.26-.48-.02-1.08,.06-1.63,.46-.98,.71-1.42,2.13-1.32,4.23,.24,4.99,2.86,11.27,3.95,11.99,.08,.06,.19,.14,.33,.24,.73,.55,2.31,1.74,3.87,1.74,.68,0,1.37-.23,1.97-.83,1.78-1.78,2.16-5.96,2.5-9.66,.04-.47,.09-.93,.13-1.36,.06-.64,.13-1.51,.2-2.52,.36-4.84,1.03-13.86,3.45-22.21,2.78-9.61,2.11-17.16,1.99-18.24,.36-1.39,3.29-12.92,4.17-19.89-.39-1.45-.71-2.77-.97-3.96h-.05Z"/><path class="cls-31" d="M522.78,505.41s0-.18-.02-.48c-14.93,4.98-26.96,1.93-29.21,1.27,.03,.25,.04,.4,.04,.41l-1.24,.13v-.12c-.45,1.54-4.39,15.77-3.92,25.32,.18,3.69,.53,7.61,.87,11.4,.57,6.32,1.1,12.28,.72,15.91-.46,4.38-.73,20.19-.35,31.26,.01,.43,.03,.85,.05,1.26,.1,2.55,.24,4.8,.43,6.52l1.24-.13c-.44-4.06-.63-11.07-.65-18.1-.5-.28-.78-.47-.82-.5l.37-.5s.16,.11,.44,.28c-.01-8.54,.21-16.94,.53-19.95,.39-3.75-.15-9.78-.72-16.15-.34-3.78-.69-7.68-.87-11.35-.42-8.59,2.93-21.49,3.73-24.42,2.85,.8,14.92,3.6,29.74-1.34,2.55,4.58,7.09,27.85,6.16,34.51-.16,1.12-.31,2.19-.46,3.2-.79,5.45-1.31,9.05-.88,11.29,.42,2.18,.64,9.66,.11,20.93-.06,1.31-.08,2.62-.07,3.91,.14-.1,.28-.21,.43-.33l.4,.48c-.27,.22-.54,.41-.81,.6,.17,8.78,1.76,16.57,1.78,16.66l.16,.78,.72-.34c2.3-1.1,4.24-1.18,5.59-.25,1.24,.86,1.69,2.4,1.59,3.56-.08,.92-.49,1.64-1.1,1.92-1.4,.64-2.48,1.43-3.53,2.18-1.44,1.04-2.8,2.02-4.97,2.72-2.2,.71-3.96,1.21-4.84,.63-.53-.35-.84-1.15-.95-2.45-.37-4.23-1.72-13.53-3.07-19.06-.27-1.09-.59-2.75-.94-4.74-.51-.11-.81-.2-.82-.21l.2-.59s.19,.06,.51,.14c-1.34-7.82-2.96-19.94-2.96-22.95,0-2.26,0-9.12-3.46-19.77-3-9.23-3.51-15.33-3.52-15.4l-1.25,.1c.01,.16,.22,2.66,1.16,6.86,.26,1.19,.58,2.51,.97,3.96,.4,1.5,.88,3.12,1.45,4.87,3.4,10.46,3.4,17.18,3.4,19.38,0,3.95,2.73,23.23,4.06,28.66,1.34,5.47,2.67,14.68,3.04,18.87,.15,1.73,.63,2.8,1.51,3.38,.49,.33,1.07,.46,1.73,.46,1.14,0,2.53-.41,4.18-.94,2.36-.76,3.86-1.85,5.32-2.9,1.04-.75,2.03-1.47,3.32-2.06,1.02-.47,1.7-1.57,1.82-2.95,.16-1.85-.67-3.69-2.12-4.69-1.13-.78-3.07-1.4-6.1-.18-.48-2.61-1.96-11.53-1.55-20.25,.46-9.9,.41-18.43-.13-21.22-.39-2.02,.15-5.73,.89-10.87,.15-1.01,.3-2.08,.46-3.21,1.01-7.17-3.84-31.47-6.51-35.64v.17l-1.24,.07Z"/><path class="cls-31" d="M484.08,491.22c-.57,2.3-.93,4.5-1.15,6.56,.22,.04,.44,.08,.66,.14l-.14,.61c-.2-.05-.39-.08-.58-.12-.64,6.99,.41,12.22,.84,13.97-1.88,.51-3.24,1.08-3.95,1.42-.37-.87-1.21-3.43-2.33-10.53-.22-1.37-.38-2.76-.51-4.15-.29,.15-.44,.26-.45,.26l-.37-.5s.29-.21,.76-.43c-.66-7.91,.04-15.88,2.02-22.05,1.35-4.21,1.24-5.26,1.09-6.58-.1-.85-.21-1.81,.08-3.97,.53-3.99,3.06-6.54,4.21-7.52,.71,1.84,2.5,7.69,3.8,15.45,.2,1.19,.4,2.41,.59,3.65,0-.03,.01-.05,.02-.07,0,0-.02,.08,0,.18l1.23-.2c-.2-1.28-.4-2.54-.61-3.77-1.23-7.29-3.1-13.88-4-15.99l-.47,.3-.68-1.05h0c-.19,.13-4.57,3.08-5.33,8.84-.31,2.31-.18,3.4-.08,4.27,.14,1.22,.24,2.1-1.03,6.06-2.44,7.6-3,17.86-1.49,27.45,1.46,9.3,2.5,11.2,2.85,11.58,.28-.54,.54-.9,.58-.95l.76,.55s-.1,.13-.22,.34c.6-.29,1.96-.89,3.9-1.41-.22-.1-.36-.16-.36-.16l.35-.87s.53,.22,1.16,.57l-.14-.47c-.03-.09-2.76-9.6,.34-21.61h0c-.04,.15-.07,.3-.1,.43l-1.22-.26Z"/><polygon class="cls-31" points="484.58 456.55 484.14 456.84 484.58 456.56 484.58 456.55"/><path class="cls-31" d="M493.59,506.62s-.02-.16-.04-.41c-.04-.39-.11-1.06-.21-1.95-.46-.08-.72-.13-.74-.14l.12-.61s.21,.04,.54,.1c-.05-.5-.12-1.06-.18-1.66-.46-.08-.75-.14-.84-.16l.25-1.23s.17,.03,.44,.08c-.54-4.82-1.39-11.92-2.4-18.97-.58-.29-.89-.48-.9-.49l.32-.53s.17,.1,.47,.26c-.17-1.18-.35-2.36-.53-3.52,.02,.19-.04,.41-.85,2.71,1.8,12.18,3.14,25.16,3.28,26.52v.12l1.26-.13Z"/><path class="cls-31" d="M489.9,477.4s0-.03,0-.05h0l-1.23,.2c-.02-.1,0-.17,0-.18,0,.02,0,.04-.02,.07-.1,.37-.6,1.76-1.12,3.21-1.19,3.35-3,8.42-3.45,10.57h0l1.22,.26c.03-.13,.06-.28,.1-.44,.56-2.27,2.2-6.87,3.3-9.97,.13-.36,.24-.67,.34-.96,.82-2.3,.88-2.52,.85-2.71Z"/><path class="cls-31" d="M565.27,436.08c-.21,0-.44-.09-.57-.32-.12-.21-.19-.49,.16-1.15-1.36-1.83-3.45-2.45-4.65-2.65l.27,.32-.72,.61-.88-1.04h-.05l-.15,.42c-1.05,2.91-6.19,10.9-14.64,15.65-8.31,4.67-18.1,4.57-18.2,4.57h-.01v1.25h-.99c-.6,1.68-.89,4.68-1.48,10.81-.17,1.74-.36,3.75-.59,6.04-.28,2.8-.43,6.2-.5,9.76,.16-.09,.31-.17,.47-.26l.31,.54c-.26,.15-.53,.3-.79,.44-.09,6.25,.07,12.91,.23,17.68,.11-.06,.23-.12,.34-.18l.6,1.1c-.29,.16-.59,.31-.89,.45,.03,.85,.06,1.62,.09,2.29,.16-.08,.33-.15,.49-.23l.28,.56c-.24,.12-.49,.23-.74,.34,.04,.82,.07,1.45,.08,1.84,.01,.29,.02,.46,.02,.48l1.25-.07v-.17c-.12-2.12-1.14-23.19,0-34.45,.13-1.25,.24-2.42,.35-3.51,3.41-.59,23.12-4.27,30.69-11.61,5.89-5.71,10.37-18.68,10.56-19.23l.08-.22-.09-.22c-.11-.26-.23-.51-.36-.74l.16,.86s-.09,.01-.13,.01Zm-11.08,18.63s-.08,.07-.12,.11c.09,.27,.17,.53,.25,.81l-.6,.17c-.05-.17-.1-.35-.15-.52-7.42,6.42-25.09,9.92-29.07,10.64,.04-.43,.08-.85,.12-1.25,.63-6.58,.92-9.58,1.58-10.93,1.93-.02,10.68-.36,18.46-4.73,1.37-.77,2.65-1.61,3.84-2.5-.25-.27-.39-.42-.4-.42l.44-.45s.18,.18,.46,.49c5.89-4.56,9.53-10.18,10.7-12.99,1.02,.12,3.56,.67,4.67,3.05-.63,1.77-4.91,13.41-10.16,18.51Z"/><path class="cls-31" d="M492.94,500.65c-.27-.05-.43-.08-.44-.08l-.25,1.23c.09,.02,.38,.08,.84,.16,2,.36,7.22,1.17,13.19,1.17,5.43,0,11.49-.68,16.28-2.98,.3-.14,.6-.29,.89-.45l-.6-1.1c-.11,.06-.22,.12-.34,.18-9.91,5.13-26.63,2.42-29.56,1.89Z"/><path class="cls-31" d="M485.29,457.59l1.87-1.21-.37-.47c-.14-.18-.24-.38-.29-.6l-1.91,1.24-.44,.28h0l.68,1.05,.47-.3Z"/><path class="cls-31" d="M524.85,453.75h.99v-1.25h-1.96c-.05,.31-.14,.75-.29,1.25h1.26Z"/><path class="cls-31" d="M496.71,452.61c-.19-.27-.29-.44-.31-.47l.54-.31s.16,.27,.47,.67l.75-.12c.84,.67,3.79,2.81,7.43,2.81,2.01,0,4.24-.65,6.44-2.56l1.21,.05c.03-.5,.09-.93,.14-1.25l-1.8-.08-.19,.17c-.09,.08-.17,.14-.26,.22l.4,.49-.73,.59-.41-.5c-4.09,2.92-8.1,1.28-10.18-.01l-.44,.52-.72-.6,.37-.44c-.38-.28-.62-.49-.67-.53l-.22-.2-3.96,.63,.71,1.15,1.42-.22Z"/><path class="cls-31" d="M487.15,456.38l2.53,3.16c.29,.36,.72,.55,1.15,.55,.27,0,.55-.07,.79-.23l4.52-2.87c.68-.43,.89-1.33,.47-2.01l-1.32-2.15-.71-1.15-.02-.03c-.4-.65-1.21-.89-1.89-.56l-5.38,2.57c-.41,.2-.7,.56-.8,1-.05,.22-.05,.44,0,.65,.05,.21,.15,.42,.29,.6l.37,.47Zm-.05-1.58c.06-.25,.23-.46,.46-.58l5.38-2.57c.39-.19,.86-.05,1.09,.32l2.04,3.33c.24,.39,.12,.91-.27,1.16l-4.52,2.87c-.37,.23-.85,.15-1.12-.19l-2.9-3.63c-.16-.2-.22-.47-.16-.72Z"/><path class="cls-31" d="M513.22,453.52c.05-.03,.1-.06,.15-.09l.33,.53c-.15,.09-.3,.18-.45,.27,.08,1.04,.34,2.14,.95,3.01,.34,.49,.78,.87,1.29,1.15l.1-.26,.58,.23-.11,.29c.29,.1,.6,.17,.93,.22,.14,.02,.27,.03,.4,.04l.16-.41,.58,.23-.07,.19c1.16-.04,2.18-.41,3.05-1.1,1.38-1.1,2.11-2.79,2.47-4.06,.15-.5,.24-.94,.29-1.25,.05-.27,.07-.45,.07-.48l.03-.31-10.44-1.06-.06,.27s-.05,.22-.1,.52c-.05,.31-.11,.74-.14,1.25-.02,.26-.03,.54-.02,.84Zm.82-2.2l9.24,.94c-.15,.91-.73,3.6-2.56,5.05-1,.79-2.23,1.1-3.66,.92-1.03-.13-1.82-.58-2.36-1.35-1.23-1.75-.83-4.67-.67-5.57Z"/><path class="cls-31" d="M515.08,460.37c.13,.25,.37,.44,.65,.5l.59,.14c.07,.02,.15,.03,.22,.03,.4,0,.77-.24,.92-.63l.59-1.5,.07-.19-.58-.23-.16,.41-.5,1.28c-.07,.17-.25,.26-.42,.22l-.59-.14c-.1-.02-.19-.09-.24-.18-.05-.09-.06-.2-.02-.3l.44-1.13,.11-.29-.58-.23-.1,.26-.45,1.15c-.1,.27-.09,.56,.05,.82Z"/><path class="cls-31" d="M502.47,456.57c.82,.21,1.67,.31,2.54,.31,2.55,0,5.31-.89,8.24-2.65,.15-.09,.3-.18,.45-.27l-.33-.53c-.05,.03-.1,.06-.15,.09-3.9,2.41-7.47,3.23-10.59,2.45-2.74-.69-4.45-2.48-5.22-3.47-.31-.4-.46-.66-.47-.67l-.54,.31s.12,.21,.31,.47c.69,.97,2.54,3.15,5.76,3.96Z"/><path class="cls-31" d="M499.93,484.14c-4.8-.88-8.28-2.57-9.49-3.22-.3-.16-.46-.26-.47-.26l-.32,.53s.33,.2,.9,.49c1.51,.77,4.83,2.25,9.25,3.07,1.79,.33,3.89,.57,6.21,.57,4.74,0,10.4-1,16.28-4.23,.26-.14,.53-.29,.79-.44l-.31-.54c-.16,.09-.31,.18-.47,.26-8.71,4.9-16.94,4.77-22.36,3.78Z"/><path class="cls-31" d="M548.53,445.65l-.44,.45s.16,.15,.4,.42c1.01,1.12,3.7,4.37,5.07,8.77,.05,.17,.11,.34,.15,.52l.6-.17c-.08-.27-.16-.54-.25-.81-1.41-4.31-4.03-7.51-5.08-8.69-.28-.31-.45-.48-.46-.49Z"/><path class="cls-31" d="M476.86,498.45c-.47,.22-.73,.41-.76,.43l.37,.5s.16-.11,.45-.26c.87-.45,2.95-1.26,5.95-.71,.19,.04,.38,.07,.58,.12l.14-.61c-.23-.05-.44-.1-.66-.14-2.93-.53-5.03,.16-6.07,.66Z"/><path class="cls-31" d="M493.27,503.61c-.34-.06-.53-.1-.54-.1l-.12,.61s.28,.06,.74,.14c2.03,.36,7.96,1.29,14.48,1.29,5.12,0,10.6-.58,14.85-2.45,.25-.11,.5-.22,.74-.34l-.28-.56c-.16,.08-.32,.16-.49,.23-9.64,4.41-26.17,1.76-29.37,1.18Z"/><path class="cls-31" d="M518.33,581.67c-.31-.07-.5-.13-.51-.14l-.2,.59s.31,.1,.82,.21c.67,.14,1.71,.31,2.95,.31,1.94,0,4.37-.4,6.62-1.92,.27-.18,.54-.38,.81-.6l-.4-.48c-.14,.12-.28,.22-.43,.33-3.77,2.76-8.19,2.05-9.67,1.7Z"/><path class="cls-31" d="M499.81,582.18c.21,0,.42,0,.64,0l-.02-.63c-.19,0-.38,0-.57,0-4.84,0-8.01-1.56-9.13-2.21-.29-.17-.44-.28-.44-.28l-.37,.5s.32,.23,.82,.5c1.38,.76,4.46,2.1,9.03,2.11h.05Z"/><path class="cls-31" d="M499.78,452.83l.44-.52,1.84-2.2-10.72-18.91c-.92-1.7-.92-3.63,.03-5.31,.96-1.71,2.73-2.79,4.72-2.89,1.52-.07,3.12-.17,4.81-.28,4.69-.29,9.55-.59,13.17-.36,.86,.05,1.63,.45,2.17,1.11,.55,.67,.78,1.51,.66,2.37-2.02,14.57-8.57,23.19-8.64,23.28l-.23,.29,2.37,2.9,.41,.5,.73-.59-.4-.49-1.91-2.35c1.18-1.67,6.76-10.12,8.6-23.42,.15-1.11-.16-2.23-.86-3.09-.63-.77-1.49-1.26-2.45-1.41,.04,.23,.05,.37,.06,.38l-.93,.09c0-.05-.03-.25-.08-.55-1.79-.08-3.82-.06-5.96,.03,0,.17,0,.33,0,.5l-.94-.03c0-.15,0-.29,0-.44-1.21,.05-2.44,.12-3.67,.2,.08,.23,.11,.36,.11,.37l-.91,.23c-.01-.05-.07-.25-.17-.55-.39,.02-.78,.05-1.17,.07-1.69,.1-3.28,.2-4.8,.28-.46,.02-.91,.09-1.35,.2,.03,.18,.06,.36,.08,.55l-.93,.11c-.01-.12-.03-.24-.05-.36-1.36,.56-2.51,1.55-3.25,2.87-1.09,1.93-1.1,4.26-.03,6.22l10.4,18.36-1.49,1.77-.37,.44,.72,.6Z"/><path class="cls-31" d="M507.58,421.93c0-.17,0-.34,0-.5-.1-4.19-2.91-7.82-4.33-9.38,8.11,.34,9.93,7.31,10.29,9.36,.05,.3,.07,.49,.08,.55l.93-.09s-.02-.15-.06-.38c-.33-1.93-2.37-10.68-12.38-10.38l-1.14,.03,.83,.78s4.7,4.46,4.82,9.56c0,.14,0,.29,0,.44l.94,.03Z"/><path class="cls-31" d="M494.78,422.82c-.02-.19-.05-.36-.08-.55-.73-4.63-3.46-7.58-4.92-8.86,8.53-.67,11.53,6.26,12.23,8.31,.1,.3,.16,.5,.17,.55l.91-.23s-.04-.15-.11-.37c-.64-1.92-4.12-10.58-14.44-9.05l-1.19,.18,1,.68s4.59,3.16,5.46,9.1c.02,.12,.04,.24,.05,.36l.93-.11Z"/><path class="cls-31" d="M560.49,432.29l-.27-.32-2.92-3.44c-.52-.62-.49-1.54,.06-2.05,.26-.24,.61-.37,1.04-.4,.18-.27,.36-.58,.54-.92-.92-.09-1.66,.12-2.22,.63-.92,.85-.98,2.35-.14,3.35l2.31,2.73,.88,1.04,.72-.61Z"/><path class="cls-31" d="M569.22,422.17c-.33-.13-.7-.1-1.02,0-.12-.63-.37-1.26-.95-1.42-.5-.14-.99,.14-1.37,.48-.39-1.18-.87-1.75-1.48-1.79-.6-.04-1.07,.48-1.39,1.01-.57-1-1.13-1.46-1.72-1.46-.39,0-.95,.24-1.37,1.3-.17,.41-.22,.88-.16,1.35,.17,1.24-.28,2.51-.81,3.52-.18,.34-.36,.65-.54,.92-.44,.67-.81,1.09-.82,1.11l.7,.63c.12-.13,2.82-3.19,2.4-6.3-.04-.31,0-.61,.1-.87,.23-.56,.44-.72,.52-.72h0s.48,.03,1.27,1.74l.14,.29,.63-.02,.11-.29c.31-.79,.72-1.27,.88-1.28,0,0,.42,.11,.86,1.89l.08,.3,.6,.12,.18-.24c.39-.52,.82-.82,.94-.79,0,0,.27,.13,.36,1.27l.04,.33,.62,.18,.18-.23c.11-.08,.51-.24,.72-.13,.2,.1,.29,.52,.24,1.11-.24,2.99-.61,5.84-2.48,8.01-.99,1.15-1.53,1.91-1.81,2.43-.35,.66-.28,.94-.16,1.15,.13,.23,.36,.32,.57,.32,.05,0,.09,0,.13-.01l-.16-.86v-.06c.09-.02,.17,.04,.2,.07,.08,.07,.1,.16,.1,.19,0-.05,.08-.57,1.84-2.61,2.05-2.38,2.45-5.4,2.7-8.55,.11-1.4-.41-1.9-.86-2.07Z"/><path class="cls-31" d="M481.47,520.65c-.28-.12-.82-.49-1.83-1.59-1.07-1.17,.02-3.25,.52-4.07,.13-.21,.22-.34,.22-.34l-.76-.55s-.29,.41-.58,.95c-.63,1.19-1.38,3.24-.1,4.64,1.22,1.34,2.02,1.92,2.68,1.95h.05c.26,0,.5-.09,.69-.27l.18-.17-.02-.11c-.49-.21-.95-.6-1.27-.93,.09,.16,.16,.33,.21,.49Z"/><path class="cls-31" d="M481.39,518.92l-.27,.38,.37-.28c.13,.17,.3,.37,.5,.56-.15-.25-.35-.48-.61-.66Z"/><path class="cls-31" d="M483.69,513.42s.14,.06,.36,.16c.69,.33,2.21,1.13,3.06,2.23,.7,.89,.87,1.74,.81,1.99-.04-.01-.11-.03-.21-.09-1.16-.66-2.9-2.4-2.92-2.41l-.66,.66s.35,.35,.81,.77l.23-.2c.14,.16,.43,.4,.72,.64,.64,.53,1.07,.91,1.21,1.27,.05,.03,.1,.06,.14,.09,.29,.17,.53,.22,.72,.22,.34,0,.55-.18,.65-.29,.53-.61,.2-2-.77-3.23-.73-.93-1.82-1.65-2.65-2.11-.64-.35-1.12-.55-1.16-.57l-.35,.87Z"/><path class="cls-31" d="M482.31,519.04l.54-.41c-.19-.16-.36-.31-.45-.42l-.71,.62c.19,.22,.5,.47,.82,.74,.25,.2,.62,.51,.81,.72-.04,.01-.09,.02-.14,.02-.35-.02-.81-.36-1.19-.73-.2-.19-.37-.39-.5-.56l-.37,.28-.37,.28c.05,.06,.23,.3,.5,.57,.33,.33,.78,.72,1.27,.93,.2,.09,.41,.14,.61,.15,.02,0,.05,0,.07,0,.38,0,.73-.15,1-.45,.05-.05,.08-.11,.11-.17-1-.29-1.9-1.44-2.01-1.59Z"/><path class="cls-31" d="M483.59,517.98l-.34,.3c.19,.22,.5,.47,.82,.74,.25,.2,.62,.51,.81,.72-.04,.01-.09,.02-.14,.02-.54-.03-1.32-.8-1.69-1.29l-.21,.16-.54,.41c.11,.15,1.01,1.29,2.01,1.59,.12,.04,.25,.06,.37,.07,.02,0,.05,0,.07,0,.38,0,.73-.15,1-.45,.12-.13,.17-.29,.16-.46,0-.07-.03-.15-.06-.22-1.03-.08-2.03-1.26-2.29-1.58Z"/><path class="cls-31" d="M485.9,517.17c-.28-.23-.58-.48-.72-.64l-.23,.2-.48,.42c.19,.22,.5,.47,.82,.74,.25,.2,.62,.51,.81,.72-.04,.01-.09,.02-.14,.02-.54-.03-1.32-.8-1.69-1.29l-.75,.57s.03,.04,.05,.07c.26,.32,1.26,1.5,2.29,1.58,.02,0,.03,0,.05,0,.02,0,.05,0,.07,0,.38,0,.73-.15,1-.45,.12-.13,.17-.29,.16-.46,0-.07-.02-.14-.05-.21-.14-.37-.57-.74-1.21-1.27Z"/></g></g><g id="Puglas_Linework"><g><path class="cls-9" d="M484.25,458.34c-1.15,.97-3.68,3.52-4.21,7.52-.29,2.16-.18,3.12-.08,3.97,.15,1.32,.27,2.37-1.09,6.58-1.98,6.16-2.69,14.14-2.02,22.05,1.05-.5,3.14-1.19,6.07-.66,.22-2.06,.58-4.26,1.15-6.56h0c.45-2.15,2.26-7.22,3.45-10.57,.52-1.46,1.01-2.84,1.12-3.21-.19-1.24-.39-2.46-.59-3.65-1.31-7.76-3.1-13.61-3.8-15.45Z"/><path class="cls-9" d="M490.17,459.15c.27,.34,.75,.42,1.12,.19l4.52-2.87c.39-.25,.51-.77,.27-1.16l-2.04-3.33c-.23-.37-.7-.51-1.09-.32l-5.38,2.57c-.24,.11-.4,.32-.46,.58-.06,.25,0,.52,.16,.72l2.9,3.63Z"/><path class="cls-9" d="M515.64,460.07c.05,.09,.13,.16,.24,.18l.59,.14c.17,.04,.35-.05,.42-.22l.5-1.28c-.13,0-.27-.02-.4-.04-.33-.04-.64-.12-.93-.22l-.44,1.13c-.04,.1-.03,.21,.02,.3Z"/><path class="cls-9" d="M479.64,519.06c1.01,1.1,1.55,1.47,1.83,1.59-.05-.16-.12-.33-.21-.49-.27-.28-.45-.51-.5-.57l.37-.28,.27-.38c.25,.18,.45,.41,.61,.66,.38,.37,.84,.71,1.19,.73,.05,0,.1,0,.14-.02-.2-.21-.57-.52-.81-.72-.33-.27-.63-.52-.82-.74l.71-.62c.1,.11,.27,.26,.45,.42l.21-.16c.37,.48,1.15,1.26,1.69,1.29,.05,0,.1,0,.14-.02-.2-.21-.57-.52-.81-.72-.33-.27-.63-.52-.82-.74l.34-.3s-.04-.05-.05-.07l.75-.57c.37,.48,1.15,1.26,1.69,1.29,.05,0,.1,0,.14-.02-.2-.21-.57-.52-.81-.72-.33-.27-.63-.52-.82-.74l.48-.42c-.46-.41-.78-.73-.81-.77l.66-.66s1.76,1.75,2.92,2.41c.1,.06,.17,.08,.21,.09,.06-.26-.11-1.1-.81-1.99-.86-1.09-2.37-1.9-3.06-2.23-1.93,.52-3.29,1.12-3.9,1.41-.5,.82-1.59,2.9-.52,4.07Z"/><path class="cls-9" d="M557.3,428.52l2.92,3.44c1.2,.2,3.29,.81,4.65,2.65,.28-.52,.82-1.28,1.81-2.43,1.87-2.17,2.24-5.03,2.48-8.01,.05-.59-.04-1.01-.24-1.11-.21-.11-.61,.05-.72,.13l-.18,.23-.62-.18-.04-.33c-.09-1.15-.36-1.27-.36-1.27-.12-.03-.56,.26-.94,.79l-.18,.24-.6-.12-.08-.3c-.45-1.78-.86-1.89-.86-1.89-.16,0-.57,.48-.88,1.28l-.11,.29-.63,.02-.14-.29c-.78-1.71-1.24-1.74-1.27-1.74h0c-.08,0-.3,.15-.52,.72-.11,.26-.14,.56-.1,.87,.42,3.11-2.28,6.17-2.4,6.3l-.7-.63s.38-.44,.82-1.11c-.43,.02-.78,.15-1.04,.4-.56,.52-.58,1.44-.06,2.05Z"/><path class="cls-9" d="M476.92,499.12c.13,1.39,.3,2.78,.51,4.15,1.12,7.1,1.96,9.66,2.33,10.53,.71-.33,2.06-.91,3.95-1.42-.43-1.75-1.48-6.98-.84-13.97-3-.55-5.09,.26-5.95,.71Z"/><path class="cls-9" d="M503.25,412.04c1.42,1.57,4.23,5.2,4.33,9.38,2.14-.08,4.18-.11,5.96-.03-.36-2.04-2.19-9.02-10.29-9.36Z"/><path class="cls-9" d="M493.34,504.26c.1,.89,.17,1.55,.21,1.95,2.25,.66,14.28,3.71,29.21-1.27-.02-.39-.05-1.02-.08-1.84-4.25,1.87-9.73,2.45-14.85,2.45-6.53,0-12.46-.93-14.48-1.29Z"/><path class="cls-9" d="M521.11,457.81c-.87,.69-1.9,1.06-3.05,1.1l-.59,1.5c-.15,.38-.52,.63-.92,.63-.07,0-.15,0-.22-.03l-.59-.14c-.28-.07-.51-.25-.65-.5-.13-.25-.15-.55-.05-.82l.45-1.15c-.51-.27-.94-.65-1.29-1.15-.61-.88-.87-1.98-.95-3.01-2.94,1.76-5.7,2.65-8.24,2.65-.87,0-1.72-.1-2.54-.31-3.21-.81-5.07-2.99-5.76-3.96l-1.42,.22,1.32,2.15c.42,.68,.21,1.59-.47,2.01l-4.52,2.87c-.24,.16-.52,.23-.79,.23-.43,0-.86-.19-1.15-.55l-2.53-3.16-1.87,1.21c.9,2.1,2.77,8.69,4,15.99,.21,1.23,.41,2.49,.61,3.77h0s0,.03,0,.05c.18,1.16,.36,2.34,.53,3.52,1.21,.65,4.69,2.34,9.49,3.22,5.42,.99,13.65,1.12,22.36-3.78,.06-3.56,.21-6.96,.5-9.76,.23-2.3,.42-4.3,.59-6.04,.59-6.12,.88-9.12,1.48-10.81h-1.26c-.37,1.27-1.09,2.96-2.47,4.06Z"/><path class="cls-9" d="M493.09,501.95c.07,.6,.13,1.16,.18,1.66,3.2,.57,19.73,3.23,29.37-1.18-.03-.67-.06-1.44-.09-2.29-4.79,2.31-10.84,2.98-16.28,2.98-5.97,0-11.19-.81-13.19-1.17Z"/><path class="cls-9" d="M489.78,413.41c1.46,1.28,4.19,4.23,4.92,8.86,.43-.11,.88-.18,1.35-.2,1.52-.07,3.11-.17,4.8-.28,.39-.02,.78-.05,1.17-.07-.7-2.05-3.7-8.98-12.23-8.31Z"/><path class="cls-9" d="M508.25,449.13c.07-.09,6.62-8.7,8.64-23.28,.12-.86-.12-1.7-.66-2.37-.54-.66-1.31-1.06-2.17-1.11-3.62-.23-8.47,.07-13.17,.36-1.69,.1-3.29,.2-4.81,.28-1.99,.1-3.76,1.18-4.72,2.89-.94,1.68-.95,3.61-.03,5.31l10.72,18.91-1.84,2.2c2.07,1.29,6.08,2.93,10.18,.01l-2.37-2.9,.23-.29Z"/><path class="cls-9" d="M514.71,456.89c.53,.76,1.33,1.22,2.36,1.35,1.43,.18,2.66-.13,3.66-.92,1.83-1.45,2.41-4.14,2.56-5.05l-9.24-.94c-.16,.9-.55,3.81,.67,5.57Z"/><path class="cls-9" d="M502.63,455.97c3.12,.79,6.68-.04,10.59-2.45,0-.29,0-.58,.02-.84l-1.21-.05c-2.2,1.91-4.42,2.56-6.44,2.56-3.65,0-6.59-2.14-7.43-2.81l-.75,.12c.76,.98,2.48,2.78,5.22,3.47Z"/><path class="cls-9" d="M499.79,484.75c-4.41-.81-7.73-2.3-9.25-3.07,1.01,7.05,1.86,14.15,2.4,18.97,2.93,.53,19.65,3.23,29.56-1.89-.16-4.77-.32-11.43-.23-17.68-5.88,3.23-11.54,4.23-16.28,4.23-2.32,0-4.41-.24-6.21-.57Z"/><path class="cls-9" d="M488.76,592c-.6,.44-.87,1.53-.8,3.15,.24,5.06,2.83,10.52,3.41,11.02,.08,.05,.21,.15,.37,.27,1.47,1.11,3.13,2.1,4.21,1.02,1.46-1.46,1.83-5.58,2.14-8.89,.04-.47,.09-.94,.13-1.38,.06-.62,.13-1.49,.2-2.49,.22-2.98,.56-7.52,1.34-12.53-4.57,0-7.65-1.35-9.03-2.11,.02,7.03,.21,14.04,.65,18.1l-1.24,.13c-.19-1.72-.33-3.97-.43-6.52-.27-.03-.64,0-.95,.22Z"/><path class="cls-9" d="M544.66,449.02c-7.78,4.37-16.53,4.71-18.46,4.73-.66,1.35-.95,4.35-1.58,10.93-.04,.4-.08,.82-.12,1.25,3.98-.72,21.65-4.22,29.07-10.64-1.37-4.4-4.06-7.65-5.07-8.77-1.19,.89-2.47,1.73-3.84,2.5Z"/><path class="cls-9" d="M518.45,582.33c.35,1.98,.67,3.64,.94,4.74,1.35,5.52,2.7,14.82,3.07,19.06,.11,1.3,.43,2.1,.95,2.45,.88,.58,2.64,.09,4.84-.63,2.17-.7,3.53-1.68,4.97-2.72,1.05-.76,2.13-1.54,3.53-2.18,.61-.28,1.02-1,1.1-1.92,.1-1.15-.35-2.7-1.59-3.56-1.35-.94-3.28-.85-5.59,.25l-.72,.34-.16-.78c-.02-.09-1.61-7.88-1.78-16.66-2.25,1.51-4.67,1.92-6.62,1.92-1.24,0-2.28-.16-2.95-.31Z"/><path class="cls-9" d="M499.86,581.55c.49-3.03,1.15-6.21,2.05-9.31,2.86-9.9,1.95-17.78,1.94-17.86v-.12l.02-.11c.05-.19,4.86-18.91,4.39-23.64h.05c-.93-4.21-1.14-6.7-1.16-6.86l1.25-.1c0,.06,.52,6.17,3.52,15.4,3.46,10.65,3.46,17.51,3.46,19.77,0,3.02,1.62,15.14,2.96,22.95,1.47,.35,5.9,1.06,9.67-1.7-.01-1.29,0-2.6,.07-3.91,.52-11.27,.31-18.75-.11-20.93-.43-2.23,.09-5.83,.88-11.29,.15-1.01,.3-2.08,.46-3.2,.93-6.66-3.61-29.94-6.16-34.51-14.82,4.94-26.89,2.13-29.74,1.34-.8,2.94-4.15,15.84-3.73,24.42,.18,3.67,.53,7.57,.87,11.35,.57,6.38,1.11,12.4,.72,16.15-.31,3.01-.54,11.41-.53,19.95,1.11,.65,4.29,2.22,9.13,2.21Z"/><path class="cls-9" d="M559.69,433.15c-1.17,2.81-4.81,8.43-10.7,12.99,1.06,1.17,3.67,4.37,5.08,8.69,.04-.04,.08-.07,.12-.11,5.26-5.1,9.53-16.74,10.16-18.51-1.11-2.38-3.65-2.93-4.67-3.05Z"/><path class="cls-31" d="M508.25,530.51c.47,4.73-4.34,23.45-4.39,23.64l-.03,.11v.12c.02,.08,.94,7.96-1.92,17.86-.9,3.1-1.55,6.28-2.05,9.31,.19,0,.38,0,.57,0l.02,.63c-.22,0-.43,0-.64,0h-.05c-.78,5.01-1.12,9.55-1.34,12.53-.07,1-.14,1.86-.2,2.49-.04,.44-.09,.9-.13,1.38-.3,3.31-.68,7.43-2.14,8.89-1.08,1.08-2.73,.09-4.21-1.02-.16-.12-.29-.22-.37-.27-.58-.5-3.17-5.96-3.41-11.02-.08-1.62,.2-2.71,.8-3.15,.31-.23,.68-.25,.95-.22-.02-.41-.03-.83-.05-1.26-.48-.02-1.08,.06-1.63,.46-.98,.71-1.42,2.13-1.32,4.23,.24,4.99,2.86,11.27,3.95,11.99,.08,.06,.19,.14,.33,.24,.73,.55,2.31,1.74,3.87,1.74,.68,0,1.37-.23,1.97-.83,1.78-1.78,2.16-5.96,2.5-9.66,.04-.47,.09-.93,.13-1.36,.06-.64,.13-1.51,.2-2.52,.36-4.84,1.03-13.86,3.45-22.21,2.78-9.61,2.11-17.16,1.99-18.24,.36-1.39,3.29-12.92,4.17-19.89-.39-1.45-.71-2.77-.97-3.96h-.05Z"/><path class="cls-31" d="M522.78,505.41s0-.18-.02-.48c-14.93,4.98-26.96,1.93-29.21,1.27,.03,.25,.04,.4,.04,.41l-1.24,.13v-.12c-.45,1.54-4.39,15.77-3.92,25.32,.18,3.69,.53,7.61,.87,11.4,.57,6.32,1.1,12.28,.72,15.91-.46,4.38-.73,20.19-.35,31.26,.01,.43,.03,.85,.05,1.26,.1,2.55,.24,4.8,.43,6.52l1.24-.13c-.44-4.06-.63-11.07-.65-18.1-.5-.28-.78-.47-.82-.5l.37-.5s.16,.11,.44,.28c-.01-8.54,.21-16.94,.53-19.95,.39-3.75-.15-9.78-.72-16.15-.34-3.78-.69-7.68-.87-11.35-.42-8.59,2.93-21.49,3.73-24.42,2.85,.8,14.92,3.6,29.74-1.34,2.55,4.58,7.09,27.85,6.16,34.51-.16,1.12-.31,2.19-.46,3.2-.79,5.45-1.31,9.05-.88,11.29,.42,2.18,.64,9.66,.11,20.93-.06,1.31-.08,2.62-.07,3.91,.14-.1,.28-.21,.43-.33l.4,.48c-.27,.22-.54,.41-.81,.6,.17,8.78,1.76,16.57,1.78,16.66l.16,.78,.72-.34c2.3-1.1,4.24-1.18,5.59-.25,1.24,.86,1.69,2.4,1.59,3.56-.08,.92-.49,1.64-1.1,1.92-1.4,.64-2.48,1.43-3.53,2.18-1.44,1.04-2.8,2.02-4.97,2.72-2.2,.71-3.96,1.21-4.84,.63-.53-.35-.84-1.15-.95-2.45-.37-4.23-1.72-13.53-3.07-19.06-.27-1.09-.59-2.75-.94-4.74-.51-.11-.81-.2-.82-.21l.2-.59s.19,.06,.51,.14c-1.34-7.82-2.96-19.94-2.96-22.95,0-2.26,0-9.12-3.46-19.77-3-9.23-3.51-15.33-3.52-15.4l-1.25,.1c.01,.16,.22,2.66,1.16,6.86,.26,1.19,.58,2.51,.97,3.96,.4,1.5,.88,3.12,1.45,4.87,3.4,10.46,3.4,17.18,3.4,19.38,0,3.95,2.73,23.23,4.06,28.66,1.34,5.47,2.67,14.68,3.04,18.87,.15,1.73,.63,2.8,1.51,3.38,.49,.33,1.07,.46,1.73,.46,1.14,0,2.53-.41,4.18-.94,2.36-.76,3.86-1.85,5.32-2.9,1.04-.75,2.03-1.47,3.32-2.06,1.02-.47,1.7-1.57,1.82-2.95,.16-1.85-.67-3.69-2.12-4.69-1.13-.78-3.07-1.4-6.1-.18-.48-2.61-1.96-11.53-1.55-20.25,.46-9.9,.41-18.43-.13-21.22-.39-2.02,.15-5.73,.89-10.87,.15-1.01,.3-2.08,.46-3.21,1.01-7.17-3.84-31.47-6.51-35.64v.17l-1.24,.07Z"/><path class="cls-31" d="M484.08,491.22c-.57,2.3-.93,4.5-1.15,6.56,.22,.04,.44,.08,.66,.14l-.14,.61c-.2-.05-.39-.08-.58-.12-.64,6.99,.41,12.22,.84,13.97-1.88,.51-3.24,1.08-3.95,1.42-.37-.87-1.21-3.43-2.33-10.53-.22-1.37-.38-2.76-.51-4.15-.29,.15-.44,.26-.45,.26l-.37-.5s.29-.21,.76-.43c-.66-7.91,.04-15.88,2.02-22.05,1.35-4.21,1.24-5.26,1.09-6.58-.1-.85-.21-1.81,.08-3.97,.53-3.99,3.06-6.54,4.21-7.52,.71,1.84,2.5,7.69,3.8,15.45,.2,1.19,.4,2.41,.59,3.65,0-.03,.01-.05,.02-.07,0,0-.02,.08,0,.18l1.23-.2c-.2-1.28-.4-2.54-.61-3.77-1.23-7.29-3.1-13.88-4-15.99l-.47,.3-.68-1.05h0c-.19,.13-4.57,3.08-5.33,8.84-.31,2.31-.18,3.4-.08,4.27,.14,1.22,.24,2.1-1.03,6.06-2.44,7.6-3,17.86-1.49,27.45,1.46,9.3,2.5,11.2,2.85,11.58,.28-.54,.54-.9,.58-.95l.76,.55s-.1,.13-.22,.34c.6-.29,1.96-.89,3.9-1.41-.22-.1-.36-.16-.36-.16l.35-.87s.53,.22,1.16,.57l-.14-.47c-.03-.09-2.76-9.6,.34-21.61h0c-.04,.15-.07,.3-.1,.43l-1.22-.26Z"/><polygon class="cls-31" points="484.58 456.55 484.14 456.84 484.58 456.56 484.58 456.55"/><path class="cls-31" d="M493.59,506.62s-.02-.16-.04-.41c-.04-.39-.11-1.06-.21-1.95-.46-.08-.72-.13-.74-.14l.12-.61s.21,.04,.54,.1c-.05-.5-.12-1.06-.18-1.66-.46-.08-.75-.14-.84-.16l.25-1.23s.17,.03,.44,.08c-.54-4.82-1.39-11.92-2.4-18.97-.58-.29-.89-.48-.9-.49l.32-.53s.17,.1,.47,.26c-.17-1.18-.35-2.36-.53-3.52,.02,.19-.04,.41-.85,2.71,1.8,12.18,3.14,25.16,3.28,26.52v.12l1.26-.13Z"/><path class="cls-31" d="M489.9,477.4s0-.03,0-.05h0l-1.23,.2c-.02-.1,0-.17,0-.18,0,.02,0,.04-.02,.07-.1,.37-.6,1.76-1.12,3.21-1.19,3.35-3,8.42-3.45,10.57h0l1.22,.26c.03-.13,.06-.28,.1-.44,.56-2.27,2.2-6.87,3.3-9.97,.13-.36,.24-.67,.34-.96,.82-2.3,.88-2.52,.85-2.71Z"/><path class="cls-31" d="M565.27,436.08c-.21,0-.44-.09-.57-.32-.12-.21-.19-.49,.16-1.15-1.36-1.83-3.45-2.45-4.65-2.65l.27,.32-.72,.61-.88-1.04h-.05l-.15,.42c-1.05,2.91-6.19,10.9-14.64,15.65-8.31,4.67-18.1,4.57-18.2,4.57h-.01v1.25h-.99c-.6,1.68-.89,4.68-1.48,10.81-.17,1.74-.36,3.75-.59,6.04-.28,2.8-.43,6.2-.5,9.76,.16-.09,.31-.17,.47-.26l.31,.54c-.26,.15-.53,.3-.79,.44-.09,6.25,.07,12.91,.23,17.68,.11-.06,.23-.12,.34-.18l.6,1.1c-.29,.16-.59,.31-.89,.45,.03,.85,.06,1.62,.09,2.29,.16-.08,.33-.15,.49-.23l.28,.56c-.24,.12-.49,.23-.74,.34,.04,.82,.07,1.45,.08,1.84,.01,.29,.02,.46,.02,.48l1.25-.07v-.17c-.12-2.12-1.14-23.19,0-34.45,.13-1.25,.24-2.42,.35-3.51,3.41-.59,23.12-4.27,30.69-11.61,5.89-5.71,10.37-18.68,10.56-19.23l.08-.22-.09-.22c-.11-.26-.23-.51-.36-.74l.16,.86s-.09,.01-.13,.01Zm-11.08,18.63s-.08,.07-.12,.11c.09,.27,.17,.53,.25,.81l-.6,.17c-.05-.17-.1-.35-.15-.52-7.42,6.42-25.09,9.92-29.07,10.64,.04-.43,.08-.85,.12-1.25,.63-6.58,.92-9.58,1.58-10.93,1.93-.02,10.68-.36,18.46-4.73,1.37-.77,2.65-1.61,3.84-2.5-.25-.27-.39-.42-.4-.42l.44-.45s.18,.18,.46,.49c5.89-4.56,9.53-10.18,10.7-12.99,1.02,.12,3.56,.67,4.67,3.05-.63,1.77-4.91,13.41-10.16,18.51Z"/><path class="cls-31" d="M492.94,500.65c-.27-.05-.43-.08-.44-.08l-.25,1.23c.09,.02,.38,.08,.84,.16,2,.36,7.22,1.17,13.19,1.17,5.43,0,11.49-.68,16.28-2.98,.3-.14,.6-.29,.89-.45l-.6-1.1c-.11,.06-.22,.12-.34,.18-9.91,5.13-26.63,2.42-29.56,1.89Z"/><path class="cls-31" d="M485.29,457.59l1.87-1.21-.37-.47c-.14-.18-.24-.38-.29-.6l-1.91,1.24-.44,.28h0l.68,1.05,.47-.3Z"/><path class="cls-31" d="M524.85,453.75h.99v-1.25h-1.96c-.05,.31-.14,.75-.29,1.25h1.26Z"/><path class="cls-31" d="M496.71,452.61c-.19-.27-.29-.44-.31-.47l.54-.31s.16,.27,.47,.67l.75-.12c.84,.67,3.79,2.81,7.43,2.81,2.01,0,4.24-.65,6.44-2.56l1.21,.05c.03-.5,.09-.93,.14-1.25l-1.8-.08-.19,.17c-.09,.08-.17,.14-.26,.22l.4,.49-.73,.59-.41-.5c-4.09,2.92-8.1,1.28-10.18-.01l-.44,.52-.72-.6,.37-.44c-.38-.28-.62-.49-.67-.53l-.22-.2-3.96,.63,.71,1.15,1.42-.22Z"/><path class="cls-31" d="M487.15,456.38l2.53,3.16c.29,.36,.72,.55,1.15,.55,.27,0,.55-.07,.79-.23l4.52-2.87c.68-.43,.89-1.33,.47-2.01l-1.32-2.15-.71-1.15-.02-.03c-.4-.65-1.21-.89-1.89-.56l-5.38,2.57c-.41,.2-.7,.56-.8,1-.05,.22-.05,.44,0,.65,.05,.21,.15,.42,.29,.6l.37,.47Zm-.05-1.58c.06-.25,.23-.46,.46-.58l5.38-2.57c.39-.19,.86-.05,1.09,.32l2.04,3.33c.24,.39,.12,.91-.27,1.16l-4.52,2.87c-.37,.23-.85,.15-1.12-.19l-2.9-3.63c-.16-.2-.22-.47-.16-.72Z"/><path class="cls-31" d="M513.22,453.52c.05-.03,.1-.06,.15-.09l.33,.53c-.15,.09-.3,.18-.45,.27,.08,1.04,.34,2.14,.95,3.01,.34,.49,.78,.87,1.29,1.15l.1-.26,.58,.23-.11,.29c.29,.1,.6,.17,.93,.22,.14,.02,.27,.03,.4,.04l.16-.41,.58,.23-.07,.19c1.16-.04,2.18-.41,3.05-1.1,1.38-1.1,2.11-2.79,2.47-4.06,.15-.5,.24-.94,.29-1.25,.05-.27,.07-.45,.07-.48l.03-.31-10.44-1.06-.06,.27s-.05,.22-.1,.52c-.05,.31-.11,.74-.14,1.25-.02,.26-.03,.54-.02,.84Zm10.06-1.26c-.15,.91-.73,3.6-2.56,5.05-1,.79-2.23,1.1-3.66,.92-1.03-.13-1.82-.58-2.36-1.35-1.23-1.75-.83-4.67-.67-5.57l9.24,.94Z"/><path class="cls-31" d="M515.08,460.37c.13,.25,.37,.44,.65,.5l.59,.14c.07,.02,.15,.03,.22,.03,.4,0,.77-.24,.92-.63l.59-1.5,.07-.19-.58-.23-.16,.41-.5,1.28c-.07,.17-.25,.26-.42,.22l-.59-.14c-.1-.02-.19-.09-.24-.18-.05-.09-.06-.2-.02-.3l.44-1.13,.11-.29-.58-.23-.1,.26-.45,1.15c-.1,.27-.09,.56,.05,.82Z"/><path class="cls-31" d="M502.47,456.57c.82,.21,1.67,.31,2.54,.31,2.55,0,5.31-.89,8.24-2.65,.15-.09,.3-.18,.45-.27l-.33-.53c-.05,.03-.1,.06-.15,.09-3.9,2.41-7.47,3.23-10.59,2.45-2.74-.69-4.45-2.48-5.22-3.47-.31-.4-.46-.66-.47-.67l-.54,.31s.12,.21,.31,.47c.69,.97,2.54,3.15,5.76,3.96Z"/><path class="cls-31" d="M499.93,484.14c-4.8-.88-8.28-2.57-9.49-3.22-.3-.16-.46-.26-.47-.26l-.32,.53s.33,.2,.9,.49c1.51,.77,4.83,2.25,9.25,3.07,1.79,.33,3.89,.57,6.21,.57,4.74,0,10.4-1,16.28-4.23,.26-.14,.53-.29,.79-.44l-.31-.54c-.16,.09-.31,.18-.47,.26-8.71,4.9-16.94,4.77-22.36,3.78Z"/><path class="cls-31" d="M548.53,445.65l-.44,.45s.16,.15,.4,.42c1.01,1.12,3.7,4.37,5.07,8.77,.05,.17,.11,.34,.15,.52l.6-.17c-.08-.27-.16-.54-.25-.81-1.41-4.31-4.03-7.51-5.08-8.69-.28-.31-.45-.48-.46-.49Z"/><path class="cls-31" d="M476.86,498.45c-.47,.22-.73,.41-.76,.43l.37,.5s.16-.11,.45-.26c.87-.45,2.95-1.26,5.95-.71,.19,.04,.38,.07,.58,.12l.14-.61c-.23-.05-.44-.1-.66-.14-2.93-.53-5.03,.16-6.07,.66Z"/><path class="cls-31" d="M493.27,503.61c-.34-.06-.53-.1-.54-.1l-.12,.61s.28,.06,.74,.14c2.03,.36,7.96,1.29,14.48,1.29,5.12,0,10.6-.58,14.85-2.45,.25-.11,.5-.22,.74-.34l-.28-.56c-.16,.08-.32,.16-.49,.23-9.64,4.41-26.17,1.76-29.37,1.18Z"/><path class="cls-31" d="M518.33,581.67c-.31-.07-.5-.13-.51-.14l-.2,.59s.31,.1,.82,.21c.67,.14,1.71,.31,2.95,.31,1.94,0,4.37-.4,6.62-1.92,.27-.18,.54-.38,.81-.6l-.4-.48c-.14,.12-.28,.22-.43,.33-3.77,2.76-8.19,2.05-9.67,1.7Z"/><path class="cls-31" d="M499.81,582.18c.21,0,.42,0,.64,0l-.02-.63c-.19,0-.38,0-.57,0-4.84,0-8.01-1.56-9.13-2.21-.29-.17-.44-.28-.44-.28l-.37,.5s.32,.23,.82,.5c1.38,.76,4.46,2.1,9.03,2.11h.05Z"/><path class="cls-31" d="M499.78,452.83l.44-.52,1.84-2.2-10.72-18.91c-.92-1.7-.92-3.63,.03-5.31,.96-1.71,2.73-2.79,4.72-2.89,1.52-.07,3.12-.17,4.81-.28,4.69-.29,9.55-.59,13.17-.36,.86,.05,1.63,.45,2.17,1.11,.55,.67,.78,1.51,.66,2.37-2.02,14.57-8.57,23.19-8.64,23.28l-.23,.29,2.37,2.9,.41,.5,.73-.59-.4-.49-1.91-2.35c1.18-1.67,6.76-10.12,8.6-23.42,.15-1.11-.16-2.23-.86-3.09-.63-.77-1.49-1.26-2.45-1.41,.04,.23,.05,.37,.06,.38l-.93,.09c0-.05-.03-.25-.08-.55-1.79-.08-3.82-.06-5.96,.03,0,.17,0,.33,0,.5l-.94-.03c0-.15,0-.29,0-.44-1.21,.05-2.44,.12-3.67,.2,.08,.23,.11,.36,.11,.37l-.91,.23c-.01-.05-.07-.25-.17-.55-.39,.02-.78,.05-1.17,.07-1.69,.1-3.28,.2-4.8,.28-.46,.02-.91,.09-1.35,.2,.03,.18,.06,.36,.08,.55l-.93,.11c-.01-.12-.03-.24-.05-.36-1.36,.56-2.51,1.55-3.25,2.87-1.09,1.93-1.1,4.26-.03,6.22l10.4,18.36-1.49,1.77-.37,.44,.72,.6Z"/><path class="cls-31" d="M507.58,421.93c0-.17,0-.34,0-.5-.1-4.19-2.91-7.82-4.33-9.38,8.11,.34,9.93,7.31,10.29,9.36,.05,.3,.07,.49,.08,.55l.93-.09s-.02-.15-.06-.38c-.33-1.93-2.37-10.68-12.38-10.38l-1.14,.03,.83,.78s4.7,4.46,4.82,9.56c0,.14,0,.29,0,.44l.94,.03Z"/><path class="cls-31" d="M494.78,422.82c-.02-.19-.05-.36-.08-.55-.73-4.63-3.46-7.58-4.92-8.86,8.53-.67,11.53,6.26,12.23,8.31,.1,.3,.16,.5,.17,.55l.91-.23s-.04-.15-.11-.37c-.64-1.92-4.12-10.58-14.44-9.05l-1.19,.18,1,.68s4.59,3.16,5.46,9.1c.02,.12,.04,.24,.05,.36l.93-.11Z"/><path class="cls-31" d="M560.49,432.29l-.27-.32-2.92-3.44c-.52-.62-.49-1.54,.06-2.05,.26-.24,.61-.37,1.04-.4,.18-.27,.36-.58,.54-.92-.92-.09-1.66,.12-2.22,.63-.92,.85-.98,2.35-.14,3.35l2.31,2.73,.88,1.04,.72-.61Z"/><path class="cls-31" d="M569.22,422.17c-.33-.13-.7-.1-1.02,0-.12-.63-.37-1.26-.95-1.42-.5-.14-.99,.14-1.37,.48-.39-1.18-.87-1.75-1.48-1.79-.6-.04-1.07,.48-1.39,1.01-.57-1-1.13-1.46-1.72-1.46-.39,0-.95,.24-1.37,1.3-.17,.41-.22,.88-.16,1.35,.17,1.24-.28,2.51-.81,3.52-.18,.34-.36,.65-.54,.92-.44,.67-.81,1.09-.82,1.11l.7,.63c.12-.13,2.82-3.19,2.4-6.3-.04-.31,0-.61,.1-.87,.23-.56,.44-.72,.52-.72h0s.48,.03,1.27,1.74l.14,.29,.63-.02,.11-.29c.31-.79,.72-1.27,.88-1.28,0,0,.42,.11,.86,1.89l.08,.3,.6,.12,.18-.24c.39-.52,.82-.82,.94-.79,0,0,.27,.13,.36,1.27l.04,.33,.62,.18,.18-.23c.11-.08,.51-.24,.72-.13,.2,.1,.29,.52,.24,1.11-.24,2.99-.61,5.84-2.48,8.01-.99,1.15-1.53,1.91-1.81,2.43-.35,.66-.28,.94-.16,1.15,.13,.23,.36,.32,.57,.32,.05,0,.09,0,.13-.01l-.16-.86v-.06c.09-.02,.17,.04,.2,.07,.08,.07,.1,.16,.1,.19,0-.05,.08-.57,1.84-2.61,2.05-2.38,2.45-5.4,2.7-8.55,.11-1.4-.41-1.9-.86-2.07Z"/><path class="cls-31" d="M481.25,520.16c.09,.16,.16,.33,.21,.49-.28-.12-.82-.49-1.83-1.59-1.07-1.17,.02-3.25,.52-4.07,.13-.21,.22-.34,.22-.34l-.76-.55s-.29,.41-.58,.95c-.63,1.19-1.38,3.24-.1,4.64,1.22,1.34,2.02,1.92,2.68,1.95h.05c.26,0,.5-.09,.69-.27l.18-.17-.02-.11c-.49-.21-.95-.6-1.27-.93Z"/><path class="cls-31" d="M481.39,518.92l-.27,.38,.37-.28c.13,.17,.3,.37,.5,.56-.15-.25-.35-.48-.61-.66Z"/><path class="cls-31" d="M483.69,513.42s.14,.06,.36,.16c.69,.33,2.21,1.13,3.06,2.23,.7,.89,.87,1.74,.81,1.99-.04-.01-.11-.03-.21-.09-1.16-.66-2.9-2.4-2.92-2.41l-.66,.66s.35,.35,.81,.77l.23-.2c.14,.16,.43,.4,.72,.64,.64,.53,1.07,.91,1.21,1.27,.05,.03,.1,.06,.14,.09,.29,.17,.53,.22,.72,.22,.34,0,.55-.18,.65-.29,.53-.61,.2-2-.77-3.23-.73-.93-1.82-1.65-2.65-2.11-.64-.35-1.12-.55-1.16-.57l-.35,.87Z"/><path class="cls-31" d="M482.31,519.04l.54-.41c-.19-.16-.36-.31-.45-.42l-.71,.62c.19,.22,.5,.47,.82,.74,.25,.2,.62,.51,.81,.72-.04,.01-.09,.02-.14,.02-.35-.02-.81-.36-1.19-.73-.2-.19-.37-.39-.5-.56l-.37,.28-.37,.28c.05,.06,.23,.3,.5,.57,.33,.33,.78,.72,1.27,.93,.2,.09,.41,.14,.61,.15,.02,0,.05,0,.07,0,.38,0,.73-.15,1-.45,.05-.05,.08-.11,.11-.17-1-.29-1.9-1.44-2.01-1.59Z"/><path class="cls-31" d="M483.59,517.98l-.34,.3c.19,.22,.5,.47,.82,.74,.25,.2,.62,.51,.81,.72-.04,.01-.09,.02-.14,.02-.54-.03-1.32-.8-1.69-1.29l-.21,.16-.54,.41c.11,.15,1.01,1.29,2.01,1.59,.12,.04,.25,.06,.37,.07,.02,0,.05,0,.07,0,.38,0,.73-.15,1-.45,.12-.13,.17-.29,.16-.46,0-.07-.03-.15-.06-.22-1.03-.08-2.03-1.26-2.29-1.58Z"/><path class="cls-31" d="M485.9,517.17c-.28-.23-.58-.48-.72-.64l-.23,.2-.48,.42c.19,.22,.5,.47,.82,.74,.25,.2,.62,.51,.81,.72-.04,.01-.09,.02-.14,.02-.54-.03-1.32-.8-1.69-1.29l-.75,.57s.03,.04,.05,.07c.26,.32,1.26,1.5,2.29,1.58,.02,0,.03,0,.05,0,.02,0,.05,0,.07,0,.38,0,.73-.15,1-.45,.12-.13,.17-.29,.16-.46,0-.07-.02-.14-.05-.21-.14-.37-.57-.74-1.21-1.27Z"/></g></g><g id="Puglas_Linework_copy_6"><g><path class="cls-9" d="M484.25,458.34c-1.15,.97-3.68,3.52-4.21,7.52-.29,2.16-.18,3.12-.08,3.97,.15,1.32,.27,2.37-1.09,6.58-1.98,6.16-2.69,14.14-2.02,22.05,1.05-.5,3.14-1.19,6.07-.66,.22-2.06,.58-4.26,1.15-6.56h0c.45-2.15,2.26-7.22,3.45-10.57,.52-1.46,1.01-2.84,1.12-3.21-.19-1.24-.39-2.46-.59-3.65-1.31-7.76-3.1-13.61-3.8-15.45Z"/><path class="cls-9" d="M490.17,459.15c.27,.34,.75,.42,1.12,.19l4.52-2.87c.39-.25,.51-.77,.27-1.16l-2.04-3.33c-.23-.37-.7-.51-1.09-.32l-5.38,2.57c-.24,.11-.4,.32-.46,.58-.06,.25,0,.52,.16,.72l2.9,3.63Z"/><path class="cls-9" d="M515.64,460.07c.05,.09,.13,.16,.24,.18l.59,.14c.17,.04,.35-.05,.42-.22l.5-1.28c-.13,0-.27-.02-.4-.04-.33-.04-.64-.12-.93-.22l-.44,1.13c-.04,.1-.03,.21,.02,.3Z"/><path class="cls-9" d="M479.64,519.06c1.01,1.1,1.55,1.47,1.83,1.59-.05-.16-.12-.33-.21-.49-.27-.28-.45-.51-.5-.57l.37-.28,.27-.38c.25,.18,.45,.41,.61,.66,.38,.37,.84,.71,1.19,.73,.05,0,.1,0,.14-.02-.2-.21-.57-.52-.81-.72-.33-.27-.63-.52-.82-.74l.71-.62c.1,.11,.27,.26,.45,.42l.21-.16c.37,.48,1.15,1.26,1.69,1.29,.05,0,.1,0,.14-.02-.2-.21-.57-.52-.81-.72-.33-.27-.63-.52-.82-.74l.34-.3s-.04-.05-.05-.07l.75-.57c.37,.48,1.15,1.26,1.69,1.29,.05,0,.1,0,.14-.02-.2-.21-.57-.52-.81-.72-.33-.27-.63-.52-.82-.74l.48-.42c-.46-.41-.78-.73-.81-.77l.66-.66s1.76,1.75,2.92,2.41c.1,.06,.17,.08,.21,.09,.06-.26-.11-1.1-.81-1.99-.86-1.09-2.37-1.9-3.06-2.23-1.93,.52-3.29,1.12-3.9,1.41-.5,.82-1.59,2.9-.52,4.07Z"/><path class="cls-9" d="M557.3,428.52l2.92,3.44c1.2,.2,3.29,.81,4.65,2.65,.28-.52,.82-1.28,1.81-2.43,1.87-2.17,2.24-5.03,2.48-8.01,.05-.59-.04-1.01-.24-1.11-.21-.11-.61,.05-.72,.13l-.18,.23-.62-.18-.04-.33c-.09-1.15-.36-1.27-.36-1.27-.12-.03-.56,.26-.94,.79l-.18,.24-.6-.12-.08-.3c-.45-1.78-.86-1.89-.86-1.89-.16,0-.57,.48-.88,1.28l-.11,.29-.63,.02-.14-.29c-.78-1.71-1.24-1.74-1.27-1.74h0c-.08,0-.3,.15-.52,.72-.11,.26-.14,.56-.1,.87,.42,3.11-2.28,6.17-2.4,6.3l-.7-.63s.38-.44,.82-1.11c-.43,.02-.78,.15-1.04,.4-.56,.52-.58,1.44-.06,2.05Z"/><path class="cls-9" d="M476.92,499.12c.13,1.39,.3,2.78,.51,4.15,1.12,7.1,1.96,9.66,2.33,10.53,.71-.33,2.06-.91,3.95-1.42-.43-1.75-1.48-6.98-.84-13.97-3-.55-5.09,.26-5.95,.71Z"/><path class="cls-9" d="M503.25,412.04c1.42,1.57,4.23,5.2,4.33,9.38,2.14-.08,4.18-.11,5.96-.03-.36-2.04-2.19-9.02-10.29-9.36Z"/><path class="cls-9" d="M493.34,504.26c.1,.89,.17,1.55,.21,1.95,2.25,.66,14.28,3.71,29.21-1.27-.02-.39-.05-1.02-.08-1.84-4.25,1.87-9.73,2.45-14.85,2.45-6.53,0-12.46-.93-14.48-1.29Z"/><path class="cls-9" d="M521.11,457.81c-.87,.69-1.9,1.06-3.05,1.1l-.59,1.5c-.15,.38-.52,.63-.92,.63-.07,0-.15,0-.22-.03l-.59-.14c-.28-.07-.51-.25-.65-.5-.13-.25-.15-.55-.05-.82l.45-1.15c-.51-.27-.94-.65-1.29-1.15-.61-.88-.87-1.98-.95-3.01-2.94,1.76-5.7,2.65-8.24,2.65-.87,0-1.72-.1-2.54-.31-3.21-.81-5.07-2.99-5.76-3.96l-1.42,.22,1.32,2.15c.42,.68,.21,1.59-.47,2.01l-4.52,2.87c-.24,.16-.52,.23-.79,.23-.43,0-.86-.19-1.15-.55l-2.53-3.16-1.87,1.21c.9,2.1,2.77,8.69,4,15.99,.21,1.23,.41,2.49,.61,3.77h0s0,.03,0,.05c.18,1.16,.36,2.34,.53,3.52,1.21,.65,4.69,2.34,9.49,3.22,5.42,.99,13.65,1.12,22.36-3.78,.06-3.56,.21-6.96,.5-9.76,.23-2.3,.42-4.3,.59-6.04,.59-6.12,.88-9.12,1.48-10.81h-1.26c-.37,1.27-1.09,2.96-2.47,4.06Z"/><path class="cls-9" d="M493.09,501.95c.07,.6,.13,1.16,.18,1.66,3.2,.57,19.73,3.23,29.37-1.18-.03-.67-.06-1.44-.09-2.29-4.79,2.31-10.84,2.98-16.28,2.98-5.97,0-11.19-.81-13.19-1.17Z"/><path class="cls-9" d="M489.78,413.41c1.46,1.28,4.19,4.23,4.92,8.86,.43-.11,.88-.18,1.35-.2,1.52-.07,3.11-.17,4.8-.28,.39-.02,.78-.05,1.17-.07-.7-2.05-3.7-8.98-12.23-8.31Z"/><path class="cls-9" d="M508.25,449.13c.07-.09,6.62-8.7,8.64-23.28,.12-.86-.12-1.7-.66-2.37-.54-.66-1.31-1.06-2.17-1.11-3.62-.23-8.47,.07-13.17,.36-1.69,.1-3.29,.2-4.81,.28-1.99,.1-3.76,1.18-4.72,2.89-.94,1.68-.95,3.61-.03,5.31l10.72,18.91-1.84,2.2c2.07,1.29,6.08,2.93,10.18,.01l-2.37-2.9,.23-.29Z"/><path class="cls-9" d="M514.71,456.89c.53,.76,1.33,1.22,2.36,1.35,1.43,.18,2.66-.13,3.66-.92,1.83-1.45,2.41-4.14,2.56-5.05l-9.24-.94c-.16,.9-.55,3.81,.67,5.57Z"/><path class="cls-9" d="M502.63,455.97c3.12,.79,6.68-.04,10.59-2.45,0-.29,0-.58,.02-.84l-1.21-.05c-2.2,1.91-4.42,2.56-6.44,2.56-3.65,0-6.59-2.14-7.43-2.81l-.75,.12c.76,.98,2.48,2.78,5.22,3.47Z"/><path class="cls-9" d="M499.79,484.75c-4.41-.81-7.73-2.3-9.25-3.07,1.01,7.05,1.86,14.15,2.4,18.97,2.93,.53,19.65,3.23,29.56-1.89-.16-4.77-.32-11.43-.23-17.68-5.88,3.23-11.54,4.23-16.28,4.23-2.32,0-4.41-.24-6.21-.57Z"/><path class="cls-9" d="M488.76,592c-.6,.44-.87,1.53-.8,3.15,.24,5.06,2.83,10.52,3.41,11.02,.08,.05,.21,.15,.37,.27,1.47,1.11,3.13,2.1,4.21,1.02,1.46-1.46,1.83-5.58,2.14-8.89,.04-.47,.09-.94,.13-1.38,.06-.62,.13-1.49,.2-2.49,.22-2.98,.56-7.52,1.34-12.53-4.57,0-7.65-1.35-9.03-2.11,.02,7.03,.21,14.04,.65,18.1l-1.24,.13c-.19-1.72-.33-3.97-.43-6.52-.27-.03-.64,0-.95,.22Z"/><path class="cls-9" d="M544.66,449.02c-7.78,4.37-16.53,4.71-18.46,4.73-.66,1.35-.95,4.35-1.58,10.93-.04,.4-.08,.82-.12,1.25,3.98-.72,21.65-4.22,29.07-10.64-1.37-4.4-4.06-7.65-5.07-8.77-1.19,.89-2.47,1.73-3.84,2.5Z"/><path class="cls-9" d="M518.45,582.33c.35,1.98,.67,3.64,.94,4.74,1.35,5.52,2.7,14.82,3.07,19.06,.11,1.3,.43,2.1,.95,2.45,.88,.58,2.64,.09,4.84-.63,2.17-.7,3.53-1.68,4.97-2.72,1.05-.76,2.13-1.54,3.53-2.18,.61-.28,1.02-1,1.1-1.92,.1-1.15-.35-2.7-1.59-3.56-1.35-.94-3.28-.85-5.59,.25l-.72,.34-.16-.78c-.02-.09-1.61-7.88-1.78-16.66-2.25,1.51-4.67,1.92-6.62,1.92-1.24,0-2.28-.16-2.95-.31Z"/><path class="cls-9" d="M499.86,581.55c.49-3.03,1.15-6.21,2.05-9.31,2.86-9.9,1.95-17.78,1.94-17.86v-.12l.02-.11c.05-.19,4.86-18.91,4.39-23.64h.05c-.93-4.21-1.14-6.7-1.16-6.86l1.25-.1c0,.06,.52,6.17,3.52,15.4,3.46,10.65,3.46,17.51,3.46,19.77,0,3.02,1.62,15.14,2.96,22.95,1.47,.35,5.9,1.06,9.67-1.7-.01-1.29,0-2.6,.07-3.91,.52-11.27,.31-18.75-.11-20.93-.43-2.23,.09-5.83,.88-11.29,.15-1.01,.3-2.08,.46-3.2,.93-6.66-3.61-29.94-6.16-34.51-14.82,4.94-26.89,2.13-29.74,1.34-.8,2.94-4.15,15.84-3.73,24.42,.18,3.67,.53,7.57,.87,11.35,.57,6.38,1.11,12.4,.72,16.15-.31,3.01-.54,11.41-.53,19.95,1.11,.65,4.29,2.22,9.13,2.21Z"/><path class="cls-9" d="M559.69,433.15c-1.17,2.81-4.81,8.43-10.7,12.99,1.06,1.17,3.67,4.37,5.08,8.69,.04-.04,.08-.07,.12-.11,5.26-5.1,9.53-16.74,10.16-18.51-1.11-2.38-3.65-2.93-4.67-3.05Z"/><path class="cls-31" d="M508.25,530.51c.47,4.73-4.34,23.45-4.39,23.64l-.03,.11v.12c.02,.08,.94,7.96-1.92,17.86-.9,3.1-1.55,6.28-2.05,9.31,.19,0,.38,0,.57,0l.02,.63c-.22,0-.43,0-.64,0h-.05c-.78,5.01-1.12,9.55-1.34,12.53-.07,1-.14,1.86-.2,2.49-.04,.44-.09,.9-.13,1.38-.3,3.31-.68,7.43-2.14,8.89-1.08,1.08-2.73,.09-4.21-1.02-.16-.12-.29-.22-.37-.27-.58-.5-3.17-5.96-3.41-11.02-.08-1.62,.2-2.71,.8-3.15,.31-.23,.68-.25,.95-.22-.02-.41-.03-.83-.05-1.26-.48-.02-1.08,.06-1.63,.46-.98,.71-1.42,2.13-1.32,4.23,.24,4.99,2.86,11.27,3.95,11.99,.08,.06,.19,.14,.33,.24,.73,.55,2.31,1.74,3.87,1.74,.68,0,1.37-.23,1.97-.83,1.78-1.78,2.16-5.96,2.5-9.66,.04-.47,.09-.93,.13-1.36,.06-.64,.13-1.51,.2-2.52,.36-4.84,1.03-13.86,3.45-22.21,2.78-9.61,2.11-17.16,1.99-18.24,.36-1.39,3.29-12.92,4.17-19.89-.39-1.45-.71-2.77-.97-3.96h-.05Z"/><path class="cls-31" d="M522.78,505.41s0-.18-.02-.48c-14.93,4.98-26.96,1.93-29.21,1.27,.03,.25,.04,.4,.04,.41l-1.24,.13v-.12c-.45,1.54-4.39,15.77-3.92,25.32,.18,3.69,.53,7.61,.87,11.4,.57,6.32,1.1,12.28,.72,15.91-.46,4.38-.73,20.19-.35,31.26,.01,.43,.03,.85,.05,1.26,.1,2.55,.24,4.8,.43,6.52l1.24-.13c-.44-4.06-.63-11.07-.65-18.1-.5-.28-.78-.47-.82-.5l.37-.5s.16,.11,.44,.28c-.01-8.54,.21-16.94,.53-19.95,.39-3.75-.15-9.78-.72-16.15-.34-3.78-.69-7.68-.87-11.35-.42-8.59,2.93-21.49,3.73-24.42,2.85,.8,14.92,3.6,29.74-1.34,2.55,4.58,7.09,27.85,6.16,34.51-.16,1.12-.31,2.19-.46,3.2-.79,5.45-1.31,9.05-.88,11.29,.42,2.18,.64,9.66,.11,20.93-.06,1.31-.08,2.62-.07,3.91,.14-.1,.28-.21,.43-.33l.4,.48c-.27,.22-.54,.41-.81,.6,.17,8.78,1.76,16.57,1.78,16.66l.16,.78,.72-.34c2.3-1.1,4.24-1.18,5.59-.25,1.24,.86,1.69,2.4,1.59,3.56-.08,.92-.49,1.64-1.1,1.92-1.4,.64-2.48,1.43-3.53,2.18-1.44,1.04-2.8,2.02-4.97,2.72-2.2,.71-3.96,1.21-4.84,.63-.53-.35-.84-1.15-.95-2.45-.37-4.23-1.72-13.53-3.07-19.06-.27-1.09-.59-2.75-.94-4.74-.51-.11-.81-.2-.82-.21l.2-.59s.19,.06,.51,.14c-1.34-7.82-2.96-19.94-2.96-22.95,0-2.26,0-9.12-3.46-19.77-3-9.23-3.51-15.33-3.52-15.4l-1.25,.1c.01,.16,.22,2.66,1.16,6.86,.26,1.19,.58,2.51,.97,3.96,.4,1.5,.88,3.12,1.45,4.87,3.4,10.46,3.4,17.18,3.4,19.38,0,3.95,2.73,23.23,4.06,28.66,1.34,5.47,2.67,14.68,3.04,18.87,.15,1.73,.63,2.8,1.51,3.38,.49,.33,1.07,.46,1.73,.46,1.14,0,2.53-.41,4.18-.94,2.36-.76,3.86-1.85,5.32-2.9,1.04-.75,2.03-1.47,3.32-2.06,1.02-.47,1.7-1.57,1.82-2.95,.16-1.85-.67-3.69-2.12-4.69-1.13-.78-3.07-1.4-6.1-.18-.48-2.61-1.96-11.53-1.55-20.25,.46-9.9,.41-18.43-.13-21.22-.39-2.02,.15-5.73,.89-10.87,.15-1.01,.3-2.08,.46-3.21,1.01-7.17-3.84-31.47-6.51-35.64v.17l-1.24,.07Z"/><path class="cls-31" d="M484.08,491.22c-.57,2.3-.93,4.5-1.15,6.56,.22,.04,.44,.08,.66,.14l-.14,.61c-.2-.05-.39-.08-.58-.12-.64,6.99,.41,12.22,.84,13.97-1.88,.51-3.24,1.08-3.95,1.42-.37-.87-1.21-3.43-2.33-10.53-.22-1.37-.38-2.76-.51-4.15-.29,.15-.44,.26-.45,.26l-.37-.5s.29-.21,.76-.43c-.66-7.91,.04-15.88,2.02-22.05,1.35-4.21,1.24-5.26,1.09-6.58-.1-.85-.21-1.81,.08-3.97,.53-3.99,3.06-6.54,4.21-7.52,.71,1.84,2.5,7.69,3.8,15.45,.2,1.19,.4,2.41,.59,3.65,0-.03,.01-.05,.02-.07,0,0-.02,.08,0,.18l1.23-.2c-.2-1.28-.4-2.54-.61-3.77-1.23-7.29-3.1-13.88-4-15.99l-.47,.3-.68-1.05h0c-.19,.13-4.57,3.08-5.33,8.84-.31,2.31-.18,3.4-.08,4.27,.14,1.22,.24,2.1-1.03,6.06-2.44,7.6-3,17.86-1.49,27.45,1.46,9.3,2.5,11.2,2.85,11.58,.28-.54,.54-.9,.58-.95l.76,.55s-.1,.13-.22,.34c.6-.29,1.96-.89,3.9-1.41-.22-.1-.36-.16-.36-.16l.35-.87s.53,.22,1.16,.57l-.14-.47c-.03-.09-2.76-9.6,.34-21.61h0c-.04,.15-.07,.3-.1,.43l-1.22-.26Z"/><polygon class="cls-31" points="484.58 456.55 484.14 456.84 484.58 456.56 484.58 456.55"/><path class="cls-31" d="M493.59,506.62s-.02-.16-.04-.41c-.04-.39-.11-1.06-.21-1.95-.46-.08-.72-.13-.74-.14l.12-.61s.21,.04,.54,.1c-.05-.5-.12-1.06-.18-1.66-.46-.08-.75-.14-.84-.16l.25-1.23s.17,.03,.44,.08c-.54-4.82-1.39-11.92-2.4-18.97-.58-.29-.89-.48-.9-.49l.32-.53s.17,.1,.47,.26c-.17-1.18-.35-2.36-.53-3.52,.02,.19-.04,.41-.85,2.71,1.8,12.18,3.14,25.16,3.28,26.52v.12l1.26-.13Z"/><path class="cls-31" d="M489.9,477.4s0-.03,0-.05h0l-1.23,.2c-.02-.1,0-.17,0-.18,0,.02,0,.04-.02,.07-.1,.37-.6,1.76-1.12,3.21-1.19,3.35-3,8.42-3.45,10.57h0l1.22,.26c.03-.13,.06-.28,.1-.44,.56-2.27,2.2-6.87,3.3-9.97,.13-.36,.24-.67,.34-.96,.82-2.3,.88-2.52,.85-2.71Z"/><path class="cls-31" d="M565.27,436.08c-.21,0-.44-.09-.57-.32-.12-.21-.19-.49,.16-1.15-1.36-1.83-3.45-2.45-4.65-2.65l.27,.32-.72,.61-.88-1.04h-.05l-.15,.42c-1.05,2.91-6.19,10.9-14.64,15.65-8.31,4.67-18.1,4.57-18.2,4.57h-.01v1.25h-.99c-.6,1.68-.89,4.68-1.48,10.81-.17,1.74-.36,3.75-.59,6.04-.28,2.8-.43,6.2-.5,9.76,.16-.09,.31-.17,.47-.26l.31,.54c-.26,.15-.53,.3-.79,.44-.09,6.25,.07,12.91,.23,17.68,.11-.06,.23-.12,.34-.18l.6,1.1c-.29,.16-.59,.31-.89,.45,.03,.85,.06,1.62,.09,2.29,.16-.08,.33-.15,.49-.23l.28,.56c-.24,.12-.49,.23-.74,.34,.04,.82,.07,1.45,.08,1.84,.01,.29,.02,.46,.02,.48l1.25-.07v-.17c-.12-2.12-1.14-23.19,0-34.45,.13-1.25,.24-2.42,.35-3.51,3.41-.59,23.12-4.27,30.69-11.61,5.89-5.71,10.37-18.68,10.56-19.23l.08-.22-.09-.22c-.11-.26-.23-.51-.36-.74l.16,.86s-.09,.01-.13,.01Zm-11.08,18.63s-.08,.07-.12,.11c.09,.27,.17,.53,.25,.81l-.6,.17c-.05-.17-.1-.35-.15-.52-7.42,6.42-25.09,9.92-29.07,10.64,.04-.43,.08-.85,.12-1.25,.63-6.58,.92-9.58,1.58-10.93,1.93-.02,10.68-.36,18.46-4.73,1.37-.77,2.65-1.61,3.84-2.5-.25-.27-.39-.42-.4-.42l.44-.45s.18,.18,.46,.49c5.89-4.56,9.53-10.18,10.7-12.99,1.02,.12,3.56,.67,4.67,3.05-.63,1.77-4.91,13.41-10.16,18.51Z"/><path class="cls-31" d="M492.94,500.65c-.27-.05-.43-.08-.44-.08l-.25,1.23c.09,.02,.38,.08,.84,.16,2,.36,7.22,1.17,13.19,1.17,5.43,0,11.49-.68,16.28-2.98,.3-.14,.6-.29,.89-.45l-.6-1.1c-.11,.06-.22,.12-.34,.18-9.91,5.13-26.63,2.42-29.56,1.89Z"/><path class="cls-31" d="M485.29,457.59l1.87-1.21-.37-.47c-.14-.18-.24-.38-.29-.6l-1.91,1.24-.44,.28h0l.68,1.05,.47-.3Z"/><path class="cls-31" d="M524.85,453.75h.99v-1.25h-1.96c-.05,.31-.14,.75-.29,1.25h1.26Z"/><path class="cls-31" d="M496.71,452.61c-.19-.27-.29-.44-.31-.47l.54-.31s.16,.27,.47,.67l.75-.12c.84,.67,3.79,2.81,7.43,2.81,2.01,0,4.24-.65,6.44-2.56l1.21,.05c.03-.5,.09-.93,.14-1.25l-1.8-.08-.19,.17c-.09,.08-.17,.14-.26,.22l.4,.49-.73,.59-.41-.5c-4.09,2.92-8.1,1.28-10.18-.01l-.44,.52-.72-.6,.37-.44c-.38-.28-.62-.49-.67-.53l-.22-.2-3.96,.63,.71,1.15,1.42-.22Z"/><path class="cls-31" d="M487.15,456.38l2.53,3.16c.29,.36,.72,.55,1.15,.55,.27,0,.55-.07,.79-.23l4.52-2.87c.68-.43,.89-1.33,.47-2.01l-1.32-2.15-.71-1.15-.02-.03c-.4-.65-1.21-.89-1.89-.56l-5.38,2.57c-.41,.2-.7,.56-.8,1-.05,.22-.05,.44,0,.65,.05,.21,.15,.42,.29,.6l.37,.47Zm-.05-1.58c.06-.25,.23-.46,.46-.58l5.38-2.57c.39-.19,.86-.05,1.09,.32l2.04,3.33c.24,.39,.12,.91-.27,1.16l-4.52,2.87c-.37,.23-.85,.15-1.12-.19l-2.9-3.63c-.16-.2-.22-.47-.16-.72Z"/><path class="cls-31" d="M513.22,453.52c.05-.03,.1-.06,.15-.09l.33,.53c-.15,.09-.3,.18-.45,.27,.08,1.04,.34,2.14,.95,3.01,.34,.49,.78,.87,1.29,1.15l.1-.26,.58,.23-.11,.29c.29,.1,.6,.17,.93,.22,.14,.02,.27,.03,.4,.04l.16-.41,.58,.23-.07,.19c1.16-.04,2.18-.41,3.05-1.1,1.38-1.1,2.11-2.79,2.47-4.06,.15-.5,.24-.94,.29-1.25,.05-.27,.07-.45,.07-.48l.03-.31-10.44-1.06-.06,.27s-.05,.22-.1,.52c-.05,.31-.11,.74-.14,1.25-.02,.26-.03,.54-.02,.84Zm10.06-1.26c-.15,.91-.73,3.6-2.56,5.05-1,.79-2.23,1.1-3.66,.92-1.03-.13-1.82-.58-2.36-1.35-1.23-1.75-.83-4.67-.67-5.57l9.24,.94Z"/><path class="cls-31" d="M515.08,460.37c.13,.25,.37,.44,.65,.5l.59,.14c.07,.02,.15,.03,.22,.03,.4,0,.77-.24,.92-.63l.59-1.5,.07-.19-.58-.23-.16,.41-.5,1.28c-.07,.17-.25,.26-.42,.22l-.59-.14c-.1-.02-.19-.09-.24-.18-.05-.09-.06-.2-.02-.3l.44-1.13,.11-.29-.58-.23-.1,.26-.45,1.15c-.1,.27-.09,.56,.05,.82Z"/><path class="cls-31" d="M502.47,456.57c.82,.21,1.67,.31,2.54,.31,2.55,0,5.31-.89,8.24-2.65,.15-.09,.3-.18,.45-.27l-.33-.53c-.05,.03-.1,.06-.15,.09-3.9,2.41-7.47,3.23-10.59,2.45-2.74-.69-4.45-2.48-5.22-3.47-.31-.4-.46-.66-.47-.67l-.54,.31s.12,.21,.31,.47c.69,.97,2.54,3.15,5.76,3.96Z"/><path class="cls-31" d="M499.93,484.14c-4.8-.88-8.28-2.57-9.49-3.22-.3-.16-.46-.26-.47-.26l-.32,.53s.33,.2,.9,.49c1.51,.77,4.83,2.25,9.25,3.07,1.79,.33,3.89,.57,6.21,.57,4.74,0,10.4-1,16.28-4.23,.26-.14,.53-.29,.79-.44l-.31-.54c-.16,.09-.31,.18-.47,.26-8.71,4.9-16.94,4.77-22.36,3.78Z"/><path class="cls-31" d="M548.53,445.65l-.44,.45s.16,.15,.4,.42c1.01,1.12,3.7,4.37,5.07,8.77,.05,.17,.11,.34,.15,.52l.6-.17c-.08-.27-.16-.54-.25-.81-1.41-4.31-4.03-7.51-5.08-8.69-.28-.31-.45-.48-.46-.49Z"/><path class="cls-31" d="M476.86,498.45c-.47,.22-.73,.41-.76,.43l.37,.5s.16-.11,.45-.26c.87-.45,2.95-1.26,5.95-.71,.19,.04,.38,.07,.58,.12l.14-.61c-.23-.05-.44-.1-.66-.14-2.93-.53-5.03,.16-6.07,.66Z"/><path class="cls-31" d="M493.27,503.61c-.34-.06-.53-.1-.54-.1l-.12,.61s.28,.06,.74,.14c2.03,.36,7.96,1.29,14.48,1.29,5.12,0,10.6-.58,14.85-2.45,.25-.11,.5-.22,.74-.34l-.28-.56c-.16,.08-.32,.16-.49,.23-9.64,4.41-26.17,1.76-29.37,1.18Z"/><path class="cls-31" d="M518.33,581.67c-.31-.07-.5-.13-.51-.14l-.2,.59s.31,.1,.82,.21c.67,.14,1.71,.31,2.95,.31,1.94,0,4.37-.4,6.62-1.92,.27-.18,.54-.38,.81-.6l-.4-.48c-.14,.12-.28,.22-.43,.33-3.77,2.76-8.19,2.05-9.67,1.7Z"/><path class="cls-31" d="M499.81,582.18c.21,0,.42,0,.64,0l-.02-.63c-.19,0-.38,0-.57,0-4.84,0-8.01-1.56-9.13-2.21-.29-.17-.44-.28-.44-.28l-.37,.5s.32,.23,.82,.5c1.38,.76,4.46,2.1,9.03,2.11h.05Z"/><path class="cls-31" d="M499.78,452.83l.44-.52,1.84-2.2-10.72-18.91c-.92-1.7-.92-3.63,.03-5.31,.96-1.71,2.73-2.79,4.72-2.89,1.52-.07,3.12-.17,4.81-.28,4.69-.29,9.55-.59,13.17-.36,.86,.05,1.63,.45,2.17,1.11,.55,.67,.78,1.51,.66,2.37-2.02,14.57-8.57,23.19-8.64,23.28l-.23,.29,2.37,2.9,.41,.5,.73-.59-.4-.49-1.91-2.35c1.18-1.67,6.76-10.12,8.6-23.42,.15-1.11-.16-2.23-.86-3.09-.63-.77-1.49-1.26-2.45-1.41,.04,.23,.05,.37,.06,.38l-.93,.09c0-.05-.03-.25-.08-.55-1.79-.08-3.82-.06-5.96,.03,0,.17,0,.33,0,.5l-.94-.03c0-.15,0-.29,0-.44-1.21,.05-2.44,.12-3.67,.2,.08,.23,.11,.36,.11,.37l-.91,.23c-.01-.05-.07-.25-.17-.55-.39,.02-.78,.05-1.17,.07-1.69,.1-3.28,.2-4.8,.28-.46,.02-.91,.09-1.35,.2,.03,.18,.06,.36,.08,.55l-.93,.11c-.01-.12-.03-.24-.05-.36-1.36,.56-2.51,1.55-3.25,2.87-1.09,1.93-1.1,4.26-.03,6.22l10.4,18.36-1.49,1.77-.37,.44,.72,.6Z"/><path class="cls-31" d="M507.58,421.93c0-.17,0-.34,0-.5-.1-4.19-2.91-7.82-4.33-9.38,8.11,.34,9.93,7.31,10.29,9.36,.05,.3,.07,.49,.08,.55l.93-.09s-.02-.15-.06-.38c-.33-1.93-2.37-10.68-12.38-10.38l-1.14,.03,.83,.78s4.7,4.46,4.82,9.56c0,.14,0,.29,0,.44l.94,.03Z"/><path class="cls-31" d="M494.78,422.82c-.02-.19-.05-.36-.08-.55-.73-4.63-3.46-7.58-4.92-8.86,8.53-.67,11.53,6.26,12.23,8.31,.1,.3,.16,.5,.17,.55l.91-.23s-.04-.15-.11-.37c-.64-1.92-4.12-10.58-14.44-9.05l-1.19,.18,1,.68s4.59,3.16,5.46,9.1c.02,.12,.04,.24,.05,.36l.93-.11Z"/><path class="cls-31" d="M560.49,432.29l-.27-.32-2.92-3.44c-.52-.62-.49-1.54,.06-2.05,.26-.24,.61-.37,1.04-.4,.18-.27,.36-.58,.54-.92-.92-.09-1.66,.12-2.22,.63-.92,.85-.98,2.35-.14,3.35l2.31,2.73,.88,1.04,.72-.61Z"/><path class="cls-31" d="M569.22,422.17c-.33-.13-.7-.1-1.02,0-.12-.63-.37-1.26-.95-1.42-.5-.14-.99,.14-1.37,.48-.39-1.18-.87-1.75-1.48-1.79-.6-.04-1.07,.48-1.39,1.01-.57-1-1.13-1.46-1.72-1.46-.39,0-.95,.24-1.37,1.3-.17,.41-.22,.88-.16,1.35,.17,1.24-.28,2.51-.81,3.52-.18,.34-.36,.65-.54,.92-.44,.67-.81,1.09-.82,1.11l.7,.63c.12-.13,2.82-3.19,2.4-6.3-.04-.31,0-.61,.1-.87,.23-.56,.44-.72,.52-.72h0s.48,.03,1.27,1.74l.14,.29,.63-.02,.11-.29c.31-.79,.72-1.27,.88-1.28,0,0,.42,.11,.86,1.89l.08,.3,.6,.12,.18-.24c.39-.52,.82-.82,.94-.79,0,0,.27,.13,.36,1.27l.04,.33,.62,.18,.18-.23c.11-.08,.51-.24,.72-.13,.2,.1,.29,.52,.24,1.11-.24,2.99-.61,5.84-2.48,8.01-.99,1.15-1.53,1.91-1.81,2.43-.35,.66-.28,.94-.16,1.15,.13,.23,.36,.32,.57,.32,.05,0,.09,0,.13-.01l-.16-.86v-.06c.09-.02,.17,.04,.2,.07,.08,.07,.1,.16,.1,.19,0-.05,.08-.57,1.84-2.61,2.05-2.38,2.45-5.4,2.7-8.55,.11-1.4-.41-1.9-.86-2.07Z"/><path class="cls-31" d="M481.25,520.16c.09,.16,.16,.33,.21,.49-.28-.12-.82-.49-1.83-1.59-1.07-1.17,.02-3.25,.52-4.07,.13-.21,.22-.34,.22-.34l-.76-.55s-.29,.41-.58,.95c-.63,1.19-1.38,3.24-.1,4.64,1.22,1.34,2.02,1.92,2.68,1.95h.05c.26,0,.5-.09,.69-.27l.18-.17-.02-.11c-.49-.21-.95-.6-1.27-.93Z"/><path class="cls-31" d="M481.39,518.92l-.27,.38,.37-.28c.13,.17,.3,.37,.5,.56-.15-.25-.35-.48-.61-.66Z"/><path class="cls-31" d="M483.69,513.42s.14,.06,.36,.16c.69,.33,2.21,1.13,3.06,2.23,.7,.89,.87,1.74,.81,1.99-.04-.01-.11-.03-.21-.09-1.16-.66-2.9-2.4-2.92-2.41l-.66,.66s.35,.35,.81,.77l.23-.2c.14,.16,.43,.4,.72,.64,.64,.53,1.07,.91,1.21,1.27,.05,.03,.1,.06,.14,.09,.29,.17,.53,.22,.72,.22,.34,0,.55-.18,.65-.29,.53-.61,.2-2-.77-3.23-.73-.93-1.82-1.65-2.65-2.11-.64-.35-1.12-.55-1.16-.57l-.35,.87Z"/><path class="cls-31" d="M482.31,519.04l.54-.41c-.19-.16-.36-.31-.45-.42l-.71,.62c.19,.22,.5,.47,.82,.74,.25,.2,.62,.51,.81,.72-.04,.01-.09,.02-.14,.02-.35-.02-.81-.36-1.19-.73-.2-.19-.37-.39-.5-.56l-.37,.28-.37,.28c.05,.06,.23,.3,.5,.57,.33,.33,.78,.72,1.27,.93,.2,.09,.41,.14,.61,.15,.02,0,.05,0,.07,0,.38,0,.73-.15,1-.45,.05-.05,.08-.11,.11-.17-1-.29-1.9-1.44-2.01-1.59Z"/><path class="cls-31" d="M483.59,517.98l-.34,.3c.19,.22,.5,.47,.82,.74,.25,.2,.62,.51,.81,.72-.04,.01-.09,.02-.14,.02-.54-.03-1.32-.8-1.69-1.29l-.21,.16-.54,.41c.11,.15,1.01,1.29,2.01,1.59,.12,.04,.25,.06,.37,.07,.02,0,.05,0,.07,0,.38,0,.73-.15,1-.45,.12-.13,.17-.29,.16-.46,0-.07-.03-.15-.06-.22-1.03-.08-2.03-1.26-2.29-1.58Z"/><path class="cls-31" d="M485.9,517.17c-.28-.23-.58-.48-.72-.64l-.23,.2-.48,.42c.19,.22,.5,.47,.82,.74,.25,.2,.62,.51,.81,.72-.04,.01-.09,.02-.14,.02-.54-.03-1.32-.8-1.69-1.29l-.75,.57s.03,.04,.05,.07c.26,.32,1.26,1.5,2.29,1.58,.02,0,.03,0,.05,0,.02,0,.05,0,.07,0,.38,0,.73-.15,1-.45,.12-.13,.17-.29,.16-.46,0-.07-.02-.14-.05-.21-.14-.37-.57-.74-1.21-1.27Z"/></g></g></g><g id="Highlights"><path class="cls-31" d="M414.75,131.56c10.59,7.78,24.16,8.83,36.5,12.04,5.91,1.53,11.82,3.61,16.7,7.39,5.83,4.51,9.25,11.32,14.84,16.09,10.26,8.74,23.83,11.18,35.86,16.5,6.15,2.71,11.63,6.28,16.2,11.24s8.22,10.85,11.93,16.53,7.61,11.46,12.57,16.17c3.62,3.44,10.62,6.78,15.35,3.54,1.24-.85,1.98-1.98,2.56-3.34,.42-1-.45-2.2-1.4-2.46-1.16-.32-2.04,.4-2.46,1.4-.77,1.84-3.14,1.82-4.85,1.44-2.53-.56-4.8-1.87-6.64-3.67-4.77-4.64-8.47-10.19-12.09-15.74s-7.26-11.3-11.76-16.28-9.74-8.7-15.71-11.52c-11.57-5.46-24.9-7.67-35.29-15.48-5.78-4.35-9.2-10.85-14.47-15.7-4.59-4.23-10.27-6.93-16.18-8.79-11.79-3.72-24.84-4.2-35.8-10.33-1.33-.74-2.61-1.57-3.84-2.47-.87-.64-2.23-.15-2.74,.72-.59,1.01-.16,2.1,.72,2.74h0Z"/><path class="cls-31" d="M847.07,8.24c-8.4,6.03-15.5,13.77-20.72,22.7-2.6,4.45-4.74,9.2-6.35,14.1-1.85,5.62-2.82,11.46-4.3,17.18-2.83,10.97-8.47,20.87-15.47,29.71s-14.39,16.06-22.85,22.7c-9.45,7.42-19.95,13.6-31.01,18.27-.99,.42-1.71,1.32-1.4,2.46,.26,.94,1.46,1.82,2.46,1.4,19.96-8.42,37.94-21.32,52.11-37.74,7.38-8.55,13.82-18.02,17.81-28.64,2.12-5.66,3.23-11.59,4.63-17.45,1.24-5.21,2.9-10.28,5.24-15.1,5.02-10.33,12.55-19.42,21.89-26.13,.88-.63,1.3-1.74,.72-2.74-.51-.87-1.85-1.35-2.74-.72h0Z"/><path class="cls-31" d="M927.38,450.63c5.28-6.15,8.3-13.96,8.58-22.06,.14-4.1-.63-7.95-1.67-11.88-.26-1-.54-2.06-.39-3.11,.14-.98,.77-1.75,1.29-2.55,.97-1.48,1.86-3.55,.88-5.25-.84-1.45-2.75-2.04-4.33-1.64-1.85,.47-2.82,2.39-1.78,4.08,1.35,2.19,4.81,.18,3.45-2.02,.46,.75-.84,1.94-.87,1.82,.13-.01,.26,0,.4,0-.2-.02-.18,0,.06,.05,0,0-.78-.46-.52-.47,0,0-.42,.89-.45,.94-1.1,1.84-2.16,3.37-2.16,5.62s.84,4.32,1.34,6.44c.44,1.85,.68,3.73,.75,5.63,.28,7.78-2.31,15.64-7.4,21.57-1.67,1.94,1.15,4.79,2.83,2.83h0Z"/><path class="cls-31" d="M955.86,293.32c-2.49,2.06-2,6.15,.21,8.23,1.12,1.05,2.96,1.82,4.46,1.21,1-.4,1.65-1.78,2.26-2.63l2.32-3.22,17.22-23.92c5-6.94,9.83-14.09,15.58-20.45,2.7-2.98,5.61-5.82,8.86-8.21,3.47-2.55,7.29-4.45,11.17-6.29s7.56-3.68,10.9-6.29c2.73-2.13,5.07-4.66,7.11-7.46,4.14-5.68,6.73-12.39,8.69-19.09s3.41-14.13,5.05-21.21c1.8-7.79,4.14-15.43,7.17-22.83,6.18-15.1,15.07-29.15,26.05-41.21,1.4-1.54,2.83-3.04,4.29-4.51,1.81-1.83-1.01-4.66-2.83-2.83-10.74,10.83-19.77,23.37-26.61,37-3.43,6.83-6.34,13.93-8.65,21.22-2.14,6.72-3.62,13.61-5.15,20.49-2.72,12.24-5.69,25.83-14.94,34.97-5.48,5.41-12.76,7.75-19.35,11.43s-12.29,9.13-17.17,14.99c-5.23,6.28-9.86,13.05-14.63,19.67l-15.92,22.11-3.91,5.43,1.73-.99c-1.35,.1-2.13-1.91-1.08-2.78,1.98-1.64-.86-4.46-2.83-2.83h0Z"/><path class="cls-31" d="M14.85,292.39l20.12-11.31-1.54,.2c21.6,5.72,42.52-8.95,55.15-25.27,6.98-9.02,12.6-18.97,18.63-28.63,3-4.81,6.11-9.56,9.56-14.06s7.31-8.53,11.38-12.45,7.99-7.83,10.53-12.81,3.62-10.12,4.6-15.4,1.78-10.47,3.8-15.37,5.22-8.36,8.98-11.69,7.55-6.11,10.82-9.69c3.63-3.97,6.05-8.64,6.98-13.96,1.04-5.91,.67-11.93,.69-17.9,.02-6.28,.25-12.56,.7-18.82,1.81-25.14,7.14-50.03,15.74-73.72,1.07-2.95,2.2-5.88,3.37-8.8,.41-1.01-.44-2.19-1.4-2.46-1.14-.33-2.06,.4-2.46,1.4-9.83,24.49-16.1,50.34-18.66,76.61-.64,6.61-1.05,13.24-1.21,19.87-.15,6.26,.23,12.55-.18,18.8-.38,5.78-2.01,11.14-5.86,15.55-3.37,3.87-7.54,6.91-11.37,10.3s-7.35,7.34-9.46,12.16c-2.23,5.1-3.21,10.55-4.22,15.99s-2.05,11.03-4.75,15.92-7.25,9.02-11.39,13.04c-8.58,8.34-15.21,18.23-21.45,28.38s-11.94,20.36-19.71,29.17c-7.36,8.35-16.61,15.68-27.31,19.16-5.07,1.65-10.4,2.36-15.71,1.76-1.3-.15-2.59-.39-3.86-.7-.76-.19-1.4-.41-2.18-.13-.84,.3-1.67,.9-2.45,1.34l-9.08,5.1-8.83,4.96c-2.24,1.26-.23,4.72,2.02,3.45h0Z"/></g></g></svg>