<?xml version="1.0" encoding="UTF-8"?><svg id="Layer_2" xmlns="http://www.w3.org/2000/svg" xmlns:xlink="http://www.w3.org/1999/xlink" viewBox="0 0 3018.94 4309.95"><defs><style>.cls-1{fill:url(#linear-gradient-2);}.cls-2{fill:#262626;}.cls-3{fill:url(#linear-gradient-6);}.cls-4{fill:none;stroke:#000;stroke-miterlimit:10;stroke-width:10px;}.cls-5{fill:#877609;}.cls-6{fill:#bda50d;}.cls-7{fill:url(#linear-gradient-5);}.cls-8{fill:url(#linear-gradient-7);}.cls-9{fill:url(#linear-gradient-3);}.cls-10{fill:url(#linear-gradient);}.cls-11{fill:url(#linear-gradient-4);}</style><linearGradient id="linear-gradient" x1="1523.79" y1="34.15" x2="1495.62" y2="2780.81" gradientTransform="matrix(1, 0, 0, 1, 0, 0)" gradientUnits="userSpaceOnUse"><stop offset="0" stop-color="#212121"/><stop offset="1" stop-color="#362f31"/></linearGradient><linearGradient id="linear-gradient-2" x1="144" y1="2002.81" x2="1540.96" y2="2002.81" xlink:href="#linear-gradient"/><linearGradient id="linear-gradient-3" x1="189.71" y1="3928.88" x2="185.91" y2="4299.03" xlink:href="#linear-gradient"/><linearGradient id="linear-gradient-4" x1="84.58" y1="2768.02" x2="73.28" y2="3869.88" xlink:href="#linear-gradient"/><linearGradient id="linear-gradient-5" x1="82.98" y1="1966.03" x2="75.02" y2="2742.64" xlink:href="#linear-gradient"/><linearGradient id="linear-gradient-6" x1="124.11" y1="19.49" x2="95.94" y2="2766.45" xlink:href="#linear-gradient"/><linearGradient id="linear-gradient-7" x1="17.44" y1="3876.1" x2="17.39" y2="3880.59" xlink:href="#linear-gradient"/></defs><g id="Page_2"><g id="Frames"><g><g><path class="cls-10" d="M1527.53,2673.09l.04,.14c-.06,.03-.11,.1-.11,.18v50.18l103.97,69.95,.15-.23c.09,.09,.23,.12,.36,.07l117.98-46.77v-21.26h1183.3V1303.04H1742.87v-101.82h1190.35V82.87H93.92V1201.22H1540.96v101.82H93.92v651.05l-2.35,.78-77.48-.78L13.99,5H3013.93l-8.65,2818.83-2861.28,.13v-42.26s28.57-19.57,0-35.22v-137.35H1540.96v59.87l-13.43,4.09Z"/><path class="cls-5" d="M1742.87,2696.34l6.74-2.32c.06-.02,.11-.02,.16,0,.09,.03,.15,.11,.15,.21v52.37l-117.98,46.77c-.13,.05-.27,.02-.36-.07-.06-.06-.1-.15-.1-.24v-58.46l53.45-18.37,57.94-19.9Z"/><path class="cls-2" d="M1620.54,2720.44s-.02,0-.03,0c-2.21-.28-4.28-.57-6.2-.88-.05-.01-.1-.02-.16-.03-12.8-2.83-27.68-11.4-39.8-19.63l-.12-.09c-24.73-18.35-33.27-30.81-33.27-30.81v-828.13s81.65,56.35,201.91,9.13v832.95c-1.89,11.11-36.86,24.62-58.4,31.94-9.7,3.29-16.68,5.33-16.68,5.33-18.3,2.55-34.89,1.75-47.25,.22Z"/><path class="cls-6" d="M1742.87,1817.13v32.87c-120.26,47.22-201.91-9.13-201.91-9.13v-37.04s86.87,56.34,201.91,13.3Z"/><path class="cls-2" d="M1742.87,1303.04v514.09c-115.04,43.04-201.91-13.3-201.91-13.3v-602.61h201.91v101.82Z"/><path class="cls-5" d="M1631.58,2793.31l-.15,.23-103.97-69.95v-50.18c0-.08,.05-.15,.11-.18,.05-.01,.1-.01,.15,0l53.77,31.8h.01c5.09,3.56,10.74,7.29,17.01,11.15h0c9.52,5.88,20.45,12.06,32.96,18.42v58.46c0,.09,.04,.18,.1,.24Z"/><rect class="cls-1" x="144" y="1954.09" width="1396.96" height="97.43"/><path class="cls-6" d="M1540.96,1803.83v37.04s-18-15.13,0-37.04Z"/><path class="cls-9" d="M84.35,3939.49l277.29,365.44-347.65,.02,.02-383.86,68.03,18.35c.73,.19,1.44-.35,1.44-1.1v1.31c0,.08,.09,.14,.17,.11l.7-.27Z"/><polygon class="cls-5" points="155.22 3872.26 155.22 3912.43 84.35 3939.49 83.48 3938.34 83.48 3898.09 100.57 3891.94 135.98 3879.19 155.22 3872.26"/><path class="cls-6" d="M144,2746.48c28.57,15.65,0,35.22,0,35.22v-35.22Z"/><path class="cls-11" d="M135.81,3878.73l.17,.46-35.41,12.75-.08-.23c-14.29,3.01-42.77-.76-42.77-.76l-36.85-10.21-.04-.02c-.37-.2-3.35-1.81-6.82-4.73l.05-1126.51h.29v35.22s60.78,21.26,129.65-3v1086.91c0,6.28-5.04,9.02-8.19,10.12Z"/><path class="cls-6" d="M144,2746.48v35.22c-68.87,24.26-129.65,3-129.65,3v-35.22s69.39,22.82,129.65-3Z"/><path class="cls-7" d="M144,2609.13v137.35c-60.26,25.82-129.65,3-129.65,3h-.29l.03-795.39,77.48,.78,2.35-.78h50.08v655.04Z"/><path class="cls-3" d="M83.48,3938.34l.87,1.15-.7,.27c-.08,.03-.17-.03-.17-.11v-1.31Z"/><path class="cls-5" d="M83.48,3898.09v40.25c0,.75-.71,1.29-1.44,1.1l-68.03-18.35v-42.26l6.82,1.89,.04,.02,36.85,10.21,25.76,7.14Z"/><path class="cls-8" d="M20.83,3880.72l-6.82-1.89v-2.84c3.47,2.92,6.45,4.53,6.82,4.73Z"/><polygon class="cls-5" points="14.01 3878.83 14.01 3921.09 13.82 3921.04 13.82 3878.78 14.01 3878.83"/></g><g><polygon class="cls-4" points="1742.87 1201.22 2933.22 1201.22 2933.22 82.87 93.92 82.87 93.92 1201.22 1540.96 1201.22 1742.87 1201.22"/><polyline class="cls-4" points="1540.96 1303.04 93.92 1303.04 93.92 1954.09 144 1954.09 1540.96 1954.09"/><line class="cls-4" x1="1540.96" y1="2051.52" x2="144" y2="2051.52"/><line class="cls-4" x1="144" y1="2609.13" x2="1540.96" y2="2609.13"/><polyline class="cls-4" points="1749.92 2725.35 2933.22 2725.35 2933.22 1303.04 1742.87 1303.04"/><polyline class="cls-4" points="144 2823.96 3005.28 2823.83 3010.44 2823.83"/><polyline class="cls-4" points="1742.87 1850 1742.87 2681.13 1742.87 2682.95 1742.87 2689.74 1742.87 2696.34 1742.87 2698.35"/><polyline class="cls-4" points="1742.87 1201.22 1742.87 1303.04 1742.87 1817.13"/><path class="cls-4" d="M1749.92,2725.35v21.26l-117.98,46.77c-.13,.05-.27,.02-.36-.07-.06-.06-.1-.15-.1-.24v-58.46l53.45-18.37,57.94-19.9,6.74-2.32c.06-.02,.11-.02,.16,0,.09,.03,.15,.11,.15,.21v31.11Z"/><polyline class="cls-4" points="1742.87 2689.74 1749.86 2693.88 1749.92 2693.91"/><polyline class="cls-4" points="1527.46 2673.11 1527.53 2673.09 1540.96 2669 1540.96 2609.13 1540.96 2051.52 1540.96 1954.09 1540.96 1840.87 1540.96 1803.83 1540.96 1303.04 1540.96 1201.22"/><path class="cls-4" d="M1574.23,2699.81c-24.73-18.35-33.27-30.81-33.27-30.81"/><path class="cls-4" d="M1581.49,2705.04c-2.52-1.75-4.89-3.47-7.14-5.14"/><path class="cls-4" d="M1598.51,2716.19c-6.27-3.86-11.92-7.59-17.01-11.14"/><path class="cls-4" d="M1601.85,2717.08l29.63,17.53c-12.51-6.36-23.44-12.54-32.96-18.41"/><line class="cls-4" x1="1581.5" y1="2705.05" x2="1601.84" y2="2717.08"/><line class="cls-4" x1="1581.5" y1="2705.05" x2="1581.49" y2="2705.04"/><path class="cls-4" d="M1631.48,2793.57l-.05-.03-103.97-69.95v-50.18c0-.08,.05-.15,.11-.18,.05-.01,.1-.01,.15,0l53.77,31.8"/><polyline class="cls-4" points="1545.26 2674.67 1550.94 2682.11 1537.44 2673.89"/><path class="cls-4" d="M1620.54,2720.44c12.36,1.53,28.95,2.33,47.25-.22,.38-.04,.75-.09,1.13-.15"/><path class="cls-4" d="M1614.31,2719.56c1.92,.31,3.99,.6,6.2,.88"/><path class="cls-4" d="M1598.51,2716.19h0c.14,.05,1.29,.39,3.32,.89h.01c2.68,.66,6.89,1.59,12.3,2.45"/><line class="cls-4" x1="1625.09" y1="2726.52" x2="1640.55" y2="2728.28"/><path class="cls-4" d="M1667.79,2720.22s6.98-2.04,16.68-5.33c21.54-7.32,56.51-20.83,58.4-31.94,.1-.62,.11-1.22,0-1.82"/><path class="cls-4" d="M1550.94,2682.11s9.94,8.63,23.29,17.7l.12,.09c12.12,8.23,27,16.8,39.8,19.63,.06,.01,.11,.02,.16,.03,2.13,.47,4.21,.77,6.2,.88,0,0,.02,0,.03,0,.08,0,.16,.02,.24,.02"/><path class="cls-4" d="M1742.87,1817.13c-115.04,43.04-201.91-13.3-201.91-13.3-18,21.91,0,37.04,0,37.04,0,0,81.65,56.35,201.91,9.13v-32.87Z"/><polyline class="cls-4" points="144 1954.09 144 2051.52 144 2609.13 144 2746.48 144 2781.7 144 2823.96 144 3865.48 144 3868.61 144 3874.61"/><path class="cls-4" d="M83.48,3898.09l17.09-6.15,35.41-12.75,19.24-6.93v40.17l-70.87,27.06-.7,.27c-.08,.03-.17-.03-.17-.11v-1.31"/><path class="cls-4" d="M20.87,3880.74l36.85,10.21,25.76,7.14v40.25c0,.75-.71,1.29-1.44,1.1l-68.03-18.35-.19-.05v-42.26l.19,.05,6.82,1.89"/><path class="cls-4" d="M57.72,3890.95s28.48,3.77,42.77,.76"/><path class="cls-4" d="M20.87,3880.74l-.04-.02c-.37-.2-3.35-1.81-6.82-4.73-.17-.13-.33-.28-.5-.42"/><path class="cls-4" d="M133.34,3879.39s1.04-.16,2.47-.66c3.15-1.1,8.19-3.84,8.19-10.12"/><line class="cls-4" x1="144" y1="3865.48" x2="158.61" y2="3869.91"/><line class="cls-4" x1="361.65" y1="4304.93" x2="362.62" y2="4306.21"/><polyline class="cls-4" points="83.48 3938.34 84.35 3939.49 361.64 4304.93"/><polyline class="cls-4" points="91.57 1954.87 14.09 1954.09 14.06 2749.48 14.01 3875.99 14.01 3878.83 14.01 3921.09 13.99 4304.95 361.64 4304.93 361.65 4304.93 3000.74 4304.82 3005.28 2823.83 3013.93 5 13.99 5 14.09 1954.09"/><path class="cls-4" d="M144,2746.48c-60.26,25.82-129.65,3-129.65,3v35.22s60.78,21.26,129.65-3c0,0,28.57-19.57,0-35.22Z"/></g></g></g></g></svg>