<?xml version="1.0" encoding="UTF-8"?><svg id="Layer_2" xmlns="http://www.w3.org/2000/svg" viewBox="0 0 600.04 598.61"><defs><style>.cls-1{fill:#fff;stroke:#000;stroke-miterlimit:10;stroke-width:8px;}.cls-2{font-family:ComicSansMS, 'Comic Sans MS';font-size:50px;}</style></defs><g id="Final_Page"><g id="Panel_2"><g id="Bubbles"><path class="cls-1" d="M19.25,312.83c109.04,118.4,185.29,101.4,185.29,101.4-5.09,15.13-7.64,31.94-7.64,50.3,0,88.15,58.74,130.08,176.09,130.08s173.74-41.93,173.74-130.08c0-73.05-38.72-121.76-118.77-136.31,0,0,24.86-34.83,9-118.26,93.72,.69,159.08-5.45,159.08-101.6,0-111.7-80.34-104.25-211.3-104.25S185.17-3.72,185.17,104.98c0,122.32,68.6,104.42,199.57,104.42,25.83,91.41-11.74,114.27-11.74,114.27-63.1,0-109.25,15.24-138.43,43.03,0,0-66.61,26.84-215.3-53.87Z"/><text class="cls-2" transform="translate(264.59 57.61)"><tspan x="0" y="0">On second</tspan><tspan x="-70.97" y="60" xml:space="preserve"> thought, it fits </tspan><tspan x="-52.89" y="120">me quite nicely</tspan></text><text class="cls-2" transform="translate(286.18 416.68)"><tspan x="0" y="0">I think</tspan><tspan x="-46.38" y="60" xml:space="preserve"> I’ll keep it</tspan><tspan x="-49.72" y="120" xml:space="preserve"> for myself</tspan></text></g></g></g></svg>