<?xml version="1.0" encoding="UTF-8"?><svg id="Layer_2" xmlns="http://www.w3.org/2000/svg" viewBox="0 0 2845.6 1759.45"><defs><style>.cls-1{fill:#c7ebef;font-family:ComicSansMS, 'Comic Sans MS';font-size:300px;}.cls-1,.cls-2,.cls-3,.cls-4,.cls-5,.cls-6{stroke:#231f20;stroke-miterlimit:10;}.cls-1,.cls-2,.cls-3,.cls-4,.cls-6{stroke-width:4px;}.cls-2{fill:#3d859b;}.cls-7{fill:#382c22;}.cls-8{fill:#324746;}.cls-3{fill:#20657a;}.cls-4,.cls-5{fill:none;}.cls-9{fill:#414746;}.cls-5{stroke-width:7px;}.cls-6{fill:#61bad8;}.cls-10{fill:#231f20;}</style></defs><g id="Final_Page"><g id="Panel_3"><g id="Layer_257"><g><g><polygon class="cls-8" points="2842.11 4.37 2842.11 1755.85 2120.6 1755.85 2120.6 165.5 2842.11 4.37"/><polygon class="cls-7" points="2120.6 165.5 2120.6 1755.85 2004.65 1755.85 2004.65 191.39 2120.6 165.5"/><polygon class="cls-8" points="2004.65 191.39 2004.65 1755.85 768.91 1755.85 768.91 467.37 2004.65 191.39"/><polygon class="cls-7" points="768.91 467.37 768.91 1755.85 682.42 1755.85 682.42 486.68 768.91 467.37"/><polygon class="cls-9" points="682.42 486.68 682.42 1755.85 3.58 1755.85 3.58 638.28 682.42 486.68"/></g><g><line class="cls-5" x1="682.42" y1="486.68" x2="682.42" y2="1755.85"/><line class="cls-5" x1="768.91" y1="467.37" x2="768.91" y2="1755.85"/><line class="cls-5" x1="2004.65" y1="191.39" x2="2004.65" y2="1755.85"/><polyline class="cls-5" points="2120.6 160.43 2120.6 165.5 2120.6 1755.85"/><polygon class="cls-4" points="2120.6 165.5 2842.11 4.37 2842.11 1755.85 2120.6 1755.85 2004.65 1755.85 768.91 1755.85 682.42 1755.85 3.58 1755.85 3.58 638.28 682.42 486.68 768.91 467.37 2004.65 191.39 2120.6 165.5"/></g></g></g><g id="Sound"><text class="cls-1" transform="translate(908.43 1534.56) rotate(-73.11)"><tspan x="0" y="0">W</tspan></text><text class="cls-1" transform="translate(997.99 1242.32) rotate(-66.07)"><tspan x="0" y="0">H</tspan></text><text class="cls-1" transform="translate(1084.17 1038.46) rotate(-54.99)"><tspan x="0" y="0">O</tspan></text><text class="cls-1" transform="translate(1202.07 849.77) rotate(-29.61)"><tspan x="0" y="0">O</tspan></text><text class="cls-1" transform="translate(1382.35 734.27) rotate(14.12)"><tspan x="0" y="0">O</tspan></text><text class="cls-1" transform="translate(1592.61 790.31) rotate(41.43)"><tspan x="0" y="0">O</tspan></text><text class="cls-1" transform="translate(1763.2 943.58) rotate(53.1)"><tspan x="0" y="0">O</tspan></text><text class="cls-1" transform="translate(1902.67 1131.86) rotate(58.83)"><tspan x="0" y="0">S</tspan></text><text class="cls-1" transform="translate(2008.68 1307.11) rotate(62.39)"><tspan x="0" y="0">H</tspan></text></g><g id="Layer_256"><g id="Layer_258"><path class="cls-6" d="M1185.32,1755.85l-23.48-151.83-110.24,148.52c-.52,.69-1.61,.16-1.38-.67l20.45-75.85-54.39,3.91,84.52-90h-118.96l75.13-16.04-75.13-9,161.22-26.61s-22.82-128.35-14.54-159.65c0,0-37.11,40.7-68.41,42.26s50.09-42.26,50.09-42.26h-65.74l39.13-17.22-163.87-32.87,132.8-31.3-116.07-53.22,231.65,10.96s-3.13-48.52,9.39-65.74c0,0-25.04,18.78-21.91-31.3s23.48-84.13,23.48-84.13c0,0-29.74,26.21-39.13,1.17s-76.7-101.36-76.7-101.36l122.09,60.66-46.96-114.26,122.09,108s-23.48-82.96,0-114.26,56.35-42.26,56.35-42.26l-42.26-103.3,51.65,62.61s-50.09-142.43-45.39-140.87,86.09,161.22,86.09,161.22c0,0,23.48-17.22,37.57-17.22s0-245.74,0-245.74l18.83,129.91,34.38-231.43v261.17l15.65-21.91v46.96l20.35-29.74-9.39,54.78,36-79.83v103.3l39.13-183.13,26.61,198.78s25.04-1.57,61.04,29.74l48.52-180v165.91l31.3-136.17-25.04,208.17s12.52-1.57,37.57,59.48,37.57,89.61,37.57,89.61l212.87-124.05-108,84.52,64.17-1.57-64.17,51.65,84.52-17.22-73.57,54.11,227.8-36.9-320.14,126.78s42.26,95.48,34.43,111.13c0,0,43.83,15.65,61.04,36,0,0-48.52,10.96-62.61,10.96,0,0,10.96,31.3,10.96,90.78s-12.52,113.87-12.52,113.87l145.57,42.65-126.78-9.39,70.43,29.74-79.83-3.13,115.04,73.57-146.35-26.61s-48.52,70.43-59.48,75.13"/><polygon class="cls-3" points="2232.45 630.45 2399.93 506.8 2334.19 589.76 2630.02 423.85 2403.06 624.19 2550.19 574.11 2260.62 768.19 2331.06 683.67 2172.97 716.54 2279.41 641.41 2232.45 630.45"/><polyline class="cls-3" points="2842.1 24.36 2615.93 232.89 2680.1 200.02 2661.32 232.89 2766.19 145.24 2709.84 240.72 2842.1 160.42"/><polygon class="cls-2" points="2367.06 1045.24 2741.15 1065.59 2498.54 1087.5 2640.97 1121.26 2246.54 1121.26 2456.28 1074.98 2367.06 1045.24"/><polygon class="cls-2" points="2111.93 1272.19 2349.84 1406.8 2393.67 1453.76 2296.62 1427.15 2393.67 1503.85 2271.58 1444.37 2111.93 1272.19"/><polygon class="cls-3" points="2630.02 1755.85 2594.02 1697.93 2648.8 1726.89 2586.19 1585.24 2741.15 1661.93 2663.67 1486.63 2841.32 1611.85 2842.1 1755.85 2630.02 1755.85"/><polyline class="cls-2" points="1568.8 289.24 1578.19 359.67 1592.28 324.45 1592.28 444.19 1629.84 333.06 1640.8 389.41 1662.71 265.76"/><polyline class="cls-3" points="2106.58 172.99 2070.6 315.85 2135.41 265.76 2130.71 329.93 2183.93 228.19 2172.97 354.98 2307.4 123.78"/><polygon class="cls-2" points="1905.9 583.5 1939.75 486.68 2016.62 444.19 1975.75 518.54 2075.98 444.19 1922.15 666.45 1950.55 589.76 1922.15 610.11 1936.62 563.15 1905.9 583.5"/><polyline class="cls-2" points="1105.03 392.3 1164.58 477.06 1155.58 414.45 1190.02 437.93 1183.75 373.76"/><polygon class="cls-3" points="48.97 1757.41 110.02 1649.41 38.02 1688.54 139.75 1560.19 2.02 1641.59 3.58 1755.85 48.97 1757.41"/><polyline class="cls-3" points="446.54 1755.85 552.97 1611.85 526.36 1724.54 711.06 1542.98 623.41 1757.41"/><path class="cls-2" d="M415.23,1265.93l241.04-42.26s-87.65,43.83-77.48,42.26,151.04-21.11,151.04-21.11l-269.22,86.85,68.87-54-114.26-11.74Z"/><polyline class="cls-3" points="5.15 1128.19 252.45 1143.85 110.02 1179.85 174.19 1189.24 120.97 1223.67 182.02 1214.28 3.58 1305.06"/><polyline class="cls-3" points="477.84 534.98 563.93 647.67 549.84 591.32 601.49 630.45 601.49 563.15 716.98 711.85 645.03 555.32 695.41 566.28 670.36 486.68"/><polygon class="cls-3" points="216.45 733.76 597.41 873.06 477.84 873.06 597.41 959.15 393.02 959.15 499.75 937.24 406.93 899.67 454.36 896.54 238.36 838.63 393.02 835.5 216.45 733.76"/><path class="cls-2" d="M919.71,599.26l99.7,112.58-92.35-23.48,32.87,53.22-131.48-122.09s68.87,26.61,68.87,21.91-23.48-92.35-23.48-92.35l45.87,50.2Z"/></g></g><g id="Layer_256_copy"><g id="Layer_258_copy"><path class="cls-4" d="M1185.32,1755.85l-23.48-151.83-110.24,148.52c-.52,.69-1.61,.16-1.38-.67l20.45-75.85-54.39,3.91,84.52-90h-118.96l75.13-16.04-75.13-9,161.22-26.61s-22.82-128.35-14.54-159.65c0,0-37.11,40.7-68.41,42.26s50.09-42.26,50.09-42.26h-65.74l39.13-17.22-163.87-32.87,132.8-31.3-116.07-53.22,231.65,10.96s-3.13-48.52,9.39-65.74c0,0-25.04,18.78-21.91-31.3s23.48-84.13,23.48-84.13c0,0-29.74,26.21-39.13,1.17s-76.7-101.36-76.7-101.36l122.09,60.66-46.96-114.26,122.09,108s-23.48-82.96,0-114.26,56.35-42.26,56.35-42.26l-42.26-103.3,51.65,62.61s-50.09-142.43-45.39-140.87,86.09,161.22,86.09,161.22c0,0,23.48-17.22,37.57-17.22s0-245.74,0-245.74l18.83,129.91,34.38-231.43v261.17l15.65-21.91v46.96l20.35-29.74-9.39,54.78,36-79.83v103.3l39.13-183.13,26.61,198.78s25.04-1.57,61.04,29.74l48.52-180v165.91l31.3-136.17-25.04,208.17s12.52-1.57,37.57,59.48,37.57,89.61,37.57,89.61l212.87-124.05-108,84.52,64.17-1.57-64.17,51.65,84.52-17.22-73.57,54.11,227.8-36.9-320.14,126.78s42.26,95.48,34.43,111.13c0,0,43.83,15.65,61.04,36,0,0-48.52,10.96-62.61,10.96,0,0,10.96,31.3,10.96,90.78s-12.52,113.87-12.52,113.87l145.57,42.65-126.78-9.39,70.43,29.74-79.83-3.13,115.04,73.57-146.35-26.61s-48.52,70.43-59.48,75.13"/><polygon class="cls-4" points="2232.45 630.45 2399.93 506.8 2334.19 589.76 2630.02 423.85 2403.06 624.19 2550.19 574.11 2260.62 768.19 2331.06 683.67 2172.97 716.54 2279.41 641.41 2232.45 630.45"/><polyline class="cls-4" points="2842.1 24.36 2615.93 232.89 2680.1 200.02 2661.32 232.89 2766.19 145.24 2709.84 240.72 2842.1 160.42"/><polygon class="cls-4" points="2367.06 1045.24 2741.15 1065.59 2498.54 1087.5 2640.97 1121.26 2246.54 1121.26 2456.28 1074.98 2367.06 1045.24"/><polygon class="cls-4" points="2111.93 1272.19 2349.84 1406.8 2393.67 1453.76 2296.62 1427.15 2393.67 1503.85 2271.58 1444.37 2111.93 1272.19"/><polygon class="cls-4" points="2630.02 1755.85 2594.02 1697.93 2648.8 1726.89 2586.19 1585.24 2741.15 1661.93 2663.67 1486.63 2841.32 1611.85 2842.1 1755.85 2630.02 1755.85"/><polyline class="cls-4" points="1568.8 289.24 1578.19 359.67 1592.28 324.45 1592.28 444.19 1629.84 333.06 1640.8 389.41 1662.71 265.76"/><polyline class="cls-4" points="2106.58 172.99 2070.6 315.85 2135.41 265.76 2130.71 329.93 2183.93 228.19 2172.97 354.98 2307.4 123.78"/><polygon class="cls-4" points="1905.9 583.5 1939.75 486.68 2016.62 444.19 1975.75 518.54 2075.98 444.19 1922.15 666.45 1950.55 589.76 1922.15 610.11 1936.62 563.15 1905.9 583.5"/><polyline class="cls-4" points="1105.03 392.3 1164.58 477.06 1155.58 414.45 1190.02 437.93 1183.75 373.76"/><polygon class="cls-4" points="48.97 1757.41 110.02 1649.41 38.02 1688.54 139.75 1560.19 2.02 1641.59 3.58 1755.85 48.97 1757.41"/><polyline class="cls-4" points="446.54 1755.85 552.97 1611.85 526.36 1724.54 711.06 1542.98 623.41 1757.41"/><path class="cls-4" d="M415.23,1265.93l241.04-42.26s-87.65,43.83-77.48,42.26,151.04-21.11,151.04-21.11l-269.22,86.85,68.87-54-114.26-11.74Z"/><polyline class="cls-4" points="5.15 1128.19 252.45 1143.85 110.02 1179.85 174.19 1189.24 120.97 1223.67 182.02 1214.28 3.58 1305.06"/><polyline class="cls-4" points="477.84 534.98 563.93 647.67 549.84 591.32 601.49 630.45 601.49 563.15 716.98 711.85 645.03 555.32 695.41 566.28 670.36 486.68"/><polygon class="cls-4" points="216.45 733.76 597.41 873.06 477.84 873.06 597.41 959.15 393.02 959.15 499.75 937.24 406.93 899.67 454.36 896.54 238.36 838.63 393.02 835.5 216.45 733.76"/><path class="cls-4" d="M919.71,599.26l99.7,112.58-92.35-23.48,32.87,53.22-131.48-122.09s68.87,26.61,68.87,21.91-23.48-92.35-23.48-92.35l45.87,50.2Z"/></g></g><g id="Background"><polygon class="cls-5" points="3.58 638.28 2842.1 4.37 2842.1 1755.85 3.58 1755.85 3.58 638.28"/><path class="cls-10" d="M1672.31,1240.68c7.65,2.74,14.83,9.05,18.58,16.26-4.01-1.57-7.31-4.02-10.49-6.76-3.12-2.81-5.97-5.75-8.09-9.5h0Z"/><path class="cls-10" d="M1635.54,1215.69c8.12,1.12,16.31,6.23,21.01,12.93-4.17-1.03-7.76-2.95-11.34-5.12-3.53-2.24-6.84-4.59-9.67-7.82h0Z"/><path class="cls-10" d="M1599.1,1199.22c3.63,0,6.87,.97,10.14,2.27,3.23,1.38,6.21,2.99,8.76,5.58-6.91,.38-14.29-2.69-18.9-7.86h0Z"/><path class="cls-10" d="M1637.99,1165.11c-20.48-5.06-41.08-13.61-61.77-17.75l2.35-2.38,1.26,5.43-3.83,.82c-.28-1.79-.67-3.54-1.21-5.22l3.73-.94c.79,4.54,.15,9.14-1.01,13.34-1.16,4.23-2.87,8.12-4.19,12.07-1.39,3.69-2.29,7.87-.8,11.64,1.6,3.76,5.87,5.72,9.12,8.01-3.88-1.87-8.33-3.22-10.6-7.31-2.19-4.12-1.54-9.1-.35-13.14,2.15-7.89,5.6-15.81,4.04-23.94-.41-2.33,2.96-3.19,3.72-.96,.64,1.91,1.08,3.86,1.42,5.79,.2,1.07-.52,2.1-1.6,2.28-1.02,.18-1.99-.48-2.23-1.47l-1.36-5.56c-.37-1.38,.97-2.73,2.35-2.38,5.33,1.1,10.59,2.5,15.77,4.08,14.92,4.63,30.73,11.54,45.2,17.58h0Z"/><path class="cls-10" d="M1722.05,1193.55c-12.44-3.09-24.55-6.94-36.69-10.92-12.1-4.09-24.15-8.3-35.77-13.73,12.6,2.4,24.87,5.94,37.03,9.94,12.12,4.11,24.11,8.67,35.43,14.72h0Z"/><path class="cls-10" d="M1749.54,1205.21c-5.56,.15-11.14-2.05-14.62-6.48,5.56-.64,11.49,1.76,14.62,6.48h0Z"/><path class="cls-10" d="M1766.68,1247.51c-2.12-1.9-1.6-3.91,1.19-4.49,2.39,1.67,1.7,4.22-1.19,4.49h0Z"/><path class="cls-10" d="M1743.97,1284.95c2.31-4.94,5.33-9.24,8.4-13.63,3.15-4.35,6.17-8.54,9.9-12.53-1.99,10.43-9.45,20.43-18.29,26.16h0Z"/><path class="cls-10" d="M1720.48,1299.96c2.91-4.66,8.13-7.46,13.59-7.67-2.61,4.88-8.11,7.79-13.59,7.67h0Z"/><path class="cls-10" d="M1679.62,1321.99c3.99-3.9,8.62-6.78,13.46-9.41,4.89-2.55,9.88-4.77,15.36-5.89-3.99,3.91-8.61,6.79-13.46,9.41-4.9,2.54-9.88,4.76-15.36,5.89h0Z"/><path class="cls-10" d="M1651.59,1336.59c3.59-5.16,10.03-8.52,16.33-8.39-3.96,4.82-10.11,7.99-16.33,8.39h0Z"/><path class="cls-10" d="M1596.19,1416.51c-1.58-17.86,2.91-38.61,17.06-50.67-4.61,7.82-8.06,15.86-10.61,24.49-2.62,8.6-4.23,17.39-6.45,26.18h0Z"/><path class="cls-10" d="M1614.26,1595.49c-4.79-26.28-10.7-53.64-15.14-79.99-1.72-10.75-3.31-21.57-4.13-32.43-.14-5.59,.85-10.94,1.48-16.34,.25,5.44-.2,10.93,.48,16.19,.68,4.47,2.07,11.42,2.86,15.95,5.68,30.89,13.34,65.3,14.45,96.62h0Z"/><path class="cls-10" d="M1620.31,1684.22c-2.07-11.7-2.99-23.48-3.73-35.3-.64-11.83-1.11-23.61-.56-35.48,2.62,11.61,3.81,23.41,4.55,35.25,.64,11.84,.83,23.69-.26,35.53h0Z"/><path class="cls-10" d="M1367.42,1683.96c.45,23.24,1.83,46.49,5.12,69.5l-1.18-1.11c20.94,1.24,41.92,1.86,62.9,2.18,41.24,.57,84.82-.07,126,.27,19.76,.14,43.31,.7,63.05,1.67l-1.19,1.12c.03-.61-.03-1.23-.16-1.84l2.14,.14c-.12,.33-.1,.5,.12,.78l-1.92,.78c-.3-9.3-.46-18.61-.7-27.91-.22-6.94-.45-20.96-.59-27.91,.45,6.95,1.42,20.9,1.8,27.85,.56,9.29,1.18,18.57,1.68,27.85,.03,.6-.43,1.12-1.03,1.15-.94,0-1.41-.98-1.61-1.81-.22-1.06,.26-2.71,1.6-2.26,.36,.14,.61,.44,.69,.79,.2,.79,.29,1.61,.28,2.42,0,.64-.55,1.15-1.19,1.12-7.88-.16-23.61-.36-31.48-.42-42.49-.19-99.47,.79-141.79,.16-26.11-.46-52.77-1.41-78.78-3.62-.62-.04-1.11-.52-1.18-1.11-2.7-23.17-3.3-46.54-2.58-69.83h0Z"/><path class="cls-10" d="M1370.49,1595.03c.86,11.77,.58,23.5,.11,35.26-.57,11.75-1.31,23.44-3.08,35.11-1.41-11.73-1.39-23.52-.92-35.29,.57-11.77,1.59-23.49,3.88-35.08h0Z"/><path class="cls-10" d="M1373.51,1573.4c2.38,1.41,1.99,3.13-.77,3.35-2.38-1.43-1.99-3.1,.77-3.35h0Z"/><path class="cls-10" d="M1383.29,1518.55c.53,6.41-.14,12.71-1.13,19-1.09,6.27-2.49,12.44-5.08,18.32-.53-6.43,.13-12.71,1.13-19,1.09-6.27,2.5-12.42,5.08-18.32h0Z"/><path class="cls-10" d="M1389.73,1463.09c6.12,11.36,1.49,25.72-3.33,36.76-.64-12.51,3.9-24.23,3.33-36.76h0Z"/><path class="cls-10" d="M1357.92,1351.91c14.77,14.02,23.63,35.03,25.37,55.17-3.84-9.48-7.28-18.92-11.47-28.18-4.12-9.29-8.86-18.09-13.9-26.99h0Z"/><path class="cls-10" d="M1309.32,1321.2c6.49,1.42,12.5,4.02,18.32,7.09,5.77,3.15,11.31,6.76,15.91,11.56-6.27-2.11-12.02-4.98-17.8-8.04-5.74-3.14-11.35-6.38-16.43-10.62h0Z"/><path class="cls-10" d="M1242.36,1288.37c8.49,2.88,16.52,6.55,24.55,10.42,7.99,3.95,15.87,8.05,23.18,13.24-8.68-2.32-16.88-5.77-24.94-9.65-8.01-3.96-15.82-8.35-22.8-14.01h0Z"/><path class="cls-10" d="M1209.06,1257.79c3.49,2.82,6.22,6.02,9.06,9.35,2.78,3.39,5.42,6.63,7.61,10.54-8.18-3.24-14.82-11.32-16.66-19.89h0Z"/><path class="cls-10" d="M1225.56,1198.1c-12.67,10.62-25.64,24.04-24.12,41.83-7.73-17.53,7.96-36.26,24.12-41.83h0Z"/><path class="cls-10" d="M1288.78,1175.94c-10.13,6.71-22.11,9.73-33.81,12.31-3.91,.8-7.82,1.56-11.86,2.08,3.5-2.11,7.23-3.68,10.99-5.1,11.34-4.07,22.9-6.76,34.69-9.28h0Z"/><path class="cls-10" d="M1316.71,1167.32c-1.81,3.32-5.83,4.52-9.15,2.68,1.8-3.34,5.83-4.5,9.15-2.68h0Z"/><path class="cls-10" d="M1364.77,1153.31c-4.23,2.85-8.85,4.58-13.64,6.02-4.82,1.35-9.65,2.34-14.75,2.18,4.21-2.86,8.85-4.59,13.64-6.02,4.82-1.34,9.67-2.34,14.75-2.18h0Z"/><path class="cls-10" d="M1370.36,1198.23c9.97-5.69,20.25-10.8,30.61-15.73l-.66,2.82c-.38-.44-.78-.86-1.16-1.19-.16-.15-.43-.35-.44-.33,.41,.16,.98,.11,1.43-.24,.35-.24,.6-.74,.64-1.08,.03-.43-.04-.45-.03-.47,0-.02,0,0,.03,.04,.13,.16,.31,.28,.53,.23l-1.24,2.94c-5.76-8.76-7.28-19.5-7.2-29.75,.06-3.38,.22-6.74,.49-10.07l1.56,1.31c-1.14,.17-2.25,.47-3.28,.94l-.39-2.08c.97,.17,2.02-.07,2.77-.73l.85,1.46c-3.61,.67-7.22,1.31-10.87,1.84,3.46-1.27,6.95-2.42,10.45-3.55,.79-.28,1.47,.74,.93,1.36-1.02,1.29-2.73,1.95-4.37,1.82-1.1-.06-1.37-1.63-.39-2.08,1.31-.65,5.22-2.94,5.33-.21,.12,6.58,.21,13.19,1.22,19.67,.91,6.34,2.78,12.56,6.16,17.99,.73,1.1,.07,2.67-1.22,2.93-1.67,.38-3.53-.4-4.48-1.82-1.16-1.47-.78-4.06,1.52-4.12,1.82,.12,2.93,1.74,3.98,2.94,.75,.9,.38,2.33-.7,2.77-2.64,1.11-5.26,2.24-7.93,3.3-7.97,3.25-15.99,6.38-24.16,9.12h0Z"/><path class="cls-10" d="M1291.36,1248.72c5.38-7.45,12.27-13.65,19.63-19.09,7.42-5.37,15.35-10.02,23.98-13.19-6.02,5.17-15.19,11.65-21.62,16.42-6.51,4.71-15.38,11.4-21.99,15.86h0Z"/><path class="cls-10" d="M1415.22,1249.46c6.38-1.94,12.58-3.6,18.53-6.39,5.99-2.72,11.16-6.37,16.48-10.4-6.13,12.57-21.51,19.16-35.01,16.78h0Z"/><path class="cls-10" d="M1305.4,1235.97c7.78,.35,15.32,1.93,22.84,3.7,7.5,1.87,14.86,3.91,22.06,6.87-7.81,.16-15.46-1.19-23-2.98-7.52-1.88-14.87-4.18-21.89-7.59h0Z"/><path class="cls-10" d="M1609.39,1253.3c9.35-3.42,18.86-5.94,28.26-9.03,9.43-3,18.48-6.47,27.65-10.36-15.03,12.85-36.46,18.5-55.91,19.39h0Z"/><path class="cls-10" d="M1578.39,1254.47c4.32-2.1,9.26-1.94,13.34,.63-3.96,2.89-9.69,2.66-13.34-.63h0Z"/><path class="cls-10" d="M1526.15,1232.67c5.98,2.18,11.44,5.01,17.05,7.83,5.57,2.9,11.05,5.67,16.35,9.18-6.41-.54-12.48-2.75-18.17-5.62-5.65-2.95-10.97-6.57-15.23-11.39h0Z"/><path class="cls-10" d="M1418.03,1104.29c-.28-18.97,16.89-23.6,32.2-17.75-3.58,.38-7.08,.47-10.45,.85-12.64,1.26-16.76,5.64-21.75,16.9h0Z"/><path class="cls-10" d="M1394.62,1147.36c5.36-3.37,8.69-7.93,14.03-11.33-.41,6.53-7.21,13.59-14.03,11.33h0Z"/><path class="cls-10" d="M1399.51,1180.76c6.08-2.83,14.19-2.4,19.56,2.03,1.96,1.63,4.19,2.95,6.49,4.04,4.95,2.27,10.01,3.79,15.29,5.54-7.54,.8-15.55-.55-22-4.74-1.06-.72-2.25-1.78-3.25-2.6-4.65-3.37-10.23-4.18-16.09-4.27h0Z"/><path class="cls-10" d="M1570.7,1146.13c-4.3,1.14-8.54-2.84-8.23-7.16,4,.89,6.56,3.5,8.23,7.16h0Z"/><path class="cls-10" d="M1535.93,1186.25c4.81,1.4,9.64,3.53,14.46,3.08,.63-.09,1.17-.28,1.74-.63,3.47-2.27,5.69-6.01,9.91-8.17,3.31-1.83,7.07-2.56,10.63-2.27-5,1.98-9.02,4.36-12.44,8.26-2.3,2.49-4.92,5.8-8.59,6.49-6.09,.6-11.52-2.91-15.71-6.77h0Z"/><path class="cls-10" d="M1516.58,1089.63c-7.91-4.34-15.83-7.84-24.66-9.57-2.89-.61-5.84-1.05-8.95-1.58,11.86-4.28,26.7,.57,33.61,11.15h0Z"/><path class="cls-10" d="M1536.25,1123.54c-2.44-2.86-3.96-5.98-5.41-9.31-1.37-3.37-2.53-6.61-2.93-10.35,5.85,4.4,9.12,12.42,8.35,19.66h0Z"/><path class="cls-10" d="M1535.75,1192.56c.15-7.55,.76-18.15,1.08-25.75,.47-8.61,.81-17.2,2.36-25.76,2.89,16.64,2.75,35.63-3.44,51.51h0Z"/><path class="cls-10" d="M1513.59,1249.45c9.24-12.02,15.59-25.24,19.4-39.9,1.97,15.32-6.12,32-19.4,39.9h0Z"/><path class="cls-10" d="M1479.27,1260.01c3.41-2,7.24-1.86,10.45,.47-2.78,3.1-7.96,2.85-10.45-.47h0Z"/><path class="cls-10" d="M1447.9,1227.84c2.59,4.28,4.74,8.41,7.36,12.54,2.57,4.17,5.33,7.89,8.08,12.08-9.46-3.8-16.06-14.47-15.44-24.62h0Z"/><path class="cls-10" d="M1467.87,1080.06c-13.71,4.82-26.37,12.45-34.23,25,2.56-15.37,19.22-25.98,34.23-25h0Z"/><path class="cls-10" d="M1501.29,1662.14c-2.39-4.37-2-9.81,1.03-13.77,2.41,4.37,1.98,9.8-1.03,13.77h0Z"/><path class="cls-10" d="M1497.98,1702.81c-2.14-6.83-1.44-15.06,1.86-21.42,2.15,6.94,1.43,14.95-1.86,21.42h0Z"/><path class="cls-10" d="M1496.41,1725.65c-2.53-1.52-2.36-4.37,.36-5.54,2.54,1.51,2.34,4.36-.36,5.54h0Z"/><path class="cls-10" d="M1503.49,1711.5c3.85,4.39,5.23,10.52,4.37,16.23-4.36-4.03-5.81-10.57-4.37-16.23h0Z"/><path class="cls-10" d="M1498.61,1696.38c3.51,1.17,5,5.24,3.09,8.41-3.24-1.59-4.49-5.1-3.09-8.41h0Z"/></g></g><g id="Frames"><path class="cls-10" d="M2118.97,882.11c4.79-.55,9.61-.15,13.95,2.1,3.78,1.95,6.87,4.91,9.69,8.05,3.07,3.43,5.86,7.1,8.93,10.54,3.39,3.79,7.13,7.1,11.39,9.89,10.96,7.18,23.7,10.7,36.57,12.43,13.5,1.81,27.19,2.13,40.79,2.28s26,.16,38.93,1.58c14.32,1.58,28.17,5.64,42.56,6.82,14.69,1.2,29.45,.71,44.16,.44,14.66-.27,29.08,.04,43.6,2.26,28.03,4.27,55.47,12.7,83.93,13.95,3.51,.15,7.03,.19,10.54,.1,2.57-.06,2.58-4.06,0-4-28.66,.67-56.39-7.35-84.36-12.4-14.17-2.55-28.35-4.1-42.76-4.05-14.75,.06-29.51,.78-44.26,.3-7.4-.24-14.81-.77-22.13-1.92s-14.16-2.99-21.31-4.15c-12.96-2.1-26.05-2.66-39.16-2.83-13.65-.17-27.29-.24-40.9-1.36s-26.21-3.29-37.95-9.29c-5.1-2.61-9.89-5.79-13.95-9.85-3.31-3.3-6.2-6.98-9.19-10.56-5.68-6.79-12.18-13.06-21.33-14.31-2.58-.35-5.15-.33-7.74-.03s-2.56,4.29,0,4h0Z"/><path class="cls-10" d="M940.9,1755.43c16.11-5.92,32.15-12.3,47.21-20.6,14.64-8.07,28.62-18.12,38.72-31.61,5.44-7.26,9.5-15.51,11.73-24.31,.63-2.5-3.22-3.56-3.86-1.06-3.92,15.47-13.73,28.25-25.85,38.33-12.85,10.69-27.96,18.52-43.21,25.18-8.48,3.71-17.13,7.03-25.81,10.22-2.4,.88-1.36,4.75,1.06,3.86h0Z"/><path class="cls-10" d="M1098.68,1548.62c9.28-6.66,14.68-17.32,18.94-27.63,4.81-11.65,8.2-23.8,12.28-35.71,2.01-5.86,4.16-11.72,7.06-17.21,1.2-2.27-2.25-4.3-3.45-2.02-5.42,10.26-8.64,21.61-12.2,32.61-3.71,11.47-7.45,23.2-13.61,33.62-2.88,4.87-6.4,9.55-11.04,12.88-.88,.63-1.3,1.74-.72,2.74,.51,.87,1.85,1.35,2.74,.72h0Z"/><path class="cls-10" d="M2122.66,1668.36c15.09,9.16,26.41,22.87,37.66,36.19,5.7,6.75,11.42,13.58,17.87,19.63s14.36,10.45,22.48,14.04c9.23,4.08,18.78,7.44,27.65,12.3,2.26,1.24,4.28-2.21,2.02-3.45-15.45-8.48-33.68-12.31-47.32-23.93-6.73-5.73-12.49-12.72-18.19-19.44-5.67-6.68-11.24-13.46-17.28-19.82-6.84-7.2-14.35-13.81-22.86-18.98-2.21-1.34-4.22,2.12-2.02,3.45h0Z"/><path class="cls-10" d="M773.67,853.93c12.15,.01,24.31,.93,36.18,3.62,10.73,2.43,21.07,6.26,31.03,10.9,5.59,2.61,11.08,5.43,16.52,8.34,6.15,3.3,12.16,6.87,18.6,9.59,12.4,5.26,25.55,7.59,38.85,9.14,14.76,1.72,29.56,3,43.77,7.63,2.45,.8,3.5-3.06,1.06-3.86-25.34-8.26-52.81-5.66-77.9-14.89-6.8-2.5-13.04-6.01-19.39-9.46-5.53-3-11.1-5.93-16.77-8.66-10.05-4.83-20.44-9.01-31.26-11.77-13.29-3.38-27-4.58-40.69-4.59-2.57,0-2.58,4,0,4h0Z"/><path class="cls-10" d="M4,868.9c4.23,16.82,7.93,33.76,11.71,50.68s7.58,33.46,12.15,50,9.88,32.85,16.45,48.68c3.32,8.01,7.05,15.81,10.82,23.61s7.41,15.51,10.26,23.62,4.76,16.29,4.82,24.85-1.03,17.29,.35,25.89c.34,2.12,.85,4.2,1.52,6.24,.8,2.43,4.67,1.39,3.86-1.06-2.75-8.31-2.1-17.01-1.82-25.62,.14-4.35,.17-8.73-.37-13.06s-1.42-8.3-2.59-12.35c-4.79-16.58-13.56-31.6-20.48-47.31s-12.49-31.99-17.25-48.48c-4.76-16.47-8.7-33.17-12.48-49.89s-7.45-33.8-11.55-50.62c-.51-2.08-1.02-4.16-1.55-6.24-.63-2.49-4.49-1.44-3.86,1.06h0Z"/><path class="cls-10" d="M93.15,1258.11c.01,24.12,1.77,48.18,3.6,72.21,1.82,23.83,3.68,47.69,3.83,71.61,.07,11.47-.42,22.91-1,34.37-.49,9.52-.93,19.09-.16,28.6s2.8,18.83,6.38,27.67c3.8,9.39,9.4,17.9,12.71,27.5,2.33,6.79,3.4,13.74,3.46,20.91,.07,8.02-.57,16.04-.66,24.07-.03,2.56-.02,5.11,.03,7.67s4.05,2.58,4,0c-.16-8.86,.33-17.69,.57-26.54,.19-6.99-.07-13.96-1.69-20.79-2.14-9.04-6.35-17.26-10.63-25.44-4.62-8.84-7.85-18.31-9.38-28.18-1.43-9.2-1.34-18.57-.98-27.85,.43-10.95,1.19-21.88,1.33-32.85,.31-23.92-1.31-47.81-3.11-71.64-1.82-24.09-3.81-48.19-4.22-72.36-.05-2.99-.08-5.97-.08-8.96,0-2.57-4-2.58-4,0h0Z"/><path class="cls-10" d="M119.04,1582.64c3.57,9.47,4.46,19.71,4.33,29.76-.14,10.96-1.5,21.87-3.33,32.66-.86,5.06-1.82,10.1-2.82,15.14-1.08,5.42-2.21,10.81-2.67,16.33-.97,11.64,.49,23.28,2.29,34.77,2.08,13.23,4.45,26.41,4.47,39.85,0,2.57,4,2.58,4,0-.02-12.2-1.92-24.25-3.87-36.26-1.83-11.32-3.58-22.72-3.14-34.23,.41-10.82,3.29-21.38,5.16-32.01,1.9-10.78,3.41-21.68,3.82-32.63,.43-11.54-.27-23.55-4.39-34.44-.38-1.01-1.35-1.7-2.46-1.4-.97,.27-1.78,1.44-1.4,2.46h0Z"/></g></g></svg>