<?xml version="1.0" encoding="UTF-8"?><svg id="Layer_2" xmlns="http://www.w3.org/2000/svg" xmlns:xlink="http://www.w3.org/1999/xlink" viewBox="0 0 3000.5 4300.5"><defs><style>.cls-1{fill:#262626;}.cls-2{fill:#a6973a;}.cls-3{stroke:#231f20;stroke-miterlimit:10;stroke-width:15px;}.cls-3,.cls-4{fill:none;}.cls-4{stroke:#000;stroke-linecap:round;stroke-linejoin:round;stroke-width:.5px;}.cls-5{fill:url(#linear-gradient);}</style><linearGradient id="linear-gradient" x1="1545.2" y1="4265.4" x2="1455.99" y2="67.49" gradientTransform="matrix(1, 0, 0, 1, 0, 0)" gradientUnits="userSpaceOnUse"><stop offset="0" stop-color="#212121"/><stop offset="1" stop-color="#362f31"/></linearGradient></defs><g id="Final_Page"><g id="Frames"><g><g><polygon class="cls-5" points="3000.25 .25 3000.25 4300.25 .25 4300.25 .25 .25 1293.39 .25 1293.39 80.64 81.91 80.64 81.91 1594.98 1293.39 1324.03 1293.39 1444.17 81.91 1714.72 81.91 2832.29 81.91 4219.85 2920.44 4219.85 2920.44 2832.29 2920.44 1080.81 1683.13 1357.13 1683.13 1236.87 2920.44 960.14 2920.44 80.64 1683.13 80.64 1683.13 .25 3000.25 .25"/><path class="cls-2" d="M1683.13,925.85c23.34,0,42.26,18.92,42.26,42.26,0,11.67-4.73,22.24-12.38,29.88-7.64,7.65-18.21,12.38-29.88,12.38h-397.95c-23.34,0-42.27-18.92-42.27-42.26,0-11.67,4.73-22.24,12.38-29.88,7.65-7.65,18.22-12.38,29.89-12.38h397.95Z"/><polygon class="cls-1" points="1683.13 1236.87 1683.13 1357.13 1293.39 1444.17 1293.39 1324.03 1293.39 1010.37 1683.13 1010.37 1683.13 1236.87"/><polygon class="cls-1" points="1683.13 80.64 1683.13 925.85 1293.39 925.85 1293.39 80.64 1293.39 .25 1683.13 .25 1683.13 80.64"/></g><g><polyline class="cls-3" points="1293.39 1010.37 1293.39 1324.03 81.91 1594.98 81.91 80.64 1293.39 80.64 1293.39 925.85"/><polyline class="cls-3" points="1683.13 925.85 1683.13 80.64 2920.44 80.64 2920.44 960.14 1683.13 1236.87 1683.13 1010.37"/><path class="cls-3" d="M1293.39,1010.37h-8.21c-23.34,0-42.27-18.92-42.27-42.26,0-11.67,4.73-22.24,12.38-29.88,7.65-7.65,18.22-12.38,29.89-12.38h397.95c23.34,0,42.26,18.92,42.26,42.26,0,11.67-4.73,22.24-12.38,29.88-7.64,7.65-18.21,12.38-29.88,12.38h-389.74Z"/><polygon class="cls-3" points="81.91 2832.29 81.91 1714.72 1293.39 1444.17 1683.13 1357.13 2920.44 1080.81 2920.44 2832.29 2920.44 4219.85 81.91 4219.85 81.91 2832.29"/><polyline class="cls-3" points="81.91 2832.29 1866.26 2832.29 2920.44 2832.29"/><polyline class="cls-3" points="1206.85 4214.25 1866.26 2832.29 1868.94 2826.68"/><line class="cls-3" x1="1293.39" y1="1324.03" x2="1293.39" y2="1444.17"/><line class="cls-3" x1="1683.13" y1="1236.87" x2="1683.13" y2="1357.13"/><line class="cls-3" x1="1293.39" y1="80.64" x2="1293.39" y2=".25"/><line class="cls-3" x1="1683.13" y1="80.64" x2="1683.13" y2=".25"/><polygon class="cls-4" points="1293.39 .25 .25 .25 .25 4300.25 3000.25 4300.25 3000.25 .25 1683.13 .25 1293.39 .25"/></g></g></g></g></svg>