<svg xmlns="http://www.w3.org/2000/svg" viewBox="0 0 1376.1 1560.12"><defs><style>.cls-1{fill:#1c1a19;}.cls-1,.cls-10,.cls-11,.cls-12,.cls-13,.cls-14,.cls-2,.cls-3,.cls-6,.cls-7,.cls-8,.cls-9{stroke:#000;stroke-miterlimit:10;stroke-width:2px;}.cls-2{fill:#1c1611;}.cls-3{fill:#232323;}.cls-4,.cls-9{fill:#282828;}.cls-10,.cls-5{fill:#131313;}.cls-6{fill:none;}.cls-7{fill:#231c17;}.cls-8{fill:#1e1e1e;}.cls-11{fill:#0a1011;}.cls-12{fill:#1b2223;}.cls-13{fill:#151f21;}.cls-14{fill:#3c4647;}.cls-15{fill:#ebecec;}</style></defs><g id="Layer_2" data-name="Layer 2"><g id="Layer_1-2" data-name="Layer 1"><polygon class="cls-1" points="500.65 175.55 500.65 302.21 513.17 299.87 513.17 172.43 500.65 175.55"/><polygon class="cls-1" points="658.65 148.55 658.65 275.21 671.17 272.87 671.17 145.43 658.65 148.55"/><polygon class="cls-1" points="816.65 121.55 816.65 248.21 829.17 245.87 829.17 118.43 816.65 121.55"/><polygon class="cls-1" points="974.65 94.55 974.65 221.21 987.17 218.87 987.17 91.43 974.65 94.55"/><polygon class="cls-1" points="1132.65 67.55 1132.65 194.21 1145.17 191.87 1145.17 64.43 1132.65 67.55"/><polygon class="cls-1" points="1290.65 40.55 1290.65 167.21 1303.17 164.87 1303.17 37.43 1290.65 40.55"/><polygon class="cls-1" points="342.65 202.55 342.65 329.21 355.17 326.87 355.17 199.43 342.65 202.55"/><polygon class="cls-1" points="184.65 229.55 184.65 356.21 197.17 353.87 197.17 226.43 184.65 229.55"/><polygon class="cls-1" points="26.65 256.55 26.65 383.21 39.17 380.87 39.17 253.43 26.65 256.55"/><polygon class="cls-2" points="39.17 248.21 39.17 382.93 75.69 376.65 75.69 242.4 39.17 248.21"/><polygon class="cls-2" points="197.17 221.21 197.17 355.93 233.69 349.65 233.69 215.4 197.17 221.21"/><polygon class="cls-2" points="355.17 194.21 355.17 328.93 391.69 322.65 391.69 188.4 355.17 194.21"/><polygon class="cls-2" points="513.17 167.21 513.17 301.93 549.69 295.65 549.69 161.4 513.17 167.21"/><polygon class="cls-2" points="671.17 140.21 671.17 274.93 707.69 268.65 707.69 134.4 671.17 140.21"/><polygon class="cls-2" points="829.17 113.21 829.17 247.93 865.69 241.65 865.69 107.4 829.17 113.21"/><polygon class="cls-2" points="987.17 86.21 987.17 220.93 1023.69 214.65 1023.69 80.4 987.17 86.21"/><polygon class="cls-2" points="1145.17 59.21 1145.17 193.93 1181.69 187.65 1181.69 53.4 1145.17 59.21"/><polygon class="cls-2" points="1303.17 32.21 1303.17 166.93 1339.69 160.65 1339.69 26.4 1303.17 32.21"/><path class="cls-3" d="M857.88,1144.52s108-22,129-50,11,2,79-45.5,36-45.5,93-62.5,51.3-23,93.65-39,26.17-1.78,69.26-9.39,49.09-7.65,49.09-7.65v248.87l-458,113.17S694.44,1225.45,625.66,1246s-16.83,8.53-92.8,46.53-112.29,48-166.63,58-305.35-47.91-305.35-47.91l-55-95.09-1-174,1-110.09s40.05-22.69,79.53,14.7,43.77,24.39,99.13,39.39S240.7,988.39,268.79,997s35.09,15.57,52.09,25.57,18.26,2,37.13,26.5,20.87,37.5,47.87,39.5,2-5,64,0,77.52,9.34,98.26,15.67-11.26,10.33,33.74,10.33,50,0,71-3,30.21-7.66,59.61-7.33,75.39,8.33,75.39,8.33Z"/><polygon class="cls-4" points="1373.67 386.43 1373.67 386.52 8.17 628.43 8.17 628.34 1373.67 386.43"/><path class="cls-5" d="M1189.71,571.15c55.72,5.14,97.89,52.71,96.87,108.66l-8.91,488.62,0,.17-155-35,6-562.18-.08-1.22A402.57,402.57,0,0,1,1189.71,571.15Z"/><path class="cls-5" d="M527.53,658.54A107.14,107.14,0,0,1,613.84,764.8l-5.17,496.63-168,27,5.7-637.86A419.94,419.94,0,0,1,527.53,658.54Z"/><polygon class="cls-6" points="1373.67 386.52 1374.17 386.43 1374.17 146.93 6.17 369.93 8.17 628.34 8.17 628.43 1373.67 386.52"/><path class="cls-6" d="M8.17,628.34l-.5.09-1,727,83-15V849.31a107.18,107.18,0,0,1,43.05-85.88c59-44,173.66-113,313.65-112.86a419.94,419.94,0,0,1,81.16,8A107.14,107.14,0,0,1,613.84,764.8l-5.17,496.63,267-47L873.8,715.08c-.16-42.68,38-81.38,77.08-98.55,45.22-19.88,106.27-42,177.71-46.32a402.57,402.57,0,0,1,61.12.94c55.72,5.14,97.89,52.71,96.87,108.66l-8.91,488.62,95-16,1-765.91"/><polyline class="cls-6" points="608.67 1261.43 440.67 1288.43 446.37 650.57 446.37 650.25"/><polyline class="cls-6" points="1277.67 1168.61 1277.63 1168.6 1122.67 1133.61 1128.67 571.43"/><polygon class="cls-7" points="6.67 221.65 1372.67 5.13 1372.67 41.65 6.67 259.21 6.67 221.65"/><polygon class="cls-7" points="6.67 221.65 5.43 216.04 1370.93 1.11 1372.67 5.13 6.67 221.65"/><polygon class="cls-1" points="502.65 438.55 502.65 565.21 515.17 562.87 515.17 435.43 502.65 438.55"/><polygon class="cls-1" points="660.65 411.55 660.65 538.21 673.17 535.87 673.17 408.43 660.65 411.55"/><polygon class="cls-1" points="818.65 384.55 818.65 511.21 831.17 508.87 831.17 381.43 818.65 384.55"/><polygon class="cls-1" points="976.65 357.55 976.65 484.21 989.17 481.87 989.17 354.43 976.65 357.55"/><polygon class="cls-1" points="1134.65 330.55 1134.65 457.21 1147.17 454.87 1147.17 327.43 1134.65 330.55"/><polygon class="cls-1" points="1292.65 303.55 1292.65 430.21 1305.17 427.87 1305.17 300.43 1292.65 303.55"/><polygon class="cls-1" points="344.65 465.55 344.65 592.21 357.17 589.87 357.17 462.43 344.65 465.55"/><polygon class="cls-1" points="186.65 492.55 186.65 619.21 199.17 616.87 199.17 489.43 186.65 492.55"/><polygon class="cls-1" points="28.65 519.55 28.65 646.21 41.17 643.87 41.17 516.43 28.65 519.55"/><polygon class="cls-2" points="41.17 511.21 41.17 645.93 77.69 639.65 77.69 505.4 41.17 511.21"/><polygon class="cls-2" points="199.17 484.21 199.17 618.93 235.69 612.65 235.69 478.4 199.17 484.21"/><polygon class="cls-2" points="357.17 457.21 357.17 591.93 393.69 585.65 393.69 451.4 357.17 457.21"/><polygon class="cls-2" points="515.17 430.21 515.17 564.93 551.69 558.65 551.69 424.4 515.17 430.21"/><polygon class="cls-2" points="673.17 403.21 673.17 537.93 709.69 531.65 709.69 397.4 673.17 403.21"/><polygon class="cls-2" points="831.17 376.21 831.17 510.93 867.69 504.65 867.69 370.4 831.17 376.21"/><polygon class="cls-2" points="989.17 349.21 989.17 483.93 1025.69 477.65 1025.69 343.4 989.17 349.21"/><polygon class="cls-2" points="1147.17 322.21 1147.17 456.93 1183.69 450.65 1183.69 316.4 1147.17 322.21"/><polygon class="cls-2" points="1305.17 295.21 1305.17 429.93 1341.69 423.65 1341.69 289.4 1305.17 295.21"/><polygon class="cls-7" points="8.67 484.65 1374.67 268.13 1374.67 304.65 8.67 522.21 8.67 484.65"/><path class="cls-8" d="M446.37,692.57c-140-.14-254.69,68.82-313.65,112.86a107.18,107.18,0,0,0-43,85.88v448.12l-83,15,2-727,1365-241.91-1,765.91-95,16,8.91-465.62c1-55.95-41.15-103.52-96.87-108.66a402.57,402.57,0,0,0-61.12-.94c-71.44,4.28-132.49,26.44-177.71,46.32-39.07,17.17-77.24,55.87-77.08,98.55l1.87,476.35-267,47,5.17-453.63a107.14,107.14,0,0,0-86.31-106.26A419.94,419.94,0,0,0,446.37,692.57Z"/><polygon class="cls-7" points="8.67 484.65 7.43 479.04 1372.93 264.11 1374.67 268.13 8.67 484.65"/><path class="cls-9" d="M152.38,1263s79-56.39,138.5-33.2,88.58,83.2,206.54,40.7c14.74-5.31,28.09-10.87,40.3-16.5,9.45-4.35,18.22-8.74,26.45-13.1,9.2-4.88,17.73-9.71,25.75-14.38,14.62-8.52,27.58-16.51,40-23.3,7.43-4.08,16.56-12.74,23.8-15.81s12.61-.54,20.14-2.3c15.06-3.53,31.17-4.15,50.19-.7,80.38,14.59,149.49,19.42,257.94-10,14.81-4,32.8-9,45.73-13,15.79-4.85,26.1-8.64,39.57-13.19,56.23-19,94.59-34.13,134.64-35.81,57.5-2.41,133.5,96.59,133.5,96.59l-24.5,122.54L1102.61,1469.3S875.38,1486,850.38,1488s-507.48,26.67-507.48,26.67l-205-81.39Z"/><path class="cls-8" d="M22.38,1188s77.76,4.28,139.63,16.89,49.87,75.26,114.87,106.44,50,75.17,126,61.17c8.71-1.6,29.8-14.77,37.79-19.09,12.15-6.56,10.83-5.81,22.21-16.41,46.49-43.3,80.54-11.56,159.5-8,65.25,2.94,107.82-92.31,135.37-83,12.18,4.1,17,7.93,29.92,15.45,7.55,4.4,22.08,11.15,31.21,17.09,60,39,150,13,183,47s56.24-142.35,148.12-158.17c16.57-2.86,35-12.17,50.67-15.92s28.61-1.94,42.63-5.49c49.68-12.6,86.55-20.52,93.58.58,11,33-135,283.78-135,283.78l-316,33.22L502.79,1495l-207.91-28.5-180-76.91Z"/><path class="cls-10" d="M4.88,1025.52s-3.5,32.41,28.5,131.5c14.93,46.24,36.61,70.38,61.55,85.06,7,4.11,12.43,8.56,19.74,13.35s16.48,9.92,23.93,16.78c15.53,14.28,31.13,34.53,45.93,67,54.35,119.3,175.35,85.3,265.35,95.3,62.36,6.93,48.86,26.28,79.61,24.39,4.16-.26,15.09-4.36,21.18-5.48s7.33.75,15.93-1.4c10.94-2.74,24.17-6.37,40.28-11.08,135-39.43,78.94-64.08,224-78.26,57.13-5.58,85.16-12.16,103.89-17.4,13.27-3.71,28-7.33,38.93-8.86,6.89-1,8.61-.73,19.11-.29,9.08.38,20.16,1.36,34.36,3.08,93.74,11.3,104.17,3.08,141.95-31.31s30.4-61.69,99.09-125.54S1360.53,1079,1360.53,1079s10.35-78.46,10.35-128v606.28L5,1559.12Z"/><polygon class="cls-9" points="1374.17 146.93 1374.17 386.43 1373.67 386.52 1373.67 386.43 8.67 628.43 6.17 369.93 1374.17 146.93"/><line class="cls-6" x1="1" y1="390.41" x2="1" y2="386.41"/><path class="cls-11" d="M495.92,564.75l7.08,2.74V673.2a.12.12,0,0,1-.18.11L495,669.16V565.38A.68.68,0,0,1,495.92,564.75Z"/><path class="cls-12" d="M503.86,673.26,925,601.41v-106L503,567.49v105A.74.74,0,0,0,503.86,673.26Z"/><path class="cls-13" d="M495.49,564.31l420.16-73,8.47,3.35a.56.56,0,0,1-.11,1.08L503,568.49l-7.54-3.91A.14.14,0,0,1,495.49,564.31Z"/><path class="cls-14" d="M520.69,579.45,916.9,511a.79.79,0,0,1,.93.79l.12,84.53-397,66.95a.51.51,0,0,1-.59-.5Z"/><path class="cls-11" d="M520.69,579.45l-10.15-4.05a.41.41,0,0,0-.55.37l.63,83.56L519.4,663a.68.68,0,0,0,.92-.64Z"/><path class="cls-13" d="M510.64,575.08l395.89-69L917,510.45a.3.3,0,0,1-.08.56L520.69,579.45l-10.09-4A.18.18,0,0,1,510.64,575.08Z"/><path class="cls-15" d="M544.44,607.09c-2.18.35-3.86,3.84-3.85,5.95a5.19,5.19,0,0,0,.86,2.84c2.75,4.13,9.24,2.12,13.62,4.16a6.56,6.56,0,0,1,4.08,5.89c.09,6-7.47,11.83-15.15,13.05-3.67.59-7.56-.07-9.76-2.57a2.87,2.87,0,0,1-.83.25c-.29,0-.41,0-.41-.1,0-1.57-.06-2.34-.08-3.87,0-1.06,4.59-2.48,4.59-2.48.24,0,.42,0,.42.09.08,4.94,5.49,6.81,10.38,6,3.72-.59,5.92-5.1,5.87-8a6.43,6.43,0,0,0-4-5.81c-2.49-1.12-5.69-1.12-8.47-1.38-3.61-.33-6.13-2.6-6.15-5.77,0-5,6.37-9.66,13-10.74a8.5,8.5,0,0,1,5.92,1,9.25,9.25,0,0,1,1.29-.36c.23,0,.35-.06.35,0,0,.74,0,1.11,0,1.84,0,.56-3.28,2.21-4.63,2.43-.18,0-.35,0-.35-.05A7.11,7.11,0,0,0,544.44,607.09Z"/><path class="cls-15" d="M561.84,614.53c-.62.13-.76.12-.76,0,0-.65,3.39-2.22,4.92-2.47,2.4-.39,3.94,2,4,5.57,0,4.36.07,6.55.17,11.18,0,1.4.33,3.91,2.38,3.57.41-.06.81-.24,1.11-.29s.46,0,.47.09c0,.95-4.46,2.65-5.63,2.84-2.93.48-3.24-2-3.28-3.77-.11-4.68-.14-6.89-.19-11.27C565,617,563.47,614.2,561.84,614.53Zm2-10.71c0-.66,3.19-3.46,3.95-3.59l.12,0,2.84,2,.06.09c0,.66-3.13,3.42-3.89,3.55-.12,0-.18,0-.18,0l-2.84-2Z"/><path class="cls-15" d="M601.33,627.55c.29,0,.41,0,.41.09,0,1-4.36,2.66-5.58,2.86-2.16.35-2.9-.9-3.11-2.42a19.23,19.23,0,0,1-8.49,4.33,7.05,7.05,0,0,1-7-2.61c-1.32-1.82-1.56-4.21-1.59-6.57a26.81,26.81,0,0,1,.23-3.89c.7-5.16,6.81-10.05,13.1-11.1a8.25,8.25,0,0,1,3.32.06c-.09-9.81-.08-14.43-.42-25.61,0-.51,3-1.77,3.44-2a17.2,17.2,0,0,1,3-.9c.35-.06.53-.09.53,0-.85,7.77-1.68,15-1.61,21.68.09,9,.08,13.14.29,22.74.07,3.08,1.26,3.76,2.42,3.57A7.33,7.33,0,0,0,601.33,627.55Zm-10.05-14.73a6.12,6.12,0,0,0-5.92-2.16l-.4.07c-3.08,2.22-4.1,6-4,10.12.08,5.3,2.48,9.72,7.44,8.9l.52-.14c2.75-2.19,4-6,3.89-9.89C592.73,617.32,592.7,614.64,591.28,612.82Z"/><path class="cls-15" d="M626.76,607.6c.06.24-1.2,1-2.47,1.64-6.28,3.09-9.43,4.65-15.73,7.8.38,1.87.17,3.89,1.57,5.72a6.14,6.14,0,0,0,6,2.43,8.66,8.66,0,0,0,5-2.74,12.4,12.4,0,0,1,4.19-2.14c.29,0,.4,0,.41.1s-.06.17-.23.31A27.42,27.42,0,0,1,612,627.86a6.7,6.7,0,0,1-6.76-2.58c-1.32-1.83-1.61-4.31-1.65-6.57-.08-4.88,1.28-8.82,5.78-11.84a20.71,20.71,0,0,1,7.51-3.22,7.63,7.63,0,0,1,5.63,1c1.1.79,1.88,3.17,3.85,2.84C626.65,607.46,626.76,607.5,626.76,607.6Zm-8.33.23a6.12,6.12,0,0,0-5.59-1.74l-.34.06c-2.94,2.2-4,5.7-4,9.85,4.94-2.45,7.4-3.67,12.33-6.09C619.55,609.52,619.19,608.67,618.43,607.83Z"/><path class="cls-15" d="M686.63,585.36c0,.48,0,.72,0,1.21,0,.3-1.08,1-2.4,1.66-.28.1-2.11,1-2.46.72a16.16,16.16,0,0,0-12.38-2.66c-8.09,1.37-13,9.75-12.93,16,.1,8.29,8,14.74,17.47,13.12,3.61-.62,5.87-2.26,8.28-5.13a9.73,9.73,0,0,1,3-1.87c1-.44,1.72-.62,1.72-.35,0,.49,0,.74,0,1.24s-2.43,2-3.51,2.3a31,31,0,0,1-3.79,2.6,29.44,29.44,0,0,1-9.75,3.89c-9.76,1.66-18.49-5-18.32-13.45.22-11.08,11.51-19,21.85-20.81a17.86,17.86,0,0,1,11.8,1.78C686.05,585.3,686.63,585.2,686.63,585.36Z"/><path class="cls-15" d="M700.8,615.58c-.28,0-.4,0-.4-.11s.49-.73,1.45-1.3c3-1.87,4.68-9.2,4.59-14.24a24.55,24.55,0,0,0-.34-3.75,5.86,5.86,0,0,0-7-4.71c-.45.08-.23-.16-1.42,1.1a9.66,9.66,0,0,0-2.57,5.24c.08,5.37.12,8.09.29,14,0,.39-2.87,2.37-4.42,2.64-.22,0-.4,0-.4-.11-.45-16-.38-32.06-.9-48.08,0-.52,2.93-1.79,3.39-2a17.61,17.61,0,0,1,2.9-.9c.34-.06.52-.09.52,0-.78,7.4-1.52,14.18-1.55,20.46.05,3.52.06,5.24.1,8.73a19,19,0,0,1,8.05-3.58c5.95-1,8.11,2.76,8.2,8.35.09,5.4-.93,12.73-7.58,16.87A10.91,10.91,0,0,1,700.8,615.58Z"/><path class="cls-15" d="M744.11,603.46c0,.17-.27.45-.84.83a11.44,11.44,0,0,1-4.6,2,6.88,6.88,0,0,1-7.15-2.62c-3.27,2.62-7.33,5.11-11.11,5.75-2.69.47-4.46-.74-4.52-2.95-.08-3.15,3.52-10,7.19-14.1.11-.12.28-.25.68-.68a6.69,6.69,0,0,0-7.27-3.18c-1.14.2-1.26.22-1.26.12,0-1,4.61-2.44,5.53-2.6,4.18-.71,6.43,1.14,8.07,3.58,2.56,3.9,3.84,5.85,6.44,10,1.91,3.06,4.26,4.5,7.35,4C742.73,603.59,744.1,603.18,744.11,603.46Zm-13.67-1.32c-2.13-3.45-3.18-5.09-5.27-8.31a8.59,8.59,0,0,0-.73,1.15c-2,3.06-3.78,6.66-3.73,9,0,1.91,1.41,3.15,3.93,2.71,1.6-.27,3.63-1.93,5.92-4.35A.3.3,0,0,1,730.44,602.14Z"/><path class="cls-15" d="M745.26,605.15c-.29.05-.46,0-.47-.09-.21-6.59-.26-9.55-.35-15.4,0-2.48-1.17-5.73-3.06-5.41a2.72,2.72,0,0,0-.34.11c-.29,0-.46,0-.46-.07,0-.7,3.59-2.26,4.85-2.48,1.54-.26,2.82.71,3.42,2.66,2-1.69,6.25-4.26,9.64-4.84.23,0,.34,0,.4,0,.36,1.53,2.84,2.35,5.66,1.88l.45-.08c.35-.06.52,0,.52.06,0,.75-4.16,2.36-4.91,2.49-3.32.57-5.92-.2-6.51-1.84l-.17.08c-3.71,1.93-4.57,6.58-4.51,9.93.08,4,.12,6,.25,10.32C749.68,603,746.69,604.9,745.26,605.15Z"/><path class="cls-15" d="M792.79,595.15c0,.17-.28.44-.85.82a11.27,11.27,0,0,1-4.62,2,6.94,6.94,0,0,1-7.19-2.62c-3.27,2.61-7.35,5.1-11.14,5.75-2.7.46-4.47-.75-4.53-3-.08-3.15,3.52-10,7.19-14.08.12-.12.29-.25.68-.67a6.72,6.72,0,0,0-7.29-3.17c-1.14.2-1.26.22-1.26.12,0-1,4.62-2.43,5.54-2.59,4.19-.71,6.46,1.14,8.11,3.56,2.56,3.88,3.85,5.83,6.47,10,1.92,3.06,4.28,4.51,7.39,4C791.4,595.27,792.78,594.87,792.79,595.15Zm-13.74-1.33c-2.14-3.46-3.2-5.09-5.3-8.3a8,8,0,0,0-.73,1.15c-2,3.05-3.78,6.64-3.72,9,0,1.9,1.41,3.14,3.94,2.71,1.6-.27,3.63-1.93,5.93-4.34A.43.43,0,0,1,779.05,593.82Z"/><path class="cls-15" d="M805.43,575.56c-.17,0-.34.06-.4,0a6.4,6.4,0,0,0-5-1.24l-.34.05c-3,2.31-4,5.93-3.94,10.27a10.58,10.58,0,0,0,1.59,6.16,6,6,0,0,0,5.86,2.51,9.26,9.26,0,0,0,5.14-2.77,11.64,11.64,0,0,1,4.17-2.19c.29,0,.47,0,.47.08,0,.71-3.86,3.2-5.11,4a24.77,24.77,0,0,1-8.58,3.56,6.7,6.7,0,0,1-8-5.49,20,20,0,0,1-.37-3.76c-.13-6.1,2-10.1,9.18-13.55a14.93,14.93,0,0,1,4-1.27,7.21,7.21,0,0,1,5.86,1.2v0c0,.2-.62.8-2,1.48A12.51,12.51,0,0,1,805.43,575.56Z"/><path class="cls-15" d="M825.14,568.32c.29-.05.4,0,.4.08v.49L836.63,567c.29,0,.4,0,.4.09,0,.44-3.45,2.16-4.56,2.35l-7,1.16c-.13,3.15-.7,7.22-.63,10.56.1,4.7,1.38,8.19,6.42,7.35.35-.06.72-.15,1.05-.23s.63-.05.64.06-.28.45-.85.83a11.1,11.1,0,0,1-4.77,2c-5.8,1-7.32-2.63-7.43-7.55-.09-3.91.7-8.58.71-12.21l-11.1,1.87c-.28,0-.4,0-.4-.08,0-.55,3.38-2.16,4.54-2.36l8.78-1.47A10.22,10.22,0,0,1,825.14,568.32Z"/><path class="cls-15" d="M860.52,568c.06.24-1.21,1-2.49,1.61-6.34,3.07-9.5,4.61-15.81,7.74.39,1.86.18,3.86,1.6,5.7a6.23,6.23,0,0,0,6,2.45,8.68,8.68,0,0,0,5.07-2.74,12.26,12.26,0,0,1,4.22-2.13c.29-.05.41,0,.42.09s-.06.18-.23.31c-3.32,3.14-8.37,6.3-13.61,7.16a6.8,6.8,0,0,1-6.81-2.62c-1.32-1.83-1.63-4.32-1.68-6.56-.1-4.85,1.24-8.72,5.74-11.7a20.76,20.76,0,0,1,7.54-3.19,7.86,7.86,0,0,1,5.68,1c1.12.78,1.92,3.12,3.91,2.79C860.4,567.84,860.52,567.87,860.52,568Zm-8.42.24a6.23,6.23,0,0,0-5.63-1.71l-.35.06c-3,2.18-4,5.61-3.92,9.72,4.94-2.43,7.42-3.63,12.39-6C853.24,569.87,852.87,569,852.1,568.21Z"/><path class="cls-15" d="M865.63,584.89c-.29.05-.47,0-.48-.09-.22-6.65-.28-9.6-.38-15.42,0-2.47-1.21-5.7-3.14-5.39a2.5,2.5,0,0,0-.35.11c-.3,0-.47,0-.47-.07,0-.69,3.65-2.24,4.94-2.45,1.58-.26,2.89.71,3.51,2.65,2-1.67,6.4-4.22,9.86-4.79.24,0,.35-.06.41,0,.38,1.53,2.93,2.36,5.82,1.89l.47-.08c.35-.06.53,0,.53.06,0,.75-4.27,2.35-5,2.47-3.41.55-6.07-.21-6.68-1.85l-.18.08c-3.79,1.91-4.65,6.53-4.58,9.88.08,4,.13,6,.27,10.34C870.15,582.77,867.09,584.65,865.63,584.89Z"/><path class="cls-15" d="M901.25,563.61c-.23,0-.41,0-.41-.09s0-.33,0-.55c-.47-3.37-3.7-4.76-7.36-4.17-1.77.28-2.51,2.29-2.47,4.14.09,5.31,15,1.06,15.1,6.91v.06c.11,4.47-5.63,9.37-12.89,10.53-4.14.66-7.23-1.6-7.68-5,0-.26,0-.38-.08-.64,0-.43,3.32-2.25,4.67-2.47.24,0,.36-.06.36.05s0,.38,0,.64a5.8,5.8,0,0,0,6.84,4.76c1.77-.28,3.78-2.46,3.7-5.48-.15-5.78-15-1.42-15.09-7-.08-4.79,5.84-7.49,11.39-8.84l.89-.14c4.32-.7,7.62,1.39,7.68,4.9C905.91,561.65,902.79,563.36,901.25,563.61Z"/></g></g></svg>