<svg xmlns="http://www.w3.org/2000/svg" viewBox="0 0 1372.34 1560.12"><defs><style>.cls-1{fill:#1c1a19;}.cls-1,.cls-10,.cls-2,.cls-3,.cls-6,.cls-7,.cls-8,.cls-9{stroke:#000;stroke-miterlimit:10;stroke-width:2px;}.cls-2{fill:#1c1611;}.cls-3{fill:#232323;}.cls-4,.cls-9{fill:#282828;}.cls-10,.cls-5{fill:#131313;}.cls-6{fill:none;}.cls-7{fill:#231c17;}.cls-8{fill:#1e1e1e;}</style></defs><g id="Layer_2" data-name="Layer 2"><g id="Layer_13" data-name="Layer 13"><polygon class="cls-1" points="496.88 175.55 496.88 302.21 509.41 299.87 509.41 172.43 496.88 175.55"/><polygon class="cls-1" points="654.88 148.55 654.88 275.21 667.41 272.87 667.41 145.43 654.88 148.55"/><polygon class="cls-1" points="812.88 121.55 812.88 248.21 825.41 245.87 825.41 118.43 812.88 121.55"/><polygon class="cls-1" points="970.88 94.55 970.88 221.21 983.41 218.87 983.41 91.43 970.88 94.55"/><polygon class="cls-1" points="1128.88 67.55 1128.88 194.21 1141.41 191.87 1141.41 64.43 1128.88 67.55"/><polygon class="cls-1" points="1286.88 40.55 1286.88 167.21 1299.41 164.87 1299.41 37.43 1286.88 40.55"/><polygon class="cls-1" points="338.88 202.55 338.88 329.21 351.41 326.87 351.41 199.43 338.88 202.55"/><polygon class="cls-1" points="180.88 229.55 180.88 356.21 193.41 353.87 193.41 226.43 180.88 229.55"/><polygon class="cls-1" points="22.88 256.55 22.88 383.21 35.41 380.87 35.41 253.43 22.88 256.55"/><polygon class="cls-2" points="35.41 248.21 35.41 382.93 71.93 376.65 71.93 242.4 35.41 248.21"/><polygon class="cls-2" points="193.41 221.21 193.41 355.93 229.93 349.65 229.93 215.4 193.41 221.21"/><polygon class="cls-2" points="351.41 194.21 351.41 328.93 387.93 322.65 387.93 188.4 351.41 194.21"/><polygon class="cls-2" points="509.41 167.21 509.41 301.93 545.93 295.65 545.93 161.4 509.41 167.21"/><polygon class="cls-2" points="667.41 140.21 667.41 274.93 703.93 268.65 703.93 134.4 667.41 140.21"/><polygon class="cls-2" points="825.41 113.21 825.41 247.93 861.93 241.65 861.93 107.4 825.41 113.21"/><polygon class="cls-2" points="983.41 86.21 983.41 220.93 1019.93 214.65 1019.93 80.4 983.41 86.21"/><polygon class="cls-2" points="1141.41 59.21 1141.41 193.93 1177.93 187.65 1177.93 53.4 1141.41 59.21"/><polygon class="cls-2" points="1299.41 32.21 1299.41 166.93 1335.93 160.65 1335.93 26.4 1299.41 32.21"/><path class="cls-3" d="M854.11,1144.52s108-22,129-50,11,2,79-45.5,36-45.5,93-62.5,51.31-23,93.65-39,26.18-1.78,69.27-9.39,49.08-7.65,49.08-7.65v248.87l-458,113.17S690.68,1225.45,621.9,1246s-16.83,8.53-92.81,46.53-112.28,48-166.63,58-305.35-47.91-305.35-47.91l-55-95.09-1-174,1-110.09s40.06-22.69,79.53,14.7,43.78,24.39,99.13,39.39S236.94,988.39,265,997s35.08,15.57,52.08,25.57,18.26,2,37.13,26.5,20.87,37.5,47.87,39.5,2-5,64,0,77.52,9.34,98.26,15.67-11.26,10.33,33.74,10.33,50,0,71-3,30.22-7.66,59.61-7.33,75.39,8.33,75.39,8.33Z"/><polygon class="cls-4" points="1369.91 386.43 1369.91 386.52 4.41 628.43 4.41 628.34 1369.91 386.43"/><path class="cls-5" d="M1186,571.15c55.72,5.14,97.89,52.71,96.87,108.66l-8.91,488.62,0,.17-155-35,6-562.18-.08-1.22A402.57,402.57,0,0,1,1186,571.15Z"/><path class="cls-5" d="M523.77,658.54A107.14,107.14,0,0,1,610.08,764.8l-5.17,496.63-168,27,5.7-637.86A419.94,419.94,0,0,1,523.77,658.54Z"/><polygon class="cls-6" points="1369.91 386.52 1370.41 386.43 1370.41 146.93 2.41 369.93 4.41 628.34 4.41 628.43 1369.91 386.52"/><path class="cls-6" d="M4.41,628.34l-.5.09-1,727,83-15V849.31A107.18,107.18,0,0,1,129,763.43c59-44,173.66-113,313.65-112.86a419.94,419.94,0,0,1,81.16,8A107.14,107.14,0,0,1,610.08,764.8l-5.17,496.63,267-47L870,715.08c-.16-42.68,38-81.38,77.08-98.55,45.22-19.88,106.27-42,177.71-46.32a402.57,402.57,0,0,1,61.12.94c55.72,5.14,97.89,52.71,96.87,108.66l-8.91,488.62,95-16,1-765.91"/><polyline class="cls-6" points="604.91 1261.43 436.91 1288.43 442.61 650.57 442.61 650.25"/><polyline class="cls-6" points="1273.91 1168.61 1273.87 1168.6 1118.91 1133.61 1124.91 571.43"/><polygon class="cls-7" points="2.91 221.65 1368.91 5.13 1368.91 41.65 2.91 259.21 2.91 221.65"/><polygon class="cls-7" points="2.91 221.65 1.67 216.04 1367.17 1.11 1368.91 5.13 2.91 221.65"/><polygon class="cls-1" points="498.88 438.55 498.88 565.21 511.41 562.87 511.41 435.43 498.88 438.55"/><polygon class="cls-1" points="656.88 411.55 656.88 538.21 669.41 535.87 669.41 408.43 656.88 411.55"/><polygon class="cls-1" points="814.88 384.55 814.88 511.21 827.41 508.87 827.41 381.43 814.88 384.55"/><polygon class="cls-1" points="972.88 357.55 972.88 484.21 985.41 481.87 985.41 354.43 972.88 357.55"/><polygon class="cls-1" points="1130.88 330.55 1130.88 457.21 1143.41 454.87 1143.41 327.43 1130.88 330.55"/><polygon class="cls-1" points="1288.88 303.55 1288.88 430.21 1301.41 427.87 1301.41 300.43 1288.88 303.55"/><polygon class="cls-1" points="340.88 465.55 340.88 592.21 353.41 589.87 353.41 462.43 340.88 465.55"/><polygon class="cls-1" points="182.88 492.55 182.88 619.21 195.41 616.87 195.41 489.43 182.88 492.55"/><polygon class="cls-1" points="24.88 519.55 24.88 646.21 37.41 643.87 37.41 516.43 24.88 519.55"/><polygon class="cls-2" points="37.41 511.21 37.41 645.93 73.93 639.65 73.93 505.4 37.41 511.21"/><polygon class="cls-2" points="195.41 484.21 195.41 618.93 231.93 612.65 231.93 478.4 195.41 484.21"/><polygon class="cls-2" points="353.41 457.21 353.41 591.93 389.93 585.65 389.93 451.4 353.41 457.21"/><polygon class="cls-2" points="511.41 430.21 511.41 564.93 547.93 558.65 547.93 424.4 511.41 430.21"/><polygon class="cls-2" points="669.41 403.21 669.41 537.93 705.93 531.65 705.93 397.4 669.41 403.21"/><polygon class="cls-2" points="827.41 376.21 827.41 510.93 863.93 504.65 863.93 370.4 827.41 376.21"/><polygon class="cls-2" points="985.41 349.21 985.41 483.93 1021.93 477.65 1021.93 343.4 985.41 349.21"/><polygon class="cls-2" points="1143.41 322.21 1143.41 456.93 1179.93 450.65 1179.93 316.4 1143.41 322.21"/><polygon class="cls-2" points="1301.41 295.21 1301.41 429.93 1337.93 423.65 1337.93 289.4 1301.41 295.21"/><polygon class="cls-7" points="4.91 484.65 1370.91 268.13 1370.91 304.65 4.91 522.21 4.91 484.65"/><path class="cls-8" d="M442.61,650.57c-140-.14-254.69,68.82-313.65,112.86a107.18,107.18,0,0,0-43.05,85.88v491.12l-83,15,2-727,1365-241.91-1,765.91-95,16,8.91-488.62c1-55.95-41.15-103.52-96.87-108.66a402.57,402.57,0,0,0-61.12-.94c-71.44,4.28-132.49,26.44-177.71,46.32C908.05,633.7,869.88,672.4,870,715.08l1.87,499.35-267,47,5.17-496.63a107.14,107.14,0,0,0-86.31-106.26A419.94,419.94,0,0,0,442.61,650.57Z"/><polygon class="cls-7" points="4.91 484.65 3.67 479.04 1369.17 264.11 1370.91 268.13 4.91 484.65"/><path class="cls-9" d="M148.61,1263s79-56.39,138.5-33.2,88.58,83.2,206.54,40.7c14.75-5.31,28.09-10.87,40.31-16.5,9.44-4.35,18.21-8.74,26.44-13.1,9.21-4.88,17.73-9.71,25.75-14.38,14.63-8.52,27.59-16.51,40-23.3,7.43-4.08,16.55-12.74,23.8-15.81s12.61-.54,20.14-2.3c15.06-3.53,31.16-4.15,50.18-.7,80.38,14.59,149.5,19.42,257.94-10,14.82-4,32.8-9,45.74-13,15.79-4.85,26.1-8.64,39.57-13.19,56.23-19,94.58-34.13,134.63-35.81,57.5-2.41,133.5,96.59,133.5,96.59l-24.5,122.54L1098.85,1469.3S871.61,1486,846.61,1488s-507.48,26.67-507.48,26.67l-205-81.39Z"/><path class="cls-8" d="M18.61,1188s77.76,4.28,139.63,16.89,49.87,75.26,114.87,106.44,50,75.17,126,61.17c8.71-1.6,29.8-14.77,37.8-19.09,12.14-6.56,10.83-5.81,22.21-16.41,46.49-43.3,80.54-11.56,159.49-8,65.25,2.94,107.83-92.31,135.37-83,12.18,4.1,17,7.93,29.93,15.45,7.54,4.4,22.07,11.15,31.2,17.09,60,39,150,13,183,47s56.24-142.35,148.12-158.17c16.58-2.86,35-12.17,50.68-15.92s28.61-1.94,42.62-5.49c49.69-12.6,86.55-20.52,93.58.58,11,33-135,283.78-135,283.78l-316,33.22L499,1495l-207.92-28.5-180-76.91Z"/><path class="cls-10" d="M1.11,1025.52s-3.5,32.41,28.5,131.5c14.94,46.24,36.62,70.38,61.56,85.06,7,4.11,12.43,8.56,19.74,13.35s16.48,9.92,23.93,16.78c15.52,14.28,31.13,34.53,45.92,67,54.35,119.3,175.35,85.3,265.35,95.3,62.37,6.93,48.87,26.28,79.61,24.39,4.17-.26,15.1-4.36,21.19-5.48s7.32.75,15.93-1.4c10.94-2.74,24.16-6.37,40.27-11.08,135-39.43,78.95-64.08,224-78.26,57.14-5.58,85.17-12.16,103.89-17.4,13.28-3.71,28-7.33,38.94-8.86,6.88-1,8.61-.73,19.11-.29,9.07.38,20.15,1.36,34.35,3.08,93.74,11.3,104.17,3.08,142-31.31s30.39-61.69,99.09-125.54S1356.76,1079,1356.76,1079s10.35-78.46,10.35-128v606.28L1.27,1559.12Z"/><polygon class="cls-9" points="1370.41 146.93 1370.41 386.43 1369.91 386.52 1369.91 386.43 4.91 628.43 2.41 369.93 1370.41 146.93"/></g></g></svg>