<svg xmlns="http://www.w3.org/2000/svg" viewBox="0 0 1401.83 568"><defs><style>.cls-1{fill:#b2d7f4;}.cls-2{fill:#e6e6e6;stroke:#000;stroke-miterlimit:10;}</style></defs><g id="Layer_2" data-name="Layer 2"><g id="Layer_11" data-name="Layer 11"><rect class="cls-1" x="35.83" width="1366" height="568"/><path class="cls-2" d="M662.67,68.93c-.54-.07,30.53-1,37.66-2.43,10-2-52.32-7.3-52.32-7.3-16.33-9.31-48.68-9.7-48.68-9.7-24-10-74.93-6-74.93-6-22.94-16-72-13.88-72-13.88s-27.06,12.9-22.34,42,25.78,20.66,25.78,20.66c24.5,8.77,54.44,0,54.44,0,32.93,3.77,46.56,0,46.56,0,38.5,10.77,60.5,3.24,60.5,3.24a16.49,16.49,0,0,0,2.5.6c29.5,2.4,40.5-4.6,40.5-4.6,32.75,4.68,62.62-1,65.6-3.54.2-.17-10.6-7.46-16.6-7.46Z"/><path class="cls-2" d="M233.67,148.93c-.54-.07,30.53-1,37.66-2.43,10-2-52.32-7.3-52.32-7.3-16.33-9.31-48.68-9.7-48.68-9.7-24-10-74.93-6-74.93-6-22.94-16-72-13.88-72-13.88s-27.06,12.9-22.34,42,25.78,20.66,25.78,20.66c24.5,8.77,54.44,0,54.44,0,32.93,3.77,46.56,0,46.56,0,38.5,10.77,60.5,3.24,60.5,3.24a16.49,16.49,0,0,0,2.5.6c29.5,2.4,40.5-4.6,40.5-4.6,32.75,4.68,62.62-1,65.6-3.54.2-.17-10.6-7.46-16.6-7.46Z"/><path class="cls-2" d="M871.33,120.5s23,56-82.5,50.5c0,0-32.45,13.5-79.47,0,0,0-36.56,8.46-68.29-7.52,0,0-59.6-11.48-59.67-14.73s59.67,0,59.67,0-27.74-5.25-27.74-10.25,42,1,42,1-7-14,32-14c0,0,22-11,53-8,0,0,26.15-10.09,58.58-2.54C798.91,115,840.33,99.5,871.33,120.5Z"/></g></g></svg>