<svg xmlns="http://www.w3.org/2000/svg" viewBox="0 0 1368.11 5410.61"><defs><style>.cls-1{fill:#222e2e;}.cls-1,.cls-10,.cls-11,.cls-2,.cls-3,.cls-4,.cls-5,.cls-9{stroke:#000;stroke-width:2px;}.cls-1,.cls-11,.cls-2,.cls-3,.cls-4,.cls-5,.cls-9{stroke-miterlimit:10;}.cls-2{fill:#263336;}.cls-3{fill:#232323;}.cls-4{fill:#282828;}.cls-5{fill:#1e1e1e;}.cls-6{fill:#0c1516;}.cls-7{fill:#172426;}.cls-8{fill:#131919;}.cls-10,.cls-9{fill:none;}.cls-10{stroke-linecap:round;stroke-linejoin:round;}.cls-11{fill:#131313;}</style></defs><g id="Layer_2" data-name="Layer 2"><g id="Layer_12" data-name="Layer 12"><polygon class="cls-1" points="1.27 1 240.73 1.75 854.11 3.67 854.11 5409.61 1.27 5409.61 1.27 1"/><polygon class="cls-2" points="854.27 1 998.27 1.75 1367.11 3.67 1367.11 5409.61 854.27 5409.61 854.27 1"/><path class="cls-3" d="M854.11,423.61s108,22,129,50,11-2,79,45.5,36,45.5,93,62.5,51.31,23,93.65,39,26.18,1.78,69.27,9.39,49.08,7.65,49.08,7.65V388.78l-458-113.17S690.68,342.67,621.9,322.14s-16.83-8.53-92.81-46.53-112.28-48-166.63-58S57.11,265.52,57.11,265.52l-55,95.09-1,174,1,110.08S42.16,667.39,81.63,630s43.78-24.39,99.13-39.39,56.18-10.87,84.27-19.44,35.08-15.56,52.08-25.56,18.26-2,37.13-26.5,20.87-37.5,47.87-39.5,2,5,64,0,77.52-9.34,98.26-15.67-11.26-10.33,33.74-10.33,50,0,71,3,30.22,7.66,59.61,7.33,75.39-8.33,75.39-8.33Z"/><path class="cls-4" d="M148.61,305.11s79,56.39,138.5,33.19,88.58-83.19,206.54-40.69c14.75,5.31,28.09,10.87,40.31,16.5,9.44,4.35,18.21,8.74,26.44,13.1,9.21,4.87,17.73,9.7,25.75,14.38,14.63,8.51,27.59,16.51,40,23.3,7.43,4.08,7.26,126.15,14.5,129.22S662.52,381.24,670.05,383c15.06,3.52,31.16,4.15,50.18.69,80.38-14.58,149.5-19.41,257.94,10,14.82,4,22.51,128.44,35.44,132.42,15.79,4.85,36.4-110.77,49.87-106.23,56.23,19,94.58,34.13,134.63,35.81,57.5,2.42,133.5-96.58,133.5-96.58l-24.5-122.55L1098.85,98.82S871.61,82.11,846.61,80.11,339.13,53.43,339.13,53.43l-205,81.39Z"/><path class="cls-5" d="M18.61,380.11s77.76-4.29,139.63-16.89S208.11,288,273.11,256.78s50-75.17,126-61.17c8.71,1.6,17.51,156.18,25.5,160.5,12.15,6.56,23.13-135.61,34.51-125,46.49,43.31,80.54,11.56,159.49,8,65.25-2.94,107.83,92.31,135.37,83,12.18-4.1,18.75,133.49,31.63,126,7.55-4.41,20.37-152.57,29.5-158.5,60-39,150-13,183-47S1054.35,385,1146.23,400.78c16.58,2.86,34.71,166.58,50.38,170.33s28.91-152.47,42.92-148.92c49.69,12.59,86.55,20.51,93.58-.58,11-33-135-283.79-135-283.79l-316-33.21L499,73.11l-207.92,28.5-180,76.91Z"/><path class="cls-6" d="M1023.61,169.11s61.3-7.8,95.4,6.35,36.1,28.15,36.1,28.15l72,261,140,149v111.3l-218-211.3-88-296-23,1.64Z"/><polygon class="cls-7" points="1038.07 219.25 1126.11 524.61 1037.54 219.29 1038.07 219.25"/><polygon class="cls-8" points="1126.11 524.61 1038.07 219.25 1061.11 217.61 1149.11 513.61 1126.11 524.61"/><polygon class="cls-8" points="1367.11 724.91 1367.11 760.91 1126.11 524.61 1149.11 513.61 1367.11 724.91"/><path class="cls-9" d="M1038.07,219.25l-14.46-50.14s61.3-7.8,95.4,6.35,36.1,28.15,36.1,28.15l72,261,140,149v111.3"/><polygon class="cls-9" points="1367.11 724.91 1149.11 513.61 1061.11 217.61 1038.07 219.25 1037.54 219.29 1126.11 524.61 1367.11 760.91 1367.11 724.91"/><line class="cls-9" x1="1126.11" y1="524.61" x2="1149.11" y2="513.61"/><polygon class="cls-6" points="331.68 127.29 243.11 432.61 220.11 421.61 308.11 125.61 331.68 127.29"/><polygon class="cls-6" points="243.11 432.61 2.11 668.91 2.11 632.91 220.11 421.61 243.11 432.61"/><path class="cls-8" d="M331.68,127.29l-23.57-1.68-88,296-218,211.3V521.61l140-149,62-212s2-14,36.1-28.15S331.68,127.29,331.68,127.29Z"/><path class="cls-9" d="M331.68,127.29s-57.37-9-91.47,5.17-36.1,28.15-36.1,28.15l-62,212-140,149v111.3"/><polygon class="cls-9" points="2.11 632.91 220.11 421.61 308.11 125.61 331.68 127.29 243.11 432.61 2.11 668.91 2.11 632.91"/><line class="cls-10" x1="243.11" y1="432.61" x2="220.11" y2="421.61"/><line class="cls-8" x1="220.11" y1="421.61" x2="243.11" y2="432.61"/><path class="cls-11" d="M1.11,534.61s-3.5-32.42,28.5-131.5C44.55,356.87,66.23,332.72,91.17,318c7-4.1,15.14,142.85,22.44,138.07s13.78-161.34,21.23-168.19c15.52-14.28,31.13-34.54,45.92-67,54.35-119.3,175.35-85.3,265.35-95.3,62.37-6.93,48.87-26.28,79.61-24.39,4.17.25,7.81,46.77,13.89,47.89s14.62-43.16,23.23-41c10.94,2.73,24.16,6.37,40.27,11.07,135,39.44,78.95,64.09,224,78.26C884.22,203,912.25,209.6,931,214.83c13.28,3.72,17.68,165.75,28.64,167.28,6.89.95,18.91-157.68,29.41-158.12,9.07-.39,20.15-1.37,34.35-3.08,93.74-11.3,104.17-3.09,142,31.31s30.39,61.69,99.09,125.54,92.34,103.35,92.34,103.35,10.35,78.45,10.35,128V2.8L1.27,1Z"/></g></g></svg>