<svg xmlns="http://www.w3.org/2000/svg" viewBox="0 0 1369.15 5770.32"><defs><style>.cls-1{fill:#1a1a1a;}.cls-1,.cls-11,.cls-12,.cls-13,.cls-14,.cls-2,.cls-3,.cls-4,.cls-5,.cls-6,.cls-7{stroke:#000;stroke-width:2px;}.cls-1,.cls-11,.cls-13,.cls-14,.cls-2,.cls-3,.cls-4,.cls-5,.cls-6,.cls-7{stroke-miterlimit:10;}.cls-2{fill:#333;}.cls-3{fill:#222e2e;}.cls-4{fill:#263336;}.cls-5{fill:#232323;}.cls-6{fill:#282828;}.cls-7{fill:#1e1e1e;}.cls-8{fill:#131919;}.cls-9{fill:#0c1516;}.cls-10{fill:#172426;}.cls-11,.cls-12{fill:none;}.cls-12{stroke-linecap:round;stroke-linejoin:round;}.cls-13{fill:#131313;}.cls-14{fill:#1d2729;}</style></defs><g id="Layer_2" data-name="Layer 2"><g id="Layer_12" data-name="Layer 12"><polygon class="cls-1" points="1292.89 36.13 1307.13 26.88 1339.57 22.11 1345.13 7.92 1368.13 6.03 1368.13 101.13 1328.13 87.53 1292.89 36.13"/><polygon class="cls-1" points="983.22 30.17 1055.38 6.03 1149.02 30.17 1129.83 69.27 1002.13 50.57 983.22 30.17"/><polygon class="cls-1" points="696.54 44.39 689.65 35.41 667.39 28.73 653.52 41.54 646.13 11.98 604.15 3.97 576.13 20.24 576.13 51.76 658.65 118.47 696.54 44.39"/><path class="cls-2" d="M175,36.52,283.13,9.82s16.61-8.61,33.31,10.38,9.7,38.85,9.7,38.85L296.61,89.26,245.05,94.2Z"/><path class="cls-1" d="M98.2,51.06V20.2l-7-9.56-12,2L48.78,6l-6,9.77L13.13,8.87,1,20.2,1.3,149.09s69.05-22.71,70.44-22.71S98.2,51.06,98.2,51.06Z"/><path class="cls-1" d="M427.71,58.41s-10.06-17-34.32-21.89S351.7,33,351.7,33s-2.87-1.82-34.22-.18S271.89,22.63,264,63.13s42.64,55.05,42.64,55.05h92.48l28.58-23.73Z"/><path class="cls-2" d="M42.78,83.11l-4-31A15.06,15.06,0,0,0,25.3,39.32L1,36.52l1.1,68.26Z"/><polygon class="cls-3" points="1.29 108.81 240.75 109.59 854.13 111.6 854.13 5762.3 1.29 5762.3 1.29 108.81"/><polygon class="cls-4" points="854.13 134.81 998.28 116.59 1367.13 118.6 1367.13 5769.3 854.13 5762.3 854.13 134.81"/><path class="cls-5" d="M854.13,516.3s108,20.85,129,47.38,11-1.89,79,43.12,36,43.12,93,59.23,51.31,21.8,93.65,37,26.18,1.69,69.26,8.9,49.09,7.25,49.09,7.25V483.29L909.13,376S690.7,439.6,621.91,420.14s-16.82-8.09-92.8-44.1-112.28-45.49-166.63-55-305.35,45.4-305.35,45.4l-55,90.11-1,164.9,1,104.33s40.05,21.51,79.53-13.93,43.78-23.11,99.13-37.33S237,664.26,265,656.14s35.09-14.75,52.09-24.22,18.26-1.9,37.13-25.12,20.87-35.54,47.87-37.43,2,4.74,64,0,77.52-8.85,98.26-14.85-11.26-9.79,33.74-9.79,50,0,71,2.84,30.22,7.26,59.61,6.95,75.39-7.9,75.39-7.9Z"/><path class="cls-6" d="M148.63,404s79,53.44,138.5,31.46,88.58-78.85,206.54-38.57c14.75,5,28.09,10.3,40.31,15.64,9.44,4.12,18.21,8.28,26.44,12.41,9.2,4.62,17.73,9.2,25.75,13.63,14.63,8.07,27.58,15.65,40,22.08,7.43,3.87,7.26,119.55,14.5,122.46s21.91-107,29.44-105.29c15.06,3.34,31.16,3.92,50.18.65,80.38-13.82,149.5-18.39,257.94,9.48,14.82,3.81,22.51,121.72,35.44,125.49,15.79,4.59,36.4-105,49.86-100.67,56.24,18,94.59,32.34,134.64,33.94,57.5,2.28,133.5-91.54,133.5-91.54L1307.13,339,1098.87,208.51s-227.24-15.84-252.24-17.74-507.48-25.28-507.48-25.28l-205,77.13Z"/><path class="cls-7" d="M18.63,475.07s77.76-4.05,139.63-16,49.87-71.33,114.87-100.87,50-71.24,126-58c8.71,1.52,17.51,148,25.5,152.1,12.15,6.22,23.12-128.51,34.51-118.46,46.49,41,80.54,10.95,159.49,7.58,65.25-2.78,107.83,87.48,135.37,78.69,12.18-3.88,18.74,126.5,31.63,119.38,7.55-4.17,20.37-144.59,29.5-150.21,60-37,150-12.32,183-44.54s56.24,134.9,148.12,149.9c16.57,2.7,34.7,157.86,50.38,161.41s28.9-144.49,42.92-141.12c49.69,11.93,86.55,19.44,93.58-.56,11-31.27-135-268.93-135-268.93L882.13,214,499,184.14l-207.91,27L111.13,284Z"/><polygon class="cls-8" points="1367.13 801.84 1367.13 835.95 1126.13 612.01 1149.13 601.59 1367.13 801.84"/><path class="cls-9" d="M1367.13,696.36V801.84l-218-200.25-88-280.51-23,1.55-14.46-47.52s61.3-7.39,95.4,6,36.1,26.68,36.1,26.68l72,247.34Z"/><polygon class="cls-8" points="1061.13 321.08 1149.13 601.59 1126.13 612.01 1038.09 322.63 1061.13 321.08"/><polygon class="cls-10" points="1038.09 322.63 1126.13 612.01 1037.56 322.67 1038.09 322.63"/><path class="cls-11" d="M1038.09,322.63l-14.46-47.52s61.3-7.39,95.4,6,36.1,26.68,36.1,26.68l72,247.34,140,141.21V801.84"/><polygon class="cls-11" points="1367.13 801.84 1149.13 601.59 1061.13 321.08 1038.09 322.63 1037.56 322.67 1126.13 612.01 1367.13 835.95 1367.13 801.84"/><line class="cls-11" x1="1126.13" y1="612.01" x2="1149.13" y2="601.59"/><polygon class="cls-9" points="331.7 235.48 243.13 524.83 220.13 514.4 308.13 233.89 331.7 235.48"/><path class="cls-8" d="M331.7,235.48l-23.57-1.59-88,280.51L2.13,714.65V609.17l140-141.2,62-200.91s2-13.27,36.1-26.68S331.7,235.48,331.7,235.48Z"/><polygon class="cls-9" points="243.13 524.83 2.13 748.76 2.13 714.65 220.13 514.4 243.13 524.83"/><path class="cls-11" d="M331.7,235.48s-57.37-8.51-91.47,4.9-36.1,26.68-36.1,26.68L142.13,468l-140,141.2V714.65"/><polygon class="cls-11" points="2.13 714.65 220.13 514.4 308.13 233.89 331.7 235.48 243.13 524.83 2.13 748.76 2.13 714.65"/><line class="cls-12" x1="243.13" y1="524.83" x2="220.13" y2="514.4"/><line class="cls-8" x1="220.13" y1="514.4" x2="243.13" y2="524.83"/><polygon class="cls-2" points="618.29 94.7 606.13 29.72 519.13 6.03 450.52 26.88 412.13 73.31 443.13 121.64 580.13 126.38 618.29 94.7"/><polygon class="cls-2" points="1019.07 147.23 930.44 139.9 895.07 104.34 889.07 82.05 906.07 32.56 922.26 27.16 945.07 32.56 959.07 11.71 981.69 17.52 994.13 28.65 994.13 41.09 1019.07 55.27 1029.63 108.44 1019.07 147.23"/><polygon class="cls-2" points="646.87 63.3 670.13 55.88 674.28 39.27 701 22.11 733.13 17.83 743.13 1 776.87 1 797.22 13.61 812.87 26.88 854.29 26.88 882.13 51.52 845.96 90.74 767.13 118.18 671 118.18 646.87 63.3"/><path class="cls-2" d="M1124.13,58.57,1133,34.88,1161.73,14l109,7.58,36.43,24.76V89.84l-51.3,44.54s-136.26-33.57-137-32.42S1124.13,58.57,1124.13,58.57Z"/><polygon class="cls-1" points="859.68 57 859.68 17.83 872.35 3.97 900.13 4.13 914.5 18.31 914.5 62.56 859.68 57"/><path class="cls-13" d="M1.29,105.91,1.13,611.6S-2.37,580.88,29.63,487c14.93-43.82,36.62-66.7,61.56-80.62,7-3.89,15.13,135.38,22.44,130.84s13.78-152.89,21.23-159.38c15.52-13.54,31.13-32.73,45.92-63.51C235.13,201.25,356.13,233.47,446.13,224c62.37-6.56,48.86-24.9,79.61-23.11,4.17.24,7.81,44.32,13.89,45.38s14.62-40.9,23.23-38.86c10.94,2.59,24.16,6,40.27,10.5,135,37.37,78.94,60.73,224,74.16,57.13,5.29,85.17,11.53,103.89,16.49,13.27,3.52,17.68,157.08,28.64,158.52,6.89.91,18.9-149.43,29.41-149.84,9.07-.37,20.15-1.29,34.35-2.92,93.74-10.71,104.17-2.92,142,29.67s30.39,58.47,99.09,119,92.34,97.95,92.34,97.95,10.35,74.35,10.35,121.28V107.61l1-22.93-36.5-27-68-17.71-27.52,20-74,12.32-.4-17.63-42.88-26.46H1013.69l-26.3,16.82-6.26,26.39,15,14.15,1,17.06-48,1.9,10.78-13.52-27.3-29.83-27.48-9.72-18-14.15L827.1,40l-57.47-3.52-27.5,8.62L711.52,61.24V92.55l25.41,15.77-43.8-1.84-7-28.94-37.68-21-35.7,4.72-15.21-4.72-8.41-6h-26l-1.77,20.81,14.77,35.1-30.65-.57.65-8-20.22-1.69L493.67,81.21H472.6L420,77.54H383.22l-24.09-5.75L364,105.91H313.63l-21.5-21.23-8-15.16-30-12.36-20.59-15L197,38.81,179.13,25l-20.87-6.67h-31L113.73,32l-29.6,9.43L57.65,57.16l-5.52,17.1L24,77.54,6.13,84.68Z"/><path class="cls-11" d="M1367.13,1546.83s-25-13.53-35.5-38-44.5-33.5-71.89-83.5-85.61-52-122.11-71-64.5-33-100.07-36-37.43-6-62.7-86.08-13.73-49.92-70.73-90.92-49.84-86-49.84-86-93.16-76-130.16-59-57.91-28.95-114-2.47-106,24.47-158,8.47-96-26-120-23"/><path class="cls-14" d="M854.29,2040.8s-7.16,74.5-20.16,80.5-5,63.57,0,79.79c0,0,18.32,12.13,20.16,28.17,0,0,22.84-19,21.84-34s0,2-3-19,12-36,15-50-4-19-9-33S854.29,2040.8,854.29,2040.8Z"/><path class="cls-11" d="M854.13,1410.3s-51,65-98,61-56.61-44.17-94.3,22.42-37.7,76.58-70.7,79.58"/><path class="cls-11" d="M1.13,2755.3l28-4c28-4,53,39,80,30s37-12,56-21,20-7,75-34,28.69-38,28.69-38,57.31-39,63.31-46,82-23,89-22,76,13,95,17,51,3,63.52-10.69,42.48-18.31,124.48-32.31,59,8,85.65,24.83,64.35,0,64.35,0,11.13,32.73,56.57,50.45,79.8-26.72,119.62,0,63.81,58.83,80.31,89.78,114.67,68.84,114.67,68.84"/><path class="cls-11" d="M565.24,2635.3s70.89,22,131.89,106,14.73-10.25,61,84c54,110,85.43,104.79,85.43,104.79l10.57,16.21s51.61,45,99.3,82,34-15.5,66.85,56.75,91.72,48.17,141.28,132.21,58.92,93.58,63.74,111.31,7-.79,9.4,29-16.92,1.81,6.26,40.79a633.22,633.22,0,0,0,45.82,67"/><path class="cls-11" d="M854.13,3468.29s3,.49,37-10.75,23.22-17.15,44.61-7.19-4.34,7.75,31,10.35,41.11,1.69,70.24,4.65,16.17,3.75,41.14,3.85,27.43,1.93,33.7-6,21.28-28,54.28-17.94,41.26,15.86,52.13,17.94-8.09,2.18,27.39,2.14,26.77-13,41.13,0,12.22,39.54,32.78,50.75,26.27,13.91,26.27,13.91l21.3,13.29"/><path class="cls-11" d="M1037,3465.35s-36-21.33-42.91-47.19-1.36-17.82-40.67-24.84-45.3-3.45-52.8-7.73-5.27-15.85-16.38-19.57-30.12-4-30.12-4-154.9,24-169,48.65S720,3423.33,661,3440.82s-57,17.67-64.95,19.58"/><path class="cls-14" d="M854.13,3641.09s-2,21.2,18,54.21,14.17,15,16.59,47,19.58,1,0,43-19.59,35-16.59,54,9,2.06,2,38-12.3,55-12.3,55l-7.75,20.77Z"/><path class="cls-14" d="M854.13,2808.39s10-7.09,27-33.09,24-28,25-42,2.74-1.55-.13-24.28,4.7-39.44,4.7-39.44-47.57-19.62-56.57-50.45Z"/></g></g></svg>