<svg xmlns="http://www.w3.org/2000/svg" viewBox="0 0 60.24 138"><defs><style>.cls-1{fill:#754c24;}.cls-1,.cls-2,.cls-3,.cls-4,.cls-6,.cls-7{stroke:#000;stroke-miterlimit:10;}.cls-2{fill:#a67c52;}.cls-3{fill:#261f19;}.cls-3,.cls-4,.cls-6{stroke-width:2px;}.cls-4{fill:#3e261c;}.cls-5,.cls-6{fill:#fff;}.cls-5{opacity:0.18;}.cls-7{fill:none;}</style></defs><g id="Layer_2" data-name="Layer 2"><g id="Layer_1-2" data-name="Layer 1"><path class="cls-1" d="M14.28,92.32c3.33-.71,16.82-3.21,30.49,0a.27.27,0,0,1,.06.5c-3.16,1.51-16.27,7.8-15.83,7.75s-11.68-6.15-14.78-7.71A.29.29,0,0,1,14.28,92.32Z"/><path class="cls-1" d="M21.87,60.91s-.63-2.26,8.25-2.08,7.31,1.67,7.31,1.67L29,63Z"/><path class="cls-2" d="M28,68.5h3a70.78,70.78,0,0,0,6.43-8s-5.19,1.33-15.56.41Z"/><path class="cls-3" d="M59,128c.54.46,0,2.51,0,3,0,3.31-13,6-29,6s-29-2.69-29-6v-4"/><ellipse class="cls-4" cx="30" cy="127" rx="29" ry="6"/><path class="cls-3" d="M49,120v4c0,2.23-8.73,4-19.5,4S10,126.23,10,124c0-.62.11-4.26,0-4"/><ellipse class="cls-4" cx="29.5" cy="120" rx="19.5" ry="4.03"/><path class="cls-3" d="M52,14V127a2.74,2.74,0,0,0,4,0V12"/><path class="cls-2" d="M46.21,114.06a11.47,11.47,0,0,1-8.5,6.9,44.07,44.07,0,0,1-16.44,0A11.42,11.42,0,0,1,12.78,114S8.5,104.5,13.5,92.5a37.93,37.93,0,0,0,32,0S49.5,106.5,46.21,114.06Z"/><path class="cls-3" d="M3,14V127a2.74,2.74,0,0,0,4,0V14"/><path class="cls-5" d="M28,70.5C9.45,91.11,9.61,106.8,12.78,114.6a11.42,11.42,0,0,0,8.49,6.89,44.07,44.07,0,0,0,16.44,0,11.47,11.47,0,0,0,8.5-6.9C49.39,106.84,49.58,91.14,31,70.5v-.94C58,39.56,43.13,20,43.13,20H15.87S1,39.56,28,69.56Z"/><path class="cls-4" d="M46,14v4c0,1.25-7.61,2.27-17,2.27s-17-1-17-2.27c0-.39,0-3.08,0-3"/><line class="cls-6" x1="1" y1="127" x2="1" y2="131"/><path class="cls-3" d="M1,7v4c0,3.31,12.54,6,28,6s28-2.69,28-6c0-.56,0-4.84,0-4"/><ellipse class="cls-4" cx="29" cy="7" rx="28" ry="6"/><ellipse class="cls-4" cx="54" cy="64" rx="4" ry="3"/><ellipse class="cls-4" cx="54" cy="75" rx="4" ry="3"/><ellipse class="cls-4" cx="5" cy="64" rx="4" ry="3"/><ellipse class="cls-4" cx="5" cy="75" rx="4" ry="3"/><path class="cls-7" d="M28,69.94C9.45,90.55,9.61,106.24,12.78,114a11.42,11.42,0,0,0,8.49,6.89,44.07,44.07,0,0,0,16.44,0,11.47,11.47,0,0,0,8.5-6.9c3.18-7.78,3.37-23.48-15.21-44.12V69C58,39,43.13,19.44,43.13,19.44H15.87S1,39,28,69Z"/></g></g></svg>