<svg xmlns="http://www.w3.org/2000/svg" viewBox="0 0 60.24 138"><defs><style>.cls-1{fill:#754c24;}.cls-1,.cls-2,.cls-3,.cls-4,.cls-5,.cls-6{stroke:#000;stroke-miterlimit:10;}.cls-2{fill:#a67c52;}.cls-3{fill:#261f19;}.cls-3,.cls-4,.cls-5{stroke-width:2px;}.cls-4{fill:#3e261c;}.cls-5,.cls-7{fill:#fff;}.cls-6{fill:none;}.cls-7{opacity:0.18;}</style></defs><g id="Layer_2" data-name="Layer 2"><g id="Layer_1-2" data-name="Layer 1"><path class="cls-1" d="M12.65,37.17c3-1.4,11.85-4.67,34-.8a.27.27,0,0,1,.13.46L40.48,43.6a.29.29,0,0,1-.26.08l-27.5-6A.28.28,0,0,1,12.65,37.17Z"/><path class="cls-1" d="M12.43,111.42a87.53,87.53,0,0,1,34.09,0,.12.12,0,0,1,0,.23l-17,4-17.12-4A.09.09,0,0,1,12.43,111.42Z"/><path class="cls-2" d="M12,37.52s17.82,7,35.19-1c0,0-1.64,17-16.64,33h-2S12.4,52.54,12,37.52Z"/><path class="cls-3" d="M59,128c.54.46,0,2.51,0,3,0,3.31-13,6-29,6s-29-2.69-29-6v-4"/><ellipse class="cls-4" cx="30" cy="127" rx="29" ry="6"/><path class="cls-3" d="M49,120v4c0,2.23-8.73,4-19.5,4S10,126.23,10,124c0-.62.11-4.26,0-4"/><ellipse class="cls-4" cx="29.5" cy="120" rx="19.5" ry="4.03"/><path class="cls-3" d="M52,14V127a2.74,2.74,0,0,0,4,0V12"/><path class="cls-3" d="M3,14V127a2.74,2.74,0,0,0,4,0V14"/><path class="cls-4" d="M46,14v4c0,1.25-7.61,2.27-17,2.27s-17-1-17-2.27c0-.39,0-3.08,0-3"/><line class="cls-5" x1="1" y1="127" x2="1" y2="131"/><path class="cls-3" d="M1,7v4c0,3.31,12.54,6,28,6s28-2.69,28-6c0-.56,0-4.84,0-4"/><ellipse class="cls-4" cx="29" cy="7" rx="28" ry="6"/><ellipse class="cls-4" cx="54" cy="64" rx="4" ry="3"/><ellipse class="cls-4" cx="54" cy="75" rx="4" ry="3"/><ellipse class="cls-4" cx="5" cy="64" rx="4" ry="3"/><ellipse class="cls-4" cx="5" cy="75" rx="4" ry="3"/><path class="cls-2" d="M12.5,111.5c1.46,3.6,0,6,8.77,9.43,3.8,1.48,9.92,1.43,16.44,0,6.79-1.46,8.79-9.46,8.79-9.46l-3.21.38a117.79,117.79,0,0,1-27.58,0Z"/><path class="cls-6" d="M28,69.94C9.45,90.55,9.61,106.24,12.78,114a11.42,11.42,0,0,0,8.49,6.89,44.07,44.07,0,0,0,16.44,0,11.47,11.47,0,0,0,8.5-6.9c3.18-7.78,3.37-23.48-15.21-44.12V69C58,39,43.13,19.44,43.13,19.44H15.87S1,39,28,69Z"/><path class="cls-7" d="M28,70.5C9.45,91.11,9.61,106.8,12.78,114.6a11.42,11.42,0,0,0,8.49,6.89,44.07,44.07,0,0,0,16.44,0,11.47,11.47,0,0,0,8.5-6.9C49.39,106.84,49.58,91.14,31,70.5v-.94C58,39.56,43.13,20,43.13,20H15.87S1,39.56,28,69.56Z"/><path class="cls-6" d="M28,69.94C9.45,90.55,9.61,106.24,12.78,114a11.42,11.42,0,0,0,8.49,6.89,44.07,44.07,0,0,0,16.44,0,11.47,11.47,0,0,0,8.5-6.9c3.18-7.78,3.37-23.48-15.21-44.12V69C58,39,43.13,19.44,43.13,19.44H15.87S1,39,28,69Z"/></g></g></svg>