<svg xmlns="http://www.w3.org/2000/svg" viewBox="0 0 321.93 549"><defs><style>.cls-1{fill:#666;}.cls-2{fill:#473d3c;}.cls-3{fill:#18171f;}.cls-4{fill:#d8cecc;}.cls-5{fill:#152740;}.cls-6{fill:#585a59;}.cls-17,.cls-7{fill:#3e261c;}.cls-8{fill:#3e454b;}.cls-9{fill:#0a0a0a;}.cls-10{fill:#333;}.cls-11{fill:#603813;}.cls-12,.cls-13,.cls-14,.cls-15{fill:none;}.cls-12,.cls-13,.cls-14,.cls-15,.cls-16,.cls-17,.cls-18,.cls-20{stroke:#000;}.cls-12,.cls-13,.cls-15,.cls-16,.cls-17,.cls-18,.cls-20{stroke-miterlimit:10;}.cls-12,.cls-13,.cls-14,.cls-16,.cls-17,.cls-20{stroke-width:2px;}.cls-13,.cls-14{stroke-linecap:round;}.cls-14{stroke-linejoin:round;}.cls-16{fill:#261f19;}.cls-18{fill:#a67c52;}.cls-19,.cls-20{fill:#fff;}.cls-19{opacity:0.18;}</style></defs><g id="Layer_2" data-name="Layer 2"><g id="Layer_1-2" data-name="Layer 1"><path class="cls-1" d="M240.75,120.89l-21.5,22.61h0L217,145.85l-16.58,17.43-4.81,5.06L189.29,175l-4.64-4.64L319.74,28.94l-.19.39C315.24,38,312,45.89,305.37,52.94Z"/><path class="cls-1" d="M319.74,28.94,184.65,170.36l-4.28-4.28,4.28-4.48,4.64-4.85,2.79-2.92,43.12-45.06,56.87-59.42a100.66,100.66,0,0,1,27.67-20.41Z"/><path class="cls-2" d="M241,147.76c-10.76,1.25-23.92,0-23.92,0,.08-1.16.12-1.78.12-1.78l-.15-.16,2.23-2.35h0a134.87,134.87,0,0,0,25.68-1.11c.18,3,.11,4.73.11,4.73C243.74,147.38,242.37,147.59,241,147.76Z"/><path class="cls-3" d="M240.75,120.89a80.92,80.92,0,0,1,4.18,21.5,134.87,134.87,0,0,1-25.68,1.11Z"/><path class="cls-4" d="M223.85,280.77a63,63,0,0,1,12.17-.1s5.67,15.86,4.56,19.2-7.81,12.26-11.15,12.26c-3.17,0,3.67-5,1.55-15a.65.65,0,0,0-1.23-.13,41.57,41.57,0,0,0-2.55,10.67c-.86,6.86-2.16-1.62-3.35-7.8h-.14c.16-6.53.22-13,.12-19.09Z"/><path class="cls-5" d="M237.16,231.87c.69,18.45.46,32.32,1.19,49.05,0,0-.88-.13-2.33-.25a63,63,0,0,0-12.17.1c.08-3.35-.39-9.11-.39-12.39,0-2.36,0-4.71-.09-7.05-.12-6.17-.4-12.26-.79-18.22-.21-3.5-.47-7-.76-10.37C234.28,233.63,237.16,231.87,237.16,231.87Z"/><path class="cls-3" d="M235.2,108.77l-43.12,45.06s-.06-1.28-9.48-2.25l-.17.19C158.64,131.6,138,85,137.61,84.14a52.72,52.72,0,0,1,6.3-1.55c.09,1,3.13,30.1,34.23,33.31,31.61,3.27,34.56-26.76,34.56-26.76l.09-.2A49.18,49.18,0,0,1,235,108.54Z"/><path class="cls-4" d="M216.45,169.38c0-10.08.38-18.16.59-21.59,0,0,13.16,1.22,23.92,0-2.36,17.6-6.94,38.12-6,49.53,1.16,13.58,1.79,24.73,2.16,34.58,0,0-2.88,1.76-15.34.87q-.54-6.48-1.2-12.68c-.74-6.89-1.54-13.51-2.34-19.76s-1.31-12.88-1.57-19.08c-.07-1.74-.13-3.44-.17-5.11C216.48,173.79,216.45,171.54,216.45,169.38Z"/><path class="cls-5" d="M223.83,280.78c.1,6.06,0,12.56-.12,19.09-.7,28.25-3.32,57.73-3.71,57.73a22,22,0,0,1-2.65-1.46c-9.52-5.9-15.55-17.55-19.36-30.35C190.6,301,191.52,272,191.52,272l-.18-.55,31.91-10.12h.12c.06,2.34.08,4.69.09,7.05,0,3.28.47,9,.39,12.39Z"/><path class="cls-3" d="M158.91,270.61,121.7,258.85l-.51-.07c.75-6.21,1.36-11.79,1.88-16.76l.25,0,54.82,16.58,43.68-15.47.76,0c.39,6,.67,12,.79,18.22h-.12l-31.91,10.12-14.87,4.72Z"/><path class="cls-6" d="M222.58,243.11l-.76,0-43.68,15.47L123.32,242l-.25,0c1-9,1.56-16,2-21.2l.69.06A165.1,165.1,0,0,0,145,226.09c20.23,4.32,52.27,7.75,75.62-6h0q.66,6.19,1.2,12.68C222.11,236.15,222.37,239.61,222.58,243.11Z"/><path class="cls-7" d="M203.76,500.38c7.61,12.41,21.8,20.89,17.86,28.06-5.19,9.45-21.51,10.79-39-7.81-7.63-8.1-10.16-12.34-10.46-15.56l.43-.05L196,510.6Z"/><path class="cls-8" d="M220.62,220.06h0c-23.35,13.78-55.39,10.35-75.62,6l.61-2.79a2.87,2.87,0,0,0,3.2-2.34l1.1-6.16,5.81-7.3a11.34,11.34,0,0,0,1.25,3.17c.83,1.26,3.12-.9,2.36-6.25a5.8,5.8,0,0,0,5.44,4c1.53,0,1.55-1.85.93-4.41l.19-.05s3.49,2.62,3.52-4.5c1-.2,5.52-1.3,6.51-3.3.64-1.27-2-5.83-5.22-9.91a45.49,45.49,0,0,0,23.06,11l1.12-4.46a48.76,48.76,0,0,1-16.07-7.35l2.69-2.68s7.8,0,7.8-7.8l6.33-6.66.56.53a34.94,34.94,0,0,0,3.78,1.88,10.48,10.48,0,0,0,2.71,5.36c4.13,4,14,5.11,14,5.11.26,6.2.74,12.71,1.57,19.08S219.88,213.17,220.62,220.06Z"/><path class="cls-9" d="M217.35,356.14l-.22.35c-1.5,15.8-3.07,31.9-4.43,43.73-.69,6-1.71,12.39-2.91,18.93-20,2-33.11-3.58-34.8-4.35-.06-1.15-.13-2.3-.19-3.43-1.12-19,1.11-42.37,2.23-59.1l-.14-.11L198,325.79C201.8,338.59,207.83,350.24,217.35,356.14Z"/><path class="cls-3" d="M217,145.85l.15.16s0,.62-.12,1.78c-.21,3.43-.64,11.51-.59,21.59-10.61-2.26-16-6.1-16-6.1Z"/><path class="cls-3" d="M216.54,176.11c0,1.67.1,3.37.17,5.11,0,0-9.91-1.06-14-5.11a10.48,10.48,0,0,1-2.71-5.36A97,97,0,0,0,216.54,176.11Z"/><path class="cls-2" d="M200,170.75a34.94,34.94,0,0,1-3.78-1.88l-.56-.53,4.81-5.06s5.41,3.84,16,6.1c0,2.16,0,4.41.09,6.73A97,97,0,0,1,200,170.75Z"/><path class="cls-5" d="M212.79,88.94l-.09.2s-2.95,30-34.56,26.76C147,112.69,144,83.54,143.91,82.59a71.21,71.21,0,0,1,15.28-1.25s20.07,27.87,39,3.34A59,59,0,0,1,212.79,88.94Z"/><path class="cls-4" d="M204.9,49a32.43,32.43,0,0,1,4.54,5.66h0a1.86,1.86,0,0,0-.25-.31s-7.47-2-10.9-.5c-2.61,1.17-1.19,3,.13,5.42a12.08,12.08,0,0,1,1.09,2.54c1.06,3.77,9.87,1.67,9.87,1.67a21.4,21.4,0,0,0,.8-4.29,2.3,2.3,0,0,1,.55.21h0c-.67,4.36-5.07,14.73-13,15.06a15,15,0,0,0,.46,10.19c-19,24.53-39-3.34-39-3.34a46.81,46.81,0,0,0,3.13-20c-.72-11.18-4.44-11.35-4-20s1.63-35.87,3-38.29,2.64-3.6,6.13,1.52c3.34,4.9,8.29,20.11,12.14,21.54a1.87,1.87,0,0,0,.51.11l7.42.33h.06c2.71,0,2.9-9.81,8.09-15.74s7.78-7.52,10.22-6.57S204.9,49,204.9,49Zm-2.2-30.42c.13-2.68.22-4.84-.25-6.29a.77.77,0,0,0-1.36-.17c-1.45,2.17-4.63,7.32-4.8,11.13-.23,4.94,2.24,5.06,3.54,3.88S202.54,22.15,202.7,18.59Zm-.59,23.2a2.21,2.21,0,1,0-2.31,2.06A2.18,2.18,0,0,0,202.11,41.79ZM186,42a1.94,1.94,0,0,0-2-1.9,2,2,0,0,0-2.18,1.74,1.93,1.93,0,0,0,2,1.89A2,2,0,0,0,186,42ZM168.8,28.2a8.58,8.58,0,0,0,.28-6.19c-1.07-3.75-2-10-3.15-12.53s-2.58,2.36-2.58,2.36-1.59,7.36.66,12.42S168.8,28.2,168.8,28.2Z"/><path class="cls-10" d="M198.4,59.29c-1.32-2.45-2.74-4.25-.13-5.42,3.43-1.55,10.9.5,10.9.5a1.86,1.86,0,0,1,.25.31,7.5,7.5,0,0,1,.74,4.53,21.4,21.4,0,0,1-.8,4.29s-8.81,2.1-9.87-1.67A12.08,12.08,0,0,0,198.4,59.29Z"/><path class="cls-3" d="M209.79,419.15c-.63,3.53-1.32,7.11-2,10.69L196,435.89l-20.07-11.15-.42,0c-.15-3.35-.31-6.69-.5-10C176.68,415.57,189.77,421.11,209.79,419.15Z"/><path class="cls-7" d="M196,435.89l11.79-6.05c-4.27,21.75-9.2,43.68-8.44,57.34q0,.44.06.87L192.64,495,176,488.93c.82-12.26.58-38.73-.54-64.16l.42,0Z"/><path class="cls-3" d="M203.76,500.38,196,510.6,172.57,505l-.43.05c-.43-4.34,3.14-6.88,3.77-14.54.05-.5.08-1,.12-1.6L192.64,495l6.75-6.94A28.66,28.66,0,0,0,203.76,500.38Z"/><path class="cls-10" d="M202.45,12.3c.47,1.45.38,3.61.25,6.29-.16,3.56-1.58,7.37-2.87,8.55s-3.77,1.06-3.54-3.88c.17-3.81,3.35-9,4.8-11.13A.77.77,0,0,1,202.45,12.3Z"/><path d="M200,39.53a2.16,2.16,0,1,1-2.31,2.06A2.18,2.18,0,0,1,200,39.53Z"/><path class="cls-6" d="M198,325.79l-21.1,26.37-5.44,6.8L165.9,350l-14.23-22.91c7.84-21.17,7.38-51.3,7.24-56.5l17.56,5.56,14.87-4.72.18.55S190.6,301,198,325.79Z"/><path class="cls-5" d="M178.8,185.48a48.76,48.76,0,0,0,16.07,7.35l-1.12,4.46a45.49,45.49,0,0,1-23.06-11,39.59,39.59,0,0,0-4.76-5.19,43.45,43.45,0,0,1-7.86-17.23l6.69-1.12a29.65,29.65,0,0,0,5.13,13.63A35.73,35.73,0,0,0,178.8,185.48Z"/><path class="cls-8" d="M192.08,153.83l-2.79,2.92a51.17,51.17,0,0,1-6.86-5l.17-.19C192,152.55,192.08,153.83,192.08,153.83Z"/><path class="cls-2" d="M189.29,156.75l-4.64,4.85a73.43,73.43,0,0,1-12.37-10.55c-21.7-22.57-38.48-60.6-40.32-64.86a52.25,52.25,0,0,1,5.65-2c.38.85,21,47.46,44.82,67.63A51.17,51.17,0,0,0,189.29,156.75Z"/><path class="cls-10" d="M184.65,170.36l4.64,4.64c0,7.8-7.8,7.8-7.8,7.8l-2.69,2.68a35.73,35.73,0,0,1-8.91-9.12l.11-.08,2.57-3a7.27,7.27,0,0,1,7.8-7.22Z"/><path d="M184,40.09a1.94,1.94,0,0,1,2,1.9,2,2,0,0,1-2.18,1.73,1.93,1.93,0,0,1-2-1.89A2,2,0,0,1,184,40.09Z"/><path class="cls-8" d="M184.65,161.6l-4.28,4.48a7.27,7.27,0,0,0-7.8,7.22l-2.57,3-.11.08a29.65,29.65,0,0,1-5.13-13.63l-6.69,1.12a43.45,43.45,0,0,0,7.86,17.23,11.23,11.23,0,0,0-2.28-1.62c-4.46-2.23-26,7.8-26,7.8a59.45,59.45,0,0,1-12.5,1.86l1.46-13,.28,0s13.76,2.23,20.82,0-1.42-26.51,22.33-25c.34,0,1.79,0,2.11.06l.17-.16A73.43,73.43,0,0,0,184.65,161.6Z"/><path class="cls-4" d="M169.4,199.48c0,7.12-3.52,4.5-3.52,4.5l-.19.05c.62,2.56.6,4.41-.93,4.41a5.8,5.8,0,0,1-5.44-4c.76,5.35-1.53,7.51-2.36,6.25a11.34,11.34,0,0,1-1.25-3.17c-.92-3.18-1.55-5.94-6.31-.17-.88,1.06-2.47,1.48-4.24,1.54a31.41,31.41,0,0,1-9.29-1.54s-6.45-5.58,1.74-20.07c0,0,21.58-10,26-7.8a11.23,11.23,0,0,1,2.28,1.62,40.52,40.52,0,0,0,4.76,5.19c3.21,4.08,5.86,8.64,5.22,9.91C174.92,198.18,170.36,199.28,169.4,199.48Z"/><path class="cls-3" d="M132.92,143.5s-21.68-4.18-36.17-12h0c2.59-10.94,11-35,35.24-45.31,1.84,4.26,18.62,42.29,40.32,64.86l-.17.16c-.32,0-1.77,0-2.11-.06-23.75-1.55-15.27,22.73-22.33,25s-20.82,0-20.82,0l-.28,0,1.32-11.75A151.25,151.25,0,0,0,132,148.5C132.31,146.9,132.62,145.23,132.92,143.5Z"/><path class="cls-10" d="M169.08,22a8.58,8.58,0,0,1-.28,6.19s-2.53,1.13-4.79-3.94-.66-12.42-.66-12.42,1.46-4.89,2.58-2.36S168,18.26,169.08,22Z"/><path class="cls-9" d="M151.67,327.11,165.9,350l0,0c-2.42,10.92-3.21,11.86-7.81,29-4.22,15.77-6.87,24-11,40.14h-.19c-25.64,1.12-33.27-7.51-33.27-7.51.14-15.39.37-33,1.32-53.29,4.06-1.16,12.73-4.5,25.26-13.9C145.27,340.69,149,334.43,151.67,327.11Z"/><path class="cls-5" d="M115,358.37a18.16,18.16,0,0,1-2.61.59s2.23-54.63,7.8-92.54h.09c.34-2.65.65-5.19.94-7.65l.51.07,37.21,11.76c.14,5.2.6,35.33-7.24,56.5-2.7,7.32-6.4,13.58-11.44,17.36C127.7,353.87,119,357.21,115,358.37Z"/><path class="cls-11" d="M155.71,207.5l-5.81,7.3-7.44-4.13,2.7-1.8c1.77-.06,3.36-.48,4.24-1.54C154.16,201.56,154.79,204.32,155.71,207.5Z"/><path class="cls-1" d="M149.9,214.8,148.8,221a2.87,2.87,0,0,1-3.2,2.34,2.84,2.84,0,0,1-1.15-.44L136.87,218a2.85,2.85,0,0,1,.39-5l5.2-2.32Z"/><path class="cls-3" d="M146.92,419.17h.19c-.76,3-1.57,6.28-2.45,9.93L125.74,437l-12.09-14.35h-.08q0-5.3.08-11S121.28,420.29,146.92,419.17Z"/><path class="cls-8" d="M145.6,223.3l-.61,2.79a165.1,165.1,0,0,1-19.25-5.21l-.69-.06c.45-6,.62-9.58.67-10.78,6-1.4,10.15-2.71,10.15-2.71a31.41,31.41,0,0,0,9.29,1.54l-2.7,1.8-5.2,2.32a2.85,2.85,0,0,0-.39,5l7.58,4.87A2.84,2.84,0,0,0,145.6,223.3Z"/><path class="cls-7" d="M125.74,437l18.92-7.91c-2.8,11.58-6.3,26.91-11.12,49.16a110.23,110.23,0,0,0-1.77,11.59l-15,7.37-8.06-14.74c4.33-13.46,4.62-32.68,4.81-59.82h.08Z"/><path class="cls-5" d="M125.72,210a128.21,128.21,0,0,1-19,3c-4.34-12.92,2-24.81,2-24.81a74.29,74.29,0,0,0,8.25.87,75.18,75.18,0,0,0,8.11,0,59.45,59.45,0,0,0,12.5-1.86c-8.19,14.49-1.74,20.07-1.74,20.07S131.71,208.64,125.72,210Z"/><path class="cls-2" d="M132.92,143.5c-.3,1.73-.61,3.4-.95,5a116.29,116.29,0,0,1-33.68-10.05c-.89-.44-1.77-.89-2.66-1.36a54.82,54.82,0,0,1,1.09-5.59h0C111.24,139.32,132.92,143.5,132.92,143.5Z"/><path class="cls-3" d="M116.82,497.22l15-7.37c-.45,4-.9,8.53-2,14.84l-19.64,11.48-8.87-15.8c2.38-5.23,4.74-10.44,6.64-15.42.3-.8.59-1.63.86-2.47Z"/><path class="cls-7" d="M110.13,516.17l19.64-11.48c-.83,4.93-2.06,11-3.93,18.75-3.06,12.67-19.51,29.12-30.21,21.72-11.29-7.82-2.74-26.35,5.63-44.79Z"/><path class="cls-4" d="M108.75,188.27s-6.36,11.89-2,24.81c-9.55.69-18.64-.34-22.25-5.75-7.63-11.45,6.69-43.23,13.38-68l.43-.87A116.29,116.29,0,0,0,132,148.5a151.25,151.25,0,0,1-4.08,15.83c-4.1,12.87-8.63,20.33-10.89,24.81A74.29,74.29,0,0,1,108.75,188.27Z"/><path class="cls-12" d="M241.05,147.1c0,.22-.06.43-.09.66-2.36,17.6-6.94,38.12-6,49.53,1.16,13.58,1.79,24.73,2.16,34.58.69,18.45.46,32.32,1.19,49.05,0,0-.88-.13-2.33-.25a63,63,0,0,0-12.17.1h0c-.36,0-.72.08-1.09.14"/><path class="cls-12" d="M217.13,356.49c-1.5,15.8-3.07,31.9-4.43,43.73-.69,6-1.71,12.39-2.91,18.93-.63,3.53-1.32,7.11-2,10.69-4.27,21.75-9.2,43.68-8.44,57.34q0,.44.06.87a28.66,28.66,0,0,0,4.37,12.33c7.61,12.41,21.8,20.89,17.86,28.06-5.19,9.45-21.51,10.79-39-7.81-7.63-8.1-10.16-12.34-10.46-15.56-.43-4.34,3.14-6.88,3.77-14.54.05-.5.08-1,.12-1.6.82-12.26.58-38.73-.54-64.16-.15-3.35-.31-6.69-.5-10-.06-1.15-.13-2.3-.19-3.43-1.12-19,1.11-42.37,2.23-59.1"/><path class="cls-12" d="M217.16,146s0,.62-.12,1.78c-.21,3.43-.64,11.51-.59,21.59,0,2.16,0,4.41.09,6.73,0,1.67.1,3.37.17,5.11.26,6.2.74,12.71,1.57,19.08s1.6,12.87,2.34,19.76q.66,6.19,1.2,12.68c.29,3.41.55,6.87.76,10.37.39,6,.67,12,.79,18.22.06,2.34.08,4.69.09,7.05,0,3.28.47,9,.39,12.39v.15"/><path class="cls-12" d="M97.86,139.32c-6.69,24.78-21,56.56-13.38,68,3.61,5.41,12.7,6.44,22.25,5.75a128.21,128.21,0,0,0,19-3c6-1.4,10.15-2.71,10.15-2.71s-6.45-5.58,1.74-20.07a59.45,59.45,0,0,1-12.5,1.86,75.18,75.18,0,0,1-8.11,0,74.29,74.29,0,0,1-8.25-.87c-1.69-.26-3.4-.6-5.17-1"/><path class="cls-12" d="M116.82,189.49c.05-.11.11-.22.18-.35,2.26-4.48,6.79-11.94,10.89-24.81A151.25,151.25,0,0,0,132,148.5c.34-1.6.65-3.27.95-5,.81-4.67,1.51-9.77,2.07-15.33"/><path class="cls-12" d="M115,357.37c0,.33,0,.67,0,1-1,20.25-1.18,37.9-1.32,53.29q0,5.7-.08,11c-.19,27.14-.48,46.36-4.81,59.82-.27.84-.56,1.67-.86,2.47-1.9,5-4.26,10.19-6.64,15.42-8.37,18.44-16.92,37-5.63,44.79,10.7,7.4,27.15-9,30.21-21.72,1.87-7.79,3.1-13.82,3.93-18.75,1.1-6.31,1.55-10.8,2-14.84a110.23,110.23,0,0,1,1.77-11.59c4.82-22.25,8.32-37.58,11.12-49.16.88-3.65,1.69-6.93,2.45-9.93,4.09-16.12,6.74-24.37,11-40.14,4.6-17.13,5.39-18.07,7.81-29"/><path class="cls-12" d="M125.74,209.56s0,.16,0,.48c0,1.2-.22,4.73-.67,10.78-.42,5.17-1,12.19-2,21.2-.52,5-1.13,10.55-1.88,16.76-.29,2.46-.6,5-.94,7.65,0,.16,0,.31,0,.47"/><path class="cls-12" d="M236,280.67s5.67,15.86,4.56,19.2-7.81,12.26-11.15,12.26c-3.17,0,3.67-5,1.55-15a.65.65,0,0,0-1.23-.13,41.57,41.57,0,0,0-2.55,10.67c-.86,6.86-2.16-1.62-3.35-7.8"/><polyline class="cls-12" points="127.94 163.92 127.89 164.32 126.57 176.08 125.11 189.12"/><path class="cls-12" d="M137.61,187.26s21.58-10,26-7.8a11.23,11.23,0,0,1,2.28,1.62,39.59,39.59,0,0,1,4.76,5.19c3.21,4.08,5.86,8.64,5.22,9.91-1,2-5.55,3.1-6.51,3.3l-.18,0"/><path class="cls-12" d="M159.19,185s8.92,0,10,11.15a30.23,30.23,0,0,1,.18,3.3c0,7.12-3.52,4.5-3.52,4.5"/><path class="cls-12" d="M159.31,204.37a2.8,2.8,0,0,1-.12-.39"/><path class="cls-12" d="M158.07,190.56s1.9-2,4.46,4.5a81,81,0,0,1,3.16,9c.62,2.56.6,4.41-.93,4.41a5.8,5.8,0,0,1-5.44-4"/><path class="cls-12" d="M135.87,207.33a31.41,31.41,0,0,0,9.29,1.54c1.77-.06,3.36-.48,4.24-1.54,4.76-5.77,5.39-3,6.31.17a11.34,11.34,0,0,0,1.25,3.17c.83,1.26,3.12-.9,2.36-6.25a.07.07,0,0,1,0,0c0-.23-.08-.47-.12-.72-1.12-5.92-5-7.67-5-7.67"/><polyline class="cls-12" points="145.81 208.44 145.16 208.87 142.46 210.67 149.9 214.8 155.71 207.5 155.84 207.33"/><path class="cls-12" d="M142.46,210.67l-5.2,2.32a2.85,2.85,0,0,0-.39,5l7.58,4.87a2.84,2.84,0,0,0,1.15.44,2.87,2.87,0,0,0,3.2-2.34l1.1-6.16"/><path class="cls-12" d="M165.93,181.08a43.45,43.45,0,0,1-7.86-17.23l6.69-1.12a29.65,29.65,0,0,0,5.13,13.63,35.73,35.73,0,0,0,8.91,9.12,48.76,48.76,0,0,0,16.07,7.35l-1.12,4.46a45.49,45.49,0,0,1-23.06-11A40.52,40.52,0,0,1,165.93,181.08Z"/><path class="cls-12" d="M170,176.28l2.57-3a7.27,7.27,0,0,1,7.8-7.22l4.28,4.28,4.64,4.64c0,7.8-7.8,7.8-7.8,7.8l-2.69,2.68-.67.66"/><path class="cls-12" d="M219.25,143.5l21.5-22.61,64.62-67.95c6.58-7,9.87-15,14.18-23.61l.19-.39a100.66,100.66,0,0,0-27.67,20.41L235.2,108.77l-43.12,45.06-2.79,2.92-4.64,4.85-4.28,4.48"/><polyline class="cls-12" points="189.29 175 195.62 168.34 200.43 163.28 217.01 145.85 219.24 143.5"/><line class="cls-12" x1="319.74" y1="28.94" x2="184.65" y2="170.36"/><path class="cls-12" d="M174.8,414.71l.19.09c1.69.77,14.78,6.31,34.8,4.35l.24,0"/><path class="cls-12" d="M113.65,411.66s7.63,8.63,33.27,7.51"/><path class="cls-12" d="M172.11,151.21c-.32,0-1.77,0-2.11-.06-23.75-1.55-15.27,22.73-22.33,25s-20.82,0-20.82,0"/><path class="cls-12" d="M192.08,153.83s-.06-1.28-9.48-2.25"/><path class="cls-12" d="M199.87,170.36c0,.13.06.25.09.39a10.48,10.48,0,0,0,2.71,5.36c4.13,4,14,5.11,14,5.11"/><path class="cls-12" d="M132,148.5a116.29,116.29,0,0,1-33.68-10.05c-.89-.44-1.77-.89-2.66-1.36a54.82,54.82,0,0,1,1.09-5.59c2.59-10.94,11-35,35.24-45.31a58.53,58.53,0,0,1,11.95-3.6,71.21,71.21,0,0,1,15.28-1.25s20.07,27.87,39,3.34a59,59,0,0,1,14.58,4.26A49.18,49.18,0,0,1,235,108.54"/><path class="cls-12" d="M132.92,143.5s-21.68-4.18-36.17-12"/><path class="cls-12" d="M108.75,188.27s-6.36,11.89-2,24.81a1.33,1.33,0,0,0,0,.19"/><path class="cls-12" d="M237.16,231.87s-2.88,1.76-15.34.87"/><path class="cls-12" d="M131.79,85.8l.17.39c1.84,4.26,18.62,42.29,40.32,64.86a73.43,73.43,0,0,0,12.37,10.55"/><path class="cls-12" d="M137.61,84.13h0c.38.85,21,47.46,44.82,67.63a51.17,51.17,0,0,0,6.86,5"/><path class="cls-12" d="M196.18,168.87a34.94,34.94,0,0,0,3.78,1.88,97,97,0,0,0,16.58,5.36"/><path class="cls-12" d="M200.43,163.28s5.41,3.84,16,6.1l.09,0"/><path class="cls-12" d="M217,147.79s13.16,1.22,23.92,0c1.41-.17,2.78-.38,4.08-.64,0,0,.07-1.77-.11-4.73a80.92,80.92,0,0,0-4.18-21.5c-.06-.15-.1-.3-.16-.45"/><path class="cls-12" d="M219.24,143.5h0a134.87,134.87,0,0,0,25.68-1.11H245"/><path class="cls-12" d="M143.91,82.57v0c.09,1,3.13,30.1,34.23,33.31,31.61,3.27,34.56-26.76,34.56-26.76"/><path class="cls-12" d="M158.89,269.83s0,.27,0,.78c.14,5.2.6,35.33-7.24,56.5-2.7,7.32-6.4,13.58-11.44,17.36-12.53,9.4-21.2,12.74-25.26,13.9a18.16,18.16,0,0,1-2.61.59s2.23-54.63,7.8-92.54"/><path class="cls-12" d="M223.46,270.29c.19,3.27.3,6.79.37,10.49.1,6.06,0,12.56-.12,19.09-.7,28.25-3.32,57.73-3.71,57.73a22,22,0,0,1-2.65-1.46c-9.52-5.9-15.55-17.55-19.36-30.35C190.6,301,191.52,272,191.52,272"/><polyline class="cls-12" points="151.38 326.63 151.67 327.11 165.9 350.02 171.45 358.96 176.89 352.16 197.99 325.79 198.21 325.51"/><polyline class="cls-12" points="176.03 488.93 192.63 494.99 199.39 488.05"/><polyline class="cls-12" points="108.76 482.48 116.82 497.22 131.77 489.85 131.78 489.85"/><polyline class="cls-12" points="101.27 500.37 110.13 516.17 129.77 504.69 129.78 504.69"/><polyline class="cls-12" points="172.57 505.02 195.98 510.6 203.76 500.38 203.77 500.37"/><polyline class="cls-12" points="113.65 422.66 125.74 437.01 144.66 429.1"/><polyline class="cls-12" points="175.91 424.75 195.98 435.89 207.76 429.84"/><polyline class="cls-12" points="121.7 258.85 158.91 270.61 176.47 276.17 191.34 271.45 223.25 261.33"/><polyline class="cls-12" points="123.32 242.04 178.14 258.62 221.82 243.15"/><path class="cls-12" d="M125.74,220.88A165.1,165.1,0,0,0,145,226.09c20.23,4.32,52.27,7.75,75.62-6"/><path class="cls-12" d="M210.71,59.43c-.67,4.36-5.07,14.73-13,15.06a15,15,0,0,0,.46,10.19"/><path class="cls-12" d="M187.52,26.57c2.71,0,2.9-9.81,8.09-15.74s7.78-7.52,10.22-6.57S204.9,49,204.9,49a32.43,32.43,0,0,1,4.54,5.66,7.72,7.72,0,0,1,1.35,4c0,.23,0,.5-.08.79"/><path class="cls-12" d="M159.19,81.34a46.81,46.81,0,0,0,3.13-20c-.72-11.18-4.44-11.35-4-20s1.63-35.87,3-38.29,2.64-3.6,6.13,1.52c3.34,4.9,8.29,20.11,12.14,21.54a1.87,1.87,0,0,0,.51.11l7.42.33"/><path class="cls-13" d="M180,26.24a1.13,1.13,0,0,0-.51-.11c-1.89-.19-7.92,1-13.66,11.86"/><path class="cls-13" d="M167,69.09a19.08,19.08,0,0,0,4.74,2.63"/><path class="cls-13" d="M162.42,63.38a14.25,14.25,0,0,0,4.6,5.69"/><path class="cls-13" d="M187.46,26.57h.06c.63.06,6.45.71,12,8"/><path class="cls-13" d="M204.9,49a71.68,71.68,0,0,0-10-7.81"/><path class="cls-13" d="M197.75,74.49s-5-.58-15.86-7.27"/><polyline class="cls-13" points="167.03 69.08 167.03 69.09 167.95 74.03"/><polyline class="cls-14" points="171.66 46.92 176.66 45.92 180.46 50.48"/><path class="cls-12" d="M210.16,59.21a21.4,21.4,0,0,1-.8,4.29s-8.81,2.1-9.87-1.67a12.08,12.08,0,0,0-1.09-2.54c-1.32-2.45-2.74-4.25-.13-5.42,3.43-1.55,10.9.5,10.9.5a1.86,1.86,0,0,1,.25.31A7.5,7.5,0,0,1,210.16,59.21Z"/><path class="cls-12" d="M210.75,59.45l0,0h0a2.3,2.3,0,0,0-.55-.21,4.86,4.86,0,0,0-3.14.48"/><path class="cls-12" d="M198.37,59.3h0c.38-.1,3.8-1,4.88.23"/><path class="cls-13" d="M207.13,68a13.7,13.7,0,0,0-7,.1c-3.5,1.08-2.67,1.87-8,.64s-5.28-2.43-5.28-2.49"/><path class="cls-12" d="M186,42a2,2,0,0,1-2.18,1.73,1.93,1.93,0,0,1-2-1.89A2,2,0,0,1,184,40.09,1.94,1.94,0,0,1,186,42Z"/><path class="cls-15" d="M202.11,41.79a2.21,2.21,0,1,1-2.1-2.26A2.19,2.19,0,0,1,202.11,41.79Z"/><path class="cls-12" d="M163.35,11.84s-1.59,7.36.66,12.42,4.79,3.94,4.79,3.94a8.58,8.58,0,0,0,.28-6.19c-1.07-3.75-2-10-3.15-12.53S163.35,11.84,163.35,11.84Z"/><path class="cls-12" d="M202.45,12.3a.77.77,0,0,0-1.36-.17c-1.45,2.17-4.63,7.32-4.8,11.13-.23,4.94,2.24,5.06,3.54,3.88s2.71-5,2.87-8.55C202.83,15.91,202.92,13.75,202.45,12.3Z"/><path class="cls-16" d="M59,539c.54.46,0,2.51,0,3,0,3.32-13,6-29,6s-29-2.68-29-6v-4"/><ellipse class="cls-17" cx="30" cy="538" rx="29" ry="6"/><path class="cls-16" d="M49,531v4c0,2.23-8.73,4-19.5,4S10,537.23,10,535c0-.62.11-4.26,0-4"/><ellipse class="cls-17" cx="29.5" cy="531" rx="19.5" ry="4.03"/><path class="cls-16" d="M52,425V538a2.74,2.74,0,0,0,4,0V423"/><path class="cls-18" d="M44.11,500.27c6.61,14.78,2.1,24.8,2.1,24.8a11.25,11.25,0,0,1-8.5,6.89,41.49,41.49,0,0,1-16.44,0A11.4,11.4,0,0,1,12.78,525a32.83,32.83,0,0,1,2.11-24.77S30.72,506.05,44.11,500.27Z"/><path class="cls-16" d="M3,425V538a2.74,2.74,0,0,0,4,0V425"/><path class="cls-19" d="M28,480.5C9.45,501.12,9.61,516.8,12.78,524.6a11.4,11.4,0,0,0,8.49,6.89,43.86,43.86,0,0,0,16.44,0,11.48,11.48,0,0,0,8.5-6.89c3.18-7.79,3.37-23.49-15.21-44.13v-.94C58,449.56,43.13,430,43.13,430H15.87S1,449.56,28,479.56Z"/><path class="cls-17" d="M46,425v4c0,1.25-7.61,2.27-17,2.27s-17-1-17-2.27c0-.39,0-3.08,0-3"/><line class="cls-20" x1="1" y1="538" x2="1" y2="542"/><path class="cls-16" d="M1,418v4c0,3.32,12.54,6,28,6s28-2.68,28-6c0-.56,0-4.84,0-4"/><ellipse class="cls-17" cx="29" cy="418" rx="28" ry="6"/><ellipse class="cls-17" cx="54" cy="475" rx="4" ry="3"/><ellipse class="cls-17" cx="54" cy="486" rx="4" ry="3"/><ellipse class="cls-17" cx="5" cy="475" rx="4" ry="3"/><ellipse class="cls-17" cx="5" cy="486" rx="4" ry="3"/><path class="cls-15" d="M28,480.94C9.45,501.56,9.61,517.24,12.78,525a11.4,11.4,0,0,0,8.49,6.89,43.86,43.86,0,0,0,16.44,0,11.48,11.48,0,0,0,8.5-6.89c3.18-7.79,3.37-23.49-15.21-44.13V480c27-30,12.13-49.56,12.13-49.56H15.87S1,450,28,480Z"/></g></g></svg>