<svg xmlns="http://www.w3.org/2000/svg" viewBox="0 0 240.63 548"><defs><style>.cls-1{fill:#666;}.cls-2{fill:#473d3c;}.cls-3{fill:#18171f;}.cls-4{fill:#d8cecc;}.cls-5{fill:#152740;}.cls-6{fill:#585a59;}.cls-7{fill:#3e261c;}.cls-8{fill:#3e454b;}.cls-9{fill:#0a0a0a;}.cls-10{fill:#333;}.cls-11{fill:#603813;}.cls-12,.cls-13,.cls-14,.cls-15{fill:none;stroke:#000;}.cls-12,.cls-13,.cls-15{stroke-miterlimit:10;}.cls-12,.cls-13,.cls-14{stroke-width:2px;}.cls-13,.cls-14{stroke-linecap:round;}.cls-14{stroke-linejoin:round;}</style></defs><g id="Layer_2" data-name="Layer 2"><g id="Layer_1-2" data-name="Layer 1"><path class="cls-1" d="M159.44,120.89,138,143.5h0l-2.23,2.35-16.58,17.43-4.81,5.06L108,175l-4.64-4.64L238.44,28.94l-.19.39c-4.32,8.62-7.6,16.56-14.18,23.61Z"/><path class="cls-1" d="M238.44,28.94,103.35,170.36l-4.28-4.28,4.28-4.48,4.64-4.85,2.79-2.92,43.12-45.06,56.87-59.42a100.66,100.66,0,0,1,27.67-20.41Z"/><path class="cls-2" d="M159.66,147.76c-10.76,1.25-23.92,0-23.92,0,.08-1.16.12-1.78.12-1.78l-.15-.16,2.23-2.35h0a134.87,134.87,0,0,0,25.68-1.11c.17,3,.11,4.73.11,4.73C162.44,147.38,161.07,147.59,159.66,147.76Z"/><path class="cls-3" d="M159.44,120.89a80.6,80.6,0,0,1,4.19,21.5A134.87,134.87,0,0,1,138,143.5Z"/><path class="cls-4" d="M142.55,280.77a63,63,0,0,1,12.17-.1s5.67,15.86,4.56,19.2-7.81,12.26-11.15,12.26c-3.17,0,3.67-5,1.55-15a.65.65,0,0,0-1.23-.13,41.14,41.14,0,0,0-2.55,10.67c-.86,6.86-2.17-1.62-3.35-7.8h-.14c.15-6.53.22-13,.12-19.09Z"/><path class="cls-5" d="M155.85,231.87c.7,18.45.47,32.32,1.2,49.05,0,0-.88-.13-2.33-.25a63,63,0,0,0-12.17.1c.08-3.35-.39-9.11-.39-12.39,0-2.36,0-4.71-.09-7.05-.12-6.17-.4-12.26-.79-18.22-.21-3.5-.47-7-.76-10.37C153,233.63,155.85,231.87,155.85,231.87Z"/><path class="cls-3" d="M153.9,108.77l-43.12,45.06s-.06-1.28-9.48-2.25l-.17.19C77.34,131.6,56.69,85,56.31,84.14a52.25,52.25,0,0,1,6.3-1.55c.09,1,3.13,30.1,34.23,33.31,31.61,3.27,34.56-26.76,34.56-26.76l.09-.2a49.18,49.18,0,0,1,22.18,19.6Z"/><path class="cls-4" d="M135.15,169.38c-.06-10.08.38-18.16.59-21.59,0,0,13.16,1.22,23.92,0-2.36,17.6-6.94,38.12-6,49.53,1.16,13.58,1.79,24.73,2.15,34.58,0,0-2.87,1.76-15.33.87-.36-4.32-.77-8.55-1.2-12.68-.74-6.89-1.54-13.51-2.34-19.76s-1.31-12.88-1.57-19.08c-.07-1.74-.13-3.44-.17-5.11C135.18,173.79,135.15,171.54,135.15,169.38Z"/><path class="cls-5" d="M142.53,280.78c.1,6.06,0,12.56-.12,19.09-.7,28.25-3.32,57.73-3.71,57.73a22,22,0,0,1-2.65-1.46c-9.52-5.9-15.55-17.55-19.36-30.35C109.29,301,110.22,272,110.22,272l-.18-.55L142,261.33h.12c.06,2.34.08,4.69.09,7.05,0,3.28.47,9,.39,12.39Z"/><path class="cls-3" d="M77.61,270.61,40.4,258.85l-.51-.07Q41,249.47,41.77,242l.25,0,54.82,16.58,43.68-15.47.76,0c.39,6,.67,12,.79,18.22H142L110,271.45l-14.87,4.72Z"/><path class="cls-6" d="M141.28,243.11l-.76,0L96.84,258.62,42,242l-.25,0c.95-9,1.56-16,2-21.2l.69.06a165.1,165.1,0,0,0,19.25,5.21c20.23,4.32,52.27,7.75,75.62-6h0c.43,4.13.84,8.36,1.2,12.68C140.81,236.15,141.07,239.61,141.28,243.11Z"/><path class="cls-7" d="M122.46,500.38c7.61,12.41,21.8,20.89,17.86,28.06-5.19,9.45-21.52,10.79-39-7.81-7.63-8.1-10.16-12.34-10.46-15.56l.42-.05,23.42,5.58Z"/><path class="cls-8" d="M139.32,220.06h0c-23.35,13.78-55.39,10.35-75.62,6l.6-2.79a2.86,2.86,0,0,0,3.2-2.34l1.11-6.16,5.81-7.3a11.34,11.34,0,0,0,1.25,3.17c.83,1.26,3.12-.9,2.36-6.25a5.8,5.8,0,0,0,5.44,4c1.53,0,1.55-1.85.93-4.41l.19-.05s3.48,2.62,3.52-4.5c1-.2,5.52-1.3,6.51-3.3.64-1.27-2-5.83-5.22-9.91a45.49,45.49,0,0,0,23.06,11l1.11-4.46a48.8,48.8,0,0,1-16.06-7.35l2.68-2.68s7.81,0,7.81-7.8l6.33-6.66.56.53a33.7,33.7,0,0,0,3.78,1.88,10.41,10.41,0,0,0,2.71,5.36c4.12,4,14,5.11,14,5.11.26,6.2.74,12.71,1.57,19.08S138.58,213.17,139.32,220.06Z"/><path class="cls-9" d="M136.05,356.14l-.22.35c-1.51,15.8-3.07,31.9-4.43,43.73-.69,6-1.71,12.39-2.91,18.93-20,2-33.11-3.58-34.81-4.35-.05-1.15-.12-2.3-.19-3.43-1.11-19,1.12-42.37,2.23-59.1l-.13-.11,21.1-26.37C120.5,338.59,126.53,350.24,136.05,356.14Z"/><path class="cls-3" d="M135.71,145.85l.15.16s0,.62-.12,1.78c-.21,3.43-.65,11.51-.59,21.59-10.61-2.26-16-6.1-16-6.1Z"/><path class="cls-3" d="M135.24,176.11c0,1.67.1,3.37.17,5.11,0,0-9.92-1.06-14-5.11a10.41,10.41,0,0,1-2.71-5.36A97,97,0,0,0,135.24,176.11Z"/><path class="cls-2" d="M118.66,170.75a33.7,33.7,0,0,1-3.78-1.88l-.56-.53,4.81-5.06s5.41,3.84,16,6.1c0,2.16,0,4.41.09,6.73A97,97,0,0,1,118.66,170.75Z"/><path class="cls-5" d="M131.49,88.94l-.09.2s-3,30-34.56,26.76c-31.1-3.21-34.14-32.36-34.23-33.31a71.21,71.21,0,0,1,15.28-1.25s20.06,27.87,39,3.34A59,59,0,0,1,131.49,88.94Z"/><path class="cls-4" d="M98.23,26.13a1.87,1.87,0,0,0,.51.11l7.42.33h.06c2.71,0,2.9-9.81,8.09-15.74s7.78-7.52,10.21-6.57S123.6,49,123.6,49a32.43,32.43,0,0,1,4.54,5.66h0a1.62,1.62,0,0,0-.24-.31s-7.47-2-10.91-.5c-2.6,1.17-1.18,3,.14,5.42a12.63,12.63,0,0,1,1.09,2.54c1.06,3.77,9.87,1.67,9.87,1.67a21.4,21.4,0,0,0,.8-4.29,2.3,2.3,0,0,1,.55.21h0a24.69,24.69,0,0,1-3.48,8.6l-.1-.07a13.7,13.7,0,0,0-7,.1c-3.5,1.08-2.67,1.87-8,.64a17.29,17.29,0,0,1-4-1.32l-2.53,2.07c8.23,4.6,12.07,5,12.07,5a15,15,0,0,0,.46,10.19c-19,24.53-39-3.34-39-3.34a47,47,0,0,0,3.13-20c-.73-11.18-4.44-11.35-4-20S78.61,5.49,80,3.07s2.64-3.6,6.13,1.52C89.43,9.49,94.38,24.7,98.23,26.13Zm23.17-7.54c.12-2.68.21-4.84-.25-6.29a.77.77,0,0,0-1.36-.17c-1.45,2.17-4.63,7.32-4.8,11.13-.23,4.94,2.24,5.06,3.54,3.88S121.23,22.15,121.4,18.59Zm-.59,23.2a2.21,2.21,0,1,0-2.31,2.06A2.18,2.18,0,0,0,120.81,41.79Zm-16.17.2a1.92,1.92,0,0,0-2-1.9,2,2,0,0,0-2.19,1.74,2,2,0,0,0,2,1.89A2,2,0,0,0,104.64,42ZM87.5,28.2A8.58,8.58,0,0,0,87.78,22c-1.08-3.75-2-10-3.15-12.53S82,11.84,82,11.84s-1.58,7.36.67,12.42S87.5,28.2,87.5,28.2Z"/><path class="cls-10" d="M117.1,59.29c-1.32-2.45-2.74-4.25-.14-5.42,3.44-1.55,10.91.5,10.91.5a1.62,1.62,0,0,1,.24.31,7.39,7.39,0,0,1,.75,4.53,21.4,21.4,0,0,1-.8,4.29s-8.81,2.1-9.87-1.67A12.63,12.63,0,0,0,117.1,59.29Z"/><path class="cls-3" d="M128.49,419.15c-.63,3.53-1.32,7.11-2,10.69l-11.78,6.05L94.61,424.74l-.42,0c-.15-3.35-.32-6.69-.51-10C95.38,415.57,108.47,421.11,128.49,419.15Z"/><path class="cls-7" d="M114.68,435.89l11.78-6.05c-4.27,21.75-9.19,43.68-8.44,57.34,0,.29,0,.58.07.87L111.33,495l-16.6-6.06c.82-12.26.58-38.73-.54-64.16l.42,0Z"/><path class="cls-4" d="M125.83,68l.1.07c-2.19,3.38-5.36,6.29-9.48,6.46,0,0-3.84-.44-12.07-5l2.53-2.07a17.29,17.29,0,0,0,4,1.32c5.33,1.23,4.5.44,8-.64A13.7,13.7,0,0,1,125.83,68Z"/><path class="cls-3" d="M122.46,500.38l-7.78,10.22L91.26,505l-.42.05c-.43-4.34,3.13-6.88,3.77-14.54,0-.5.08-1,.12-1.6l16.6,6.06,6.76-6.94A28.66,28.66,0,0,0,122.46,500.38Z"/><path class="cls-10" d="M121.15,12.3c.46,1.45.37,3.61.25,6.29-.17,3.56-1.58,7.37-2.87,8.55s-3.77,1.06-3.54-3.88c.17-3.81,3.35-9,4.8-11.13A.77.77,0,0,1,121.15,12.3Z"/><path d="M118.7,39.53a2.16,2.16,0,1,1-2.3,2.06A2.18,2.18,0,0,1,118.7,39.53Z"/><path class="cls-6" d="M116.69,325.79l-21.1,26.37L90.15,359,84.6,350,70.37,327.11c7.84-21.17,7.38-51.3,7.24-56.5l17.56,5.56L110,271.45l.18.55S109.29,301,116.69,325.79Z"/><path class="cls-5" d="M97.5,185.48a48.8,48.8,0,0,0,16.06,7.35l-1.11,4.46a45.49,45.49,0,0,1-23.06-11,39.59,39.59,0,0,0-4.76-5.19,43.32,43.32,0,0,1-7.86-17.23l6.69-1.12a29.65,29.65,0,0,0,5.13,13.63A35.56,35.56,0,0,0,97.5,185.48Z"/><path class="cls-8" d="M110.78,153.83,108,156.75a51.17,51.17,0,0,1-6.86-5l.17-.19C110.72,152.55,110.78,153.83,110.78,153.83Z"/><path class="cls-2" d="M108,156.75l-4.64,4.85A73.43,73.43,0,0,1,91,151.05c-21.7-22.57-38.48-60.6-40.32-64.86a52.25,52.25,0,0,1,5.65-2c.38.85,21,47.46,44.82,67.63A51.17,51.17,0,0,0,108,156.75Z"/><path class="cls-10" d="M103.35,170.36,108,175c0,7.8-7.81,7.8-7.81,7.8l-2.68,2.68a35.56,35.56,0,0,1-8.91-9.12l.11-.08,2.56-3a7.27,7.27,0,0,1,7.81-7.22Z"/><path d="M102.66,40.09a1.92,1.92,0,0,1,2,1.9,2,2,0,0,1-2.17,1.73,2,2,0,0,1-2-1.89A2,2,0,0,1,102.66,40.09Z"/><path class="cls-8" d="M103.35,161.6l-4.28,4.48a7.27,7.27,0,0,0-7.81,7.22l-2.56,3-.11.08a29.65,29.65,0,0,1-5.13-13.63l-6.69,1.12a43.32,43.32,0,0,0,7.86,17.23,11.51,11.51,0,0,0-2.28-1.62c-4.46-2.23-26,7.8-26,7.8a59.45,59.45,0,0,1-12.5,1.86l1.46-13,.28,0s13.76,2.23,20.82,0S65,149.6,88.7,151.15c.33,0,1.78,0,2.11.06l.17-.16A73.43,73.43,0,0,0,103.35,161.6Z"/><path class="cls-4" d="M78,204.42c.76,5.35-1.53,7.51-2.36,6.25a11.34,11.34,0,0,1-1.25-3.17c-.92-3.18-1.55-5.94-6.31-.17-.88,1.06-2.47,1.48-4.24,1.54a31.41,31.41,0,0,1-9.29-1.54s-6.45-5.58,1.74-20.07c0,0,21.58-10,26-7.8a11.51,11.51,0,0,1,2.28,1.62,39.8,39.8,0,0,0,4.76,5.19c3.21,4.08,5.86,8.64,5.22,9.91-1,2-5.55,3.1-6.51,3.3,0,7.12-3.52,4.5-3.52,4.5l-.19.05c.62,2.56.6,4.41-.93,4.41A5.8,5.8,0,0,1,78,204.42Z"/><path class="cls-3" d="M51.62,143.5s-21.68-4.18-36.17-12h0c2.6-10.94,11-35,35.25-45.31C52.5,90.45,69.28,128.48,91,151.05l-.17.16c-.33,0-1.78,0-2.11-.06-23.75-1.55-15.27,22.73-22.33,25s-20.82,0-20.82,0l-.28,0,1.32-11.75a151.25,151.25,0,0,0,4.08-15.83C51,146.9,51.32,145.23,51.62,143.5Z"/><path class="cls-10" d="M87.78,22a8.58,8.58,0,0,1-.28,6.19S85,29.33,82.71,24.26,82,11.84,82,11.84,83.5,7,84.63,9.48,86.7,18.26,87.78,22Z"/><path class="cls-9" d="M70.37,327.11,84.6,350l0,0c-2.42,10.92-3.22,11.86-7.81,29-4.23,15.77-6.87,24-11,40.14h-.19c-25.64,1.12-33.27-7.51-33.27-7.51.13-15.39.37-33,1.32-53.29,4-1.16,12.73-4.5,25.26-13.9C64,340.69,67.67,334.43,70.37,327.11Z"/><path class="cls-5" d="M39,266.43c.34-2.65.65-5.19.94-7.65l.51.07,37.21,11.76c.14,5.2.6,35.33-7.24,56.5-2.7,7.32-6.4,13.58-11.44,17.36-12.53,9.4-21.21,12.74-25.26,13.9a18.16,18.16,0,0,1-2.61.59s2.23-54.63,7.8-92.54Z"/><path class="cls-11" d="M74.41,207.5l-5.81,7.3-7.44-4.13,2.7-1.8c1.77-.06,3.36-.48,4.24-1.54C72.86,201.56,73.49,204.32,74.41,207.5Z"/><path class="cls-1" d="M68.6,214.8,67.49,221a2.82,2.82,0,0,1-4.34,1.9L55.56,218a2.85,2.85,0,0,1,.39-5l5.21-2.32Z"/><path class="cls-3" d="M65.62,419.17h.19c-.76,3-1.57,6.28-2.45,9.93L44.44,437,32.35,422.66h-.08q0-5.3.08-11S40,420.29,65.62,419.17Z"/><path class="cls-8" d="M64.29,223.3l-.6,2.79a165.1,165.1,0,0,1-19.25-5.21l-.69-.06c.45-6,.62-9.58.66-10.78,6-1.4,10.16-2.71,10.16-2.71a31.41,31.41,0,0,0,9.29,1.54l-2.7,1.8L56,213a2.85,2.85,0,0,0-.39,5l7.59,4.87A2.85,2.85,0,0,0,64.29,223.3Z"/><path class="cls-7" d="M44.44,437l18.92-7.91c-2.8,11.58-6.3,26.91-11.12,49.16a110.23,110.23,0,0,0-1.77,11.59l-14.95,7.37-8.06-14.74c4.33-13.46,4.62-32.68,4.81-59.82h.08Z"/><path class="cls-5" d="M44.41,210a127.85,127.85,0,0,1-19,3c-4.34-12.92,2-24.81,2-24.81a76.46,76.46,0,0,0,16.37.85,59.45,59.45,0,0,0,12.5-1.86c-8.19,14.49-1.74,20.07-1.74,20.07S50.41,208.64,44.41,210Z"/><path class="cls-2" d="M51.62,143.5c-.3,1.73-.62,3.4-.95,5A116.2,116.2,0,0,1,17,138.45c-.9-.44-1.78-.89-2.66-1.36a56.14,56.14,0,0,1,1.08-5.59h0C29.94,139.32,51.62,143.5,51.62,143.5Z"/><path class="cls-3" d="M35.52,497.22l14.95-7.37c-.45,4-.9,8.53-2,14.84L28.83,516.17,20,500.37c2.38-5.23,4.74-10.44,6.64-15.42.3-.8.59-1.63.86-2.47Z"/><path class="cls-7" d="M28.83,516.17l19.64-11.48c-.83,4.93-2.06,11-3.93,18.75C41.48,536.11,25,552.56,14.33,545.16,3,537.34,11.59,518.81,20,500.37Z"/><path class="cls-4" d="M27.44,188.27s-6.35,11.89-2,24.81c-9.55.69-18.65-.34-22.25-5.75-7.63-11.45,6.69-43.23,13.38-68l.43-.87A116.2,116.2,0,0,0,50.67,148.5a151.25,151.25,0,0,1-4.08,15.83C42.49,177.2,38,184.66,35.7,189.14A74.71,74.71,0,0,1,27.44,188.27Z"/><path class="cls-12" d="M159.75,147.1c0,.22-.06.43-.09.66-2.36,17.6-6.94,38.12-6,49.53,1.16,13.58,1.79,24.73,2.15,34.58.7,18.45.47,32.32,1.2,49.05,0,0-.88-.13-2.33-.25a63,63,0,0,0-12.17.1h0c-.36,0-.72.08-1.09.14"/><path class="cls-12" d="M135.83,356.49c-1.51,15.8-3.07,31.9-4.43,43.73-.69,6-1.71,12.39-2.91,18.93-.63,3.53-1.32,7.11-2,10.69-4.27,21.75-9.19,43.68-8.44,57.34,0,.29,0,.58.07.87a28.66,28.66,0,0,0,4.37,12.33c7.61,12.41,21.8,20.89,17.86,28.06-5.19,9.45-21.52,10.79-39-7.81-7.63-8.1-10.16-12.34-10.46-15.56-.43-4.34,3.13-6.88,3.77-14.54,0-.5.08-1,.12-1.6.82-12.26.58-38.73-.54-64.16-.15-3.35-.32-6.69-.51-10-.05-1.15-.12-2.3-.19-3.43-1.11-19,1.12-42.37,2.23-59.1"/><path class="cls-12" d="M135.86,146s0,.62-.12,1.78c-.21,3.43-.65,11.51-.59,21.59,0,2.16,0,4.41.09,6.73,0,1.67.1,3.37.17,5.11.26,6.2.74,12.71,1.57,19.08s1.6,12.87,2.34,19.76c.43,4.13.84,8.36,1.2,12.68.29,3.41.55,6.87.76,10.37.39,6,.67,12,.79,18.22.06,2.34.08,4.69.09,7.05,0,3.28.47,9,.39,12.39v.15"/><path class="cls-12" d="M16.56,139.32c-6.69,24.78-21,56.56-13.38,68,3.6,5.41,12.7,6.44,22.25,5.75a127.85,127.85,0,0,0,19-3c6-1.4,10.16-2.71,10.16-2.71s-6.45-5.58,1.74-20.07a59.45,59.45,0,0,1-12.5,1.86,76.46,76.46,0,0,1-16.37-.85q-2.52-.39-5.16-1"/><path class="cls-12" d="M35.52,189.49c0-.11.11-.22.18-.35,2.26-4.48,6.79-11.94,10.89-24.81a151.25,151.25,0,0,0,4.08-15.83c.33-1.6.65-3.27.95-5,.81-4.67,1.51-9.77,2.07-15.33"/><path class="cls-12" d="M33.71,357.37c0,.33,0,.67,0,1-1,20.25-1.19,37.9-1.32,53.29q0,5.7-.08,11c-.19,27.14-.48,46.36-4.81,59.82-.27.84-.56,1.67-.86,2.47-1.9,5-4.26,10.19-6.64,15.42-8.37,18.44-16.92,37-5.63,44.79,10.7,7.4,27.15-9,30.21-21.72,1.87-7.79,3.1-13.82,3.93-18.75,1.1-6.31,1.55-10.8,2-14.84a110.23,110.23,0,0,1,1.77-11.59c4.82-22.25,8.32-37.58,11.12-49.16.88-3.65,1.69-6.93,2.45-9.93,4.09-16.12,6.73-24.37,11-40.14,4.59-17.13,5.39-18.07,7.81-29"/><path class="cls-12" d="M44.44,209.56s0,.16,0,.48c0,1.2-.21,4.73-.66,10.78-.42,5.17-1,12.19-2,21.2q-.78,7.46-1.88,16.76c-.29,2.46-.6,5-.94,7.65,0,.16,0,.31-.05.47"/><path class="cls-12" d="M154.72,280.67s5.67,15.86,4.56,19.2-7.81,12.26-11.15,12.26c-3.17,0,3.67-5,1.55-15a.65.65,0,0,0-1.23-.13,41.14,41.14,0,0,0-2.55,10.67c-.86,6.86-2.17-1.62-3.35-7.8"/><polyline class="cls-12" points="46.63 163.92 46.59 164.32 45.27 176.08 43.81 189.12"/><path class="cls-12" d="M56.31,187.26s21.58-10,26-7.8a11.51,11.51,0,0,1,2.28,1.62,39.59,39.59,0,0,1,4.76,5.19c3.21,4.08,5.86,8.64,5.22,9.91-1,2-5.55,3.1-6.51,3.3l-.18,0"/><path class="cls-12" d="M77.89,185s8.92,0,10,11.15a33,33,0,0,1,.18,3.3c0,7.12-3.52,4.5-3.52,4.5"/><path class="cls-12" d="M78,204.37a2.8,2.8,0,0,1-.12-.39"/><path class="cls-12" d="M76.77,190.56s1.9-2,4.46,4.5a81,81,0,0,1,3.16,9c.62,2.56.6,4.41-.93,4.41a5.8,5.8,0,0,1-5.44-4"/><path class="cls-12" d="M54.57,207.33a31.41,31.41,0,0,0,9.29,1.54c1.77-.06,3.36-.48,4.24-1.54,4.76-5.77,5.39-3,6.31.17a11.34,11.34,0,0,0,1.25,3.17c.83,1.26,3.12-.9,2.36-6.25a.07.07,0,0,1,0,0q-.06-.35-.12-.72c-1.12-5.92-5-7.67-5-7.67"/><polyline class="cls-12" points="64.51 208.44 63.86 208.87 61.16 210.67 68.6 214.8 74.41 207.5 74.54 207.33"/><path class="cls-12" d="M61.16,210.67,56,213a2.85,2.85,0,0,0-.39,5l7.59,4.87a2.82,2.82,0,0,0,4.34-1.9l1.11-6.16"/><path class="cls-12" d="M84.63,181.08a43.32,43.32,0,0,1-7.86-17.23l6.69-1.12a29.65,29.65,0,0,0,5.13,13.63,35.56,35.56,0,0,0,8.91,9.12,48.8,48.8,0,0,0,16.06,7.35l-1.11,4.46a45.49,45.49,0,0,1-23.06-11A39.8,39.8,0,0,1,84.63,181.08Z"/><path class="cls-12" d="M88.7,176.28l2.56-3a7.27,7.27,0,0,1,7.81-7.22l4.28,4.28L108,175c0,7.8-7.81,7.8-7.81,7.8l-2.68,2.68-.67.66"/><path class="cls-12" d="M138,143.5l21.49-22.61,64.63-67.95c6.58-7,9.86-15,14.18-23.61l.19-.39a100.66,100.66,0,0,0-27.67,20.41L153.9,108.77l-43.12,45.06L108,156.75l-4.64,4.85-4.28,4.48"/><polyline class="cls-12" points="107.99 175 114.32 168.34 119.13 163.28 135.71 145.85 137.94 143.5"/><line class="cls-12" x1="238.44" y1="28.94" x2="103.35" y2="170.36"/><path class="cls-12" d="M93.49,414.71l.19.09c1.7.77,14.79,6.31,34.81,4.35l.24,0"/><path class="cls-12" d="M32.35,411.66s7.63,8.63,33.27,7.51"/><path class="cls-12" d="M90.81,151.21c-.33,0-1.78,0-2.11-.06-23.75-1.55-15.27,22.73-22.33,25s-20.82,0-20.82,0"/><path class="cls-12" d="M110.78,153.83s-.06-1.28-9.48-2.25"/><path class="cls-12" d="M118.57,170.36c0,.13.06.25.09.39a10.41,10.41,0,0,0,2.71,5.36c4.12,4,14,5.11,14,5.11"/><path class="cls-12" d="M50.67,148.5A116.2,116.2,0,0,1,17,138.45c-.9-.44-1.78-.89-2.66-1.36a56.14,56.14,0,0,1,1.08-5.59c2.6-10.94,11-35,35.25-45.31a58.53,58.53,0,0,1,12-3.6,71.21,71.21,0,0,1,15.28-1.25s20.06,27.87,39,3.34a59,59,0,0,1,14.58,4.26,49.18,49.18,0,0,1,22.18,19.6"/><path class="cls-12" d="M51.62,143.5s-21.68-4.18-36.17-12"/><path class="cls-12" d="M27.44,188.27s-6.35,11.89-2,24.81a1.33,1.33,0,0,0,.05.19"/><path class="cls-12" d="M155.85,231.87s-2.87,1.76-15.33.87"/><path class="cls-12" d="M50.49,85.8l.17.39C52.5,90.45,69.28,128.48,91,151.05a73.43,73.43,0,0,0,12.37,10.55"/><path class="cls-12" d="M56.31,84.13h0c.38.85,21,47.46,44.82,67.63a51.17,51.17,0,0,0,6.86,5"/><path class="cls-12" d="M114.88,168.87a33.7,33.7,0,0,0,3.78,1.88,97,97,0,0,0,16.58,5.36"/><path class="cls-12" d="M119.13,163.28s5.41,3.84,16,6.1l.09,0"/><path class="cls-12" d="M135.74,147.79s13.16,1.22,23.92,0c1.41-.17,2.78-.38,4.08-.64,0,0,.06-1.77-.11-4.73a80.6,80.6,0,0,0-4.19-21.5l-.15-.45"/><path class="cls-12" d="M137.94,143.5h0a134.87,134.87,0,0,0,25.68-1.11h.06"/><path class="cls-12" d="M62.61,82.57v0c.09,1,3.13,30.1,34.23,33.31,31.61,3.27,34.56-26.76,34.56-26.76"/><path class="cls-12" d="M77.58,269.83s0,.27,0,.78c.14,5.2.6,35.33-7.24,56.5-2.7,7.32-6.4,13.58-11.44,17.36-12.53,9.4-21.21,12.74-25.26,13.9a18.16,18.16,0,0,1-2.61.59s2.23-54.63,7.8-92.54"/><path class="cls-12" d="M142.16,270.29c.19,3.27.3,6.79.37,10.49.1,6.06,0,12.56-.12,19.09-.7,28.25-3.32,57.73-3.71,57.73a22,22,0,0,1-2.65-1.46c-9.52-5.9-15.55-17.55-19.36-30.35C109.29,301,110.22,272,110.22,272"/><polyline class="cls-12" points="70.08 326.63 70.37 327.11 84.6 350.02 90.15 358.96 95.59 352.16 116.69 325.79 116.91 325.51"/><polyline class="cls-12" points="94.73 488.93 111.33 494.99 118.09 488.05"/><polyline class="cls-12" points="27.46 482.48 35.52 497.22 50.47 489.85 50.48 489.85"/><polyline class="cls-12" points="19.96 500.37 28.83 516.17 48.47 504.69 48.48 504.69"/><polyline class="cls-12" points="91.27 505.02 114.68 510.6 122.46 500.38 122.47 500.37"/><polyline class="cls-12" points="32.35 422.66 44.44 437.01 63.36 429.1"/><polyline class="cls-12" points="94.61 424.75 114.68 435.89 126.46 429.84"/><polyline class="cls-12" points="40.4 258.85 77.61 270.61 95.17 276.17 110.04 271.45 141.95 261.33"/><polyline class="cls-12" points="42.02 242.04 96.84 258.62 140.52 243.15"/><path class="cls-12" d="M44.44,220.88a165.1,165.1,0,0,0,19.25,5.21c20.23,4.32,52.27,7.75,75.62-6"/><path class="cls-12" d="M129.41,59.43a24.69,24.69,0,0,1-3.48,8.6c-2.19,3.38-5.36,6.29-9.48,6.46a15,15,0,0,0,.46,10.19"/><path class="cls-12" d="M106.22,26.57c2.71,0,2.9-9.81,8.09-15.74s7.78-7.52,10.21-6.57S123.6,49,123.6,49a32.43,32.43,0,0,1,4.54,5.66,7.72,7.72,0,0,1,1.35,4c0,.23,0,.5-.08.79"/><path class="cls-12" d="M77.89,81.34a47,47,0,0,0,3.13-20c-.73-11.18-4.44-11.35-4-20S78.61,5.49,80,3.07s2.64-3.6,6.13,1.52c3.34,4.9,8.29,20.11,12.14,21.54a1.87,1.87,0,0,0,.51.11l7.42.33"/><path class="cls-13" d="M98.74,26.24a1.17,1.17,0,0,0-.51-.11c-1.89-.19-7.92,1-13.67,11.86"/><path class="cls-13" d="M85.72,69.09a19.08,19.08,0,0,0,4.74,2.63"/><path class="cls-13" d="M81.12,63.38a14.25,14.25,0,0,0,4.6,5.69"/><path class="cls-13" d="M106.16,26.57h.06c.63.06,6.45.71,12,8"/><path class="cls-13" d="M123.6,49a71.48,71.48,0,0,0-10-7.81"/><path class="cls-13" d="M116.45,74.49s-3.84-.44-12.07-5q-1.75-1-3.79-2.23"/><polyline class="cls-13" points="85.72 69.08 85.72 69.09 86.65 74.03"/><polyline class="cls-14" points="90.36 46.92 95.36 45.92 99.16 50.48"/><path class="cls-12" d="M128.86,59.21a21.4,21.4,0,0,1-.8,4.29s-8.81,2.1-9.87-1.67a12.63,12.63,0,0,0-1.09-2.54c-1.32-2.45-2.74-4.25-.14-5.42,3.44-1.55,10.91.5,10.91.5a1.62,1.62,0,0,1,.24.31A7.39,7.39,0,0,1,128.86,59.21Z"/><path class="cls-12" d="M129.45,59.45l0,0h0a2.3,2.3,0,0,0-.55-.21,4.86,4.86,0,0,0-3.14.48"/><path class="cls-12" d="M117.06,59.3h0c.38-.1,3.8-1,4.88.23"/><path class="cls-13" d="M105.59,66.21s0,.51,1.32,1.17a17.29,17.29,0,0,0,4,1.32c5.33,1.23,4.5.44,8-.64a13.7,13.7,0,0,1,7-.1"/><path class="cls-12" d="M104.64,42a2,2,0,0,1-2.17,1.73,2,2,0,0,1-2-1.89,2,2,0,0,1,2.19-1.74A1.92,1.92,0,0,1,104.64,42Z"/><path class="cls-15" d="M120.81,41.79a2.21,2.21,0,1,1-2.11-2.26A2.19,2.19,0,0,1,120.81,41.79Z"/><path class="cls-12" d="M82,11.84s-1.58,7.36.67,12.42S87.5,28.2,87.5,28.2A8.58,8.58,0,0,0,87.78,22c-1.08-3.75-2-10-3.15-12.53S82,11.84,82,11.84Z"/><path class="cls-12" d="M121.15,12.3a.77.77,0,0,0-1.36-.17c-1.45,2.17-4.63,7.32-4.8,11.13-.23,4.94,2.24,5.06,3.54,3.88s2.7-5,2.87-8.55C121.52,15.91,121.61,13.75,121.15,12.3Z"/></g></g></svg>