<svg xmlns="http://www.w3.org/2000/svg" viewBox="0 0 2405.12 959.8"><defs><style>.cls-1{fill:none;stroke:#28a9f0;stroke-miterlimit:10;stroke-width:7px;}.cls-2{fill:#28a9f0;}</style></defs><g id="Layer_2" data-name="Layer 2"><g id="Front_Page" data-name="Front Page"><g id="Comic_Elements" data-name="Comic Elements"><polyline class="cls-1" points="3.5 186.1 3.5 62.29 14.07 62.29"/><polyline class="cls-1" points="32.7 62.29 43.34 62.29 43.34 33.88"/><polyline class="cls-1" points="43.34 14.97 43.34 4.39 3.5 4.39 3.5 43.95 33.85 43.95"/><polyline class="cls-1" points="52.77 43.95 62.54 43.95 62.54 4.39 186.36 4.39"/><line class="cls-1" x1="23.42" y1="186.1" x2="23.42" y2="53.09"/><polyline class="cls-1" points="23.42 33.88 23.42 24.17 52.77 24.17"/><line class="cls-1" x1="72.25" y1="24.17" x2="186.36" y2="24.17"/><polyline class="cls-1" points="185.21 956.3 61.4 956.3 61.4 945.73"/><polyline class="cls-1" points="61.4 927.1 61.4 916.46 32.99 916.46"/><polyline class="cls-1" points="14.07 916.46 3.5 916.46 3.5 956.3 43.05 956.3 43.05 925.95"/><polyline class="cls-1" points="43.05 907.03 43.05 897.25 3.5 897.25 3.5 773.44"/><line class="cls-1" x1="185.21" y1="936.38" x2="52.19" y2="936.38"/><polyline class="cls-1" points="32.99 936.38 23.28 936.38 23.28 907.03"/><line class="cls-1" x1="23.28" y1="887.54" x2="23.28" y2="773.44"/><polyline class="cls-1" points="2400.72 773.35 2400.72 897.16 2390.14 897.16"/><polyline class="cls-1" points="2371.51 897.16 2360.88 897.16 2360.88 925.57"/><polyline class="cls-1" points="2360.88 944.49 2360.88 955.06 2400.72 955.06 2400.72 915.51 2370.37 915.51"/><polyline class="cls-1" points="2351.45 915.51 2341.67 915.51 2341.67 955.06 2217.86 955.06"/><line class="cls-1" x1="2380.8" y1="773.35" x2="2380.8" y2="906.37"/><polyline class="cls-1" points="2380.8 925.57 2380.8 935.28 2351.45 935.28"/><line class="cls-1" x1="2331.96" y1="935.28" x2="2217.86" y2="935.28"/><polyline class="cls-1" points="2219.91 3.5 2343.73 3.5 2343.73 14.07"/><polyline class="cls-1" points="2343.73 32.7 2343.73 43.34 2372.13 43.34"/><polyline class="cls-1" points="2391.05 43.34 2401.62 43.34 2401.62 3.5 2362.07 3.5 2362.07 33.85"/><polyline class="cls-1" points="2362.07 52.77 2362.07 62.54 2401.62 62.54 2401.62 186.36"/><line class="cls-1" x1="2219.91" y1="23.42" x2="2352.93" y2="23.42"/><polyline class="cls-1" points="2372.13 23.42 2381.85 23.42 2381.85 52.77"/><line class="cls-1" x1="2381.85" y1="72.25" x2="2381.85" y2="186.36"/><path class="cls-2" d="M324.38,296.29c32.36,3.32,59.89,14.21,82.57,33s34.18,44.77,34.18,78.34c0,40.23-16.33,74.41-49,102.84s-76.52,42.64-131.57,42.64c-31.45,0-60.19-.3-86.5-1.21H119.31v-10c7.56,0,13.31,0,17.24-.3A104.58,104.58,0,0,0,152,538.86c6.35-1.51,11.19-3.63,14.52-6.66a41,41,0,0,0,9.07-13,48.46,48.46,0,0,0,4.23-20.87v-327c0-8.17-1.21-15.12-3.93-20.87s-5.74-10-9.07-12.7-8.17-4.84-14.52-6.35a104.73,104.73,0,0,0-15.42-2.73c-3.94-.3-9.68-.3-17.24-.3v-10h54.14q15.42,0,56.25-.91t50.82-.9c34.78,0,64.42,7.25,89.22,21.47s37.2,36,37.2,65.33q-.45,64.88-82.57,92.55ZM267.21,531q29.49,0,52.63-8.16c15.43-5.45,27.53-12.4,36.3-20.57a99.27,99.27,0,0,0,21.47-28.43q8.17-16.33,10.89-29.94a138.93,138.93,0,0,0,2.72-27.53c0-28.43-9.37-52.63-27.82-72.29s-44.46-29.64-78-29.64H258.14V298.1h4.24c31.15,0,55.35-9.07,72.59-27.52s26-38.42,26-60.19q0-32.22-22.69-53.54c-15.12-14.21-37.5-21.47-66.84-21.47-22.38,0-40.23,1.81-53.84,5.44v1.82c4.54,5.74,6.66,14.52,6.35,26v332.1c0,11.49-2.11,20.26-6.65,26v1.81c23.89,1.52,40.53,2.42,49.6,2.42Z"/><path class="cls-2" d="M709.53,478.56l-12,62.09H491.73v-7.59c5.75,0,10.12,0,13.11-.23a79.54,79.54,0,0,0,11.73-2.07c4.83-1.15,8.51-2.76,11-5.06a31.08,31.08,0,0,0,6.89-9.89A36.79,36.79,0,0,0,537.72,500V251.32c0-6.21-.92-11.5-3-15.87s-4.36-7.58-6.89-9.65-6.21-3.68-11-4.83a79.54,79.54,0,0,0-11.73-2.07c-3-.23-7.36-.23-13.11-.23v-7.59H663.07c11,0,17.94-1.61,20.7-4.6H687l-6,56.57-6.67-.92c0-11.73-2.07-19.78-6.21-23.92s-13.8-6.2-29.21-6.2H566.47v1.38c3.45,4.36,5.06,11,4.83,19.77v74.75c0,8.74-1.61,15.41-5.06,19.78v1.38h66.93c14.49,0,23.69-2.3,27.6-6.67s6-11.27,6-20.7h7.13v72.45h-7.13c0-9.43-1.84-16.33-5.75-20.7s-13.11-6.67-27.6-6.67H566.47v1.38q5.17,6.55,4.83,22.08V496.73c0,8.73-1.61,15.4-5.06,19.77v1.38h92.23q21.74,0,29.67-9.66c5.29-6.43,9.89-16.78,13.8-31.27Z"/><path class="cls-2" d="M2001.37,146.33l-6.21,64.4-5.52-.92c.69-14-1.15-23.69-5.52-28.75s-14.26-7.59-29.67-7.59H809.6v1.38c3.45,4.37,5.06,11,4.83,19.78V411.24c0,6.21,1.33,103,3.4,107.33a31.09,31.09,0,0,0,6.9,9.89c2.53,2.3,6.21,3.91,11,5.06a79.54,79.54,0,0,0,11.73,2.07c3,.23,7.36.23,13.11.23v7.59H735.26v-7.59c5.75,0,10.12,0,13.11-.23a79.54,79.54,0,0,0,11.73-2.07c4.83-1.15,8.51-2.76,11-5.06a31.09,31.09,0,0,0,6.9-9.89c2.07-4.37,3-101.12,3-107.33V194.63c0-8.74,1.61-15.41,5.06-19.78v-1.38H491.73q-22.43,0-31.05,7.59c-5.75,5.06-10.35,14.72-13.8,29.21l-5.75-1.38,7.13-63.48h3.22c4.37,3.91,9.52,4.07,49.1,4.76l1477.7.76c12.27,0,17.34-1.61,20.1-4.6Z"/><path class="cls-2" d="M1443.6,502.13a80,80,0,0,0,9.43,17.94,27.31,27.31,0,0,0,11.5,9.2,38.21,38.21,0,0,0,11.5,3.22c3.22.23,8,.46,14.26.46v7.59h-106V533a67.13,67.13,0,0,0,7.36-.23c1.84-.23,4.14-.46,6.9-.92a11.15,11.15,0,0,0,6.21-2.76,20.92,20.92,0,0,0,3.67-5.52c1.15-2.3,1.61-5.52,1.38-9.43a60.73,60.73,0,0,0-2.76-13.8L1382,437q-2.42-6.21-4.14-22.08l-.46-1.38H1259.61l-.46,1.38c.92,3-.92,10.35-5.29,22.08l-23,63.25a43,43,0,0,0-2.76,13.8,16.36,16.36,0,0,0,2.53,9.43,21,21,0,0,0,5.52,5.52q3.11,2.07,9,2.76c3.91.46,7.13.69,9.66.92s6.21.23,11,.23v7.59h-96.48V533a114.88,114.88,0,0,0,14.26-.69,78.43,78.43,0,0,0,12.65-3.22c5.06-1.61,7.89-4.39,9.43-10.22s2.69-13.07,5.68-20.89l107.82-291.57h7.59l117.29,296.23Zm-74.74-106.95-.46-1.38a62.05,62.05,0,0,1-11-19.32L1316.88,265.7l-40,108.78c-2.76,9.43-6,15.87-9.43,19.32l-.46,1.38Z"/><path class="cls-2" d="M1734.41,210.73v7.59c-24.84,0-44.39,11-58.88,33.12l-76.82,116.61v132a36.8,36.8,0,0,0,3.22,15.87,31.09,31.09,0,0,0,6.9,9.89c2.53,2.3,6.21,3.91,11,5.06A79.54,79.54,0,0,0,1631.6,533c3,.23,7.36.23,13.11.23v7.59H1519.36v-7.59c5.75,0,10.12,0,13.11-.23a79.54,79.54,0,0,0,11.73-2.07c4.83-1.15,8.51-2.76,11-5.06a31.09,31.09,0,0,0,6.9-9.89,36.8,36.8,0,0,0,3.22-15.87V375.63l-86.7-126.72c-8.51-13.8-15.64-22.31-21.62-25.53s-15.18-4.83-27.37-4.83V211h112v7.59c-30.13,0-38.17,11-23.92,33.12l73.37,106.72.92-2.3c-1.84-5.06-.46-11.73,3.91-20.24l55.43-84.18c14.72-21.85,9.2-32.89-16.33-33.12V211Z"/><path class="cls-2" d="M1962.93,504.43a80,80,0,0,0,9.43,17.94,27.31,27.31,0,0,0,11.5,9.2,38.21,38.21,0,0,0,11.5,3.22c3.22.23,8.05.46,14.26.46v7.59h-106v-7.59A67.13,67.13,0,0,0,1911,535c1.84-.23,4.14-.46,6.9-.92a11.15,11.15,0,0,0,6.21-2.76,20.93,20.93,0,0,0,3.68-5.52c1.15-2.3,1.61-5.52,1.38-9.43a60.73,60.73,0,0,0-2.76-13.8l-25.07-63.25q-2.41-6.21-4.14-22.08l-.46-1.38H1778.94l-.46,1.38c.92,3-.92,10.35-5.29,22.08l-23,63.25a43,43,0,0,0-2.76,13.8,16.36,16.36,0,0,0,2.53,9.43,21,21,0,0,0,5.52,5.52q3.11,2.07,9,2.76c3.91.46,7.13.69,9.66.92s6.21.23,11,.23v7.59H1678.66v-7.59a114.88,114.88,0,0,0,14.26-.69,78.43,78.43,0,0,0,12.65-3.22,26.52,26.52,0,0,0,13.11-9.66,77.3,77.3,0,0,0,10.12-19.09l109.7-293.93h7.59l117.3,296.23Zm-74.75-106.95-.46-1.38a62.05,62.05,0,0,1-11-19.32L1836.21,268l-40,108.78c-2.76,9.43-6,15.87-9.43,19.32l-.46,1.38Z"/><path class="cls-2" d="M2065.51,526.57a40.14,40.14,0,0,0,8.92-12.8,47.53,47.53,0,0,0,4.17-20.52V171.64c0-8-1.19-14.87-3.87-20.53s-5.65-9.81-8.92-12.49-8-4.76-14.28-6.25a103,103,0,0,0-15.18-2.68c-3.86-.29-9.52-.29-16.95-.29v-9.82h162.14v9.82c-7.44,0-13.09,0-17,.29a102.7,102.7,0,0,0-15.17,2.68q-9.37,2.24-14.28,6.25t-8.93,12.49c-2.68,5.66-3.87,12.5-3.87,20.53V489.08c0,11.31-2.08,19.93-6.54,25.59v1.78h132.09q28.11,0,38.38-13.39c6.84-8.92,12.2-24.39,15.77-46.41l9.52,2.09-12.8,87.17-260.3-2.42v-9.82c7.44,0,13.09,0,17-.29"/><path class="cls-2" d="M1465.32,920.08c-7.13,1.61-12,1.15-21.92,1.15a146.63,146.63,0,0,1-23.21-1.72c-7.59-1.15-17.75-6.06-24.65-9.74s-22.81-13.82-50.16-37.84c-29.85-26.21-44.41-49.56-65.31-74.38-6.1-7.23-90.12-125.71-123-180.7-3.1-5.18-74.21-138-80.65-148.07s-11.27-18.17-14.49-23.92-8.51-14.95-16.1-27.83-13.34-22.54-17.25-29.21a196.34,196.34,0,0,1-28.29,2.76V383c31.51-7.13,54.28-17.24,68.31-30.12s20.93-31.74,20.93-56.58c0-25.76-7.13-44.16-21.62-55.2s-35.88-16.56-64.4-16.56q-22.42,0-35.88,2.76v1.38c3.45,4.37,5.06,11,4.83,19.78V501a36.8,36.8,0,0,0,3.22,15.87,35.09,35.09,0,0,0,6.67,9.89c2.3,2.3,5.75,3.91,10.12,5.06a64.39,64.39,0,0,0,10.58,2.07c2.76.23,6.44.23,10.81.23v7.59H893.13V534.1c5.75,0,10.11,0,13.1-.23A79.54,79.54,0,0,0,918,531.8c4.83-1.15,8.51-2.76,11-5.06a31.09,31.09,0,0,0,6.9-9.89A36.8,36.8,0,0,0,939.12,501V252.36c0-6.21-.92-11.5-3-15.87s-4.37-7.59-6.9-9.66-6.21-3.68-11-4.83a79.54,79.54,0,0,0-11.73-2.07c-3-.23-7.35-.23-13.1-.23v-7.59h41.16c7.59,0,20.93-.23,39.79-.69s30.82-.69,35.88-.69a231,231,0,0,1,41.17,3.45,164.34,164.34,0,0,1,37,11.5,65.87,65.87,0,0,1,28.52,23.92c7.13,10.58,10.58,23.46,10.58,38.41,0,23.92-8,43.93-24.15,60.26A136.4,136.4,0,0,1,1047.22,383l.92,2.3q11.73-.35,15.87,1.38c2.76,1.15,5.52,3.91,8,8.05,79.7,168,217.35,393.39,296.14,468,23.26,22.76,42.53,45,66.32,46.72,1.37.1,28.27,1.95,31,1.72Z"/><path class="cls-2" d="M1358.56,642.55c.7,0,1,.14,1,.28v3.32c0,.83-2.66,2.36-5.87,3.47-3.36,1.1-6,1.38-6,.69V647.4h-25.06v80h5.74c1.82,0,1,1-1.68,2.36s-6.44,2.49-8.26,2.49H1305c-1.82,0-1-1.11,1.68-2.49a34,34,0,0,1,4-1.53V647.4h-26.17a26.33,26.33,0,0,1-4.76,2.22c-3.36,1.1-6,1.38-6,.69V647c0-.69,2.66-2.21,5.88-3.32a15.17,15.17,0,0,1,5-1.11h73.9Z"/><path class="cls-2" d="M1392.71,738.85c-.7,0-1-.14-1-.41,0-.42,1.26-1.53,3.64-2.5,7.56-3.19,12-20.51,12-34a73.82,73.82,0,0,0-.7-10.25c-1.4-9.15-8.4-16.21-16.94-16.21-1.12,0-.56-.56-3.5,2.35a23,23,0,0,0-6.43,13.17v36.58c0,1-7.14,4.57-10.92,4.57-.56,0-1-.14-1-.41v-96.9c0-1.25,7.28-3,8.4-3.33a42.56,42.56,0,0,1,7.13-1c.84,0,1.26,0,1.26.28-4.19,8.91-4.45,14.06-4.89,21.8v24.11a36.41,36.41,0,0,1,19.73-6.1c14.56,0,19.74,11.64,19.74,26.74,0,14.55-2.94,32.42-19.46,39.49A23.17,23.17,0,0,1,1392.71,738.85Z"/><path class="cls-2" d="M1486.91,686.06c.14.69-2.94,2.22-6,3.32l-38.21,13.86c.84,5.13.14,10.25,3.5,15.52s8.39,8.59,14.27,8.59c5.32,0,8.26-1.52,12.32-4.71,1.82-1.39,7.56-3.6,10.22-3.6.7,0,1,.14,1,.41s-.14.42-.56.7c-8.12,6.51-20.44,12.05-33,12.05a18.38,18.38,0,0,1-16.09-9.14c-3.08-5.13-3.64-11.64-3.64-17.6,0-12.89,3.36-23.14,14.28-29.38,4.75-2.77,11.75-5.4,18.19-5.4a19.39,19.39,0,0,1,13.58,5.4c2.66,2.77,4.48,9.56,9.24,9.56C1486.63,685.64,1486.91,685.78,1486.91,686.06Zm-20.16-3.19a16.52,16.52,0,0,0-13.44-7.34h-.83c-7.14,4.71-9.8,13.85-9.8,24.94l30-10.81C1469.41,688,1468.57,685.5,1466.75,682.87Z"/><path class="cls-2" d="M1576.63,713.77l20.15-53.35-4.9-13h-.83c-.7,0-1-.14-1-.42,0-1.52,8.25-4.43,10.91-4.43h13.44c.56,0,1,.14,1,.42s-.84,1.1-2.38,1.8l-4.34,11.5,21.7,57.5,24.91-66.37h-5.6c-.56,0-1-.14-1-.42,0-1.52,8.26-4.43,11.06-4.43h13.44c.7,0,1,.14,1,.42,0,.69-4.76,3.18-8.26,4l-30.37,80.79c-.56,1.52-8.26,4.43-11.06,4.43-.42,0-.84-.14-.84-.28L1602,674.28l-20.15,53.49c-.56,1.52-8.26,4.43-11.06,4.43-.42,0-.84-.14-.84-.28l-31.78-84.52h-5.87c-.7,0-1-.14-1-.42,0-1.52,8.25-4.43,10.91-4.43h13.44c.7,0,1,.14,1,.42s-1,1.24-2.66,1.93l-2.8,1.25Z"/><path class="cls-2" d="M1734.09,727.63c0,.41-.7,1-2.1,1.66a24.33,24.33,0,0,1-11.34,2.91c-7.56,0-13.3-3.19-17.22-9.42-8.11,5.12-18.19,9.42-27.43,9.42-6.58,0-10.78-3.6-10.78-9.14,0-7.9,9.1-24.39,18.2-33.81.28-.28.7-.56,1.68-1.53-4.34-8.17-9.94-12.19-17.64-12.19-2.8,0-3.08,0-3.08-.28,0-2.77,11.34-4.57,13.58-4.57,10.22,0,15.68,6.23,19.6,13.72l15.25,29.79c4.48,8.73,10.08,13.16,17.64,13.16C1730.73,727.35,1734.09,726.93,1734.09,727.63Zm-33.17-9.15-12.46-24.25a19.58,19.58,0,0,0-1.82,2.78c-4.9,7.34-9.52,15.93-9.52,21.89,0,4.85,3.22,8.45,9.38,8.45,3.92,0,9-3.19,14.7-8.31A1.06,1.06,0,0,1,1700.92,718.48Z"/><path class="cls-2" d="M1745.28,702c-5.18-17.87-11.76-26.6-19.73-26.6-1.13,0-2.38.28-3.08.28s-1-.14-1-.42c0-2.22,10.49-4.57,13.43-4.57,11.06-.14,16.94,8.87,22.26,27.16l3.22,10.94,2-6.92c6.58-23.56,16.93-31.46,30.09-31.46,1.4,0,5.46.14,5.46.83,0,1.39-8.26,4.44-10.78,4.44h-1c-3.92,0-8.82,11.64-11.89,22.31l-17.08,59.58c-6.86,23.83-16.94,31.45-30,31.31-1.4,0-5.73-.14-5.73-.69,0-1.66,8.81-4.57,11.19-4.57h.56c4.2,0,9-11.64,12-22.17l8.54-29.65Z"/><path class="cls-2" d="M1930.1,655.16a42,42,0,0,1,12.6,30.07,42.94,42.94,0,0,1-12.88,30.62A57.66,57.66,0,0,1,1889,732.2a43.6,43.6,0,0,1-31.21-12.61,42.51,42.51,0,0,1,.28-60.69c10.21-10.11,24.63-16.35,41-16.35A43.54,43.54,0,0,1,1930.1,655.16ZM1889,647.4a27.63,27.63,0,0,0-19.6,8.45A41.3,41.3,0,0,0,1857,685.23a42.3,42.3,0,0,0,42,42.12c7.28,0,14.27-3.32,19.59-8.45a41.23,41.23,0,0,0,12.18-29.52,42.08,42.08,0,0,0-41.85-42Z"/><path class="cls-2" d="M2009.88,645.46c0,1.25-8.12,4.57-11.06,4.57-.56,0-.84-.14-.84-.41V648c-.84-8.17-7.84-14.68-15.68-14.68H1981a18,18,0,0,0-8.12,15.38v23.83h22.54c.7,0,1,.14,1,.41,0,1.39-8.4,4.44-10.92,4.44h-12.6v76.9c0,1.39-7.7,4.57-10.91,4.57-.7,0-1-.13-1-.41V677.33h-12.46c-.7,0-1-.14-1-.42,0-1.66,8.4-4.43,10.92-4.43H1961V652.8c0-13.85,16.23-24.52,31.07-24.52,9.52,0,16.94,6.65,17.78,15.52Z"/><path class="cls-2" d="M1470.53,779.71c.7,0,1,.14,1,.28v3.33c0,.83-2.66,2.35-5.87,3.46-3.36,1.11-6,1.39-6,.69v-2.91h-25.06v80h5.74c1.82,0,1,1-1.68,2.35s-6.44,2.5-8.26,2.5h-13.43c-1.83,0-1-1.11,1.68-2.5a34,34,0,0,1,4.05-1.52V784.56h-26.17a25,25,0,0,1-4.76,2.22c-3.36,1.11-6,1.39-6,.69v-3.32c0-.69,2.66-2.22,5.88-3.33a15.17,15.17,0,0,1,5-1.11h73.9Z"/><path class="cls-2" d="M1598.88,823.22c.14.7-2.94,2.22-6,3.33l-38.22,13.85c.85,5.13.15,10.26,3.5,15.52s8.4,8.6,14.28,8.6c5.32,0,8.26-1.53,12.32-4.72,1.82-1.38,7.56-3.6,10.22-3.6.7,0,1,.14,1,.42s-.14.41-.56.69c-8.12,6.51-20.44,12.06-33,12.06a18.39,18.39,0,0,1-16.09-9.15c-3.08-5.13-3.64-11.64-3.64-17.6,0-12.88,3.36-23.14,14.28-29.37,4.75-2.78,11.75-5.41,18.19-5.41a19.35,19.35,0,0,1,13.58,5.41c2.66,2.77,4.48,9.56,9.24,9.56C1598.6,822.81,1598.88,823,1598.88,823.22ZM1578.72,820a16.5,16.5,0,0,0-13.44-7.35h-.84c-7.14,4.71-9.8,13.86-9.8,24.94l30-10.8C1581.38,825.16,1580.54,822.67,1578.72,820Z"/><path class="cls-2" d="M1703.5,779.71c.7,0,1,.14,1,.28v3.33c0,.83-2.66,2.35-5.88,3.46s-6,1.39-6,.69v-2.91h-25.06v80h5.74c1.82,0,1,1-1.68,2.35s-6.44,2.5-8.26,2.5h-13.44c-1.82,0-1-1.11,1.68-2.5a34.79,34.79,0,0,1,4.06-1.52V784.56h-26.17a25,25,0,0,1-4.76,2.22c-3.36,1.11-6,1.39-6,.69v-3.32c0-.69,2.66-2.22,5.88-3.33a15.17,15.17,0,0,1,5-1.11h73.9Z"/><path class="cls-2" d="M1700.14,869.37c-.7,0-1.12-.14-1.12-.42V829c0-6.79-2.66-16.35-7.28-16.35a5,5,0,0,0-.84.14c-.7,0-1.12-.14-1.12-.41,0-1.95,8.82-4.58,11.9-4.58,3.78,0,6.86,3.33,8.26,9,4.9-3.74,15.39-8.87,23.65-8.87.56,0,.84,0,1,.28.84,4.43,6.86,7.9,13.72,7.9h1.12c.84,0,1.26.13,1.26.41,0,2.08-10.22,4.57-12,4.57-8.12,0-14.42-3.32-15.82-8.17l-.42.14c-9.09,3.6-11.33,16.07-11.33,25.08v26.6C1711.06,866,1703.64,869.37,1700.14,869.37Z"/><path class="cls-2" d="M1816.17,864.79c0,.42-.7,1-2.1,1.67a24.45,24.45,0,0,1-11.34,2.91c-7.55,0-13.29-3.19-17.21-9.43-8.12,5.13-18.2,9.43-27.44,9.43-6.57,0-10.77-3.61-10.77-9.15,0-7.9,9.09-24.39,18.19-33.81.28-.28.7-.55,1.68-1.52-4.34-8.18-9.94-12.2-17.63-12.2-2.8,0-3.08,0-3.08-.27,0-2.78,11.33-4.58,13.57-4.58,10.22,0,15.68,6.24,19.6,13.72l15.26,29.79c4.48,8.73,10.07,13.17,17.63,13.17C1812.81,864.52,1816.17,864.1,1816.17,864.79ZM1783,855.65l-12.46-24.25a18.92,18.92,0,0,0-1.82,2.77c-4.9,7.34-9.52,15.93-9.52,21.89,0,4.85,3.22,8.46,9.38,8.46,3.92,0,9-3.19,14.7-8.32A1,1,0,0,1,1783,855.65Z"/><path class="cls-2" d="M1810.29,812.69c-1.54.14-1.82,0-1.82-.27,0-1.81,8.12-4.58,11.76-4.58,5.73,0,9.37,7.35,9.37,17v29.65c0,3.6.56,10,5.46,10,1,0,2-.28,2.66-.28s1.12.14,1.12.41c0,2.36-10.78,4.72-13.57,4.72-7,0-7.56-6.24-7.56-10.67V829C1817.71,820.87,1814.35,812.69,1810.29,812.69Zm5-28.4c0-1.8,7.69-7.9,9.52-7.9h.27l6.72,6.65.14.28c0,1.8-7.56,7.89-9.37,7.89-.29,0-.42,0-.42-.13l-6.72-6.65Z"/><path class="cls-2" d="M1872.71,807.84c.7,0,1,.14,1,.42v1.38h26.74c.7,0,1,.14,1,.42,0,1.25-8.4,4.43-11.06,4.43h-16.8c-.42,8.73-2,19.68-2,28.55,0,12.47,2.8,21.48,15,21.48a15.22,15.22,0,0,0,2.52-.14c1,0,1.54.14,1.54.41,0,.42-.7,1-2.1,1.67a23.75,23.75,0,0,1-11.62,2.91c-14,0-17.36-9.15-17.36-22,0-10.25,2.1-22.72,2.25-32.84h-26.88c-.7,0-1-.13-1-.41,0-1.53,8.26-4.44,11.06-4.44h21.27A19.35,19.35,0,0,1,1872.71,807.84Z"/><path class="cls-2" d="M1933.87,807.84a18.75,18.75,0,0,1,16.24,9.15c3.08,5,3.5,11.22,3.5,17a70.1,70.1,0,0,1-.7,10.81c-2.1,14.55-17.63,24.53-31.91,24.53a18.39,18.39,0,0,1-16.1-9.15c-3.22-5.27-3.5-11.78-3.5-17.74a63.08,63.08,0,0,1,.7-10.25c1.54-11.09,10.78-19.26,22.12-22.72A32.87,32.87,0,0,1,1933.87,807.84Zm-10.77,4.85c-7.28,4.85-9.8,14-9.8,25.64,0,5.95.28,12.19,3.36,17.46s8.12,8.73,13.86,8.73l1.26-.14c7.69-4.72,9.93-14.69,9.93-26.33,0-5.54-.56-11.78-3.5-16.77-3.21-5.26-8.39-8.59-14.13-8.59Z"/><path class="cls-2" d="M1968.86,869.37c-.7,0-1.11-.14-1.11-.42V829c0-6.79-2.66-16.35-7.28-16.35a5,5,0,0,0-.84.14c-.7,0-1.12-.14-1.12-.41,0-1.95,8.82-4.58,11.89-4.58,3.78,0,6.86,3.33,8.26,9,4.9-3.74,15.4-8.87,23.66-8.87.56,0,.84,0,1,.28.84,4.43,6.86,7.9,13.72,7.9h1.11c.85,0,1.27.13,1.27.41,0,2.08-10.22,4.57-12,4.57-8.12,0-14.42-3.32-15.82-8.17l-.42.14c-9.1,3.6-11.34,16.07-11.34,25.08v26.6C1979.78,866,1972.36,869.37,1968.86,869.37Z"/><path class="cls-2" d="M1504.68,876c-.7,0-1-.14-1-.42s1.26-1.52,3.64-2.49c7.56-3.19,12-20.51,12-34a74,74,0,0,0-.7-10.26c-1.4-9.14-8.4-16.21-16.94-16.21-1.12,0-.56-.55-3.5,2.36a23.08,23.08,0,0,0-6.44,13.16v36.58c0,1-7.13,4.58-10.91,4.58-.56,0-1-.14-1-.42v-96.9c0-1.25,7.27-3,8.4-3.32a41.42,41.42,0,0,1,7.13-1c.84,0,1.26,0,1.26.27-4.19,8.91-4.45,14.07-4.9,21.8v24.11a36.47,36.47,0,0,1,19.74-6.1c14.56,0,19.74,11.64,19.74,26.75,0,14.54-2.94,32.42-19.46,39.49A23.46,23.46,0,0,1,1504.68,876Z"/><path class="cls-2" d="M1125.55,597.74H491.73c-12.27,0-17.34,1.61-20.1,4.6h-3l4.8-46.89,5.52.92c-.69,14,2.58,13.19,9.74,15.77,6.29,2.26,11.45,3.06,26.86,3.06h594.8Z"/><path class="cls-2" d="M1189.18,575.2h789.1c15,0,20.27,1.6,27.55-.77,8-2.61,7.24.88,10.69-13.61l5.75,1.38-.52,41.06h-3.22c-4.37-3.91,2.19-4.51-31.63-5.65l-52.43.13H1203.22Z"/></g></g></g></svg>