<svg xmlns="http://www.w3.org/2000/svg" viewBox="0 0 302.12 539"><defs><style>.cls-1{fill:#66707a;}.cls-2{fill:#171b1e;}.cls-3{fill:#2f464c;}.cls-4{fill:#276b8e;}.cls-5{fill:#2f1b14;}.cls-19,.cls-6{fill:#3e261c;}.cls-7{fill:gray;}.cls-8{fill:#412728;}.cls-9{fill:#e6e6e6;}.cls-10{fill:#27302d;}.cls-11{fill:#a07845;}.cls-12,.cls-18{fill:#261f19;}.cls-13{fill:#875a2d;}.cls-14{fill:#333;}.cls-15,.cls-16,.cls-21{fill:none;}.cls-15,.cls-16,.cls-17,.cls-18,.cls-19,.cls-20,.cls-21{stroke:#000;stroke-miterlimit:10;}.cls-15,.cls-16,.cls-18,.cls-19,.cls-20{stroke-width:2px;}.cls-16{stroke-linecap:round;}.cls-17{fill:#a67c52;}.cls-20,.cls-22{fill:#fff;}.cls-22{opacity:0.18;}</style></defs><g id="Layer_2" data-name="Layer 2"><g id="Layer_1-2" data-name="Layer 1"><path class="cls-1" d="M258.82,129.9c-4-7.46-7.28-12.76-7.28-12.76l0-.16c10.25,1.92,24.66,4.78,41.56,8.58,9.15,21.73,8.57,38.34,7.23,50.8-.73,6.92-4.3,13.6-9.3,19.77l-.05,0C279.83,182.88,268.81,183,268.35,183c3.2-3.75,5.43-7.15,6-9.78C276.41,164.51,266.24,143.57,258.82,129.9Z"/><path class="cls-2" d="M240,114.89c-3.29-.57-5.08-.86-5.08-.86l-4.34-14.48.19-.07,13.5,6.24,41.84.44c5.93,10.56,11.15,20.33,11.15,20.33l-4.12-.93c-16.9-3.8-31.31-6.66-41.56-8.58C246.73,116.07,242.81,115.38,240,114.89Z"/><path class="cls-2" d="M260.94,190.79c2.76-2.66,5.3-5.29,7.39-7.76h0c.46,0,11.48-.15,22.66,13.07l.05,0c-7.92,9.79-19.46,18.28-29.09,24.35a182.27,182.27,0,0,1-17.71,9.9,15.94,15.94,0,0,0-1.41-1.57,31.59,31.59,0,0,0-15.71-8.51c-.51-.12-1-.21-1.58-.3,0,0,6.45-4.7,14.67-11.28C246.8,203.48,254.5,197,260.94,190.79Z"/><path class="cls-3" d="M286.1,106.16l-41.84-.44-13.5-6.24-.19.07-1.89-6.3s24.76-4.39,39.91-14.15h0a19.73,19.73,0,0,1,2.67,2.73C274.38,85.7,280.55,96.28,286.1,106.16Z"/><path class="cls-1" d="M275.58,383.32c0,21.32-.51,39.91-1,48.88C262.39,442.86,238,443.36,238,443.36s-8.32-112.2-5.2-176.61l0-.15a5.72,5.72,0,0,0,1,.15c1.92.1,3.12-1.46,2.08-2.08-4.36-2.62-4.33-5.24-4.21-6a7,7,0,0,0,5.25,2.89c2.68,0,3.2-4.31,2.69-7.38l.41-.07a192.71,192.71,0,0,0,24.77-4h.1c1.53,13.55,3.63,30.41,6.31,47.84C274.63,319.69,275.58,354.08,275.58,383.32Z"/><path class="cls-4" d="M274.62,432.2c-.07,1.62-.16,2.93-.23,3.89-1.23,3.08-5.3,5.43-10.41,7.22-8.53,3-20,4.35-26,4.91-2.55.24-4.13.33-4.13.33v-1.71q-.8-12.78-1.45-24.09c-.12-2-.24-4-.35-6-6-105-3.39-115.78-3.39-152.08l.21-.23a9.22,9.22,0,0,0,1.87,1.27,9.39,9.39,0,0,0,2.12.89l0,.15c-3.12,64.41,5.2,176.61,5.2,176.61S262.39,442.86,274.62,432.2Z"/><path class="cls-3" d="M268.6,79.09h0c-15.15,9.76-39.91,14.15-39.91,14.15h-26s-10.81-2.07-10.39-6.79c1-11.91,13.5-14,13.5-14l.25-.28c1.09.83,1.83,1.32,1.83,1.32l.65-2.08L218.68,85.3,229,71.43l.75,2.08c7.27-3.12,10.39-11.43,10.39-11.43l1.3,3.3c.3-.35.59-.69.87-1C246.12,72.58,259.88,71.79,268.6,79.09Z"/><path class="cls-5" d="M265,250.07h-.1a192.71,192.71,0,0,1-24.77,4l-.41.07c-.28-1.7-.88-3-1.61-3-2,0,0,9.35-3.16,0-1.52-4.58.35-10,2.66-14.41l.32.17c17.53-.86,25.16-3.41,25.16-3.41l.14,0C263.65,238.1,264.24,243.72,265,250.07Z"/><path class="cls-2" d="M264,443.31l0,.05c-.51,7.64-1.12,14.73-1.53,21.54-15.06,1.79-23,0-23,0-.39-5.08-.89-10.5-1.46-16.35l0-.33C244,447.66,255.45,446.28,264,443.31Z"/><path class="cls-3" d="M263.19,233.49l-.14,0s-7.63,2.55-25.16,3.41l-.32-.17a48.34,48.34,0,0,1,5.28-7.94,15.94,15.94,0,0,1,1.41,1.57,182.27,182.27,0,0,0,17.71-9.9C262.09,221.94,262.5,226.59,263.19,233.49Z"/><path class="cls-6" d="M263,496.34c4.74,36-1,42.6-13.5,41.56-9.37-.78-11.43-10.39-9.35-42.59a196.42,196.42,0,0,0-.25-25.31c.47.05,14.41,1.68,22.32,0h0A147.32,147.32,0,0,0,263,496.34Z"/><path class="cls-4" d="M262.47,464.9c-.11,1.71-.2,3.41-.28,5.1h0c-7.91,1.68-21.85.05-22.32,0-.12-1.66-.23-3.36-.37-5.1C239.49,464.9,247.41,466.69,262.47,464.9Z"/><path class="cls-3" d="M258.82,129.9c.33,10.64,2.89,58.2,2.12,60.89-6.44,6.24-14.14,12.69-20.71,17.93l-.12-.15c-3.14-52.39-.65-87.24-.12-93.68,2.82.49,6.74,1.18,11.58,2.09l0,.16S254.77,122.44,258.82,129.9Z"/><path class="cls-7" d="M204.76,39.22a12.61,12.61,0,0,0-2,6.24c0,4.59,2.32,8.31,5.19,8.31s5.2-3.72,5.2-8.31l-6.64-8.34A9.23,9.23,0,0,0,204.76,39.22ZM194.28,63.34c-1.8-3-5.08-9.2-5.08-13.72l-2.08,2.07S185.05,34,190.24,22.6c0,0-6.23-5.19-7.27-16.62a29.21,29.21,0,0,0,10.39,6.24A16.62,16.62,0,0,1,202,18.11l.63-.3s7-3.75,16.53,0c0,0,6.07-2.36,16-.54,2.51-2.75,6.14-6,10.08-7.13,7.27-2.08,10.39-6.24,10.39-6.24s-2.12,12.47-7.81,17.67c0,0,6.77,11.42,1.58,30.12l-2.08-1s-.46,7.73-5.1,13.69c-.28.35-.57.69-.87,1l-1.3-3.3S237,70.39,229.72,73.51L229,71.43,218.68,85.3,208.55,71.43l-.65,2.08s-.74-.49-1.83-1.32c-2.77-2.11-7.81-6.38-8.56-10.11l-2.08,3.12S195,64.49,194.28,63.34Zm40.63-17.88c0-3.15-1.09-5.89-2.71-7.3l-7.68,7.3c0,4.59,2.33,8.31,5.2,8.31S234.91,50.05,234.91,45.46ZM222.17,56a.5.5,0,0,0-.43-.69L216,54.86a.51.51,0,0,0-.5.68l2.79,10.4a.5.5,0,0,0,.92,0Z"/><path class="cls-8" d="M218.56,188.83l-.53-26-.54-26-.53-26-.36-17.66h12.08l1.89,6.3L234.91,114s1.79.29,5.08.86c-.53,6.44-3,41.29.12,93.68l.12.15C232,215.3,225.56,220,225.56,220c.54.09,1.07.18,1.58.3a64.22,64.22,0,0,0-7.49,6.26l-.32-.33-.24-11.43Z"/><path class="cls-7" d="M219.37,260.53c.75,3.14.95,4.6-2.12,2a8.93,8.93,0,0,1-1.86-2.17l-.22.13c-3.2,0-4.55,0-5.47-6.17-.28-1.84-.52-4.23-.76-7.33a18.42,18.42,0,0,1,2.5-10.06,44.49,44.49,0,0,1,8.21-10.39,64.22,64.22,0,0,1,7.49-6.26,31.59,31.59,0,0,1,15.71,8.51,48.34,48.34,0,0,0-5.28,7.94c-2.31,4.38-4.18,9.83-2.66,14.41,3.12,9.35,1.14,0,3.16,0,.73,0,1.33,1.31,1.61,3,.51,3.07,0,7.38-2.69,7.38a7,7,0,0,1-5.25-2.89c-.12.77-.15,3.39,4.21,6,1,.62-.16,2.18-2.08,2.08a5.72,5.72,0,0,1-1-.15,9.39,9.39,0,0,1-2.12-.89,9.22,9.22,0,0,1-1.87-1.27,27.14,27.14,0,0,1-5.24-6.74c1.37,4.94,3.28,8.68,1.91,9.05C222.54,267.54,219.55,260.92,219.37,260.53Z"/><path class="cls-9" d="M232.2,38.16c1.62,1.41,2.71,4.15,2.71,7.3,0,4.59-2.32,8.31-5.19,8.31s-5.2-3.72-5.2-8.31ZM233.87,46a3.15,3.15,0,1,0-6.23,0,3.15,3.15,0,1,0,6.23,0Z"/><ellipse cx="230.76" cy="45.98" rx="3.12" ry="3.64"/><path class="cls-4" d="M232.07,416.75c.11,2,.23,4,.35,6-16,5.36-26.72-.72-26.72-.72.06-1.69.12-3.45.2-5.28C205.9,416.75,216.76,423.39,232.07,416.75Z"/><path class="cls-10" d="M228.89,264.44l-.21.23c0,36.3-2.63,47.11,3.39,152.08-15.31,6.64-26.17,0-26.17,0,1.67-45.52,4.51-132.22,3-162.38l.39,0,.37-.06c.92,6.17,2.27,6.17,5.47,6.17l.22-.13a8.93,8.93,0,0,0,1.86,2.17c3.07,2.58,2.87,1.12,2.12-2,.18.39,3.17,7,6.19,6.22,1.37-.37-.54-4.11-1.91-9.05A27.14,27.14,0,0,0,228.89,264.44Z"/><path class="cls-11" d="M221.74,55.27a.5.5,0,0,1,.43.69l-3,10a.5.5,0,0,1-.92,0l-2.79-10.4a.51.51,0,0,1,.5-.68Z"/><path class="cls-8" d="M218,162.86l.53,26,.53,26,.24,11.43.32.33A44.49,44.49,0,0,0,211.44,237c-5.12-.23-10.37-.59-16-1.14l0-.23s0-8.31.91-50-4-71.57-4-71.57l-.1-.26,5.29-1.82,4.31-15.54.89-3.16H216.6l.36,17.66.53,26Z"/><path class="cls-9" d="M204.76,39.22a9.23,9.23,0,0,1,1.7-2.1l6.64,8.34c0,4.59-2.33,8.31-5.2,8.31s-5.19-3.72-5.19-8.31A12.61,12.61,0,0,1,204.76,39.22ZM211,44.94a3.15,3.15,0,1,0-6.23,0,3.15,3.15,0,1,0,6.23,0Z"/><ellipse cx="207.9" cy="44.94" rx="3.12" ry="3.64"/><path class="cls-5" d="M208.94,254.37c-1.27-.11-2.59-.25-3.94-.39a156.9,156.9,0,0,1-30.07-6c.25-2.85.51-5.29.77-7.25.33-2.5.63-4.91.9-7.26,6.86,1,13,1.74,18.81,2.3s10.91.91,16,1.14a18.42,18.42,0,0,0-2.5,10.06c.24,3.1.48,5.49.76,7.33l-.37.06Z"/><path class="cls-4" d="M200.61,444.59a71.18,71.18,0,0,1-22.51-9,33.75,33.75,0,0,1-5.84-4.48c-.38-.53-.68-2.45-.93-5.54l.2,0C184,436.09,200.63,440,200.63,440s6.66-158.28,4.37-186c1.35.14,2.67.28,3.94.39,1.47,30.16-1.37,116.86-3,162.38-.08,1.83-.14,3.59-.2,5.28-.54,14.32-.91,23.41-.91,23.41C203.34,445.18,202,444.89,200.61,444.59Z"/><path class="cls-3" d="M206.07,72.19l-.25.28s-12.46,2.08-13.5,14c-.42,4.72,10.39,6.79,10.39,6.79l-.89,3.16-.15,0-11.43,7.27-39.48,7.27-.64-.29c7.28-16.26,18-29.88,22.46-31.91,5.66-2.58,17.45-7.19,21.7-15.37.69,1.15,1.15,1.86,1.15,1.86l2.08-3.12C198.26,65.81,203.3,70.08,206.07,72.19Z"/><path class="cls-1" d="M205,254c2.29,27.75-4.37,186-4.37,186s-16.62-3.92-29.1-14.45l-.2,0c-2.13-26.61.23-139.36,3.6-177.56A156.9,156.9,0,0,0,205,254Z"/><path class="cls-2" d="M201.82,96.41,197.51,112l-5.29,1.82q-6.12,2.12-11.46,4c-14.87,5.27-25.22,9.17-31.17,11.49-4.08,1.58-6.1,2.41-6.1,2.41a86.81,86.81,0,0,1,6.63-21.07l.64.29,39.48-7.27,11.43-7.27Z"/><path class="cls-2" d="M200.61,444.59c-.41,3.7-.66,7.07-.8,10.18h0c-10.18,1-21.08-4.47-21.08-4.47h0c0-4.47-.43-9.24-.94-14.21l.33-.49A71.18,71.18,0,0,0,200.61,444.59Z"/><path class="cls-4" d="M199.8,454.77h0c-.09,1.85-.16,3.6-.19,5.29-13.48.07-21.1-3.27-21.1-3.27h0c.18-2.09.23-4.25.2-6.49h0S189.62,455.8,199.8,454.77Z"/><path class="cls-6" d="M174.32,472a30.85,30.85,0,0,0,3.45-9.57,44.76,44.76,0,0,0,.74-5.63h0s7.62,3.34,21.1,3.27c-.09,4.54,0,8.55,0,12.39,0,14.13,1.09,24.26-1.89,29.54-5,1.48-13.69-.45-21-1.49s-24.93,1-32.2,3.12c-7.12,2-16.76,1.08-17.18,1,1.12-4.62,17.43-13.5,34.84-21.82A26.56,26.56,0,0,0,174.32,472Z"/><path class="cls-3" d="M192.32,114s4.92,29.86,4,71.57-.91,50-.91,50l0,.23c-5.77-.56-11.95-1.31-18.81-2.3,2.71-23.77,2.31-40,3.25-56.11,1-17.29-.84-42.05-1-44.47v0q1-6.75,2.07-14.72l-.13-.39q5.34-1.91,11.46-4Z"/><path class="cls-12" d="M176.73,500.5c7.28,1,16,3,21,1.49-2,3.65-6,5-13.69,3.7-18.7-3.11-34.29,3.12-50.91,2.08-4.51-.28-6.19-1.4-5.75-3.11.42,0,10.06,1,17.18-1C151.8,501.54,169.46,499.46,176.73,500.5Z"/><path class="cls-1" d="M178.82,132.9v0c-6.56,43.07-13,51-17.67,53.82-3.53,2.12-8.3,3.21-13.46,3.63l0-.51a61.5,61.5,0,0,0-2.7-23h0c.91-.26,1.8-.55,2.7-.88,1.29-.46-2.08-14.54,2.07-36.36l-.13-.33c5.95-2.32,16.3-6.22,31.17-11.49l.13.39Q179.86,126.16,178.82,132.9Z"/><path class="cls-2" d="M145,166.86a61.5,61.5,0,0,1,2.7,23l0,.51c-15.42,1.23-34.33-3.5-34.33-4.67v-5.19a40.69,40.69,0,0,1,3.12-11.43s14.65,1.83,28.47-2.24Z"/><path class="cls-7" d="M99.86,160.65c-3-.87-6.08-1.17-6.08-2.52a2.37,2.37,0,0,1,.88-1.51c.7-.69,2.79-.81,5.3-.46,5,.7,11.65,3.24,12.29,6.7,1,5.2,4.23,6.23,4.23,6.23a40.69,40.69,0,0,0-3.12,11.43v4.15a21.94,21.94,0,0,1-12.33,0l-.14-3.15,0-.32c2.85-.4,4-1.43,2.15-4.14,3.58-1.33.49-4.64.49-4.64h0c2.12-.42,3.35-1.16,2.6-2.32-1.3-2-2.76-2.46-3.73-2.47,3-.64,3.27-1.81,2.24-2.69l.45,0C104.65,162.5,102.31,161.38,99.86,160.65Z"/><path class="cls-13" d="M101,184.71l13.21,316.16V501a3.63,3.63,0,0,1-7.26.16L93.62,181.56a60.67,60.67,0,0,0,7.23-.32l0,.32Z"/><path class="cls-7" d="M106.09,170.13c.75,1.16-.48,1.9-2.6,2.32a43.72,43.72,0,0,1-14-.24c-4.16-1-1-4.61-1-4.61,1.43.64,4.49.72,10.32.45a22.69,22.69,0,0,0,2.46-.22c.39-.05.75-.11,1.07-.17h0C103.33,167.67,104.79,168.1,106.09,170.13Z"/><path class="cls-7" d="M105.05,164.93l-.45,0a5.47,5.47,0,0,0-2.67-1.07s-.82-.07-2.07-.11v-3.14C102.31,161.38,104.65,162.5,105.05,164.93Z"/><path class="cls-7" d="M92.58,163.88a64.69,64.69,0,0,1,7.28-.09c1.25,0,2.07.11,2.07.11A5.47,5.47,0,0,1,104.6,165c1,.88.8,2.05-2.24,2.69h0a3.18,3.18,0,0,0-1.07.17,22.69,22.69,0,0,1-2.46.22c-5.83.27-8.89.19-10.32-.45A1.61,1.61,0,0,1,87.39,166C87.39,164.72,89.76,164.13,92.58,163.88Z"/><path class="cls-14" d="M101.87,45.76c1-1.53,3.18-4.46,3.18-4.46,0,11.43-6.23,13.51-6.23,13.51V53.48A1.79,1.79,0,0,0,97,51.69H93.81a2,2,0,0,0,0-.26h.22a11.38,11.38,0,0,0,7.41-5A7.24,7.24,0,0,0,101.87,45.76Z"/><path class="cls-7" d="M103.49,172.46s3.09,3.31-.49,4.64a7,7,0,0,1-1.07.3c-3.2.65-9.93.49-12.94-.92-1.89-.9-2.32-2.28.48-4.27a43.72,43.72,0,0,0,14,.24Z"/><path class="cls-7" d="M103,177.1c1.87,2.71.7,3.74-2.15,4.14a60.67,60.67,0,0,1-7.23.32c-7.27.08-4.63-5.08-4.63-5.08,3,1.41,9.74,1.57,12.94.92A7,7,0,0,0,103,177.1Z"/><path class="cls-4" d="M103,41.3a9.56,9.56,0,0,1-1.1,4.46,4.6,4.6,0,0,0-.41.71,11.38,11.38,0,0,1-7.41,5h-.22c.26-4.57-2.29-12.2-2.29-12.2s-2.1,7.91-1.81,12.46h-.39V51.5a11.59,11.59,0,0,1-7.29-4.42,9.68,9.68,0,0,1-1.93-5.78c0-5.73,5.11-10.38,11.42-10.38S103,35.57,103,41.3Z"/><path class="cls-13" d="M100,156.13v0c-2.51-.35-4.6-.23-5.3.46a2.37,2.37,0,0,0-.88,1.51l-1.48.07L87.39,57.93H95.7Z"/><path class="cls-13" d="M99.86,163.73v.06a64.69,64.69,0,0,0-7.28.09l-.28-5.68,1.48-.07c0,1.35,3.11,1.65,6.08,2.52Z"/><path class="cls-14" d="M98.82,54.81v1.33A1.79,1.79,0,0,1,97,57.93H91.54V54.81c1.5,0,2.13-1.29,2.27-3.12H97a1.79,1.79,0,0,1,1.79,1.79Z"/><path class="cls-14" d="M89.73,51.69c-.29-4.55,1.81-12.46,1.81-12.46s2.55,7.63,2.29,12.2a2,2,0,0,1,0,.26c-.14,1.83-.77,3.12-2.27,3.12C90.35,54.81,89.84,53.52,89.73,51.69Z"/><path class="cls-14" d="M91.54,54.81v3.12H87.1a1.79,1.79,0,0,1-1.79-1.79V53.48a1.79,1.79,0,0,1,1.79-1.79h2.63C89.84,53.52,90.35,54.81,91.54,54.81Z"/><path class="cls-14" d="M81.93,47.16l.12-.08a11.59,11.59,0,0,0,7.29,4.42v.19H87.1a1.79,1.79,0,0,0-1.79,1.79v1.33s-7-2.15-8.31-13.51C77,41.3,80.78,45.65,81.93,47.16Z"/><path class="cls-15" d="M268.35,183c3.2-3.75,5.43-7.15,6-9.78,2-8.74-8.15-29.68-15.57-43.35-4-7.46-7.28-12.76-7.28-12.76"/><path class="cls-15" d="M293.09,125.46l0,.1c9.15,21.73,8.57,38.34,7.23,50.8-.73,6.92-4.3,13.6-9.3,19.77-7.92,9.79-19.46,18.28-29.09,24.35a182.27,182.27,0,0,1-17.71,9.9,15.94,15.94,0,0,0-1.41-1.57,31.59,31.59,0,0,0-15.71-8.51c-.51-.12-1-.21-1.58-.3,0,0,6.45-4.7,14.67-11.28,6.57-5.24,14.27-11.69,20.71-17.93,2.76-2.66,5.3-5.29,7.39-7.76"/><path class="cls-15" d="M178.82,132.93c-6.56,43.07-13,51-17.67,53.82-3.53,2.12-8.3,3.21-13.46,3.63-15.42,1.23-34.33-3.5-34.33-4.67v-5.19a40.69,40.69,0,0,1,3.12-11.43s14.65,1.83,28.47-2.24c.91-.26,1.8-.55,2.7-.88,1.29-.46-2.08-14.54,2.07-36.36"/><path class="cls-15" d="M180.89,118.18q-1,8-2.07,14.72"/><path class="cls-15" d="M238,448.55c.57,5.85,1.07,11.27,1.46,16.35.14,1.74.25,3.44.37,5.1a196.42,196.42,0,0,1,.25,25.31c-2.08,32.2,0,41.81,9.35,42.59,12.46,1,18.24-5.58,13.5-41.56a147.32,147.32,0,0,1-.77-26.34c.08-1.69.17-3.39.28-5.1.41-6.81,1-13.9,1.53-21.54"/><path class="cls-15" d="M116.48,169.09s-3.25-1-4.23-6.23c-.64-3.46-7.29-6-12.29-6.7-2.51-.35-4.6-.23-5.3.46a2.37,2.37,0,0,0-.88,1.51c0,1.35,3.11,1.65,6.08,2.52,2.45.73,4.79,1.85,5.19,4.28"/><path class="cls-15" d="M113.36,184.67a21.94,21.94,0,0,1-12.33,0l-.14,0"/><path class="cls-15" d="M102.36,167.66c3-.64,3.27-1.81,2.24-2.69a5.47,5.47,0,0,0-2.67-1.07s-.82-.07-2.07-.11a64.69,64.69,0,0,0-7.28.09c-2.82.25-5.19.84-5.19,2.09a1.61,1.61,0,0,0,1.11,1.63c1.43.64,4.49.72,10.32.45a22.69,22.69,0,0,0,2.46-.22c.39-.05.75-.11,1.07-.17"/><path class="cls-15" d="M88.5,167.6s-3.19,3.57,1,4.61a43.72,43.72,0,0,0,14,.24c2.12-.42,3.35-1.16,2.6-2.32-1.3-2-2.76-2.46-3.73-2.47h0a3.18,3.18,0,0,0-1.07.17"/><path class="cls-15" d="M103.49,172.46s3.09,3.31-.49,4.64a7,7,0,0,1-1.07.3c-3.2.65-9.93.49-12.94-.92-1.89-.9-2.32-2.28.48-4.27"/><path class="cls-15" d="M89,176.48s-2.64,5.16,4.63,5.08a60.67,60.67,0,0,0,7.23-.32c2.85-.4,4-1.43,2.15-4.14"/><polyline class="cls-15" points="92.58 163.9 92.58 163.88 92.3 158.2 87.39 57.93"/><line class="cls-15" x1="99.96" y1="156.13" x2="95.7" y2="57.93"/><polyline class="cls-15" points="99.86 160.27 99.86 160.65 99.86 163.73"/><path class="cls-15" d="M93.62,181.56,107,501.18a3.63,3.63,0,0,0,7.26-.16v-.15L101,184.71l-.14-3.15"/><path class="cls-15" d="M227.14,220.3a64.22,64.22,0,0,0-7.49,6.26A44.49,44.49,0,0,0,211.44,237a18.42,18.42,0,0,0-2.5,10.06c.24,3.1.48,5.49.76,7.33.92,6.17,2.27,6.17,5.47,6.17"/><path class="cls-15" d="M219.36,260.51c-.77-3.24-2.12-8.25-1.07-12.46"/><path class="cls-15" d="M214.14,244.93s-2.42,9.58,1.25,15.45a8.93,8.93,0,0,0,1.86,2.17c3.07,2.58,2.87,1.12,2.12-2"/><path class="cls-15" d="M242.85,228.81a48.34,48.34,0,0,0-5.28,7.94c-2.31,4.38-4.18,9.83-2.66,14.41,3.12,9.35,1.14,0,3.16,0,.73,0,1.33,1.31,1.61,3,.51,3.07,0,7.38-2.69,7.38a7,7,0,0,1-5.25-2.89,15.27,15.27,0,0,1-3.06-9.57"/><path class="cls-15" d="M219.36,260.51v0c.18.39,3.17,7,6.19,6.22,1.37-.37-.54-4.11-1.91-9.05a29.2,29.2,0,0,1-1.18-7.62"/><path class="cls-15" d="M223.49,257.4l.16.3a27.14,27.14,0,0,0,5.24,6.74,9.22,9.22,0,0,0,1.87,1.27,9.39,9.39,0,0,0,2.12.89,5.72,5.72,0,0,0,1,.15c1.92.1,3.12-1.46,2.08-2.08-4.36-2.62-4.33-5.24-4.21-6a1.71,1.71,0,0,1,.06-.22"/><path class="cls-15" d="M177.77,436.09c.51,5,.9,9.74.94,14.21,0,2.24,0,4.4-.2,6.49a44.76,44.76,0,0,1-.74,5.63,30.85,30.85,0,0,1-3.45,9.57,26.56,26.56,0,0,1-12.13,10.85c-17.41,8.32-33.72,17.2-34.84,21.82-.44,1.71,1.24,2.83,5.75,3.11,16.62,1,32.21-5.19,50.91-2.08,7.64,1.28,11.64-.05,13.69-3.7,3-5.28,1.89-15.41,1.89-29.54,0-3.84-.06-7.85,0-12.39,0-1.69.1-3.44.19-5.29.14-3.11.39-6.48.8-10.18,0-.07,0-.13,0-.19"/><path class="cls-15" d="M178.81,132.73s0,.06,0,.17v0c.19,2.42,2.05,27.18,1,44.47-.94,16.07-.54,32.34-3.25,56.11-.27,2.35-.57,4.76-.9,7.26-.26,2-.52,4.4-.77,7.25-3.37,38.2-5.73,151-3.6,177.56.25,3.09.55,5,.93,5.54a33.75,33.75,0,0,0,5.84,4.48,71.18,71.18,0,0,0,22.51,9c1.34.3,2.73.59,4.18.85,0,0,.37-9.09.91-23.41.06-1.69.12-3.45.2-5.28,1.67-45.52,4.51-132.22,3-162.38v-.09"/><path class="cls-15" d="M260.89,190.91a.19.19,0,0,0,.05-.12c.77-2.69-1.79-50.25-2.12-60.89,0-.1,0-.2,0-.29"/><path class="cls-15" d="M228.68,264.67c0,36.3-2.63,47.11,3.39,152.08.11,2,.23,4,.35,6q.66,11.33,1.45,24.09v1.71s1.58-.09,4.13-.33c6-.56,17.45-1.94,26-4.91,5.11-1.79,9.18-4.14,10.41-7.22.07-1,.16-2.27.23-3.89.45-9,1-27.56,1-48.88,0-29.24-.95-63.63-4.31-85.41-2.68-17.43-4.78-34.29-6.31-47.84-.72-6.35-1.31-12-1.77-16.58-.69-6.9-1.1-11.55-1.22-13,0-.32-.05-.48-.05-.48"/><path class="cls-15" d="M211.53,237h-.09c-5.12-.23-10.37-.59-16-1.14s-11.95-1.31-18.81-2.3"/><path class="cls-15" d="M263.05,233.51s-7.63,2.55-25.16,3.41"/><path class="cls-15" d="M209.33,254.4l-.39,0c-1.27-.11-2.59-.25-3.94-.39a156.9,156.9,0,0,1-30.07-6"/><path class="cls-15" d="M264.86,250.08a192.71,192.71,0,0,1-24.77,4"/><path class="cls-15" d="M242.19,64.16l.09.18c3.84,8.24,17.6,7.45,26.32,14.75a19.73,19.73,0,0,1,2.67,2.73c3.11,3.88,9.28,14.46,14.83,24.34,5.93,10.56,11.15,20.33,11.15,20.33l-4.12-.93c-16.9-3.8-31.31-6.66-41.56-8.58-4.84-.91-8.76-1.6-11.58-2.09-3.29-.57-5.08-.86-5.08-.86l-4.34-14.48-1.89-6.3h-26l-.89,3.16L197.51,112l-5.29,1.82q-6.12,2.12-11.46,4c-14.87,5.27-25.22,9.17-31.17,11.49-4.08,1.58-6.1,2.41-6.1,2.41a86.81,86.81,0,0,1,6.63-21.07c7.28-16.26,18-29.88,22.46-31.91,5.66-2.58,17.45-7.19,21.7-15.37a2.39,2.39,0,0,1,.12-.22"/><path class="cls-15" d="M192.32,114s4.92,29.86,4,71.57-.91,50-.91,50"/><path class="cls-15" d="M240.09,113.81s0,.36-.1,1.08c-.53,6.44-3,41.29.12,93.68"/><polyline class="cls-15" points="230.76 99.48 244.26 105.72 286.1 106.16 286.11 106.16"/><polyline class="cls-15" points="201.67 96.37 190.24 103.64 150.76 110.91"/><polyline class="cls-15" points="216.6 93.25 216.96 110.91 217.49 136.88 218.03 162.86 218.56 188.83 219.09 214.8 219.33 226.23"/><polyline class="cls-16" points="211.53 110.91 216.96 110.91 222.7 110.91"/><polyline class="cls-16" points="211.53 136.88 217.49 136.88 222.7 136.88"/><polyline class="cls-16" points="212.57 162.86 218.03 162.86 223.74 162.86"/><polyline class="cls-16" points="213.6 188.83 218.56 188.83 224.77 188.83"/><polyline class="cls-16" points="213.6 214.8 219.09 214.8 224.77 214.8"/><path class="cls-15" d="M274.62,432.2C262.39,442.86,238,443.36,238,443.36s-8.32-112.2-5.2-176.61"/><path class="cls-15" d="M171.53,425.56C184,436.09,200.63,440,200.63,440s6.66-158.28,4.37-186"/><path class="cls-15" d="M205.7,422s10.71,6.08,26.72.72"/><path class="cls-15" d="M205.9,416.75s10.86,6.64,26.17,0"/><path class="cls-15" d="M202.71,93.25s-10.81-2.07-10.39-6.79c1-11.91,13.5-14,13.5-14"/><path class="cls-15" d="M228.68,93.25s24.76-4.39,39.91-14.15"/><path class="cls-15" d="M202.66,17.81s7-3.75,16.53,0c0,0,6.07-2.36,16-.54l.73.14"/><path class="cls-15" d="M231.8,21.57a40.93,40.93,0,0,1,3.42-4.3c2.51-2.75,6.14-6,10.08-7.13,7.27-2.08,10.39-6.24,10.39-6.24s-2.12,12.47-7.81,17.67c0,0,6.77,11.42,1.58,30.12l-2.08-1s-.46,7.73-5.1,13.69c-.28.35-.57.69-.87,1l-1.3-3.3S237,70.39,229.72,73.51L229,71.43,218.68,85.3,208.55,71.43l-.65,2.08s-.74-.49-1.83-1.32c-2.77-2.11-7.81-6.38-8.56-10.11l-2.08,3.12s-.46-.71-1.15-1.86c-1.8-3-5.08-9.2-5.08-13.72l-2.08,2.07S185.05,34,190.24,22.6c0,0-6.23-5.19-7.27-16.62a29.21,29.21,0,0,0,10.39,6.24A16.62,16.62,0,0,1,202,18.11a40.76,40.76,0,0,1,4.83,8.65"/><path class="cls-15" d="M192.32,47.54s4.66,9.52,13.5,15.58c7.38,5.05,12.86,14.6,12.86,14.6S226.6,65.2,233.87,60s9.35-7.27,10.39-11.42"/><path class="cls-15" d="M196.47,28.84l-4.15,1.47s2.08,3.72,12.44,8.91h0"/><path class="cls-15" d="M240.11,29.88l4.15,1.47s-1,3.72-10.39,8.92"/><path class="cls-15" d="M213.1,45.46c0,4.59-2.33,8.31-5.2,8.31s-5.19-3.72-5.19-8.31a12.61,12.61,0,0,1,2-6.24,9.23,9.23,0,0,1,1.7-2.1Z"/><path class="cls-15" d="M224.52,45.46c0,4.59,2.33,8.31,5.2,8.31s5.19-3.72,5.19-8.31c0-3.15-1.09-5.89-2.71-7.3Z"/><path class="cls-15" d="M222.17,56l-3,10a.5.5,0,0,1-.92,0l-2.79-10.4a.51.51,0,0,1,.5-.68l5.79.41A.5.5,0,0,1,222.17,56Z"/><ellipse class="cls-15" cx="207.9" cy="44.94" rx="3.12" ry="3.64"/><ellipse class="cls-15" cx="230.76" cy="45.98" rx="3.12" ry="3.64"/><path class="cls-15" d="M127.33,504.66h0c.42,0,10.06,1,17.18-1,7.27-2.08,24.93-4.16,32.2-3.12s16,3,21,1.49h0"/><path class="cls-15" d="M239.49,464.9s7.92,1.79,23,0"/><path class="cls-15" d="M239.85,470h0c.47.05,14.41,1.68,22.32,0"/><path class="cls-15" d="M178.72,450.3s10.9,5.5,21.08,4.47"/><path class="cls-15" d="M178.52,456.79s7.62,3.34,21.1,3.27"/><line class="cls-16" x1="249.46" y1="479.72" x2="255.29" y2="479.72"/><line class="cls-16" x1="249.46" y1="487.09" x2="255.29" y2="487.09"/><line class="cls-16" x1="248.42" y1="494.27" x2="255.29" y2="494.27"/><line class="cls-15" x1="177.77" y1="462.42" x2="181.93" y2="463.1"/><line class="cls-15" x1="176.37" y1="467.56" x2="180.89" y2="468.29"/><line class="cls-15" x1="174.32" y1="471.99" x2="178.72" y2="473.53"/><path class="cls-16" d="M268.35,183c.46,0,11.48-.15,22.66,13.07"/><path class="cls-15" d="M268.33,183h0"/><path class="cls-16" d="M145,166.86a61.5,61.5,0,0,1,2.7,23"/><line class="cls-16" x1="147.65" y1="165.97" x2="152.84" y2="163.9"/><path class="cls-15" d="M93.68,51.69H97a1.79,1.79,0,0,1,1.79,1.79v2.66A1.79,1.79,0,0,1,97,57.93H87.1a1.79,1.79,0,0,1-1.79-1.79V53.48a1.79,1.79,0,0,1,1.79-1.79h3.1"/><path class="cls-15" d="M89.34,51.5a11.59,11.59,0,0,1-7.29-4.42,9.68,9.68,0,0,1-1.93-5.78c0-5.73,5.11-10.38,11.42-10.38S103,35.57,103,41.3a9.56,9.56,0,0,1-1.1,4.46,7.24,7.24,0,0,1-.41.71,11.38,11.38,0,0,1-7.41,5"/><path class="cls-15" d="M98.82,54.81s6.23-2.08,6.23-13.51c0,0-2.19,2.93-3.18,4.46a4.6,4.6,0,0,0-.41.71"/><path class="cls-15" d="M85.31,54.81s-7-2.15-8.31-13.51c0,0,3.78,4.35,4.93,5.86a2.9,2.9,0,0,1,.26.38"/><path class="cls-15" d="M93.83,51.43c.26-4.57-2.29-12.2-2.29-12.2s-2.1,7.91-1.81,12.46c.11,1.83.62,3.12,1.81,3.12,1.5,0,2.13-1.29,2.27-3.12A2,2,0,0,0,93.83,51.43Z"/><path class="cls-17" d="M28,469.4h3a70.78,70.78,0,0,0,6.43-8s-5.19,1.33-15.56.42Z"/><path class="cls-18" d="M59,528.9c.54.46,0,2.51,0,3,0,3.32-13,6-29,6s-29-2.68-29-6v-4"/><ellipse class="cls-19" cx="30" cy="527.9" rx="29" ry="6"/><path class="cls-18" d="M49,520.9v4c0,2.23-8.73,4-19.5,4s-19.5-1.81-19.5-4c0-.62.11-4.26,0-4"/><ellipse class="cls-19" cx="29.5" cy="520.9" rx="19.5" ry="4.03"/><path class="cls-18" d="M52,414.9v113a2.74,2.74,0,0,0,4,0v-115"/><path class="cls-17" d="M46.21,515a11.48,11.48,0,0,1-8.5,6.89,43.86,43.86,0,0,1-16.44,0,11.4,11.4,0,0,1-8.49-6.89s-4.28-9.54.72-21.54a37.93,37.93,0,0,0,32,0S49.5,507.4,46.21,515Z"/><path class="cls-18" d="M3,414.9v113a2.74,2.74,0,0,0,4,0v-113"/><path class="cls-19" d="M46,414.9v4c0,1.26-7.61,2.27-17,2.27s-17-1-17-2.27c0-.39,0-3.07,0-3"/><line class="cls-20" x1="1" y1="527.9" x2="1" y2="531.9"/><path class="cls-18" d="M1,407.9v4c0,3.32,12.54,6,28,6s28-2.68,28-6c0-.55,0-4.83,0-4"/><ellipse class="cls-19" cx="29" cy="407.9" rx="28" ry="6"/><ellipse class="cls-19" cx="54" cy="464.9" rx="4" ry="3"/><ellipse class="cls-19" cx="54" cy="475.9" rx="4" ry="3"/><ellipse class="cls-19" cx="5" cy="464.9" rx="4" ry="3"/><ellipse class="cls-19" cx="5" cy="475.9" rx="4" ry="3"/><path class="cls-21" d="M28,470.84c-18.55,20.62-18.39,36.3-15.22,44.1a11.4,11.4,0,0,0,8.49,6.89,43.86,43.86,0,0,0,16.44,0,11.48,11.48,0,0,0,8.5-6.89c3.18-7.79,3.37-23.49-15.21-44.13v-.94c27-30,12.13-49.56,12.13-49.56H15.87S1,439.9,28,469.9Z"/><path class="cls-22" d="M28,470.84c-18.55,20.62-18.39,36.3-15.22,44.1a11.4,11.4,0,0,0,8.49,6.89,43.86,43.86,0,0,0,16.44,0,11.48,11.48,0,0,0,8.5-6.89c3.18-7.79,3.37-23.49-15.21-44.13v-.94c27-30,12.13-49.56,12.13-49.56H15.87S1,439.9,28,469.9Z"/></g></g></svg>