<svg xmlns="http://www.w3.org/2000/svg" viewBox="0 0 106.18 40.47"><defs><style>.cls-1{fill:#4c4838;}.cls-2{fill:#0b110b;}.cls-3{fill:#131913;}.cls-4,.cls-5,.cls-6{fill:none;stroke-miterlimit:10;}.cls-4,.cls-6{stroke:#000;}.cls-4{stroke-width:2px;}.cls-5{stroke:#1f85b2;}</style></defs><g id="Layer_2" data-name="Layer 2"><g id="Layer_5" data-name="Layer 5"><path class="cls-1" d="M105.18,25.51V29L67.6,39.39a.85.85,0,0,1-1.07-.76v-.06l-.06-.2a19.34,19.34,0,0,1-.54-9.75,18.91,18.91,0,0,1,.59-2.24s0,0,0,0l38.53-10.62.08,0s0,0,0,0Z"/><path class="cls-2" d="M66.53,26.35s0,0,0,0a17.16,17.16,0,0,0-.59,2.24,19.37,19.37,0,0,0,.51,9.73l.09.28a.83.83,0,0,1-1,.82l-62.93-14-.08-.13a13.29,13.29,0,0,1,.11-12.48l.09-.05.25.05,0,0Z"/><path class="cls-3" d="M105.06,15.67s0,.05,0,.06L66.53,26.35,3,12.81c-.08,0-.08-.16,0-.2L41.21,1Z"/><path class="cls-4" d="M66.52,26.38a17.16,17.16,0,0,0-.59,2.24,19.37,19.37,0,0,0,.51,9.73l.09.28a.83.83,0,0,1-1,.82l-62.93-14-.08-.13a13.29,13.29,0,0,1,.11-12.48l.09-.05.25.05L66.53,26.35"/><path class="cls-4" d="M105.06,15.73s0-.06,0-.06L41.21,1,3,12.61c-.1,0-.1.18,0,.2l0,0L66.53,26.35"/><path class="cls-4" d="M105.06,15.73l.08,0s0,0,0,0V29L67.6,39.39a.85.85,0,0,1-1.07-.76v-.06l-.06-.2a19.34,19.34,0,0,1-.54-9.75,18.91,18.91,0,0,1,.59-2.24s0,0,0,0Z"/><polyline class="cls-5" points="36.55 9.7 44.33 11.47 55.01 13.89 65.87 16.36"/><polyline class="cls-5" points="28.01 13.69 38.55 14.36 44.33 11.47 49.21 9.03 43.88 6.36"/><path class="cls-5" d="M61.87,21.69s1.33-8,13.32-6.66"/><polyline class="cls-5" points="52.54 16.36 55.01 13.89 56.54 12.36"/><line class="cls-6" x1="105.08" y1="18.82" x2="74.23" y2="27.55"/><line class="cls-6" x1="100.51" y1="24.35" x2="84.52" y2="28.35"/><line class="cls-6" x1="71.2" y1="36.35" x2="85.36" y2="32.2"/><line class="cls-6" x1="69.86" y1="32.35" x2="77.86" y2="29.68"/><line class="cls-6" x1="95.18" y1="28.35" x2="105.18" y2="25.51"/></g></g></svg>