<svg xmlns="http://www.w3.org/2000/svg" viewBox="0 0 374.34 51.58"><defs><style>.cls-1,.cls-3{fill:#b3b3b3;}.cls-1,.cls-2,.cls-3,.cls-4,.cls-5,.cls-6{stroke:#000;stroke-miterlimit:10;}.cls-2,.cls-4{fill:#fbb058;}.cls-2,.cls-3,.cls-5{stroke-width:2px;}.cls-5{fill:#603813;}.cls-6{fill:none;}</style></defs><g id="Layer_2" data-name="Layer 2"><g id="Layer_1-2" data-name="Layer 1"><path class="cls-1" d="M313,29.05,38,25.26s-12,0-32.3-6.76"/><path class="cls-2" d="M313,50.49c.87-.57,5.56-7.73,4.56-18.73l-4,6-2,9,1.24,3.66A.14.14,0,0,0,313,50.49Z"/><path class="cls-2" d="M373.33,25.31l-.47,3.26a3.48,3.48,0,0,1-2.59,3c-2.09.43-5.54.32-10-2.71v-3l11.95-1.7A1.09,1.09,0,0,1,373.33,25.31Z"/><path class="cls-3" d="M308.42,17.27,47.72,13.85C38.18,13.72,32.2,14.43,22,16L5.42,18.5l13.21,2.95a135,135,0,0,0,27.7,3.06l266.51,3.56"/><polyline class="cls-4" points="5.42 18.5 292.03 22.32 297.59 18.76 310.24 19.83 312.52 25.37 300.32 26.15 292.03 22.32"/><polyline class="cls-5" points="313.69 19.88 357.26 20.46 358.73 23.02 360.23 25.62 315.81 25.03"/><line class="cls-6" x1="356.05" y1="25.57" x2="350.21" y2="20.36"/><line class="cls-6" x1="351.18" y1="25.5" x2="345.42" y2="20.3"/><line class="cls-6" x1="346.3" y1="25.44" x2="340.63" y2="20.23"/><line class="cls-6" x1="341.43" y1="25.37" x2="335.84" y2="20.17"/><line class="cls-6" x1="336.55" y1="25.31" x2="331.06" y2="20.11"/><line class="cls-6" x1="331.68" y1="25.24" x2="326.27" y2="20.04"/><line class="cls-6" x1="326.81" y1="25.18" x2="321.48" y2="19.98"/><line class="cls-6" x1="321.93" y1="25.11" x2="316.69" y2="19.92"/><polygon class="cls-5" points="317.3 28.12 360.23 28.76 360.23 25.71 316.86 25.18 317.3 28.12"/><path class="cls-2" d="M311.37,22.58c5,12.09-2.65,23.2-3.79,24.74a.13.13,0,0,0,.1.19l5.27.06s9.12-11.9,2.87-24.95c-4.4-12-18.57-21.54-18.57-21.54L290.42,1S306.45,10.62,311.37,22.58Z"/><path class="cls-2" d="M360.23,25.62l7.42,1.95c2.78.73,5.13.11,5.39-1.4l.22-1.23c.17-1-.56-2.12-1.92-3.09l-1.89-1.34A9,9,0,0,0,362.62,19l-5.36,1.5Z"/><path class="cls-2" d="M307.45,47.63v2.95h5.26a.13.13,0,0,0,.13-.13l.11-2.88-5.38-.06A.12.12,0,0,0,307.45,47.63Z"/></g></g></svg>