<svg xmlns="http://www.w3.org/2000/svg" viewBox="0 0 876.88 604.64"><defs><style>.cls-1{fill:#121919;}.cls-1,.cls-10,.cls-11,.cls-12,.cls-2,.cls-3,.cls-4,.cls-5,.cls-6,.cls-7,.cls-8,.cls-9{stroke:#000;stroke-miterlimit:10;stroke-width:2px;}.cls-2{fill:#1f2827;}.cls-3{fill:#273130;}.cls-4{fill:#252721;}.cls-5{fill:#2d3231;}.cls-6{fill:#233234;}.cls-7{fill:#2c2e2b;}.cls-8{fill:#1a2323;}.cls-9{fill:#1b2223;}.cls-10{fill:#0a1011;}.cls-11{fill:#151f21;}.cls-12{fill:#3c4647;}.cls-13{font-size:58.97px;fill:#ebecec;font-family:PfefferMediaeval, Pfeffer Mediæval;}</style></defs><g id="Layer_2" data-name="Layer 2"><g id="Layer_5" data-name="Layer 5"><path class="cls-1" d="M81.17,148.82l-80,20.45s0,.07,0,.09l483,142.08L875.65,182.76a.09.09,0,0,0,0-.16l-84.92-27.08"/><path class="cls-2" d="M200.57,94.3l-119,25.91a.13.13,0,0,0,0,.25l403.23,99.85L789.5,127.85a.34.34,0,0,0,0-.65l-81.69-17.59"/><path class="cls-3" d="M428.57,1,707.65,63.17a0,0,0,0,1,0,.06L484.2,115.39,200.53,53.5a.19.19,0,0,1,0-.38Z"/><path class="cls-4" d="M707.78,63.23v57.65L483.1,178.56l1.1-63.17L707.75,63.21S707.78,63.22,707.78,63.23Z"/><path class="cls-5" d="M199.64,53.55V114.2L483.1,178.56l1.1-63.17-284.32-62A.2.2,0,0,0,199.64,53.55Z"/><path class="cls-6" d="M81,120.49l.55,39.39L484.2,272.5l.55-52.19L81.15,120.37A.12.12,0,0,0,81,120.49Z"/><path class="cls-7" d="M484.2,272.5l305.43-93.94,1.09-50.63a.33.33,0,0,0-.43-.33L484.75,220.31Z"/><path class="cls-8" d="M1,169.37V603.64H483.1l1.08-292.2L1.06,169.33A0,0,0,0,0,1,169.37Z"/><path class="cls-5" d="M484.18,311.44l391.6-128.73a.08.08,0,0,1,.1.08V603.64H483.1Z"/></g><g id="Layer_18" data-name="Layer 18"><path class="cls-9" d="M525.57,332.37v112.4a.78.78,0,0,0,1,.75L862.06,338.37l.56-112.76a.51.51,0,0,0-.67-.5Z"/><path class="cls-10" d="M524.48,445.4l-9.4-3.9-.51-112.88a.41.41,0,0,1,.55-.38l10.45,4.13v112.3A.79.79,0,0,1,524.48,445.4Z"/><path class="cls-11" d="M525.57,332.37,861,225.43a.52.52,0,0,0,0-1l-11.37-3.12L515.64,327.68a.4.4,0,0,0,0,.76Z"/><path class="cls-12" d="M544.66,347.46v80.73s0,0,.05,0l307.86-97V249.78h0Z"/><path class="cls-10" d="M544.6,428.22l-8-3.19v-80.5a.28.28,0,0,1,.39-.26l7.7,3.19v80.72A0,0,0,0,1,544.6,428.22Z"/><path class="cls-11" d="M544.66,347.46l307.88-97.69s0,0,0,0l-11-4.72L536.9,344a.13.13,0,0,0,0,.24Z"/><text class="cls-13" transform="matrix(0.99, -0.31, 0.02, 1, 574.62, 385.95)">Equipment</text></g></g></svg>