<svg id="Layer_1" data-name="Layer 1" xmlns="http://www.w3.org/2000/svg" viewBox="0 0 876.88 604.64"><defs><style>.cls-1{fill:#162020;}.cls-1,.cls-2,.cls-3,.cls-4,.cls-5,.cls-6,.cls-7,.cls-8{stroke:#231f20;stroke-miterlimit:10;stroke-width:2px;}.cls-2{fill:#1f2827;}.cls-3{fill:#273130;}.cls-4{fill:#252721;}.cls-5{fill:#2d3231;}.cls-6{fill:#233234;}.cls-7{fill:#2c2e2b;}.cls-8{fill:#222e2e;}</style></defs><path class="cls-1" d="M85.25,154.21l-80,20.45s0,.08,0,.09l483,142.08L879.73,188.15a.08.08,0,0,0,0-.15l-84.92-27.09" transform="translate(-4.08 -5.4)"/><path class="cls-2" d="M204.65,99.7l-119,25.91a.13.13,0,0,0,0,.25L488.83,225.7l304.75-92.46a.34.34,0,0,0,0-.65L711.86,115" transform="translate(-4.08 -5.4)"/><path class="cls-3" d="M432.65,6.42,711.73,68.57a0,0,0,0,1,0,.05L488.28,120.78,204.61,58.9a.2.2,0,0,1,0-.38Z" transform="translate(-4.08 -5.4)"/><path class="cls-4" d="M711.86,68.63v57.64L487.18,184l1.1-63.17L711.83,68.6A0,0,0,0,1,711.86,68.63Z" transform="translate(-4.08 -5.4)"/><path class="cls-5" d="M203.72,59v60.64L487.18,184l1.1-63.17L204,58.76A.19.19,0,0,0,203.72,59Z" transform="translate(-4.08 -5.4)"/><path class="cls-6" d="M85.07,125.89l.55,39.39L488.28,277.89l.55-52.19L85.23,125.76A.13.13,0,0,0,85.07,125.89Z" transform="translate(-4.08 -5.4)"/><path class="cls-7" d="M488.28,277.89,793.72,184l1.08-50.62a.33.33,0,0,0-.43-.33L488.83,225.7Z" transform="translate(-4.08 -5.4)"/><path class="cls-8" d="M5.08,174.77V609h482.1l1.08-292.21L5.14,174.72A.05.05,0,0,0,5.08,174.77Z" transform="translate(-4.08 -5.4)"/><path class="cls-5" d="M488.26,316.83l391.6-128.72a.07.07,0,0,1,.1.07V609H487.18Z" transform="translate(-4.08 -5.4)"/></svg>