<svg xmlns="http://www.w3.org/2000/svg" viewBox="0 0 876.88 604.64"><defs><style>.cls-1{fill:#162020;}.cls-1,.cls-2,.cls-3,.cls-4,.cls-5,.cls-6,.cls-7,.cls-8{stroke:#000;stroke-miterlimit:10;stroke-width:2px;}.cls-2{fill:#1f2827;}.cls-3{fill:#273130;}.cls-4{fill:#252721;}.cls-5{fill:#2d3231;}.cls-6{fill:#233234;}.cls-7{fill:#2c2e2b;}.cls-8{fill:#222e2e;}</style></defs><g id="Layer_2" data-name="Layer 2"><g id="Layer_5" data-name="Layer 5"><path class="cls-1" d="M81.17,148.82l-80,20.45s0,.07,0,.09l483,142.08L875.65,182.76a.09.09,0,0,0,0-.16l-84.92-27.08"/><path class="cls-2" d="M200.57,94.3l-119,25.91a.13.13,0,0,0,0,.25l403.23,99.85L789.5,127.85a.34.34,0,0,0,0-.65l-81.69-17.59"/><path class="cls-3" d="M428.57,1,707.65,63.17a0,0,0,0,1,0,.06L484.2,115.39,200.53,53.5a.19.19,0,0,1,0-.38Z"/><path class="cls-4" d="M707.78,63.23v57.65L483.1,178.56l1.1-63.17L707.75,63.21S707.78,63.22,707.78,63.23Z"/><path class="cls-5" d="M199.64,53.55V114.2L483.1,178.56l1.1-63.17-284.32-62A.2.2,0,0,0,199.64,53.55Z"/><path class="cls-6" d="M81,120.49l.55,39.39L484.2,272.5l.55-52.19L81.15,120.37A.12.12,0,0,0,81,120.49Z"/><path class="cls-7" d="M484.2,272.5l305.43-93.94,1.09-50.63a.33.33,0,0,0-.43-.33L484.75,220.31Z"/><path class="cls-8" d="M1,169.37V603.64H483.1l1.08-292.2L1.06,169.33A0,0,0,0,0,1,169.37Z"/><path class="cls-5" d="M484.18,311.44l391.6-128.73a.08.08,0,0,1,.1.08V603.64H483.1Z"/></g></g></svg>