<svg xmlns="http://www.w3.org/2000/svg" viewBox="0 0 265.36 476.47"><defs><style>.cls-1{fill:#666;}.cls-2{fill:#333;}.cls-3{fill:#503f2b;}.cls-4{fill:#695239;}.cls-5{fill:#cccecd;}.cls-6{fill:#2f251b;}.cls-7{fill:#443d35;}.cls-8{fill:#131d26;}.cls-9{fill:#391f08;}.cls-10{fill:#25160d;}.cls-11{fill:#40260d;}.cls-12{fill:#4f3522;}.cls-13,.cls-14,.cls-15{fill:none;stroke:#000;stroke-miterlimit:10;}.cls-13,.cls-15{stroke-width:2px;}.cls-15{stroke-linecap:round;}</style></defs><g id="Layer_2" data-name="Layer 2"><g id="Layer_9" data-name="Layer 9"><path class="cls-1" d="M.72,390.26a.15.15,0,0,0,0,.2l135.57-126.6-3.18-3.39L56.4,331.76l.21,1.57-3.44,1.43L21,364.64A97.47,97.47,0,0,0,6.19,382.06Z"/><path class="cls-1" d="M136.31,263.86.74,390.46a.15.15,0,0,0,.19,0l8.64-4.86q2.05-1.14,4-2.4c.84-.53,3.86-4.63,3.86-4.63s.69,1.61,1.69.88a97,97,0,0,0,9.4-7.78L101.75,303l1.35-3.95,6.13-3.07,30.41-28.54c-.42,0-.67-.35-.8-1h0Z"/><path class="cls-2" d="M136.31,263.86l2.5,2.66h0a17.57,17.57,0,0,1,0-4.12l-8-8.49-1.26,1.26.26.74V257l3.28,3.49Z"/><path class="cls-3" d="M166,426.82c.05,2.15,0,3.88,0,5.14,0,.94,0,1.62-.05,2s0,.46,0,.46c-3.82,1.15-11.44,6.24-18.27,12.09-9.72,8.3-17.85,15.12-11.34,17.29s40.56-7.4,40.56-7.4h5.55l3.71-1.25c9.21-3.2,0-23.51,0-23.51s2.68-27.8,4.76-48.86c-.32.19-7.45,4.25-29.27,1.46.18,1.28.38,2.59.6,3.92a277.77,277.77,0,0,1,3.56,33.14c.06,1.23.1,2.38.13,3.45C166,425.5,166,426.18,166,426.82Z"/><path class="cls-4" d="M150.64,246.84l.2.06a2.81,2.81,0,0,0,1.9-1,5.4,5.4,0,0,0,1.1-2,22.84,22.84,0,0,0,.77-3.43c.36-2.32.49-4.53.5-4.71a29.29,29.29,0,0,0-10.1-4.22s-3.67,6.86-7.67,14.86a13.14,13.14,0,0,0,1,14l.61,0c0,.47-.08,1-.11,1.46l0,.49a17.57,17.57,0,0,0,0,4.12c.13.61.38,1,.8,1h0l.23,0a2.9,2.9,0,0,0,1-.54,4.29,4.29,0,0,0,1-1.25A12.13,12.13,0,0,0,143,262.9c.45-1.51.86-3.27,1.55-5.12a20.73,20.73,0,0,1,2-4.08,18.73,18.73,0,0,1,1.32-1.8l0,0A13.3,13.3,0,0,0,150.64,246.84Z"/><path class="cls-2" d="M139.88,267.44l0,.24,4.44,4.72,2-2-4.45-4.75a4.29,4.29,0,0,1-1,1.25A2.9,2.9,0,0,1,139.88,267.44Z"/><path class="cls-4" d="M147.15,261.09c.45-2.09-2.31-3.19-2.31-3.19l-.32-.12c-.69,1.85-1.1,3.61-1.55,5.12a2.8,2.8,0,0,0,4.18-1.81Z"/><path class="cls-4" d="M151,257.82a2.83,2.83,0,0,0-.16-.92,4.37,4.37,0,0,0-4-3l-.32-.2a20.73,20.73,0,0,0-2,4.08l.32.12s2.76,1.1,2.31,3.19C148.32,261.5,151,260.06,151,257.82Z"/><path class="cls-5" d="M155.11,235.76a14,14,0,0,1,1.64,1.33,184.72,184.72,0,0,0,7.59-25.69l.19,0a293.81,293.81,0,0,0,2.81-31c-.06-2.36,0-13.57,0-16-.09-4.56.2-9.71.5-15.52l-15.41-1.18c-.46,12.39-.09,16-3.09,34.7a478.25,478.25,0,0,0-5,49s.24,0,.67.14A29.29,29.29,0,0,1,155.11,235.76Z"/><path class="cls-4" d="M153,255.89a5,5,0,0,0-1.18-3,4.9,4.9,0,0,0-.94-1.07,2.23,2.23,0,0,0-3,0l0,0a18.73,18.73,0,0,0-1.32,1.8l.32.2a4.37,4.37,0,0,1,4,3,2.83,2.83,0,0,1,.16.92C152.09,257.27,152.92,256.8,153,255.89Z"/><path class="cls-6" d="M147.87,251.87a2.23,2.23,0,0,1,3,0c.29-.32,1.58-1.57,2.67.48l2.27-2.41-3.1-4a2.81,2.81,0,0,1-1.9,1l-.2-.06A13.3,13.3,0,0,1,147.87,251.87Z"/><path class="cls-4" d="M150.9,251.83a4.9,4.9,0,0,1,.94,1.07,5,5,0,0,1,1.18,3c.51,0,1.87-.34.82-3-.09-.22-.18-.42-.27-.59C152.48,250.26,151.19,251.51,150.9,251.83Z"/><path class="cls-7" d="M167.84,148.88c-.3,5.81-.59,11-.5,15.52,0,2.43-.06,13.64,0,16a293.81,293.81,0,0,1-2.81,31c-.06.36-.11.72-.16,1l.82.14a141.46,141.46,0,0,0,18.48,2.62c.24-1.11.48-2.1.71-2.93l6.26.36s3.34-1.45,5,3.13a225.22,225.22,0,0,0,41-3.16c-.66-7-1.38-20.78-.27-43.24.35-9,.77-18.82,1.95-28.91h.05c.15,3.13.48,6.23.93,9.32l1.43-.26,21.71-4c-3.9-35.09-14.07-44.13-14.07-44.13s-4.94-4-5-4a28.29,28.29,0,0,1-6-3A70.57,70.57,0,0,0,229,90.68c-2.66-1.28-4.25-2.1-6.57-1.81,0,0-1.09,13.53-17.09,17.53l-.16,4-.33,8-.29,7-.22,5.35-3.82,4.43-3.18-5,.2-4.83.3-7,.33-8,.17-4c-13.36-3-16-17-16-17a29.33,29.33,0,0,0-5,1c-5,2-5,2-8.72,4.63-5.28,4.37-13.28,8.37-15.28,36.37-.5,7-.75,12.15-.91,16.3Z"/><path class="cls-2" d="M160.19,247.13c.18-2.17.35-4.14.51-5.86l-.54-.06c-1.67-2.69-5.55-.74-5.55-.74a22.84,22.84,0,0,1-.77,3.43,5.4,5.4,0,0,1-1.1,2l3.1,4s-.28,1.21,2.86,1.11l1.19.09C160,249.71,160.09,248.39,160.19,247.13Z"/><path class="cls-8" d="M202.34,283.8c3.42,13.71,6.3,31.48,11.46,44,9.56,23.34,4.93,25.19,8.63,47.39q.31,1.92.72,4c.12.62.25,1.25.38,1.89,18.19,4.67,29-7.07,29-7.07l-.15-1.71c-.59-6.32-1.35-12.56-2.38-18.35-3.26-18.48-3.56-55.37-5.95-82.5l-.21-.38c-3.16,1.33-5.88,2.36-5-.17.69-2.06,3.39-2.44,5.78-5.16l-.25-.23c-.34-3.71-.69-8.13-1.06-11.64a16.86,16.86,0,0,0-3.23,4.23c-3.24,5.8-5.24,5.8-4.24-.2A37.09,37.09,0,0,1,241,245.23c-2.63.67-41.58,10.25-80.82,1.9-.1,1.26-.2,2.58-.3,4-1.35,18.18-2.56,46.42.93,63.71,4.89,24.23-2.29,41.58.28,64.81,18.43,4.14,29.91-1.32,30.33-1.53.48-4.73.91-8.92,1.24-12.11,1.85-17.58-3.33-25.58,0-39.79C195.15,315.62,202.16,292.16,202.34,283.8Z"/><path class="cls-7" d="M160.7,241.27c-.16,1.72-.33,3.69-.51,5.86,39.24,8.35,78.19-1.23,80.82-1.9a1.74,1.74,0,0,0,.11-.18c-.61-3.71-1.27-8.76-2-11.38l-1.74-15.27s-18.67,3.74-48.16,2.36c-1.14,6.56-2.56,15.19-2.67,18.33l-3.39,2.7-2.78-4s1.06-9.44,2.38-17.36c-6.09-.42-12.57-1.06-19.39-2l-1.88,15.27S161.13,236.53,160.7,241.27Z"/><path class="cls-9" d="M161.1,379.62c.17,1.52.37,3.07.59,4.65,21.82,2.79,28.95-1.27,29.27-1.46.11-1.09.22-2.15.32-3.2l.15-1.52C191,378.3,179.53,383.76,161.1,379.62Z"/><path class="cls-9" d="M164.37,212.48c-.6,3.87-1,5.92-1,5.92,6.82.93,13.3,1.57,19.39,2,.31-1.85.63-3.61.95-5.15a141.46,141.46,0,0,1-18.48-2.62Z"/><path class="cls-4" d="M180.29,26c-6.8.41-11,8.79-7.63,15.19l7.78,17.61a86.71,86.71,0,0,0,6.05,11.38L193.32,81c.05.09.09.18.15.27a10.36,10.36,0,0,0,5,4.6,3.66,3.66,0,0,0,.46.18,10.87,10.87,0,0,0,2.74.57l.6,0a9.1,9.1,0,0,0,7.89-4.74l0-.06,9.69-15.51q2.58-4.14,4.86-8.45l9.75-18.5c4.33-7.57-1-16.6-9.38-16.09l-18.6,1.12-8.88.54Zm7.55,31.86c-1.49-2.45-2.27-2.62-1-6s.26-3.84,5-4,1-3,5-1c1.79.89,4,.64,3.44,4.53s-.05,4.9-.05,4.9a5.51,5.51,0,0,1-.28,1.2l.28-.2a2.87,2.87,0,0,1,3.45.15c.28.23.58.48.88.75a4.61,4.61,0,0,1,.11-.94,8.51,8.51,0,0,1,.17-5.39c1.09-2.7,1.34-5.13,4-5a19.78,19.78,0,0,0,5,0c1.71-.26,3.46,1.05,3,4s.49,3-1,7-4.14,2.3-3.91,2.94-1.63,2.09-1.63,2.09a10.35,10.35,0,0,1-2-.45,8.39,8.39,0,0,1,1.53,4.42A14.77,14.77,0,0,1,208.68,72c-1.58,4-4.47,7.93-6.84,7.93-3.45,0-8-8.52-8-14a6.28,6.28,0,0,1,.62-2.69c-.77.47-1.29.72-1.29.72s-2,1.82-3.33-2C188.84,58.9,189.33,60.35,187.84,57.9Z"/><path class="cls-10" d="M220.38,1.4C176.75,3.92,180.29,26,180.29,26L197.65,25C203.43,7.47,220.38,1.4,220.38,1.4Z"/><path class="cls-9" d="M180.34,237.75l2.78,4,3.39-2.7c.11-3.14,1.53-11.77,2.67-18.33q-3.15-.13-6.46-.37C181.4,228.31,180.34,237.75,180.34,237.75Z"/><path class="cls-5" d="M215,88.81s-4.17,8.88-13.69,8.59c-6.61-.2-10.46-4.82-12.08-7.36a14.09,14.09,0,0,1-.92-1.64l-6,1s2.64,14,16,17l-.17,4h7l.16-4c16-4,17.09-17.53,17.09-17.53Z"/><path class="cls-9" d="M183.67,215.24c-.32,1.54-.64,3.3-.95,5.15q3.32.24,6.46.37c.34-2,.66-3.74.91-5.12Q186.91,215.51,183.67,215.24Z"/><path class="cls-9" d="M184.38,212.31c-.23.83-.47,1.82-.71,2.93q3.24.27,6.42.4c.33-1.82.55-3,.55-3Z"/><path class="cls-11" d="M186.84,51.9c-1.27,3.38-.49,3.55,1,6s1,1,2,4c1.28,3.85,3.33,2,3.33,2s.52-.25,1.29-.72a12.5,12.5,0,0,1,3.47-4.14,2.75,2.75,0,0,1-1.53.44,2.19,2.19,0,1,1,2.51-2.17,2,2,0,0,1-.61,1.42c.58-.46,1.14-.87,1.65-1.23a5.51,5.51,0,0,0,.28-1.2s-.53-1,.05-4.9-1.65-3.64-3.44-4.53c-4-2-.26.84-5,1S188.11,48.52,186.84,51.9Z"/><path class="cls-4" d="M189.31,90l-.05,0c1.62,2.54,5.47,7.16,12.08,7.36,9.52.29,13.69-8.59,13.69-8.59l-3.7-7.34-.12-.08,0,.06a10,10,0,0,1-8.89,5.23l-.6,0a9.3,9.3,0,0,1-2.74-.57,3.66,3.66,0,0,1-.46-.18,11.38,11.38,0,0,1-5.73-5.16Z"/><path class="cls-9" d="M195.66,215.8c-1.83,0-3.69-.07-5.57-.16-.25,1.38-.57,3.16-.91,5.12,29.49,1.38,48.16-2.36,48.16-2.36s-.36-1.8-.73-5.76A225.22,225.22,0,0,1,195.66,215.8Z"/><path class="cls-9" d="M190.64,212.67s-.22,1.15-.55,3c1.88.09,3.74.14,5.57.16C194,211.22,190.64,212.67,190.64,212.67Z"/><path class="cls-12" d="M201.43,71.46V63.3c-1.14,0-2.06-.36-2.06-.8,0-.22.23-.42.6-.56l-2.82-.67a19.07,19.07,0,0,1-2.69,1.94,6.28,6.28,0,0,0-.62,2.69c0,5.48,4.55,14,8,14,2.37,0,5.26-4,6.84-7.93L206,71.46Z"/><path d="M193.89,57.34a2.36,2.36,0,0,0,2.51,2.17,2.75,2.75,0,0,0,1.53-.44l.37-.31a2,2,0,0,0,.61-1.42,2.54,2.54,0,0,0-5,0Z"/><path class="cls-12" d="M197.93,59.07a12.5,12.5,0,0,0-3.47,4.14,19.07,19.07,0,0,0,2.69-1.94,9.59,9.59,0,0,0,2.8-3.74c-.51.36-1.07.77-1.65,1.23A3.79,3.79,0,0,1,197.93,59.07Z"/><path class="cls-12" d="M197.15,61.27l2.82.67a4,4,0,0,1,1.46-.24,3,3,0,0,1,1.89.49l2.8-.82a3.7,3.7,0,0,1-1.56-3.14c-.3-.27-.6-.52-.88-.75a2.87,2.87,0,0,0-3.45-.15l-.28.2A9.59,9.59,0,0,1,197.15,61.27Z"/><polygon class="cls-5" points="197.54 125.4 197.34 130.23 200.52 135.18 204.34 130.75 204.56 125.4 197.54 125.4"/><polygon class="cls-5" points="197.84 118.4 197.54 125.4 204.56 125.4 204.85 118.4 197.84 118.4"/><polygon class="cls-5" points="198.17 110.4 197.84 118.4 204.85 118.4 205.18 110.4 198.17 110.4"/><path d="M197.93,59.07a3.79,3.79,0,0,0,.37-.31Z"/><path d="M200,61.94c-.37.14-.6.34-.6.56,0,.44.92.8,2.06.8s2-.36,2-.8a.43.43,0,0,0-.16-.31,3,3,0,0,0-1.89-.49A4,4,0,0,0,200,61.94Z"/><path class="cls-4" d="M201.68,86.66a10.87,10.87,0,0,1-2.74-.57A9.3,9.3,0,0,0,201.68,86.66Z"/><path class="cls-12" d="M201.43,63.3v8.16H206l2.68.51a14.77,14.77,0,0,0,1.16-5.07,8.39,8.39,0,0,0-1.53-4.42,7.67,7.67,0,0,1-2.19-1.11l-2.8.82a.43.43,0,0,1,.16.31C203.48,62.94,202.56,63.3,201.43,63.3Z"/><path class="cls-12" d="M204.56,58.23a3.7,3.7,0,0,0,1.56,3.14,7.67,7.67,0,0,0,2.19,1.11A21.49,21.49,0,0,0,204.56,58.23Z"/><path class="cls-11" d="M204.67,57.29a4.61,4.61,0,0,0-.11.94,21.49,21.49,0,0,1,3.75,4.25,10.35,10.35,0,0,0,2,.45s1.86-1.45,1.63-2.09,2.42,1.07,3.91-2.94.54-4,1-7-1.29-4.26-3-4a19.78,19.78,0,0,1-5,0c-2.66-.13-2.91,2.3-4,5A8.51,8.51,0,0,0,204.67,57.29Zm3.61,3.22a2.19,2.19,0,1,1,2.51-2.17A2.36,2.36,0,0,1,208.28,60.51Z"/><path d="M205.76,58.34a2.54,2.54,0,1,0,2.52-2.17A2.36,2.36,0,0,0,205.76,58.34Z"/><path class="cls-10" d="M206.53,24.45l18.6-1.12c7.28-10.8,23.78-18.57,23.78-18.57C210.32-.28,206.53,24.45,206.53,24.45Z"/><path class="cls-9" d="M223.53,381.08c.29,1.42.61,2.88,1,4.36,22.6,3.52,28.49-6.06,28.49-6.06h0q-.19-2.69-.42-5.37S241.72,385.75,223.53,381.08Z"/><path class="cls-3" d="M224.49,385.44c5,21.56,14.67,48.08,14.67,48.08s-6.82,30.88,13.05,41.26c3.65,1.9,8.16-.34,9.48-4.23,2.47-7.35,2-18.46-7.95-40.73,0,0,1-24.79-.75-50.44h0S247.09,389,224.49,385.44Z"/><path class="cls-4" d="M246.43,269.9h7.41c4,0,7.5-13.5,7.5-13.5,1.94-9.71-.39-15-.53-15.28h0c-2.3-1.74-7-4.57-12.71-4a31.39,31.39,0,0,0-7,7.93l0,.15-.14,0a37.09,37.09,0,0,0-5.17,12.67c-1,6,1,6,4.24.2a16.86,16.86,0,0,1,3.23-4.23,7.1,7.1,0,0,1,3.53-2s3,0,.63,8.28a14,14,0,0,1-2.85,5.56c-2.39,2.72-5.09,3.1-5.78,5.16-.84,2.53,1.88,1.5,5,.17.59-.25,1.18-.51,1.78-.75A4.47,4.47,0,0,0,246.43,269.9Z"/><path class="cls-5" d="M248.1,237.12c5.71-.58,10.41,2.25,12.71,4h0a15.21,15.21,0,0,1,1.53,1.28s3.78-41.86,1-86c-.24-3.88-.56-7.49-.93-10.87l-21.71,4-1.43.26c2,13.51,6.26,26.71,7.07,40.24,1,16.66,0,47.35,0,47.35A13.68,13.68,0,0,1,248.1,237.12Z"/><path class="cls-13" d="M260.81,241.11c-2.3-1.74-7-4.57-12.71-4a13.68,13.68,0,0,0-1.76.28s1-30.69,0-47.35c-.81-13.53-5.09-26.73-7.07-40.24-.45-3.09-.78-6.19-.93-9.32v-.09"/><path class="cls-13" d="M164.34,211.4a184.72,184.72,0,0,1-7.59,25.69,14,14,0,0,0-1.64-1.33,29.29,29.29,0,0,0-10.1-4.22c-.43-.1-.67-.14-.67-.14a478.25,478.25,0,0,1,5-49c3-18.73,2.63-22.31,3.09-34.7.16-4.15.41-9.28.91-16.3,2-28,10-32,15.28-36.37,3.72-2.63,3.72-2.63,8.72-4.63a29.33,29.33,0,0,1,5-1s2.64,14,16,17l-.17,4-.33,8-.3,7-.2,4.83,3.18,5,3.82-4.43.22-5.35.29-7,.33-8,.16-4c16-4,17.09-17.53,17.09-17.53,2.32-.29,3.91.53,6.57,1.81a70.57,70.57,0,0,1,8.34,3.72,28.29,28.29,0,0,0,6,3c.06,0,5,4,5,4s10.17,9,14.07,44.13c.37,3.38.69,7,.93,10.87,2.78,44.14-1,86-1,86a15.21,15.21,0,0,0-1.53-1.28"/><path class="cls-13" d="M168.34,132.4c0,6-.25,11.49-.5,16.48-.3,5.81-.59,11-.5,15.52,0,2.43-.06,13.64,0,16a293.81,293.81,0,0,1-2.81,31c-.06.36-.11.72-.16,1-.6,3.87-1,5.92-1,5.92l-1.88,15.27s-.32,2.86-.75,7.6c-.16,1.72-.33,3.69-.51,5.86-.1,1.26-.2,2.58-.3,4-1.35,18.18-2.56,46.42.93,63.71,4.89,24.23-2.29,41.58.28,64.81.17,1.52.37,3.07.59,4.65.18,1.28.38,2.59.6,3.92a277.77,277.77,0,0,1,3.56,33.14c.06,1.23.1,2.38.13,3.45,0,.72,0,1.4.05,2,.05,2.15,0,3.88,0,5.14,0,.94,0,1.62-.05,2s0,.46,0,.46c-3.82,1.15-11.44,6.24-18.27,12.09-9.72,8.3-17.85,15.12-11.34,17.29s40.56-7.4,40.56-7.4h5.55l3.71-1.25c9.21-3.2,0-23.51,0-23.51s2.68-27.8,4.76-48.86c.11-1.09.22-2.15.32-3.2l.15-1.52c.48-4.73.91-8.92,1.24-12.11,1.85-17.58-3.33-25.58,0-39.79,2.48-10.57,9.49-34,9.67-42.39"/><path class="cls-13" d="M238.29,140.49c-1.18,10.09-1.6,19.94-1.95,28.91-1.11,22.46-.39,36.23.27,43.24.37,4,.73,5.76.73,5.76l1.74,15.27c.77,2.62,1.43,7.67,2,11.38l0,.15"/><polyline class="cls-13" points="215.63 90.01 215.03 88.81 211.33 81.47"/><polyline class="cls-13" points="189.31 90.01 192.75 80.75 192.82 80.54"/><path class="cls-13" d="M225.13,23.33l-18.6,1.12-8.88.54L180.29,26c-6.8.41-11,8.79-7.63,15.19l7.78,17.61a86.71,86.71,0,0,0,6.05,11.38L193.32,81c.05.09.09.18.15.27a10.36,10.36,0,0,0,5,4.6,3.66,3.66,0,0,0,.46.18,9.3,9.3,0,0,0,2.74.57l.6,0a9.1,9.1,0,0,0,7.89-4.74l0-.06,9.69-15.51q2.58-4.14,4.86-8.45l9.75-18.5C238.84,31.85,233.5,22.82,225.13,23.33Z"/><path class="cls-13" d="M180.29,26S176.75,3.92,220.38,1.4c0,0-16.95,6.07-22.73,23.59"/><path class="cls-13" d="M206.53,24.45S210.32-.28,248.91,4.76c0,0-16.5,7.77-23.78,18.57"/><path class="cls-13" d="M244.37,265.51c-.34-3.71-.69-8.13-1.06-11.64,0-.29-.05-.57-.08-.85"/><path class="cls-13" d="M197.6,263.28s1.83,8.77,4.74,20.52c3.42,13.71,6.3,31.48,11.46,44,9.56,23.34,4.93,25.19,8.63,47.39q.31,1.92.72,4c.12.62.25,1.25.38,1.89.29,1.42.61,2.88,1,4.36,5,21.56,14.67,48.08,14.67,48.08s-6.82,30.88,13.05,41.26c3.65,1.9,8.16-.34,9.48-4.23,2.47-7.35,2-18.46-7.95-40.73,0,0,1-24.79-.75-50.44q-.19-2.69-.42-5.37l-.15-1.71c-.59-6.32-1.35-12.56-2.38-18.35-3.26-18.48-3.56-55.37-5.95-82.5"/><path class="cls-14" d="M200,57.53a5.51,5.51,0,0,0,.28-1.2s-.53-1,.05-4.9-1.65-3.64-3.44-4.53c-4-2-.26.84-5,1s-3.73.62-5,4-.49,3.55,1,6,1,1,2,4c1.28,3.85,3.33,2,3.33,2s.52-.25,1.29-.72"/><path class="cls-14" d="M204.56,58.23a4.61,4.61,0,0,1,.11-.94,8.51,8.51,0,0,1,.17-5.39c1.09-2.7,1.34-5.13,4-5a19.78,19.78,0,0,0,5,0c1.71-.26,3.46,1.05,3,4s.49,3-1,7-4.14,2.3-3.91,2.94-1.63,2.09-1.63,2.09a10.35,10.35,0,0,1-2-.45"/><path class="cls-14" d="M197.93,59.07a12.5,12.5,0,0,0-3.47,4.14,6.28,6.28,0,0,0-.62,2.69c0,5.48,4.55,14,8,14,2.37,0,5.26-4,6.84-7.93a14.77,14.77,0,0,0,1.16-5.07,8.39,8.39,0,0,0-1.53-4.42,21.49,21.49,0,0,0-3.75-4.25c-.3-.27-.6-.52-.88-.75a2.87,2.87,0,0,0-3.45-.15l-.28.2c-.51.36-1.07.77-1.65,1.23"/><path class="cls-14" d="M198.3,58.76a2,2,0,0,0,.61-1.42,2.54,2.54,0,1,0-2.51,2.17,2.75,2.75,0,0,0,1.53-.44A3.79,3.79,0,0,0,198.3,58.76Z"/><path class="cls-14" d="M205.76,58.34a2.54,2.54,0,1,0,2.52-2.17A2.36,2.36,0,0,0,205.76,58.34Z"/><path class="cls-14" d="M200,61.94c-.37.14-.6.34-.6.56,0,.44.92.8,2.06.8s2-.36,2-.8a.43.43,0,0,0-.16-.31,3,3,0,0,0-1.89-.49A4,4,0,0,0,200,61.94Z"/><polyline class="cls-14" points="201.43 63.3 201.43 71.46 201.43 71.56"/><path class="cls-14" d="M224.84,41.27s-9.11-3.63-18.61,0"/><path class="cls-14" d="M198.54,42.08s-10.33-3.15-18.32.69"/><polyline class="cls-14" points="206 71.46 201.43 71.46 198.22 71.46"/><path class="cls-13" d="M260.81,241.11h0c.14.3,2.47,5.57.53,15.28,0,0-3.5,13.5-7.5,13.5h-7.5"/><path class="cls-13" d="M255.84,260.9s-2,7-6,9"/><path class="cls-13" d="M252.33,260.18s-2.47,7.43-5.9,9.72a4.47,4.47,0,0,1-.77.42c-.6.24-1.19.5-1.78.75-3.16,1.33-5.88,2.36-5-.17.69-2.06,3.39-2.44,5.78-5.16a14,14,0,0,0,2.85-5.56c2.37-8.28-.63-8.28-.63-8.28a7.1,7.1,0,0,0-3.53,2,16.86,16.86,0,0,0-3.23,4.23c-3.24,5.8-5.24,5.8-4.24-.2A37.09,37.09,0,0,1,241,245.23a1.74,1.74,0,0,0,.11-.18,31.39,31.39,0,0,1,7-7.93l0,0"/><polyline class="cls-14" points="138.81 266.52 136.31 263.86 133.13 260.47 129.85 256.98 129.84 255.9 129.58 255.16 130.84 253.9 138.81 262.39 139.04 262.63"/><polyline class="cls-14" points="141.76 265.52 141.89 265.65 146.34 270.4 144.34 272.4 139.9 267.68"/><path class="cls-14" d="M139.64,267.47,109.23,296l-6.13,3.07L101.75,303,28.56,371.7a97,97,0,0,1-9.4,7.78c-1,.73-1.69-.88-1.69-.88s-3,4.1-3.86,4.63q-2,1.26-4,2.4L.93,390.49a.15.15,0,0,1-.19,0,.15.15,0,0,1,0-.2l5.47-8.2A97.47,97.47,0,0,1,21,364.64l32.16-29.88,3.44-1.43-.21-1.57,76.73-71.29.36-.34"/><line class="cls-14" x1="140.04" y1="267.1" x2="139.65" y2="267.47"/><polyline class="cls-14" points="0.34 390.83 0.74 390.46 136.31 263.86 136.68 263.52"/><path class="cls-13" d="M145,231.54s-3.67,6.86-7.67,14.86a13.14,13.14,0,0,0,1,14"/><path class="cls-13" d="M155.11,235.75h0c0,.18-.14,2.39-.5,4.71a22.84,22.84,0,0,1-.77,3.43,5.4,5.4,0,0,1-1.1,2,2.81,2.81,0,0,1-1.9,1"/><path class="cls-13" d="M147.84,251.9a18.73,18.73,0,0,0-1.32,1.8,20.73,20.73,0,0,0-2,4.08c-.69,1.85-1.1,3.61-1.55,5.12a12.13,12.13,0,0,1-1.08,2.75,4.29,4.29,0,0,1-1,1.25,2.9,2.9,0,0,1-1,.54l-.23,0h0c-.42,0-.67-.35-.8-1a17.57,17.57,0,0,1,0-4.12l0-.49c0-.5.07-1,.11-1.46.48-6.56,1.05-10.1,1.05-10.1"/><path class="cls-13" d="M150.84,245.38a5,5,0,0,1-.2,1.46,13.3,13.3,0,0,1-2.77,5"/><path class="cls-13" d="M152.84,255.9a.62.62,0,0,0,.18,0c.51,0,1.87-.34.82-3-.09-.22-.18-.42-.27-.59-1.09-2.05-2.38-.8-2.67-.48l-.06.07"/><path class="cls-13" d="M147.84,251.9l0,0a2.23,2.23,0,0,1,3,0,4.9,4.9,0,0,1,.94,1.07,5,5,0,0,1,1.18,3c-.1.91-.93,1.38-2,1.93l-.16.08"/><path class="cls-13" d="M146.84,260.9a.81.81,0,0,0,.31.19c1.17.41,3.87-1,3.85-3.27a2.83,2.83,0,0,0-.16-.92,4.37,4.37,0,0,0-4-3"/><path class="cls-13" d="M144.84,257.9s2.76,1.1,2.31,3.19A2.8,2.8,0,0,1,143,262.9"/><polyline class="cls-14" points="153.57 252.31 155.84 249.9 152.74 245.88"/><path class="cls-14" d="M155.84,249.9s-.28,1.21,2.86,1.11"/><path class="cls-14" d="M154.61,240.47s3.88-1.95,5.55.74"/><path class="cls-13" d="M253,379.38s-5.89,9.58-28.49,6.06h0"/><path class="cls-13" d="M252.57,374s-10.85,11.74-29,7.07"/><path class="cls-13" d="M191.44,378.09h0c-.42.21-11.9,5.67-30.33,1.53"/><path class="cls-13" d="M191,382.8h0c-.32.19-7.45,4.25-29.27,1.46"/><polyline class="cls-15" points="207.34 125.4 204.56 125.4 197.54 125.4 193.73 125.4"/><polyline class="cls-15" points="208.34 118.4 204.85 118.4 197.84 118.4 194.73 118.4"/><polyline class="cls-15" points="208.34 110.4 205.18 110.4 198.17 110.4 194.73 110.4"/><path class="cls-13" d="M222.43,88.87l-7.4-.06s-4.17,8.88-13.69,8.59c-6.61-.2-10.46-4.82-12.08-7.36a14.09,14.09,0,0,1-.92-1.64l-6,1"/><line class="cls-13" x1="167.84" y1="148.88" x2="152.43" y2="147.7"/><polyline class="cls-13" points="240.7 149.55 262.41 145.53 263.69 145.29"/><path class="cls-13" d="M237.34,218.4s-18.67,3.74-48.16,2.36q-3.15-.13-6.46-.37c-6.09-.42-12.57-1.06-19.39-2"/><path class="cls-13" d="M236.71,212.62l-.1,0a225.22,225.22,0,0,1-41,3.16c-1.83,0-3.69-.07-5.57-.16q-3.18-.13-6.42-.4a141.46,141.46,0,0,1-18.48-2.62"/><path class="cls-13" d="M241.15,245.2l-.14,0c-2.63.67-41.58,10.25-80.82,1.9l-.15,0"/><path class="cls-13" d="M190.64,212.67l-6.26-.36c-.23.83-.47,1.82-.71,2.93-.32,1.54-.64,3.3-.95,5.15-1.32,7.92-2.38,17.36-2.38,17.36l2.78,4,3.39-2.7c.11-3.14,1.53-11.77,2.67-18.33.34-2,.66-3.74.91-5.12C190.42,213.82,190.64,212.67,190.64,212.67Z"/><path class="cls-13" d="M190.64,212.67s3.34-1.45,5,3.13h0"/><path class="cls-13" d="M250.84,430.9s-2.5,3.5-7.5,1.5"/><path class="cls-13" d="M249.34,424.4s-1,3.35-6,2.17"/><path class="cls-13" d="M249.34,416.66a9.9,9.9,0,0,1-8.09,1.74"/><path class="cls-13" d="M165.85,421.33a7.73,7.73,0,0,0,5,0"/><path class="cls-13" d="M166,426.82s3.27,1.43,4.79,0"/><path class="cls-13" d="M166.05,432h0c.21,0,3.29.54,4.76,0"/></g></g></svg>