<svg xmlns="http://www.w3.org/2000/svg" viewBox="0 0 117.54 412.04"><defs><style>.cls-1{fill:#362b27;}.cls-2{fill:#7a644b;}.cls-3{fill:#263027;}.cls-4{fill:#695239;}.cls-5{fill:#25160d;}.cls-6{fill:#c3a778;}.cls-7{fill:#40260d;}.cls-8{fill:#4f3522;}.cls-10,.cls-11,.cls-9{fill:none;stroke:#000;stroke-miterlimit:10;}.cls-11,.cls-9{stroke-width:2px;}.cls-11{stroke-linecap:round;}</style></defs><g id="Layer_2" data-name="Layer 2"><g id="Layer_9" data-name="Layer 9"><path class="cls-1" d="M12,381.28c-9.85,8.88-12.89,11.13-10,13.61,5.33,4.51,34.06-3,34.06-3h5.62l3.76-1.34c9.33-3.42,0-21.44,0-21.44s-9.81,3.7-17,1.74C24.68,372.11,19,375,12,381.28Z"/><path class="cls-2" d="M55.5,133.71V91.45a25.76,25.76,0,0,1-7.93-1.37c-1.24-.44-3.92,1.59-3.92,1.59s-1.11-4.32-1.8-5a12.42,12.42,0,0,1-3.64-5.45h0c-7.15,1.75-18,5.56-20.33,12.89-6.35,20.12-10.54,26-11.71,40.81C5.06,149,.32,167.1,19.05,168.34a50.56,50.56,0,0,0,7-.15,163.7,163.7,0,0,0,16.47-2.32l-.11-.92c-.24-2.16-.83-7.72-1-11.82.75-1.33,2.93-4,8.41-4.55a2.08,2.08,0,0,1-.85-.65,2,2,0,0,1,0-2.47,3.3,3.3,0,0,1,2.42-1.1l-1.25-.14s-1.17-1.23,1.17-2.47l.22-.1c-.35-.37-1.16-1.41.13-2.05a5.86,5.86,0,0,1,.82-.33c0-2.26,2.63-2.24,3.07-2.22Z"/><path class="cls-2" d="M61.25,254.29c18.3-1.28,35.17-3.17,35.17-3.17l.39-.05c-1.12-8.8-2.23-19-3.2-30.62-1.56-9.16-2.82-13.73-2.82-13.73s-1.47-5.33-2.25-8.13l-.46-2.1c-.87.2-4.18.92-9.06,1.76-1.35.23-2.58-3.27-2.58-3.27s-4.93,4.43-6.62,4.65c-14.22,1.86-33,3.1-48.36-1a27.76,27.76,0,0,0-1.78,8.13c-.16,1.84-.34,3.94-.52,6.27-.1,1.34-.2,2.76-.3,4.24-1.25,17.75-.36,28.92.95,37.26a52.71,52.71,0,0,0,8,.84c1.39.06.23-3.51,1.79-3.5,1.89,0,6.53,3.62,8.61,3.58,4.65-.09,9.7-.3,14.82-.59C55.76,254.66,58.52,254.48,61.25,254.29Z"/><path class="cls-1" d="M42.61,191.68c-7.36,0-14.25-.45-19.37-1.77a20.52,20.52,0,0,1-.81,3.88l-1,4.8c15.39,4.14,34.14,2.9,48.36,1,1.69-.22,6.62-4.65,6.62-4.65s1.23,3.5,2.58,3.27c4.88-.84,8.19-1.56,9.06-1.76l-.28-1.31S87.73,193.79,86,189c-.08-.47-.15-.93-.23-1.37a258.25,258.25,0,0,1-25.75,3.23C54.37,191.34,48.35,191.66,42.61,191.68Z"/><path class="cls-3" d="M19.81,254.49c.74,4.81,1.63,8.68,2.33,12.34,5,25.92-1.15,24.7,1.46,49.55.17,1.62.37,3.28.59,5,.19,1.37.39,2.77.61,4.19,2.3,14.62,3.25,22.67,3.61,31.3.06,1.32.1,2.55.13,3.69,0,.77,0,1.5.05,2.19.05,2.3,0,4.15,0,5.49,0,1,0,1.74-.05,2.18s0,.49,0,.49c7.15,2,17-1.74,17-1.74a389.6,389.6,0,0,1,1.31-44.41c.11-1.16.22-2.3.32-3.42,0-.54.1-1.09.16-1.62.48-5.06.92-9.55,1.25-13,1.88-18.8-2.78-12.74-1.39-26.42.84-8.26,3.56-13.54,5.88-25.11l0-.38c-5.12.29-10.17.5-14.82.59-2.08,0-6.72-3.56-8.61-3.58-1.56,0-.4,3.56-1.79,3.5A52.71,52.71,0,0,1,19.81,254.49Z"/><path class="cls-2" d="M42.61,191.68c5.74,0,11.76-.34,17.45-.8l0-.28H55.5V165.21a6,6,0,0,1-.73,0c-2.72,0-3.33-1.49-3.47-2.16A10.6,10.6,0,0,1,42.37,165l.11.92A163.7,163.7,0,0,1,26,168.19c-.66,9.86-1.66,13.95-2.45,19.54-.06.38-.11.77-.16,1.12s-.11.73-.16,1.06C28.36,191.23,35.25,191.71,42.61,191.68Z"/><path class="cls-4" d="M53.06,18.58l-.26,0-15.44,1c-6,.38-9.74,8.25-6.78,14.26L37.5,50.39a82.86,82.86,0,0,0,5.38,10.69L49,71.24a2,2,0,0,0,.14.25,9.94,9.94,0,0,0,1.72,2.39,8.65,8.65,0,0,0,2.73,1.94A3.47,3.47,0,0,0,54,76a8,8,0,0,0,2.44.54l.53,0a7.79,7.79,0,0,0,5.76-2.66,9.21,9.21,0,0,0,1.26-1.79L64,72l8.61-14.57q2.3-3.89,4.33-7.93l8.67-17.38c3.78-7-.73-15.29-8-15.12h-.39L61.86,18l-1.16.07Zm-9,30.93c-1.33-2.3-2-2.46-.89-5.64s.23-3.6,4.45-3.75.89-2.82,4.44-.94c1.6.83,3.58.6,3.06,4.25s0,4.6,0,4.6a4.86,4.86,0,0,1-.25,1.13L55.1,49a2.46,2.46,0,0,1,3.07.14c.25.22.51.45.78.71a4.75,4.75,0,0,1,.1-.88,8.43,8.43,0,0,1,.15-5.07c1-2.53,1.19-4.82,3.56-4.69a16.83,16.83,0,0,0,4.44,0c1.53-.25,3.08,1,2.67,3.75s.44,2.81-.89,6.58-3.68,2.16-3.47,2.76-1.45,2-1.45,2a8.52,8.52,0,0,1-1.77-.42A8.14,8.14,0,0,1,63.65,58a14.57,14.57,0,0,1-1,4.76c-1.41,3.73-4,7.45-6.09,7.45-3.07,0-7.11-8-7.11-13.15A6.07,6.07,0,0,1,50,54.5c-.69.44-1.15.67-1.15.67s-1.82,1.71-3-1.9C45,50.45,45.4,51.81,44.08,49.51Zm9.65,25.16a10.42,10.42,0,0,0,2.78.61A9,9,0,0,1,53.73,74.67Z"/><path class="cls-5" d="M37.36,19.59l15.44-1,.26,0C57.51,5.74,63.56,1.39,63.56,1.39,40.13,3.86,37.36,19.59,37.36,19.59Z"/><path class="cls-6" d="M38.21,81.25h0a12.42,12.42,0,0,0,3.64,5.45c.69.64,1.8,5,1.8,5s2.68-2,3.92-1.59a25.76,25.76,0,0,0,7.93,1.37c14.45.39,19.61-8.72,19.84-9.13-2.19-.38-4.46-.72-6.77-1.08,0,0-.34.33-1,.82-3,2.32-12.53,8.31-21.78-.8-.4-.39-.79-.81-1.19-1.26C44.63,80,41.92,80.35,38.21,81.25Z"/><path class="cls-4" d="M51.3,163.09c.14.67.75,2.16,3.47,2.16a6,6,0,0,0,.73,0c2.6-.25,4.93-1.89,4-4.91,4.4-.05,2.12-3.72,2-4-2.37-1.08-4.58-2.6-5.57-4.69A11.06,11.06,0,0,0,53.45,148c-1.66.84-2.86.9-3.67.57h0c-5.48.5-7.66,3.22-8.41,4.55.18,4.1.77,9.66,1,11.82A10.6,10.6,0,0,0,51.3,163.09Z"/><path class="cls-7" d="M43.19,43.87c-1.13,3.18-.44,3.34.89,5.64s.89.94,1.78,3.76c1.14,3.61,3,1.9,3,1.9s.46-.23,1.15-.67a11.42,11.42,0,0,1,3.08-3.89,2.35,2.35,0,0,1-1.36.41,2,2,0,1,1,2.24-2,2,2,0,0,1-.55,1.34c.52-.44,1-.82,1.47-1.16A4.86,4.86,0,0,0,55.1,48s-.47-.94,0-4.6S53.68,40,52.08,39.18c-3.55-1.88-.23.79-4.44.94S44.32,40.7,43.19,43.87Z"/><path class="cls-4" d="M52.43,139.27a5.86,5.86,0,0,0-.82.33c-1.29.64-.48,1.68-.13,2.05l-.22.1c-2.34,1.24-1.17,2.47-1.17,2.47l1.25.14a3.3,3.3,0,0,0-2.42,1.1,2,2,0,0,0,0,2.47,3.14,3.14,0,0,1,4.53.08,11.06,11.06,0,0,1,2.49,3.63c1,2.09,3.2,3.61,5.57,4.69a34,34,0,0,0,8.3,2.41,25.16,25.16,0,0,0,1-3.94A26,26,0,0,1,72.93,151s-1.65-.25-1.67-1.13a34.27,34.27,0,0,1,.4-4.39l-.49,0s-8.2-8.66-15.61-8.41H55.5C55.06,137,52.44,137,52.43,139.27Z"/><path class="cls-4" d="M49.78,148.58c.81.33,2,.27,3.67-.57a3.14,3.14,0,0,0-4.53-.08,2.08,2.08,0,0,0,.85.65Z"/><path class="cls-8" d="M56.17,54.58c-1,0-1.84-.34-1.84-.75,0-.21.21-.4.54-.53a3.45,3.45,0,0,1,1.3-.22,2.63,2.63,0,0,1,1.68.46.4.4,0,0,1,.14.29C58,54.24,57.17,54.58,56.17,54.58ZM50,54.5A6.07,6.07,0,0,0,49.42,57c0,5.15,4,13.15,7.11,13.15,2.11,0,4.68-3.72,6.09-7.45a14.57,14.57,0,0,0,1-4.76,8.14,8.14,0,0,0-1.36-4.15,20,20,0,0,0-3.34-4c-.27-.26-.53-.49-.78-.71A2.46,2.46,0,0,0,55.1,49l-.25.19Z"/><path class="cls-4" d="M50.81,73.88s-.48,5.62-5,7.38c9.25,9.11,18.77,3.12,21.78.8h0s-3.46,0-4.91-8.17a7.79,7.79,0,0,1-5.76,2.66l-.53,0A8,8,0,0,1,54,76a3.47,3.47,0,0,1-.41-.16A8.65,8.65,0,0,1,50.81,73.88Z"/><path d="M51.69,46.94a2,2,0,1,0,0,4.08,2.35,2.35,0,0,0,1.36-.41c.11-.11.23-.2.33-.29A2,2,0,0,0,53.93,49,2.15,2.15,0,0,0,51.69,46.94Z"/><path class="cls-8" d="M50,54.5l4.88-5.34c-.45.34-1,.72-1.47,1.16a3.25,3.25,0,0,1-.33.29A11.42,11.42,0,0,0,50,54.5Z"/><path d="M53.38,50.32c-.1.09-.22.18-.33.29A3.25,3.25,0,0,0,53.38,50.32Z"/><path d="M54.87,53.3c-.33.13-.54.32-.54.53,0,.41.82.75,1.84.75S58,54.24,58,53.83a.4.4,0,0,0-.14-.29,2.63,2.63,0,0,0-1.68-.46A3.45,3.45,0,0,0,54.87,53.3Z"/><path class="cls-2" d="M55.5,170.81V190.6H60l0,.28a258.25,258.25,0,0,0,25.75-3.23c-1.91-11.18-3-11.44-3.4-22.62a59.84,59.84,0,0,1-13-5.35s.15-.34.36-.94a34,34,0,0,1-8.3-2.41c.16.25,2.44,3.92-2,4,.88,3-1.45,4.66-4,4.91v5.6Z"/><path class="cls-2" d="M55.5,123.11v13.94h.06c7.41-.25,15.61,8.41,15.61,8.41l.49,0a34.27,34.27,0,0,0-.4,4.39c0,.88,1.67,1.13,1.67,1.13a26,26,0,0,0-2.08,3.77,25.16,25.16,0,0,1-1,3.94c-.21.6-.36.94-.36.94a59.84,59.84,0,0,0,13,5.35,51.21,51.21,0,0,0,13.94,2.07c16.05,0,8.63-56.08-1.17-74.2C91.44,86,84,83.82,75.34,82.32c-.23.41-5.39,9.52-19.84,9.13v31.66Z"/><path class="cls-4" d="M56.51,75.28a10.42,10.42,0,0,1-2.78-.61A9,9,0,0,0,56.51,75.28Z"/><path class="cls-7" d="M59.05,48.94a4.75,4.75,0,0,0-.1.88,20,20,0,0,1,3.34,4,8.52,8.52,0,0,0,1.77.42s1.65-1.36,1.45-2,2.15,1,3.47-2.76.48-3.81.89-6.58-1.14-4-2.67-3.75a16.83,16.83,0,0,1-4.44,0c-2.37-.13-2.59,2.16-3.56,4.69A8.43,8.43,0,0,0,59.05,48.94Zm1,1a2.24,2.24,0,1,1,2.24,2A2.14,2.14,0,0,1,60,49.92Z"/><path d="M62.26,47.88a2,2,0,1,0,2.23,2A2.14,2.14,0,0,0,62.26,47.88Z"/><path class="cls-5" d="M88.15,2.63C60.2,6.82,61.66,17.1,61.86,18l15.39-1h.39l0-.8A33.65,33.65,0,0,1,88.15,2.63Z"/><path class="cls-3" d="M61.25,254.29c3.51,12.22,5.91,16.27,9.88,26.48,9.68,25,6.16,9.64,9.91,33.38.21,1.37.46,2.78.73,4.24.12.66.25,1.34.39,2,.29,1.52.61,3.08,1,4.66,5.06,23.07,11.35,46.05,11.35,46.05,6.32,3.44,13.6-4,13.6-4S108,346,106.14,318.59c-.13-1.91-.27-3.83-.42-5.74l-.15-1.83c-.6-6.76-1.37-13.44-2.41-19.63-1.32-7.88-3.87-20.76-6.35-40.32l-.39.05S79.55,253,61.25,254.29Z"/><path class="cls-1" d="M94.48,371.12s-9.26,28.09,10.87,39.19c3.7,2,8.27-.36,9.61-4.53,2.5-7.86,3.2-14.8-6.88-38.62C108.08,367.16,100.8,374.56,94.48,371.12Z"/><path class="cls-9" d="M26.05,167.62c0,.19,0,.38,0,.57-.66,9.86-1.66,13.95-2.45,19.54-.06.38-.11.77-.16,1.12s-.11.73-.16,1.06a20.52,20.52,0,0,1-.81,3.88l-1,4.8a27.76,27.76,0,0,0-1.78,8.13c-.16,1.84-.34,3.94-.52,6.27-.1,1.34-.2,2.76-.3,4.24-1.25,17.75-.36,28.92.95,37.26.74,4.81,1.63,8.68,2.33,12.34,5,25.92-1.15,24.7,1.46,49.55.17,1.62.37,3.28.59,5,.19,1.37.39,2.77.61,4.19,2.3,14.62,3.25,22.67,3.61,31.3.06,1.32.1,2.55.13,3.69,0,.77,0,1.5.05,2.19.05,2.3,0,4.15,0,5.49,0,1,0,1.74-.05,2.18s0,.49,0,.49C24.68,372.11,19,375,12,381.28c-9.85,8.88-12.89,11.13-10,13.61,5.33,4.51,34.06-3,34.06-3h5.62l3.76-1.34c9.33-3.42,0-21.44,0-21.44a389.6,389.6,0,0,1,1.31-44.41c.11-1.16.22-2.3.32-3.42,0-.54.1-1.09.16-1.62.48-5.06.92-9.55,1.25-13,1.88-18.8-2.78-12.74-1.39-26.42.84-8.26,3.56-13.54,5.88-25.11"/><path class="cls-9" d="M27.42,120.5c0,6.43-.26,8.58-.51,13.92-.3,6.21-.6,8-.51,12.89,0,1.19,0,2.09,0,4.26v.06"/><path class="cls-9" d="M81.12,117.64c-1,9,.51,16,1,27.32,0,.12,0,.24,0,.37"/><path class="cls-9" d="M77.64,17h-.39L61.86,18l-1.16.07-7.64.49-.26,0-15.44,1c-6,.38-9.74,8.25-6.78,14.26L37.5,50.39a82.86,82.86,0,0,0,5.38,10.69L49,71.24a2,2,0,0,0,.14.25,9.94,9.94,0,0,0,1.72,2.39,8.65,8.65,0,0,0,2.73,1.94A3.47,3.47,0,0,0,54,76a8,8,0,0,0,2.44.54l.53,0a7.79,7.79,0,0,0,5.76-2.66,9.21,9.21,0,0,0,1.26-1.79L64,72l8.61-14.57q2.3-3.89,4.33-7.93l8.67-17.38C89.37,25.17,84.86,16.86,77.64,17Z"/><path class="cls-9" d="M37.36,19.59s2.77-15.73,26.2-18.2c0,0-6.05,4.35-10.5,17.19,0,0,0,.08,0,.12"/><path class="cls-9" d="M61.87,18.09a.17.17,0,0,1,0-.07c-.2-.92-1.66-11.2,26.29-15.39a33.65,33.65,0,0,0-10.54,13.6"/><path class="cls-10" d="M54.85,49.16A4.86,4.86,0,0,0,55.1,48s-.47-.94,0-4.6S53.68,40,52.08,39.18c-3.55-1.88-.23.79-4.44.94s-3.32.58-4.45,3.75-.44,3.34.89,5.64.89.94,1.78,3.76c1.14,3.61,3,1.9,3,1.9s.46-.23,1.15-.67"/><path class="cls-10" d="M59,49.82a4.75,4.75,0,0,1,.1-.88,8.43,8.43,0,0,1,.15-5.07c1-2.53,1.19-4.82,3.56-4.69a16.83,16.83,0,0,0,4.44,0c1.53-.25,3.08,1,2.67,3.75s.44,2.81-.89,6.58-3.68,2.16-3.47,2.76-1.45,2-1.45,2a8.52,8.52,0,0,1-1.77-.42"/><path class="cls-10" d="M53.05,50.61A11.42,11.42,0,0,0,50,54.5,6.07,6.07,0,0,0,49.42,57c0,5.15,4,13.15,7.11,13.15,2.11,0,4.68-3.72,6.09-7.45a14.57,14.57,0,0,0,1-4.76,8.14,8.14,0,0,0-1.36-4.15,20,20,0,0,0-3.34-4c-.27-.26-.53-.49-.78-.71A2.46,2.46,0,0,0,55.1,49l-.25.19c-.45.34-1,.72-1.47,1.16"/><path class="cls-10" d="M53.38,50.32A2,2,0,0,0,53.93,49a2.24,2.24,0,1,0-2.24,2,2.35,2.35,0,0,0,1.36-.41A3.25,3.25,0,0,0,53.38,50.32Z"/><path class="cls-10" d="M60,49.92a2.24,2.24,0,1,0,2.24-2A2.14,2.14,0,0,0,60,49.92Z"/><path class="cls-10" d="M54.87,53.3c-.33.13-.54.32-.54.53,0,.41.82.75,1.84.75S58,54.24,58,53.83a.4.4,0,0,0-.14-.29,2.63,2.63,0,0,0-1.68-.46A3.45,3.45,0,0,0,54.87,53.3Z"/><polyline class="cls-10" points="56.17 54.58 56.17 61.81 56.17 62.24 56.17 62.34"/><path class="cls-10" d="M77,33.89a23.7,23.7,0,0,0-16.55,0"/><path class="cls-10" d="M53.6,34.65s-9.19-3-16.3.65"/><polyline class="cls-10" points="60.63 62.6 58.29 61.37 56.17 61.81 52.43 62.6"/><path class="cls-9" d="M61.2,254.12c0,.06,0,.12,0,.17,3.51,12.22,5.91,16.27,9.88,26.48,9.68,25,6.16,9.64,9.91,33.38.21,1.37.46,2.78.73,4.24.12.66.25,1.34.39,2,.29,1.52.61,3.08,1,4.66,5.06,23.07,11.35,46.05,11.35,46.05s-9.26,28.09,10.87,39.19c3.7,2,8.27-.36,9.61-4.53,2.5-7.86,3.2-14.8-6.88-38.62,0,0-.13-21.13-1.94-48.57-.13-1.91-.27-3.83-.42-5.74l-.15-1.83c-.6-6.76-1.37-13.44-2.41-19.63-1.32-7.88-3.87-20.76-6.35-40.32-1.12-8.8-2.23-19-3.2-30.62-1.56-9.16-2.82-13.73-2.82-13.73s-1.47-5.33-2.25-8.13l-.46-2.1-.28-1.31S87.73,193.79,86,189c-.08-.47-.15-.93-.23-1.37-1.91-11.18-3-11.44-3.4-22.62,0-.12,0-.23,0-.35"/><path class="cls-9" d="M45.51,369.14s-9.81,3.7-17,1.74"/><path class="cls-9" d="M108.08,367.16s-7.28,7.4-13.6,4"/><path class="cls-9" d="M96.42,251.12S79.55,253,61.25,254.29c-2.73.19-5.49.37-8.23.53-5.12.29-10.17.5-14.82.59-2.08,0-6.72-3.56-8.61-3.58-1.56,0-.4,3.56-1.79,3.5a52.71,52.71,0,0,1-8-.84l-.76-.18"/><path class="cls-9" d="M88.31,196.44l-.23.05c-.87.2-4.18.92-9.06,1.76-1.35.23-2.58-3.27-2.58-3.27s-4.93,4.43-6.62,4.65c-14.22,1.86-33,3.1-48.36-1"/><path class="cls-9" d="M86.46,187.48l-.65.17a258.25,258.25,0,0,1-25.75,3.23c-5.69.46-11.71.78-17.45.8-7.36,0-14.25-.45-19.37-1.77-.31-.07-.61-.16-.9-.24"/><path class="cls-9" d="M92.84,147.32A82.11,82.11,0,0,0,82.13,145c-5.56-.9-10.37-1.35-10.37-1.35a18.5,18.5,0,0,1-.1,1.9,34.27,34.27,0,0,0-.4,4.39c0,.88,1.67,1.13,1.67,1.13a26,26,0,0,0-2.08,3.77,25.16,25.16,0,0,1-1,3.94c-.21.6-.36.94-.36.94a59.84,59.84,0,0,0,13,5.35,51.21,51.21,0,0,0,13.94,2.07c16.05,0,8.63-56.08-1.17-74.2C91.44,86,84,83.82,75.34,82.32c-2.19-.38-4.46-.72-6.77-1.08,0,0-.34.33-1,.82-3,2.32-12.53,8.31-21.78-.8-.4-.39-.79-.81-1.19-1.26,0,0-2.71.35-6.42,1.25-7.15,1.75-18,5.56-20.33,12.89-6.35,20.12-10.54,26-11.71,40.81C5.06,149,.32,167.1,19.05,168.34a50.56,50.56,0,0,0,7-.15,163.7,163.7,0,0,0,16.47-2.32l-.11-.92c-.24-2.16-.83-7.72-1-11.82,0-.76,0-1.47,0-2.1,0,0-7.05.62-14.91.54a92.83,92.83,0,0,1-9.69-.54"/><path class="cls-9" d="M67.59,82.05s-3.46,0-4.91-8.17"/><path class="cls-9" d="M50.81,73.88s-.48,5.62-5,7.38"/><path class="cls-10" d="M71.17,145.46s-8.2-8.66-15.61-8.41H55.5c-.44,0-3.06,0-3.07,2.22h0"/><path class="cls-10" d="M48.92,147.93a3.14,3.14,0,0,1,4.53.08,11.06,11.06,0,0,1,2.49,3.63c1,2.09,3.2,3.61,5.57,4.69a34,34,0,0,0,8.3,2.41h0"/><path class="cls-10" d="M55.94,140.51a2.77,2.77,0,0,0-3.51-1.24,5.86,5.86,0,0,0-.82.33c-1.29.64-.48,1.68-.13,2.05l.13.13"/><path class="cls-10" d="M55.27,142.67s-2.07-1.7-3.79-1l-.22.1c-2.34,1.24-1.17,2.47-1.17,2.47"/><path class="cls-10" d="M49.78,148.58c.81.33,2,.27,3.67-.57l.15-.08"/><path class="cls-10" d="M54.39,145.46a5.51,5.51,0,0,0-3-1.1h0a3.3,3.3,0,0,0-2.42,1.1,2,2,0,0,0,0,2.47,2.08,2.08,0,0,0,.85.65"/><path class="cls-10" d="M41,153.85a4.21,4.21,0,0,1,.33-.72c.75-1.33,2.93-4,8.41-4.55h0"/><path class="cls-10" d="M61.5,156.32h0c.16.25,2.44,3.92-2,4h-.09"/><path class="cls-10" d="M42,164.85l.39.1a10.6,10.6,0,0,0,8.93-1.86,10.25,10.25,0,0,0,2.37-2.85,14.19,14.19,0,0,0,1.1-2.41"/><path class="cls-10" d="M51.26,162.77a1.72,1.72,0,0,0,0,.32c.14.67.75,2.16,3.47,2.16a6,6,0,0,0,.73,0c2.6-.25,4.93-1.89,4-4.91a8.37,8.37,0,0,0-1.26-2.47"/><path class="cls-10" d="M53.6,160.3l.07-.06c.26-.19,1.26-.66,2.27,2.53"/><path class="cls-9" d="M75.34,82.31h0c-.23.41-5.39,9.52-19.84,9.13a25.76,25.76,0,0,1-7.93-1.37c-1.24-.44-3.92,1.59-3.92,1.59s-1.11-4.32-1.8-5a12.42,12.42,0,0,1-3.64-5.45"/><polyline class="cls-9" points="55.5 91.45 55.5 100.32 55.5 111.45 55.5 123.11 55.5 133.71 55.5 137.05"/><polyline class="cls-9" points="55.5 165.25 55.5 170.81 55.5 190.6 55.5 190.68"/><polyline class="cls-11" points="60.04 100.32 55.5 100.32 51.44 100.32"/><polyline class="cls-11" points="60.04 111.45 55.5 111.45 55.36 111.45"/><polyline class="cls-11" points="60.04 122.58 55.5 123.11 49.5 123.82"/><polyline class="cls-11" points="60.04 133.71 55.5 133.71 51.44 133.71"/><polyline class="cls-11" points="60.04 170.81 55.5 170.81 51.44 170.81"/><polyline class="cls-11" points="60.04 190.6 55.5 190.6 51.44 190.6"/><path class="cls-9" d="M42.88,191.3s-.11.14-.27.38c-.7,1-2.48,3.54-2.48,4.54"/></g></g></svg>