<svg xmlns="http://www.w3.org/2000/svg" viewBox="0 0 306.2 527.36"><defs><style>.cls-1{fill:#c78b46;}.cls-2{fill:#695239;}.cls-3{fill:#603813;}.cls-4{fill:gray;}.cls-5{fill:#292929;}.cls-6{fill:#482c04;}.cls-7{fill:#233324;}.cls-8{fill:#544f39;}.cls-9{fill:#4d4d4d;}.cls-10{fill:#6b6c6e;}.cls-11{fill:#25160d;}.cls-12{fill:#3e3632;}.cls-13{fill:#ab855d;}.cls-14{fill:#231f20;}.cls-15{fill:#c69c6d;}.cls-16,.cls-17{fill:none;}.cls-16,.cls-17,.cls-18,.cls-19,.cls-20,.cls-21{stroke:#000;stroke-miterlimit:10;}.cls-17,.cls-20{stroke-width:2px;}.cls-18,.cls-20{fill:#40260d;}.cls-19{fill:#4f3522;}</style></defs><g id="Layer_2" data-name="Layer 2"><g id="Layer_9" data-name="Layer 9"><path class="cls-1" d="M.54,269.71,1.23,273s7.64-9.57,19.16-14.35c1-.41,2-.79,3-1.11l0-.18,3.14-.66.19,0,.26-.05,2.94-.62-.28-1.34a87.68,87.68,0,0,1-10.77,1.36A51.17,51.17,0,0,0,.54,269.71Z"/><path class="cls-1" d="M13.35,209.3a4,4,0,0,0-.69,5.35l3.23,4.56,6.19-1.29.86-5.52A4,4,0,0,0,20.13,208l-1.79-.53a4,4,0,0,0-3.69.78Z"/><path class="cls-2" d="M16,252.88a2.19,2.19,0,0,0-.61,2.52c.28.55,1.62.72,3.54.65a33.94,33.94,0,0,1,4.4-1.49l-.71-3.41L16,252.89h0Z"/><polygon class="cls-3" points="15.89 219.21 16.59 222.54 23.28 223.63 22.08 217.92 15.89 219.21"/><path class="cls-2" d="M20.24,240c-7.47,4.18-4.36,12.67-4.28,12.91h0a6.93,6.93,0,0,1,1.5-1.15c1.35-1,3-2,4.6-3l-.61-2.91-.81-3.88Z"/><path class="cls-2" d="M16,252.88h0l6.61-1.74-.31-1.46-.2-1c-1.64,1-3.25,2-4.6,3A6.93,6.93,0,0,0,16,252.88Z"/><polygon class="cls-3" points="16.59 222.54 17.4 226.42 24.09 227.51 23.28 223.63 16.59 222.54"/><polygon class="cls-3" points="17.4 226.42 18.21 230.3 24.9 231.38 24.09 227.51 17.4 226.42"/><polygon class="cls-3" points="18.21 230.3 19.02 234.17 25.72 235.26 24.9 231.38 18.21 230.3"/><path class="cls-3" d="M19,234.17l.81,3.88h0l3.46.56a29.76,29.76,0,0,1,2.92-.93l-.5-2.42Z"/><path class="cls-3" d="M19.83,238.05l.41,1.92a9.6,9.6,0,0,1,1.11-.57c.65-.29,1.3-.55,1.95-.79l-3.46-.56Z"/><path class="cls-3" d="M20.24,240l.41,2L27.34,243l-.81-3.88-3.23-.53c-.65.24-1.3.5-1.95.79A9.6,9.6,0,0,0,20.24,240Z"/><path class="cls-4" d="M20.39,258.69l44,209.82c1.64,7.8,4.84,18.31,8.51,25.39l2.83-2.83L30,272.22l-5.6-4.61-.92-9.56Z"/><path class="cls-3" d="M20.65,241.93l.81,3.88,4.31.7,2.06-1.17L27.34,243Z"/><path class="cls-3" d="M21.46,245.81l.61,2.91c1.25-.78,2.52-1.53,3.7-2.21Z"/><path class="cls-2" d="M23.29,254.56a33.94,33.94,0,0,0-4.4,1.49,87.68,87.68,0,0,0,10.77-1.36c2.79-.48,5.35-1,7-1.29a5.17,5.17,0,0,0,1.1-.33,37.2,37.2,0,0,0-9.81.48l-1.77.38Z"/><path class="cls-2" d="M22.07,248.72l.2,1,3.6.59,2.84-.75-.55-2.63h0l-2.38-.39C24.59,247.19,23.32,247.94,22.07,248.72Z"/><polygon class="cls-2" points="22.27 249.69 22.58 251.15 25.87 250.28 22.27 249.69"/><path class="cls-2" d="M22.58,251.15l.71,3.41c.93-.25,1.89-.46,2.87-.63.59-.15,1.18-.28,1.77-.38l1.55-.34L29,250.78l-3.1-.5Z"/><path class="cls-2" d="M23.29,254.56l2.87-.63C25.18,254.1,24.22,254.31,23.29,254.56Z"/><path class="cls-3" d="M23.3,238.61l3.23.53-.31-1.46A29.76,29.76,0,0,0,23.3,238.61Z"/><path class="cls-1" d="M23.41,257.4l0,.18q1.53-.49,3.12-.84Z"/><path class="cls-1" d="M23.43,257.58l0,.47,6.79-1.43-.15-.44a30.76,30.76,0,0,0-3.11.47l-.26.05-.19,0Q25,257.09,23.43,257.58Z"/><polygon class="cls-1" points="30.26 256.62 23.47 258.05 24.39 267.61 29.99 272.22 33.26 265.75 30.26 256.62"/><path class="cls-2" d="M25.77,246.51l2.38.39h0l-.33-1.56Z"/><polygon class="cls-2" points="25.87 250.28 28.97 250.78 28.71 249.53 25.87 250.28"/><path class="cls-2" d="M26.16,253.93l1.77-.38C27.34,253.65,26.75,253.78,26.16,253.93Z"/><path class="cls-2" d="M26.22,237.68l.31,1.46.81,3.88.49,2.32c2.07-1.17,3.52-1.94,3.52-1.94l12.72.58a19.6,19.6,0,0,0-.71-2.31s0,0,0,0a15.16,15.16,0,0,0-4-5.25A38.8,38.8,0,0,0,26.22,237.68Z"/><path class="cls-1" d="M29.94,256l-2.94.62a30.76,30.76,0,0,1,3.11-.47l-.05-.17Z"/><path class="cls-2" d="M27.83,245.34l.33,1.56.55,2.63,14.83-3.91h0c.36-1,.53-1.63.53-1.63l-12.72-.58S29.9,244.17,27.83,245.34Z"/><path class="cls-2" d="M29.48,253.21l-1.55.34a37.2,37.2,0,0,1,9.81-.48c3.13-1.28,5-5.19,5.8-7.45l-14.83,3.91.26,1.25Z"/><path class="cls-1" d="M29.66,254.69l.28,1.34.12,0,.05.17a32.22,32.22,0,0,1,3.23-.21c12.46-.24,23.31,5.46,23.31,5.46L56,258.1a52.14,52.14,0,0,0-18.21-5,5.17,5.17,0,0,1-1.1.33C35,253.71,32.45,254.21,29.66,254.69Z"/><path class="cls-4" d="M33.26,265.75,30,272.22,75.68,491.07l.17-.17,3-2a83.6,83.6,0,0,0-1.56-23.09L33.34,256l-3.08.64Z"/><path class="cls-5" d="M37.33,234.4a13.06,13.06,0,0,1,6,7.25s0,0,0,0a11.68,11.68,0,0,1,1,3.63s0,.07,0,.1,7.11-4,25-19a56.93,56.93,0,0,0,11.38-13.16c-8.63-19.15-15.79-18-15.79-18C58.25,211,49,225.54,37.33,234.4Z"/><path class="cls-2" d="M43.54,245.61l.81-.21s0-.07,0-.1c0-.19-.11-.67-.27-1.32C44.07,244,43.9,244.64,43.54,245.61Z"/><path class="cls-2" d="M43.36,241.67a19.6,19.6,0,0,1,.71,2.31c.16.65.24,1.13.27,1.32A11.68,11.68,0,0,0,43.36,241.67Z"/><path class="cls-6" d="M96.37,478.41c0,.32,0,.49,0,.49C92.22,480.14,84,485.65,76.6,492c-10.5,9-19.29,19.58-12.25,21.93s46-8,46-8h6s3-1,4-1.35c10-3.46,0-28.65,0-28.65s3.2-33.23,5.5-56.27h0s-20.9,8.23-34.67,0h-.06c.33,3,.75,6.07,1.28,9.26a295.36,295.36,0,0,1,4,39.55C96.5,473.74,96.41,477.19,96.37,478.41Z"/><path class="cls-2" d="M64.94,195.29s7.16-1.2,15.79,18A73.89,73.89,0,0,0,90.8,187.49H91c-.55-26.93-.13-56.58,3.34-73,0,0-16,1.9-17,28.9C76.82,157.8,72.57,177.33,64.94,195.29Z"/><path class="cls-7" d="M133.48,316.08c3.69,14.82,9,34,14.54,47.6,10.33,25.22,5.33,27.22,9.33,51.22.23,1.38.49,2.81.78,4.28l.09,0c23,2.65,33-6.76,33.7-7.43-.63-6.83-1.46-13.57-2.57-19.83-6-34-7-106-14-130,0,0-43.83,11-83.91,0,0,0-10.92,58.39-5,87.7,5.28,26.18,1.85,44.94,4.63,70h.06c13.77,8.23,34.67,0,34.67,0h0c.58-5.78,1.1-10.92,1.5-14.73,2-19-6-30,0-43C132.27,351.24,133.28,325.12,133.48,316.08Z"/><path class="cls-5" d="M101.86,176.69a47.68,47.68,0,0,1,6.13-4.75c1.7-1.12,3.43-2.13,5.16-3a81.06,81.06,0,0,1,21.2-7.5l2.2-43.14c-6.38.32-13.62-2.74-20.81-12.86a21.66,21.66,0,0,0-4.41,0l3.77,15.18a7.92,7.92,0,0,1-.44,5.06l-1.86,4.24a3.21,3.21,0,0,1-4.59,1.46l-1.94-1.17a7.9,7.9,0,0,1-3.63-5.11l-3.45-16.24a7.74,7.74,0,0,0-4.85,5.68c-3.47,16.41-3.89,46.06-3.34,73,0,2.63.11,5.23.18,7.78A32.75,32.75,0,0,1,101.86,176.69Z"/><path class="cls-8" d="M99.8,255.07c-2.45-.48-4.9-1-7.34-1.64l-1,8v.5c40.08,11,83.91,0,83.91,0v-8.5a212.16,212.16,0,0,1-47.25,4.48,3.37,3.37,0,0,1-3.63,3.22l-5.92-.45a3.47,3.47,0,0,1-3.2-3.43c-2.68-.24-5.38-.54-8.09-.92Q103.54,255.77,99.8,255.07Z"/><path class="cls-8" d="M107.26,256.3c2.71.38,5.41.68,8.09.92v0a3.47,3.47,0,0,1,3.45-3.47l.33,0,5.84.54a3.45,3.45,0,0,1,3.13,3.22,2.29,2.29,0,0,1,0,.37,212.16,212.16,0,0,0,47.25-4.48v-8s-59.74,11-81.87,0l-1,8c2.44.62,4.89,1.16,7.34,1.64S104.78,256,107.26,256.3Z"/><path class="cls-9" d="M91.18,195.27c.74,27.39,2.3,50.13,2.3,50.13,22.13,11,81.87,0,81.87,0a411.26,411.26,0,0,1-1.09-53.09h0S128,211.14,91.18,195.27Z"/><path class="cls-10" d="M99.19,108.82l3.45,16.24a7.9,7.9,0,0,0,3.63,5.11l1.94,1.17a3.21,3.21,0,0,0,4.59-1.46l1.86-4.24a7.92,7.92,0,0,0,.44-5.06l-3.77-15.18C106.77,105.84,102.64,107.53,99.19,108.82Z"/><path class="cls-2" d="M125.27,96.63c4.46,8.09,15.36,8.71,19.91.75l0-.06,11.55-18.49q3.07-4.93,5.79-10.07l11.62-22.05c5.17-9-1.2-19.78-11.17-19.18l-22.17,1.34-10.59.65-20.68,1.25c-8.11.49-13.06,10.47-9.1,18.1l9.27,21A104.33,104.33,0,0,0,117,83.42l8.13,12.89A3.3,3.3,0,0,0,125.27,96.63Z"/><path class="cls-5" d="M108,171.94a47.68,47.68,0,0,0-6.13,4.75,32.75,32.75,0,0,0-10.68,18.58c36.83,15.87,83.07-3,83.07-3h0A393.63,393.63,0,0,1,177.7,153a293.74,293.74,0,0,1,7.23-35.95,6,6,0,0,0,.13-2.51h0a5.9,5.9,0,0,0-3.37-4.39l-.19-.09-.14.31-14,21-4.78-1.84s-1,2.84-3.61,1.84,0-3.23,0-3.23l-4.61-1.77,10.09-21v-.2a36.46,36.46,0,0,0-7.1.2s-8.9,12.29-20.8,12.86l-2.2,43.14a81.06,81.06,0,0,0-21.2,7.5C111.42,169.81,109.69,170.82,108,171.94Z"/><path class="cls-11" d="M157.35,1.4c-52,3-47.78,29.37-47.78,29.37l20.68-1.25h0C137.14,8.63,157.35,1.4,157.35,1.4Z"/><path class="cls-5" d="M115.35,257.2v0c4.34.39,8.61.59,12.75.66a2.29,2.29,0,0,0,0-.37,3.45,3.45,0,0,0-3.13-3.22l-5.84-.54-.33,0A3.47,3.47,0,0,0,115.35,257.2Z"/><path class="cls-12" d="M120.35,105.4h-4.61c7.19,10.12,14.43,13.18,20.81,12.86,11.9-.57,20.8-12.86,20.8-12.86h-6s-.49.49-1.35,1.23c-2.61,2.24-8.63,6.77-14.65,6.77s-11.47-4.53-13.8-6.77C120.78,105.89,120.35,105.4,120.35,105.4Z"/><path class="cls-5" d="M115.35,257.22a3.47,3.47,0,0,0,3.2,3.43l5.92.45a3.37,3.37,0,0,0,3.63-3.22C124,257.81,119.69,257.61,115.35,257.22Z"/><path class="cls-2" d="M125.27,96.63l-3.72,10c2.33,2.24,7.78,6.77,13.8,6.77s12-4.53,14.65-6.77l-4.65-9.23-.13-.08,0,.06C140.63,105.34,129.73,104.72,125.27,96.63Z"/><path class="cls-11" d="M140.84,28.87,163,27.53C171.68,14.67,191.35,5.4,191.35,5.4,145.35-.6,140.84,28.87,140.84,28.87Z"/><path class="cls-10" d="M164.44,105.4l-10.09,21,4.61,1.77,1.57.61,11.91-22.15h0a38.93,38.93,0,0,0-8-1.42Z"/><path class="cls-6" d="M158.22,419.16l-.09,0c4.67,24.08,16.22,58.72,16.22,58.72s-10,36.75,15.19,47.83a7.62,7.62,0,0,0,10.24-4.57c2.67-7.94,4.34-23.19-6.43-47.26,0,0,1.33-31.94-1.43-62.17C191.24,412.4,181.24,421.81,158.22,419.16Z"/><path class="cls-5" d="M159,128.17s-2.61,2.23,0,3.23,3.61-1.84,3.61-1.84l-2-.78Z"/><path class="cls-10" d="M172.44,106.63l-11.91,22.15,2,.78,4.78,1.84,14-21,.14-.31a64.34,64.34,0,0,0-9.05-3.47Z"/><path class="cls-2" d="M189.8,119.51c-2.78-2.33-4.87-2.42-4.87-2.42A293.74,293.74,0,0,0,177.7,153c0,.54-.09,4.77,3.17,22.22,3.52,18.85,18.48,19.14,36.48,19.14l2.13,0a33.8,33.8,0,0,1,0-18.47c-11.59-.37-14.48-4.78-17.71-26.89C199.08,130.59,193.75,122.79,189.8,119.51Z"/><path class="cls-5" d="M219.48,175.9a33.8,33.8,0,0,0,0,18.47c16.13-.42,45.08-5.27,52.89-6.62a.41.41,0,0,0,0-.79,5.78,5.78,0,0,1-1.09-.52h0a9.71,9.71,0,0,1-3.45-8.53h0c0-.26,0-.5,0-.74s0-.33,0-.47a.13.13,0,0,0,0-.06,6.09,6.09,0,0,1,.1-.78s0,0,0,0a14.25,14.25,0,0,1,.26-1.42l-29,.86C230.73,175.51,224.34,176.06,219.48,175.9Z"/><path class="cls-2" d="M267.85,177.9a7.06,7.06,0,0,0,.27,3.56,15.05,15.05,0,0,1-.23-3.55Z"/><path class="cls-2" d="M267.89,177.91a15.05,15.05,0,0,0,.23,3.55,11.82,11.82,0,0,0,3.18,5,11.79,11.79,0,0,1-3.39-8.52Z"/><path class="cls-2" d="M267.91,177.91a11.79,11.79,0,0,0,3.39,8.52h0c.5,0,16.59.43,20.53-1.54a11.5,11.5,0,0,0,5-5.23l.13-1.35c-.5.44-.79.67-.79.67l1-3.06,0-.36a10.43,10.43,0,0,1-5.38,3.79,11.26,11.26,0,0,1-.85,1.21l-.26.33a12.09,12.09,0,0,1-.91,1l-5.5-1h-.5l.24-.05Z"/><path class="cls-2" d="M267.91,177.91l16.18,2.94a10.13,10.13,0,0,0,2.48-1,8.18,8.18,0,0,1-3.35-1.61l.63.62s-10.3.86-11.81-6.17a36.72,36.72,0,0,0-4,3.09s0,0,0,0c0,.24-.07.5-.1.78a.13.13,0,0,1,0,.06c0,.15,0,.31,0,.47S267.91,177.64,267.91,177.91Z"/><path class="cls-2" d="M268,176.7c0,.14,0,.3,0,.47C268,177,268,176.85,268,176.7Z"/><path class="cls-2" d="M268.08,175.86a6.09,6.09,0,0,0-.1.78C268,176.36,268.05,176.1,268.08,175.86Z"/><path class="cls-13" d="M271.85,170.9a8.71,8.71,0,0,0,.19,1.83,11.7,11.7,0,0,1,3.81-1.83c20-4,20,0,20,0l-2,3.62c0,.4-.07.83-.14,1.28.46-1,1-2.11,1.56-3.44,1.55-3.51,2.56-3.56,3.08-2.62,0-.21-.07-.41-.12-.62-1.37-6.06-8-9.54-9.32-15.74a8.09,8.09,0,0,1-7.07.12C280.56,159.22,271.85,162.16,271.85,170.9Z"/><path class="cls-13" d="M280.85,139.16c-5,1.74-8,1.74-6,3.74s7,2,7,4a29.64,29.64,0,0,1-.39,4.27,11.07,11.07,0,0,0,6.83,0s-1.38-3.2,1.59-4.74,7-1.53,5-4.53-3,1-6,0S285.85,137.42,280.85,139.16Z"/><path class="cls-13" d="M282,177.08l1.22,1.2a8.18,8.18,0,0,0,3.35,1.61,8.19,8.19,0,0,0,4.28-6c.06-.37.13-.71.2-1,1-4.36,3.14-3,2.83,1.64l2-3.62s0-4-20,0a11.7,11.7,0,0,0-3.81,1.83c1.51,7,11.81,6.17,11.81,6.17l-.63-.62A7.27,7.27,0,0,1,282,177.08Z"/><path class="cls-14" d="M280.85,150.9,281,153a5.94,5.94,0,0,0,.9.52c0-.17.07-.34.1-.52,4.12,2.07,6.88-.08,6.88-.08l.09.48a7.29,7.29,0,0,0,.91-.48l0-2.29a13,13,0,0,1-1.59.56c-2.57,3.27-6.83,0-6.83,0A6.65,6.65,0,0,1,280.85,150.9Z"/><path class="cls-2" d="M282,153c0,.18-.06.35-.1.52a8.09,8.09,0,0,0,7.07-.12l-.09-.48S286.09,155.05,282,153Z"/><path class="cls-15" d="M283.22,178.28l-1.22-1.2A7.27,7.27,0,0,0,283.22,178.28Z"/><path class="cls-2" d="M283.85,180.9h.5l-.26-.05Z"/><path class="cls-2" d="M284.09,180.85l.26.05h6l.71-1.3q-.62.17-1.26.3a8,8,0,0,1-3.28,0A10.13,10.13,0,0,1,284.09,180.85Z"/><path class="cls-14" d="M288.29,151.17a11.07,11.07,0,0,1-6.83,0S285.72,154.44,288.29,151.17Z"/><polygon class="cls-2" points="284.35 180.9 289.85 181.9 290.4 180.9 284.35 180.9"/><path class="cls-2" d="M290.85,173.9a8.19,8.19,0,0,1-4.28,6,8,8,0,0,0,3.28,0q.64-.14,1.26-.3l2.77-5.08c.31-4.69-1.79-6-2.83-1.64C291,173.19,290.91,173.53,290.85,173.9Z"/><path class="cls-2" d="M291.11,179.6l-.71,1.3h.36l.26-.33a13.76,13.76,0,0,0,.78-1.19Z"/><path class="cls-2" d="M293.88,174.52l-2.77,5.08.69-.22c.75-1.26,1.57-2.84,1.84-3.37a.93.93,0,0,0,.05-.1.3.3,0,0,0,0-.08,0,0,0,0,0,0,0C293.81,175.35,293.85,174.92,293.88,174.52Z"/><path class="cls-15" d="M291.8,179.38l.07,0a30,30,0,0,0,1.77-3.35C293.37,176.54,292.55,178.12,291.8,179.38Z"/><path class="cls-2" d="M293.64,176a30,30,0,0,1-1.77,3.35,10.43,10.43,0,0,0,5.38-3.79l.29-3.07a16.35,16.35,0,0,1,.95-1.78,6.68,6.68,0,0,0-.11-1c-.52-.94-1.53-.89-3.08,2.62-.59,1.33-1.1,2.47-1.56,3.44a0,0,0,0,1,0,0s0,0,0,.08A.93.93,0,0,1,293.64,176Z"/><path class="cls-2" d="M293.73,175.83a.3.3,0,0,1,0,.08S293.73,175.85,293.73,175.83Z"/><path class="cls-2" d="M297.22,175.93l-1,3.06s.29-.23.79-.67Z"/><path class="cls-2" d="M296.87,179.67l0,.23s1.4-2,2.89-4.34c-.74.83-1.43,1.52-2,2.06A15.81,15.81,0,0,1,296.87,179.67Z"/><path class="cls-2" d="M297,178.32l-.13,1.35a15.81,15.81,0,0,0,.88-2Z"/><path class="cls-2" d="M297.22,175.93l-.22,2.39.75-.7a19.14,19.14,0,0,0,1.1-5.72,6.76,6.76,0,0,0-.05-.76l-.32,1a7.21,7.21,0,0,1-1,3.17v0Z"/><path class="cls-2" d="M297.22,175.93l.21-.63-.18.27Z"/><path class="cls-2" d="M297.54,172.5l-.29,3.07.18-.27v0l1-3.17a7.15,7.15,0,0,0,0-1.39A16.35,16.35,0,0,0,297.54,172.5Z"/><path class="cls-2" d="M298.48,172.11l-1,3.17A7.21,7.21,0,0,0,298.48,172.11Z"/><path class="cls-2" d="M298.38,169.74a6.68,6.68,0,0,1,.11,1l.18-.26A2.47,2.47,0,0,0,298.38,169.74Z"/><path class="cls-2" d="M298.48,172.11l.32-1a5.1,5.1,0,0,0-.13-.68l-.18.26A7.15,7.15,0,0,1,298.48,172.11Z"/><path class="cls-2" d="M298.67,170.46a5.1,5.1,0,0,1,.13.68l.53-1.61A8.5,8.5,0,0,0,298.67,170.46Z"/><path class="cls-2" d="M299.33,169.53l-.53,1.61a6.76,6.76,0,0,1,.05.76,19.14,19.14,0,0,1-1.1,5.72c.56-.54,1.25-1.23,2-2.06a0,0,0,0,0,0,0,32.57,32.57,0,0,0,3.21-6.23C303.84,166.49,301.56,166.7,299.33,169.53Z"/><path class="cls-2" d="M303.12,165.2a8.15,8.15,0,0,0-3.79,4.33c2.23-2.83,4.51-3,3.63-.22a32.57,32.57,0,0,1-3.21,6.23,38.1,38.1,0,0,0,5.39-7.61C306.71,165,304.69,164.91,303.12,165.2Z"/><path class="cls-16" d="M33.34,256l44,209.83a83.6,83.6,0,0,1,1.56,23.09l-3,2-.17.17-2.83,2.83c-3.67-7.08-6.87-17.59-8.51-25.39L20.39,258.69"/><polyline class="cls-16" points="23.43 257.58 23.47 258.05 24.39 267.61 29.99 272.22"/><polyline class="cls-16" points="29.99 272.22 33.26 265.75 30.26 256.62 30.11 256.18"/><polyline class="cls-16" points="29.99 272.22 75.68 491.07 75.85 491.9"/><path class="cls-16" d="M288.29,151.17s-1.38-3.2,1.59-4.74,7-1.53,5-4.53-3,1-6,0-3-4.48-8-2.74-8,1.74-6,3.74,7,2,7,4a29.64,29.64,0,0,1-.39,4.27"/><path class="cls-16" d="M299.75,175.54a38.1,38.1,0,0,0,5.39-7.61c1.57-2.94-.45-3-2-2.73a8.15,8.15,0,0,0-3.79,4.33"/><path class="cls-16" d="M296.85,179.9s1.4-2,2.89-4.34a0,0,0,0,0,0,0,32.57,32.57,0,0,0,3.21-6.23c.88-2.82-1.4-2.61-3.63.22a8.5,8.5,0,0,0-.66.93"/><path class="cls-16" d="M268,176.7c0,.14,0,.3,0,.47s0,.47,0,.74"/><path class="cls-16" d="M268.08,175.86a6.09,6.09,0,0,0-.1.78"/><path class="cls-16" d="M272,172.73a36.72,36.72,0,0,0-4,3.09"/><path class="cls-16" d="M281.87,153.5c-1.31,5.72-10,8.66-10,17.4a8.71,8.71,0,0,0,.19,1.83c1.51,7,11.81,6.17,11.81,6.17"/><path class="cls-16" d="M298.38,169.74c0-.21-.07-.41-.12-.62-1.37-6.06-8-9.54-9.32-15.74"/><path class="cls-16" d="M291.8,179.38l.07,0"/><path class="cls-16" d="M282,177.08a7.27,7.27,0,0,0,1.22,1.2,8.18,8.18,0,0,0,3.35,1.61"/><line class="cls-16" x1="282" y1="177.08" x2="281.97" y2="177.05"/><path class="cls-17" d="M175.35,261.4v-16s-59.74,11-81.87,0l-1,8-1,8"/><path class="cls-17" d="M175.35,245.4a411.26,411.26,0,0,1-1.09-53.09A393.63,393.63,0,0,1,177.7,153a293.74,293.74,0,0,1,7.23-35.95,6,6,0,0,0,.13-2.51h0a5.9,5.9,0,0,0-3.37-4.39l-.19-.09a64.34,64.34,0,0,0-9.05-3.47,38.93,38.93,0,0,0-8-1.42,36.46,36.46,0,0,0-7.1.2s-8.9,12.29-20.8,12.86c-6.38.32-13.62-2.74-20.81-12.86a21.66,21.66,0,0,0-4.41,0c-4.56.44-8.69,2.13-12.14,3.42a7.74,7.74,0,0,0-4.85,5.68c-3.47,16.41-3.89,46.06-3.34,73,0,2.63.11,5.23.18,7.78.74,27.39,2.3,50.13,2.3,50.13"/><path class="cls-17" d="M157.35,105.4h-6s-.49.49-1.35,1.23c-2.61,2.24-8.63,6.77-14.65,6.77s-11.47-4.53-13.8-6.77c-.77-.74-1.2-1.23-1.2-1.23h-4.61"/><line class="cls-17" x1="150" y1="106.63" x2="145.35" y2="97.4"/><polyline class="cls-17" points="121.55 106.63 125.27 96.63 125.35 96.4"/><path class="cls-17" d="M163,27.53l-22.17,1.34-10.59.65-20.68,1.25c-8.11.49-13.06,10.47-9.1,18.1l9.27,21A104.33,104.33,0,0,0,117,83.42l8.13,12.89a3.3,3.3,0,0,0,.18.32c4.46,8.09,15.36,8.71,19.91.75l0-.06,11.55-18.49q3.07-4.93,5.79-10.07l11.62-22.05C179.35,37.69,173,26.93,163,27.53Z"/><path class="cls-17" d="M109.57,30.77S105.35,4.4,157.35,1.4c0,0-20.21,7.23-27.1,28.11"/><path class="cls-17" d="M140.84,28.87S145.35-.6,191.35,5.4c0,0-19.67,9.27-28.34,22.13"/><path class="cls-16" d="M293.64,176c-.27.53-1.09,2.11-1.84,3.37a13.76,13.76,0,0,1-.78,1.19"/><path class="cls-16" d="M284.09,180.85a10.13,10.13,0,0,0,2.48-1,8.19,8.19,0,0,0,4.28-6c.06-.37.13-.71.2-1,1-4.36,3.14-3,2.83,1.64,0,.4-.07.83-.14,1.28"/><path class="cls-16" d="M271.3,186.43a11.82,11.82,0,0,1-3.18-5,7.06,7.06,0,0,1-.27-3.56"/><path class="cls-16" d="M289.85,181.9a12.09,12.09,0,0,0,.91-1l.26-.33a11.26,11.26,0,0,0,.85-1.21,30,30,0,0,0,1.77-3.35.93.93,0,0,0,.05-.1.3.3,0,0,0,0-.08,0,0,0,0,0,0,0c.46-1,1-2.11,1.56-3.44,1.55-3.51,2.56-3.56,3.08-2.62a2.47,2.47,0,0,1,.29.72,5.1,5.1,0,0,1,.13.68,6.76,6.76,0,0,1,.05.76,19.14,19.14,0,0,1-1.1,5.72,15.81,15.81,0,0,1-.88,2,11.5,11.5,0,0,1-5,5.23c-3.94,2-20,1.55-20.53,1.54"/><path class="cls-17" d="M184.93,117.09s2.09.09,4.87,2.42c3.95,3.28,9.28,11.08,12,29.5,3.23,22.11,6.12,26.52,17.71,26.89,4.86.16,11.25-.39,19.83-.64l29-.86a14.25,14.25,0,0,0-.26,1.42s0,0,0,0c0,.24-.07.5-.1.78a.13.13,0,0,1,0,.06c0,.15,0,.31,0,.47s0,.48,0,.74a15.05,15.05,0,0,0,.23,3.55,7.08,7.08,0,0,0,3.18,5h0a5.78,5.78,0,0,0,1.09.52.41.41,0,0,1,0,.79c-7.81,1.35-36.76,6.2-52.89,6.62l-2.13,0c-18,0-33-.29-36.48-19.14-3.26-17.45-3.2-21.68-3.17-22.22V153"/><path class="cls-16" d="M288.94,153.38a7.29,7.29,0,0,0,.91-.48l0-2.29a13,13,0,0,1-1.59.56,11.07,11.07,0,0,1-6.83,0,6.65,6.65,0,0,1-.61-.27L281,153a5.94,5.94,0,0,0,.9.52A8.09,8.09,0,0,0,288.94,153.38Z"/><path class="cls-17" d="M43.35,241.65a13.06,13.06,0,0,0-6-7.25C49,225.54,58.25,211,64.94,195.29c7.63-18,11.88-37.49,12.41-51.89,1-27,17-28.9,17-28.9"/><path class="cls-17" d="M90.8,187.49a73.89,73.89,0,0,1-10.07,25.75A56.93,56.93,0,0,1,69.35,226.4c-17.89,15-25,19-25,19"/><path class="cls-16" d="M43.36,241.67a11.68,11.68,0,0,1,1,3.63s0,.07,0,.1"/><path class="cls-16" d="M26.22,237.68a38.8,38.8,0,0,1,13.13-1.28,15.16,15.16,0,0,1,4,5.25"/><path class="cls-16" d="M16,252.88c-.08-.24-3.19-8.73,4.28-12.91"/><polyline class="cls-16" points="15.89 219.21 16.59 222.54 17.4 226.42 18.21 230.3 19.02 234.17 19.83 238.05 20.24 239.97 20.65 241.93 21.46 245.81 22.07 248.72"/><polyline class="cls-16" points="27.83 245.34 27.34 243.02 26.53 239.14 26.22 237.68 25.72 235.26 24.9 231.38 24.09 227.51 23.28 223.63 22.08 217.92"/><path class="cls-16" d="M15.89,219.21l-3.23-4.56a4,4,0,0,1,.69-5.35l1.3-1.09a4,4,0,0,1,3.69-.78l1.79.53a4,4,0,0,1,2.81,4.44l-.86,5.52Z"/><line class="cls-16" x1="16.59" y1="222.54" x2="23.28" y2="223.63"/><line class="cls-16" x1="17.4" y1="226.42" x2="24.09" y2="227.51"/><line class="cls-16" x1="18.21" y1="230.3" x2="24.9" y2="231.38"/><line class="cls-16" x1="19.02" y1="234.17" x2="25.72" y2="235.26"/><polyline class="cls-16" points="19.84 238.05 23.3 238.61 26.53 239.14"/><line class="cls-16" x1="20.65" y1="241.93" x2="27.34" y2="243.02"/><line class="cls-16" x1="21.46" y1="245.81" x2="25.77" y2="246.51"/><path class="cls-16" d="M37.74,253.07a52.14,52.14,0,0,1,18.21,5l.7,3.33S45.8,255.73,33.34,256a32.22,32.22,0,0,0-3.23.21,30.76,30.76,0,0,0-3.11.47l-.26.05-.19,0q-1.59.35-3.12.84c-1,.32-2.06.7-3,1.11C8.87,263.47,1.23,273,1.23,273l-.69-3.33a51.17,51.17,0,0,1,18.35-13.66"/><path class="cls-16" d="M44.07,244s-.17.66-.53,1.63h0c-.83,2.26-2.67,6.17-5.8,7.45a5.17,5.17,0,0,1-1.1.33c-1.63.31-4.19.81-7,1.29a87.68,87.68,0,0,1-10.77,1.36c-1.92.07-3.26-.1-3.54-.65a2.19,2.19,0,0,1,.61-2.52h0a6.93,6.93,0,0,1,1.5-1.15c1.35-1,3-2,4.6-3,1.25-.78,2.52-1.53,3.7-2.21l2.06-1.17c2.07-1.17,3.52-1.94,3.52-1.94"/><path class="cls-17" d="M219.48,175.9a33.8,33.8,0,0,0,0,18.47"/><path class="cls-17" d="M64.94,195.29s7.16-1.2,15.79,18"/><polyline class="cls-17" points="181.35 110.4 167.35 131.4 162.57 129.56 160.53 128.78 158.96 128.17 154.35 126.4 164.44 105.4"/><line class="cls-17" x1="172.44" y1="106.63" x2="160.53" y2="128.78"/><path class="cls-17" d="M162.57,129.56s-1,2.84-3.61,1.84,0-3.23,0-3.23"/><path class="cls-17" d="M111.33,105.4l3.77,15.18a7.92,7.92,0,0,1-.44,5.06l-1.86,4.24a3.21,3.21,0,0,1-4.59,1.46l-1.94-1.17a7.9,7.9,0,0,1-3.63-5.11l-3.45-16.24"/><path class="cls-17" d="M136.55,118.26l-2.2,43.14a81.06,81.06,0,0,0-21.2,7.5c-1.73.91-3.46,1.92-5.16,3a47.68,47.68,0,0,0-6.13,4.75,32.75,32.75,0,0,0-10.68,18.58c36.83,15.87,83.07-3,83.07-3"/><polyline class="cls-17" points="112 165.09 113.15 168.9 114.35 172.88"/><polyline class="cls-17" points="107.26 169.22 107.99 171.94 108.87 175.26"/><polyline class="cls-17" points="100.52 173.32 101.86 176.69 103.13 179.9"/><path class="cls-17" d="M175.35,253.4a212.16,212.16,0,0,1-47.25,4.48c-4.14-.07-8.41-.27-12.75-.66-2.68-.24-5.38-.54-8.09-.92q-3.72-.53-7.46-1.23c-2.45-.48-4.9-1-7.34-1.64l-.11,0"/><path class="cls-17" d="M115.35,257.22v0a3.47,3.47,0,0,1,3.45-3.47l.33,0,5.84.54a3.45,3.45,0,0,1,3.13,3.22,2.29,2.29,0,0,1,0,.37,3.37,3.37,0,0,1-3.63,3.22l-5.92-.45A3.47,3.47,0,0,1,115.35,257.22Z"/><polyline class="cls-17" points="107.26 253.4 107.26 256.3 107.26 259.36"/><polyline class="cls-17" points="100.52 251.73 99.8 255.07 99.19 257.92"/><path class="cls-17" d="M192,411.69l0,0c-.68.67-10.68,10.08-33.7,7.43"/><path class="cls-17" d="M186.35,473.4s0,3-7,1"/><path class="cls-17" d="M186.35,466.4s-2,3-9,1"/><path class="cls-17" d="M185.35,457.1s-3,2.78-8,1"/><path class="cls-17" d="M125.8,419.63s-20.9,8.23-34.67,0"/><path class="cls-17" d="M95.85,457.9l7.8.81"/><path class="cls-17" d="M96.29,468.4l0,.05c.37.3,2.49,1.85,7,.95"/><path class="cls-17" d="M96.35,478.4h0c.31.07,4.1.95,7,0"/><path class="cls-17" d="M128.35,293.9s2,9.48,5.13,22.18c3.69,14.82,9,34,14.54,47.6,10.33,25.22,5.33,27.22,9.33,51.22.23,1.38.49,2.81.78,4.28,4.67,24.08,16.22,58.72,16.22,58.72s-10,36.75,15.19,47.83a7.62,7.62,0,0,0,10.24-4.57c2.67-7.94,4.34-23.19-6.43-47.26,0,0,1.33-31.94-1.43-62.17-.63-6.83-1.46-13.57-2.57-19.83-6-34-7-106-14-130,0,0-43.83,11-83.91,0,0,0-10.92,58.39-5,87.7,5.28,26.18,1.85,44.94,4.63,70,.33,3,.75,6.07,1.28,9.26a295.36,295.36,0,0,1,4,39.55c.16,5.29.07,8.74,0,10,0,.32,0,.49,0,.49C92.22,480.14,84,485.65,76.6,492c-10.5,9-19.29,19.58-12.25,21.93s46-8,46-8h6s3-1,4-1.35c10-3.46,0-28.65,0-28.65s3.2-33.23,5.5-56.27c.58-5.78,1.1-10.92,1.5-14.73,2-19-6-30,0-43,4.92-10.66,5.93-36.78,6.13-45.82.05-2,.06-3.15.06-3.15"/><path class="cls-18" d="M133.33,66.87s-.63-1.21.06-5.85-1.09-6.53-7.62-7.62-.12-2-5.77-1.82-4.81,1.94-6.32,6,1.47,5.79,3.24,8.72,2.2-.06,3.08,4.7,4.91,5,4.91,5S132.73,72.17,133.33,66.87Z"/><path class="cls-18" d="M138.62,68s-1.3-4.91,0-8.12,3.48-3.22,4.57-6.49,7.9-1.56,9.94-1.87,3.12,4.64,2.58,8.15,1.91,2.67.14,7.45-8.85,4.35-8.58,5.11-1.94,2.49-1.94,2.49S137.32,73.91,138.62,68Z"/><path class="cls-19" d="M137.44,67a3.39,3.39,0,0,0-4.11-.17c-2.9,2-9.19,7.4-9.19,12.11,0,6.53,6.77,17.42,10.88,17.42S147,84.5,147,79C147,74.71,140.5,69.55,137.44,67Z"/><line class="cls-20" x1="129.58" y1="48.5" x2="110.35" y2="44.24"/><line class="cls-20" x1="163.59" y1="42.37" x2="144.45" y2="47.96"/><ellipse class="cls-21" cx="128.77" cy="66.87" rx="2.99" ry="2.59"/><ellipse class="cls-21" cx="142.92" cy="66.87" rx="2.99" ry="2.59"/><ellipse class="cls-21" cx="134.75" cy="74.22" rx="2.45" ry="0.95"/><line class="cls-21" x1="134.75" y1="75.17" x2="134.75" y2="85.02"/><path class="cls-16" d="M141,82.79,139.21,85s-6.76,1.51-9-.36"/></g></g></svg>