<svg xmlns="http://www.w3.org/2000/svg" viewBox="0 0 342.83 159.07"><defs><style>.cls-1{fill:#1b2223;}.cls-1,.cls-2,.cls-3,.cls-5{stroke:#000;stroke-miterlimit:10;stroke-width:2px;}.cls-2{fill:#151f21;}.cls-3{fill:#3c4647;}.cls-4{fill:#ebecec;}.cls-5{fill:#0a1011;}</style></defs><g id="Layer_2" data-name="Layer 2"><g id="Layer_18" data-name="Layer 18"><path class="cls-1" d="M7,1V111.12l334.73,43.32a.1.1,0,0,0,.11-.1V56.18L7,1Z"/><path class="cls-2" d="M7,1,1,3.28v112a.15.15,0,0,0,.24.12L7,111.12V1Z"/><path class="cls-2" d="M1.37,115.65,335.84,158l5.74-3.43a.11.11,0,0,0,0-.19L7,111.12,1.3,115.39A.14.14,0,0,0,1.37,115.65Z"/><path class="cls-3" d="M24,14.49l.26,80.83L331.69,137a.22.22,0,0,0,.25-.23l-.47-72.08L24.4,14.1A.39.39,0,0,0,24,14.49Z"/><path class="cls-4" d="M59.86,45.28a10,10,0,0,1,2.5,6.38,7.59,7.59,0,0,1-2.43,5.86,11.51,11.51,0,0,1-9.4,2.65,15,15,0,0,1-2.86-.73c.07,4.63.1,7,.16,11.58l2,.25c.57.08.34.39-.6.76a7,7,0,0,1-2.79.52L41.87,72c-.61-.08-.33-.43.61-.8a7.39,7.39,0,0,1,1.32-.37q-.19-14.31-.4-28.63l-3.08-.43c-.62-.09-.33-.46.6-.8a7.34,7.34,0,0,1,2.79-.44l10,1.39A10.18,10.18,0,0,1,59.86,45.28ZM47.63,56.5a16.71,16.71,0,0,0,6.29,2.41,2.82,2.82,0,0,0,2.17-.83,7.07,7.07,0,0,0,2.25-5.5,9.76,9.76,0,0,0-2.45-6.29,9.44,9.44,0,0,0-5.6-3.17l-2.85-.4C47.52,48.23,47.56,51,47.63,56.5Z"/><path class="cls-4" d="M82.09,70.12c0,2.42,1.25,5.48,2.53,5.65l.29,0c.24,0,.33.09.33.18,0,.58-2.87,1.18-4,1a3.67,3.67,0,0,1-2.59-2.66,11.25,11.25,0,0,1-7,1.42A7,7,0,0,1,65.48,69c0-4.19-.08-6.29-.14-10.48,0-2.58-.85-3.57-1.89-3.71-.29,0-.72,0-.91,0s-.38-.1-.38-.2c0-.77,3.54-1.17,4.64-1a3,3,0,0,1,1.57.65l0,.06c.57.56,1,1.59,1,3.39,0,4.16.08,6.24.14,10.41A6.67,6.67,0,0,0,75,74.52l.38,0c.8.06,2.67-2.36,2.63-5,0-3.75-.07-5.62-.12-9.37,0-2.57-.85-3.55-1.89-3.69-.29,0-.72,0-.91,0s-.38-.1-.38-.19c0-.78,3.54-1.17,4.64-1a3,3,0,0,1,1.57.65L81,56a4.7,4.7,0,0,1,1,3.38c0,4.14.08,6.22.13,10.36Z"/><path class="cls-4" d="M110.93,59.74c0,.43-2.41,1.15-3.54,1a5.4,5.4,0,0,0-2.6,4.78v.77a11.75,11.75,0,0,1-.4,2.92c-.45,1.57-1.48,2.73-1.94,4.25a9.72,9.72,0,0,0-.39,2.83,11.43,11.43,0,0,0,3.66,8,9.06,9.06,0,0,1,2.67,6.09c.08,6-6.81,8.8-12.45,8.12-4.56-.56-9.25-4.36-9.31-9.39-.07-5.56,6-8.79,12.12-8.1a11,11,0,0,1-.75-3.8,9.63,9.63,0,0,1,.25-2.37,13,13,0,0,1-4.69.25c-4.56-.59-6.79-4.74-6.84-8.56,0-4.35,3.1-9.86,11.09-8.77a7.44,7.44,0,0,1,5.59,3.64,12.55,12.55,0,0,1,7-1.93h.09C110.79,59.57,110.93,59.64,110.93,59.74Zm-6.54,31.63c0-4.37-4-8.43-8.64-9-3.14-.39-5.13,2.92-5.1,5.86.06,4.45,4,8.45,8.65,9.06C102.34,97.68,104.42,94.35,104.39,91.37ZM94.56,59.05,94.08,59c-1.71-.08-3.32,3.41-3.28,6.6,0,3.67,2.09,7.79,6.08,8.31,1.94.25,3.05-2.2,3.5-3.82a10,10,0,0,0,.35-2.74,10.81,10.81,0,0,0-.76-3.8A7,7,0,0,0,94.56,59.05Z"/><path class="cls-4" d="M118.47,80c.24,0,.33.09.34.18,0,.77-3.36,1.24-4.64,1.08s-2.52-1-2.56-4.06l-.48-40.3c0-.43,2.46-.7,2.84-.74a13.05,13.05,0,0,1,2.42,0c.29,0,.43.06.43.16a128.72,128.72,0,0,0-1.44,18.8l.25,21.15c0,1.48.33,3.48,1.94,3.69a1.48,1.48,0,0,0,.47,0Z"/><path class="cls-4" d="M144.82,83.64c0,.14-.23.3-.7.48a7.8,7.8,0,0,1-9.71-3.49,16.65,16.65,0,0,1-9.27,2c-2.23-.29-3.67-1.71-3.69-3.62,0-2.72,3-8,6-10.83.09-.08.23-.16.56-.44-1.51-3-3.42-4.65-6-5-1-.13-1-.14-1-.23,0-1,3.83-1.06,4.59-.95,3.47.47,5.34,2.87,6.7,5.61,2.12,4.37,3.18,6.55,5.3,10.9,1.55,3.19,3.46,5,6,5.28C143.68,83.4,144.82,83.4,144.82,83.64Zm-11.28-4.59c-1.73-3.55-2.6-5.33-4.32-8.88a4.52,4.52,0,0,0-.61.87c-1.64,2.3-3.17,5-3.14,7.1a3.33,3.33,0,0,0,3.21,3.32c1.33.17,3-.7,4.95-2.21A.45.45,0,0,1,133.54,79.05Z"/><path class="cls-4" d="M156.14,73.1c-.19,0-.33-.09-.34-.19v-.52a6.69,6.69,0,0,0-5.9-5.83c-1.42-.2-2,1.52-2,3.27,0,5,12,5,12.06,10.12v0c0,4-4.63,6.55-10.47,5.8a6.87,6.87,0,0,1-6.08-6l-.06-.58c0-.38,2.69-1.16,3.79-1,.18,0,.28,0,.28.13v.56a6.6,6.6,0,0,0,5.42,5.71c1.42.18,3.07-1.11,3-3.75,0-5-12-4.88-12.06-10.13-.05-4.5,4.73-5.55,9.19-5.37l.71.1a6.94,6.94,0,0,1,6.14,6.62C159.88,72.47,157.37,73.26,156.14,73.1Z"/><path class="cls-4" d="M165.16,64.83a.15.15,0,0,1-.14-.16c0-.15.23-.49.65-.85a5.2,5.2,0,0,0,1.24-4,8.15,8.15,0,0,0-2-5.25v-.09c0-.42,1.27-1.32,1.36-1.4s1.32-.89,1.8-.83c.05,0,.09,0,.09.06a8.15,8.15,0,0,1,2.05,5.4,7.58,7.58,0,0,1-2.64,5.77A5.56,5.56,0,0,1,165.16,64.83Z"/><path class="cls-4" d="M188.48,77.42c-.19,0-.33-.09-.33-.19v-.51a6.66,6.66,0,0,0-5.89-5.78c-1.42-.19-2,1.5-2,3.23,0,5,12,4.91,12.05,10v0c0,3.91-4.64,6.47-10.48,5.72a6.85,6.85,0,0,1-6.08-6l-.05-.57c0-.38,2.69-1.14,3.78-1,.19,0,.29,0,.29.13v.56a6.59,6.59,0,0,0,5.42,5.65c1.42.18,3.07-1.1,3-3.7,0-5-12-4.84-12.05-10,0-4.45,4.74-5.48,9.2-5.29l.72.1a6.9,6.9,0,0,1,6.13,6.54C192.22,76.8,189.72,77.58,188.48,77.42Z"/><path class="cls-4" d="M223.41,67.21c-1.76-.24-3.11,2.46-3.1,4.39a6.62,6.62,0,0,0,.69,2.81c2.22,4.48,7.44,4.32,11,7.26a8.54,8.54,0,0,1,3.28,6.24c0,5.26-6.15,8.12-12.32,7.33a10.93,10.93,0,0,1-7.77-4.4,2.1,2.1,0,0,1-.67,0c-.23,0-.33-.09-.33-.18l0-3.32c0-.92,3.69-1,3.69-1,.19,0,.33.08.34.18,0,4.32,4.33,7.09,8.27,7.6,3,.38,4.81-2.81,4.79-5.33a8.19,8.19,0,0,0-3.18-6.1c-2-1.64-4.58-2.45-6.82-3.4a7.73,7.73,0,0,1-4.94-6.83c0-4.56,5.11-7.11,10.43-6.36a8.25,8.25,0,0,1,4.77,2.45,4.92,4.92,0,0,1,1,0c.19,0,.29,0,.29.13V70.3c0,.51-2.65,1.15-3.74,1-.14,0-.28-.09-.28-.13A7.89,7.89,0,0,0,223.41,67.21Z"/><path class="cls-4" d="M247.85,78.25c.23,0,.33.09.33.18v.46l9.08,1.23c.23,0,.33.09.33.18,0,.41-2.84,1.07-3.74,1l-5.7-.78c-.12,2.85-.62,6.38-.6,9.29,0,4.1,1,7.18,5.14,7.72.28,0,.59,0,.85.06s.53.11.53.21-.24.28-.71.45a7.78,7.78,0,0,1-3.93.45c-4.75-.61-5.91-3.77-6-8,0-3.38.66-7.38.68-10.71L235,78.7c-.24,0-.34-.09-.34-.18,0-.51,2.79-1.09,3.74-1l7.22,1A6,6,0,0,1,247.85,78.25Z"/><path class="cls-4" d="M280.89,101.21c0,.13-.23.28-.71.45a8.17,8.17,0,0,1-3.84.45,7.74,7.74,0,0,1-5.86-3.82,17.37,17.37,0,0,1-9.28,1.87c-2.23-.29-3.66-1.65-3.68-3.46,0-2.59,3-7.58,6.09-10.24.1-.08.24-.15.57-.42-1.49-2.87-3.4-4.44-6-4.8-.95-.13-1.05-.14-1.05-.23,0-.91,3.84-1,4.6-.87,3.47.47,5.33,2.76,6.68,5.38l5.24,10.39c1.54,3,3.45,4.72,6,5C279.75,101,280.89,101,280.89,101.21Zm-11.27-4.43-4.28-8.47a4.72,4.72,0,0,0-.62.83c-1.64,2.17-3.19,4.77-3.17,6.72,0,1.59,1.11,2.9,3.2,3.17,1.33.18,3-.64,5-2.06A.46.46,0,0,1,269.62,96.78Z"/><path class="cls-4" d="M287.28,83.62c.23,0,.33.09.33.18v.45l9.07,1.24c.24,0,.34.09.34.17,0,.41-2.84,1-3.75.93l-5.7-.78c-.12,2.81-.62,6.28-.6,9.15,0,4,1,7.07,5.12,7.61l.86.06c.31,0,.52.11.52.2s-.24.29-.71.45a7.85,7.85,0,0,1-3.93.43c-4.75-.61-5.91-3.72-5.94-7.9,0-3.32.67-7.27.69-10.54L274.46,84c-.23,0-.33-.09-.33-.18,0-.5,2.79-1.06,3.74-.93l7.22,1A6.22,6.22,0,0,1,287.28,83.62Z"/><path class="cls-4" d="M309.93,93.64c-.19,0-.34-.09-.34-.18V93a6.55,6.55,0,0,0-5.87-5.55c-1.43-.19-2,1.42-2,3.07,0,4.72,12,4.76,12,9.64v0c0,3.73-4.66,6.14-10.5,5.39a6.72,6.72,0,0,1-6.06-5.73l0-.54c0-.36,2.7-1.08,3.79-.93.19,0,.29,0,.29.12V99a6.42,6.42,0,0,0,5.39,5.42c1.43.18,3.08-1,3.06-3.52,0-4.75-12-4.68-12-9.64,0-4.24,4.76-5.2,9.23-5l.71.1c3.47.47,6.09,3.18,6.11,6.28C313.67,93.07,311.16,93.8,309.93,93.64Z"/><path class="cls-2" d="M22.8,14.41,18,16l1,82.56a.23.23,0,0,0,.36.19l4.91-3.46L24,15.24A.87.87,0,0,0,22.8,14.41Z"/><path class="cls-5" d="M19,99,328,141l3.68-3.68a.22.22,0,0,0-.14-.37L24.21,95.32,19,99A0,0,0,0,0,19,99Z"/></g></g></svg>