<svg xmlns="http://www.w3.org/2000/svg" viewBox="0 0 360.83 155.06"><defs><style>.cls-1{fill:#1b2223;}.cls-1,.cls-2,.cls-3,.cls-5{stroke:#000;stroke-miterlimit:10;stroke-width:2px;}.cls-2{fill:#151f21;}.cls-3{fill:#3c4647;}.cls-4{fill:#ebecec;}.cls-5{fill:#0a1011;}</style></defs><g id="Layer_2" data-name="Layer 2"><g id="Layer_18" data-name="Layer 18"><path class="cls-1" d="M7,1V111.12l352.73,39.32a.1.1,0,0,0,.11-.1V52.18L7,1Z"/><path class="cls-2" d="M7,1,1,3.28v112a.15.15,0,0,0,.24.12L7,111.12V1Z"/><path class="cls-2" d="M1.37,115.65,353.84,154l5.74-3.43a.11.11,0,0,0,0-.19L7,111.12,1.3,115.39A.14.14,0,0,0,1.37,115.65Z"/><path class="cls-3" d="M24,14.49l.26,80.83L349.69,133a.22.22,0,0,0,.25-.23l-.47-72.08L24.4,14.1A.39.39,0,0,0,24,14.49Z"/><path class="cls-4" d="M75,46.65a9.52,9.52,0,0,1,2.83,6.42,7,7,0,0,1-2.77,5.8,14.15,14.15,0,0,1-10.67,2.48,18.7,18.7,0,0,1-3.23-.77l.15,11.57,2.26.29c.65.08.39.39-.68.74a9,9,0,0,1-3.17.47L54.54,73c-.7-.09-.38-.44.69-.8a9.52,9.52,0,0,1,1.5-.34l-.39-28.63-3.51-.48c-.7-.1-.37-.47.69-.79a9.19,9.19,0,0,1,3.17-.39L68,43.14A12.16,12.16,0,0,1,75,46.65Zm-13.88,11a20.69,20.69,0,0,0,7.13,2.51,3.39,3.39,0,0,0,2.46-.79,6.55,6.55,0,0,0,2.56-5.45,9.27,9.27,0,0,0-2.77-6.33,11.31,11.31,0,0,0-6.34-3.27l-3.23-.45C61,49.37,61,52.13,61.11,57.64Z"/><path class="cls-4" d="M100.16,71.86c0,2.41,1.42,5.49,2.87,5.67l.32,0c.27,0,.38.09.38.19,0,.58-3.26,1.12-4.5,1A4,4,0,0,1,96.29,76a14.18,14.18,0,0,1-8,1.29c-3.93-.51-6.92-3.42-7-6.87,0-4.19-.08-6.28-.14-10.47,0-2.58-1-3.58-2.14-3.74-.33,0-.81,0-1,0s-.43-.11-.43-.2c0-.78,4-1.11,5.26-.94a3.62,3.62,0,0,1,1.78.68l.06,0c.65.58,1.09,1.61,1.12,3.41,0,4.16.08,6.23.13,10.39a7.1,7.1,0,0,0,6.16,6.52l.43.06c.92.07,3-2.32,3-4.93,0-3.74-.07-5.61-.12-9.35,0-2.56-1-3.56-2.14-3.72-.32,0-.81,0-1,0s-.43-.11-.44-.2c0-.78,4-1.1,5.26-.93a3.79,3.79,0,0,1,1.79.67l0,.06c.65.57,1.1,1.6,1.12,3.39,0,4.13.08,6.2.13,10.34Z"/><path class="cls-4" d="M132.9,62c0,.43-2.73,1.11-4,1a5.21,5.21,0,0,0-3,4.72v.76a10.35,10.35,0,0,1-.45,2.91c-.52,1.55-1.69,2.69-2.21,4.2a8.49,8.49,0,0,0-.45,2.82c0,3.11,1.63,5.77,4.13,8a8.69,8.69,0,0,1,3,6.11c.07,6-7.74,8.66-14.15,7.88-5.16-.63-10.47-4.5-10.54-9.52-.07-5.55,6.83-8.67,13.77-7.87a10,10,0,0,1-.85-3.8,8.68,8.68,0,0,1,.29-2.36,16.65,16.65,0,0,1-5.32.17,8.7,8.7,0,0,1-7.74-8.66c0-4.35,3.54-9.78,12.59-8.55a8.77,8.77,0,0,1,6.34,3.74,15.64,15.64,0,0,1,7.89-1.8l.1,0C132.74,61.87,132.9,61.94,132.9,62Zm-7.48,31.4c0-4.35-4.56-8.47-9.78-9.13-3.56-.45-5.83,2.82-5.79,5.75.05,4.44,4.5,8.49,9.78,9.18C123.1,99.69,125.46,96.4,125.42,93.43ZM114.33,61l-.54-.07c-1.93-.12-3.77,3.33-3.73,6.51,0,3.66,2.35,7.81,6.87,8.4,2.21.29,3.47-2.14,4-3.75a8.81,8.81,0,0,0,.4-2.72,9.75,9.75,0,0,0-.85-3.8A7.88,7.88,0,0,0,114.33,61Z"/><path class="cls-4" d="M141.42,82.35c.27,0,.38.1.38.19,0,.76-3.81,1.18-5.26,1s-2.86-1-2.9-4.09q-.22-20.08-.46-40.16c0-.43,2.79-.65,3.22-.68a18.11,18.11,0,0,1,2.75.07c.32,0,.48.07.48.17A112.65,112.65,0,0,0,138,57.53c.1,8.43.15,12.65.24,21.07,0,1.48.37,3.48,2.2,3.71a1.94,1.94,0,0,0,.54,0Z"/><path class="cls-4" d="M171.31,86.45c0,.14-.27.29-.81.46a9.72,9.72,0,0,1-4.35.43,9,9,0,0,1-6.65-4.07A20.92,20.92,0,0,1,149,85.13c-2.53-.33-4.16-1.77-4.18-3.67,0-2.71,3.4-7.91,6.87-10.67.11-.08.27-.15.64-.43-1.7-3-3.87-4.69-6.84-5.1-1.07-.14-1.18-.16-1.18-.25,0-1,4.34-1,5.21-.86,3.93.54,6.05,3,7.59,5.71,2.39,4.39,3.59,6.58,6,11,1.76,3.2,3.93,5,6.84,5.36C170,86.19,171.3,86.21,171.31,86.45Zm-12.8-4.77-4.88-8.92a5.13,5.13,0,0,0-.69.85c-1.86,2.27-3.61,5-3.58,7,0,1.66,1.27,3.05,3.64,3.36,1.51.19,3.43-.65,5.62-2.11A.45.45,0,0,1,158.51,81.68Z"/><path class="cls-4" d="M184.16,76.17c-.21,0-.37-.09-.38-.19v-.51c-.41-3.24-3.34-5.46-6.68-5.92-1.62-.22-2.3,1.48-2.28,3.22.05,5,13.61,5.14,13.66,10.29v0c0,3.93-5.26,6.42-11.88,5.57-3.77-.48-6.54-3.05-6.89-6.11,0-.23,0-.34-.06-.57s3-1.11,4.29-.94c.21,0,.32,0,.32.13v.57a7.15,7.15,0,0,0,6.14,5.77c1.61.21,3.48-1,3.45-3.67-.05-5-13.6-5.07-13.66-10.3,0-4.48,5.38-5.43,10.44-5.17l.81.11c3.93.54,6.92,3.42,7,6.7C188.41,75.62,185.56,76.36,184.16,76.17Z"/><path class="cls-4" d="M223.78,66.53c-2-.28-3.53,2.41-3.51,4.36a6,6,0,0,0,.78,2.82c2.51,4.55,8.43,4.47,12.44,7.49,2.28,1.73,3.69,4,3.71,6.32.05,5.29-7,8-14,7.15-3.34-.42-6.85-1.89-8.81-4.55a2.63,2.63,0,0,1-.76,0c-.26,0-.37-.09-.37-.18,0-1.34,0-2,0-3.34,0-.93,4.18-1,4.18-1,.22,0,.38.1.38.19,0,4.35,4.91,7.2,9.38,7.77,3.39.44,5.46-2.74,5.44-5.27A8.11,8.11,0,0,0,229,82.12c-2.27-1.68-5.19-2.54-7.72-3.52-3.29-1.28-5.58-4-5.61-7,0-4.58,5.81-7,11.84-6.2A10.06,10.06,0,0,1,233,68a7,7,0,0,1,1.18,0c.22,0,.33,0,.33.14,0,.66,0,1,0,1.65s-3,1.11-4.24.93c-.17,0-.33-.09-.33-.13A9.08,9.08,0,0,0,223.78,66.53Z"/><path class="cls-4" d="M251.49,78.05c.27,0,.38.1.38.19v.45l10.3,1.4c.27,0,.37.1.37.19,0,.41-3.22,1-4.24.88l-6.47-.88c-.13,2.86-.7,6.39-.68,9.31,0,4.12,1.14,7.22,5.82,7.83.33,0,.67.06,1,.08s.6.12.6.21-.27.29-.81.45a9.91,9.91,0,0,1-4.46.38c-5.38-.7-6.7-3.88-6.74-8.14,0-3.39.75-7.4.78-10.73L237,78.27c-.27,0-.37-.1-.37-.19,0-.5,3.16-1,4.24-.89L249,78.3A8,8,0,0,1,251.49,78.05Z"/><path class="cls-4" d="M289,101.64c0,.14-.27.28-.81.44a10.2,10.2,0,0,1-4.35.38,9.05,9.05,0,0,1-6.65-3.92,21.76,21.76,0,0,1-10.53,1.71c-2.53-.32-4.15-1.71-4.17-3.53,0-2.59,3.44-7.55,6.92-10.16.11-.08.27-.15.64-.41-1.69-2.91-3.85-4.52-6.81-4.92-1.08-.14-1.19-.16-1.19-.25,0-.91,4.35-.91,5.21-.79,3.94.54,6,2.86,7.58,5.51l5.94,10.5c1.74,3.07,3.91,4.79,6.82,5.17C287.66,101.38,289,101.42,289,101.64ZM276.17,97l-4.85-8.56a4.92,4.92,0,0,0-.69.81C268.76,91.41,267,94,267,96c0,1.59,1.26,2.93,3.63,3.24,1.51.19,3.44-.6,5.63-2A.42.42,0,0,1,276.17,97Z"/><path class="cls-4" d="M296.21,84.14c.27,0,.38.1.38.19v.45l10.29,1.4c.27,0,.38.09.38.18,0,.4-3.22,1-4.25.86l-6.46-.88c-.14,2.81-.71,6.27-.69,9.15,0,4,1.12,7.1,5.8,7.7.33,0,.67.06,1,.08s.59.12.6.21-.27.28-.81.44a10,10,0,0,1-4.46.36c-5.39-.69-6.7-3.82-6.73-8,0-3.33.76-7.27.79-10.54l-10.34-1.4c-.27,0-.38-.1-.38-.19,0-.5,3.17-1,4.25-.87l8.19,1.12A8,8,0,0,1,296.21,84.14Z"/><path class="cls-4" d="M321.9,94.57c-.22,0-.38-.1-.38-.18V93.9c-.39-3.08-3.31-5.21-6.65-5.66-1.62-.22-2.31,1.38-2.3,3,0,4.73,13.6,5,13.62,9.86v0c0,3.73-5.29,6.06-11.91,5.21-3.77-.49-6.53-2.94-6.87-5.84,0-.22,0-.33-.06-.54,0-.36,3.07-1,4.3-.87.22,0,.33,0,.33.13v.54c.34,2.63,2.94,5.1,6.11,5.51a3.17,3.17,0,0,0,3.48-3.46c0-4.75-13.59-4.9-13.62-9.86,0-4.24,5.41-5.11,10.47-4.82l.81.11c3.93.53,6.9,3.29,6.92,6.39C326.14,94.07,323.3,94.76,321.9,94.57Z"/><path class="cls-2" d="M22.8,14.41,18,16l1,82.56a.23.23,0,0,0,.36.19l4.91-3.46L24,15.24A.87.87,0,0,0,22.8,14.41Z"/><path class="cls-5" d="M19,99,346,137l3.68-3.68a.22.22,0,0,0-.14-.37L24.21,95.32,19,99A0,0,0,0,0,19,99Z"/></g></g></svg>