<svg id="Layer_1" data-name="Layer 1" xmlns="http://www.w3.org/2000/svg" viewBox="0 0 536.78 102"><defs><style>.cls-1{fill:#b3b3b3;}.cls-1,.cls-2,.cls-3,.cls-4{stroke:#000;stroke-miterlimit:10;stroke-width:2px;}.cls-2{fill:#fbb058;}.cls-3{fill:none;}.cls-4{fill:#603813;}</style></defs><path class="cls-1" d="M95.8,68.2H474.47a155.39,155.39,0,0,0,41.63-5.68l21.57-6-21.56-6a155.55,155.55,0,0,0-41.66-5.68H95.8" transform="translate(-4.62 -5.52)"/><polyline class="cls-2" points="533.05 51 118.05 51 108.05 59 90.05 57 90.05 45 108.05 43 118.05 51"/><path class="cls-3" d="M94.67,61.52" transform="translate(-4.62 -5.52)"/><path class="cls-3" d="M25.93,56.52" transform="translate(-4.62 -5.52)"/><path class="cls-3" d="M89.67,56.52" transform="translate(-4.62 -5.52)"/><polyline class="cls-4" points="85.01 57 21.31 57 21.31 51.41 21.31 45.83 85.1 45.83"/><path class="cls-2" d="M25.93,51.35l-9-3.93a7,7,0,0,0-9,3.13L6.45,53.19a7,7,0,0,0,0,6.66L8,62.75A7,7,0,0,0,16.71,66l9.22-3.49Z" transform="translate(-4.62 -5.52)"/><line class="cls-3" x1="27.31" y1="45.83" x2="31.62" y2="57"/><line class="cls-3" x1="34.31" y1="45.83" x2="38.62" y2="57"/><line class="cls-3" x1="41.31" y1="45.83" x2="45.62" y2="57"/><line class="cls-3" x1="48.31" y1="45.83" x2="52.62" y2="57"/><line class="cls-3" x1="55.31" y1="45.83" x2="59.62" y2="57"/><line class="cls-3" x1="62.31" y1="45.83" x2="66.62" y2="57"/><line class="cls-3" x1="69.31" y1="45.83" x2="73.62" y2="57"/><line class="cls-3" x1="76.31" y1="45.83" x2="80.62" y2="57"/><path class="cls-2" d="M94.67,56.52c0-27,19-50,19-50h-6s-19,23-18,50c-1,27,18,50,18,50h6S94.67,83.52,94.67,56.52Z" transform="translate(-4.62 -5.52)"/></svg>