<?xml version="1.0" encoding="utf-8"?>
<!-- Generator: Adobe Illustrator 26.0.3, SVG Export Plug-In . SVG Version: 6.00 Build 0)  -->
<svg version="1.1" id="Layer_1" xmlns="http://www.w3.org/2000/svg" xmlns:xlink="http://www.w3.org/1999/xlink" x="0px" y="0px"
	 viewBox="0 0 1173 311" style="enable-background:new 0 0 1173 311;" xml:space="preserve">
<style type="text/css">
	.st0{fill:#24262E;stroke:#000000;stroke-width:3;stroke-miterlimit:10;}
	.st1{fill:#1C1E23;stroke:#000000;stroke-width:3;stroke-miterlimit:10;}
	.st2{fill:none;stroke:#000000;stroke-width:3;stroke-miterlimit:10;}
	.st3{fill:url(#SVGID_1_);}
	.st4{fill:url(#SVGID_00000091003827110864608330000010220031856742532775_);}
	.st5{fill:url(#SVGID_00000078763510909485156980000003714848565214397087_);}
</style>
<g id="Layer_2_00000127045184593906150030000016619220907667312768_">
	<g id="Layer_1-2">
		<path class="st0" d="M17.6,1.5h1137.7c8.9,0,16.1,7.2,16.1,16.1v275.7c0,8.9-7.2,16.1-16.1,16.1H17.6c-8.9,0-16.1-7.2-16.1-16.1
			V17.6C1.5,8.7,8.7,1.5,17.6,1.5z"/>
		<path class="st1" d="M1.5,17.6c0-8.9,7.2-16.1,16.1-16.1h1137.7c8.9,0,16.1,7.2,16.1,16.1c0,0,0,0,0,0v31.6H1.5V17.6z"/>
		<line class="st2" x1="12.7" y1="26.1" x2="1027.6" y2="26.1"/>
	</g>
	<linearGradient id="SVGID_1_" gradientUnits="userSpaceOnUse" x1="1131.9131" y1="25.9899" x2="1162.092" y2="25.9899">
		<stop  offset="0" style="stop-color:#584895"/>
		<stop  offset="0.1773" style="stop-color:#544D99"/>
		<stop  offset="0.3875" style="stop-color:#475BA6"/>
		<stop  offset="0.6145" style="stop-color:#3273BB"/>
		<stop  offset="0.8517" style="stop-color:#1594D8"/>
		<stop  offset="1" style="stop-color:#00ADEE"/>
	</linearGradient>
	<path class="st3" d="M1147,13.6c4,0,4.5,0,6.1,0.1c4.1,0.2,6,2.1,6.2,6.2c0.1,1.6,0.1,2.1,0.1,6.1c0,4,0,4.5-0.1,6.1
		c-0.2,4.1-2.1,6-6.2,6.2c-1.6,0.1-2.1,0.1-6.1,0.1c-4,0-4.5,0-6.1-0.1c-4.1-0.2-6-2.1-6.2-6.2c-0.1-1.6-0.1-2.1-0.1-6.1
		c0-4,0-4.5,0.1-6.1c0.2-4.1,2.1-6,6.2-6.2C1142.5,13.6,1143,13.6,1147,13.6z M1147,10.9c-4.1,0-4.6,0-6.2,0.1
		c-5.5,0.3-8.5,3.3-8.8,8.8c-0.1,1.6-0.1,2.1-0.1,6.2s0,4.6,0.1,6.2c0.3,5.5,3.3,8.5,8.8,8.8c1.6,0.1,2.1,0.1,6.2,0.1s4.6,0,6.2-0.1
		c5.5-0.3,8.5-3.3,8.8-8.8c0.1-1.6,0.1-2.1,0.1-6.2s0-4.6-0.1-6.2c-0.2-5.5-3.3-8.5-8.8-8.8C1151.6,10.9,1151.1,10.9,1147,10.9z
		 M1147,18.2c-4.3,0-7.7,3.5-7.7,7.7s3.5,7.7,7.7,7.7s7.7-3.5,7.7-7.7C1154.8,21.7,1151.3,18.2,1147,18.2z M1147,31
		c-2.8,0-5-2.3-5-5c0-2.8,2.3-5,5-5s5,2.3,5,5C1152,28.8,1149.8,31,1147,31z M1155.1,16.1c-1,0-1.8,0.8-1.8,1.8s0.8,1.8,1.8,1.8
		c1,0,1.8-0.8,1.8-1.8S1156.1,16.1,1155.1,16.1z"/>
	
		<linearGradient id="SVGID_00000054981586926697453750000016677131475349671100_" gradientUnits="userSpaceOnUse" x1="1087.7703" y1="25.9899" x2="1118.8114" y2="25.9899">
		<stop  offset="0" style="stop-color:#584895"/>
		<stop  offset="0.1773" style="stop-color:#544D99"/>
		<stop  offset="0.3875" style="stop-color:#475BA6"/>
		<stop  offset="0.6145" style="stop-color:#3273BB"/>
		<stop  offset="0.8517" style="stop-color:#1594D8"/>
		<stop  offset="1" style="stop-color:#00ADEE"/>
	</linearGradient>
	<path style="fill:url(#SVGID_00000054981586926697453750000016677131475349671100_);" d="M1103.3,10.9c-8.6,0-15.5,6.9-15.5,15.5
		c0,6.9,4.4,12.7,10.6,14.7c0.8,0.1,1-0.3,1-0.7v-2.9c-4.3,0.9-5.2-1.8-5.2-1.8c-0.7-1.8-1.7-2.3-1.7-2.3c-1.4-1,0.1-0.9,0.1-0.9
		c1.6,0.1,2.4,1.6,2.4,1.6c1.4,2.4,3.6,1.7,4.5,1.3c0.1-1,0.5-1.7,1-2.1c-3.4-0.4-7.1-1.7-7.1-7.7c0-1.7,0.6-3.1,1.6-4.2
		c-0.2-0.4-0.7-2,0.2-4.1c0,0,1.3-0.4,4.3,1.6c1.2-0.3,2.6-0.5,3.9-0.5c1.3,0,2.6,0.2,3.9,0.5c3-2,4.3-1.6,4.3-1.6
		c0.8,2.1,0.3,3.7,0.2,4.1c1,1.1,1.6,2.5,1.6,4.2c0,6-3.6,7.3-7.1,7.7c0.6,0.5,1.1,1.4,1.1,2.9v4.3c0,0.4,0.2,0.9,1,0.7
		c6.2-2.1,10.6-7.9,10.6-14.7C1118.8,17.8,1111.9,10.9,1103.3,10.9z"/>
	
		<linearGradient id="SVGID_00000041254217520887211980000006967166325558532527_" gradientUnits="userSpaceOnUse" x1="1043.3103" y1="25.9912" x2="1075.3983" y2="25.9912">
		<stop  offset="0" style="stop-color:#584895"/>
		<stop  offset="0.1773" style="stop-color:#544D99"/>
		<stop  offset="0.3875" style="stop-color:#475BA6"/>
		<stop  offset="0.6145" style="stop-color:#3273BB"/>
		<stop  offset="0.8517" style="stop-color:#1594D8"/>
		<stop  offset="1" style="stop-color:#00ADEE"/>
	</linearGradient>
	<path style="fill:url(#SVGID_00000041254217520887211980000006967166325558532527_);" d="M1059.4,9.9c-8.9,0-16,7.2-16,16
		s7.2,16,16,16c8.9,0,16-7.2,16-16S1068.2,9.9,1059.4,9.9z M1072.7,26c0,0.9-0.1,1.8-0.3,2.7h-5.2c0.2-1.7,0.2-3.5,0-5.3h5.2
		C1072.6,24.2,1072.7,25.1,1072.7,26z M1071.6,20.6h-4.7c-0.5-2.6-1.4-5-2.6-7.1C1067.6,14.9,1070.2,17.4,1071.6,20.6z M1064.2,20.6
		h-3.5v-7.6C1062.3,15,1063.5,17.6,1064.2,20.6z M1058,13.1v7.6h-3.5C1055.2,17.6,1056.4,15,1058,13.1z M1058,23.3v5.3h-3.9
		c-0.2-1.9-0.2-3.4,0-5.3H1058z M1058,31.3v7.6c-1.6-2-2.8-4.6-3.5-7.6H1058z M1060.7,38.9v-7.6h3.5
		C1063.5,34.3,1062.3,37,1060.7,38.9z M1060.7,28.7v-5.3h3.9c0.2,1.9,0.2,3.4,0,5.3H1060.7z M1054.4,13.6c-1.2,2-2.1,4.4-2.6,7.1
		h-4.7C1048.5,17.4,1051.1,14.9,1054.4,13.6z M1046.3,23.3h5.2c-0.2,1.7-0.2,3.5,0,5.3h-5.2c-0.2-0.9-0.3-1.8-0.3-2.7
		C1046,25.1,1046.1,24.2,1046.3,23.3z M1047.1,31.3h4.7c0.5,2.6,1.4,5,2.6,7.1C1051.1,37.1,1048.5,34.5,1047.1,31.3z M1064.3,38.4
		c1.2-2,2.1-4.4,2.6-7.1h4.7C1070.2,34.5,1067.6,37.1,1064.3,38.4z"/>
</g>
</svg>
