<svg xmlns="http://www.w3.org/2000/svg" viewBox="0 0 44 91.95"><defs><style>.cls-1{fill:#2f2928;}.cls-2{fill:#535454;}.cls-3{fill:#282425;}.cls-4{fill:#473324;}.cls-5,.cls-6{fill:none;stroke:#000;stroke-miterlimit:10;stroke-width:2px;}.cls-6{stroke-linecap:round;}</style></defs><g id="Layer_2" data-name="Layer 2"><g id="Layer_17" data-name="Layer 17"><path class="cls-1" d="M17.71,21.5a5.38,5.38,0,0,1-1.51.77l-4,1.31a5.43,5.43,0,0,1-1.9.27A5.54,5.54,0,0,1,5.16,20c3.48-.13,10.36-.92,14.68-4.79l.14,1A5.52,5.52,0,0,1,17.71,21.5Z"/><path class="cls-2" d="M43,28V82H34.32L37,79v-4.5a.74.74,0,0,0-1.19-.59l-3.07,2.33-7.6-27.68L30,46a1.5,1.5,0,0,0,.79-1.33v-6a1.51,1.51,0,0,0-2.31-1.28L23,40.82,19.5,28Z"/><path class="cls-3" d="M37,74.51V79l-2.68,3-1.58-5.76,3.07-2.33A.74.74,0,0,1,37,74.51Z"/><path class="cls-4" d="M35.63,86.78a3.39,3.39,0,0,1,.12.88,3.3,3.3,0,0,1-6.46.92L27.9,83.86S32.64,85,34.32,82Z"/><path class="cls-3" d="M34.32,82c-1.68,3-6.42,1.85-6.42,1.85l-1.65-5.64c.26,0,4.3.2,6.49-2Z"/><path class="cls-4" d="M25.14,48.57l7.6,27.68c-2.19,2.17-6.23,2-6.49,2h0L18.17,50.73S20.28,52.12,25.14,48.57Z"/><path class="cls-3" d="M30.74,38.71v6A1.5,1.5,0,0,1,30,46l-4.81,2.57L23,40.82l5.42-3.39A1.51,1.51,0,0,1,30.74,38.71Z"/><path class="cls-3" d="M23,40.82l2.13,7.75c-4.86,3.55-7,2.16-7,2.16l-2.08-7.07S21,43.62,23,40.82Z"/><path class="cls-4" d="M19.5,28,23,40.82c-2,2.8-6.92,2.84-6.92,2.84L10.27,23.85a5.43,5.43,0,0,0,1.9-.27l4-1.31a5.38,5.38,0,0,0,1.51-.77Z"/><path class="cls-1" d="M18.55,6.33l1.29,8.88C15.52,19.08,8.64,19.87,5.16,20a2.41,2.41,0,0,1-.08-.25L3,12C6.29,11.82,13.1,10.89,18.55,6.33Z"/><path class="cls-1" d="M18.47,5.76l.08.57C13.1,10.89,6.29,11.82,3,12H3l-.54-2A5.55,5.55,0,0,1,5.83,3.32l5.17-2A5.56,5.56,0,0,1,18.47,5.76Z"/><polyline class="cls-5" points="19 28.01 19.5 28.01 43 28.01 43 82.01 34.32 82.01 34 82.01"/><path class="cls-5" d="M3,12l2.09,7.76a2.41,2.41,0,0,0,.08.25,5.54,5.54,0,0,0,5.11,3.85,5.43,5.43,0,0,0,1.9-.27l4-1.31a5.38,5.38,0,0,0,1.51-.77A5.52,5.52,0,0,0,20,16.19l-.14-1L18.55,6.33l-.08-.57A5.56,5.56,0,0,0,11,1.36l-5.17,2A5.55,5.55,0,0,0,2.44,10L3,12"/><path class="cls-5" d="M26.25,78.22l1.65,5.64,1.39,4.72a3.3,3.3,0,0,0,6.46-.92,3.39,3.39,0,0,0-.12-.88L34.32,82l-1.58-5.76-7.6-27.68L23,40.82,19.5,28,17.71,21.5l-.08-.29"/><polyline class="cls-5" points="10.27 23.85 16.09 43.66 18.17 50.73 26.24 78.22"/><path class="cls-5" d="M16.09,43.66s4.94,0,6.92-2.84l5.42-3.39a1.51,1.51,0,0,1,2.31,1.28v6A1.5,1.5,0,0,1,30,46l-4.81,2.57c-4.86,3.55-7,2.16-7,2.16"/><path class="cls-5" d="M26.24,78.22h0c.26,0,4.3.2,6.49-2l3.07-2.33a.74.74,0,0,1,1.19.59V79l-2.68,3c-1.68,3-6.42,1.85-6.42,1.85"/><path class="cls-6" d="M1,12s.74,0,2,0H3c3.3-.17,10.11-1.1,15.56-5.66A16.16,16.16,0,0,0,20,5"/><path class="cls-6" d="M3,20s.83,0,2.16,0c3.48-.13,10.36-.92,14.68-4.79A13.15,13.15,0,0,0,21,14"/></g></g></svg>