<svg xmlns="http://www.w3.org/2000/svg" viewBox="0 0 78.17 190.62"><defs><style>.cls-1{fill:#282425;}.cls-2{fill:#2f2928;}.cls-3{fill:#473324;}.cls-4{fill:#535454;}.cls-5,.cls-6{fill:none;}.cls-5,.cls-6,.cls-7{stroke:#000;stroke-miterlimit:10;stroke-width:2px;}.cls-6{stroke-linecap:round;}.cls-7{fill:#a63116;}.cls-8{fill:#dcbb37;}</style></defs><g id="Layer_2" data-name="Layer 2"><g id="Layer_17" data-name="Layer 17"><path class="cls-1" d="M14.57,171.59l-1.69,6.47h0L6,175.5V168Z"/><path class="cls-1" d="M21.07,175.5l-1.89,6.76c-4.62-1.68-6.17-4-6.3-4.2l1.69-6.47A10.9,10.9,0,0,0,21.07,175.5Z"/><path class="cls-2" d="M45.91,84.66a5.67,5.67,0,0,1,3.61,7.12l-1,3.07a32,32,0,0,1-14.87-6.4l.67-1.83a5.68,5.68,0,0,1,7.13-3.44Z"/><path class="cls-2" d="M48.54,94.85l-2.82,8.8a1.18,1.18,0,0,1-.07.2c-3.5-.39-10.24-1.75-15.25-6.4l3.27-9A32,32,0,0,0,48.54,94.85Z"/><path class="cls-2" d="M30.4,97.45c5,4.65,11.75,6,15.25,6.4A5.67,5.67,0,0,1,40,107.59a5.22,5.22,0,0,1-1.4-.25l-4.94-1.55A5.56,5.56,0,0,1,32,105a5.67,5.67,0,0,1-2-6.53Z"/><path class="cls-3" d="M40,107.59l0,.43-7.3,26c-5.43.2-7.14-2-7.58-2.75L32,105l0-.06a5.56,5.56,0,0,0,1.65.83l4.94,1.55A5.22,5.22,0,0,0,40,107.59Z"/><path class="cls-1" d="M32.7,134l-1.53,5.45c-5.6,1.41-7.56-1.62-7.71-1.86h0l1.66-6.33C25.56,132,27.27,134.23,32.7,134Z"/><path class="cls-3" d="M31.17,139.48l-10.1,36a10.9,10.9,0,0,1-6.5-3.91l8.89-34C23.61,137.86,25.57,140.89,31.17,139.48Z"/><path class="cls-1" d="M25.12,131.28l-1.66,6.33L10,132v-6l12,4,3,1A1.44,1.44,0,0,0,25.12,131.28Z"/><path class="cls-4" d="M23.46,137.61h0l-8.89,34L6,168v7.48l6.87,2.55h0L12.37,180l-.62-.16H1V113H22v17l-12-4v6Z"/><path class="cls-3" d="M19.18,182.26,17.84,187a3.54,3.54,0,0,1-3.41,2.59,4.38,4.38,0,0,1-.5,0,3.53,3.53,0,0,1-2.92-4.4l1.36-5.2.51-1.92C13,178.26,14.56,180.58,19.18,182.26Z"/><polyline class="cls-5" points="22 130.03 22 113.03 1 113.03 1 179.82 11.75 179.82"/><path class="cls-5" d="M23.46,137.62l-8.89,34-1.69,6.47L12.37,180,11,185.18a3.53,3.53,0,0,0,2.92,4.4,4.38,4.38,0,0,0,.5,0A3.54,3.54,0,0,0,17.84,187l1.34-4.77,1.89-6.76,10.1-36L32.7,134,40,108"/><polyline class="cls-5" points="32 105.03 25.12 131.28 23.46 137.62"/><path class="cls-5" d="M32,105a5.56,5.56,0,0,0,1.65.83l4.94,1.55a5.22,5.22,0,0,0,1.4.25,5.67,5.67,0,0,0,5.63-3.74,1.18,1.18,0,0,0,.07-.2l2.82-8.8,1-3.07a5.67,5.67,0,0,0-3.61-7.12l-4.44-1.48a5.68,5.68,0,0,0-7.13,3.44l-.67,1.83-3.27,9-.36,1A5.67,5.67,0,0,0,32,105Z"/><path class="cls-6" d="M32,87a19.82,19.82,0,0,0,1.67,1.43,32,32,0,0,0,14.87,6.4c.48.07,1,.12,1.46.17"/><path class="cls-6" d="M48,104a22.37,22.37,0,0,1-2.35-.17c-3.5-.39-10.24-1.75-15.25-6.4A17.23,17.23,0,0,1,29,96"/><path class="cls-5" d="M33,134h-.3c-5.43.2-7.14-2-7.58-2.75A1.44,1.44,0,0,1,25,131l-3-1-12-4v6l13.46,5.59h0c.15.24,2.11,3.27,7.71,1.86"/><path class="cls-5" d="M21.07,175.5a10.9,10.9,0,0,1-6.5-3.91L6,168v7.48l6.87,2.55h0c.13.2,1.68,2.52,6.3,4.2"/><path class="cls-7" d="M49.79,2S34,8.89,32,30,26,51,26,51s-2-14-7-19a29.7,29.7,0,0,1-2,20c-5,10-6.22,34,10.39,39S63,95,70,89,80.13,62.18,73.57,48.1,66,15,66,15,61,34.11,50,29.57,49.79,2,49.79,2Z"/><path class="cls-8" d="M45,38s-3,3-9,17c-3.9,9.1-11,6-14,3,0,0-5.77,29.08,20.12,27,0,0,26.88,4,24.88-14s-5-16-4-30c0,0-8.17,10.48-13,7.59C44,45,45,38,45,38Z"/></g></g></svg>