<svg xmlns="http://www.w3.org/2000/svg" viewBox="0 0 65 160.18"><defs><style>.cls-1{fill:#2f2928;}.cls-2{fill:#473324;}.cls-3{fill:#535454;}.cls-4{fill:#282425;}.cls-5,.cls-6{fill:none;}.cls-5,.cls-6,.cls-7{stroke:#000;stroke-miterlimit:10;stroke-width:2px;}.cls-6{stroke-linecap:round;}.cls-7{fill:#a63116;}.cls-8{fill:#dcbb37;}</style></defs><g id="Layer_2" data-name="Layer 2"><g id="Layer_17" data-name="Layer 17"><path class="cls-1" d="M38.71,89.73a5.38,5.38,0,0,1-1.51.77l-4,1.31a5.43,5.43,0,0,1-1.9.27,5.54,5.54,0,0,1-5.11-3.85c3.48-.13,10.36-.92,14.68-4.79l.14,1A5.52,5.52,0,0,1,38.71,89.73Z"/><path class="cls-1" d="M39.47,74l.08.57C34.1,79.12,27.29,80.05,24,80.22h0l-.54-2a5.55,5.55,0,0,1,3.39-6.65l5.17-2A5.56,5.56,0,0,1,39.47,74Z"/><path class="cls-1" d="M39.55,74.56l1.29,8.88c-4.32,3.87-11.2,4.66-14.68,4.79a2.41,2.41,0,0,1-.08-.25L24,80.22C27.29,80.05,34.1,79.12,39.55,74.56Z"/><path class="cls-2" d="M56.63,155a3.39,3.39,0,0,1,.12.88,3.3,3.3,0,0,1-6.46.92l-1.39-4.72s4.74,1.15,6.42-1.85Z"/><path class="cls-2" d="M40.5,96.24,44,109.05c-2,2.8-6.92,2.84-6.92,2.84L31.27,92.08a5.43,5.43,0,0,0,1.9-.27l4-1.31a5.38,5.38,0,0,0,1.51-.77Z"/><path class="cls-2" d="M46.14,116.8l7.6,27.68c-2.19,2.17-6.23,2-6.49,2h0L39.17,119S41.28,120.35,46.14,116.8Z"/><path class="cls-3" d="M64,96.24v54H55.32l2.68-3v-4.5a.74.74,0,0,0-1.19-.59l-3.07,2.33-7.6-27.68L51,114.23a1.5,1.5,0,0,0,.79-1.33v-6a1.51,1.51,0,0,0-2.31-1.28L44,109.05,40.5,96.24Z"/><path class="cls-4" d="M55.32,150.24c-1.68,3-6.42,1.85-6.42,1.85l-1.65-5.64c.26,0,4.3.2,6.49-2Z"/><path class="cls-4" d="M58,142.74v4.5l-2.68,3-1.58-5.76,3.07-2.33A.74.74,0,0,1,58,142.74Z"/><path class="cls-4" d="M44,109.05l2.13,7.75c-4.86,3.55-7,2.16-7,2.16l-2.08-7.07S42,111.85,44,109.05Z"/><path class="cls-4" d="M51.74,106.94v6a1.5,1.5,0,0,1-.79,1.33l-4.81,2.57L44,109.05l5.42-3.39A1.51,1.51,0,0,1,51.74,106.94Z"/><polyline class="cls-5" points="40.01 96.24 40.51 96.24 64 96.24 64 150.24 55.33 150.24 55.01 150.24"/><path class="cls-5" d="M24,80.22,26.08,88a2.41,2.41,0,0,0,.08.25,5.54,5.54,0,0,0,5.11,3.85,5.43,5.43,0,0,0,1.9-.27l4-1.31a5.38,5.38,0,0,0,1.51-.77A5.52,5.52,0,0,0,41,84.42l-.14-1-1.29-8.88L39.47,74A5.56,5.56,0,0,0,32,69.59l-5.17,2a5.55,5.55,0,0,0-3.39,6.65l.54,2"/><path class="cls-5" d="M47.25,146.45l1.65,5.64,1.39,4.72a3.3,3.3,0,0,0,6.46-.92,3.39,3.39,0,0,0-.12-.88l-1.31-4.77-1.58-5.76-7.6-27.68L44,109.05,40.5,96.24l-1.79-6.51-.08-.29"/><polyline class="cls-5" points="31.27 92.08 37.09 111.89 39.17 118.96 47.24 146.45"/><path class="cls-5" d="M37.09,111.89s4.94,0,6.92-2.84l5.42-3.39a1.51,1.51,0,0,1,2.31,1.28v6a1.5,1.5,0,0,1-.79,1.33l-4.81,2.57c-4.86,3.55-7,2.16-7,2.16"/><path class="cls-5" d="M47.24,146.45h0c.26,0,4.3.2,6.49-2l3.07-2.33a.74.74,0,0,1,1.19.59v4.5l-2.68,3c-1.68,3-6.42,1.85-6.42,1.85"/><path class="cls-6" d="M22,80.24s.74,0,2,0h0c3.3-.17,10.11-1.1,15.56-5.66A16.16,16.16,0,0,0,41,73.24"/><path class="cls-6" d="M24,88.24s.83,0,2.16,0c3.48-.13,10.36-.92,14.68-4.79A13.15,13.15,0,0,0,42,82.24"/><path class="cls-7" d="M25,3.24s7,17,1,24c0,0-9.39,2-13.69-12,0,0,1.69,6-2.31,16s-13,16-7,34,33.84,19.92,41.42,13S58,55.63,52,44.94c0,0-2-10.65,0-19.18,0,0-10,10.31-10,18.4A45.91,45.91,0,0,0,25,3.24Z"/><path class="cls-8" d="M16,34.24s2.49,4.74,7.25,2.87S30,32.2,31.5,27.72c0,0,4.5,14.44,1.5,23.48,0,0,10,3,13-2,0,0-.72,24-13.86,24S11,69.24,11,56.24,15,47.24,16,34.24Z"/></g></g></svg>