<svg xmlns="http://www.w3.org/2000/svg" viewBox="0 0 51 108.73"><defs><style>.cls-1{fill:#282425;}.cls-2{fill:#2f2928;}.cls-3{fill:#473324;}.cls-4{fill:#535454;}.cls-5,.cls-6{fill:none;stroke:#000;stroke-miterlimit:10;stroke-width:2px;}.cls-6{stroke-linecap:round;}</style></defs><g id="Layer_2" data-name="Layer 2"><g id="Layer_17" data-name="Layer 17"><path class="cls-1" d="M25.12,49.39l-1.66,6.33L10,50.13v-6l12,4,3,1A1.44,1.44,0,0,0,25.12,49.39Z"/><path class="cls-1" d="M32.7,52.14l-1.53,5.45C25.57,59,23.61,56,23.46,55.73h0l1.66-6.33C25.56,50.15,27.27,52.34,32.7,52.14Z"/><path class="cls-1" d="M21.07,93.61l-1.89,6.76c-4.62-1.68-6.17-4-6.3-4.2l1.69-6.47A10.9,10.9,0,0,0,21.07,93.61Z"/><path class="cls-1" d="M14.57,89.7l-1.69,6.47h0L6,93.61V86.13Z"/><path class="cls-2" d="M30.4,15.56c5,4.65,11.75,6,15.25,6.4A5.67,5.67,0,0,1,40,25.7a5.22,5.22,0,0,1-1.4-.25L33.68,23.9A5.56,5.56,0,0,1,32,23.07a5.67,5.67,0,0,1-2-6.53Z"/><path class="cls-2" d="M45.91,2.77a5.67,5.67,0,0,1,3.61,7.12l-1,3.07a32,32,0,0,1-14.87-6.4l.67-1.83a5.68,5.68,0,0,1,7.13-3.44Z"/><path class="cls-2" d="M48.54,13l-2.82,8.8a1.18,1.18,0,0,1-.07.2c-3.5-.39-10.24-1.75-15.25-6.4l3.27-9A32,32,0,0,0,48.54,13Z"/><path class="cls-3" d="M40,25.7l0,.43-7.3,26c-5.43.2-7.14-2-7.58-2.75L32,23.13l0-.06a5.56,5.56,0,0,0,1.65.83l4.94,1.55A5.22,5.22,0,0,0,40,25.7Z"/><path class="cls-3" d="M31.17,57.59l-10.1,36a10.9,10.9,0,0,1-6.5-3.91l8.89-34C23.61,56,25.57,59,31.17,57.59Z"/><path class="cls-3" d="M19.18,100.37l-1.34,4.77a3.54,3.54,0,0,1-3.41,2.59,4.38,4.38,0,0,1-.5,0,3.53,3.53,0,0,1-2.92-4.4l1.36-5.2.51-1.92C13,96.37,14.56,98.69,19.18,100.37Z"/><path class="cls-4" d="M23.46,55.72h0l-8.89,34L6,86.13v7.48l6.87,2.55h0l-.51,1.92-.62-.16H1V31.13H22v17l-12-4v6Z"/><polyline class="cls-5" points="22 48.13 22 31.13 1 31.13 1 97.93 11.75 97.93"/><path class="cls-5" d="M23.46,55.73l-8.89,34-1.69,6.47-.51,1.92L11,103.29a3.53,3.53,0,0,0,2.92,4.4,4.38,4.38,0,0,0,.5,0,3.54,3.54,0,0,0,3.41-2.59l1.34-4.77,1.89-6.76,10.1-36,1.53-5.45,7.3-26"/><polyline class="cls-5" points="32 23.13 25.12 49.39 23.46 55.72"/><path class="cls-5" d="M32,23.07a5.56,5.56,0,0,0,1.65.83l4.94,1.55a5.22,5.22,0,0,0,1.4.25A5.67,5.67,0,0,0,45.65,22a1.18,1.18,0,0,0,.07-.2L48.54,13l1-3.07a5.67,5.67,0,0,0-3.61-7.12L41.47,1.29a5.68,5.68,0,0,0-7.13,3.44l-.67,1.83-3.27,9-.36,1A5.67,5.67,0,0,0,32,23.07Z"/><path class="cls-6" d="M32,5.13a19.82,19.82,0,0,0,1.67,1.43A32,32,0,0,0,48.54,13c.48.07,1,.12,1.46.17"/><path class="cls-6" d="M48,22.13A22.37,22.37,0,0,1,45.65,22c-3.5-.39-10.24-1.75-15.25-6.4A17.23,17.23,0,0,1,29,14.13"/><path class="cls-5" d="M33,52.13h-.3c-5.43.2-7.14-2-7.58-2.75a1.44,1.44,0,0,1-.12-.26l-3-1-12-4v6l13.46,5.59h0c.15.24,2.11,3.27,7.71,1.86"/><path class="cls-5" d="M21.07,93.61a10.9,10.9,0,0,1-6.5-3.91L6,86.13v7.48l6.87,2.55h0c.13.2,1.68,2.52,6.3,4.2"/></g></g></svg>