<svg xmlns="http://www.w3.org/2000/svg" viewBox="0 0 1368 773.03"><defs><style>.cls-1{fill:#8f7e6c;}.cls-2{fill:#514537;}.cls-3{fill:#775438;}.cls-4{fill:#7c6651;}.cls-5{fill:#66594e;}.cls-6{fill:#dcfffc;}.cls-7{fill:#3b3331;}.cls-8{fill:#6d6d6d;}.cls-9{fill:#7e7661;}.cls-10{fill:#595345;}.cls-11,.cls-43{fill:#af6151;}.cls-12,.cls-34{fill:#99918a;}.cls-13,.cls-41{fill:#825040;}.cls-14{fill:#beb4aa;}.cls-15{fill:#2d2620;}.cls-16{fill:#dd6464;}.cls-17{fill:#6e3b2a;}.cls-18{fill:#42382e;}.cls-19{fill:#feffc5;}.cls-20{fill:#2f353a;}.cls-21{fill:#6b6354;}.cls-22,.cls-32{fill:#1f252b;}.cls-23,.cls-37{fill:#161a1e;}.cls-24{fill:#434b56;}.cls-25{fill:#2d363d;}.cls-26{fill:#383f47;}.cls-27{fill:#292e33;}.cls-28{fill:#604e40;}.cls-29{fill:#726457;}.cls-30,.cls-31{fill:none;}.cls-30,.cls-31,.cls-32,.cls-33,.cls-34,.cls-37,.cls-39,.cls-40,.cls-41,.cls-43{stroke:#000;stroke-miterlimit:10;}.cls-30,.cls-32,.cls-33,.cls-34,.cls-37,.cls-39,.cls-40,.cls-41,.cls-43{stroke-width:2px;}.cls-33{fill:#272e35;}.cls-35{fill:#664330;}.cls-36{fill:#5b3727;}.cls-38,.cls-40{fill:#826e5b;}.cls-39{fill:#2d2726;}.cls-42{fill:#a39488;}</style></defs><g id="Layer_2" data-name="Layer 2"><g id="Layer_9" data-name="Layer 9"><path class="cls-1" d="M1168.82,410.77l-81.4-17.39L1060,388l-4.75,288.46L780,572V225.43l446.59,55.07,60.91-1,.47,8.57,79,9.74V772h-60l-112.43-42.67L1198,417Zm-209.11-2.52-.07-89.75-48-6.47L879,307.62v-.36l87.55,11.24V289L845.83,275.44v27.39a.19.19,0,0,0,.19.19l25.32,3.25-7.93-.75L859.2,305a.29.29,0,0,0-.28.29V465.6a.17.17,0,0,0,.13.16l.62.15L959.78,490V478.85Z"/><polygon class="cls-2" points="1367 252 1367 297.81 1287.97 288.07 1287.5 279.5 1226.59 280.5 780 225.43 780 202 780 195.39 909.35 207.87 936.5 225.5 959.78 212.73 1047.45 221.18 1094.12 225.68 1094.38 225.71 1106.04 226.92 1128.89 229.23 1129.09 229.06 1367 252"/><polygon class="cls-1" points="1367 26.74 1367 252 1129.09 229.06 1367 26.74"/><polygon class="cls-2" points="1367 4 1367 26.74 1129.09 229.06 1106.04 226.83 1106.04 204.74 1343.74 4 1367 4"/><polygon class="cls-1" points="1343.74 4 1106.04 204.74 1106.04 4 1343.74 4"/><path class="cls-3" d="M1307,772H785s-85-91-182-144l27-15.29a62.13,62.13,0,0,1,15.76-6.24l29.45-7.2A61.66,61.66,0,0,1,690,597.5H703a61.89,61.89,0,0,0,32.35-9.13l7.44-4.56a62.17,62.17,0,0,1,18.59-7.57L780,572l275.25,104.46L1082,669l16.55,5.61,20,6.78h0l6,2,9.92-.93,4.38,5.77,4.37,1.48,18.29,6.2,17.64,6,15.62,5.29L1198,417l-3.43,312.33Z"/><polygon class="cls-4" points="1198 417 1194.8 707.22 1179.18 701.93 1179.21 701.84 1186.04 415.13 1186.17 414.51 1198 417"/><polygon class="cls-4" points="1186.17 414.51 1186.04 415.13 1179.21 701.84 1179.18 701.93 1161.54 695.95 1161.6 695.77 1168.82 410.87 1186.17 414.51"/><polygon class="cls-4" points="1168.82 410.87 1161.6 695.77 1161.54 695.95 1143.25 689.75 1143.35 689.47 1148.89 406.73 1148.9 406.68 1168.82 410.87"/><polygon class="cls-4" points="1148.9 406.68 1148.89 406.73 1143.35 689.47 1143.25 689.75 1138.88 688.27 1134.5 682.5 1124.58 683.43 1118.58 681.4 1118.58 681.39 1118.72 680.98 1118.72 400.34 1148.9 406.68"/><polygon class="cls-4" points="1118.72 400.34 1118.72 680.98 1118.58 681.39 1098.55 674.61 1098.73 674.08 1098.73 396.37 1098.78 396.15 1118.72 400.34"/><polygon class="cls-2" points="1106.04 204.74 1106.04 226.83 1094.38 225.71 1094.12 225.68 1073.32 223.53 1073.32 203.61 1073.32 4 1106.04 4 1106.04 204.74"/><polygon class="cls-4" points="1098.78 396.15 1098.73 396.37 1098.73 674.08 1098.55 674.61 1082 669 1087.41 393.76 1098.78 396.15"/><polygon class="cls-2" points="1094.12 225.68 1047.45 221.18 851 4 886.3 4 1073.32 203.61 1073.32 223.53 1094.12 225.68"/><polygon class="cls-5" points="1087.41 393.76 1082 669 1055.25 676.46 1060 388 1087.41 393.76"/><polygon class="cls-1" points="1073.32 4 1073.32 203.61 886.3 4 1073.32 4"/><path class="cls-1" d="M851,4l196.45,217.18-87.67-8.45L936.5,225.5l-27.15-17.63L780,195.39V123.23a.82.82,0,0,1,.12-.43L850.25,5.25Z"/><path class="cls-2" d="M966.55,289v29.5L879,307.26V307l-7.66-.73L846,303a.19.19,0,0,1-.19-.19V275.44Z"/><path class="cls-5" d="M959.77,484.31V490L859.67,465.91a.16.16,0,0,1,0-.32l9.31-2.21,42.68,9.84Z"/><polygon class="cls-6" points="959.71 408.25 959.77 478.85 911.67 468.22 911.67 398.45 959.71 408.25"/><polygon class="cls-5" points="959.77 478.85 959.77 484.31 911.67 473.22 911.67 468.22 959.77 478.85"/><polygon class="cls-6" points="959.64 318.5 959.71 408.25 911.67 398.45 911.67 312.04 959.64 318.5"/><polygon class="cls-5" points="911.67 468.22 911.67 473.22 868.99 463.38 879 461 911.67 468.22"/><polygon class="cls-6" points="911.67 398.45 911.67 468.22 879 461 879 391.79 911.67 398.45"/><polygon class="cls-6" points="911.67 312.04 911.67 398.45 879 391.79 879 307.63 911.67 312.03 911.67 312.04"/><polygon class="cls-5" points="879 391.79 879 461 868.96 463.37 868.96 389.74 879 391.79"/><polygon class="cls-5" points="879 307.63 879 391.79 868.96 389.74 868.96 306.28 879 307.63"/><path class="cls-5" d="M879,307.62h0l-10-1.35V463.37l-9.84,2.32a.16.16,0,0,1-.2-.16V305.4a.29.29,0,0,1,.41-.27l4.08.39Z"/><path class="cls-7" d="M849.54,4a.83.83,0,0,1,.71,1.25L780.12,122.8l-.12.2v63.84a.83.83,0,0,1-1,.83c-8.58-1.31-72.22.06-82.62.3a.83.83,0,0,1-.74-1.23L795.29,4.43A.83.83,0,0,1,796,4Z"/><path class="cls-8" d="M785,772H545.48S517.72,634.39,436,598c-72.71-32.38-163-44-163-44V519.78c142.1,20.51,223.1,51.32,313,99.06v.33L603,628C700,681,785,772,785,772Z"/><path class="cls-2" d="M780,123l.12-.2a.82.82,0,0,0-.12.43Z"/><path class="cls-9" d="M780,567v5l-18.58,4.24a62.17,62.17,0,0,0-18.59,7.57l-7.44,4.56A61.89,61.89,0,0,1,703,597.5H690a61.66,61.66,0,0,0-14.7,1.77l-29.45,7.2a62.13,62.13,0,0,0-15.76,6.24L603,628l-.5-39.5,11-5,1.94-6,.06,0Z"/><path class="cls-10" d="M780,556.17V567L615.52,577.22l-.08.24-6.94-5L586.05,569v0h0l131-8.66,42.12-2.79Z"/><polygon class="cls-11" points="780 202 780 225.43 780 337 706 202 780 202"/><polygon class="cls-12" points="780 357 780 556.17 759.14 557.55 759 320 765.9 331.93 780 357"/><polygon class="cls-13" points="780 337 780 356.3 765.9 331.93 701.63 217.64 672.26 217.64 630.74 279.2 625.12 287.53 585 347 585 359 577 359 556 359 560.9 352 561 352 578.42 327 666 202 706 202 780 337"/><polygon class="cls-10" points="780 567 615.5 577.5 615.44 577.46 615.52 577.22 780 567"/><path class="cls-14" d="M707.09,428.69l-10.37-.2-8.41-.16L671,428l-1,106-7.92,2a.1.1,0,0,0-.08.1v0l-.22,3.8-2.71.92-4,1.13a.14.14,0,0,0-.1.13V548l-70-15.7V347l40.12-59.47L664,315v43.37a.07.07,0,0,0,.06.07h.24l16.3.32h-6.45v10.93L595,367.47v3.76h1.74l6.27.19v.31h-6.26v28.49h0l8.29.25,0,.5-7.6-.18h0L622,423h5.75a.1.1,0,0,0,.08-.17.1.1,0,0,0,.17-.07l0-21.58L718.78,404h0l-7.41-.17L736,426h5.75a.28.28,0,0,1,.25-.24V401l-.08-.53L745,400V367l-24,4-43.9-1.23H685V358.85l8,.15v-2.57h0l-.13-19.73L692.7,315l44.43-33.8.09-.05L759,320l.14,237.55-28.64,1.5.21-13.95.29-.1v-4l-.22,0,1.72-111.79-8.84-.17-6.66-.12Z"/><path class="cls-14" d="M759.14,557.55,717,560.34l0-.34v-6l6.58-1.88a.1.1,0,0,0,0-.2l.31.06a.11.11,0,0,0,.12-.11v-4.3l6.71-2.47-.21,13.95Z"/><path class="cls-15" d="M745,396v4l-3.08.47L719.25,404a.22.22,0,0,1-.25-.21V400Z"/><polygon class="cls-15" points="745 371 745 396 740.01 395.88 740.28 371.93 745 371"/><path class="cls-15" d="M745,367v4l-14,2.34V373l-4,.93V374l-5.8,1a.19.19,0,0,1-.2-.15V371Z"/><polygon class="cls-14" points="745 371 740.28 371.93 740.01 395.88 731 395.66 731 373.34 745 371"/><polygon class="cls-15" points="745 396 719 400 719 399.67 719 395.37 726.71 395.56 726.67 398.76 731 398 731 395.66 740.01 395.88 740 396.76 745 396"/><polygon class="cls-16" points="745 396 740 396.76 740.01 395.88 745 396"/><path class="cls-15" d="M742,401v24.76a.1.1,0,0,1-.17.08v0l-5-4.8h0l.21-19Z"/><path class="cls-14" d="M741.92,400.47l.08.53-5,1-.21,19-17.73-16.95a.2.2,0,0,0-.14-.06h-.12a.21.21,0,0,0,.2-.21v0a.22.22,0,0,0,.25.21Z"/><path class="cls-2" d="M741.83,425.84a.1.1,0,0,1-.08.16H736l-24.61-22.17,7.41.17h.12a.2.2,0,0,1,.14.06L736.79,421h0Z"/><path class="cls-14" d="M701.63,217.64l35.59,63.51-.09.05-4.85-8.43L678.07,315l-47.33-35.8,41.52-61.56ZM692,256a11.89,11.89,0,0,0-9.29-11.78,11.42,11.42,0,0,0-2.21-.22,10.82,10.82,0,0,0-3.7.64l-.26.09c-3.22,1.08-7.27,3.8-7.53,10.59,0,.22,0,.45,0,.68s0,.47,0,.71a11,11,0,0,0,2.27,6.48s0,0,0,.05a11.23,11.23,0,0,0,11.39,4.54A11.89,11.89,0,0,0,692,256Z"/><polygon class="cls-17" points="732.28 272.77 737.13 281.2 692.7 315 680.74 315 678.07 315 732.28 272.77"/><polygon class="cls-4" points="732.5 429.17 730.78 540.96 723.66 539.68 723.66 429 732.5 429.17"/><polygon class="cls-15" points="731 395.66 731 398 726.67 398.76 726.71 395.56 731 395.66"/><polygon class="cls-15" points="731 373.34 731 395.66 726.71 395.56 727 374 731 373.34"/><polygon class="cls-16" points="731 373 731 373.34 727 374 727 373.93 731 373"/><path class="cls-14" d="M723.66,539.68l7.12,1.28-.07,4.14L724,547.57l-61.51-11.48a.11.11,0,0,1,0-.2L681,532l7.29,1.31,8.43,1.52,10.37,1.87,9.91,1.78Z"/><path class="cls-14" d="M727,374l-.29,21.56-7.71-.19V374.93l1.82.06a.17.17,0,0,0,.18-.17.19.19,0,0,0,.2.15Z"/><path class="cls-12" d="M724,547.57v4.3a.11.11,0,0,1-.12.11l-.31-.06L662,540V536.1a.1.1,0,0,1,.12-.08l.37.07h0Z"/><polygon class="cls-4" points="723.66 429 723.66 539.68 717 538.48 717 428.88 723.66 429"/><path class="cls-14" d="M723.57,551.92a.1.1,0,0,1,0,.2L717,554l-61.31-11.75a.13.13,0,0,1,0-.26l3.39-1.15L662,540v0Z"/><path class="cls-2" d="M721,374.8v0a.17.17,0,0,1-.18.17l-1.82-.06v-.19h-6.26l-8.73-.27L687,374v-.23h-6.26v0L670,373.45l-17-.51v-.2h-6.26l-9.73-.29-17-.52v-.2h-6.26L603,371.43l-6.27-.19H595v-3.76l79.15,2.22v.08h3L721,371Z"/><path class="cls-2" d="M719,403.75v0a.21.21,0,0,1-.2.21h0L628,401.2V401h-5v0l-18-.56-8.29-.25h0v-3.76l6.26.2v0l17,.49,10.75.31v0l6.26.2v0l16,.46,10.75.31v.07l6.26.2v-.08l17,.49,10.75.31v.08l6.26.2v-.1l15,.43Z"/><polygon class="cls-15" points="719 399.67 719 400 704 399.57 704 395.01 712.74 395.22 712.74 399.47 719 399.67"/><polygon class="cls-18" points="719 395.37 719 399.67 712.74 399.47 712.74 395.22 719 395.37"/><polygon class="cls-18" points="719 374.93 719 395.37 712.74 395.22 712.74 374.75 719 374.93"/><polygon class="cls-16" points="719 374.74 719 374.93 712.74 374.75 712.74 374.74 719 374.74"/><path class="cls-3" d="M717,560l0,.34-131,8.66h0s0,0,0,0v49.81c-89.9-47.74-170.9-78.55-313-99.06v-6.24l14,1.05,91.51,6.91h.41v.13a.49.49,0,0,0,.62.47l19.75-5.1,67.11,13.87a.5.5,0,0,0,.61-.49v.07a.5.5,0,0,0,.55.49L585,519v13.3L655,548Z"/><path class="cls-12" d="M717,554v6l-62-12,.18-5.69a.13.13,0,0,1,.16-.12Z"/><polygon class="cls-4" points="717 428.88 717 538.48 707.09 536.7 707.09 428.69 717 428.88"/><polygon class="cls-14" points="712.74 374.75 712.74 395.22 704 395.01 704 374.74 704.01 374.48 712.74 374.75"/><polygon class="cls-4" points="707.09 428.69 707.09 536.7 696.72 534.83 696.72 428.49 707.09 428.69"/><polygon class="cls-14" points="704.01 374.48 704 374.74 697.74 374.74 697.74 394.86 687 394.6 687 373.97 704.01 374.48"/><polygon class="cls-16" points="704 399.57 704 399.67 697.74 399.47 697.74 399.39 704 399.57"/><polygon class="cls-18" points="704 395.01 704 399.57 697.74 399.39 697.74 394.86 704 395.01"/><polygon class="cls-18" points="704 374.74 704 395.01 697.74 394.86 697.74 374.74 704 374.74"/><polygon class="cls-15" points="697.74 394.86 697.74 399.39 686.99 399.08 687 398.67 687 394.6 697.74 394.86"/><polygon class="cls-4" points="696.72 428.49 696.72 534.83 688.29 533.31 688.31 533.18 688.31 428.33 696.72 428.49"/><path class="cls-12" d="M693,356.43l0,2.57-8-.16v-.08H680.6l-16.3-.32a.06.06,0,0,1,0-.12L670,356l10.74.2Z"/><polygon class="cls-6" points="692.85 336.7 692.98 356.43 680.74 356.2 680.74 336.86 692.85 336.7"/><polygon class="cls-6" points="692.7 315 692.85 336.7 680.74 336.86 680.74 315 692.7 315"/><path class="cls-19" d="M692,256h-9.29V244.22A11.89,11.89,0,0,1,692,256Z"/><path class="cls-19" d="M682.71,256H692a11.89,11.89,0,0,1-9.29,11.78Z"/><polygon class="cls-4" points="688.31 428.33 688.31 533.18 688.29 533.31 681 532 682.02 428.58 671 428 688.31 428.33"/><polygon class="cls-18" points="687 394.6 687 398.67 680.74 398.47 680.74 394.45 687 394.6"/><polygon class="cls-18" points="687 373.97 687 394.6 680.74 394.45 680.74 373.78 687 373.97"/><polygon class="cls-16" points="687 373.74 687 373.97 680.74 373.78 680.74 373.74 687 373.74"/><polygon class="cls-15" points="687 398.67 686.99 399.08 670 398.59 670 394.19 680.74 394.45 680.74 398.47 687 398.67"/><polygon class="cls-17" points="685.02 358.85 685.02 369.77 677.1 369.77 674.15 369.69 674.15 358.76 680.6 358.76 680.7 358.76 685.02 358.85"/><path class="cls-19" d="M682.71,256v11.78a11.23,11.23,0,0,1-11.39-4.54,13.81,13.81,0,0,0,8,4.58.28.28,0,0,0,.23-.5c-5-3.94-6.57-7.86-6.42-11.32Z"/><path class="cls-19" d="M682.71,244.22V256h-9.53c.24-5.55,4.84-9.94,6.62-11.44a.28.28,0,0,0-.21-.5,14.61,14.61,0,0,0-2.79.58,10.82,10.82,0,0,1,3.7-.64A11.42,11.42,0,0,1,682.71,244.22Z"/><polygon class="cls-12" points="682.02 428.58 681 532 670 534 671 428 682.02 428.58"/><polygon class="cls-14" points="680.74 373.78 680.74 394.45 670 394.19 670 373.74 670.01 373.45 680.74 373.78"/><polygon class="cls-6" points="680.74 336.86 680.74 356.2 670 356 670.06 337 670.13 337 680.74 336.86"/><polygon class="cls-6" points="680.74 315 680.74 336.86 670.13 337 670.06 337 670.13 315 678.07 315 680.74 315"/><path class="cls-12" d="M679.59,244.06a.28.28,0,0,1,.21.5c-1.78,1.5-6.38,5.89-6.62,11.44-.15,3.46,1.4,7.38,6.42,11.32a.28.28,0,0,1-.23.5,13.81,13.81,0,0,1-8-4.58s0,0,0-.05a12.25,12.25,0,0,1-2.27-6.48c0-.23,0-.47,0-.71s0-.46,0-.68a12,12,0,0,1,7.53-10.59l.26-.09A14.61,14.61,0,0,1,679.59,244.06Z"/><polygon class="cls-17" points="678.07 315 670.13 315 664 315 625.12 287.53 630.74 279.2 678.07 315"/><polygon class="cls-16" points="677.1 369.77 674.15 369.77 674.15 369.69 677.1 369.77"/><path class="cls-12" d="M670.13,315l-.07,22L670,356l-5.72,2.32-.19.08a.06.06,0,0,1-.09-.06V315Z"/><polygon class="cls-14" points="670.01 373.45 670 373.74 663.74 373.74 663.74 394.03 653 393.77 653 372.94 670.01 373.45"/><polygon class="cls-16" points="670 398.59 670 398.67 663.74 398.47 663.74 398.4 670 398.59"/><polygon class="cls-18" points="670 394.19 670 398.59 663.74 398.4 663.74 394.03 670 394.19"/><polygon class="cls-18" points="670 373.74 670 394.19 663.74 394.03 663.74 373.74 670 373.74"/><polygon class="cls-15" points="663.74 394.03 663.74 398.4 652.99 398.09 653 397.67 653 393.77 663.74 394.03"/><polygon class="cls-18" points="653 393.77 653 397.67 646.74 397.47 646.74 393.62 653 393.77"/><polygon class="cls-18" points="653 372.94 653 393.77 646.74 393.62 646.74 372.75 653 372.94"/><polygon class="cls-16" points="653 372.74 653 372.94 646.74 372.75 646.74 372.74 653 372.74"/><polygon class="cls-15" points="653 397.67 652.99 398.09 637 397.63 637 393.39 646.74 393.62 646.74 397.47 653 397.67"/><polygon class="cls-14" points="646.74 372.75 646.74 393.62 637 393.39 637 372.74 637.01 372.46 646.74 372.75"/><polygon class="cls-14" points="637.01 372.46 637 372.74 630.74 372.74 630.74 393.24 621 393 620 393.14 620 371.94 637.01 372.46"/><polygon class="cls-16" points="637 397.63 637 397.67 630.74 397.47 630.74 397.45 637 397.63"/><polygon class="cls-18" points="637 393.39 637 397.63 630.74 397.45 630.74 393.24 637 393.39"/><polygon class="cls-18" points="637 372.74 637 393.39 630.74 393.24 630.74 372.74 637 372.74"/><polygon class="cls-11" points="630.83 252 590.97 308.99 561 272 569 252 591.26 252 609.26 252 630.83 252"/><polygon class="cls-15" points="630.74 393.24 630.74 397.45 619.99 397.14 620 396.67 620 393.14 621 393 630.74 393.24"/><path class="cls-15" d="M628,401.2l0,21.58a.1.1,0,0,1-.17.07l-5-4.82.23-17Z"/><path class="cls-2" d="M627.81,422.85a.1.1,0,0,1-.08.17H622l-24.57-22.19h0l7.6.18,17.77,17Z"/><polygon class="cls-14" points="623.01 401.05 622.78 418.03 605.01 400.99 605.03 400.49 623.01 401.05"/><polygon class="cls-18" points="620 393.14 620 396.67 613.74 396.47 613.74 394.04 620 393.14"/><polygon class="cls-18" points="620 371.94 620 393.14 613.74 394.04 613.74 371.75 620 371.94"/><polygon class="cls-16" points="620 371.74 620 371.94 613.74 371.75 613.74 371.74 620 371.74"/><polygon class="cls-15" points="620 396.67 619.99 397.14 603 396.65 603 395.57 613.74 394.04 613.74 396.47 620 396.67"/><path class="cls-20" d="M615.44,577.46l-1.94,6-11,5-8-2L586,569h0v0l22.45,3.47Z"/><polygon class="cls-14" points="613.74 371.75 613.74 394.04 603 395.57 603 371.74 603.01 371.43 613.74 371.75"/><polygon class="cls-5" points="609.26 235 609.26 252 591.26 252 591 235 609.26 235"/><polygon class="cls-16" points="603 396.65 603 396.67 596.74 396.47 603 396.65"/><polygon class="cls-16" points="603 395.57 603 396.65 596.74 396.47 603 395.57"/><polygon class="cls-18" points="603 371.74 603 395.57 596.74 396.47 596.74 371.74 603 371.74"/><path class="cls-21" d="M602.5,588.5,603,628q-8.57-4.68-17-9.16V569s0,0,0,0l8.48,17.48Z"/><polygon class="cls-11" points="561 272 590.97 308.99 578.42 327 560.9 352 563.43 348.38 466.94 348.38 399.76 288.43 414.39 272 417.92 272 453.78 272 507.26 272 524.35 272 547.5 277.5 554.67 272 561 272"/><path class="cls-22" d="M585,359V519L467.55,530.94a.5.5,0,0,1-.55-.49v-.07L466.58,352H560.9l-4.9,7h29Zm-28.87,24.48V360H541v23.48h15.13Zm-30,0V360H511v23.48h15.13Zm-31,0V360H480v23.48h15.13Z"/><polygon class="cls-7" points="563.43 348.38 560.9 352 471 352 466.94 348.38 563.43 348.38"/><rect class="cls-23" x="550.56" y="360" width="5.57" height="23.48"/><rect class="cls-6" x="541" y="360" width="9.56" height="23.48"/><path class="cls-3" d="M545.48,772H1.32a.32.32,0,0,1-.32-.32v-.2a.32.32,0,0,0,.47.28L57,743V724.7L65.08,720,84,708.85l14.07-8.26L111,693l22.36,3.17a.56.56,0,0,0,.64-.56v-.24a.56.56,0,0,0,.8.51l23.71-11.13L273,631V554s90.29,11.62,163,44C517.72,634.39,545.48,772,545.48,772Z"/><rect class="cls-23" x="520.56" y="360" width="5.57" height="23.48"/><rect class="cls-6" x="511" y="360" width="9.56" height="23.48"/><polygon class="cls-11" points="504.65 229.14 513 241.57 507.26 241.57 453.78 241.57 446.22 241.57 470.31 205.15 477.5 203.5 483.5 207.5 489.97 207.31 499.32 221.21 496.5 229.5 504.65 229.14"/><rect class="cls-24" x="453.78" y="241.57" width="53.48" height="30.43"/><rect class="cls-23" x="489.56" y="360" width="5.57" height="23.48"/><rect class="cls-6" x="480" y="360" width="9.56" height="23.48"/><path class="cls-25" d="M466.58,352,467,530.38a.5.5,0,0,1-.61.49L399.28,517V288.54h.05a.36.36,0,0,0,0,.11l.19,3.36,67.07,60Z"/><path class="cls-7" d="M466.57,348.38V352h0L399.5,292l-.19-3.36a.36.36,0,0,1,0-.11l.43-.1Z"/><polygon class="cls-26" points="417.92 261.13 417.92 272 414.39 272 399.28 288 384.65 292 381 291.88 381 263.28 381 88 384.65 88 417.55 101.58 417.92 261.13"/><polygon class="cls-26" points="417.55 4 417.55 79.76 384.65 63.2 381 63.2 381 4 417.55 4"/><polygon class="cls-27" points="412.5 78 409.5 88.5 412.5 99 384.65 88 384.65 63.2 412.5 78"/><path class="cls-26" d="M399.28,303.65V517l-19.75,5.1a.49.49,0,0,1-.62-.47v-214L265.19,304l-.25-.31.06-.05,119.1,4a.53.53,0,0,0,.55-.53v.32a.17.17,0,0,0,.22.16Z"/><path class="cls-27" d="M399.28,288.54v15.11l-14.41,3.93a.17.17,0,0,1-.22-.16V292Z"/><path class="cls-20" d="M384.65,292v15.1a.53.53,0,0,1-.55.53l-119.1-4V288l54,1.8,62,2.2Z"/><polygon class="cls-20" points="384.65 63.2 384.65 88 381 88 268 88 264.13 88 264.13 63.2 266.74 63.2 381 63.2 384.65 63.2"/><path class="cls-24" d="M381,263.28v28.6l-62-2.08L268,288V88H381ZM336,110.09a14,14,0,0,0-10.91-13.83A13,13,0,0,0,322.5,96a12.85,12.85,0,0,0-4.36.76,1.9,1.9,0,0,0-.28.1c-3.79,1.27-8.58,4.47-8.84,12.51,0,.24,0,.48,0,.72s0,.53,0,.79a4.63,4.63,0,0,0,0,.65,12.67,12.67,0,0,0,2.61,7c.08.12.18.24.27.35a13.25,13.25,0,0,0,10.55,5.3,13,13,0,0,0,2.59-.26A13.93,13.93,0,0,0,336,110.09Z"/><rect class="cls-24" x="266.74" y="4" width="114.26" height="59.2"/><path class="cls-24" d="M378.91,307.65V521.5h-.41L287,514.59l63.89,4.57,7.73.62v-.07l1,.07.34-109a34.77,34.77,0,0,0-14.29-28.21l-3.37-2.46A33.65,33.65,0,0,0,339,378h0a34.77,34.77,0,0,0-33.89-.32h0a30.74,30.74,0,0,0-14.28,14.64,34.52,34.52,0,0,0-3.83,15c0,.55,0,.86,0,.86V514.59l-14-1.05V448l.5.16V425.74l-.5-.18V359l41.6,6.93a.12.12,0,0,0,.12,0,.22.22,0,0,0,.17-.36L265.19,304Z"/><path class="cls-28" d="M351.57,388A34.84,34.84,0,0,1,360,410.75l-.34,109-1-.07L359,517l-7.45-.62,0-.27Z"/><polygon class="cls-20" points="326.01 514.25 339.02 515.33 351.55 516.38 359 517 358.62 519.71 350.88 519.16 287.02 514 299 512 303.75 512.4 313.47 513.21 326.01 514.25"/><path class="cls-28" d="M351.57,388V516.11l0,.27-12.53-1V378a33.65,33.65,0,0,1,3.27,2.11l3.37,2.46A34.51,34.51,0,0,1,351.57,388Z"/><path class="cls-28" d="M339,515.31v0l-13-1.08V373.79a.06.06,0,0,0,0-.11c-8.78-.25-15.59,1.34-20.86,4A34.77,34.77,0,0,1,339,378h0Z"/><path class="cls-19" d="M336,110.09H325.09V96.26A14,14,0,0,1,336,110.09Z"/><path class="cls-19" d="M325.09,110.09H336a13.93,13.93,0,0,1-10.91,13.82Z"/><path class="cls-20" d="M326,373.68a.06.06,0,0,1,0,.11,42,42,0,0,0-12.51,6.57,39.33,39.33,0,0,0-9.72,10.89c-.42.68-.8,1.35-1.15,2A31.23,31.23,0,0,0,299,408.05V512l-12,2h0V408.18s0-.31,0-.86a40.63,40.63,0,0,1,3.83-15,34.63,34.63,0,0,1,12.09-13.34c.72-.46,1.45-.9,2.19-1.3h0C310.4,375,317.21,373.43,326,373.68Z"/><path class="cls-28" d="M326,373.79V514.25l-12.54-1,0-.41V380.36A42,42,0,0,1,326,373.79Z"/><path class="cls-19" d="M325.09,110.09v13.82a13,13,0,0,1-2.59.26,13.25,13.25,0,0,1-10.55-5.3,16.38,16.38,0,0,0,9.22,5.09.33.33,0,0,0,.28-.58c-5.89-4.63-7.72-9.22-7.54-13.29Z"/><path class="cls-19" d="M325.09,96.26v13.83H313.91c.27-6.52,5.68-11.68,7.77-13.44a.33.33,0,0,0-.25-.58,17.33,17.33,0,0,0-3.29.69A12.85,12.85,0,0,1,322.5,96,13,13,0,0,1,325.09,96.26Z"/><path class="cls-20" d="M321.43,96.07a.33.33,0,0,1,.25.58c-2.09,1.76-7.5,6.92-7.77,13.44-.18,4.07,1.65,8.66,7.54,13.29a.33.33,0,0,1-.28.58,16.38,16.38,0,0,1-9.22-5.09c-.09-.11-.19-.23-.27-.35a14.41,14.41,0,0,1-2.61-7c0-.21,0-.43,0-.65s0-.52,0-.79,0-.48,0-.72a14,14,0,0,1,8.84-12.51,1.9,1.9,0,0,1,.28-.1A17.33,17.33,0,0,1,321.43,96.07Z"/><path class="cls-7" d="M314.74,365.68a.16.16,0,0,1,0,.22h0L273.08,359l-.08,0L85,158,1.1,109.75a.2.2,0,0,1-.1-.16v-46a.22.22,0,0,1,.34-.19L38,86,55,96.5l12.48,7.71.14.08L140,149l.05.05L264.94,303.7l.25.31H265Z"/><path class="cls-28" d="M313.5,380.36V512.8l0,.41-9.72-.81,0-.4V391.25A39.33,39.33,0,0,1,313.5,380.36Z"/><path class="cls-28" d="M303.78,391.25V512l0,.4L299,512V408.05a31.23,31.23,0,0,1,3.62-14.79C303,392.6,303.36,391.93,303.78,391.25Z"/><path class="cls-1" d="M131.14,342.45l28.45,12.4,7.41,3.23,9,3.92V295.13a.23.23,0,0,0-.11-.2l-.4-.26L84,235v86.91ZM85,158,273,359h0v0l-.22,66.49L119.83,371.8l-6.33,5.7L95.77,363.35,1.5,330.26v31.31H1V109.7l.1,0Z"/><path class="cls-1" d="M273,554v77L158.51,684.75l-.38-.81V454.43l28-33.91.05-.14,86.5,27.54-.21,65.58.5,0V554Zm-30.26-11.82V461.74l-9.37-.46-9.37-.46L207.6,460l-28.6-1.4V556l60.72-13.16,2.45-.53h0Z"/><polygon class="cls-1" points="273 448.01 273 513.54 272.5 513.5 272.71 447.92 273 448.01"/><polygon class="cls-2" points="273 425.56 273 448.01 272.71 447.92 272.78 425.49 273 425.56"/><polygon class="cls-1" points="273 359 273 425.56 272.78 425.49 273 359"/><polygon class="cls-2" points="272.78 425.49 272.71 447.92 186.21 420.38 139.41 405.48 119.45 399.12 1.5 361.57 1.5 330.26 95.77 363.35 113.5 377.5 119.83 371.8 272.78 425.49"/><polygon class="cls-5" points="242.74 461.74 242.16 542.12 233.37 541.09 233.37 503.31 233.37 461.28 242.74 461.74"/><path class="cls-5" d="M242.16,542.12a.09.09,0,0,1,0,.18l-2.46.54L179,556v-7l29.23-5.85L224,540l9.37,1.09Z"/><polygon class="cls-5" points="233.37 503.31 233.37 541.09 224 540 224 503.82 233.37 503.31"/><polygon class="cls-5" points="233.37 461.28 233.37 503.31 224 503.82 224 460.82 233.37 461.28"/><path class="cls-6" d="M224,503.82V540l-15.77,3.15L208,542s0-18.11-.05-37.3Z"/><path class="cls-6" d="M224,460.82v43L208,504.7c0-21.41-.14-44.17-.35-44.69Z"/><path class="cls-6" d="M208,542l.23,1.15L179,549V506.28L208,504.7C208,523.89,208,542,208,542Z"/><path class="cls-6" d="M207.6,460c.21.52.31,23.28.35,44.69L179,506.28V458.61Z"/><polygon class="cls-1" points="186.21 420.38 186.16 420.52 168 415 158.13 429.74 158.13 411.6 139.36 405.62 139.41 405.48 186.21 420.38"/><polygon class="cls-2" points="186.16 420.52 158.13 454.43 158.13 429.74 168 415 186.16 420.52"/><path class="cls-29" d="M176,295.29V362l-9-3.92-.77-32.78-.68-28.56,10.16-1.69A.25.25,0,0,1,176,295.29Z"/><path class="cls-29" d="M176,295.13v.16a.25.25,0,0,0-.29-.24l-10.16,1.69,9.82-1.64a.24.24,0,0,0,.12-.43l.4.26A.23.23,0,0,1,176,295.13Z"/><path class="cls-29" d="M175.49,294.67a.24.24,0,0,1-.12.43l-9.82,1.64-34.41-22.29L84,243.91V235Z"/><polygon class="cls-29" points="166.23 325.3 167 358.08 159.59 354.85 158.65 321.32 166.23 325.3"/><polygon class="cls-29" points="165.55 296.74 166.23 325.3 158.65 321.32 158 298 165.55 296.74"/><polygon class="cls-29" points="165.55 296.74 158 298 131.14 281.3 131.14 274.45 165.55 296.74"/><polygon class="cls-19" points="158.65 321.32 159.59 354.85 131.14 342.45 131.14 306.85 158.65 321.32"/><polygon class="cls-19" points="158 298 158.65 321.32 131.14 306.85 131.14 281.3 158 298"/><path class="cls-1" d="M158.13,683.94l.38.81L134.8,695.88a.56.56,0,0,1-.8-.51v-250l5.36,6.51V692.47Z"/><polygon class="cls-2" points="158.13 454.43 158.13 683.94 139.36 692.47 139.36 451.83 139.36 428 139.36 405.62 158.13 411.6 158.13 429.74 158.13 454.43"/><polygon class="cls-1" points="139.41 405.48 139.36 405.62 139.36 428 119.4 399.27 119.45 399.12 139.41 405.48"/><polygon class="cls-2" points="139.36 428 139.36 451.83 134 445.32 134 445 133.73 444.99 87.84 389.22 119.4 399.27 139.36 428"/><path class="cls-5" d="M134,695.37v.24a.56.56,0,0,1-.64.56L111,693V444.4l22.73.59.27.33Z"/><path class="cls-1" d="M87.84,389.22,133.73,445,111,444.4,95.08,444l-16-.42-17.62-.45L57,443V743L1.47,771.76a.32.32,0,0,1-.47-.28V361.57h.5l118,37.55,0,.15Z"/><polygon class="cls-19" points="131.14 306.85 131.14 342.45 84 321.91 84 282.07 131.14 306.85"/><polygon class="cls-19" points="131.14 281.3 131.14 306.85 84 282.07 84 252 131.14 281.3"/><polygon class="cls-29" points="131.14 274.45 131.14 281.3 84 252 84 243.91 131.14 274.45"/><path class="cls-4" d="M111,444.4V693l-12.93,7.59L97,583l0-.06c2.26-.53,4-4.78,4-9.94,0-5.52-2-10-4.5-10h0l0-.37L95.08,444Z"/><path class="cls-5" d="M96.5,563c2.49,0,4.5,4.48,4.5,10,0,5.16-1.76,9.41-4,9.94a2,2,0,0,1-.48.06C94,583,92,578.52,92,573s2-10,4.48-10Z"/><path class="cls-4" d="M97,583l1.07,117.59L84,708.85,79,444.4l0-.83,16,.42,1.38,118.64,0,.37C94,563,92,567.5,92,573s2,10,4.5,10a2,2,0,0,0,.48-.06Z"/><path class="cls-7" d="M94.57,88v31.85l-27-15.56-.14-.08h0V71.63a.09.09,0,0,1,.13-.08Z"/><polygon class="cls-4" points="79.04 444.4 84 708.85 65.08 719.95 61.44 443.12 79.06 443.57 79.04 444.4"/><path class="cls-5" d="M67.43,71.63V104.2L55,96.5,38,86V71.48h29.4a.08.08,0,0,1,.08.08Z"/><polygon class="cls-4" points="65.08 719.95 57 724.7 57 443 61.44 443.12 65.08 719.95"/><line class="cls-30" x1="1" y1="109.59" x2="1" y2="109.7"/><polyline class="cls-30" points="266.74 4 1 4 1 63.6"/><line class="cls-30" x1="796.01" y1="4" x2="417.55" y2="4"/><line class="cls-30" x1="851" y1="4" x2="849.54" y2="4"/><line class="cls-30" x1="784.96" y1="772" x2="1307" y2="772"/><path class="cls-30" d="M1,771.48v.2a.32.32,0,0,0,.32.32H545.48"/><polyline class="cls-30" points="1367 297.81 1367 772 1307 772 1194.57 729.33 1198 417 1186.17 414.51 1168.82 410.87 1148.9 406.68 1118.72 400.34 1098.78 396.15 1087.41 393.76 1060 388"/><line class="cls-30" x1="1367" y1="26.74" x2="1367" y2="252"/><polyline class="cls-30" points="886.3 4 1073.32 4 1106.04 4 1343.74 4"/><line class="cls-30" x1="850.25" y1="5.25" x2="851" y2="4"/><polyline class="cls-30" points="780 123.23 780 123 780.12 122.8"/><line class="cls-30" x1="780" y1="195.39" x2="780" y2="186.84"/><line class="cls-30" x1="1055.25" y1="676.46" x2="780" y2="572"/><polyline class="cls-30" points="609.26 252 630.83 252 590.97 308.99"/><polyline class="cls-30" points="561 272 569 252 591.26 252"/><polygon class="cls-30" points="591.26 252 591 235 609.26 235 609.26 252 591.26 252"/><path class="cls-30" d="M796,4a.83.83,0,0,0-.72.43l-99.6,182.31a.83.83,0,0,0,.74,1.23c10.4-.24,74-1.61,82.62-.3a.83.83,0,0,0,1-.83V123.23a.82.82,0,0,1,.12-.43L850.25,5.25A.83.83,0,0,0,849.54,4"/><polyline class="cls-30" points="381 292 318.98 289.8 268 288 268 88"/><polyline class="cls-30" points="381 88 268 88 264.13 88 264.13 63.2 266.74 63.2"/><polyline class="cls-30" points="381 63.2 266.74 63.2 266.74 4"/><polygon class="cls-30" points="384.65 63.2 412.5 78 409.5 88.5 412.5 99 384.65 88 384.65 63.2"/><polyline class="cls-30" points="381 4 381 63.2 384.65 63.2 417.55 79.76 417.55 4"/><polyline class="cls-30" points="414.39 272 399.76 288.43 399.33 288.53 399.28 288.54 384.65 292 381 292 381 291.88 381 263.28 381 88 384.65 88 417.55 101.58 417.92 261.13 417.92 272"/><path class="cls-30" d="M384.65,292l-3.65-.12-62-2.08L265,288v15.65l119.1,4a.53.53,0,0,0,.55-.53"/><polyline class="cls-30" points="399.76 288.43 399.52 288.22 399.28 288 414.39 272 417.92 272 453.78 272"/><polyline class="cls-30" points="507.26 272 524.35 272 547.5 277.5 554.67 272 561 272 590.97 308.99 578.42 327 561 352 560.9 352 471 352"/><path class="cls-30" d="M399.74,288.42l-.22-.2a.14.14,0,0,0-.24.11"/><line class="cls-30" x1="466.57" y1="348.38" x2="399.76" y2="288.43"/><path class="cls-30" d="M399.28,303.65V517l67.11,13.87a.5.5,0,0,0,.61-.49"/><path class="cls-30" d="M560.9,352l2.53-3.62H466.57V352L467,530.38v.07a.5.5,0,0,0,.55.49L585,519"/><path class="cls-30" d="M272.71,447.92l.07-22.43L273,359l41.6,6.93a.12.12,0,0,0,.12,0,.16.16,0,0,0,0-.22L265,304h.19l113.72,3.64v214a.49.49,0,0,0,.62.47l19.75-5.1"/><line class="cls-30" x1="286.99" y1="514.59" x2="273" y2="513.54"/><path class="cls-30" d="M384.65,292l14.63-4v15.65l-14.41,3.93a.17.17,0,0,1-.22-.16V292Z"/><polyline class="cls-30" points="507.26 241.57 507.26 272 453.78 272 453.78 241.57"/><polygon class="cls-30" points="453.78 241.57 446.22 241.57 470.31 205.15 477.5 203.5 483.5 207.5 489.97 207.31 499.32 221.21 496.5 229.5 504.65 229.14 513 241.57 507.26 241.57 453.78 241.57"/><path class="cls-30" d="M1.1,109.75a.2.2,0,0,1-.1-.16v-46a.22.22,0,0,1,.34-.19L38,86"/><path class="cls-30" d="M67.57,104.29,140,149l.05.05L264.94,303.7l.25.31,49.7,61.53a.22.22,0,0,1-.17.36h0L273.08,359l-.08,0"/><line class="cls-30" x1="54.95" y1="96.5" x2="67.43" y2="104.2"/><path class="cls-30" d="M134,695.37v.24a.56.56,0,0,1-.64.56L111,693"/><polyline class="cls-30" points="57 724.7 65.08 719.95 84 708.85 98.07 700.59 111 693 111 444.4"/><path class="cls-30" d="M67.43,104.21,55,96.5,38,86V71.48h29.4a.08.08,0,0,1,.08.08v.07"/><path class="cls-30" d="M67.43,71.63a.09.09,0,0,1,.13-.08L94.57,88v31.85l-27-15.56-.14-.08h0Z"/><polyline class="cls-30" points="780 357 765.9 331.93 701.63 217.64"/><line class="cls-30" x1="780" y1="337" x2="780" y2="356.3"/><polyline class="cls-30" points="585 359 577 359 556 359 560.9 352 578.42 327 666 202 706 202"/><polyline class="cls-30" points="630.74 279.2 672.26 217.64 701.63 217.64 737.22 281.15 759 320"/><path class="cls-30" d="M670,534l-7.92,2a.1.1,0,0,0-.08.1V540l-2.94.84-4,1.13a.14.14,0,0,0-.1.13V548l-70-15.7V347l40.12-59.47"/><polyline class="cls-30" points="759.14 557.55 730.5 559.05 730.71 545.1 730.78 540.96 732.5 429.17 723.66 429 717 428.88 707.09 428.69 696.72 428.49 688.31 428.33 671 428"/><polyline class="cls-30" points="586.02 569.01 586.02 569.02 594.5 586.5 602.5 588.5"/><path class="cls-30" d="M603,628l-17-8.83V569s0,0,0,0"/><path class="cls-30" d="M759.14,557.55,717,560.34l-131,8.66h0v0l22.45,3.47,6.94,5,.06,0L780,567V556.17"/><path class="cls-30" d="M615.44,577.46l-1.94,6-11,5L603,628l27-15.29a62.13,62.13,0,0,1,15.76-6.24l29.45-7.2A61.66,61.66,0,0,1,690,597.5H703a61.89,61.89,0,0,0,32.35-9.13l7.44-4.56a62.17,62.17,0,0,1,18.59-7.57L780,572v-5"/><polygon class="cls-30" points="759.14 557.55 780 556.17 780 357 780 356.3 765.9 331.93 759 320 759.14 557.55"/><polyline class="cls-30" points="780 225.43 780 337 706 202 780 202"/><polygon class="cls-30" points="671 428 682.02 428.58 681 532 670 534 671 428"/><path class="cls-30" d="M655,548l62,12v-6l-61.66-11.81a.13.13,0,0,0-.16.12Z"/><path class="cls-30" d="M661.77,539.92l-2.71.92L655.67,542a.13.13,0,0,0,0,.26L717,554l6.58-1.88a.1.1,0,0,0,0-.2"/><path class="cls-30" d="M662,536.1v0l-.22,3.8.23,0,61.57,12,.31.06a.11.11,0,0,0,.12-.11v-4.3l-61.51-11.48-.37-.07A.1.1,0,0,0,662,536.1Z"/><path class="cls-30" d="M724,547.57l6.71-2.47.29-.1v-4l-.22,0-7.12-1.28-6.66-1.2-9.91-1.78-10.37-1.87-8.43-1.52L681,532l-18.49,3.89a.11.11,0,0,0,0,.2h0Z"/><polyline class="cls-30" points="1087.42 393.38 1060 388 1055.25 676.46 1082 669"/><polygon class="cls-30" points="1082 669 1098.55 674.61 1118.58 681.39 1118.58 681.4 1124.58 683.43 1134.5 682.5 1138.88 688.27 1143.25 689.75 1161.54 695.95 1179.18 701.93 1194.8 707.22 1198 417 1168.82 410.77 1087.42 393.38 1087.41 393.76 1082 669"/><polygon class="cls-30" points="1.5 361.57 1.5 330.26 95.77 363.35 113.5 377.5 119.83 371.8 272.78 425.49 273 425.56 273.5 425.74 273.5 448.17 273 448.01 272.71 447.92 186.21 420.38 139.41 405.48 119.45 399.12 1.5 361.57"/><polyline class="cls-30" points="158.13 454.43 158.13 683.94 139.36 692.47 139.36 451.83"/><polyline class="cls-30" points="139.36 428 139.36 405.62 158.13 411.6 158.13 429.74"/><polygon class="cls-30" points="119.4 399.27 87.84 389.22 133.73 444.99 134 445.32 139.36 451.83 139.36 428 119.4 399.27"/><polygon class="cls-30" points="158.13 429.74 168 415 186.16 420.52 158.13 454.43 158.13 429.74"/><polyline class="cls-30" points="242.74 461.74 242.74 542.18 242.18 542.3"/><polyline class="cls-30" points="179 549 179 506.28 179 458.61 207.6 460.01 224 460.82"/><path class="cls-30" d="M224,540l-15.77,3.15L179,549v7l60.72-13.16,2.45-.53h0a.09.09,0,0,0,0-.18"/><polygon class="cls-30" points="224 540 224 503.82 224 460.82 233.37 461.28 242.74 461.74 242.16 542.12 233.37 541.09 224 540"/><line class="cls-30" x1="97" y1="583" x2="98.07" y2="700.59"/><line class="cls-30" x1="95.08" y1="443.99" x2="96.46" y2="562.63"/><line class="cls-30" x1="79.04" y1="444.4" x2="84" y2="708.85"/><line class="cls-30" x1="61.44" y1="443.12" x2="65.08" y2="719.95"/><path class="cls-30" d="M96.48,563h0c2.49,0,4.5,4.48,4.5,10,0,5.16-1.76,9.41-4,9.94a2,2,0,0,1-.48.06C94,583,92,578.52,92,573S94,563,96.48,563Z"/><path class="cls-30" d="M273,519.78c142.1,20.51,223.1,51.32,313,99.06q8.43,4.47,17,9.16c97,53,182,144,182,144H545.48S517.72,634.39,436,598c-72.71-32.38-163-44-163-44"/><polyline class="cls-30" points="84 252 84 282.07 84 321.91 131.14 342.45 159.59 354.85"/><path class="cls-30" d="M176,295.29v-.16a.23.23,0,0,0-.11-.2l-.4-.26"/><path class="cls-30" d="M158,298l.65,23.32.94,33.53,7.41,3.23,9,3.92V295.29a.25.25,0,0,0-.29-.24l-10.16,1.69"/><path class="cls-30" d="M158,298l-26.86-16.7L84,252V235l91.49,59.67a.24.24,0,0,1-.12.43l-9.82,1.64Z"/><path class="cls-30" d="M339,378a33.65,33.65,0,0,1,3.27,2.11l3.37,2.46A34.77,34.77,0,0,1,360,410.75l-.34,109-1-.07-7.74-.55L287,514.59V408.18"/><path class="cls-30" d="M305.13,377.64A34.77,34.77,0,0,1,339,378"/><path class="cls-30" d="M287,407.32a34.77,34.77,0,0,1,15.92-28.38c.72-.46,1.45-.9,2.19-1.3"/><path class="cls-30" d="M287,408.18s0-.31,0-.86a40.63,40.63,0,0,1,3.83-15,30.74,30.74,0,0,1,14.28-14.64h0c5.27-2.62,12.08-4.21,20.86-4a.06.06,0,0,1,0,.11,42,42,0,0,0-12.51,6.57,39.33,39.33,0,0,0-9.72,10.89c-.42.68-.8,1.35-1.15,2A31.23,31.23,0,0,0,299,408.05V512"/><polyline class="cls-31" points="326.01 373.79 326.01 514.25 326.01 514.38"/><line class="cls-31" x1="339.02" y1="377.97" x2="339.02" y2="515.31"/><line class="cls-30" x1="339.02" y1="377.96" x2="339.02" y2="377.97"/><line class="cls-31" x1="351.57" y1="388" x2="351.57" y2="516.11"/><line class="cls-31" x1="313.5" y1="380.36" x2="313.5" y2="512.8"/><line class="cls-31" x1="303.78" y1="391.25" x2="303.78" y2="512"/><polyline class="cls-30" points="286.99 408.18 287 514 287.02 514 299 512 303.75 512.4 313.47 513.21 326.01 514.25 339.02 515.33 351.55 516.38 359 517 358.62 519.71 358.61 519.78 350.88 519.16 287.02 514"/><path class="cls-30" d="M471,352h-4.43L399.5,292l-.19-3.36a.36.36,0,0,1,0-.11.26.26,0,0,1,.41-.11h0l67.18,59.95Z"/><line class="cls-31" x1="688.31" y1="428.33" x2="688.31" y2="533.18"/><line class="cls-31" x1="696.72" y1="428.49" x2="696.72" y2="534.83"/><polyline class="cls-31" points="707.09 428.49 707.09 428.69 707.09 536.7"/><line class="cls-31" x1="717" y1="428.88" x2="717" y2="538.48"/><polyline class="cls-31" points="723.66 428.88 723.66 429 723.66 539.68 723.66 539.74"/><line class="cls-31" x1="1098.73" y1="674.08" x2="1098.73" y2="396.37"/><polyline class="cls-31" points="1118.72 400.11 1118.72 400.34 1118.72 680.98"/><line class="cls-31" x1="1143.35" y1="689.47" x2="1148.89" y2="406.73"/><polyline class="cls-31" points="1168.83 410.57 1168.82 410.77 1168.82 410.87 1161.6 695.77"/><line class="cls-31" x1="1186.04" y1="415.13" x2="1179.21" y2="701.84"/><line class="cls-30" x1="959.77" y1="478.85" x2="959.78" y2="490"/><path class="cls-30" d="M858.92,305.4v-.16a.29.29,0,0,1,.28-.29l4.21.57,15.59,2.1L911.67,312l48,6.47"/><path class="cls-30" d="M859.67,465.91l-.62-.15a.17.17,0,0,1-.13-.16v-.07"/><path class="cls-30" d="M879,461V307.63h0V307l-7.66-.73-7.93-.75-4.08-.39a.29.29,0,0,0-.41.27V465.53a.16.16,0,0,0,.2.16l9.84-2.32Z"/><path class="cls-30" d="M871.34,306.27,846,303a.19.19,0,0,1-.19-.19V275.44L966.55,289v29.5L879,307.26Z"/><path class="cls-30" d="M959.77,484.31V490L859.67,465.91a.16.16,0,0,1,0-.32l9.31-2.21L879,461l32.67,7.22,48.1,10.63"/><polyline class="cls-30" points="489.56 360 480 360 480 383.48 489.56 383.48"/><rect class="cls-30" x="489.56" y="360" width="5.57" height="23.48"/><polyline class="cls-30" points="520.56 360 511 360 511 383.48 520.56 383.48"/><rect class="cls-30" x="520.56" y="360" width="5.57" height="23.48"/><polyline class="cls-30" points="550.56 360 541 360 541 383.48 550.56 383.48"/><rect class="cls-30" x="550.56" y="360" width="5.57" height="23.48"/><polyline class="cls-30" points="911.67 312.03 879 307.63 868.96 306.28 868.96 389.74 868.96 463.37 868.99 463.38 911.67 473.22 959.77 484.31 959.77 478.85 959.71 408.25 959.64 318.5 911.67 312.04"/><polyline class="cls-30" points="911.67 312.03 911.67 312.04 911.67 398.45 911.67 468.22 911.67 473.22"/><polyline class="cls-30" points="233.37 461.28 233.37 503.31 233.37 541.09"/><polyline class="cls-30" points="233.37 503.31 224 503.82 207.95 504.7 179 506.28"/><path class="cls-30" d="M207.6,460c.21.52.31,23.28.35,44.69.05,19.19.05,37.3.05,37.3"/><polyline class="cls-30" points="84 243.91 131.14 274.45 165.55 296.74 166.23 325.3 167 358.08"/><polyline class="cls-30" points="166.23 325.3 158.65 321.32 131.14 306.85 84 282.07"/><polyline class="cls-30" points="131.14 274.45 131.14 281.3 131.14 306.85 131.14 342.45 131.14 342.46"/><polyline class="cls-30" points="868.96 389.74 879 391.79 911.67 398.45 959.71 408.25 959.78 408.26"/><path class="cls-30" d="M719,403.75v0a.21.21,0,0,1-.2.21h0L628,401.2l-5-.15-18-.56-8.29-.25h0v-3.76"/><path class="cls-30" d="M719,400v3.75a.22.22,0,0,0,.25.21l22.67-3.49L745,400v-4"/><polyline class="cls-30" points="630.74 397.45 619.99 397.14 603 396.65"/><polyline class="cls-30" points="663.74 398.4 652.99 398.09 637 397.63"/><polyline class="cls-30" points="697.74 399.39 686.99 399.08 670 398.59"/><polyline class="cls-30" points="745 396 719 400 704 399.57"/><line class="cls-30" x1="731" y1="395.66" x2="740.01" y2="395.88"/><line class="cls-30" x1="719" y1="395.37" x2="726.71" y2="395.56"/><line class="cls-30" x1="704" y1="395.01" x2="712.74" y2="395.22"/><line class="cls-30" x1="687" y1="394.6" x2="697.74" y2="394.86"/><line class="cls-30" x1="670" y1="394.19" x2="680.74" y2="394.45"/><line class="cls-30" x1="653" y1="393.77" x2="663.74" y2="394.03"/><line class="cls-30" x1="637" y1="393.39" x2="646.74" y2="393.62"/><polyline class="cls-30" points="620 393.14 621 393 630.74 393.24"/><line class="cls-30" x1="603" y1="395.57" x2="613.74" y2="394.04"/><path class="cls-30" d="M736.79,421l-17.73-16.95a.2.2,0,0,0-.14-.06h-.12l-7.41-.17L736,426h5.75a.1.1,0,0,0,.08-.16v0l-5-4.8"/><path class="cls-30" d="M741.83,425.84a.1.1,0,0,0,.17-.08V401l-5,1-.21,19h0Z"/><path class="cls-30" d="M622.78,418,605,401l-7.6-.18h0L622,423h5.75a.1.1,0,0,0,.08-.17"/><path class="cls-30" d="M627.81,422.85a.1.1,0,0,0,.17-.07l0-21.58V401h-5v0l-.23,17Z"/><polygon class="cls-30" points="596.74 396.47 596.74 371.74 603 371.74 603 395.57 603 396.65 603 396.67 596.74 396.47"/><polyline class="cls-30" points="620 371.94 620 393.14 620 396.67 613.74 396.47 613.74 394.04 613.74 371.75"/><polygon class="cls-30" points="637 397.63 637 397.67 630.74 397.47 630.74 397.45 630.74 393.24 630.74 372.74 637 372.74 637 393.39 637 397.63"/><polyline class="cls-30" points="653 372.94 653 393.77 653 397.67 646.74 397.47 646.74 393.62 646.74 372.75"/><polygon class="cls-30" points="670 398.59 670 398.67 663.74 398.47 663.74 398.4 663.74 394.03 663.74 373.74 670 373.74 670 394.19 670 398.59"/><polyline class="cls-30" points="687 373.97 687 394.6 687 398.67 680.74 398.47 680.74 394.45 680.74 373.78"/><polygon class="cls-30" points="704 399.57 704 399.67 697.74 399.47 697.74 399.39 697.74 394.86 697.74 374.74 704 374.74 704 395.01 704 399.57"/><polyline class="cls-30" points="719 374.93 719 395.37 719 399.67 712.74 399.47 712.74 395.22 712.74 374.75"/><polygon class="cls-30" points="745 396 745 371 740.28 371.93 740.01 395.88 740 396.76 745 396"/><polyline class="cls-30" points="727 374 726.71 395.56 726.67 398.76 731 398 731 395.66 731 373.34"/><path class="cls-30" d="M721,374.82a.17.17,0,0,1-.18.17l-1.82-.06-6.26-.18-8.73-.27L687,374l-6.26-.19L670,373.45l-17-.51-6.26-.19-9.73-.29-17-.52-6.26-.19L603,371.43l-6.27-.19H595v-3.76l79.15,2.22,3,.08L721,371"/><path class="cls-30" d="M721,374.82a.19.19,0,0,0,.2.15l5.8-1,4-.66L745,371v-4l-24,4v3.82Z"/><polyline class="cls-30" points="678.07 315 630.74 279.2 625.12 287.53 664 315"/><polyline class="cls-30" points="692.7 315 737.13 281.2 732.28 272.77 678.07 315"/><path class="cls-30" d="M676.8,244.64a10.82,10.82,0,0,1,3.7-.64,11.42,11.42,0,0,1,2.21.22,12.11,12.11,0,0,1,0,23.56,11.23,11.23,0,0,1-11.39-4.54"/><path class="cls-30" d="M669,255.32a12,12,0,0,1,7.53-10.59"/><path class="cls-30" d="M671.29,263.19a12.25,12.25,0,0,1-2.27-6.48c0-.24,0-.47,0-.71"/><path class="cls-30" d="M671.32,263.24a13.81,13.81,0,0,0,8,4.58.28.28,0,0,0,.23-.5c-5-3.94-6.57-7.86-6.42-11.32.24-5.55,4.84-9.94,6.62-11.44a.28.28,0,0,0-.21-.5,14.61,14.61,0,0,0-2.79.58l-.26.09c-3.22,1.08-7.27,3.8-7.53,10.59,0,.22,0,.45,0,.68s0,.48,0,.71a11,11,0,0,0,2.27,6.48S671.31,263.22,671.32,263.24Z"/><polyline class="cls-30" points="682.71 244.22 682.71 256 682.71 267.78"/><polyline class="cls-30" points="692 256 682.71 256 673.18 256"/><path class="cls-30" d="M318.14,96.76A12.85,12.85,0,0,1,322.5,96a13,13,0,0,1,2.59.26,14.21,14.21,0,0,1,0,27.65,13,13,0,0,1-2.59.26,13.25,13.25,0,0,1-10.55-5.3"/><path class="cls-30" d="M309,109.37a14,14,0,0,1,8.84-12.51"/><path class="cls-30" d="M311.68,118.52a14.41,14.41,0,0,1-2.61-7c0-.21,0-.43,0-.65"/><path class="cls-30" d="M312,118.87a16.38,16.38,0,0,0,9.22,5.09.33.33,0,0,0,.28-.58c-5.89-4.63-7.72-9.22-7.54-13.29.27-6.52,5.68-11.68,7.77-13.44a.33.33,0,0,0-.25-.58,17.33,17.33,0,0,0-3.29.69,1.9,1.9,0,0,0-.28.1c-3.79,1.27-8.58,4.47-8.84,12.51,0,.24,0,.48,0,.72s0,.53,0,.79a4.63,4.63,0,0,0,0,.65,12.67,12.67,0,0,0,2.61,7C311.76,118.64,311.86,118.76,312,118.87Z"/><polyline class="cls-30" points="325.09 123.91 325.09 110.09 325.09 96.26"/><polyline class="cls-30" points="336 110.09 325.09 110.09 313.91 110.09"/><polyline class="cls-30" points="680.7 358.76 685.02 358.85 693 359 692.98 356.43 692.85 336.7 692.7 315 680.74 315 678.07 315 670.13 315"/><path class="cls-30" d="M664,358.34v0a.07.07,0,0,0,.06.07h.24"/><path class="cls-30" d="M664.28,358.32l-.19.08a.06.06,0,0,1-.09-.06V315h6.13l-.07,22L670,356"/><path class="cls-30" d="M680.6,358.76l-16.3-.32a.06.06,0,0,1,0-.12L670,356l10.74.2,12.24.23h0V359l-8-.16-4.32-.08"/><polyline class="cls-30" points="680.74 315 680.74 336.86 680.74 356.2"/><polyline class="cls-30" points="670.13 337 680.74 336.86 692.85 336.7"/><polygon class="cls-30" points="680.6 358.76 674.15 358.76 674.15 369.69 674.15 369.77 677.1 369.77 685.02 369.77 685.02 358.85 685.02 358.84 685.02 358.76 680.7 358.76 680.6 358.76"/><polyline class="cls-30" points="1106.04 226.83 1129.09 229.06 1367 252 1367 297.81 1287.97 288.07 1287.5 279.5 1226.59 280.5 780 225.43 780 202 780 195.39 909.35 207.87 936.5 225.5 959.78 212.73 1047.45 221.18 1094.12 225.68"/><polyline class="cls-30" points="1106.04 226.92 1094.38 225.71 1094.12 225.68"/><polyline class="cls-30" points="1073.32 203.61 1073.32 4 1073.32 1 1106.04 1 1106.04 4 1106.04 204.74"/><polygon class="cls-30" points="1106.04 204.74 1343.74 4 1367 4 1367 26.74 1129.09 229.06 1128.89 229.23 1106.04 226.92 1106.04 226.83 1106.04 204.74"/><polyline class="cls-30" points="1094.12 225.68 1073.32 223.53 1073.32 203.61"/><polyline class="cls-30" points="1047.45 221.18 851 4 886.3 4 1073.32 203.61"/><path class="cls-30" d="M1,771.48a.32.32,0,0,0,.47.28L57,743V443l4.44.12,17.62.45,16,.42,15.92.41,22.73.59H134V695.37a.56.56,0,0,0,.8.51l23.71-11.13L273,631V359h0L85,158,1.1,109.75l-.1,0V771.48Z"/><path class="cls-30" d="M959.78,490S947,502,957,534s22,53,21,77-3.3,34.89-3.3,34.89"/><path class="cls-30" d="M859,355s-2.76,36-20.38,16-29.75-20-39.19-19S780,325.57,780,325.57"/><path class="cls-30" d="M1198,417s-5.52-14,4.74-33.52,17.56-4.49,21.91-8.49,24.52-15,24.52-15"/><path class="cls-30" d="M707.09,571.53S728,569.61,731,565.3s19.13-7.75,19.13-7.75"/><path class="cls-30" d="M707.6,303.66S717,315,732,312s24.2,3,24.2,3"/><line class="cls-30" x1="569" y1="252" x2="603.49" y2="291.09"/><polygon class="cls-32" points="466.56 425.48 473 441 469.78 446.59 469.78 454.63 466.56 460.89 459 449 461 439 460 428 466.56 425.48"/><polygon class="cls-33" points="381 207.65 370.3 225.43 373.44 235 370.3 249.91 357.26 272 366.9 291.41 381 292 391.96 290 391.96 269.74 383.35 249.83 391 218 381 207.65"/><polygon class="cls-34" points="759.14 473.22 752.74 484.31 755.94 494.35 750.13 503.5 750.13 516.78 759 530.95 767 521 762 514 762.91 490 759.14 473.22"/><path class="cls-35" d="M273,585.91S304,592,307,620s-15,14.17,15,43,56,14.18,47.52,37.59S358,723,362,742s1.78,30,1.78,30H2.31a.32.32,0,0,1-.15-.6L57,743V724.7L111,693l22,3,140-65Z"/><path class="cls-30" d="M57,489.26S50,494,41,474s4-1-15-10-25-5.39-25-5.39"/><path class="cls-36" d="M175,676.52s11.53,3.66,1.79,24.07S170,719,170,731s-13,14-25,21-17,10-26,13-19.22,7-19.22,7l-98.31-.24L57,743V724.7L111,693l22,3Z"/><path class="cls-30" d="M273,576.63V631L133,696l-22-3L57,724.7V743L2.16,771.4a.32.32,0,0,0,.15.6H367.7"/><path class="cls-35" d="M723.66,594S712,604.7,731,629.35s36,13.87,49,42.26,14.78,27.83,21.39,35.61S798,717,827,732s61.26,40,61.26,40H1307l-112.43-42.67.23-22.11-55.92-19-4.38-5.77-9.92.93L1082,669l-26.75,7.46L780,572s-23,5-27.49,7-15.75,8.67-19.63,10.84A77.06,77.06,0,0,1,723.66,594Z"/><path class="cls-36" d="M922.7,626.16S914,649,929,658s15.39,3,38.7,23,45.3,34,54.3,34,23-2,38,9,63,39,81,39,60.87,3,66.43,9H1307l-112.43-42.67.23-22.11-55.92-19-4.38-5.77-9.92.93L1082,669l-26.75,7.46Z"/><path class="cls-35" d="M494.06,528.25S489.52,538,507.26,544,530,540,553,545s17,9,32,7,28-3.06,30-5,3.16-7.22,3.16-7.22L585,532.3V519Z"/><path class="cls-23" d="M467,530.45,585,519V491.48a35,35,0,0,0-17.74,12c-7.26,9.5-15.13-16.37-16.7-15.93S532,496.52,529,498.26,527.78,512,516.39,514,505,497,497,496s-12.57,9-14.78,13S467,519.78,467,519.78Z"/><path class="cls-23" d="M467,519.78s-17.91-2.18-19-7S437,497,430,500a90.81,90.81,0,0,0-14,7,27.08,27.08,0,0,1-12,4,13.4,13.4,0,0,1-4.72-1.36L399,517l68,13.45Z"/><path class="cls-23" d="M378.91,521.63V504.8S382,498,383,496s3.74,8.8,3.74,8.8l4.43-3.61,8.11,8.45L399,517Z"/><polyline class="cls-30" points="585 520 467 531.45 399 517 379 522 359.94 519.91"/><line class="cls-37" x1="466.96" y1="514.97" x2="467" y2="531.45"/><line class="cls-37" x1="399.28" y1="504.78" x2="399" y2="517"/><path class="cls-23" d="M359.63,512l4-5.72,4.31,4.61a73.12,73.12,0,0,0,2.61-11.4C371,495,375.78,512,375.78,512l3.13-7.2.09,16.9-19.39-1.92Z"/><line class="cls-37" x1="378.91" y1="501.78" x2="379" y2="522"/><polyline class="cls-37" points="359.61 510.69 360 520 379 522"/><polygon class="cls-23" points="273 503.69 277 498 279 504 282 501 287 506 286.99 514.84 273 513.54 273 503.69"/><polyline class="cls-30" points="287 504.28 286.99 514.84 273 513.54 273 501"/><path class="cls-38" d="M827,589.83S824.39,577.89,811.7,568s-4.79-7.77-11.74-16.86-20-17.91-20-17.91V572Z"/><path class="cls-30" d="M713.05,596.68a55.9,55.9,0,0,0,19.83-6.85c10.12-5.83,14.85-12.12,30.49-14S780,572,780,572l275.25,104.46L1082,669l42.58,14.43,9.92-.93,4.38,5.77,55.92,19-.23,22.11L1307,772H833.09"/><line class="cls-30" x1="780" y1="530.35" x2="780" y2="572"/><path class="cls-39" d="M780,173.74,704,171l-8.58,16.2a.55.55,0,0,0,.49.81L780,189.13Z"/><polygon class="cls-40" points="780 135.13 855.55 9.03 851 4 780 123 780 135.13"/><path class="cls-41" d="M694.54,187.17,691.1,181,787.78,4h7.74L695.46,187.17A.53.53,0,0,1,694.54,187.17Z"/><path class="cls-41" d="M315.27,365.58l.13-7.5L145,144,1,56.48V63.2L140,149,315,365.67A.15.15,0,0,0,315.27,365.58Z"/><path class="cls-42" d="M629.37,531.13a19.61,19.61,0,0,1-4.25,10.17l-40.12-9V521.35s8,3.65,13.3,2.87,10.7-4.22,12.92-4.44,4.78,6.22,9.19,10.67,8.82,1.55,8.82,1.55,7.55,6,10.16,6.48,11.77-3.09,16.19-1.78,6.19,3.22,6.19,3.22l-6.43,2.27L655,548l-29.88-6.7"/><polyline class="cls-30" points="585 483.68 585 532.3 633.87 543.26 585 532.3 585 520 487.76 528.89"/><path class="cls-30" d="M670.64,465.7s-19.16-.08-23.9,18.61,2.26,11.3-9.74,21-1.88,25-11,35.7"/><polyline class="cls-30" points="633.87 543.26 655 548 655.34 542.19 661.77 539.92 662.51 535.89"/><path class="cls-38" d="M158.13,652.43S161,638,177,631s12,13,23-2,24-6,31-11l7-5s3-11,12-13,23-3.38,23-3.38V631L158.13,683.94Z"/><path class="cls-30" d="M208,549.05s18,5,16,14-13-2,4,26,8,38,8,38,1.83,15.37,8.92,17.18"/><polyline class="cls-30" points="273 573 273 631 158.13 683.94 158.13 640.28"/><path class="cls-38" d="M57,720s-6.22,2.95-20.61,0-12.13,4.75-12.13,4.75L7,740l-6,9.87L2.16,771.4,57,743Z"/><polyline class="cls-30" points="57 711.52 57 743 1.16 771.4 1 731.48"/><polygon class="cls-40" points="1 117.13 81.52 162.91 272.98 365.91 273 358.96 85 158 1 109.7 1 117.13"/><line class="cls-40" x1="414.39" y1="272" x2="492.34" y2="348.38"/><line class="cls-40" x1="441.39" y1="272" x2="519.34" y2="348.38"/><line class="cls-40" x1="468.39" y1="272" x2="542" y2="348"/><line class="cls-40" x1="495.39" y1="272" x2="564" y2="347"/><line class="cls-40" x1="522.39" y1="272" x2="575" y2="332"/><line class="cls-40" x1="551" y1="274" x2="586" y2="316"/><line class="cls-40" x1="587.61" y1="252" x2="612.62" y2="278.04"/><line class="cls-40" x1="612.62" y1="252" x2="622.78" y2="263.68"/><line class="cls-40" x1="731" y1="202" x2="780" y2="293.88"/><line class="cls-40" x1="755.5" y1="202" x2="780" y2="250.7"/><line class="cls-43" x1="477.5" y1="203.5" x2="456.91" y2="241.57"/><line class="cls-43" x1="484.57" y1="207.47" x2="498.65" y2="241.57"/><line class="cls-43" x1="480.37" y1="205.41" x2="480" y2="241.57"/><path class="cls-38" d="M1218.53,738.42S1223,716,1254,712s21.13,12.44,40.57-4.78,43.17-4.54,55.3-5.38,17.13,3,17.13,3V772h-60Z"/><polyline class="cls-30" points="1367 689.47 1367 772 1307 772 1209.67 735.06"/><path class="cls-30" d="M1311,246.6S1326.91,219,1316,202s-14.89-35.3-4.92-61.65,10.08-49.28,1.52-67.31"/><path class="cls-30" d="M268,207.65s12,13.17,19-2.24S288,185,300,165c0,0,14.8-8.87,15.4-19.43s-6.69-14.08-3.55-26.83"/><path class="cls-30" d="M334.89,115.67s5.63,7.5,22.37,6.42S381,132,381,132s13,37,25,36,11.92,5.22,11.92,5.22"/><path class="cls-30" d="M370.3,225.43s-8.17,8.64-18.73-2.9"/><path class="cls-30" d="M303.78,63.2s12.41-19.68,21.31-32.94S353,16,354,10s3.26-6,3.26-6"/><path class="cls-30" d="M341.88,306.46s-7.12,16.14,0,18.84,13,4.7,19.06,11.7,18,25,18,25"/><path class="cls-30" d="M379,405.62s9.19-8.93,10.1-17.27,10.36-23.07,10.36-23.07"/><path class="cls-30" d="M440.32,328.52s-4.54,31.43,1.07,39,23.61,19,24.61,32.76"/><path class="cls-30" d="M585,454.43A118.24,118.24,0,0,1,561,469c-15,7-17.91,3.62-23,15.31s-.95,20.29,0,28.49a76.26,76.26,0,0,1,.77,11.42"/></g></g></svg>