<?xml version="1.0" encoding="UTF-8"?><svg id="Layer_2" xmlns="http://www.w3.org/2000/svg" viewBox="0 0 491.72 413.47"><defs><style>.cls-1,.cls-2{fill:#fff;}.cls-2{stroke:#231f20;stroke-miterlimit:10;stroke-width:6px;}.cls-3{font-family:ComicSansMS, 'Comic Sans MS';font-size:56px;}</style></defs><g id="Page_1"><g id="Panel_4"><g id="Bubbles"><g><path class="cls-1" d="M27.39,82.33c-6.44-4.08-13-8.27-17.71-14.26s-7.27-14.23-4.61-21.37,11.68-11.86,18.41-8.28c-2.39-7.54,1.71-16.57,8.96-19.73s16.66-.02,20.55,6.87c-2.48-8.24,8.46-14.49,17.01-13.56s16.93,5.4,25.35,3.65c5.51-1.15,10.17-4.84,15.56-6.46,10.42-3.13,22.75,3.02,26.52,13.23,10.19-10.33,24.72-21.52,37.68-14.98,4.6,2.32,8.21,6.7,13.26,7.75,10.75,2.24,19.17-11.58,30.14-11.23,9.91,.32,16.43,11.96,26.3,12.91,12.84,1.25,24.87-15.98,35.96-9.39,6.71,3.99,8.22,15.17,15.95,16.29,6.54,.95,11.43-6.48,17.96-7.46,11.05-1.65,18.34,15.2,29.41,13.66,5.71-.79,10.31-6.52,16.03-5.8,6.64,.83,9.58,9.62,16.01,11.46,9.42,2.69,16.93-10.99,26.67-9.98,5.41,.56,9.34,5.53,14.54,7.13,7.48,2.3,14.97-2.77,22.44-5.1s18.61,1.3,17.32,9.02c4.94-4.85,13.48-5.46,19.06-1.35s7.54,12.43,4.38,18.59c5.65,.09,8.22,7.58,6.75,13.03s-12.51,12.62-13.51,18.18c-.88,4.9,7.76,7.41,8.5,12.33s.66,10.45-2.55,14.25-10.48,4.1-12.49-.46c5.5,11.29,.18,26.59-11.15,32.02,6.91,6.4,9.76,16.84,7.06,25.86-2.7,9.02-10.82,16.18-20.11,17.73,7.91,.23,10.62,12.25,5.39,18.18s-14.16,6.74-22.04,6.06c4.85,7.72,4.15,18.52-1.66,25.54s-16.29,9.73-24.78,6.4c-1.36,9.59-10.37,17.5-20.06,17.6s-18.87-7.61-20.43-17.17c-7.19,11.02-23.48,14.83-34.81,8.14-5.68-3.35-10.86-9.1-17.42-8.4-8.6,.92-14.1,12.74-22.6,11.2-6.7-1.21-10.63-4.47-17.44-4.42-8.75,.06-9.68,8.16-17.64,11.78-10.78,4.91-19.88-12.62-31.73-12.47-9.21,.12-15.81,10.99-25.01,10.55-6.49-.31-11.31-6.18-17.48-8.21-6.43-2.12-13.39,.16-19.76,2.42s-13.32,4.56-19.76,2.49-10.98-10.7-6.59-15.85c-5.54,7.56-18.4,7.96-24.41,.77s-9.36-17.63-.94-21.73c-7.06,11.09-17.95,12.11-28.54,4.3s-12.58-24.91-4.07-34.94c-5.43,6.07-15.98,3.86-21.69-1.96s3.47-18.45,.04-25.84c-3.13-6.74-18.86-8.66-20.48-15.92s-.02-15.94,6.19-20.02c-9.54,1.8-18.1-7.93-18.86-17.61s3.87-18.87,8.37-27.47"/><path d="M29.4,78.88c-8.15-5.17-17.45-10.92-20.52-20.66-1.35-4.28-1.39-9.41,1.63-13.03,2.56-3.07,7.09-5.08,10.94-3.32,3.06,1.39,6.84-.91,5.88-4.52-3.67-13.73,14.58-21.93,22.2-9.77,2.43,3.87,8.32,1.36,7.31-3.08-1.77-7.78,10.67-8.98,15.5-8.1,7.78,1.42,15.16,4.67,23.22,3.24,7.6-1.35,13.8-7.6,21.74-7.26,6.9,.3,13.62,4.64,16.26,11.1,1.1,2.69,4.37,4.09,6.69,1.77,5.39-5.39,11.31-10.81,18.4-13.86,7.5-3.23,13.41-1.61,19.75,3.01,4.88,3.56,10.07,5.99,16.22,4.55,5.42-1.27,9.85-4.8,14.51-7.64,5.94-3.62,10.73-4.32,16.75-.39,5.02,3.27,9.43,7.68,15.36,9.32,11.94,3.32,20.28-6.53,30.78-9.68,11.34-3.4,12.87,14.12,22.57,16.83,6.16,1.72,11.06-2.03,16-5.06,5.55-3.4,9.42-1.65,14.18,2.12,4.01,3.17,7.77,6.89,12.68,8.65,5.3,1.9,10.11,.46,14.88-2.14,2.77-1.5,5.76-3.8,8.98-2.25,2.46,1.19,4.28,3.98,6.17,5.84,3.69,3.63,8.11,6.05,13.41,5.18,5.98-.98,10.38-5.41,15.45-8.31,7.4-4.23,11.58,1.82,18.19,4.53,8.06,3.3,15.58-.42,23.11-3.3,4.09-1.56,16.18-3.64,15.46,4.02-.35,3.72,4.47,4.91,6.83,2.83,8.67-7.66,22,1.66,17.16,12.39-1.32,2.92,.28,5.69,3.45,6.02,2.73,.29,3.41,4.62,3.12,6.77-.37,2.73-2.5,4.68-4.31,6.59-3.51,3.72-8.72,7.93-9.51,13.32-.87,5.94,4.18,7.87,7.27,11.78,2.02,2.56,1.98,6.63,1.06,9.73-.79,2.66-5.21,7.08-7.48,3.12-2.62-4.56-8.97-.56-6.91,4.04,4.41,9.83-.37,21.7-9.71,26.55-2.3,1.19-2.57,4.54-.81,6.28,12.84,12.67,6.16,33.45-11.29,36.91-4.74,.94-3.11,7.45,1.06,7.86,5.39,.53,4.6,9,2.08,11.85-4.45,5.03-12.64,4.85-18.73,4.39-3.1-.23-4.89,3.55-3.45,6.02,8.7,15.02-5.81,31.71-21.93,26.06-1.91-.67-4.55,.77-4.92,2.79-1.42,7.85-7.89,14.55-16.2,14.67s-14.99-6.43-16.58-14.23c-.74-3.65-5.51-3.55-7.31-.96-5.01,7.22-14.43,10.76-23.02,9.08s-13.85-9.93-22.5-11.19-13.35,4.88-19.5,9.15c-7.31,5.06-16.31-2.91-24.5-2.47-3.52,.19-6.57,1.48-9.25,3.76-2.91,2.48-5,6.06-8.45,7.89-6.48,3.43-13.54-4.75-18.51-8.01-5.95-3.9-12.48-5.67-19.27-2.81-7.47,3.14-13.97,11.93-22.63,7.52-4.09-2.08-7.54-5.17-11.98-6.58-6.05-1.92-12.47-.66-18.36,1.21s-12.85,5.45-19.39,4.16c-4.55-.9-9.22-5.95-5.97-10.44,2.64-3.64-3.43-8.38-6.28-4.85-4.17,5.16-12.11,6.55-17.41,2.12-4.22-3.53-9.57-13.18-3.09-16.8l-5.47-5.47c-2.97,4.4-7.14,7.82-12.74,7.34-4.94-.43-10.08-3.46-13.18-7.29-5.8-7.17-6.21-18.56-.41-25.83,3.13-3.93-1.91-9.38-5.66-5.66-3.15,3.13-7.65,2.89-11.51,1.17s-5.67-3.82-5.08-8.03c.93-6.65,4.67-14.04,1.01-20.51-3.19-5.66-10.28-7.63-15.58-10.67-3.41-1.95-4.58-3.43-4.71-7.47-.15-4.43,1.03-9.22,4.78-11.96,2.75-2.02,2.39-8.04-2.02-7.45-8.04,1.07-13.99-6.09-14.86-13.61-1.03-8.97,3.84-17.81,7.82-25.46,2.38-4.56-4.53-8.61-6.91-4.04-5.41,10.39-11.55,22.67-7.99,34.67,2.8,9.44,11.57,17.8,21.93,16.43l-2.02-7.45c-7.63,5.59-11.92,18.27-7.01,27.08,1.99,3.58,5.94,5.7,9.45,7.49,3.29,1.67,9.29,3.44,10.49,7.33,1.34,4.31-1.67,10.33-2.28,14.63s-.22,8.34,2.79,11.53c6.97,7.41,19.8,9.44,27.34,1.96l-5.66-5.66c-8.8,11.04-8.62,27.63,1.24,38.09,4.85,5.14,12.25,8.81,19.38,8.74,7.96-.08,14-5.03,18.27-11.34,2.33-3.45-2.16-7.33-5.47-5.47-11.3,6.32-6.87,20.74,.54,28.46,7.91,8.25,22.46,7.68,29.65-1.22l-6.28-4.85c-4.98,6.87-.96,16.35,5.84,20.34,11,6.45,23.09-1.67,33.98-3.78,6.72-1.3,10.92,1.23,16.35,4.61,4.07,2.53,8.44,4.45,13.33,3.86,4.07-.48,7.63-2.52,10.99-4.74,3.72-2.45,7.9-6.12,12.67-5.63,7.87,.82,13.64,9.08,20.76,12,8.29,3.4,14.89-1.15,20.44-7.13,3.61-3.89,6.72-4.97,12.05-3.51,4.85,1.33,9.52,4.07,14.7,3.81,3.77-.18,7.02-2.21,9.93-4.44,3.37-2.59,7.19-7.05,11.81-6.92,5.18,.14,9.79,5.48,14.02,7.91s9.42,3.83,14.48,3.86c10.35,.05,19.93-4.98,25.8-13.43l-7.31-.96c2.28,11.2,12.66,20.27,24.29,20.11s21.87-9.21,23.92-20.54l-4.92,2.79c10.16,3.57,22.1,.6,28.98-7.83s7.4-20.63,1.98-29.98l-3.45,6.02c10.1,.75,23.94-1.08,27.79-12.23,3.01-8.7-1.44-19.07-11.14-20.02l1.06,7.86c23.42-4.64,31.66-33.66,14.82-50.28l-.81,6.28c13.5-7.01,18.71-23.85,12.58-37.5l-6.91,4.04c4.46,7.78,15.87,6.45,20.27-.73,2.72-4.43,3.02-10.06,2.22-15.08-.73-4.57-3.74-6.69-6.86-9.75-1.75-1.71-1.9-2.04-.54-4.07s3.16-3.61,4.77-5.29c2.77-2.89,6.11-5.99,7.36-9.92,2.55-8.02-1.65-17.59-10.46-18.51l3.45,6.02c3.63-8.03,2.13-17.78-5.01-23.44s-17.87-4.69-24.71,1.35l6.83,2.83c1.23-13.01-15.71-15.39-24.79-12.04-3.73,1.38-7.34,3.22-11.22,4.16-4.68,1.13-7.91-.19-11.77-2.69-5.34-3.45-10.66-5.8-16.99-3.52-5.37,1.94-9.3,6.31-14.48,8.54-6.35,2.73-9.63-3.85-13.83-7.4-4.9-4.13-10.49-4.43-16.16-1.65-2.8,1.37-5.62,3.8-8.84,3.96-2.67,.13-5.07-1.41-7.16-2.89-4.41-3.12-8.11-7.24-13.12-9.47-5.64-2.51-11.06-1.42-16.19,1.73-2.47,1.51-5.47,4.39-8.55,4.42s-4.76-2.98-6.19-5.17c-2.97-4.57-5.7-9.42-11-11.59-11.82-4.84-21.15,7.19-31.87,9.5-6.73,1.45-11.8-3.4-16.86-7.06S221.41-.86,215.04,.25s-11.77,5.71-17.47,8.91c-3.29,1.85-6.63,3.06-10.27,1.45s-6.22-4.46-9.56-6.28c-15.85-8.64-32.36,4.47-43.14,15.27l6.69,1.77c-3.35-8.22-10.25-14.45-19.06-16.35-4.08-.88-8.36-.84-12.38,.33-5.77,1.68-10.67,5.88-16.72,6.58-10.84,1.27-20.77-6.43-31.74-2.93-7.84,2.5-14.23,8.98-12.26,17.64l7.31-3.08c-5.28-8.41-16.19-12.57-25.55-8.51-9.33,4.05-13.85,14.84-11.28,24.45l5.88-4.52C13.38,29.44,.63,39.1,.04,51.84c-.75,16.09,13.25,26.29,25.33,33.95,4.36,2.77,8.38-4.15,4.04-6.91h0Z"/></g><circle class="cls-2" cx="26.72" cy="235.25" r="23.72"/><circle class="cls-2" cx="29.09" cy="304.42" r="19.76"/><circle class="cls-2" cx="38.13" cy="355.91" r="14.87"/><circle class="cls-2" cx="54.44" cy="399.05" r="11.41"/><text class="cls-3" transform="translate(40.53 87.89)"><tspan x="0" y="0">Where on earth</tspan><tspan x="28.27" y="67.2">is this journal</tspan><tspan x="82.55" y="134.4">taking me</tspan></text></g></g></g></svg>