<?xml version="1.0" encoding="UTF-8"?><svg id="Layer_2" xmlns="http://www.w3.org/2000/svg" viewBox="0 0 3010.01 4310.02"><defs><style>.cls-1{stroke-width:10px;}.cls-1,.cls-2{fill:none;stroke:#231f20;stroke-miterlimit:10;}.cls-2{stroke-width:15px;}.cls-3{fill:#5e3d21;}.cls-4{fill:#8b5e3c;}</style></defs><g id="Page_1"><g id="Frames"><rect class="cls-2" x="85.6" y="83.04" width="2840.87" height="1134"/><polygon class="cls-2" points="85.6 2342.43 85.6 1317.21 904.21 1303.21 904.21 2342.43 85.6 2342.43"/><rect class="cls-2" x="1005.95" y="1303.21" width="900" height="1039.22"/><polyline class="cls-2" points="2738.64 1303.21 2006.12 1303.21 2006.12 2342.43 2827.86 2342.43"/><rect class="cls-2" x="1323.69" y="3341.82" width="1573.04" height="883.96"/><g><path class="cls-4" d="M3005,5l-1.84,4298.65-529.04,1.35,41.48-79.22h381.13v-883.96h-196.44s.79-36,4.7-44.61,36.78-158.08,40.69-175.3c3.92-17.22,32.09-145.57,39.13-168.26,7.05-22.7,10.18-121.31,21.92-171.39,11.74-50.09,6.26-198.79,2.35-240.26-3.92-41.48,7.82-120.53,13.3-147.92,2.78-13.89,4.8-25.76,5.48-51.65,.65-25.17,0-64.37,0-78.26,0-28.17-7.83-181.57-11.74-201.91-3.91-20.35-18-131.48-16.44-146.35,1.57-14.87-1.56-57.91-9.39-93.09-7.82-35.17,2.35-133.08,4.7-171.43,2.35-38.35-16.44-172.96-16.44-172.96,0,0-14.08-36.78-27.39-122.09-3.71-23.77-7.52-34.71-12.52-53.13-12.93-47.67-28.17-86.17-28.17-86.17h216V83.04h-406.33s-8.23-47.3-31.82-78.04h516.68Z"/><path class="cls-1" d="M2700.29,3341.82h196.44v883.96h-381.13l-41.48,79.22,529.04-1.35,1.84-4298.65h-516.68c23.59,30.74,31.82,78.04,31.82,78.04h406.33V1217.04h-216s15.24,38.5,28.17,86.17c5,18.42,8.81,29.36,12.52,53.13,13.31,85.31,27.39,122.09,27.39,122.09,0,0,18.79,134.61,16.44,172.96-2.35,38.35-12.52,136.26-4.7,171.43,7.83,35.18,10.96,78.22,9.39,93.09-1.56,14.87,12.53,126,16.44,146.35,3.91,20.34,11.74,173.74,11.74,201.91,0,13.89,.65,53.09,0,78.26-.68,25.89-2.7,37.76-5.48,51.65-5.48,27.39-17.22,106.44-13.3,147.92,3.91,41.47,9.39,190.17-2.35,240.26-11.74,50.08-14.87,148.69-21.92,171.39-7.04,22.69-35.21,151.04-39.13,168.26-3.91,17.22-36.78,166.69-40.69,175.3s-4.7,44.61-4.7,44.61Z"/></g><path class="cls-3" d="M2805.82,1288.37c11.84,43.71,22.22,87.84,30.83,132.31,4.36,22.49,7.97,45.3,7.25,68.28s-5.28,43.47-9.18,64.99c-4.18,23.1-7.58,46.52-4.92,70,.43,3.79,6.43,3.84,6,0-4.9-43.23,10.83-84.88,13.73-127.65,1.52-22.34-1.18-44.64-5.11-66.61-4.02-22.47-8.85-44.81-13.91-67.06-5.78-25.42-12.1-50.7-18.91-75.86-1.01-3.72-6.8-2.14-5.79,1.6h0Z"/><path class="cls-3" d="M2946.72,1460.36c-5.95,25.88-6.48,52.45-5.75,78.88,.76,27.48,1.96,54.94,2.41,82.43,.89,54.84,.16,109.71-2.2,164.51-.65,15.19-1.43,30.36-2.33,45.54s-2.89,29.63-.45,44.23c.64,3.8,6.42,2.19,5.79-1.6-2.24-13.35-.26-27.25,.54-40.66s1.49-26.39,2.1-39.59c1.24-27.07,2.09-54.15,2.54-81.24,.9-54.06-.06-108.07-2.02-162.09-1.07-29.7-1.54-59.67,5.16-88.82,.86-3.76-4.92-5.36-5.79-1.6h0Z"/><path class="cls-3" d="M2873.05,1722.58c17.12,49.87,16.01,102.99,14.37,155-1.64,52.15-2.35,103.84,9.45,155.01,6.5,28.16,16.05,55.52,28.27,81.7,1.63,3.5,6.81,.45,5.18-3.03-22.22-47.61-34.95-99.29-37.46-151.77-2.46-51.43,3.32-102.87,.83-154.3-1.38-28.58-5.53-57.08-14.85-84.21-1.25-3.63-7.04-2.07-5.79,1.6h0Z"/><path class="cls-3" d="M2885.25,2118.11c2.48,66.78,6.8,133.51,7.31,200.36,.49,64.18-2.58,128.64-14.2,191.87-6.4,34.84-15.43,69.17-27.65,102.43-1.33,3.63,4.46,5.2,5.79,1.6,21.78-59.31,33.19-121.86,38.38-184.7,5.43-65.69,4.05-131.7,1.35-197.49-1.56-38.02-3.56-76.03-4.98-114.06-.14-3.85-6.14-3.87-6,0h0Z"/><path class="cls-3" d="M2958.1,2174.12c12.35,61.4,10.47,124.26,9.44,186.53-.52,31.41-.83,62.87,1.01,94.25s6.62,60.17,11.06,90.2c5.18,35,8.86,70.86,1.05,105.77-.84,3.76,4.94,5.37,5.79,1.6,13.84-61.79-6.42-124.42-11.12-186.07s-.05-125.65-1.19-188.46c-.64-35.35-3.26-70.7-10.24-105.4-.76-3.78-6.55-2.18-5.79,1.6h0Z"/><path class="cls-3" d="M2941.81,1950.51c9.94,36.45,15.09,73.96,15.32,111.74,.02,3.86,6.02,3.87,6,0-.24-38.29-5.46-76.4-15.54-113.34-1.01-3.72-6.8-2.14-5.79,1.6h0Z"/><path class="cls-3" d="M2931.5,2536.39c-1.45,36.26-12.45,71.35-18.2,107.02s-8.47,71.01-8.28,106.74c.19,35.72,3.36,71.43,9.44,106.64,6.28,36.37,15.89,72.07,16.35,109.21,.52,42.36-7.73,84.14-16.03,125.48-.76,3.77,5.02,5.38,5.79,1.6,7.26-36.15,14.46-72.56,15.98-109.49,1.52-37.01-5.38-72.38-12.56-108.48-14.38-72.31-17.01-146.63-6.48-219.67,5.73-39.75,18.39-78.77,20-119.03,.15-3.86-5.85-3.85-6,0h0Z"/><path class="cls-3" d="M2857.01,2941.96c.82,56.86-3.96,113.75-14.46,169.65-5.22,27.76-11.81,55.25-19.76,82.35-7.47,25.46-15.43,51.44-29.28,74.27-13.96,23.01-37.66,39.14-48.22,64.25-1.49,3.55,4.31,5.11,5.79,1.6,9.62-22.88,31.43-37.96,44.84-58.42,14.32-21.85,22.65-47.07,30.2-71.89,16.35-53.69,27.31-109,32.85-164.84,3.19-32.22,4.51-64.6,4.05-96.96-.06-3.86-6.06-3.87-6,0h0Z"/><path class="cls-3" d="M2851.8,2719.71c-1.22,21.7-3.18,43.35-5.93,64.91-2.6,20.33-5.79,40.65-2.38,61.09,.63,3.8,6.42,2.19,5.79-1.6-3.42-20.47,.29-41.12,2.84-61.46,2.62-20.91,4.5-41.91,5.68-62.95,.22-3.86-5.78-3.85-6,0h0Z"/><path class="cls-3" d="M2913.36,3195.83c-2.72,9.47-5.48,18.93-8.17,28.41-2.23,7.84-4.55,16.71-1,24.54,5.26,11.59,21.11,13.98,26.5,1.29,2.53-5.97,2.21-12.68,2.21-19.02,0-4.59,.24-9.17,.74-13.73,.55-4.99,2.03-10.04,2.02-15.07,0-6.06-3.65-12.93-10.44-13.06s-9.97,6.62-11.82,11.97c-2.96,8.6-3.41,18.01-1.54,26.89,1.16,5.5,4.46,16.79,12.36,13.8,2-.76,3.1-3.35,1.32-5.01l-3.1-2.91c-2.82-2.64-7.07,1.6-4.24,4.24l3.1,2.91,1.32-5.01c-4.56,1.73-5.94-17.47-5.88-19.86,.14-5.74,1.18-14.94,5.4-19.35,5.28-5.49,7.67,3.48,7.42,7.22s-1.23,7.54-1.7,11.3c-.86,6.95-.84,13.83-.94,20.81-.07,4.73-.15,11.15-3.75,14.75-5.96,5.95-13.34-1.92-14.48-7.83-1.47-7.62,1.83-15.69,3.91-22.93l6.54-22.73c1.07-3.72-4.72-5.3-5.79-1.6h0Z"/><path class="cls-3" d="M2848.36,2044.1c-2.93,11.84-5.89,24.14-4.94,36.44,.43,5.53,2.44,23.47,11.91,20.06,3.92-1.41,5.01-6.1,5.71-9.7,1.13-5.8,1.71-11.71,1.71-17.62,0-12.18-2.51-24.24-7.19-35.47-1.18-2.83-4.6-2.82-5.79,0-4.4,10.47-13.29,28.41-1.32,37.04,9.56,6.89,21.54-.02,22.75-11.05,.42-3.83-5.58-3.8-6,0-1.12,10.24-15.55,10.05-16.68,0-.86-7.65,4.14-17.48,7.04-24.39h-5.79c6.72,16.14,9.09,34.47,5.12,51.64-.57,2.45-1.74,4.47-3.1,.76-.71-1.93-1.23-3.95-1.63-5.96-.88-4.38-1.03-8.85-.81-13.3,.45-9.11,2.62-18.03,4.8-26.85,.93-3.75-4.86-5.35-5.79-1.6h0Z"/><path class="cls-3" d="M2947.33,3334.38c5.31,32.69,7.52,65.86,6.55,98.97-.96,32.75-6.49,64.82-10,97.32-1.74,16.07-2.54,32.17-1.64,48.33,.93,16.61,3.22,33.1,5.16,49.61,3.91,33.24,3.6,66.29,2.73,99.69-.99,37.83-1.97,75.65-2.96,113.48-.1,3.86,5.9,3.86,6,0,.88-33.84,1.77-67.69,2.65-101.53,.88-33.67,2.26-67.37-1.22-100.94s-8.48-65-5.74-98.08c2.72-32.84,9.06-65.2,10.64-98.17,1.77-36.88-.48-73.84-6.39-110.28-.62-3.8-6.4-2.19-5.79,1.6h0Z"/><path class="cls-3" d="M2964.96,3935.79c-2.88,21.95-20.77,37.76-31.32,56.13-11.18,19.48-15.94,42.03-29.43,60.27-2.3,3.11,2.91,6.1,5.18,3.03,14.16-19.14,18.74-43.08,31.16-63.17,11.32-18.3,27.49-34,30.41-56.26,.5-3.82-5.5-3.78-6,0h0Z"/><path class="cls-3" d="M2750.71,4234.09c-6.26,3.8-10.56,9.46-14.97,15.18-5.14,6.66-10.27,13.33-15.41,19.99-5.14,6.66-10.29,13.32-15.41,19.99-3.59,4.69-6.22,9.65-10.65,13.62-2.88,2.58,1.37,6.82,4.24,4.24,3.65-3.27,5.83-6.8,8.56-10.77,4.6-6.71,9.92-13,14.89-19.44l15.41-19.99c4.86-6.3,9.44-13.43,16.38-17.64,3.3-2,.28-7.19-3.03-5.18h0Z"/><path class="cls-3" d="M2964.65,4142.27c-.89,27.79-.84,55.82-3.26,83.53-2.4,27.49-10.53,53.64-21.83,78.71-1.57,3.49,3.6,6.55,5.18,3.03,11.21-24.87,19.53-50.7,22.29-77.94,2.93-28.92,2.68-58.3,3.61-87.33,.12-3.86-5.88-3.86-6,0h0Z"/><path class="cls-3" d="M2968.89,665.26l-2.11,91.04c-.68,29.45-2.19,59.04-1.01,88.49,.56,13.94,1.87,27.88,4.52,41.58s7.02,27.08,11.44,40.37,8.68,26.18,11.04,39.76,2.09,27.73,.6,41.56c-3.34,31.01-12.24,61.68-8.48,93.09,.45,3.79,6.46,3.83,6,0-3.4-28.36,3.56-56.21,7.38-84.15,1.83-13.44,3-27.06,1.8-40.61s-4.44-25.87-8.36-38.4-8.72-25.61-12.25-38.66c-3.89-14.41-6.06-29.17-7.11-44.04-2.05-29.29-.49-58.8,.19-88.11l2.37-101.92c.09-3.86-5.91-3.86-6,0h0Z"/><path class="cls-3" d="M2921.72,1269.23l-6.29-4.15c-1.75-1.15-4.81,.33-4.51,2.59,7.2,54.36,12.15,109,14.84,163.77,.19,3.84,6.19,3.87,6,0-2.68-54.77-7.63-109.41-14.84-163.77l-4.51,2.59,6.29,4.15c3.23,2.13,6.24-3.06,3.03-5.18h0Z"/><path class="cls-3" d="M2654.03,6.77c3.95,22.87,8.15,45.7,12.59,68.48,.74,3.79,6.52,2.18,5.79-1.6-4.45-22.78-8.64-45.61-12.59-68.48-.66-3.8-6.44-2.19-5.79,1.6h0Z"/><path class="cls-3" d="M2805.75,6.34c-.06,20.21-3.1,40.12-9.06,59.43-1.14,3.7,4.65,5.28,5.79,1.6,6.11-19.79,9.21-40.32,9.28-61.02,.01-3.86-5.99-3.87-6,0h0Z"/><path class="cls-3" d="M2942.94,6.35c1.12,24.18,16.54,44.18,26.03,65.56,5.92,13.34,8.19,26.73,7.32,41.29-.9,14.97-2.88,29.71-2.7,44.74,.71,57.57,19.55,115.65,7.97,173.1-3.09,15.33-10.81,30.53-9.67,46.44,.87,12.14,8.88,28.96-.36,39.4-2.55,2.88,1.68,7.14,4.24,4.24,7.86-8.89,6.12-20.25,4.1-31.03-1.21-6.47-2.52-12.89-1.95-19.5,.67-7.94,3.45-15.56,5.71-23.15,8.38-28.11,8.57-57.55,5.99-86.55-2.63-29.56-7.82-58.86-9.51-88.51-.83-14.62-.6-29.18,.81-43.75,1.45-14.98,2.96-29.98-1.16-44.69-7.47-26.7-29.5-49.19-30.82-77.6-.18-3.84-6.18-3.87-6,0h0Z"/></g><g id="Layer_241"><rect class="cls-1" x="5" y="5" width="3000" height="4300"/></g></g></svg>